<svg viewBox="0 0 661 405" xmlns="http://www.w3.org/2000/svg" xmlns:xlink="http://www.w3.org/1999/xlink"><clipPath id="a"><path d="m668 106.16a26.78 26.78 0 0 1 -10.2 13.32c-.86.57-8.35 5.37-17.55 4.24-4.6-.56-6.15-2.17-10.66-1.61-4.35.55-4.47 2.24-9.07 3.19-7.06 1.46-9.15-2-13.33 0-4.51 2.19-3.49 6.95-8 9.06-2.94 1.38-5 .14-11.2-1.08-3.05-.61-12.12-2.41-20.79-1.09-6.6 1-5.21 2.64-15.47 5.31-9.6 2.5-10.73 1.05-17.07 3.71s-6.93 4.94-12.27 5.86-6.51-1-11.73 0c-5.68 1.06-6.08 3.65-11.74 5.85-9.17 3.57-12-1.72-19.2 1.58-7.45 3.4-7 10.2-14.41 11.71-4.09.85-4.83-1.13-9.06 0-6 1.6-5.89 6-11.74 8-5.43 1.89-7-1.36-12.8.51-5.33 1.72-4.41 4.55-10.68 7.46-3.86 1.79-7.55 2.25-14.93 3.18-6.45.81-6.44.22-8 1.06-5.93 3.17-3.92 10.52-9.61 13.31-3.34 1.64-5.79 0-9.07 2.66a13.1 13.1 0 0 0 -3.21 4.26c-2.52 4.74-1.83 8.16-3.2 8.53-1.56.41-3.88-3.6-4.27-4.27-4.38-7.6-1.82-12.91-5.31-15.47-2.61-1.92-6.53-.76-9.06 0-5 1.47-6.13 4.21-10.68 6.92-4.73 2.81-5.69 1.14-14.4 3.71-9.31 2.75-8.88 4.85-19.2 8-6.17 1.86-9.25 2.8-12.81 3.18-5.25.57-8.79.06-11.2 2.65-2 2.14-.82 3.81-2.67 5.33-3.06 2.52-7-1.39-12.8.52-2.87 1-2.13 2-6.93 4.79a44.56 44.56 0 0 1 -10.68 4.17c-4.55 1.32-5.16 1-9.61 2.12-4.77 1.2-6.82 2.26-13.33 4.78-7.65 3-11.47 4.43-14.94 5.31-14.62 3.71-17.77-2.11-26.66 2.64-2.13 1.13-3.07 2.06-12.81 8-3.61 2.19-4.47 2.67-5.87 3.19-4.56 1.71-6.19.71-12.8 2.12-4.4.94-4 1.46-8 2.12-4.14.69-5.47.28-9.07 1.06-2.41.52-2.44.84-7.46 2.66a90.91 90.91 0 0 1 -13.87 4.25c-4.42.87-5.09.5-7.47 1.59-3.76 1.72-3.9 3.51-6.94 4.79-4.36 1.83-5.79-1.15-10.66 0-6 1.38-5.82 6.31-12.28 7.45-.19 0 0 0-6.93.52-5.11.39-5.37.43-5.86.53-4.61.95-4.52 2.76-8.54 3.72-1.76.42-1.82 0-9.6 0h-5.86a44.41 44.41 0 0 0 -16 3.71c-5.33 2.13-19.44 4.2-58.74 3.67l-.14 148.06 698.08.84z"/></clipPath><linearGradient id="b" gradientUnits="userSpaceOnUse" x1="317.6" x2="317.6" y1="499.12" y2="61.33"><stop offset="0" stop-color="#00dcc4" stop-opacity=".2"/><stop offset="1" stop-color="#1d67e1" stop-opacity=".8"/></linearGradient><path d="m0 0h661v405h-661z" fill="#f6f8fc"/><g clip-path="url(#a)"><path d="m-127.64 37.22h890.47v464.41h-890.47z" fill="url(#b)" transform="matrix(.95671205 -.29103617 .29103617 .95671205 -64.67 104.12)"/></g><path d="m-30.26 297.91c39.31.48 53.41-1.61 58.74-3.74 1.59-.63 8.28-3.62 16-3.73h5.86c7.78 0 7.85.42 9.6 0 4-1 3.93-2.78 8.53-3.73.5-.1.76-.14 5.87-.54 7-.54 6.74-.49 6.93-.53 6.45-1.14 6.3-6.07 12.27-7.46 4.86-1.14 6.3 1.83 10.66 0 3-1.28 3.18-3.07 6.93-4.8 2.38-1.1 3.06-.72 7.47-1.6a90.72 90.72 0 0 0 13.86-4.27c5-1.82 5.06-2.14 7.47-2.66 3.6-.79 4.93-.38 9.06-1.07 4-.67 3.6-1.19 8-2.13 6.61-1.43 8.24-.42 12.8-2.14 1.39-.52 2.26-1 5.86-3.2 9.74-5.93 10.68-6.86 12.8-8 8.89-4.76 12.05 1.06 26.66-2.67 3.46-.88 7.29-2.37 14.93-5.33 6.51-2.53 8.56-3.6 13.33-4.8 4.45-1.12 5.06-.8 9.6-2.13a44.62 44.62 0 0 0 10.67-4.27c4.79-2.8 4.05-3.85 6.93-4.8 5.77-1.92 9.74 2 12.79-.53 1.85-1.53.7-3.2 2.67-5.34 2.4-2.6 6-2.09 11.2-2.66 3.55-.39 6.63-1.33 12.8-3.2 10.31-3.14 9.89-5.24 19.19-8 8.71-2.58 9.67-.91 14.4-3.73 4.55-2.71 5.67-5.45 10.66-6.93 2.53-.75 6.45-1.92 9.07 0 3.49 2.55.93 7.86 5.33 15.46.39.67 2.71 4.68 4.27 4.27 1.37-.37.67-3.8 3.2-8.54a12.77 12.77 0 0 1 3.2-4.26c3.28-2.68 5.73-1 9.06-2.67 5.69-2.8 3.67-10.14 9.6-13.33 1.55-.83 1.54-.25 8-1.06 7.38-.94 11.07-1.41 14.93-3.2 6.26-2.92 5.34-5.75 10.66-7.47 5.83-1.88 7.37 1.36 12.8-.53 5.85-2 5.71-6.4 11.73-8 4.24-1.13 5 .85 9.06 0 7.36-1.53 6.95-8.32 14.4-11.73 7.22-3.31 10 2 19.2-1.6 5.66-2.21 6.06-4.8 11.73-5.87 5.22-1 6.41.92 11.73 0s5.78-3.13 12.26-5.86 7.47-1.23 17.07-3.74c10.26-2.68 8.86-4.31 15.46-5.33 8.67-1.33 17.74.47 20.8 1.07 6.15 1.22 8.26 2.44 11.19 1.07 4.52-2.12 3.49-6.88 8-9.07 4.18-2 6.28 1.46 13.33 0 4.6-1 4.72-2.65 9.07-3.2 4.51-.57 6.06 1 10.66 1.6 9.2 1.11 16.69-3.7 17.55-4.27a26.73 26.73 0 0 0 10.18-13.33" fill="none" stroke="#1d67e1" stroke-miterlimit="10" stroke-width="5"/></svg>