<svg xmlns="http://www.w3.org/2000/svg" xmlns:xlink="http://www.w3.org/1999/xlink" viewBox="0 0 661 405"><defs><style>.cls-1,.cls-9{fill:none;}.cls-2{isolation:isolate;}.cls-3{fill:#2e3340;}.cls-4{opacity:0.1;mix-blend-mode:multiply;}.cls-5{fill:#1d212a;}.cls-6{fill:#616774;}.cls-7{clip-path:url(#clip-path);}.cls-8{fill:url(#linear-gradient);}.cls-9{stroke:#1d67e1;stroke-miterlimit:10;stroke-width:5px;}</style><clipPath id="clip-path"><path class="cls-1" d="M668,106.16a26.78,26.78,0,0,1-10.2,13.32c-.86.57-8.35,5.37-17.55,4.24-4.6-.56-6.15-2.17-10.66-1.61-4.35.55-4.47,2.24-9.07,3.19-7.06,1.46-9.15-2-13.33,0-4.51,2.19-3.49,6.95-8,9.06-2.94,1.38-5,.14-11.2-1.08-3.05-.61-12.12-2.41-20.79-1.09-6.6,1-5.21,2.64-15.47,5.31-9.6,2.5-10.73,1.05-17.07,3.71s-6.93,4.94-12.27,5.86-6.51-1-11.73,0c-5.68,1.06-6.08,3.65-11.74,5.85-9.17,3.57-12-1.72-19.2,1.58-7.45,3.4-7,10.2-14.41,11.71-4.09.85-4.83-1.13-9.06,0-6,1.6-5.89,6-11.74,8-5.43,1.89-7-1.36-12.8.51-5.33,1.72-4.41,4.55-10.68,7.46-3.86,1.79-7.55,2.25-14.93,3.18-6.45.81-6.44.22-8,1.06-5.93,3.17-3.92,10.52-9.61,13.31-3.34,1.64-5.79,0-9.07,2.66a13.1,13.1,0,0,0-3.21,4.26c-2.52,4.74-1.83,8.16-3.2,8.53-1.56.41-3.88-3.6-4.27-4.27-4.38-7.6-1.82-12.91-5.31-15.47-2.61-1.92-6.53-.76-9.06,0-5,1.47-6.13,4.21-10.68,6.92-4.73,2.81-5.69,1.14-14.4,3.71-9.31,2.75-8.88,4.85-19.2,8-6.17,1.86-9.25,2.8-12.81,3.18-5.25.57-8.79.06-11.2,2.65-2,2.14-.82,3.81-2.67,5.33-3.06,2.52-7-1.39-12.8.52-2.87,1-2.13,2-6.93,4.79A44.56,44.56,0,0,1,253,234.71c-4.55,1.32-5.16,1-9.61,2.12-4.77,1.2-6.82,2.26-13.33,4.78-7.65,3-11.47,4.43-14.94,5.31-14.62,3.71-17.77-2.11-26.66,2.64-2.13,1.13-3.07,2.06-12.81,8-3.61,2.19-4.47,2.67-5.87,3.19-4.56,1.71-6.19.71-12.8,2.12-4.4.94-4,1.46-8,2.12-4.14.69-5.47.28-9.07,1.06-2.41.52-2.44.84-7.46,2.66a90.91,90.91,0,0,1-13.87,4.25c-4.42.87-5.09.5-7.47,1.59-3.76,1.72-3.9,3.51-6.94,4.79-4.36,1.83-5.79-1.15-10.66,0-6,1.38-5.82,6.31-12.28,7.45-.19,0,0,0-6.93.52-5.11.39-5.37.43-5.86.53-4.61.95-4.52,2.76-8.54,3.72-1.76.42-1.82,0-9.6,0H44.44a44.41,44.41,0,0,0-16,3.71c-5.33,2.13-19.44,4.2-58.74,3.67L-30.44,447l698.08.84Z"/></clipPath><linearGradient id="linear-gradient" x1="-638.04" y1="449.49" x2="-638.04" y2="11.7" gradientTransform="translate(955.64 49.63)" gradientUnits="userSpaceOnUse"><stop offset="0" stop-color="#00dcc4" stop-opacity="0.2"/><stop offset="1" stop-color="#1d67e1" stop-opacity="0.8"/></linearGradient></defs><g class="cls-2"><g id="Layer_1" data-name="Layer 1"><rect class="cls-3" width="661" height="405"/><g class="cls-4"><path class="cls-5" d="M156.53,226.2l25.72-1.06,9.28,8.54,8.54-9.27,25.72-1.06a6.31,6.31,0,0,0,6-6.56L230.4,191.5a6.3,6.3,0,0,0-6.55-6l-69.27,2.85a6.31,6.31,0,0,0-6,6.56L150,220.16A6.3,6.3,0,0,0,156.53,226.2Z"/></g><path class="cls-6" d="M157.53,227.2l25.72-1.06,9.28,8.54,8.54-9.27,25.72-1.06a6.31,6.31,0,0,0,6-6.56L231.4,192.5a6.3,6.3,0,0,0-6.55-6l-69.27,2.85a6.31,6.31,0,0,0-6,6.56L151,221.16A6.3,6.3,0,0,0,157.53,227.2Z"/><g class="cls-7"><rect class="cls-8" x="-127.64" y="37.22" width="890.47" height="464.41" transform="translate(-64.67 104.12) rotate(-16.92)"/></g><path class="cls-9" d="M-30.26,297.91c39.31.48,53.41-1.61,58.74-3.74,1.59-.63,8.28-3.62,16-3.73h5.86c7.78,0,7.85.42,9.6,0,4-1,3.93-2.78,8.53-3.73.5-.1.76-.14,5.87-.54,7-.54,6.74-.49,6.93-.53,6.45-1.14,6.3-6.07,12.27-7.46,4.86-1.14,6.3,1.83,10.66,0,3-1.28,3.18-3.07,6.93-4.8,2.38-1.1,3.06-.72,7.47-1.6a90.72,90.72,0,0,0,13.86-4.27c5-1.82,5.06-2.14,7.47-2.66,3.6-.79,4.93-.38,9.06-1.07,4-.67,3.6-1.19,8-2.13,6.61-1.43,8.24-.42,12.8-2.14,1.39-.52,2.26-1,5.86-3.2,9.74-5.93,10.68-6.86,12.8-8,8.89-4.76,12.05,1.06,26.66-2.67,3.46-.88,7.29-2.37,14.93-5.33,6.51-2.53,8.56-3.6,13.33-4.8,4.45-1.12,5.06-.8,9.6-2.13a44.62,44.62,0,0,0,10.67-4.27c4.79-2.8,4.05-3.85,6.93-4.8,5.77-1.92,9.74,2,12.79-.53,1.85-1.53.7-3.2,2.67-5.34,2.4-2.6,6-2.09,11.2-2.66,3.55-.39,6.63-1.33,12.8-3.2,10.31-3.14,9.89-5.24,19.19-8,8.71-2.58,9.67-.91,14.4-3.73,4.55-2.71,5.67-5.45,10.66-6.93,2.53-.75,6.45-1.92,9.07,0,3.49,2.55.93,7.86,5.33,15.46.39.67,2.71,4.68,4.27,4.27,1.37-.37.67-3.8,3.2-8.54a12.77,12.77,0,0,1,3.2-4.26c3.28-2.68,5.73-1,9.06-2.67,5.69-2.8,3.67-10.14,9.6-13.33,1.55-.83,1.54-.25,8-1.06,7.38-.94,11.07-1.41,14.93-3.2,6.26-2.92,5.34-5.75,10.66-7.47,5.83-1.88,7.37,1.36,12.8-.53,5.85-2,5.71-6.4,11.73-8,4.24-1.13,5,.85,9.06,0,7.36-1.53,6.95-8.32,14.4-11.73,7.22-3.31,10,2,19.2-1.6,5.66-2.21,6.06-4.8,11.73-5.87,5.22-1,6.41.92,11.73,0s5.78-3.13,12.26-5.86,7.47-1.23,17.07-3.74c10.26-2.68,8.86-4.31,15.46-5.33,8.67-1.33,17.74.47,20.8,1.07,6.15,1.22,8.26,2.44,11.19,1.07,4.52-2.12,3.49-6.88,8-9.07,4.18-2,6.28,1.46,13.33,0,4.6-1,4.72-2.65,9.07-3.2,4.51-.57,6.06,1,10.66,1.6,9.2,1.11,16.69-3.7,17.55-4.27a26.73,26.73,0,0,0,10.18-13.33"/><path class="cls-3" d="M160.16,202.58l.27,1.91h-1.15l-2.06-5.23,1.84-.09Zm.41-3.49,1.84-.08-1.78,6a3.42,3.42,0,0,1-.16.44,2,2,0,0,1-.29.44,1.27,1.27,0,0,1-.48.36,1.92,1.92,0,0,1-.74.17,2.21,2.21,0,0,1-.26,0l-.19,0-.24-.05-.06-1.28h.19a1,1,0,0,0,.53-.12.49.49,0,0,0,.21-.26l.33-1Z"/><path class="cls-3" d="M162.71,201.53a3,3,0,0,1,.22-1.36,2.17,2.17,0,0,1,.8-1,2.48,2.48,0,0,1,1.35-.41,2.57,2.57,0,0,1,1.4.28,2.18,2.18,0,0,1,.89.89,3.2,3.2,0,0,1,.35,1.34v.09a3.14,3.14,0,0,1-.22,1.36,2.19,2.19,0,0,1-.8,1,3,3,0,0,1-2.75.13,2.15,2.15,0,0,1-.89-.9,3,3,0,0,1-.35-1.34Zm1.72,0a3,3,0,0,0,.09.64.85.85,0,0,0,.26.43.71.71,0,0,0,.5.14.7.7,0,0,0,.48-.18.85.85,0,0,0,.21-.46,2.59,2.59,0,0,0,0-.64v-.09a2.89,2.89,0,0,0-.09-.62.84.84,0,0,0-.26-.44.67.67,0,0,0-.5-.15.66.66,0,0,0-.48.19.93.93,0,0,0-.21.47,2.51,2.51,0,0,0,0,.62Z"/><path class="cls-3" d="M172,201.39a3.16,3.16,0,0,1-.16,1.26,2,2,0,0,1-.6.89,1.61,1.61,0,0,1-1,.37,1.77,1.77,0,0,1-1.26-.39,1.92,1.92,0,0,1-.55-1.44l-.15-3.34,1.71-.08.16,3.35a.54.54,0,0,0,.07.27.39.39,0,0,0,.21.17.66.66,0,0,0,.32.05.85.85,0,0,0,.52-.16.67.67,0,0,0,.25-.38,1.84,1.84,0,0,0,.05-.54Zm-.72-2.79,1.72-.08.24,5.15-1.61.08-.17-1.26Z"/><path class="cls-3" d="M176.16,200.92a3.4,3.4,0,0,1,.19-1.39,2.13,2.13,0,0,1,.69-1,1.94,1.94,0,0,1,1.12-.39,1.71,1.71,0,0,1,.89.17,1.49,1.49,0,0,1,.57.57,3.23,3.23,0,0,1,.36.86c.09.33.17.68.24,1.06v-.06a6.81,6.81,0,0,1-.27,1.33,2.47,2.47,0,0,1-.55,1,1.42,1.42,0,0,1-1,.42,1.91,1.91,0,0,1-1.14-.29,2.15,2.15,0,0,1-.78-.9,3.25,3.25,0,0,1-.32-1.32Zm4.84-2.77.23,4.93a2.17,2.17,0,0,1-.28,1.24,2.13,2.13,0,0,1-.9.8,3.58,3.58,0,0,1-2.11.28,3.35,3.35,0,0,1-.7-.22,2.06,2.06,0,0,1-.55-.38l.66-1.1a1.79,1.79,0,0,0,.49.31,1.4,1.4,0,0,0,.69.12,1.07,1.07,0,0,0,.75-.28,1,1,0,0,0,.23-.71l-.18-3.67.11-1.25Zm-3.12,2.79a2,2,0,0,0,.12.62,1,1,0,0,0,.3.43.76.76,0,0,0,.48.14.89.89,0,0,0,.52-.17.71.71,0,0,0,.27-.41,1.61,1.61,0,0,0,0-.63v-.16a3,3,0,0,0-.06-.57,1.12,1.12,0,0,0-.17-.38.61.61,0,0,0-.29-.21,1.22,1.22,0,0,0-.41-.06.69.69,0,0,0-.46.19,1,1,0,0,0-.27.45,2,2,0,0,0-.06.66Z"/><path class="cls-3" d="M181.79,200.65a3,3,0,0,1,.22-1.36,2.19,2.19,0,0,1,.8-1,3,3,0,0,1,2.75-.13,2.2,2.2,0,0,1,.89.9,3.16,3.16,0,0,1,.35,1.34v.09a3.17,3.17,0,0,1-.22,1.36,2.12,2.12,0,0,1-.8,1,2.57,2.57,0,0,1-1.36.41A2.65,2.65,0,0,1,183,203a2.18,2.18,0,0,1-.89-.89,3.06,3.06,0,0,1-.35-1.34Zm1.72,0a2.81,2.81,0,0,0,.09.63.84.84,0,0,0,.26.44.7.7,0,0,0,.5.14.66.66,0,0,0,.48-.19.79.79,0,0,0,.21-.45,2.62,2.62,0,0,0,0-.64v-.09a3,3,0,0,0-.09-.63.92.92,0,0,0-.26-.44.71.71,0,0,0-.5-.14.66.66,0,0,0-.48.19.93.93,0,0,0-.21.46,2.56,2.56,0,0,0,0,.63Z"/><path class="cls-3" d="M190.14,199l-3.17.15-.05-1.24,3.16-.14Zm-.94-2.48.22,4.66a.67.67,0,0,0,.05.28.25.25,0,0,0,.16.14.72.72,0,0,0,.31,0l.23,0,.16,0,.06,1.27a2.49,2.49,0,0,1-.44.14,3.46,3.46,0,0,1-.49.06,2.3,2.3,0,0,1-.91-.13,1.18,1.18,0,0,1-.6-.5,2,2,0,0,1-.24-.92l-.22-4.91Z"/><path class="cls-3" d="M196,198.7l-3.16.14-.06-1.24,3.16-.14Zm-.94-2.49.22,4.66a.67.67,0,0,0,.05.28.27.27,0,0,0,.16.14.72.72,0,0,0,.31,0l.23,0,.16,0,.06,1.27a2.49,2.49,0,0,1-.44.14,3.46,3.46,0,0,1-.49.06,2.3,2.3,0,0,1-.91-.13,1.18,1.18,0,0,1-.6-.5,2,2,0,0,1-.24-.92l-.22-4.91Z"/><path class="cls-3" d="M196.31,200a3,3,0,0,1,.22-1.37,2.17,2.17,0,0,1,.8-1,2.57,2.57,0,0,1,1.36-.41,2.68,2.68,0,0,1,1.4.28,2.18,2.18,0,0,1,.88.9,3.12,3.12,0,0,1,.35,1.34v.09a3.17,3.17,0,0,1-.22,1.36,2.11,2.11,0,0,1-.8,1,2.57,2.57,0,0,1-1.36.41,2.65,2.65,0,0,1-1.39-.28,2.2,2.2,0,0,1-.89-.9,3.15,3.15,0,0,1-.35-1.33Zm1.72,0a2.44,2.44,0,0,0,.1.63.87.87,0,0,0,.25.44.71.71,0,0,0,.5.13.7.7,0,0,0,.48-.18.82.82,0,0,0,.21-.46,2.59,2.59,0,0,0,0-.64v-.09a3,3,0,0,0-.09-.62.88.88,0,0,0-.26-.44.65.65,0,0,0-.5-.15.67.67,0,0,0-.48.2,1,1,0,0,0-.21.46,3.17,3.17,0,0,0,0,.63Z"/><path class="cls-3" d="M207.13,200.63a.25.25,0,0,0-.09-.2,1.09,1.09,0,0,0-.3-.13,5.2,5.2,0,0,0-.6-.12,4.29,4.29,0,0,1-.92-.27,1.75,1.75,0,0,1-.68-.5,1.17,1.17,0,0,1-.28-.77,1.38,1.38,0,0,1,.21-.83,1.84,1.84,0,0,1,.7-.65,2.68,2.68,0,0,1,1.16-.28,3.14,3.14,0,0,1,1.23.16,1.8,1.8,0,0,1,.82.55,1.5,1.5,0,0,1,.32.88l-1.71.08a.55.55,0,0,0-.15-.4.64.64,0,0,0-.46-.11.54.54,0,0,0-.25.06.41.41,0,0,0-.19.15.35.35,0,0,0-.07.23.35.35,0,0,0,.1.21.57.57,0,0,0,.27.14,2.2,2.2,0,0,0,.46.09,5.18,5.18,0,0,1,1,.22,1.73,1.73,0,0,1,.77.47,1.46,1.46,0,0,1,.09,1.73,1.81,1.81,0,0,1-.76.61,3.13,3.13,0,0,1-1.21.27,2.68,2.68,0,0,1-1.28-.21,2,2,0,0,1-.81-.65,1.47,1.47,0,0,1-.3-.81l1.6-.08a.6.6,0,0,0,.12.34.53.53,0,0,0,.27.19,1,1,0,0,0,.4.05.76.76,0,0,0,.32-.06.41.41,0,0,0,.19-.15A.3.3,0,0,0,207.13,200.63Z"/><path class="cls-3" d="M212.17,197.94l-3.17.15-.05-1.24,3.16-.14Zm-.94-2.48.21,4.66a.84.84,0,0,0,.06.28.25.25,0,0,0,.16.14.93.93,0,0,0,.31,0l.22,0,.17,0,0,1.27a2.16,2.16,0,0,1-.43.14,2.46,2.46,0,0,1-.49.05,2.19,2.19,0,0,1-.92-.12,1.2,1.2,0,0,1-.59-.5,2,2,0,0,1-.24-.92l-.23-4.91Z"/><path class="cls-3" d="M215.67,199.47l-.66,0a.6.6,0,0,0-.54.24.81.81,0,0,0-.12.47.34.34,0,0,0,.14.28.46.46,0,0,0,.33.09.86.86,0,0,0,.41-.11.57.57,0,0,0,.24-.22.28.28,0,0,0,.07-.21l.4.7c-.06.13-.13.26-.2.38a1.49,1.49,0,0,1-.27.35,1.33,1.33,0,0,1-.41.27,1.67,1.67,0,0,1-.59.12,2,2,0,0,1-.89-.16,1.65,1.65,0,0,1-.67-.52,1.36,1.36,0,0,1-.28-.8,1.51,1.51,0,0,1,.53-1.28,3,3,0,0,1,1.82-.54l.63,0Zm-.27-1.15a.77.77,0,0,0-.14-.44.49.49,0,0,0-.43-.15.53.53,0,0,0-.26.06.31.31,0,0,0-.16.16.72.72,0,0,0,0,.28l-1.71.08a1.44,1.44,0,0,1,.24-.91,1.83,1.83,0,0,1,.77-.64,3,3,0,0,1,1.2-.28,2.82,2.82,0,0,1,1.11.16,1.68,1.68,0,0,1,.81.59,1.82,1.82,0,0,1,.33,1l.1,2a3.75,3.75,0,0,0,.1.8,1.35,1.35,0,0,0,.18.44v.09l-1.71.08a2.29,2.29,0,0,1-.21-.61,4.64,4.64,0,0,1-.09-.77Z"/><path class="cls-3" d="M219.84,201.51l-1.72.08-.24-5.15,1.6-.08.18,1.38Zm1.29-3.58h-.54a1.58,1.58,0,0,0-.59.12.65.65,0,0,0-.31.3,1.15,1.15,0,0,0-.07.52l-.31-.24a4,4,0,0,1,.12-1.24,1.84,1.84,0,0,1,.46-.84,1.07,1.07,0,0,1,.74-.32h.24a.66.66,0,0,1,.21,0Z"/><path class="cls-3" d="M224.7,197.36l-3.17.15-.06-1.24,3.17-.14Zm-.94-2.48.21,4.66a.9.9,0,0,0,.06.28.23.23,0,0,0,.16.14.9.9,0,0,0,.31,0l.22,0,.17,0,.05,1.27a2.25,2.25,0,0,1-.44.14,2.36,2.36,0,0,1-.48,0,2.17,2.17,0,0,1-.92-.12,1.2,1.2,0,0,1-.59-.5,1.89,1.89,0,0,1-.24-.92L222,195Z"/><path class="cls-3" d="M161.87,215.15a.37.37,0,0,0-.12-.25,1.16,1.16,0,0,0-.4-.18c-.19-.05-.45-.1-.79-.16a5.69,5.69,0,0,1-1.23-.36,2.47,2.47,0,0,1-.91-.65,1.69,1.69,0,0,1-.37-1,1.89,1.89,0,0,1,.29-1.11,2.23,2.23,0,0,1,.93-.86,3.67,3.67,0,0,1,1.53-.38,4.12,4.12,0,0,1,1.63.21,2.43,2.43,0,0,1,1.09.74,2,2,0,0,1,.43,1.17l-2.28.1a.72.72,0,0,0-.19-.53.86.86,0,0,0-.61-.15,1.3,1.3,0,0,0-.34.08.69.69,0,0,0-.25.2.44.44,0,0,0-.08.31.39.39,0,0,0,.13.27,1,1,0,0,0,.36.2,2.81,2.81,0,0,0,.6.11,6.83,6.83,0,0,1,1.3.29,2.44,2.44,0,0,1,1,.62,1.81,1.81,0,0,1,.44,1.19,1.78,1.78,0,0,1-.32,1.11,2.49,2.49,0,0,1-1,.81,4.18,4.18,0,0,1-1.59.36,3.56,3.56,0,0,1-1.7-.28,2.77,2.77,0,0,1-1.08-.86,2,2,0,0,1-.4-1.08l2.13-.1a.81.81,0,0,0,.15.45.78.78,0,0,0,.36.25,1.26,1.26,0,0,0,.53.07,1.49,1.49,0,0,0,.42-.08.52.52,0,0,0,.25-.2A.47.47,0,0,0,161.87,215.15Z"/><path class="cls-3" d="M164.67,213.5a4.09,4.09,0,0,1,.29-1.81A2.85,2.85,0,0,1,166,210.4a3.36,3.36,0,0,1,1.8-.54,3.42,3.42,0,0,1,1.86.37,2.8,2.8,0,0,1,1.17,1.19,4,4,0,0,1,.46,1.77v.12a4,4,0,0,1-.3,1.8,2.91,2.91,0,0,1-1.05,1.3,3.45,3.45,0,0,1-1.81.53,3.49,3.49,0,0,1-1.85-.36,2.94,2.94,0,0,1-1.18-1.19,4.21,4.21,0,0,1-.46-1.77Zm2.28,0a4.11,4.11,0,0,0,.13.84,1.09,1.09,0,0,0,.34.58.93.93,0,0,0,.66.18.88.88,0,0,0,.63-.24,1.16,1.16,0,0,0,.29-.61,3.82,3.82,0,0,0,0-.85v-.12a4,4,0,0,0-.13-.82,1.23,1.23,0,0,0-.34-.59,1.07,1.07,0,0,0-1.3.06,1.27,1.27,0,0,0-.28.62,3.7,3.7,0,0,0,0,.83Z"/><path class="cls-3" d="M174.65,216.52l-2.28.1-.31-6.83,2.13-.1.22,1.45Zm-1-3.55a4.49,4.49,0,0,1,.21-1.76,2.6,2.6,0,0,1,.83-1.24,2.4,2.4,0,0,1,1.44-.5,1.94,1.94,0,0,1,1.46.49,2.59,2.59,0,0,1,.63,1.82l.21,4.56-2.28.1-.19-4.23a1.49,1.49,0,0,0-.12-.58.43.43,0,0,0-.26-.24,1.23,1.23,0,0,0-.4,0,1.07,1.07,0,0,0-.45.12,1,1,0,0,0-.34.32,1.67,1.67,0,0,0-.19.49,2.49,2.49,0,0,0,0,.62Zm3.74-.09a5,5,0,0,1,.19-1.81,2.58,2.58,0,0,1,.81-1.26,2.55,2.55,0,0,1,2.53-.31,1.72,1.72,0,0,1,.8.8,3.91,3.91,0,0,1,.35,1.6l.2,4.26-2.29.11-.2-4.27a1.43,1.43,0,0,0-.11-.55.44.44,0,0,0-.26-.23,1,1,0,0,0-.4-.05,1,1,0,0,0-.48.14,1,1,0,0,0-.32.35,1.65,1.65,0,0,0-.17.53,2.91,2.91,0,0,0,0,.67Z"/><path class="cls-3" d="M186.84,216.08a3.87,3.87,0,0,1-2-.37,3.27,3.27,0,0,1-1.28-1.16,3.38,3.38,0,0,1-.49-1.62v-.23a4.26,4.26,0,0,1,.28-1.8,2.93,2.93,0,0,1,1.05-1.33,3.77,3.77,0,0,1,3.55-.24,2.74,2.74,0,0,1,1.13,1.11,4.18,4.18,0,0,1,.46,1.79l0,1-5.62.26-.07-1.46,3.4-.15v-.19a1,1,0,0,0-.12-.48.66.66,0,0,0-.33-.26,1.66,1.66,0,0,0-.53-.07.88.88,0,0,0-.65.28,1.32,1.32,0,0,0-.27.65,4.49,4.49,0,0,0,0,.83v.24a1.87,1.87,0,0,0,.21.78,1.27,1.27,0,0,0,.52.48,1.53,1.53,0,0,0,.79.14,2.48,2.48,0,0,0,.83-.18,1.53,1.53,0,0,0,.69-.55l1.08,1.26a2.84,2.84,0,0,1-1,.87A3.61,3.61,0,0,1,186.84,216.08Z"/><path class="cls-3" d="M192.89,213.44l.16,2.22-1.38.07-1.9-6.76,2.18-.1Zm.65-4.65,1.42-.06-.35,2.68-1,4.23-1.13.05.07-2.18Zm3.05,4.53.26,2.17-1.14,0-1.37-4.1-.59-2.66,1.37-.06Zm.13-4.68,2.17-.1-1.25,6.91-1.38.06-.07-2.34Z"/><path class="cls-3" d="M202.13,215.24l-2.28.11-.45-9.7,2.28-.11Zm-1-3.54a4.65,4.65,0,0,1,.22-1.76,2.8,2.8,0,0,1,.81-1.24,2.11,2.11,0,0,1,1.29-.5,2.52,2.52,0,0,1,1.21.22,1.83,1.83,0,0,1,.86.84,3.78,3.78,0,0,1,.36,1.6l.2,4.2-2.29.1-.19-4.2a1.19,1.19,0,0,0-.14-.57.52.52,0,0,0-.32-.26,1.48,1.48,0,0,0-.49,0,1.25,1.25,0,0,0-.56.13.69.69,0,0,0-.31.32,1.3,1.3,0,0,0-.12.48,6.2,6.2,0,0,0,0,.62Z"/><path class="cls-3" d="M210.61,215a3.91,3.91,0,0,1-2-.37,3.18,3.18,0,0,1-1.27-1.16,3.3,3.3,0,0,1-.49-1.62v-.23a4.26,4.26,0,0,1,.28-1.8,3,3,0,0,1,1.05-1.34,3.36,3.36,0,0,1,1.83-.56,3.32,3.32,0,0,1,1.71.33,2.69,2.69,0,0,1,1.13,1.11,3.91,3.91,0,0,1,.46,1.79l0,1-5.63.26-.06-1.46,3.39-.15v-.19a.94.94,0,0,0-.13-.48.62.62,0,0,0-.33-.26,1.37,1.37,0,0,0-.52-.07.89.89,0,0,0-.66.28,1.31,1.31,0,0,0-.26.65,4.49,4.49,0,0,0,0,.83v.24a1.61,1.61,0,0,0,.21.78,1.15,1.15,0,0,0,.52.48,1.6,1.6,0,0,0,.78.14,2.43,2.43,0,0,0,.83-.18,1.48,1.48,0,0,0,.69-.55l1.09,1.26a2.87,2.87,0,0,1-1,.86A3.57,3.57,0,0,1,210.61,215Z"/><path class="cls-3" d="M216.6,214.57l-2.27.11-.32-6.84,2.13-.09.23,1.81Zm1.72-4.75h-.72a2.28,2.28,0,0,0-.78.16.82.82,0,0,0-.41.41,1.5,1.5,0,0,0-.1.68l-.41-.32a5,5,0,0,1,.16-1.64,2.47,2.47,0,0,1,.61-1.11,1.45,1.45,0,0,1,1-.43,1.71,1.71,0,0,1,.32,0,1.08,1.08,0,0,1,.28,0Z"/><path class="cls-3" d="M222.65,214.42a3.91,3.91,0,0,1-2-.37,3.18,3.18,0,0,1-1.27-1.16,3.27,3.27,0,0,1-.49-1.62l0-.23a4.26,4.26,0,0,1,.29-1.8,3,3,0,0,1,1-1.33,3.43,3.43,0,0,1,1.84-.57,3.32,3.32,0,0,1,1.71.33,2.69,2.69,0,0,1,1.13,1.11,4.08,4.08,0,0,1,.46,1.79l0,1-5.62.26-.06-1.45,3.39-.16V210a1,1,0,0,0-.13-.49.66.66,0,0,0-.33-.26,1.41,1.41,0,0,0-.53-.06.84.84,0,0,0-.65.27,1.23,1.23,0,0,0-.26.65,3.82,3.82,0,0,0,0,.84v.23a1.61,1.61,0,0,0,.21.78,1.18,1.18,0,0,0,.51.48,1.55,1.55,0,0,0,.79.14,2.43,2.43,0,0,0,.83-.18,1.48,1.48,0,0,0,.69-.55l1.08,1.27a2.83,2.83,0,0,1-1,.86A3.6,3.6,0,0,1,222.65,214.42Z"/></g></g></svg>