<svg id="Layer_1" data-name="Layer 1" xmlns="http://www.w3.org/2000/svg" viewBox="0 0 632 375"><defs><style>.cls-1{fill:#f6f8fc;}.cls-2{fill:#ffcb3d;}.cls-3{fill:#616774;}.cls-4{fill:#1c272d;}</style></defs><rect class="cls-1" width="632" height="375"/><rect class="cls-2" x="91.77" y="129.49" width="116.03" height="116.03" rx="4"/><path class="cls-3" d="M236.25,185a5.85,5.85,0,0,1-.82,2.61,4.81,4.81,0,0,1-2,1.8,6.54,6.54,0,0,1-3.07.66,5.79,5.79,0,0,1-3.2-.87,5.55,5.55,0,0,1-2.08-2.44,8.85,8.85,0,0,1-.73-3.74v-1.18a8.71,8.71,0,0,1,.74-3.75,5.75,5.75,0,0,1,2.12-2.44,6,6,0,0,1,3.25-.87,6.33,6.33,0,0,1,3,.66,4.72,4.72,0,0,1,1.91,1.82,6.34,6.34,0,0,1,.82,2.66h-2.62a4,4,0,0,0-.85-2.21,2.91,2.91,0,0,0-2.28-.79,3.12,3.12,0,0,0-1.92.57,3.42,3.42,0,0,0-1.15,1.66,7.92,7.92,0,0,0-.39,2.67v1.2a8.82,8.82,0,0,0,.35,2.61,3.45,3.45,0,0,0,1.08,1.69,3,3,0,0,0,1.93.6,3.84,3.84,0,0,0,1.75-.34,2.35,2.35,0,0,0,1-1,4.5,4.5,0,0,0,.45-1.6Z"/><path class="cls-3" d="M237.83,184.26a6.54,6.54,0,0,1,.61-2.88,4.9,4.9,0,0,1,1.76-2,5.59,5.59,0,0,1,5.56,0,4.9,4.9,0,0,1,1.76,2,6.69,6.69,0,0,1,.61,2.88v.22a6.61,6.61,0,0,1-.61,2.87,4.78,4.78,0,0,1-1.76,2,5.57,5.57,0,0,1-5.55,0,4.8,4.8,0,0,1-1.77-2,6.47,6.47,0,0,1-.61-2.87Zm2.53.22a5.38,5.38,0,0,0,.28,1.79,2.77,2.77,0,0,0,.85,1.3,2.51,2.51,0,0,0,3,0,2.77,2.77,0,0,0,.85-1.3,5.65,5.65,0,0,0,.27-1.79v-.22a5.69,5.69,0,0,0-.27-1.79,2.85,2.85,0,0,0-.85-1.31,2.24,2.24,0,0,0-1.5-.5,2.2,2.2,0,0,0-1.49.5,2.85,2.85,0,0,0-.85,1.31,5.69,5.69,0,0,0-.27,1.79Z"/><path class="cls-3" d="M252.68,189.89h-2.53v-11h2.38l.15,2.36ZM251.42,184a6.65,6.65,0,0,1,.56-2.81,4.46,4.46,0,0,1,1.54-1.87,4,4,0,0,1,2.31-.67,4.12,4.12,0,0,1,1.86.4,2.76,2.76,0,0,1,1.23,1.31,5.68,5.68,0,0,1,.44,2.43v7.12h-2.55v-7.14a2.77,2.77,0,0,0-.22-1.22,1.27,1.27,0,0,0-.65-.64,2.76,2.76,0,0,0-1.06-.18,2.4,2.4,0,0,0-1.12.25,2.29,2.29,0,0,0-.82.7,3.19,3.19,0,0,0-.53,1,4.7,4.7,0,0,0-.17,1.27Z"/><path class="cls-3" d="M261.4,184.27a7.5,7.5,0,0,1,.54-3,4.58,4.58,0,0,1,1.53-2,4.42,4.42,0,0,1,4.22-.32,3.52,3.52,0,0,1,1.27,1.13,6,6,0,0,1,.8,1.74,13.66,13.66,0,0,1,.43,2.22v.59a10.56,10.56,0,0,1-.68,2.79,4.49,4.49,0,0,1-1.41,1.91,3.58,3.58,0,0,1-2.28.7,3.88,3.88,0,0,1-2.34-.73,4.87,4.87,0,0,1-1.54-2,7.32,7.32,0,0,1-.54-2.88Zm9.81-5.43v10.74a4.77,4.77,0,0,1-.64,2.54,4.14,4.14,0,0,1-1.78,1.58,6,6,0,0,1-2.65.55,6.18,6.18,0,0,1-1.4-.18,5.75,5.75,0,0,1-1.5-.58,3.68,3.68,0,0,1-1.21-1l1.18-1.53a4.06,4.06,0,0,0,1.3,1,3.56,3.56,0,0,0,1.5.33,2.66,2.66,0,0,0,1.95-.68,2.62,2.62,0,0,0,.71-2v-8.27l.23-2.51Zm-7.27,5.65a5.89,5.89,0,0,0,.26,1.78,2.75,2.75,0,0,0,.83,1.28,2.16,2.16,0,0,0,1.43.47,2.29,2.29,0,0,0,2.25-1.35,4.88,4.88,0,0,0,.41-1.4v-1.72a5,5,0,0,0-.24-1.14,2.91,2.91,0,0,0-.5-.9,2.31,2.31,0,0,0-.79-.59,2.75,2.75,0,0,0-1.11-.21,2.15,2.15,0,0,0-1.44.47,2.86,2.86,0,0,0-.83,1.29,5.67,5.67,0,0,0-.27,1.8Z"/><path class="cls-3" d="M276.25,189.89h-2.53v-11h2.41l.12,2.16Zm3.33-8.72-.49-.07-.52,0a2.78,2.78,0,0,0-1.39.31,1.94,1.94,0,0,0-.85.85,3.29,3.29,0,0,0-.33,1.32h-.59a8.19,8.19,0,0,1,.37-2.52,4.06,4.06,0,0,1,1.1-1.77,2.72,2.72,0,0,1,1.84-.65,4.6,4.6,0,0,1,.49,0l.39.09Z"/><path class="cls-3" d="M287.55,184.72h-1.73a3.43,3.43,0,0,0-2,.5,1.58,1.58,0,0,0-.68,1.34,1.45,1.45,0,0,0,.45,1.09,1.75,1.75,0,0,0,1.27.43,2.71,2.71,0,0,0,1.3-.3A2.55,2.55,0,0,0,287,187a1.6,1.6,0,0,0,.33-.84l.81,1.14a3.38,3.38,0,0,1-.42.89,4,4,0,0,1-.76.9,4,4,0,0,1-1.13.7,3.86,3.86,0,0,1-1.5.27,4.33,4.33,0,0,1-1.94-.43,3.39,3.39,0,0,1-1.33-1.18,3.36,3.36,0,0,1,.83-4.39,6.36,6.36,0,0,1,3.74-.94h1.9Zm-.38-2.3a1.92,1.92,0,0,0-.48-1.37,1.86,1.86,0,0,0-1.43-.51,2.43,2.43,0,0,0-1,.2,1.61,1.61,0,0,0-.66.54,1.27,1.27,0,0,0-.24.76h-2.53a2.84,2.84,0,0,1,.56-1.67,4.06,4.06,0,0,1,1.59-1.26,5.73,5.73,0,0,1,2.43-.48,5.56,5.56,0,0,1,2.22.42,3.38,3.38,0,0,1,1.52,1.27,3.7,3.7,0,0,1,.56,2.12v4.88a7.92,7.92,0,0,0,.11,1.37,4.46,4.46,0,0,0,.32,1v.17h-2.6a4.73,4.73,0,0,1-.27-1,8.73,8.73,0,0,1-.09-1.24Z"/><path class="cls-3" d="M297.38,180.71H291.1v-1.87h6.28Zm-2-4.58v10.65a1.59,1.59,0,0,0,.15.77.71.71,0,0,0,.41.35,1.87,1.87,0,0,0,.61.09,3.91,3.91,0,0,0,.49,0l.38-.06v1.95a5.23,5.23,0,0,1-.71.18,6.48,6.48,0,0,1-.95.07,3.41,3.41,0,0,1-1.5-.31,2.23,2.23,0,0,1-1-1,3.84,3.84,0,0,1-.37-1.83V176.13Z"/><path class="cls-3" d="M305.41,186.88a1.21,1.21,0,0,0-.18-.64,1.68,1.68,0,0,0-.69-.53,7.23,7.23,0,0,0-1.5-.45,9.7,9.7,0,0,1-2.07-.65,3.53,3.53,0,0,1-1.39-1.05,2.53,2.53,0,0,1-.5-1.58,2.94,2.94,0,0,1,.52-1.66,3.61,3.61,0,0,1,1.48-1.22,5.23,5.23,0,0,1,2.29-.47,5.66,5.66,0,0,1,2.39.47,3.64,3.64,0,0,1,1.54,1.25,3.2,3.2,0,0,1,.53,1.8H305.3a1.61,1.61,0,0,0-.49-1.15,2,2,0,0,0-1.45-.5,2.46,2.46,0,0,0-1,.19,1.39,1.39,0,0,0-.6.51,1.15,1.15,0,0,0-.2.67.94.94,0,0,0,.2.62,1.54,1.54,0,0,0,.68.47,7.15,7.15,0,0,0,1.37.39A11.27,11.27,0,0,1,306,184a3.58,3.58,0,0,1,1.42,1.06,2.72,2.72,0,0,1,.49,1.68,2.83,2.83,0,0,1-.55,1.72,3.75,3.75,0,0,1-1.57,1.19,6.11,6.11,0,0,1-2.37.43,5.55,5.55,0,0,1-2.57-.54,4.15,4.15,0,0,1-1.58-1.39,3.19,3.19,0,0,1-.53-1.75h2.44a1.72,1.72,0,0,0,.37,1.05,1.85,1.85,0,0,0,.84.58,3.15,3.15,0,0,0,1.06.18,2.8,2.8,0,0,0,1.08-.18,1.47,1.47,0,0,0,.67-.47A1.15,1.15,0,0,0,305.41,186.88Z"/><path class="cls-3" d="M312.38,189.29a5.13,5.13,0,0,1-.53,2.18,5.56,5.56,0,0,1-1.4,1.85l-1.36-.78c.19-.31.36-.62.52-.93a5.27,5.27,0,0,0,.38-1,5,5,0,0,0,.14-1.21v-1.9h2.25Z"/><path class="cls-3" d="M322.43,189.89h-2.54V174.2h2.54ZM321.17,184a6.81,6.81,0,0,1,.55-2.75,4.47,4.47,0,0,1,1.5-1.9,3.78,3.78,0,0,1,2.27-.7,4.23,4.23,0,0,1,1.91.41,2.86,2.86,0,0,1,1.26,1.33,5.59,5.59,0,0,1,.45,2.44v7.08h-2.55v-7.1a2.87,2.87,0,0,0-.22-1.24,1.34,1.34,0,0,0-.66-.65,2.58,2.58,0,0,0-1.06-.19,2.43,2.43,0,0,0-1.14.25,2.32,2.32,0,0,0-.83.7,3.14,3.14,0,0,0-.5,1A4.7,4.7,0,0,0,322,184Z"/><path class="cls-3" d="M331.57,175.94a1.3,1.3,0,0,1,.38-1,1.39,1.39,0,0,1,1.05-.39,1.45,1.45,0,0,1,1.07.39,1.27,1.27,0,0,1,.38,1,1.3,1.3,0,0,1-.38,1,1.49,1.49,0,0,1-1.07.38,1.42,1.42,0,0,1-1.05-.38A1.34,1.34,0,0,1,331.57,175.94Zm2.7,13.95h-2.53v-11h2.53Z"/><path class="cls-3" d="M342.06,180.71h-6.28v-1.87h6.28Zm-2-4.58v10.65a1.6,1.6,0,0,0,.14.77.71.71,0,0,0,.41.35,1.87,1.87,0,0,0,.61.09,3.91,3.91,0,0,0,.49,0l.38-.06v1.95a4.87,4.87,0,0,1-.71.18,6.37,6.37,0,0,1-.95.07,3.44,3.44,0,0,1-1.5-.31,2.23,2.23,0,0,1-1-1,4,4,0,0,1-.37-1.83V176.13Z"/><path class="cls-3" d="M349.23,180.71H343v-1.87h6.27Zm-2-4.58v10.65a1.73,1.73,0,0,0,.14.77.77.77,0,0,0,.41.35,1.93,1.93,0,0,0,.62.09,3.91,3.91,0,0,0,.49,0l.37-.06v1.95a4.87,4.87,0,0,1-.71.18,6.34,6.34,0,0,1-.94.07,3.45,3.45,0,0,1-1.51-.31,2.21,2.21,0,0,1-1-1,3.84,3.84,0,0,1-.37-1.83V176.13Z"/><path class="cls-3" d="M351.09,175.94a1.3,1.3,0,0,1,.38-1,1.39,1.39,0,0,1,1-.39,1.45,1.45,0,0,1,1.07.39,1.27,1.27,0,0,1,.38,1,1.3,1.3,0,0,1-.38,1,1.49,1.49,0,0,1-1.07.38,1.42,1.42,0,0,1-1-.38A1.34,1.34,0,0,1,351.09,175.94Zm2.7,13.95h-2.53v-11h2.53Z"/><path class="cls-3" d="M359,189.89h-2.53v-11h2.38l.15,2.36ZM357.69,184a6.8,6.8,0,0,1,.57-2.81,4.46,4.46,0,0,1,1.54-1.87,4,4,0,0,1,2.31-.67,4.12,4.12,0,0,1,1.86.4,2.86,2.86,0,0,1,1.23,1.31,5.68,5.68,0,0,1,.44,2.43v7.12h-2.55v-7.14a2.77,2.77,0,0,0-.22-1.22,1.31,1.31,0,0,0-.65-.64,2.76,2.76,0,0,0-1.06-.18A2.37,2.37,0,0,0,360,181a2.41,2.41,0,0,0-.83.7,3.17,3.17,0,0,0-.52,1,4.33,4.33,0,0,0-.18,1.27Z"/><path class="cls-3" d="M367.68,184.27a7.5,7.5,0,0,1,.54-3,4.51,4.51,0,0,1,1.53-2,4,4,0,0,1,2.37-.71A4.07,4.07,0,0,1,374,179a3.52,3.52,0,0,1,1.27,1.13,5.69,5.69,0,0,1,.79,1.74,13.63,13.63,0,0,1,.44,2.22v.59a10.18,10.18,0,0,1-.69,2.79,4.48,4.48,0,0,1-1.4,1.91,3.61,3.61,0,0,1-2.29.7,3.87,3.87,0,0,1-2.33-.73,4.71,4.71,0,0,1-1.54-2,7.32,7.32,0,0,1-.54-2.88Zm9.81-5.43v10.74a4.77,4.77,0,0,1-.64,2.54,4.17,4.17,0,0,1-1.79,1.58,6,6,0,0,1-2.64.55,6.18,6.18,0,0,1-1.4-.18,5.61,5.61,0,0,1-1.5-.58,3.82,3.82,0,0,1-1.22-1l1.19-1.53a4,4,0,0,0,1.3,1,3.53,3.53,0,0,0,1.5.33,2.7,2.7,0,0,0,1.95-.68,2.62,2.62,0,0,0,.71-2v-8.27l.23-2.51Zm-7.27,5.65a5.59,5.59,0,0,0,.26,1.78,2.81,2.81,0,0,0,.82,1.28,2.17,2.17,0,0,0,1.44.47,2.49,2.49,0,0,0,1.4-.36,2.4,2.4,0,0,0,.84-1,4.88,4.88,0,0,0,.42-1.4v-1.72a5.61,5.61,0,0,0-.24-1.14,2.91,2.91,0,0,0-.5-.9,2.25,2.25,0,0,0-.8-.59,2.67,2.67,0,0,0-1.1-.21,2.12,2.12,0,0,0-1.44.47,2.78,2.78,0,0,0-.83,1.29,5.4,5.4,0,0,0-.27,1.8Z"/><path class="cls-3" d="M389.36,187l.45,2.74-1.76.4-4-11.32h2.74Zm2-8.18h2.71l-4.43,12.73a6.77,6.77,0,0,1-.4.9,4.13,4.13,0,0,1-.63.91,3.15,3.15,0,0,1-1,.7,3.2,3.2,0,0,1-1.41.28,3.15,3.15,0,0,1-.44,0c-.14,0-.27,0-.4-.06l-.38-.09v-2l.25,0h.23a2.39,2.39,0,0,0,1.38-.32,2.06,2.06,0,0,0,.73-1.12l.81-2.13Z"/><path class="cls-3" d="M395,184.26a6.54,6.54,0,0,1,.61-2.88,5,5,0,0,1,1.76-2,5.59,5.59,0,0,1,5.56,0,4.83,4.83,0,0,1,1.76,2,6.54,6.54,0,0,1,.61,2.88v.22a6.47,6.47,0,0,1-.61,2.87,4.71,4.71,0,0,1-1.76,2,5.57,5.57,0,0,1-5.55,0,4.8,4.8,0,0,1-1.77-2,6.47,6.47,0,0,1-.61-2.87Zm2.53.22a5.38,5.38,0,0,0,.28,1.79,2.84,2.84,0,0,0,.85,1.3,2.24,2.24,0,0,0,1.5.49,2.17,2.17,0,0,0,1.48-.49,2.77,2.77,0,0,0,.85-1.3,5.65,5.65,0,0,0,.27-1.79v-.22a5.69,5.69,0,0,0-.27-1.79,2.85,2.85,0,0,0-.85-1.31,2.24,2.24,0,0,0-1.5-.5,2.22,2.22,0,0,0-1.49.5,2.93,2.93,0,0,0-.85,1.31,5.69,5.69,0,0,0-.27,1.79Z"/><path class="cls-3" d="M415.16,185a7.51,7.51,0,0,1-.44,2.65,3.9,3.9,0,0,1-1.37,1.83,4.07,4.07,0,0,1-2.41.67,3.7,3.7,0,0,1-2.65-1,4.23,4.23,0,0,1-1-3.16v-7.14h2.54V186a2.57,2.57,0,0,0,.24,1.21,1.35,1.35,0,0,0,.64.63,2.05,2.05,0,0,0,.87.18,2.85,2.85,0,0,0,1.63-.4,2.24,2.24,0,0,0,.86-1.1,4.46,4.46,0,0,0,.25-1.55ZM414,178.84h2.53v11h-2.39l-.14-2.61Z"/><path class="cls-3" d="M421.53,189.89H419v-11h2.42l.12,2.16Zm3.33-8.72-.5-.07-.51,0a2.82,2.82,0,0,0-1.4.31,2,2,0,0,0-.84.85,3.46,3.46,0,0,0-.34,1.32h-.58a7.9,7.9,0,0,1,.37-2.52,4,4,0,0,1,1.1-1.77,2.7,2.7,0,0,1,1.84-.65,4.64,4.64,0,0,1,.48,0,2.77,2.77,0,0,1,.4.09Z"/><path class="cls-3" d="M431.62,175.94a1.3,1.3,0,0,1,.37-1,1.64,1.64,0,0,1,2.12,0,1.27,1.27,0,0,1,.39,1,1.3,1.3,0,0,1-.39,1,1.67,1.67,0,0,1-2.12,0A1.33,1.33,0,0,1,431.62,175.94Zm2.69,13.95h-2.53v-11h2.53Z"/><path class="cls-3" d="M439.48,189.89H437v-11h2.38l.15,2.36ZM438.22,184a6.65,6.65,0,0,1,.56-2.81,4.46,4.46,0,0,1,1.54-1.87,4,4,0,0,1,2.31-.67,4.12,4.12,0,0,1,1.86.4,2.76,2.76,0,0,1,1.23,1.31,5.68,5.68,0,0,1,.44,2.43v7.12h-2.55v-7.14a2.77,2.77,0,0,0-.22-1.22,1.27,1.27,0,0,0-.65-.64,2.76,2.76,0,0,0-1.06-.18,2.4,2.4,0,0,0-1.12.25,2.29,2.29,0,0,0-.82.7,3.19,3.19,0,0,0-.53,1A4.33,4.33,0,0,0,439,184Z"/><path class="cls-3" d="M453,187.92l.13,2h-1.63l-3.85-11h2.64Zm2-9.08h2.62l-3.82,11h-1.63l.16-2Z"/><path class="cls-3" d="M463.94,190.1a5.49,5.49,0,0,1-2.84-.71,4.92,4.92,0,0,1-1.84-1.92,5.72,5.72,0,0,1-.64-2.72v-.42a6.51,6.51,0,0,1,.65-3,4.92,4.92,0,0,1,1.79-2,4.81,4.81,0,0,1,2.58-.71,4.72,4.72,0,0,1,2.65.69,4.25,4.25,0,0,1,1.58,1.91,7.33,7.33,0,0,1,.52,2.83v1.09h-8.56v-1.83h6.05v-.19a3.48,3.48,0,0,0-.24-1.21,2.06,2.06,0,0,0-.71-.91,2.22,2.22,0,0,0-1.3-.35,2.11,2.11,0,0,0-1.36.46,2.83,2.83,0,0,0-.83,1.28,5.89,5.89,0,0,0-.29,1.93v.42a4,4,0,0,0,.35,1.69,2.77,2.77,0,0,0,1,1.18,2.81,2.81,0,0,0,1.58.43,3.26,3.26,0,0,0,2.77-1.35l1.33,1.33a4.89,4.89,0,0,1-1.57,1.43A5.11,5.11,0,0,1,463.94,190.1Z"/><path class="cls-3" d="M476.45,186.88a1.21,1.21,0,0,0-.18-.64,1.68,1.68,0,0,0-.69-.53,7.23,7.23,0,0,0-1.5-.45,9.7,9.7,0,0,1-2.07-.65,3.53,3.53,0,0,1-1.39-1.05,2.53,2.53,0,0,1-.5-1.58,2.94,2.94,0,0,1,.52-1.66,3.61,3.61,0,0,1,1.48-1.22,5.23,5.23,0,0,1,2.29-.47,5.66,5.66,0,0,1,2.39.47,3.64,3.64,0,0,1,1.54,1.25,3.2,3.2,0,0,1,.53,1.8h-2.53a1.57,1.57,0,0,0-.49-1.15,2,2,0,0,0-1.45-.5,2.46,2.46,0,0,0-1,.19,1.39,1.39,0,0,0-.6.51,1.15,1.15,0,0,0-.2.67.94.94,0,0,0,.2.62,1.54,1.54,0,0,0,.68.47,7.15,7.15,0,0,0,1.37.39A11.27,11.27,0,0,1,477,184a3.58,3.58,0,0,1,1.42,1.06,2.72,2.72,0,0,1,.49,1.68,2.83,2.83,0,0,1-.55,1.72,3.75,3.75,0,0,1-1.57,1.19,6.11,6.11,0,0,1-2.37.43,5.55,5.55,0,0,1-2.57-.54,4.15,4.15,0,0,1-1.58-1.39,3.19,3.19,0,0,1-.53-1.75h2.44a1.72,1.72,0,0,0,.37,1.05,1.85,1.85,0,0,0,.84.58,3.15,3.15,0,0,0,1.06.18,2.8,2.8,0,0,0,1.08-.18,1.47,1.47,0,0,0,.67-.47A1.15,1.15,0,0,0,476.45,186.88Z"/><path class="cls-3" d="M486.18,180.71H479.9v-1.87h6.28Zm-2-4.58v10.65a1.6,1.6,0,0,0,.14.77.74.74,0,0,0,.41.35,1.91,1.91,0,0,0,.61.09,3.79,3.79,0,0,0,.49,0l.38-.06v1.95a4.87,4.87,0,0,1-.71.18,6.37,6.37,0,0,1-1,.07,3.44,3.44,0,0,1-1.5-.31,2.17,2.17,0,0,1-1-1,3.83,3.83,0,0,1-.38-1.83V176.13Z"/><path class="cls-3" d="M488,175.94a1.3,1.3,0,0,1,.38-1,1.39,1.39,0,0,1,1.05-.39,1.43,1.43,0,0,1,1.06.39,1.27,1.27,0,0,1,.39,1,1.3,1.3,0,0,1-.39,1,1.46,1.46,0,0,1-1.06.38,1.42,1.42,0,0,1-1.05-.38A1.34,1.34,0,0,1,488,175.94Zm2.7,13.95H488.2v-11h2.54Z"/><path class="cls-3" d="M495.91,189.89h-2.54v-11h2.39l.15,2.36ZM494.64,184a7,7,0,0,1,.56-2.81,4.48,4.48,0,0,1,1.55-1.87,4,4,0,0,1,2.31-.67,4.18,4.18,0,0,1,1.86.4,2.79,2.79,0,0,1,1.22,1.31,5.53,5.53,0,0,1,.44,2.43v7.12H500v-7.14a2.92,2.92,0,0,0-.22-1.22,1.32,1.32,0,0,0-.66-.64,2.74,2.74,0,0,0-1.05-.18,2.34,2.34,0,0,0-1.95.95,3.17,3.17,0,0,0-.52,1,4.33,4.33,0,0,0-.18,1.27Z"/><path class="cls-3" d="M504.63,184.27a7.5,7.5,0,0,1,.53-3,4.53,4.53,0,0,1,1.54-2,4,4,0,0,1,2.36-.71,4,4,0,0,1,1.85.39,3.44,3.44,0,0,1,1.27,1.13,5.7,5.7,0,0,1,.8,1.74,13.63,13.63,0,0,1,.44,2.22v.59a11,11,0,0,1-.69,2.79,4.48,4.48,0,0,1-1.4,1.91,3.63,3.63,0,0,1-2.29.7,3.88,3.88,0,0,1-2.34-.73,4.77,4.77,0,0,1-1.53-2,7.32,7.32,0,0,1-.54-2.88Zm9.81-5.43v10.74a4.77,4.77,0,0,1-.65,2.54A4.14,4.14,0,0,1,512,193.7a6,6,0,0,1-2.64.55,6.33,6.33,0,0,1-1.41-.18,5.68,5.68,0,0,1-1.49-.58,3.72,3.72,0,0,1-1.22-1l1.19-1.53a3.85,3.85,0,0,0,1.3,1,3.5,3.5,0,0,0,1.5.33,2.65,2.65,0,0,0,1.94-.68,2.58,2.58,0,0,0,.71-2v-8.27l.24-2.51Zm-7.28,5.65a5.59,5.59,0,0,0,.27,1.78,2.73,2.73,0,0,0,.82,1.28,2.16,2.16,0,0,0,1.43.47,2.52,2.52,0,0,0,1.41-.36,2.4,2.4,0,0,0,.84-1,4.58,4.58,0,0,0,.41-1.4v-1.72a5,5,0,0,0-.24-1.14,2.72,2.72,0,0,0-.5-.9,2.22,2.22,0,0,0-.79-.59,2.67,2.67,0,0,0-1.1-.21,2.16,2.16,0,0,0-1.45.47,2.86,2.86,0,0,0-.83,1.29,5.67,5.67,0,0,0-.27,1.8Z"/><path class="cls-3" d="M224.18,209.39a7.5,7.5,0,0,1,.54-2.95,4.53,4.53,0,0,1,1.53-2,3.93,3.93,0,0,1,2.37-.71,4,4,0,0,1,1.85.39,3.43,3.43,0,0,1,1.27,1.13,5.88,5.88,0,0,1,.8,1.73,13.58,13.58,0,0,1,.43,2.23v.59a10.56,10.56,0,0,1-.68,2.79,4.58,4.58,0,0,1-1.41,1.91,3.64,3.64,0,0,1-2.28.69,3.81,3.81,0,0,1-2.34-.73,4.74,4.74,0,0,1-1.54-2,7.25,7.25,0,0,1-.54-2.88ZM234,204v10.74a4.74,4.74,0,0,1-.64,2.54,4.1,4.1,0,0,1-1.78,1.59,6.36,6.36,0,0,1-5.55-.21,3.83,3.83,0,0,1-1.21-1.05L226,216a4,4,0,0,0,1.3,1,3.56,3.56,0,0,0,1.5.33,2.72,2.72,0,0,0,2-.68,2.64,2.64,0,0,0,.71-2v-8.26l.23-2.52Zm-7.27,5.65a5.61,5.61,0,0,0,.26,1.79,2.78,2.78,0,0,0,.82,1.27,2.14,2.14,0,0,0,1.44.48,2.26,2.26,0,0,0,2.24-1.35,5,5,0,0,0,.42-1.4v-1.73a4.92,4.92,0,0,0-.24-1.13,2.8,2.8,0,0,0-.5-.9,2.31,2.31,0,0,0-.79-.59,2.59,2.59,0,0,0-1.11-.22,2.14,2.14,0,0,0-1.44.48,2.77,2.77,0,0,0-.83,1.28,5.78,5.78,0,0,0-.27,1.81Z"/><path class="cls-3" d="M236,209.38a6.48,6.48,0,0,1,.61-2.88,4.85,4.85,0,0,1,1.76-2,5.59,5.59,0,0,1,5.56,0,4.78,4.78,0,0,1,1.76,2,6.48,6.48,0,0,1,.61,2.88v.21a6.54,6.54,0,0,1-.61,2.88,4.78,4.78,0,0,1-1.76,2,5.64,5.64,0,0,1-5.55,0,4.8,4.8,0,0,1-1.77-2,6.54,6.54,0,0,1-.61-2.88Zm2.53.21a5.44,5.44,0,0,0,.28,1.8,2.82,2.82,0,0,0,.85,1.3,2.22,2.22,0,0,0,1.5.49,2.19,2.19,0,0,0,1.48-.49,2.82,2.82,0,0,0,.85-1.3,5.71,5.71,0,0,0,.27-1.8v-.21a5.69,5.69,0,0,0-.27-1.79,2.8,2.8,0,0,0-.85-1.31,2.24,2.24,0,0,0-1.5-.5,2.2,2.2,0,0,0-1.49.5,2.88,2.88,0,0,0-.85,1.31,5.69,5.69,0,0,0-.27,1.79Z"/><path class="cls-3" d="M255,209.84h-1.73a3.43,3.43,0,0,0-2,.49,1.59,1.59,0,0,0-.68,1.35,1.46,1.46,0,0,0,.45,1.09,1.75,1.75,0,0,0,1.27.43,2.71,2.71,0,0,0,1.3-.3,2.47,2.47,0,0,0,.87-.75,1.54,1.54,0,0,0,.33-.83l.81,1.13a4.11,4.11,0,0,1-1.18,1.8,4.12,4.12,0,0,1-1.13.69,3.88,3.88,0,0,1-1.51.27,4.18,4.18,0,0,1-1.93-.43,3.31,3.31,0,0,1-1.33-1.18,3.07,3.07,0,0,1-.49-1.69,3.12,3.12,0,0,1,1.32-2.7,6.44,6.44,0,0,1,3.74-.94H255Zm-.38-2.3a1.92,1.92,0,0,0-.48-1.37,1.88,1.88,0,0,0-1.43-.51,2.28,2.28,0,0,0-1,.2,1.67,1.67,0,0,0-.66.53,1.3,1.3,0,0,0-.24.77h-2.53a2.84,2.84,0,0,1,.56-1.67,4.06,4.06,0,0,1,1.59-1.26,5.69,5.69,0,0,1,2.43-.48,5.56,5.56,0,0,1,2.22.42,3.42,3.42,0,0,1,1.52,1.26,3.84,3.84,0,0,1,.56,2.13v4.87a7.83,7.83,0,0,0,.11,1.37,4.55,4.55,0,0,0,.32,1V215H255a4.9,4.9,0,0,1-.27-1,8.83,8.83,0,0,1-.09-1.24Z"/><path class="cls-3" d="M262.37,215h-2.53v-15.7h2.53Z"/><path class="cls-3" d="M272.74,215H270.2v-15.7h2.54Zm-1.26-5.92a6.85,6.85,0,0,1,.55-2.75,4.6,4.6,0,0,1,1.5-1.9,3.84,3.84,0,0,1,2.27-.69,4.23,4.23,0,0,1,1.91.41,2.86,2.86,0,0,1,1.26,1.33,5.56,5.56,0,0,1,.45,2.44V215h-2.54v-7.1a2.86,2.86,0,0,0-.23-1.24A1.3,1.3,0,0,0,276,206a2.57,2.57,0,0,0-1.06-.2,2.35,2.35,0,0,0-2,1,3.24,3.24,0,0,0-.5,1,4.75,4.75,0,0,0-.16,1.27Z"/><path class="cls-3" d="M288.47,209.84h-1.73a3.43,3.43,0,0,0-2,.49,1.59,1.59,0,0,0-.68,1.35,1.46,1.46,0,0,0,.45,1.09,1.75,1.75,0,0,0,1.27.43,2.71,2.71,0,0,0,1.3-.3,2.47,2.47,0,0,0,.87-.75,1.54,1.54,0,0,0,.33-.83l.81,1.13a3.58,3.58,0,0,1-.42.9,3.91,3.91,0,0,1-1.89,1.59,3.86,3.86,0,0,1-1.5.27,4.2,4.2,0,0,1-1.94-.43A3.31,3.31,0,0,1,282,213.6a3.06,3.06,0,0,1-.48-1.69,3.11,3.11,0,0,1,1.31-2.7,6.44,6.44,0,0,1,3.74-.94h1.9Zm-.38-2.3a1.92,1.92,0,0,0-.48-1.37,1.86,1.86,0,0,0-1.43-.51,2.28,2.28,0,0,0-1,.2,1.67,1.67,0,0,0-.66.53,1.3,1.3,0,0,0-.24.77h-2.53a2.84,2.84,0,0,1,.56-1.67,4.06,4.06,0,0,1,1.59-1.26,5.69,5.69,0,0,1,2.43-.48,5.56,5.56,0,0,1,2.22.42,3.42,3.42,0,0,1,1.52,1.26,3.76,3.76,0,0,1,.56,2.13v4.87a7.83,7.83,0,0,0,.11,1.37,4.55,4.55,0,0,0,.32,1V215h-2.6a4.9,4.9,0,0,1-.27-1,8.83,8.83,0,0,1-.09-1.24Z"/><path class="cls-3" d="M299.35,212a1.16,1.16,0,0,0-.18-.63,1.6,1.6,0,0,0-.69-.53,7.23,7.23,0,0,0-1.5-.45,9.52,9.52,0,0,1-2.07-.65,3.64,3.64,0,0,1-1.39-1.06,2.5,2.5,0,0,1-.5-1.57,2.86,2.86,0,0,1,.52-1.66,3.63,3.63,0,0,1,1.48-1.23,5.21,5.21,0,0,1,2.28-.46,5.68,5.68,0,0,1,2.4.46,3.63,3.63,0,0,1,1.53,1.26,3.12,3.12,0,0,1,.54,1.79h-2.53a1.62,1.62,0,0,0-.49-1.15,1.94,1.94,0,0,0-1.45-.49,2.3,2.3,0,0,0-1,.19,1.54,1.54,0,0,0-.61.5,1.25,1.25,0,0,0-.19.68,1,1,0,0,0,.19.62,1.73,1.73,0,0,0,.69.47,7.24,7.24,0,0,0,1.36.39,11.17,11.17,0,0,1,2.19.67,3.49,3.49,0,0,1,1.42,1.06,2.71,2.71,0,0,1,.49,1.67,2.83,2.83,0,0,1-.55,1.73,3.73,3.73,0,0,1-1.57,1.18,5.94,5.94,0,0,1-2.37.43,5.55,5.55,0,0,1-2.57-.54,4.05,4.05,0,0,1-1.58-1.38,3.21,3.21,0,0,1-.54-1.76h2.45a1.76,1.76,0,0,0,.37,1.06,1.83,1.83,0,0,0,.84.57,3.15,3.15,0,0,0,1.06.18,2.81,2.81,0,0,0,1.08-.17,1.49,1.49,0,0,0,.67-.48A1.13,1.13,0,0,0,299.35,212Z"/><path class="cls-3" d="M317,210.06a7.57,7.57,0,0,1-.44,2.66,3.83,3.83,0,0,1-1.37,1.82,4,4,0,0,1-2.41.67,3.7,3.7,0,0,1-2.65-1,4.21,4.21,0,0,1-1-3.15V204h2.53v7.17a2.57,2.57,0,0,0,.24,1.21,1.49,1.49,0,0,0,.64.63,2.13,2.13,0,0,0,.88.18,3,3,0,0,0,1.63-.4,2.29,2.29,0,0,0,.86-1.1,4.52,4.52,0,0,0,.25-1.56Zm-1.2-6.11h2.54V215h-2.39l-.15-2.62Z"/><path class="cls-3" d="M323.31,215h-2.53V204h2.38l.15,2.36Zm-1.26-5.92a6.6,6.6,0,0,1,.56-2.8,4.4,4.4,0,0,1,1.54-1.87,4.41,4.41,0,0,1,4.17-.27,2.76,2.76,0,0,1,1.23,1.31,5.64,5.64,0,0,1,.44,2.43V215h-2.55v-7.14a2.74,2.74,0,0,0-.22-1.22,1.27,1.27,0,0,0-.65-.64,2.58,2.58,0,0,0-1.06-.19,2.31,2.31,0,0,0-1.94,1,3.3,3.3,0,0,0-.53,1,4.75,4.75,0,0,0-.17,1.27Z"/><path class="cls-3" d="M335.17,215h-2.53v-15.7h2.53Z"/><path class="cls-3" d="M337.37,209.38a6.48,6.48,0,0,1,.61-2.88,4.85,4.85,0,0,1,1.76-2,5.59,5.59,0,0,1,5.56,0,4.71,4.71,0,0,1,1.76,2,6.48,6.48,0,0,1,.61,2.88v.21a6.54,6.54,0,0,1-.61,2.88,4.71,4.71,0,0,1-1.76,2,5.64,5.64,0,0,1-5.55,0,4.8,4.8,0,0,1-1.77-2,6.54,6.54,0,0,1-.61-2.88Zm2.53.21a5.44,5.44,0,0,0,.28,1.8,2.9,2.9,0,0,0,.85,1.3,2.24,2.24,0,0,0,1.5.49,2.19,2.19,0,0,0,1.48-.49,2.82,2.82,0,0,0,.85-1.3,5.71,5.71,0,0,0,.27-1.8v-.21a5.69,5.69,0,0,0-.27-1.79,2.8,2.8,0,0,0-.85-1.31,2.24,2.24,0,0,0-1.5-.5,2.22,2.22,0,0,0-1.49.5,2.88,2.88,0,0,0-.85,1.31,5.69,5.69,0,0,0-.27,1.79Z"/><path class="cls-3" d="M354.26,213.18a2.34,2.34,0,0,0,1.07-.24,2,2,0,0,0,.77-.66,1.86,1.86,0,0,0,.32-1h2.39a3.52,3.52,0,0,1-.65,2,4.25,4.25,0,0,1-1.62,1.4,4.82,4.82,0,0,1-2.26.52,4.91,4.91,0,0,1-2.8-.75,4.58,4.58,0,0,1-1.68-2,7,7,0,0,1-.55-2.8v-.34a7,7,0,0,1,.55-2.8,4.58,4.58,0,0,1,1.68-2,4.91,4.91,0,0,1,2.8-.75,5,5,0,0,1,2.35.52,4,4,0,0,1,1.58,1.47,4.38,4.38,0,0,1,.6,2.2h-2.39a2.63,2.63,0,0,0-.29-1.09,2.13,2.13,0,0,0-.74-.78,2.19,2.19,0,0,0-1.14-.29,2.13,2.13,0,0,0-1.52.51,2.77,2.77,0,0,0-.74,1.32,7.2,7.2,0,0,0-.2,1.7v.34a6.79,6.79,0,0,0,.2,1.71,2.54,2.54,0,0,0,.74,1.31A2.14,2.14,0,0,0,354.26,213.18Z"/><path class="cls-3" d="M363.21,215h-2.54v-15.7h2.54Zm2.08-5.7L362.62,212,362,209.9l2-2.5L367,204h3.06Zm-1.26.54,1.6-1.76,4.86,6.92h-2.94Z"/><path class="cls-3" d="M376.52,215.21a5.4,5.4,0,0,1-2.84-.71,4.79,4.79,0,0,1-1.84-1.92,5.68,5.68,0,0,1-.64-2.71v-.42a6.51,6.51,0,0,1,.65-3,4.94,4.94,0,0,1,1.79-2,4.8,4.8,0,0,1,2.58-.7,4.72,4.72,0,0,1,2.65.69,4.12,4.12,0,0,1,1.57,1.91,7.06,7.06,0,0,1,.53,2.82v1.1h-8.56v-1.83h6v-.2a3.38,3.38,0,0,0-.24-1.2,2,2,0,0,0-.71-.91,2.22,2.22,0,0,0-1.3-.35,2.06,2.06,0,0,0-1.36.46,2.79,2.79,0,0,0-.83,1.27,6,6,0,0,0-.29,1.94v.42a4,4,0,0,0,.35,1.69,2.83,2.83,0,0,0,1,1.18,2.89,2.89,0,0,0,1.58.43,3.47,3.47,0,0,0,1.58-.35,3.34,3.34,0,0,0,1.19-1l1.33,1.33a4.87,4.87,0,0,1-1.57,1.42A5,5,0,0,1,376.52,215.21Z"/><path class="cls-3" d="M382.4,209.39a7.69,7.69,0,0,1,.52-2.95,4.47,4.47,0,0,1,1.5-2,3.79,3.79,0,0,1,2.33-.71,3.58,3.58,0,0,1,2.24.69,4.64,4.64,0,0,1,1.41,1.93,9.76,9.76,0,0,1,.69,2.86v.59a9.84,9.84,0,0,1-.68,2.79,4.51,4.51,0,0,1-1.42,1.91,3.62,3.62,0,0,1-2.26.69,3.72,3.72,0,0,1-2.31-.73,4.59,4.59,0,0,1-1.5-2,7.43,7.43,0,0,1-.52-2.88Zm2.53.21a5.91,5.91,0,0,0,.25,1.79,2.64,2.64,0,0,0,.78,1.27,2,2,0,0,0,1.41.48,2.41,2.41,0,0,0,1.37-.36,2.63,2.63,0,0,0,.84-1,5,5,0,0,0,.41-1.4v-1.73a4.92,4.92,0,0,0-.26-1.13,2.78,2.78,0,0,0-.49-.9,2.23,2.23,0,0,0-.77-.59,2.45,2.45,0,0,0-1.08-.22,2.07,2.07,0,0,0-1.42.48,2.57,2.57,0,0,0-.79,1.28,6.09,6.09,0,0,0-.25,1.81Zm4.64-10.29h2.53V215h-2.3l-.23-2.32Z"/><path class="cls-3" d="M405,205.82h-6.27V204H405Zm-2-4.58v10.65a1.7,1.7,0,0,0,.14.77.75.75,0,0,0,.41.36,1.93,1.93,0,0,0,.62.09,3.91,3.91,0,0,0,.49,0l.37-.06V215a5,5,0,0,1-.71.17,5.22,5.22,0,0,1-.94.07,3.6,3.6,0,0,1-1.51-.3,2.26,2.26,0,0,1-1-1,3.84,3.84,0,0,1-.37-1.83V201.24Z"/><path class="cls-3" d="M409.35,215h-2.54v-15.7h2.54Zm-1.26-5.92a6.85,6.85,0,0,1,.55-2.75,4.6,4.6,0,0,1,1.5-1.9,3.84,3.84,0,0,1,2.27-.69,4.23,4.23,0,0,1,1.91.41,2.86,2.86,0,0,1,1.26,1.33,5.56,5.56,0,0,1,.45,2.44V215h-2.54v-7.1a2.86,2.86,0,0,0-.23-1.24,1.3,1.3,0,0,0-.66-.65,2.57,2.57,0,0,0-1.06-.2,2.35,2.35,0,0,0-2,1,3.24,3.24,0,0,0-.5,1,4.75,4.75,0,0,0-.16,1.27Z"/><path class="cls-3" d="M418.49,201.06a1.34,1.34,0,0,1,.38-1,1.42,1.42,0,0,1,1.05-.38,1.49,1.49,0,0,1,1.07.38,1.39,1.39,0,0,1,0,1.93,1.49,1.49,0,0,1-1.07.38,1.42,1.42,0,0,1-1.05-.38A1.34,1.34,0,0,1,418.49,201.06Zm2.7,13.95h-2.53V204h2.53Z"/><path class="cls-3" d="M430,212a1.16,1.16,0,0,0-.18-.63,1.6,1.6,0,0,0-.69-.53,7.23,7.23,0,0,0-1.5-.45,9.88,9.88,0,0,1-2.07-.65,3.64,3.64,0,0,1-1.39-1.06,2.49,2.49,0,0,1-.49-1.57,2.93,2.93,0,0,1,.51-1.66,3.7,3.7,0,0,1,1.48-1.23,5.26,5.26,0,0,1,2.29-.46,5.66,5.66,0,0,1,2.39.46,3.66,3.66,0,0,1,1.54,1.26,3.19,3.19,0,0,1,.53,1.79h-2.53a1.58,1.58,0,0,0-.49-1.15,1.94,1.94,0,0,0-1.45-.49,2.33,2.33,0,0,0-1,.19,1.44,1.44,0,0,0-.6.5,1.18,1.18,0,0,0-.2.68,1,1,0,0,0,.2.62,1.62,1.62,0,0,0,.68.47,7.37,7.37,0,0,0,1.37.39,11.27,11.27,0,0,1,2.18.67A3.43,3.43,0,0,1,432,210.2a2.71,2.71,0,0,1,.49,1.67,2.83,2.83,0,0,1-.55,1.73,3.61,3.61,0,0,1-1.57,1.18,5.94,5.94,0,0,1-2.37.43,5.55,5.55,0,0,1-2.57-.54,4.05,4.05,0,0,1-1.58-1.38,3.29,3.29,0,0,1-.53-1.76h2.44a1.7,1.7,0,0,0,1.21,1.63,3.15,3.15,0,0,0,1.06.18,2.9,2.9,0,0,0,1.09-.17,1.46,1.46,0,0,0,.66-.48A1.07,1.07,0,0,0,430,212Z"/><path class="cls-3" d="M442.38,215h-2.54V204h2.42l.12,2.17Zm3.33-8.73a3.8,3.8,0,0,0-.5-.06l-.51,0a2.93,2.93,0,0,0-1.4.3,2,2,0,0,0-.84.86,3.46,3.46,0,0,0-.34,1.31h-.58a7.84,7.84,0,0,1,.37-2.51,4,4,0,0,1,1.1-1.77,2.7,2.7,0,0,1,1.84-.65,2.9,2.9,0,0,1,.48,0,1.86,1.86,0,0,1,.4.09Z"/><path class="cls-3" d="M452.16,215.21a5.37,5.37,0,0,1-2.84-.71,4.79,4.79,0,0,1-1.84-1.92,5.68,5.68,0,0,1-.65-2.71v-.42a6.51,6.51,0,0,1,.66-3,4.87,4.87,0,0,1,1.79-2,4.8,4.8,0,0,1,2.58-.7,4.72,4.72,0,0,1,2.65.69,4.12,4.12,0,0,1,1.57,1.91,7.06,7.06,0,0,1,.52,2.82v1.1h-8.55v-1.83h6.05v-.2a3.18,3.18,0,0,0-.25-1.2,1.88,1.88,0,0,0-.71-.91,2.17,2.17,0,0,0-1.29-.35,2,2,0,0,0-1.36.46,2.73,2.73,0,0,0-.84,1.27,6,6,0,0,0-.28,1.94v.42a3.84,3.84,0,0,0,.35,1.69,2.76,2.76,0,0,0,1,1.18,2.89,2.89,0,0,0,1.58.43,3.5,3.5,0,0,0,1.58-.35,3.34,3.34,0,0,0,1.19-1l1.33,1.33a4.87,4.87,0,0,1-1.57,1.42A5,5,0,0,1,452.16,215.21Z"/><path class="cls-3" d="M462,212.52l.13,2.49h-1.6l-3-11.06h2.47Zm2-8.57h1.62l-.43,2.7L462.65,215h-1.43l.27-2.53Zm4.41,8.44.29,2.62h-1.44l-2.59-8.37-.42-2.69h1.64ZM469.9,204h2.46l-3,11.06h-1.61l.21-2.6Z"/><path class="cls-3" d="M480.61,209.84h-1.74a3.46,3.46,0,0,0-2,.49,1.59,1.59,0,0,0-.68,1.35,1.46,1.46,0,0,0,.45,1.09,1.76,1.76,0,0,0,1.27.43,2.68,2.68,0,0,0,1.3-.3,2.42,2.42,0,0,0,.88-.75,1.45,1.45,0,0,0,.32-.83l.81,1.13a3.9,3.9,0,0,1-.41.9,4,4,0,0,1-.77.9,3.82,3.82,0,0,1-2.63,1,4.15,4.15,0,0,1-1.93-.43,3.25,3.25,0,0,1-1.33-1.18,3,3,0,0,1-.49-1.69,3.12,3.12,0,0,1,1.32-2.7,6.41,6.41,0,0,1,3.74-.94h1.9Zm-.39-2.3a2,2,0,0,0-.47-1.37,1.89,1.89,0,0,0-1.44-.51,2.23,2.23,0,0,0-1,.2,1.63,1.63,0,0,0-.67.53,1.37,1.37,0,0,0-.23.77h-2.53a2.77,2.77,0,0,1,.56-1.67,3.92,3.92,0,0,1,1.59-1.26,5.65,5.65,0,0,1,2.42-.48,5.56,5.56,0,0,1,2.22.42,3.4,3.4,0,0,1,1.53,1.26,3.84,3.84,0,0,1,.56,2.13v4.87a7,7,0,0,0,.11,1.37,4.56,4.56,0,0,0,.31,1V215h-2.59a3.92,3.92,0,0,1-.27-1,7.58,7.58,0,0,1-.1-1.24Z"/><path class="cls-3" d="M487.85,215h-2.54V204h2.41l.13,2.17Zm3.33-8.73a3.8,3.8,0,0,0-.5-.06l-.51,0a2.93,2.93,0,0,0-1.4.3,2,2,0,0,0-.84.86,3.28,3.28,0,0,0-.34,1.31H487a7.84,7.84,0,0,1,.37-2.51,4,4,0,0,1,1.1-1.77,2.69,2.69,0,0,1,1.84-.65,2.9,2.9,0,0,1,.48,0,1.86,1.86,0,0,1,.4.09Z"/><path class="cls-3" d="M492.27,209.39a7.69,7.69,0,0,1,.53-2.95,4.53,4.53,0,0,1,1.49-2,3.81,3.81,0,0,1,2.33-.71,3.56,3.56,0,0,1,2.24.69,4.75,4.75,0,0,1,1.42,1.93,10.43,10.43,0,0,1,.69,2.86v.59a10.18,10.18,0,0,1-.69,2.79,4.58,4.58,0,0,1-1.41,1.91,3.65,3.65,0,0,1-2.27.69,3.72,3.72,0,0,1-2.31-.73,4.65,4.65,0,0,1-1.49-2,7.43,7.43,0,0,1-.53-2.88Zm2.54.21a6.25,6.25,0,0,0,.24,1.79,2.64,2.64,0,0,0,.78,1.27,2.05,2.05,0,0,0,1.42.48,2.37,2.37,0,0,0,1.36-.36,2.47,2.47,0,0,0,.84-1,4.66,4.66,0,0,0,.41-1.4v-1.73a4.92,4.92,0,0,0-.25-1.13,2.8,2.8,0,0,0-.5-.9,2.06,2.06,0,0,0-.77-.59,2.38,2.38,0,0,0-1.07-.22,2.1,2.1,0,0,0-1.43.48,2.64,2.64,0,0,0-.79,1.28,6.44,6.44,0,0,0-.24,1.81Zm4.64-10.29H502V215h-2.3l-.23-2.32Z"/><path class="cls-3" d="M504.65,213.74a1.36,1.36,0,0,1,.39-1,1.43,1.43,0,0,1,1.08-.41,1.46,1.46,0,0,1,1.09.41,1.36,1.36,0,0,1,.39,1,1.33,1.33,0,0,1-.39,1,1.45,1.45,0,0,1-1.09.4,1.43,1.43,0,0,1-1.08-.4A1.33,1.33,0,0,1,504.65,213.74Z"/><path class="cls-3" d="M230.12,229.43h-5.49v-.77h5.49Zm-2.28,6.34h-.93v-7.11h.93Z"/><path class="cls-3" d="M233.23,235.87a2.41,2.41,0,0,1-1.28-.33,2.3,2.3,0,0,1-.84-.91,2.79,2.79,0,0,1-.3-1.32v-.21a3,3,0,0,1,.33-1.46,2.28,2.28,0,0,1,.86-.93,2,2,0,0,1,1.12-.32,2.09,2.09,0,0,1,1.24.34,1.93,1.93,0,0,1,.71.92,3.66,3.66,0,0,1,.22,1.32v.41h-3.94v-.74h3v-.07a2.29,2.29,0,0,0-.14-.68,1.21,1.21,0,0,0-.39-.55,1.1,1.1,0,0,0-.73-.22,1.22,1.22,0,0,0-.73.23,1.54,1.54,0,0,0-.49.68,2.82,2.82,0,0,0-.18,1.07v.21a2.13,2.13,0,0,0,.19.92,1.64,1.64,0,0,0,.53.66,1.48,1.48,0,0,0,.84.24,1.57,1.57,0,0,0,.81-.19,2,2,0,0,0,.58-.52l.56.43a2.58,2.58,0,0,1-.73.7A2.27,2.27,0,0,1,233.23,235.87Z"/><path class="cls-3" d="M237.26,235.77h-.92v-5.29h.89l0,.83Zm1.64-4.48-.22,0h-.22a1.37,1.37,0,0,0-.7.17,1.17,1.17,0,0,0-.44.47,1.85,1.85,0,0,0-.2.69l-.26.15a3.89,3.89,0,0,1,.17-1.17,1.81,1.81,0,0,1,.54-.85,1.32,1.32,0,0,1,.93-.32l.22,0a.44.44,0,0,1,.18.05Z"/><path class="cls-3" d="M240.64,235.77h-.91v-5.29h.86l0,1.05Zm-.61-2.86a3.09,3.09,0,0,1,.25-1.29,1.91,1.91,0,0,1,1.9-1.23,1.75,1.75,0,0,1,1.22.43,1.82,1.82,0,0,1,.49,1.43v3.52H243v-3.48a1.38,1.38,0,0,0-.13-.66.89.89,0,0,0-.4-.37,1.38,1.38,0,0,0-.59-.12,1.36,1.36,0,0,0-.67.15,1.05,1.05,0,0,0-.42.39,1.67,1.67,0,0,0-.24.56,3.73,3.73,0,0,0-.07.68Zm3.24-.3a2.55,2.55,0,0,1,.24-1.09,2.16,2.16,0,0,1,.71-.82,2,2,0,0,1,1.15-.31,2,2,0,0,1,1,.2,1.34,1.34,0,0,1,.6.62,2.44,2.44,0,0,1,.2,1.09v3.47h-.91v-3.48a1.38,1.38,0,0,0-.14-.7.78.78,0,0,0-.39-.35,1.73,1.73,0,0,0-.59-.1,1.25,1.25,0,0,0-.53.11,1,1,0,0,0-.38.28,1.18,1.18,0,0,0-.23.41,1.27,1.27,0,0,0-.08.48Z"/><path class="cls-3" d="M251.57,234.37a1,1,0,0,0-.08-.37.77.77,0,0,0-.35-.3,2.64,2.64,0,0,0-.78-.25,5.27,5.27,0,0,1-1-.31,1.71,1.71,0,0,1-.66-.48,1.12,1.12,0,0,1-.23-.73,1.32,1.32,0,0,1,.24-.77,1.73,1.73,0,0,1,.68-.56,2.72,2.72,0,0,1,2.12,0,1.7,1.7,0,0,1,.69.6,1.46,1.46,0,0,1,.24.82h-.91a.86.86,0,0,0-.29-.62,1.1,1.1,0,0,0-.81-.29,1.51,1.51,0,0,0-.61.11.81.81,0,0,0-.33.3.72.72,0,0,0-.11.37.57.57,0,0,0,.1.34.76.76,0,0,0,.36.26,4.6,4.6,0,0,0,.76.22,5.59,5.59,0,0,1,1.07.35,1.61,1.61,0,0,1,.62.51,1.2,1.2,0,0,1,.21.72,1.38,1.38,0,0,1-.26.82,1.66,1.66,0,0,1-.71.55,2.77,2.77,0,0,1-1.08.2,2.61,2.61,0,0,1-1.18-.25,1.84,1.84,0,0,1-.73-.64,1.52,1.52,0,0,1-.25-.84h.91a1,1,0,0,0,.22.59,1,1,0,0,0,.47.31,1.87,1.87,0,0,0,.56.09,1.58,1.58,0,0,0,.62-.1.73.73,0,0,0,.38-.27A.63.63,0,0,0,251.57,234.37Z"/><path class="cls-3" d="M259.42,233.2h-.91a2.43,2.43,0,0,0-1.19.24.81.81,0,0,0-.42.74.88.88,0,0,0,.26.64,1,1,0,0,0,.75.26,1.46,1.46,0,0,0,.73-.17,1.43,1.43,0,0,0,.5-.44,1,1,0,0,0,.2-.49l.39.43a1.18,1.18,0,0,1-.18.45,2,2,0,0,1-.41.48,2.07,2.07,0,0,1-.59.38,1.94,1.94,0,0,1-.78.15,2,2,0,0,1-.94-.21,1.62,1.62,0,0,1-.62-.57,1.43,1.43,0,0,1-.22-.79,1.45,1.45,0,0,1,.64-1.29,3,3,0,0,1,1.73-.45h1.05Zm-.17-1a1,1,0,0,0-.28-.76,1.09,1.09,0,0,0-.82-.28,1.4,1.4,0,0,0-.6.12,1.14,1.14,0,0,0-.4.3.73.73,0,0,0-.14.42h-.91a1.21,1.21,0,0,1,.26-.74,1.81,1.81,0,0,1,.73-.59,2.39,2.39,0,0,1,1.11-.23,2.54,2.54,0,0,1,1,.19,1.61,1.61,0,0,1,.7.59,1.85,1.85,0,0,1,.25,1v2.47a3.78,3.78,0,0,0,0,.56,2.08,2.08,0,0,0,.14.51v.08h-1a1.81,1.81,0,0,1-.11-.42,4.4,4.4,0,0,1,0-.49Z"/><path class="cls-3" d="M262.5,235.77h-.92v-5.29h.87l.05,1.13Zm-.6-2.86a3.1,3.1,0,0,1,.28-1.29,2.22,2.22,0,0,1,.75-.9,2.13,2.13,0,0,1,2-.14,1.34,1.34,0,0,1,.59.61,2.67,2.67,0,0,1,.2,1.12v3.46h-.91V232.3a1.58,1.58,0,0,0-.12-.67.79.79,0,0,0-.35-.37,1.28,1.28,0,0,0-.58-.12,1.25,1.25,0,0,0-.61.15,1.35,1.35,0,0,0-.47.39,1.61,1.61,0,0,0-.31.56,2.2,2.2,0,0,0-.11.68Z"/><path class="cls-3" d="M266.89,233.08a3.45,3.45,0,0,1,.26-1.41,2.13,2.13,0,0,1,.73-.95,1.86,1.86,0,0,1,1.1-.33,1.9,1.9,0,0,1,1.1.3,2.1,2.1,0,0,1,.7.87,3.94,3.94,0,0,1,.32,1.34v.47a4,4,0,0,1-.32,1.33,1.84,1.84,0,0,1-1.81,1.17,1.78,1.78,0,0,1-1.09-.35,2.22,2.22,0,0,1-.73-1,3.32,3.32,0,0,1-.26-1.37Zm.91.11a3.22,3.22,0,0,0,.14,1,1.54,1.54,0,0,0,.45.69,1.17,1.17,0,0,0,.8.26,1.29,1.29,0,0,0,.74-.19,1.41,1.41,0,0,0,.47-.5,3.44,3.44,0,0,0,.27-.68v-1.18a2.88,2.88,0,0,0-.17-.52,1.71,1.71,0,0,0-.28-.45,1.24,1.24,0,0,0-.43-.32,1.32,1.32,0,0,0-.59-.12,1.16,1.16,0,0,0-.8.27,1.51,1.51,0,0,0-.46.7,3.34,3.34,0,0,0-.14,1Zm2.63-4.92h.92v7.5h-.84l-.08-1Z"/><path class="cls-3" d="M277.35,235.13a1.31,1.31,0,0,0,.59-.13,1.1,1.1,0,0,0,.45-.37.94.94,0,0,0,.2-.53h.87a1.6,1.6,0,0,1-.32.87,2.19,2.19,0,0,1-.76.65,2.24,2.24,0,0,1-1,.25,2.28,2.28,0,0,1-1.32-.37,2.16,2.16,0,0,1-.78-1,3.32,3.32,0,0,1-.25-1.31V233a3.16,3.16,0,0,1,.26-1.31,2.16,2.16,0,0,1,.78-1,2.52,2.52,0,0,1,2.39-.11,1.87,1.87,0,0,1,.74.68,2.16,2.16,0,0,1,.29,1h-.87a1.17,1.17,0,0,0-.18-.59,1.11,1.11,0,0,0-.43-.43,1.18,1.18,0,0,0-.63-.16,1.25,1.25,0,0,0-.87.28,1.49,1.49,0,0,0-.44.72,3,3,0,0,0-.13.9v.21a3,3,0,0,0,.13.9,1.4,1.4,0,0,0,.44.72A1.25,1.25,0,0,0,277.35,235.13Z"/><path class="cls-3" d="M280.24,233.07a3,3,0,0,1,.29-1.37,2.35,2.35,0,0,1,.83-1,2.3,2.3,0,0,1,1.27-.35,2.35,2.35,0,0,1,1.29.35,2.44,2.44,0,0,1,.84,1,3.17,3.17,0,0,1,.28,1.37v.12a3.23,3.23,0,0,1-.28,1.37,2.4,2.4,0,0,1-.83.95,2.29,2.29,0,0,1-1.29.36,2.27,2.27,0,0,1-2.11-1.31,3.09,3.09,0,0,1-.29-1.37Zm.91.12a2.73,2.73,0,0,0,.16,1,1.63,1.63,0,0,0,.5.71,1.41,1.41,0,0,0,1.66,0,1.63,1.63,0,0,0,.5-.71,2.73,2.73,0,0,0,.16-1v-.12a2.69,2.69,0,0,0-.16-1,1.73,1.73,0,0,0-.5-.72,1.28,1.28,0,0,0-.84-.27,1.25,1.25,0,0,0-.82.27,1.64,1.64,0,0,0-.5.72,2.69,2.69,0,0,0-.16,1Z"/><path class="cls-3" d="M287.09,235.77h-.91v-5.29H287l0,1.13Zm-.59-2.86a3,3,0,0,1,.27-1.29,2.22,2.22,0,0,1,.75-.9,2.13,2.13,0,0,1,2-.14,1.3,1.3,0,0,1,.59.61,2.51,2.51,0,0,1,.21,1.12v3.46h-.91V232.3a1.56,1.56,0,0,0-.13-.67.7.7,0,0,0-.35-.37,1.38,1.38,0,0,0-1.19,0,1.44,1.44,0,0,0-.47.39,1.79,1.79,0,0,0-.31.56,2.2,2.2,0,0,0-.1.68Z"/><path class="cls-3" d="M291.48,233.08a3.62,3.62,0,0,1,.26-1.41,2.29,2.29,0,0,1,.73-.95,1.86,1.86,0,0,1,1.1-.33,2,2,0,0,1,1.11.3,2.08,2.08,0,0,1,.69.87,4.18,4.18,0,0,1,.33,1.34v.47a4.55,4.55,0,0,1-.32,1.33,2,2,0,0,1-.7.86,2,2,0,0,1-1.12.31,1.8,1.8,0,0,1-1.09-.35,2.39,2.39,0,0,1-.73-1,3.49,3.49,0,0,1-.26-1.37Zm.91.11a2.93,2.93,0,0,0,.15,1,1.39,1.39,0,0,0,.45.69,1.14,1.14,0,0,0,.79.26,1.27,1.27,0,0,0,.74-.19,1.33,1.33,0,0,0,.47-.5,2.54,2.54,0,0,0,.27-.68v-1.18a2.24,2.24,0,0,0-.16-.52,1.74,1.74,0,0,0-.29-.45,1.12,1.12,0,0,0-.42-.32,1.4,1.4,0,0,0-.6-.12,1.19,1.19,0,0,0-.8.27,1.42,1.42,0,0,0-.45.7,3,3,0,0,0-.15,1Zm2.64-4.92h.91v7.5h-.83l-.08-1Z"/><path class="cls-3" d="M297.35,229.08a.55.55,0,0,1,.14-.37.51.51,0,0,1,.4-.15.52.52,0,0,1,.4.15.55.55,0,0,1,.14.37.5.5,0,0,1-.54.51.51.51,0,0,1-.4-.15A.52.52,0,0,1,297.35,229.08Zm1,6.69h-.92v-5.29h.92Z"/><path class="cls-3" d="M302,231.17h-2.86v-.69H302Zm-1-2v5.26a.87.87,0,0,0,.08.41.42.42,0,0,0,.22.18.86.86,0,0,0,.28,0,1,1,0,0,0,.24,0l.18,0v.73l-.28.06a2.5,2.5,0,0,1-.42,0,1.37,1.37,0,0,1-.61-.14.91.91,0,0,1-.45-.44,1.77,1.77,0,0,1-.16-.84V229.2Z"/><path class="cls-3" d="M303.06,229.08a.54.54,0,0,1,.13-.37.51.51,0,0,1,.4-.15.52.52,0,0,1,.4.15.5.5,0,0,1,.14.37.48.48,0,0,1-.14.36.52.52,0,0,1-.4.15.51.51,0,0,1-.4-.15A.52.52,0,0,1,303.06,229.08Zm1,6.69h-.91v-5.29H304Z"/><path class="cls-3" d="M305.25,233.07a3,3,0,0,1,.29-1.37,2.35,2.35,0,0,1,.83-1,2.3,2.3,0,0,1,1.27-.35,2.23,2.23,0,0,1,2.12,1.31,3,3,0,0,1,.29,1.37v.12a3.09,3.09,0,0,1-.29,1.37,2.34,2.34,0,0,1-4.22,0,3.09,3.09,0,0,1-.29-1.37Zm.91.12a2.73,2.73,0,0,0,.16,1,1.55,1.55,0,0,0,.5.71,1.41,1.41,0,0,0,1.66,0,1.63,1.63,0,0,0,.5-.71,2.73,2.73,0,0,0,.16-1v-.12a2.69,2.69,0,0,0-.16-1,1.73,1.73,0,0,0-.5-.72,1.28,1.28,0,0,0-.84-.27,1.25,1.25,0,0,0-.82.27,1.56,1.56,0,0,0-.5.72,2.69,2.69,0,0,0-.16,1Z"/><path class="cls-3" d="M312.1,235.77h-.91v-5.29h.86l.05,1.13Zm-.59-2.86a3,3,0,0,1,.27-1.29,2.22,2.22,0,0,1,.75-.9,2.13,2.13,0,0,1,2-.14,1.3,1.3,0,0,1,.59.61,2.51,2.51,0,0,1,.21,1.12v3.46h-.92V232.3a1.58,1.58,0,0,0-.12-.67.7.7,0,0,0-.35-.37,1.38,1.38,0,0,0-1.19,0,1.35,1.35,0,0,0-.47.39,1.79,1.79,0,0,0-.31.56,2.2,2.2,0,0,0-.1.68Z"/><path class="cls-3" d="M319.79,234.37a.81.81,0,0,0-.09-.37.79.79,0,0,0-.34-.3,2.85,2.85,0,0,0-.78-.25,5.38,5.38,0,0,1-1-.31,1.88,1.88,0,0,1-.66-.48,1.18,1.18,0,0,1-.23-.73,1.32,1.32,0,0,1,.24-.77,1.69,1.69,0,0,1,.69-.56,2.37,2.37,0,0,1,1-.21,2.47,2.47,0,0,1,1.09.22,1.7,1.7,0,0,1,.69.6,1.46,1.46,0,0,1,.24.82h-.92a.88.88,0,0,0-.28-.62,1.12,1.12,0,0,0-.82-.29,1.43,1.43,0,0,0-.6.11.78.78,0,0,0-.34.3.72.72,0,0,0-.11.37.65.65,0,0,0,.1.34.88.88,0,0,0,.36.26,4.6,4.6,0,0,0,.76.22,5.59,5.59,0,0,1,1.07.35,1.54,1.54,0,0,1,.62.51,1.2,1.2,0,0,1,.21.72,1.38,1.38,0,0,1-.26.82,1.6,1.6,0,0,1-.71.55,2.7,2.7,0,0,1-1.08.2,2.64,2.64,0,0,1-1.18-.25,1.91,1.91,0,0,1-.73-.64,1.52,1.52,0,0,1-.25-.84h.91a1,1,0,0,0,.22.59,1,1,0,0,0,.47.31,1.87,1.87,0,0,0,.56.09,1.67,1.67,0,0,0,.63-.1.83.83,0,0,0,.38-.27A.7.7,0,0,0,319.79,234.37Z"/><path class="cls-3" d="M327.63,233.2h-.91a2.43,2.43,0,0,0-1.19.24.81.81,0,0,0-.42.74.88.88,0,0,0,.26.64,1,1,0,0,0,.75.26,1.45,1.45,0,0,0,1.23-.61.89.89,0,0,0,.2-.49l.39.43a1.18,1.18,0,0,1-.18.45,2.22,2.22,0,0,1-.4.48,2.27,2.27,0,0,1-.6.38,1.92,1.92,0,0,1-.77.15,2,2,0,0,1-.94-.21,1.58,1.58,0,0,1-.63-.57,1.43,1.43,0,0,1-.22-.79,1.47,1.47,0,0,1,.64-1.29,3,3,0,0,1,1.74-.45h1Zm-.16-1a1,1,0,0,0-.29-.76,1.09,1.09,0,0,0-.82-.28,1.4,1.4,0,0,0-.6.12,1,1,0,0,0-.39.3.66.66,0,0,0-.14.42h-.92a1.28,1.28,0,0,1,.26-.74,1.89,1.89,0,0,1,.73-.59,2.42,2.42,0,0,1,1.11-.23,2.48,2.48,0,0,1,1,.19,1.56,1.56,0,0,1,.7.59,1.76,1.76,0,0,1,.25,1v2.47a3.87,3.87,0,0,0,.05.56,1.71,1.71,0,0,0,.14.51v.08h-1a1.85,1.85,0,0,1-.1-.42,2.85,2.85,0,0,1,0-.49Z"/><path class="cls-3" d="M330.71,237.8h-.91v-7.32h.83l.08,1Zm3.55-4.61a3.68,3.68,0,0,1-.24,1.37,2.23,2.23,0,0,1-.69,1,1.81,1.81,0,0,1-1.11.35,2,2,0,0,1-1.14-.3,1.89,1.89,0,0,1-.72-.83,4.2,4.2,0,0,1-.34-1.28v-.56a4.45,4.45,0,0,1,.34-1.34,2.22,2.22,0,0,1,.72-.87,2,2,0,0,1,1.12-.3,1.89,1.89,0,0,1,1.13.33,2.14,2.14,0,0,1,.69.95,3.82,3.82,0,0,1,.24,1.41Zm-.91-.11a3,3,0,0,0-.15-1,1.51,1.51,0,0,0-.46-.7,1.2,1.2,0,0,0-.81-.27,1.35,1.35,0,0,0-.59.12,1.3,1.3,0,0,0-.42.32,1.74,1.74,0,0,0-.29.45,2.86,2.86,0,0,0-.16.52v1.27a2.42,2.42,0,0,0,.27.64,1.54,1.54,0,0,0,.46.49,1.4,1.4,0,0,0,.74.18,1.19,1.19,0,0,0,.8-.27,1.49,1.49,0,0,0,.46-.71,2.93,2.93,0,0,0,.15-1Z"/><path class="cls-3" d="M336.32,237.8h-.91v-7.32h.83l.08,1Zm3.56-4.61a3.68,3.68,0,0,1-.24,1.37,2.17,2.17,0,0,1-.7,1,1.77,1.77,0,0,1-1.11.35,2.06,2.06,0,0,1-1.14-.3,1.94,1.94,0,0,1-.71-.83,3.7,3.7,0,0,1-.34-1.28v-.56a4.17,4.17,0,0,1,.34-1.34,2.06,2.06,0,0,1,.72-.87,2,2,0,0,1,1.12-.3,1.86,1.86,0,0,1,1.12.33,2.08,2.08,0,0,1,.7.95,3.82,3.82,0,0,1,.24,1.41Zm-.91-.11a3,3,0,0,0-.15-1,1.53,1.53,0,0,0-.47-.7,1.2,1.2,0,0,0-.81-.27,1.31,1.31,0,0,0-.58.12,1.24,1.24,0,0,0-.43.32,1.71,1.71,0,0,0-.28.45,2.24,2.24,0,0,0-.16.52v1.27a2.42,2.42,0,0,0,.27.64,1.44,1.44,0,0,0,.46.49,1.36,1.36,0,0,0,.73.18,1.16,1.16,0,0,0,.8-.27,1.51,1.51,0,0,0,.47-.71,2.93,2.93,0,0,0,.15-1Z"/><path class="cls-3" d="M342,235.77h-.92v-7.5H342Z"/><path class="cls-3" d="M345.24,234.59l.23.95-.65.33-1.94-5.39h1Zm1.17-4.11h1l-2.12,6.1a3,3,0,0,1-.19.43,2.38,2.38,0,0,1-.3.43,1.38,1.38,0,0,1-.45.33,1.32,1.32,0,0,1-.62.13h-.18l-.19,0-.15,0v-.72h.25a1.2,1.2,0,0,0,.72-.19,1.37,1.37,0,0,0,.42-.68l.37-1Z"/><path class="cls-4" d="M233.26,157.28a1.61,1.61,0,0,0-.2-.8,2,2,0,0,0-.8-.7,11.14,11.14,0,0,0-1.83-.76,22.16,22.16,0,0,1-2.14-.85,9.66,9.66,0,0,1-1.88-1.13,5.23,5.23,0,0,1-1.32-1.54,4.17,4.17,0,0,1-.5-2.07,4,4,0,0,1,.87-2.58,5.67,5.67,0,0,1,2.37-1.68,9.34,9.34,0,0,1,3.41-.59,8.08,8.08,0,0,1,3.33.64,5.34,5.34,0,0,1,2.28,1.83,4.91,4.91,0,0,1,.82,2.86h-4.38a2,2,0,0,0-.23-1,1.55,1.55,0,0,0-.7-.66,2.84,2.84,0,0,0-1.21-.23,3.29,3.29,0,0,0-1.21.2,1.68,1.68,0,0,0-.72.52,1.18,1.18,0,0,0-.24.72,1,1,0,0,0,.37.8,3.87,3.87,0,0,0,1.05.63c.44.2,1,.39,1.54.59a14.26,14.26,0,0,1,3.1,1.36,5.76,5.76,0,0,1,1.94,1.85,4.67,4.67,0,0,1,.67,2.54,4.39,4.39,0,0,1-.78,2.64,4.81,4.81,0,0,1-2.21,1.65,9.24,9.24,0,0,1-3.36.56,10,10,0,0,1-2.62-.34,7.31,7.31,0,0,1-2.32-1.05,5.31,5.31,0,0,1-1.65-1.84,5.46,5.46,0,0,1-.62-2.67h4.41a3.36,3.36,0,0,0,.17,1.17,1.62,1.62,0,0,0,.52.75,2.11,2.11,0,0,0,.88.41,5,5,0,0,0,1.23.13,2.79,2.79,0,0,0,1.15-.2,1.42,1.42,0,0,0,.62-.52A1.33,1.33,0,0,0,233.26,157.28Z"/><path class="cls-4" d="M246.51,156.38h-1.63a1.51,1.51,0,0,0-1.35.54,2.09,2.09,0,0,0-.35,1.14.85.85,0,0,0,.32.69,1.24,1.24,0,0,0,.81.27,2.12,2.12,0,0,0,1-.22,1.64,1.64,0,0,0,.63-.51.68.68,0,0,0,.17-.51l.9,1.77c-.15.3-.33.6-.52.9a3.68,3.68,0,0,1-.71.83,3.14,3.14,0,0,1-1,.6,4,4,0,0,1-1.47.23,4.84,4.84,0,0,1-2.15-.48,4,4,0,0,1-1.59-1.35,3.43,3.43,0,0,1-.6-2,3.66,3.66,0,0,1,1.44-3.07,7.43,7.43,0,0,1,4.53-1.12h1.57Zm-.53-2.83a1.86,1.86,0,0,0-.3-1.12,1.17,1.17,0,0,0-1-.42,1.54,1.54,0,0,0-.65.12.8.8,0,0,0-.4.37,1.48,1.48,0,0,0-.14.69h-4.21A3.66,3.66,0,0,1,240,151a4.58,4.58,0,0,1,2-1.49,7.58,7.58,0,0,1,3-.55,6.92,6.92,0,0,1,2.73.51,4.22,4.22,0,0,1,1.91,1.54,4.41,4.41,0,0,1,.7,2.56v5a9.3,9.3,0,0,0,.15,2,4.66,4.66,0,0,0,.4,1.11v.21h-4.21a5.68,5.68,0,0,1-.44-1.53,12.69,12.69,0,0,1-.14-1.88Z"/><path class="cls-4" d="M257.74,158.91l-.05,3h-2.63L251,149.2h4.46ZM259,149.2h4.44l-4.07,12.68h-2.63l-.07-3Z"/><path class="cls-4" d="M270.79,162.11a7.07,7.07,0,0,1-3.59-.85,5.91,5.91,0,0,1-2.26-2.26,6.2,6.2,0,0,1-.77-3v-.43a7.93,7.93,0,0,1,.68-3.31,5.45,5.45,0,0,1,2-2.38,7,7,0,0,1,6.59-.13,5,5,0,0,1,2,2.16,7.32,7.32,0,0,1,.7,3.34V157H265.75v-2.71h6.31v-.34a1.87,1.87,0,0,0-.19-.9,1.19,1.19,0,0,0-.59-.51,2.55,2.55,0,0,0-1-.17,1.54,1.54,0,0,0-1.23.46,2.4,2.4,0,0,0-.55,1.18,7.54,7.54,0,0,0-.14,1.54V156a3.17,3.17,0,0,0,.31,1.46,2.25,2.25,0,0,0,.92.94,3,3,0,0,0,1.45.33,4.69,4.69,0,0,0,1.55-.27,2.81,2.81,0,0,0,1.32-1l1.9,2.43a5.29,5.29,0,0,1-1.89,1.51A6.7,6.7,0,0,1,270.79,162.11Z"/><path class="cls-4" d="M292.6,161.88h-4.23V149.8l-3.81,1V147.5l7.65-2.67h.39Z"/><path class="cls-4" d="M297.76,153.6l1.05-8.79h10.12v3.4h-6.67l-.37,3a7,7,0,0,1,.92-.36,4.68,4.68,0,0,1,1.44-.22,5.85,5.85,0,0,1,2.89.67,4.37,4.37,0,0,1,1.79,2,7.27,7.27,0,0,1,.61,3.14,6.07,6.07,0,0,1-.65,2.75,5.17,5.17,0,0,1-2,2.15,6.2,6.2,0,0,1-3.38.84,7.16,7.16,0,0,1-2.25-.36,6.52,6.52,0,0,1-2-1,5.17,5.17,0,0,1-1.38-1.64,4.21,4.21,0,0,1-.48-2.13h4.24a1.87,1.87,0,0,0,.53,1.28,1.72,1.72,0,0,0,1.28.49,1.57,1.57,0,0,0,1.13-.38,2.1,2.1,0,0,0,.54-1,6,6,0,0,0,.14-1.29,3.44,3.44,0,0,0-.22-1.32,1.74,1.74,0,0,0-.73-.83,2.64,2.64,0,0,0-1.32-.29,2.33,2.33,0,0,0-1.28.3,2.48,2.48,0,0,0-.64.53Z"/><path class="cls-4" d="M311.61,148.1a3.73,3.73,0,0,1,.42-1.77,3.28,3.28,0,0,1,1.28-1.28,4.3,4.3,0,0,1,2.13-.48,4.41,4.41,0,0,1,2.17.48,3.13,3.13,0,0,1,1.27,1.28,3.72,3.72,0,0,1,.41,1.77v.9a3.66,3.66,0,0,1-.41,1.74,3.07,3.07,0,0,1-1.27,1.28,5,5,0,0,1-4.29,0,3.18,3.18,0,0,1-1.29-1.28,3.67,3.67,0,0,1-.42-1.74Zm2.68.9a1.25,1.25,0,0,0,.13.57,1.05,1.05,0,0,0,.39.42,1.21,1.21,0,0,0,.65.17,1.16,1.16,0,0,0,.65-.17,1.08,1.08,0,0,0,.37-.42,1.39,1.39,0,0,0,.12-.57v-.9a1.45,1.45,0,0,0-.12-.59,1,1,0,0,0-.39-.43,1.18,1.18,0,0,0-.65-.17,1.14,1.14,0,0,0-.63.17,1,1,0,0,0-.39.43,1.31,1.31,0,0,0-.13.59Zm2,11.62-1.95-1,8.33-13.34,1.95,1Zm3.4-2.93a3.57,3.57,0,0,1,.43-1.75,3.18,3.18,0,0,1,1.29-1.28,4.3,4.3,0,0,1,2.13-.48,4.38,4.38,0,0,1,2.17.48,3.07,3.07,0,0,1,1.27,1.28,3.68,3.68,0,0,1,.42,1.75v.91a3.68,3.68,0,0,1-.42,1.75,3.1,3.1,0,0,1-1.26,1.28,5.08,5.08,0,0,1-4.31,0,3.18,3.18,0,0,1-1.29-1.28,3.57,3.57,0,0,1-.43-1.75Zm2.69.91a1.09,1.09,0,0,0,.17.58,1.24,1.24,0,0,0,.43.42,1.09,1.09,0,0,0,.58.17,1.35,1.35,0,0,0,.76-.17.75.75,0,0,0,.31-.42,2.15,2.15,0,0,0,.07-.58v-.91a1.22,1.22,0,0,0-.29-.81,1.23,1.23,0,0,0-1.74,0,1.28,1.28,0,0,0-.29.81Z"/><path class="cls-4" d="M342.42,156.38h-1.63a1.48,1.48,0,0,0-1.35.54,2,2,0,0,0-.35,1.14.82.82,0,0,0,.32.69,1.19,1.19,0,0,0,.8.27,2.14,2.14,0,0,0,1-.22,1.69,1.69,0,0,0,.62-.51.74.74,0,0,0,.18-.51l.9,1.77c-.16.3-.33.6-.52.9a4,4,0,0,1-.71.83,3.14,3.14,0,0,1-1,.6,4.07,4.07,0,0,1-1.48.23,4.87,4.87,0,0,1-2.15-.48,4,4,0,0,1-1.59-1.35,3.5,3.5,0,0,1-.59-2,3.66,3.66,0,0,1,1.44-3.07,7.42,7.42,0,0,1,4.52-1.12h1.57Zm-.53-2.83a1.86,1.86,0,0,0-.3-1.12,1.18,1.18,0,0,0-1-.42,1.6,1.6,0,0,0-.65.12.84.84,0,0,0-.4.37,1.63,1.63,0,0,0-.13.69h-4.22a3.66,3.66,0,0,1,.69-2.19,4.62,4.62,0,0,1,2-1.49,7.55,7.55,0,0,1,3-.55,7,7,0,0,1,2.73.51,4.27,4.27,0,0,1,1.91,1.54,4.41,4.41,0,0,1,.7,2.56v5a9.3,9.3,0,0,0,.15,2,4.26,4.26,0,0,0,.4,1.11v.21h-4.22a5.7,5.7,0,0,1-.43-1.53,11.47,11.47,0,0,1-.14-1.88Z"/><path class="cls-4" d="M355.05,152.24h-7.79v-3h7.79Zm-2-6.19v11.46a1.8,1.8,0,0,0,.11.69.62.62,0,0,0,.38.36,2.12,2.12,0,0,0,.75.11l.55,0a2.48,2.48,0,0,0,.41,0v3.14a6,6,0,0,1-1.09.27,7.42,7.42,0,0,1-1.2.09,5.57,5.57,0,0,1-2.24-.41,3,3,0,0,1-1.4-1.3,4.76,4.76,0,0,1-.48-2.28V146.05Z"/><path class="cls-4" d="M377,161.88h-4.38L367,152v9.87h-4.39V144.81H367l5.64,9.87v-9.87H377Z"/><path class="cls-4" d="M379.28,146a2,2,0,0,1,.65-1.53,2.39,2.39,0,0,1,1.67-.58,2.37,2.37,0,0,1,1.68.58,2.12,2.12,0,0,1,0,3,2.33,2.33,0,0,1-1.68.6,2.36,2.36,0,0,1-1.67-.6A2,2,0,0,1,379.28,146Zm4.47,15.89h-4.23V149.2h4.23Z"/><path class="cls-4" d="M390.3,161.88h-4.23v-18h4.23Zm2.66-6.1L390,158.69,388.15,156l2.45-3.29,2.76-3.53h5.05Zm-2.26.45,3.13-2.19,4.86,7.84h-4.83Z"/><path class="cls-4" d="M405.59,162.11a7.07,7.07,0,0,1-3.59-.85,5.91,5.91,0,0,1-2.26-2.26,6.2,6.2,0,0,1-.77-3v-.43a7.93,7.93,0,0,1,.68-3.31,5.45,5.45,0,0,1,2.05-2.38,7,7,0,0,1,6.59-.13,5,5,0,0,1,2,2.16,7.32,7.32,0,0,1,.7,3.34V157H400.55v-2.71h6.31v-.34a1.87,1.87,0,0,0-.19-.9,1.19,1.19,0,0,0-.59-.51,2.51,2.51,0,0,0-1-.17,1.54,1.54,0,0,0-1.23.46,2.4,2.4,0,0,0-.55,1.18,8.32,8.32,0,0,0-.14,1.54V156a3.05,3.05,0,0,0,.32,1.46,2.14,2.14,0,0,0,.92.94,3,3,0,0,0,1.44.33,4.74,4.74,0,0,0,1.56-.27,2.83,2.83,0,0,0,1.31-1l1.9,2.43a5.29,5.29,0,0,1-1.89,1.51A6.68,6.68,0,0,1,405.59,162.11Z"/><path class="cls-4" d="M412.76,159.83a2.06,2.06,0,0,1,.65-1.55,2.55,2.55,0,0,1,3.33,0,2.05,2.05,0,0,1,.64,1.55,2.08,2.08,0,0,1-.64,1.55,2.52,2.52,0,0,1-3.33,0A2.09,2.09,0,0,1,412.76,159.83Z"/><path class="cls-4" d="M425.34,158.71a2,2,0,0,0,.86-.17,1.19,1.19,0,0,0,.53-.51,1.66,1.66,0,0,0,.15-.8h3.95a4.49,4.49,0,0,1-.68,2.58,4.72,4.72,0,0,1-1.94,1.7,6.21,6.21,0,0,1-2.78.6,6.09,6.09,0,0,1-3.33-.84,5.2,5.2,0,0,1-2-2.3,7.85,7.85,0,0,1-.67-3.32v-.22a8,8,0,0,1,.66-3.31,5.17,5.17,0,0,1,2-2.31,6,6,0,0,1,3.32-.85,6.25,6.25,0,0,1,2.84.61,4.54,4.54,0,0,1,1.92,1.76,5.27,5.27,0,0,1,.66,2.84h-3.95a2.45,2.45,0,0,0-.14-.91,1.43,1.43,0,0,0-.51-.65,1.57,1.57,0,0,0-.93-.25,1.35,1.35,0,0,0-1.09.42,2.25,2.25,0,0,0-.45,1.11,9.22,9.22,0,0,0-.11,1.54v.22a10.49,10.49,0,0,0,.1,1.56,2.09,2.09,0,0,0,.46,1.1A1.44,1.44,0,0,0,425.34,158.71Z"/><path class="cls-4" d="M431.93,155.43a7.53,7.53,0,0,1,.71-3.32,5.42,5.42,0,0,1,2.07-2.3,7.19,7.19,0,0,1,6.78,0,5.38,5.38,0,0,1,2.08,2.3,7.67,7.67,0,0,1,.69,3.32v.22a7.7,7.7,0,0,1-.69,3.32,5.31,5.31,0,0,1-2.07,2.3,7.26,7.26,0,0,1-6.78,0,5.27,5.27,0,0,1-2.08-2.3,7.56,7.56,0,0,1-.71-3.32Zm4.24.22a7.54,7.54,0,0,0,.15,1.57,2.12,2.12,0,0,0,.58,1.09,2,2,0,0,0,2.41,0,2.12,2.12,0,0,0,.58-1.09,7.54,7.54,0,0,0,.15-1.57v-.22a7.38,7.38,0,0,0-.15-1.54,2.27,2.27,0,0,0-.58-1.11,1.67,1.67,0,0,0-1.22-.42,1.6,1.6,0,0,0-1.19.42,2.27,2.27,0,0,0-.58,1.11,7.38,7.38,0,0,0-.15,1.54Z"/><path class="cls-4" d="M450.17,161.88h-4.23V149.2h4l.27,2.7Zm-1.47-6.65a9,9,0,0,1,.54-3.24,4.93,4.93,0,0,1,1.65-2.22,4.41,4.41,0,0,1,2.7-.81,3.58,3.58,0,0,1,2.66,1,4.76,4.76,0,0,1,1,3.42v8.46H453V154a2.64,2.64,0,0,0-.16-1.07.82.82,0,0,0-.46-.47,2.28,2.28,0,0,0-.75-.11,1.8,1.8,0,0,0-.84.2,1.63,1.63,0,0,0-.64.56,2.54,2.54,0,0,0-.4.88,4.59,4.59,0,0,0-.14,1.15Zm6.93.16a9.34,9.34,0,0,1,.52-3.34,4.87,4.87,0,0,1,1.6-2.27,4.29,4.29,0,0,1,2.67-.82,4.34,4.34,0,0,1,2.05.47,3.1,3.1,0,0,1,1.4,1.55,7.25,7.25,0,0,1,.51,3v7.91h-4.24V154a2.45,2.45,0,0,0-.16-1,.88.88,0,0,0-.47-.46,1.92,1.92,0,0,0-.73-.12,1.7,1.7,0,0,0-.89.22,1.68,1.68,0,0,0-.62.62,3.17,3.17,0,0,0-.37,1,5.93,5.93,0,0,0-.12,1.24Z"/><path d="M124.21,197.54a1.18,1.18,0,1,0,1.22,1.18A1.16,1.16,0,0,0,124.21,197.54Zm0,2a.84.84,0,1,1,0-1.67.84.84,0,1,1,0,1.67Z"/><polygon points="136.07 193.43 130.14 193.43 130.81 183.11 126.96 193.43 121.45 193.43 130.19 170.11 136.05 170.11 135.38 180.57 139.3 170.11 144.81 170.11 136.07 193.43"/><polygon points="136.79 193.43 145.53 170.11 151.04 170.11 142.3 193.43 136.79 193.43"/><path d="M120.81,185.39c-7.7,9-15,21.07-8.55,26.62,6.22,5.37,14,2.19,19.29.07s63.87-27.56,63.87-27.56c.56-.28.46-.63-.25-.46l-63.76,17.28C123.35,203.6,114.17,198.67,120.81,185.39Z"/><path d="M124.42,198.8a.3.3,0,0,0,.3-.34c0-.3-.2-.38-.53-.38h-.48v1.27H124v-.54h0l.29.54h.37Zm-.21-.21H124v-.29h.15c.1,0,.2,0,.2.13S124.32,198.59,124.21,198.59Z"/><path d="M179.61,170a1.18,1.18,0,1,0,1.21,1.18A1.16,1.16,0,0,0,179.61,170Zm0,2a.81.81,0,0,1-.85-.83.85.85,0,1,1,.85.83Z"/><path d="M179.81,171.3a.3.3,0,0,0,.31-.34c0-.3-.2-.38-.53-.38h-.48v1.27h.32v-.54h0l.29.54h.37Zm-.2-.21h-.18v-.29h.15c.09,0,.2,0,.2.13S179.72,171.09,179.61,171.09Z"/><path d="M176,174l1.49-3.89H160.64l-5.77,7,2.66-7H152l-8.67,23.31h5.51l3.7-9.75.25,9.75,16.91,0,1.61-4.49h-6.43l2.12-5.65h5.29l1.64-4.34h-5.3l1.81-4.91Zm-17.76,17.87-.35-12.15,8.33-9.15Z"/></svg>