<svg id="Layer_1" data-name="Layer 1" xmlns="http://www.w3.org/2000/svg" xmlns:xlink="http://www.w3.org/1999/xlink" viewBox="0 0 309 410"><defs><style>.cls-1,.cls-8{fill:none;}.cls-2{fill:#fff;}.cls-3{fill:#1c272d;}.cls-4{fill:#1d212a;}.cls-5{fill:#a5aab5;}.cls-6{fill:#f6f8fc;stroke:#dce0e8;}.cls-6,.cls-8{stroke-miterlimit:10;}.cls-7,.cls-9{fill:#00bce0;}.cls-7{opacity:0.15;}.cls-8{stroke:#00bce0;}.cls-10{fill:#616774;}.cls-11{clip-path:url(#clip-path);}.cls-12{fill:#00dcc4;}.cls-13{fill:#c2fff6;}.cls-14{fill:#1d67e1;}</style><clipPath id="clip-path"><rect class="cls-1" x="35.24" y="111.75" width="70.33" height="70.33" rx="4"/></clipPath></defs><rect class="cls-2" width="309" height="410"/><path class="cls-3" d="M68.74,48v.55H61.5V48l1.94-.72V32.38l-1.94-.72v-.55h7.24v.55l-1.95.72V47.26Z"/><path class="cls-3" d="M75.06,39.57v7.84l1.61.61v.51H70.33V48l1.72-.66V40a2.56,2.56,0,0,0-.67-.59,6.48,6.48,0,0,0-1.12-.5v-.42L74.11,37h.38ZM78,48l1.6-.61V41.28a2.27,2.27,0,0,0-.23-1.06,1.51,1.51,0,0,0-.72-.64,3,3,0,0,0-1.2-.22,4.48,4.48,0,0,0-1.58.28,2.67,2.67,0,0,0-1.09.7l-.54-.49a15.28,15.28,0,0,1,1.44-1.4,6.82,6.82,0,0,1,1.24-.86,5,5,0,0,1,1.18-.44A6.2,6.2,0,0,1,79.34,37a2.94,2.94,0,0,1,2.47,1,5.26,5.26,0,0,1,.81,3.23v6.07l1.74.66v.51H78Z"/><path class="cls-3" d="M96,38.44,91.81,48.69H90.19L85.45,38.55l-1.56-.64v-.56h6.38v.57l-1.53.52,3.56,7.89-.68,0,3-7.92-1.52-.51v-.57h4.22v.57Z"/><path class="cls-3" d="M103.18,37a4.71,4.71,0,0,1,2.43.61,4.14,4.14,0,0,1,1.58,1.75,7.46,7.46,0,0,1,.72,2.77H99.79v-1l6.58-.35-1.43.65a6.9,6.9,0,0,0-.3-1.75,2.51,2.51,0,0,0-.66-1.1,1.52,1.52,0,0,0-1.08-.39,2.05,2.05,0,0,0-1.24.41,2.69,2.69,0,0,0-.86,1.29,7.44,7.44,0,0,0-.31,2.34,5.17,5.17,0,0,0,.52,2.39,3.57,3.57,0,0,0,1.46,1.52,4.29,4.29,0,0,0,2.2.53,4.71,4.71,0,0,0,1-.11,4.52,4.52,0,0,0,.95-.34,6.85,6.85,0,0,0,.93-.59l.4.53a10.17,10.17,0,0,1-1.43,1.43,6.12,6.12,0,0,1-1.59.93,5.1,5.1,0,0,1-1.81.32,5.47,5.47,0,0,1-2.88-.75A5.22,5.22,0,0,1,98.32,46a6.12,6.12,0,0,1-.69-2.93,7.08,7.08,0,0,1,.65-3,5.18,5.18,0,0,1,4.9-3Z"/><path class="cls-3" d="M114,37a7.55,7.55,0,0,1,1.61.16,8.09,8.09,0,0,1,1.49.52l.14,3.08h-.75L115,37.66l1,1.08a4.66,4.66,0,0,0-1-.51,2.85,2.85,0,0,0-1-.17,2.51,2.51,0,0,0-1.48.38,1.22,1.22,0,0,0-.53,1,1.37,1.37,0,0,0,.28.87,2.4,2.4,0,0,0,.85.65,14,14,0,0,0,1.48.6,8.62,8.62,0,0,1,1.22.56,4,4,0,0,1,.94.74,3.38,3.38,0,0,1,.62,1,3.65,3.65,0,0,1,.22,1.3,3.32,3.32,0,0,1-.61,2,3.73,3.73,0,0,1-1.65,1.22,6.18,6.18,0,0,1-2.34.41,9.17,9.17,0,0,1-1.62-.13,7.63,7.63,0,0,1-1.43-.43l-.44-3.22h.73l1.85,3.31-1.73-1a7.47,7.47,0,0,0,.86.3,5,5,0,0,0,.71.15l.66,0a3.54,3.54,0,0,0,1.85-.42,1.45,1.45,0,0,0,.69-1.32,1.34,1.34,0,0,0-.2-.74,1.84,1.84,0,0,0-.56-.55,6.65,6.65,0,0,0-.89-.46c-.35-.15-.74-.3-1.17-.46a5.37,5.37,0,0,1-1.43-.78,3,3,0,0,1-.88-1.12,3.67,3.67,0,0,1-.29-1.53,3,3,0,0,1,.57-1.85,3.59,3.59,0,0,1,1.53-1.16A5.43,5.43,0,0,1,114,37Z"/><path class="cls-3" d="M123.55,45.19a1.38,1.38,0,0,0,.52,1.16,2.31,2.31,0,0,0,1.48.41,5.69,5.69,0,0,0,1-.1c.37-.07.78-.18,1.23-.31v.71a13.33,13.33,0,0,1-1.55,1,7,7,0,0,1-1.28.56,4,4,0,0,1-1.08.17,4.25,4.25,0,0,1-1.76-.35A2.58,2.58,0,0,1,121,47.41a3.46,3.46,0,0,1-.42-1.79V39.46l-1.61-1.19v-.44l.73-.48.8-.53c.28-.18.55-.37.82-.56l.79-.54.74-.52h.73v10Zm-1.22-6.33V37.35h5l-.23,1.51Z"/><path class="cls-3" d="M140.05,48.84a6.26,6.26,0,0,1-3.1-.73,5,5,0,0,1-2-2,6.1,6.1,0,0,1-.72-3A6.32,6.32,0,0,1,135,40a5.48,5.48,0,0,1,2.12-2.15,6,6,0,0,1,3.09-.79,6.38,6.38,0,0,1,3.11.73,5.19,5.19,0,0,1,2,2,6.23,6.23,0,0,1,.71,3,6.31,6.31,0,0,1-.77,3.13,5.76,5.76,0,0,1-2.12,2.15A6.08,6.08,0,0,1,140.05,48.84Zm.14-1.19a2.23,2.23,0,0,0,1.36-.43,2.8,2.8,0,0,0,.93-1.35,7.43,7.43,0,0,0,.34-2.45,10.47,10.47,0,0,0-.33-2.85,3.88,3.88,0,0,0-1-1.74,2.08,2.08,0,0,0-1.49-.6,2.28,2.28,0,0,0-1.35.42,2.8,2.8,0,0,0-.93,1.35,7.46,7.46,0,0,0-.34,2.46,10.58,10.58,0,0,0,.33,2.85,3.7,3.7,0,0,0,1,1.74A2.05,2.05,0,0,0,140.19,47.65Z"/><path class="cls-3" d="M152.22,39.57v7.84l1.61.61v.51h-6.35V48l1.72-.66V40a2.51,2.51,0,0,0-.66-.59,6.85,6.85,0,0,0-1.12-.5v-.42L151.27,37h.37ZM155.15,48l1.6-.61V41.28a2.27,2.27,0,0,0-.23-1.06,1.51,1.51,0,0,0-.72-.64,3,3,0,0,0-1.19-.22,4.58,4.58,0,0,0-1.59.28,2.74,2.74,0,0,0-1.09.7l-.53-.49a16.61,16.61,0,0,1,1.43-1.4,6.82,6.82,0,0,1,1.24-.86,5.15,5.15,0,0,1,1.18-.44,6.28,6.28,0,0,1,1.24-.13,2.94,2.94,0,0,1,2.47,1,5.26,5.26,0,0,1,.81,3.23v6.07l1.74.66v.51h-6.36Z"/><path class="cls-3" d="M174.85,41.47l.11,1.07a14.2,14.2,0,0,0-2,.59,4.63,4.63,0,0,0-1.21.64,1.81,1.81,0,0,0-.58.69,1.92,1.92,0,0,0-.16.81,1.67,1.67,0,0,0,.42,1.25,1.46,1.46,0,0,0,1,.41,1.61,1.61,0,0,0,.88-.25A1.82,1.82,0,0,0,174,46a1.89,1.89,0,0,0,.23-.91V40.25a1.9,1.9,0,0,0-.43-1.31,1.85,1.85,0,0,0-1.41-.49,4.08,4.08,0,0,0-.83.1,4.5,4.5,0,0,0-.83.28l.52-.79c0,.41-.1.76-.16,1.05a5,5,0,0,1-.19.71,1.17,1.17,0,0,1-.26.44,1.44,1.44,0,0,1-.56.37,2,2,0,0,1-.72.13,1.33,1.33,0,0,1-.8-.21.63.63,0,0,1-.28-.55,1.52,1.52,0,0,1,.46-1A4.74,4.74,0,0,1,170,38a7.84,7.84,0,0,1,3.68-.94,4.61,4.61,0,0,1,2.15.42,2.44,2.44,0,0,1,1.12,1.17,4.5,4.5,0,0,1,.33,1.79v5.72a1.4,1.4,0,0,0,.1.58.77.77,0,0,0,.3.36,1,1,0,0,0,.48.11,2.05,2.05,0,0,0,.58-.09,3.56,3.56,0,0,0,.63-.3v.74a4.87,4.87,0,0,1-1.35.91,3.14,3.14,0,0,1-1.33.33,2.49,2.49,0,0,1-1.31-.32,1.85,1.85,0,0,1-.75-.9,3.44,3.44,0,0,1-.27-1.34l.11-.07a3.83,3.83,0,0,1-.7,1.43,3.1,3.1,0,0,1-1.13.91,3.38,3.38,0,0,1-1.42.3,3.33,3.33,0,0,1-2.23-.73,2.7,2.7,0,0,1-.86-2.19,2.83,2.83,0,0,1,.29-1.31,3.14,3.14,0,0,1,1-1.12,9,9,0,0,1,2.07-1A31.7,31.7,0,0,1,174.85,41.47Z"/><path class="cls-3" d="M184.2,44.73a2.51,2.51,0,0,0,.18,1.05,1,1,0,0,0,.61.55,3.24,3.24,0,0,0,1.18.17,4.09,4.09,0,0,0,1.45-.25,2.22,2.22,0,0,0,1-.65l.52.56a18.54,18.54,0,0,1-1.36,1.34,6.49,6.49,0,0,1-1.16.81,4.08,4.08,0,0,1-1.09.42,6.28,6.28,0,0,1-1.17.11,2.86,2.86,0,0,1-2.41-1,4.93,4.93,0,0,1-.79-3.06v-5.9l-1.7-.81v-.59l4.86-.35-.14,1.65Zm4.32,4-.26-2.53V38.82l-1.54-.76v-.59l4.74-.35-.18,1.7v7.66a3.22,3.22,0,0,0,.33.28A3,3,0,0,0,192,47l.46.22a4.34,4.34,0,0,0,.47.16v.47l-4.07.88Z"/><path class="cls-3" d="M198.31,45.19a1.41,1.41,0,0,0,.52,1.16,2.32,2.32,0,0,0,1.49.41,5.67,5.67,0,0,0,1-.1c.38-.07.78-.18,1.23-.31v.71a13.33,13.33,0,0,1-1.55,1,7,7,0,0,1-1.28.56,4,4,0,0,1-1.07.17,4.27,4.27,0,0,1-1.77-.35,2.58,2.58,0,0,1-1.18-1.06,3.46,3.46,0,0,1-.42-1.79V39.46l-1.61-1.19v-.44l.73-.48.8-.53c.28-.18.55-.37.82-.56l.79-.54.74-.52h.73v10Zm-1.22-6.33V37.35h5l-.23,1.51Z"/><path class="cls-3" d="M209.13,48.84a6.19,6.19,0,0,1-3.09-.73,5,5,0,0,1-2-2,6.1,6.1,0,0,1-.72-3,6.32,6.32,0,0,1,.77-3.14,5.48,5.48,0,0,1,2.12-2.15,6,6,0,0,1,3.09-.79,6.38,6.38,0,0,1,3.11.73,5.19,5.19,0,0,1,2,2,6.23,6.23,0,0,1,.71,3,6.31,6.31,0,0,1-.77,3.13,5.68,5.68,0,0,1-2.12,2.15A6.08,6.08,0,0,1,209.13,48.84Zm.14-1.19a2.23,2.23,0,0,0,1.36-.43,2.8,2.8,0,0,0,.93-1.35,7.18,7.18,0,0,0,.34-2.45,10.47,10.47,0,0,0-.33-2.85,3.79,3.79,0,0,0-.95-1.74,2.06,2.06,0,0,0-1.49-.6,2.3,2.3,0,0,0-1.35.42,2.8,2.8,0,0,0-.93,1.35,7.49,7.49,0,0,0-.33,2.46,10.61,10.61,0,0,0,.32,2.85,3.7,3.7,0,0,0,.95,1.74A2.07,2.07,0,0,0,209.27,47.65Z"/><path class="cls-3" d="M226.38,43.08a5,5,0,0,0-.84-3.14,2.69,2.69,0,0,0-2.22-1.07,5.64,5.64,0,0,0-1.08.1,4.8,4.8,0,0,0-1,.29,3.76,3.76,0,0,0-.91.52l-.21-1c.45-.28.89-.53,1.31-.74a11.47,11.47,0,0,1,1.21-.55,7.44,7.44,0,0,1,1.11-.35,4.58,4.58,0,0,1,1-.13,4.86,4.86,0,0,1,2.67.69A4.41,4.41,0,0,1,229,39.59a6.26,6.26,0,0,1,.56,2.73,6.72,6.72,0,0,1-.86,3.49,5.91,5.91,0,0,1-2.3,2.25,6.5,6.5,0,0,1-3.14.78,7.63,7.63,0,0,1-1.28-.1,9.32,9.32,0,0,1-1.26-.32,11.94,11.94,0,0,1-1.43-.58h1.72v6l2,.71v.51h-6.72V54.6l1.71-.66v-14a2.1,2.1,0,0,0-.43-.41,6.14,6.14,0,0,0-.59-.35,8.19,8.19,0,0,0-.76-.33v-.43l4-1.45h.36l.42,1.68v6.51a2.72,2.72,0,0,0,.29,1.26,2.16,2.16,0,0,0,.85.87,2.7,2.7,0,0,0,1.33.32,2.4,2.4,0,0,0,1.53-.5,3.17,3.17,0,0,0,1-1.51A8.16,8.16,0,0,0,226.38,43.08Z"/><path class="cls-3" d="M236,37l-.13,2.5v7.84l1.74.66v.51h-6.48V48l1.72-.66V39.79a2.34,2.34,0,0,0-.45-.43,5.81,5.81,0,0,0-.61-.38,5.74,5.74,0,0,0-.71-.33v-.47L235.48,37Zm-1.72-3.14a1.85,1.85,0,0,1-1.92-1.94,1.93,1.93,0,1,1,3.86,0,1.91,1.91,0,0,1-.54,1.39A1.87,1.87,0,0,1,234.23,33.88Z"/><path class="cls-3" d="M243,47.36l1.74.66v.51h-6.48V48l1.73-.66V33.16a2.93,2.93,0,0,0-.47-.46,4.08,4.08,0,0,0-.63-.44,8.15,8.15,0,0,0-.88-.42v-.47L242.86,30h.37l-.2,2.54Z"/><path class="cls-3" d="M251.79,48.84a6.25,6.25,0,0,1-3.09-.73,5.06,5.06,0,0,1-2-2,6.2,6.2,0,0,1-.71-3,6.32,6.32,0,0,1,.76-3.14,5.55,5.55,0,0,1,2.12-2.15,6,6,0,0,1,3.1-.79,6.34,6.34,0,0,1,3.1.73,5.06,5.06,0,0,1,2,2,6.12,6.12,0,0,1,.72,3,6.21,6.21,0,0,1-.78,3.13,5.61,5.61,0,0,1-2.12,2.15A6,6,0,0,1,251.79,48.84Zm.15-1.19a2.25,2.25,0,0,0,1.36-.43,2.72,2.72,0,0,0,.92-1.35,7.18,7.18,0,0,0,.34-2.45,10.47,10.47,0,0,0-.33-2.85,3.79,3.79,0,0,0-.95-1.74,2.06,2.06,0,0,0-1.49-.6,2.25,2.25,0,0,0-1.34.42,2.67,2.67,0,0,0-.93,1.35,7.2,7.2,0,0,0-.34,2.46,10.58,10.58,0,0,0,.33,2.85,3.69,3.69,0,0,0,.94,1.74A2.09,2.09,0,0,0,251.94,47.65Z"/><path class="cls-3" d="M263.58,45.19a1.41,1.41,0,0,0,.52,1.16,2.34,2.34,0,0,0,1.49.41,5.67,5.67,0,0,0,1-.1,12.31,12.31,0,0,0,1.23-.31v.71a12.54,12.54,0,0,1-1.55,1,6.75,6.75,0,0,1-1.28.56,4,4,0,0,1-1.07.17,4.19,4.19,0,0,1-1.76-.35A2.6,2.6,0,0,1,261,47.41a3.46,3.46,0,0,1-.42-1.79V39.46L259,38.27v-.44l.73-.48.8-.53c.28-.18.55-.37.82-.56l.8-.54.74-.52h.72v10Zm-1.22-6.33V37.35h5.05l-.24,1.51Z"/><polygon class="cls-4" points="45.25 49.81 53.1 41.96 55.06 40 53.1 38.04 45.25 30.19 43.29 28.23 39.37 32.15 41.33 34.11 44.34 37.13 32.46 37.13 29.34 37.13 29.34 42.9 32.46 42.9 44.32 42.9 41.33 45.89 39.37 47.85 43.29 51.77 45.25 49.81"/><path class="cls-3" d="M38.2,227.51a3.49,3.49,0,0,1-2,3.11,4.84,4.84,0,0,1-2.16.45,4.3,4.3,0,0,1-2.3-.59,3.75,3.75,0,0,1-1.46-1.7,6.15,6.15,0,0,1-.51-2.62v-.4a6.09,6.09,0,0,1,.53-2.64,3.93,3.93,0,0,1,1.47-1.69,4.11,4.11,0,0,1,2.23-.6,4.71,4.71,0,0,1,2.23.48,3.54,3.54,0,0,1,1.4,1.31,4.29,4.29,0,0,1,.59,1.86H35.66a1.65,1.65,0,0,0-.38-1.16,1.75,1.75,0,0,0-1.28-.38,1.53,1.53,0,0,0-.91.26,1.62,1.62,0,0,0-.54.88,6.55,6.55,0,0,0-.17,1.66v.42a7.37,7.37,0,0,0,.15,1.67,1.49,1.49,0,0,0,.52.87,1.71,1.71,0,0,0,1,.26,2.26,2.26,0,0,0,.87-.15,1.09,1.09,0,0,0,.54-.47,1.67,1.67,0,0,0,.2-.83Z"/><path class="cls-3" d="M41.55,230.93H39.08v-10.5h2.47Zm-.85-3.88a4.87,4.87,0,0,1,.32-1.89,3,3,0,0,1,.94-1.29,2.21,2.21,0,0,1,1.42-.47,2.67,2.67,0,0,1,1.29.29,2,2,0,0,1,.89.94,4.14,4.14,0,0,1,.31,1.76v4.54H43.4v-4.55a1.28,1.28,0,0,0-.12-.62.68.68,0,0,0-.33-.3,1.64,1.64,0,0,0-.53-.08,1.48,1.48,0,0,0-.61.11.86.86,0,0,0-.35.33,1.52,1.52,0,0,0-.16.52c0,.2,0,.42,0,.67Z"/><path class="cls-3" d="M46.8,227.17a4.35,4.35,0,0,1,.41-1.94,3.08,3.08,0,0,1,1.21-1.34,3.66,3.66,0,0,1,2-.49,3.74,3.74,0,0,1,2,.49,3.08,3.08,0,0,1,1.21,1.34,4.49,4.49,0,0,1,.41,1.94v.13a4.41,4.41,0,0,1-.41,1.93,3.1,3.1,0,0,1-1.21,1.35,4.23,4.23,0,0,1-3.95,0,3.1,3.1,0,0,1-1.21-1.35,4.28,4.28,0,0,1-.41-1.93Zm2.46.13a3.62,3.62,0,0,0,.1.91,1.22,1.22,0,0,0,.33.64,1,1,0,0,0,.71.23,1,1,0,0,0,.7-.23,1.22,1.22,0,0,0,.33-.64,3.62,3.62,0,0,0,.1-.91v-.13a3.59,3.59,0,0,0-.1-.9,1.3,1.3,0,0,0-.33-.65,1,1,0,0,0-.72-.24.93.93,0,0,0-.69.24,1.3,1.3,0,0,0-.33.65,3.59,3.59,0,0,0-.1.9Z"/><path class="cls-3" d="M54.67,227.17a4.49,4.49,0,0,1,.41-1.94,3.14,3.14,0,0,1,1.21-1.34,3.67,3.67,0,0,1,2-.49,3.74,3.74,0,0,1,2,.49,3.11,3.11,0,0,1,1.2,1.34,4.35,4.35,0,0,1,.41,1.94v.13a4.28,4.28,0,0,1-.41,1.93,3.14,3.14,0,0,1-1.2,1.35,3.77,3.77,0,0,1-2,.49,3.82,3.82,0,0,1-2-.49,3.16,3.16,0,0,1-1.21-1.35,4.41,4.41,0,0,1-.41-1.93Zm2.47.13a4.19,4.19,0,0,0,.09.91,1.23,1.23,0,0,0,.34.64,1.18,1.18,0,0,0,1.4,0,1.23,1.23,0,0,0,.34-.64,4.19,4.19,0,0,0,.09-.91v-.13a4.16,4.16,0,0,0-.09-.9,1.31,1.31,0,0,0-.34-.65,1,1,0,0,0-.71-.24.93.93,0,0,0-.69.24,1.23,1.23,0,0,0-.34.65,4.16,4.16,0,0,0-.09.9Z"/><path class="cls-3" d="M66.63,228.82a.35.35,0,0,0-.12-.28,1.15,1.15,0,0,0-.42-.21,8,8,0,0,0-.84-.22,5.76,5.76,0,0,1-1.31-.44,2.69,2.69,0,0,1-.95-.76,1.82,1.82,0,0,1-.35-1.12,2.1,2.1,0,0,1,.36-1.18,2.58,2.58,0,0,1,1.06-.88,3.86,3.86,0,0,1,1.67-.33,4.61,4.61,0,0,1,1.75.3,2.66,2.66,0,0,1,1.14.86,2.08,2.08,0,0,1,.4,1.28H66.56a.78.78,0,0,0-.19-.59.92.92,0,0,0-.65-.19,1.1,1.1,0,0,0-.36.07.65.65,0,0,0-.28.2.52.52,0,0,0-.11.33.39.39,0,0,0,.13.3.91.91,0,0,0,.38.23,2.83,2.83,0,0,0,.64.16,7.66,7.66,0,0,1,1.39.37,2.57,2.57,0,0,1,1.08.72,2.09,2.09,0,0,1,0,2.49,2.68,2.68,0,0,1-1.14.83,4.45,4.45,0,0,1-1.75.31,3.82,3.82,0,0,1-1.81-.39,2.85,2.85,0,0,1-1.12-1,2.22,2.22,0,0,1-.38-1.19h2.3a.84.84,0,0,0,.14.49.79.79,0,0,0,.38.29,1.34,1.34,0,0,0,.56.1,1.29,1.29,0,0,0,.47-.07.63.63,0,0,0,.28-.19A.54.54,0,0,0,66.63,228.82Z"/><path class="cls-3" d="M73.67,231.07a4.18,4.18,0,0,1-2.1-.5,3.46,3.46,0,0,1-1.31-1.32,3.58,3.58,0,0,1-.45-1.77v-.25a4.69,4.69,0,0,1,.39-1.93,3.3,3.3,0,0,1,1.2-1.39,3.66,3.66,0,0,1,2-.51,3.54,3.54,0,0,1,1.83.44,2.92,2.92,0,0,1,1.17,1.26,4.32,4.32,0,0,1,.4,2v1H70.73V226.5h3.68v-.2a1.11,1.11,0,0,0-.11-.52.69.69,0,0,0-.35-.3,1.34,1.34,0,0,0-.56-.1.91.91,0,0,0-.72.27,1.31,1.31,0,0,0-.32.68,4.31,4.31,0,0,0-.08.9v.25a1.91,1.91,0,0,0,.18.86,1.3,1.3,0,0,0,.54.55,1.8,1.8,0,0,0,.84.19,3,3,0,0,0,.91-.16,1.67,1.67,0,0,0,.77-.55l1.1,1.41a2.92,2.92,0,0,1-1.1.88A3.88,3.88,0,0,1,73.67,231.07Z"/><path class="cls-3" d="M85.19,225.31H80.65v-1.78h4.54ZM84,221.69v6.69a1.15,1.15,0,0,0,.06.41.41.41,0,0,0,.22.21,1.36,1.36,0,0,0,.45.06h.32l.24,0v1.83a3.55,3.55,0,0,1-.64.17,5,5,0,0,1-.7,0,3,3,0,0,1-1.3-.25,1.68,1.68,0,0,1-.82-.76,2.69,2.69,0,0,1-.28-1.32v-7.05Z"/><path class="cls-3" d="M88.43,230.93H86v-10.5h2.47Zm-.86-3.88a5.06,5.06,0,0,1,.33-1.89,3,3,0,0,1,.93-1.29,2.23,2.23,0,0,1,1.42-.47,2.74,2.74,0,0,1,1.3.29,2,2,0,0,1,.88.94,4.13,4.13,0,0,1,.32,1.76v4.54H90.27v-4.55a1.43,1.43,0,0,0-.11-.62.66.66,0,0,0-.34-.3,1.6,1.6,0,0,0-.53-.08,1.51,1.51,0,0,0-.61.11.86.86,0,0,0-.35.33,1.32,1.32,0,0,0-.15.52,4.55,4.55,0,0,0,0,.67Z"/><path class="cls-3" d="M97.6,231.07a4.18,4.18,0,0,1-2.1-.5,3.46,3.46,0,0,1-1.31-1.32,3.58,3.58,0,0,1-.45-1.77v-.25a4.69,4.69,0,0,1,.39-1.93,3.3,3.3,0,0,1,1.2-1.39,3.66,3.66,0,0,1,2-.51,3.49,3.49,0,0,1,1.83.44,2.86,2.86,0,0,1,1.17,1.26,4.32,4.32,0,0,1,.41,2v1H94.66V226.5h3.68v-.2a1,1,0,0,0-.11-.52.65.65,0,0,0-.35-.3,1.34,1.34,0,0,0-.56-.1.91.91,0,0,0-.72.27,1.39,1.39,0,0,0-.32.68,5.11,5.11,0,0,0-.08.9v.25a1.91,1.91,0,0,0,.18.86,1.43,1.43,0,0,0,.54.55,1.86,1.86,0,0,0,.84.19,2.86,2.86,0,0,0,.91-.16,1.67,1.67,0,0,0,.77-.55l1.11,1.41a3,3,0,0,1-1.11.88A3.88,3.88,0,0,1,97.6,231.07Z"/><path class="cls-3" d="M109.19,227.72h-1a.86.86,0,0,0-.78.32,1.17,1.17,0,0,0-.21.66.52.52,0,0,0,.19.41.73.73,0,0,0,.47.15,1.32,1.32,0,0,0,.59-.12,1.27,1.27,0,0,0,.37-.3.46.46,0,0,0,.1-.3l.53,1-.31.53a2.32,2.32,0,0,1-.41.48,2,2,0,0,1-.6.35,2.48,2.48,0,0,1-.87.14,2.93,2.93,0,0,1-1.25-.28,2.39,2.39,0,0,1-.93-.79,2,2,0,0,1-.34-1.18,2.15,2.15,0,0,1,.84-1.79,4.33,4.33,0,0,1,2.63-.65h.92Zm-.3-1.65a1.07,1.07,0,0,0-.18-.65.68.68,0,0,0-.6-.25,1,1,0,0,0-.37.07.47.47,0,0,0-.24.22.92.92,0,0,0-.08.4H105a2.1,2.1,0,0,1,.41-1.27,2.62,2.62,0,0,1,1.14-.87,4.7,4.7,0,0,1,3.33,0,2.47,2.47,0,0,1,1.11.9,2.61,2.61,0,0,1,.41,1.49V229a5.26,5.26,0,0,0,.09,1.16,2.37,2.37,0,0,0,.23.65v.12h-2.46A3.25,3.25,0,0,1,109,230a6.55,6.55,0,0,1-.08-1.1Z"/><path class="cls-3" d="M115,230.93h-2.47v-7.4h2.31l.16,1.58Zm-.86-3.88a5.27,5.27,0,0,1,.32-1.89,2.75,2.75,0,0,1,1-1.29,2.55,2.55,0,0,1,1.58-.47,2.1,2.1,0,0,1,1.55.6,2.8,2.8,0,0,1,.59,2v4.94h-2.47v-4.59a1.68,1.68,0,0,0-.09-.63.51.51,0,0,0-.27-.27,1.37,1.37,0,0,0-.44-.06,1.14,1.14,0,0,0-.49.11,1.16,1.16,0,0,0-.37.33,1.55,1.55,0,0,0-.23.52,2.32,2.32,0,0,0-.08.67Zm4,.09a5.52,5.52,0,0,1,.31-1.94,2.74,2.74,0,0,1,.93-1.32,2.5,2.5,0,0,1,1.56-.48,2.59,2.59,0,0,1,1.2.27,1.87,1.87,0,0,1,.81.91,4.12,4.12,0,0,1,.3,1.74v4.61h-2.47v-4.61a1.57,1.57,0,0,0-.1-.61.46.46,0,0,0-.27-.26,1.11,1.11,0,0,0-.43-.07,1,1,0,0,0-.52.13,1,1,0,0,0-.36.36,1.77,1.77,0,0,0-.21.56,3.26,3.26,0,0,0-.08.73Z"/><path class="cls-3" d="M124.29,227.17a4.49,4.49,0,0,1,.41-1.94,3.2,3.2,0,0,1,1.21-1.34,3.69,3.69,0,0,1,2-.49,3.74,3.74,0,0,1,2,.49,3.08,3.08,0,0,1,1.21,1.34,4.49,4.49,0,0,1,.41,1.94v.13a4.41,4.41,0,0,1-.41,1.93,3.1,3.1,0,0,1-1.21,1.35,4.23,4.23,0,0,1-4,0,3.19,3.19,0,0,1-1.22-1.35,4.41,4.41,0,0,1-.41-1.93Zm2.47.13a4.19,4.19,0,0,0,.09.91,1.31,1.31,0,0,0,.34.64,1,1,0,0,0,.71.23.93.93,0,0,0,.69-.23,1.17,1.17,0,0,0,.34-.64,3.62,3.62,0,0,0,.1-.91v-.13a3.59,3.59,0,0,0-.1-.9,1.23,1.23,0,0,0-.34-.65,1,1,0,0,0-.71-.24.93.93,0,0,0-.69.24,1.39,1.39,0,0,0-.34.65,4.16,4.16,0,0,0-.09.9Z"/><path class="cls-3" d="M137.56,227.58a4.76,4.76,0,0,1-.31,1.79,2.79,2.79,0,0,1-.92,1.24,2.29,2.29,0,0,1-1.45.46,2.55,2.55,0,0,1-1.79-.64,2.76,2.76,0,0,1-.69-2.1v-4.8h2.46v4.81a.74.74,0,0,0,.1.4.59.59,0,0,0,.28.26,1,1,0,0,0,.46.08,1.26,1.26,0,0,0,.75-.19,1,1,0,0,0,.38-.53,2.27,2.27,0,0,0,.11-.77Zm-.85-4.05h2.47v7.4h-2.31l-.16-1.82Z"/><path class="cls-3" d="M142.78,230.93h-2.46v-7.4h2.3l.16,1.58Zm-.86-3.88a5.13,5.13,0,0,1,.35-2,2.73,2.73,0,0,1,1-1.24,2.66,2.66,0,0,1,1.5-.42,2.59,2.59,0,0,1,1.2.27,1.82,1.82,0,0,1,.81.91,4.12,4.12,0,0,1,.3,1.74v4.61h-2.47v-4.62a1.33,1.33,0,0,0-.11-.6.57.57,0,0,0-.33-.26,1.66,1.66,0,0,0-.53-.07,1.28,1.28,0,0,0-.55.11,1,1,0,0,0-.36.33,1.52,1.52,0,0,0-.19.52,3.4,3.4,0,0,0-.06.67Z"/><path class="cls-3" d="M152.3,225.31h-4.54v-1.78h4.54Zm-1.18-3.62v6.69a1.15,1.15,0,0,0,.06.41.41.41,0,0,0,.22.21,1.33,1.33,0,0,0,.44.06h.32a.88.88,0,0,0,.24,0v1.83a3.55,3.55,0,0,1-.64.17,5,5,0,0,1-.7,0,3.06,3.06,0,0,1-1.31-.25,1.66,1.66,0,0,1-.81-.76,2.69,2.69,0,0,1-.28-1.32v-7.05Z"/><path class="cls-3" d="M160,228.5l.25,2.75-1.64-.09-2.6-7.63h2.64Zm.81-5h2.64L160.46,232c-.07.18-.15.39-.26.61a3.07,3.07,0,0,1-.44.62,2.46,2.46,0,0,1-.71.48,2.82,2.82,0,0,1-1.08.19h-.37a1.28,1.28,0,0,1-.27,0l-.35-.09v-1.83h.28a1.54,1.54,0,0,0,.77-.14.68.68,0,0,0,.31-.36l.55-1.41Z"/><path class="cls-3" d="M163.66,227.17a4.49,4.49,0,0,1,.41-1.94,3.2,3.2,0,0,1,1.21-1.34,3.69,3.69,0,0,1,2-.49,3.74,3.74,0,0,1,2,.49,3.14,3.14,0,0,1,1.21,1.34,4.49,4.49,0,0,1,.4,1.94v.13a4.41,4.41,0,0,1-.4,1.93,3.16,3.16,0,0,1-1.21,1.35,4.23,4.23,0,0,1-4,0,3.19,3.19,0,0,1-1.22-1.35,4.41,4.41,0,0,1-.41-1.93Zm2.47.13a4.19,4.19,0,0,0,.09.91,1.31,1.31,0,0,0,.34.64,1,1,0,0,0,.71.23.93.93,0,0,0,.69-.23,1.17,1.17,0,0,0,.34-.64,4.19,4.19,0,0,0,.09-.91v-.13a4.16,4.16,0,0,0-.09-.9,1.23,1.23,0,0,0-.34-.65,1,1,0,0,0-.71-.24.93.93,0,0,0-.69.24,1.39,1.39,0,0,0-.34.65,4.16,4.16,0,0,0-.09.9Z"/><path class="cls-3" d="M176.93,227.58a4.76,4.76,0,0,1-.31,1.79,2.79,2.79,0,0,1-.92,1.24,2.31,2.31,0,0,1-1.45.46,2.55,2.55,0,0,1-1.79-.64,2.76,2.76,0,0,1-.69-2.1v-4.8h2.46v4.81a.84.84,0,0,0,.09.4.64.64,0,0,0,.28.26,1.1,1.1,0,0,0,.47.08,1.26,1.26,0,0,0,.75-.19,1,1,0,0,0,.38-.53,2.55,2.55,0,0,0,.11-.77Zm-.85-4.05h2.46v7.4h-2.3l-.16-1.82Z"/><path class="cls-3" d="M185.89,228.52l.05,2.41h-1.48l-1.72-7.4h2.36Zm.93-5h1.53l-.51,2.88-1.31,4.52h-1.22l.18-2.35Zm3.07,5.05.17,2.35h-1.23l-1.28-4.5-.5-2.9h1.48Zm.37-5.05h2.35l-1.7,7.4h-1.49l0-2.54Z"/><path class="cls-3" d="M197.45,227.72h-.95a.88.88,0,0,0-.79.32,1.17,1.17,0,0,0-.21.66.52.52,0,0,0,.19.41.73.73,0,0,0,.47.15,1.32,1.32,0,0,0,.59-.12,1.15,1.15,0,0,0,.37-.3.46.46,0,0,0,.1-.3l.53,1c-.09.18-.2.35-.31.53a2.32,2.32,0,0,1-.41.48,1.86,1.86,0,0,1-.6.35,2.46,2.46,0,0,1-.86.14,3,3,0,0,1-1.26-.28,2.36,2.36,0,0,1-.92-.79,2,2,0,0,1-.35-1.18,2.15,2.15,0,0,1,.84-1.79,4.34,4.34,0,0,1,2.64-.65h.91Zm-.31-1.65a1.07,1.07,0,0,0-.18-.65.67.67,0,0,0-.59-.25,1,1,0,0,0-.38.07.51.51,0,0,0-.24.22.93.93,0,0,0-.07.4h-2.47a2.1,2.1,0,0,1,.41-1.27,2.67,2.67,0,0,1,1.14-.87,4.7,4.7,0,0,1,3.33,0,2.47,2.47,0,0,1,1.11.9,2.54,2.54,0,0,1,.41,1.49V229a5.26,5.26,0,0,0,.09,1.16,2.75,2.75,0,0,0,.23.65v.12h-2.46a3.65,3.65,0,0,1-.25-.89,7.8,7.8,0,0,1-.08-1.1Z"/><path class="cls-3" d="M203.22,230.93h-2.47v-7.4h2.31l.16,1.58Zm-.86-3.88a5,5,0,0,1,.35-2,2.77,2.77,0,0,1,1-1.24,2.69,2.69,0,0,1,1.5-.42,2.53,2.53,0,0,1,1.2.27,1.89,1.89,0,0,1,.82.91,4.12,4.12,0,0,1,.3,1.74v4.61h-2.48v-4.62a1.21,1.21,0,0,0-.11-.6.51.51,0,0,0-.33-.26,1.62,1.62,0,0,0-.53-.07,1.31,1.31,0,0,0-.55.11,1,1,0,0,0-.35.33,1.52,1.52,0,0,0-.19.52,3.4,3.4,0,0,0-.06.67Z"/><path class="cls-3" d="M212.74,225.31h-4.55v-1.78h4.55Zm-1.18-3.62v6.69a1.15,1.15,0,0,0,.06.41.38.38,0,0,0,.22.21,1.29,1.29,0,0,0,.44.06h.32a.88.88,0,0,0,.24,0v1.83a3.68,3.68,0,0,1-.63.17,5.16,5.16,0,0,1-.71,0,3,3,0,0,1-1.3-.25,1.68,1.68,0,0,1-.82-.76,2.81,2.81,0,0,1-.28-1.32v-7.05Z"/><path class="cls-3" d="M221.08,225.31h-4.55v-1.78h4.55Zm-1.18-3.62v6.69a1.15,1.15,0,0,0,.06.41.38.38,0,0,0,.22.21,1.29,1.29,0,0,0,.44.06h.32a.88.88,0,0,0,.24,0v1.83a3.68,3.68,0,0,1-.63.17,5.16,5.16,0,0,1-.71,0,3,3,0,0,1-1.3-.25,1.68,1.68,0,0,1-.82-.76,2.81,2.81,0,0,1-.28-1.32v-7.05Z"/><path class="cls-3" d="M221.5,227.17a4.49,4.49,0,0,1,.41-1.94,3.2,3.2,0,0,1,1.21-1.34,3.69,3.69,0,0,1,2-.49,3.74,3.74,0,0,1,2,.49,3.14,3.14,0,0,1,1.21,1.34,4.49,4.49,0,0,1,.4,1.94v.13a4.41,4.41,0,0,1-.4,1.93,3.16,3.16,0,0,1-1.21,1.35,4.23,4.23,0,0,1-4,0,3.19,3.19,0,0,1-1.22-1.35,4.41,4.41,0,0,1-.41-1.93Zm2.47.13a4.19,4.19,0,0,0,.09.91,1.23,1.23,0,0,0,.34.64,1,1,0,0,0,.7.23.94.94,0,0,0,.7-.23,1.17,1.17,0,0,0,.34-.64,4.19,4.19,0,0,0,.09-.91v-.13a4.16,4.16,0,0,0-.09-.9,1.23,1.23,0,0,0-.34-.65,1,1,0,0,0-.71-.24.93.93,0,0,0-.69.24,1.31,1.31,0,0,0-.34.65,4.16,4.16,0,0,0-.09.9Z"/><path class="cls-3" d="M233.14,221.66a1.16,1.16,0,0,1,.37-.89,1.39,1.39,0,0,1,1-.34,1.38,1.38,0,0,1,1,.34,1.26,1.26,0,0,1,0,1.78,1.38,1.38,0,0,1-1,.34,1.39,1.39,0,0,1-1-.34A1.16,1.16,0,0,1,233.14,221.66Zm2.6,9.27h-2.47v-7.4h2.47Z"/><path class="cls-3" d="M239.49,230.93H237v-7.4h2.31l.15,1.58Zm-.85-3.88a4.79,4.79,0,0,1,.35-2,2.77,2.77,0,0,1,1-1.24,2.69,2.69,0,0,1,1.5-.42,2.53,2.53,0,0,1,1.2.27,1.89,1.89,0,0,1,.82.91,4.12,4.12,0,0,1,.3,1.74v4.61h-2.48v-4.62a1.33,1.33,0,0,0-.11-.6.54.54,0,0,0-.33-.26,1.62,1.62,0,0,0-.53-.07,1.28,1.28,0,0,0-.55.11.86.86,0,0,0-.35.33,1.34,1.34,0,0,0-.19.52,3.4,3.4,0,0,0-.06.67Z"/><path class="cls-3" d="M248.33,229.2l0,1.73h-1.53l-2.38-7.4H247Zm.74-5.67h2.59l-2.38,7.4h-1.53l0-1.72Z"/><path class="cls-3" d="M255.94,231.07a4.12,4.12,0,0,1-2.09-.5,3.42,3.42,0,0,1-1.32-1.32,3.58,3.58,0,0,1-.45-1.77v-.25a4.54,4.54,0,0,1,.4-1.93,3.21,3.21,0,0,1,1.19-1.39,3.66,3.66,0,0,1,2-.51,3.49,3.49,0,0,1,1.83.44,2.86,2.86,0,0,1,1.17,1.26,4.32,4.32,0,0,1,.41,2v1H253V226.5h3.68v-.2a1,1,0,0,0-.11-.52.65.65,0,0,0-.35-.3,1.34,1.34,0,0,0-.56-.1.91.91,0,0,0-.72.27,1.39,1.39,0,0,0-.32.68,5.11,5.11,0,0,0-.08.9v.25a1.91,1.91,0,0,0,.18.86,1.43,1.43,0,0,0,.54.55,1.87,1.87,0,0,0,.85.19,2.85,2.85,0,0,0,.9-.16,1.67,1.67,0,0,0,.77-.55l1.11,1.41a3,3,0,0,1-1.11.88A3.85,3.85,0,0,1,255.94,231.07Z"/><path class="cls-3" d="M263.77,228.82a.35.35,0,0,0-.12-.28,1.15,1.15,0,0,0-.42-.21,7.65,7.65,0,0,0-.85-.22,5.68,5.68,0,0,1-1.3-.44,2.6,2.6,0,0,1-.95-.76,1.76,1.76,0,0,1-.35-1.12,2.1,2.1,0,0,1,.36-1.18,2.49,2.49,0,0,1,1.05-.88,3.87,3.87,0,0,1,1.68-.33,4.68,4.68,0,0,1,1.75.3,2.57,2.57,0,0,1,1.13.86,2.08,2.08,0,0,1,.4,1.28h-2.46a.82.82,0,0,0-.18-.59.92.92,0,0,0-.65-.19,1.16,1.16,0,0,0-.37.07.72.72,0,0,0-.28.2.52.52,0,0,0-.1.33.42.42,0,0,0,.12.3,1,1,0,0,0,.38.23,2.94,2.94,0,0,0,.65.16,7.89,7.89,0,0,1,1.39.37,2.48,2.48,0,0,1,1.07.72,1.93,1.93,0,0,1,.42,1.31,1.87,1.87,0,0,1-.4,1.18,2.68,2.68,0,0,1-1.14.83,4.4,4.4,0,0,1-1.74.31,3.86,3.86,0,0,1-1.82-.39,3,3,0,0,1-1.12-1,2.22,2.22,0,0,1-.38-1.19h2.3a.92.92,0,0,0,.15.49.77.77,0,0,0,.37.29,1.42,1.42,0,0,0,.57.1,1.24,1.24,0,0,0,.46-.07.54.54,0,0,0,.28-.19A.48.48,0,0,0,263.77,228.82Z"/><path class="cls-3" d="M271.16,225.31h-4.55v-1.78h4.55ZM270,221.69v6.69a1.15,1.15,0,0,0,.06.41.38.38,0,0,0,.22.21,1.29,1.29,0,0,0,.44.06H271a.88.88,0,0,0,.24,0v1.83a3.68,3.68,0,0,1-.63.17,5.16,5.16,0,0,1-.71,0,3,3,0,0,1-1.3-.25,1.68,1.68,0,0,1-.82-.76,2.81,2.81,0,0,1-.28-1.32v-7.05Z"/><path class="cls-3" d="M38.2,91.41a3.51,3.51,0,0,1-.56,1.86,3.39,3.39,0,0,1-1.44,1.25A4.84,4.84,0,0,1,34,95a4.21,4.21,0,0,1-2.3-.6,3.67,3.67,0,0,1-1.46-1.69,6.18,6.18,0,0,1-.51-2.62v-.41A6.08,6.08,0,0,1,30.3,87a3.93,3.93,0,0,1,1.47-1.69,4.11,4.11,0,0,1,2.23-.6,4.71,4.71,0,0,1,2.23.48,3.47,3.47,0,0,1,1.4,1.31,4.29,4.29,0,0,1,.59,1.86H35.66a1.63,1.63,0,0,0-.38-1.16A1.75,1.75,0,0,0,34,86.85a1.53,1.53,0,0,0-.91.26,1.63,1.63,0,0,0-.54.87,6.69,6.69,0,0,0-.17,1.67v.42a7.37,7.37,0,0,0,.15,1.67,1.49,1.49,0,0,0,.52.87,1.71,1.71,0,0,0,1,.26,2.26,2.26,0,0,0,.87-.15,1.09,1.09,0,0,0,.54-.47,1.71,1.71,0,0,0,.2-.84Z"/><path class="cls-3" d="M41.55,94.84H39.08V84.34h2.47ZM40.7,91A4.87,4.87,0,0,1,41,89.07,3,3,0,0,1,42,87.78a2.21,2.21,0,0,1,1.42-.47,2.67,2.67,0,0,1,1.29.29,2,2,0,0,1,.89.94,4.14,4.14,0,0,1,.31,1.76v4.54H43.4V90.29a1.28,1.28,0,0,0-.12-.62.6.6,0,0,0-.33-.3,1.41,1.41,0,0,0-.53-.08,1.33,1.33,0,0,0-.61.11.8.8,0,0,0-.35.33,1.46,1.46,0,0,0-.16.51c0,.2,0,.43,0,.67Z"/><path class="cls-3" d="M46.8,91.08a4.32,4.32,0,0,1,.41-1.94,3.08,3.08,0,0,1,1.21-1.34,3.66,3.66,0,0,1,2-.49,3.74,3.74,0,0,1,2,.49,3.08,3.08,0,0,1,1.21,1.34A4.46,4.46,0,0,1,54,91.08v.13a4.45,4.45,0,0,1-.41,1.93,3.1,3.1,0,0,1-1.21,1.35,4.23,4.23,0,0,1-3.95,0,3.1,3.1,0,0,1-1.21-1.35,4.31,4.31,0,0,1-.41-1.93Zm2.46.13a3.62,3.62,0,0,0,.1.91,1.26,1.26,0,0,0,.33.64,1,1,0,0,0,.71.23,1,1,0,0,0,.7-.23,1.26,1.26,0,0,0,.33-.64,3.62,3.62,0,0,0,.1-.91v-.13a3.59,3.59,0,0,0-.1-.9,1.3,1.3,0,0,0-.33-.65,1,1,0,0,0-.72-.24.93.93,0,0,0-.69.24,1.3,1.3,0,0,0-.33.65,3.59,3.59,0,0,0-.1.9Z"/><path class="cls-3" d="M54.67,91.08a4.46,4.46,0,0,1,.41-1.94,3.14,3.14,0,0,1,1.21-1.34,3.67,3.67,0,0,1,2-.49,3.74,3.74,0,0,1,2,.49,3.11,3.11,0,0,1,1.2,1.34,4.32,4.32,0,0,1,.41,1.94v.13a4.31,4.31,0,0,1-.41,1.93,3.14,3.14,0,0,1-1.2,1.35,3.77,3.77,0,0,1-2,.49,3.82,3.82,0,0,1-2-.49,3.16,3.16,0,0,1-1.21-1.35,4.45,4.45,0,0,1-.41-1.93Zm2.47.13a4.19,4.19,0,0,0,.09.91,1.27,1.27,0,0,0,.34.64,1.18,1.18,0,0,0,1.4,0,1.27,1.27,0,0,0,.34-.64,4.19,4.19,0,0,0,.09-.91v-.13a4.16,4.16,0,0,0-.09-.9,1.31,1.31,0,0,0-.34-.65,1,1,0,0,0-.71-.24.93.93,0,0,0-.69.24,1.23,1.23,0,0,0-.34.65,4.16,4.16,0,0,0-.09.9Z"/><path class="cls-3" d="M66.63,92.73a.35.35,0,0,0-.12-.28,1,1,0,0,0-.42-.21,8,8,0,0,0-.84-.22,5.32,5.32,0,0,1-1.31-.45,2.56,2.56,0,0,1-.95-.75,1.82,1.82,0,0,1-.35-1.12A2.08,2.08,0,0,1,63,88.52a2.58,2.58,0,0,1,1.06-.88,3.86,3.86,0,0,1,1.67-.33,4.61,4.61,0,0,1,1.75.3,2.66,2.66,0,0,1,1.14.86,2.08,2.08,0,0,1,.4,1.28H66.56a.78.78,0,0,0-.19-.59.87.87,0,0,0-.65-.19,1.1,1.1,0,0,0-.36.07.65.65,0,0,0-.28.2.52.52,0,0,0-.11.33.41.41,0,0,0,.13.3.91.91,0,0,0,.38.23,3.5,3.5,0,0,0,.64.16,6.93,6.93,0,0,1,1.39.37,2.57,2.57,0,0,1,1.08.72,2.09,2.09,0,0,1,0,2.49,2.68,2.68,0,0,1-1.14.83,4.64,4.64,0,0,1-1.75.31,3.82,3.82,0,0,1-1.81-.39,2.8,2.8,0,0,1-1.12-1,2.19,2.19,0,0,1-.38-1.18h2.3a.86.86,0,0,0,.14.49.79.79,0,0,0,.38.29,1.34,1.34,0,0,0,.56.1,1.29,1.29,0,0,0,.47-.07.58.58,0,0,0,.28-.2A.51.51,0,0,0,66.63,92.73Z"/><path class="cls-3" d="M73.67,95a4.18,4.18,0,0,1-2.1-.5,3.53,3.53,0,0,1-1.31-1.32,3.58,3.58,0,0,1-.45-1.77v-.25a4.65,4.65,0,0,1,.39-1.93,3.3,3.3,0,0,1,1.2-1.39,3.66,3.66,0,0,1,2-.51,3.54,3.54,0,0,1,1.83.44A3,3,0,0,1,76.41,89a4.4,4.4,0,0,1,.4,2v1H70.73V90.41h3.68v-.2a1.19,1.19,0,0,0-.11-.53.79.79,0,0,0-.35-.3,1.53,1.53,0,0,0-.56-.09,1,1,0,0,0-.72.26,1.38,1.38,0,0,0-.32.69,4.31,4.31,0,0,0-.08.9v.25a1.87,1.87,0,0,0,.18.85,1.2,1.2,0,0,0,.54.55,1.68,1.68,0,0,0,.84.2,3,3,0,0,0,.91-.16,1.69,1.69,0,0,0,.77-.56l1.1,1.42a3,3,0,0,1-1.1.88A3.88,3.88,0,0,1,73.67,95Z"/><path class="cls-3" d="M81.17,85.57a1.14,1.14,0,0,1,.37-.89,1.39,1.39,0,0,1,1-.34,1.38,1.38,0,0,1,1,.34,1.24,1.24,0,0,1,0,1.77,1.38,1.38,0,0,1-1,.35,1.4,1.4,0,0,1-1-.35A1.13,1.13,0,0,1,81.17,85.57Zm2.6,9.27H81.3v-7.4h2.47Z"/><path class="cls-3" d="M87.52,94.84H85.06v-7.4h2.31L87.52,89ZM86.67,91A4.76,4.76,0,0,1,87,89a2.77,2.77,0,0,1,1-1.24,2.69,2.69,0,0,1,1.5-.42,2.53,2.53,0,0,1,1.2.27,1.84,1.84,0,0,1,.82.91,4.1,4.1,0,0,1,.3,1.73v4.62H89.36V90.22a1.19,1.19,0,0,0-.11-.6.54.54,0,0,0-.33-.26,1.62,1.62,0,0,0-.53-.07,1.15,1.15,0,0,0-.55.11.85.85,0,0,0-.35.33,1.29,1.29,0,0,0-.19.51,3.48,3.48,0,0,0-.06.67Z"/><path class="cls-3" d="M96.36,93.11l0,1.73H94.8l-2.38-7.4H95Zm.74-5.67h2.59l-2.38,7.4H95.78l0-1.72Z"/><path class="cls-3" d="M104,95a4.12,4.12,0,0,1-2.09-.5,3.48,3.48,0,0,1-1.32-1.32,3.58,3.58,0,0,1-.45-1.77v-.25a4.5,4.5,0,0,1,.4-1.93,3.21,3.21,0,0,1,1.19-1.39,3.7,3.7,0,0,1,2-.51,3.49,3.49,0,0,1,1.83.44A2.89,2.89,0,0,1,106.71,89a4.39,4.39,0,0,1,.41,2v1H101V90.41h3.68v-.2a1.07,1.07,0,0,0-.11-.53.74.74,0,0,0-.35-.3,1.53,1.53,0,0,0-.56-.09,1,1,0,0,0-.72.26,1.47,1.47,0,0,0-.32.69,5.11,5.11,0,0,0-.08.9v.25a1.87,1.87,0,0,0,.18.85,1.3,1.3,0,0,0,.54.55,1.75,1.75,0,0,0,.85.2,2.85,2.85,0,0,0,.9-.16,1.69,1.69,0,0,0,.77-.56l1.11,1.42a3.15,3.15,0,0,1-1.11.88A3.85,3.85,0,0,1,104,95Z"/><path class="cls-3" d="M111.8,92.73a.35.35,0,0,0-.12-.28,1,1,0,0,0-.42-.21,7.65,7.65,0,0,0-.85-.22,5.25,5.25,0,0,1-1.3-.45,2.48,2.48,0,0,1-1-.75,1.76,1.76,0,0,1-.35-1.12,2.08,2.08,0,0,1,.36-1.18,2.49,2.49,0,0,1,1-.88,3.87,3.87,0,0,1,1.68-.33,4.68,4.68,0,0,1,1.75.3,2.57,2.57,0,0,1,1.13.86,2.08,2.08,0,0,1,.4,1.28h-2.46a.82.82,0,0,0-.18-.59.87.87,0,0,0-.65-.19,1.16,1.16,0,0,0-.37.07.72.72,0,0,0-.28.2.52.52,0,0,0-.1.33.44.44,0,0,0,.12.3,1,1,0,0,0,.38.23,3.63,3.63,0,0,0,.65.16,7.11,7.11,0,0,1,1.39.37,2.48,2.48,0,0,1,1.07.72,1.93,1.93,0,0,1,.42,1.31,1.87,1.87,0,0,1-.4,1.18,2.68,2.68,0,0,1-1.14.83,4.58,4.58,0,0,1-1.74.31,3.86,3.86,0,0,1-1.82-.39,2.94,2.94,0,0,1-1.12-1,2.19,2.19,0,0,1-.38-1.18h2.3a1,1,0,0,0,.15.49.77.77,0,0,0,.37.29,1.42,1.42,0,0,0,.57.1,1.24,1.24,0,0,0,.46-.07.5.5,0,0,0,.28-.2A.45.45,0,0,0,111.8,92.73Z"/><path class="cls-3" d="M119.19,89.22h-4.55V87.44h4.55ZM118,85.6v6.69a1.15,1.15,0,0,0,.06.41.37.37,0,0,0,.22.2,1.26,1.26,0,0,0,.44.07h.32l.24,0v1.83a2.91,2.91,0,0,1-.63.16,3.92,3.92,0,0,1-.71.06,3.17,3.17,0,0,1-1.3-.25,1.62,1.62,0,0,1-.81-.76,2.7,2.7,0,0,1-.29-1.33v-7Z"/><path class="cls-3" d="M122.5,94.84H120v-7.4h2.31L122.5,89ZM121.65,91a5.07,5.07,0,0,1,.31-1.89,2.89,2.89,0,0,1,1-1.29,2.57,2.57,0,0,1,1.58-.47,2.07,2.07,0,0,1,1.55.6,2.75,2.75,0,0,1,.6,2v4.94h-2.47V90.25a1.68,1.68,0,0,0-.09-.63.59.59,0,0,0-.27-.27,1.42,1.42,0,0,0-.44-.06,1,1,0,0,0-.49.11,1.08,1.08,0,0,0-.38.33,1.5,1.5,0,0,0-.23.51,2.8,2.8,0,0,0-.08.67Zm4,.09a5.53,5.53,0,0,1,.3-1.94,2.91,2.91,0,0,1,.93-1.33,2.5,2.5,0,0,1,1.57-.47,2.67,2.67,0,0,1,1.19.26,1.93,1.93,0,0,1,.82.91,4.19,4.19,0,0,1,.3,1.74v4.62h-2.48V90.22a1.54,1.54,0,0,0-.09-.6.52.52,0,0,0-.27-.26,1.11,1.11,0,0,0-.43-.07,1.05,1.05,0,0,0-.52.12,1,1,0,0,0-.36.37,1.68,1.68,0,0,0-.22.56,3.26,3.26,0,0,0-.07.72Z"/><path class="cls-3" d="M135.69,95a4.18,4.18,0,0,1-2.1-.5,3.53,3.53,0,0,1-1.31-1.32,3.58,3.58,0,0,1-.45-1.77v-.25a4.65,4.65,0,0,1,.39-1.93,3.3,3.3,0,0,1,1.2-1.39,3.66,3.66,0,0,1,2-.51,3.49,3.49,0,0,1,1.83.44A2.89,2.89,0,0,1,138.43,89a4.4,4.4,0,0,1,.4,2v1h-6.08V90.41h3.68v-.2a1.07,1.07,0,0,0-.11-.53.74.74,0,0,0-.35-.3,1.53,1.53,0,0,0-.56-.09,1,1,0,0,0-.72.26,1.47,1.47,0,0,0-.32.69,5.11,5.11,0,0,0-.08.9v.25a1.87,1.87,0,0,0,.18.85,1.3,1.3,0,0,0,.54.55,1.74,1.74,0,0,0,.84.2,2.86,2.86,0,0,0,.91-.16,1.69,1.69,0,0,0,.77-.56l1.11,1.42a3.15,3.15,0,0,1-1.11.88A3.88,3.88,0,0,1,135.69,95Z"/><path class="cls-3" d="M142.12,94.84h-2.46v-7.4H142l.16,1.58ZM141.26,91a4.92,4.92,0,0,1,.35-2,2.77,2.77,0,0,1,1-1.24,2.69,2.69,0,0,1,1.5-.42,2.6,2.6,0,0,1,1.21.27,1.87,1.87,0,0,1,.81.91,4.1,4.1,0,0,1,.3,1.73v4.62H144V90.22a1.19,1.19,0,0,0-.11-.6.51.51,0,0,0-.33-.26,1.62,1.62,0,0,0-.53-.07,1.18,1.18,0,0,0-.55.11.92.92,0,0,0-.35.33,1.46,1.46,0,0,0-.19.51,3.48,3.48,0,0,0-.06.67Z"/><path class="cls-3" d="M151.64,89.22h-4.55V87.44h4.55Zm-1.18-3.62v6.69a1.15,1.15,0,0,0,.06.41.37.37,0,0,0,.22.2,1.26,1.26,0,0,0,.44.07h.32l.24,0v1.83a2.91,2.91,0,0,1-.63.16,3.92,3.92,0,0,1-.71.06,3.17,3.17,0,0,1-1.3-.25,1.62,1.62,0,0,1-.81-.76,2.71,2.71,0,0,1-.28-1.33v-7Z"/><path class="cls-3" d="M41.17,261.33l1.67-13.92h16v5.39H48.3l-.58,4.69a11.13,11.13,0,0,1,1.46-.57,7.11,7.11,0,0,1,2.27-.34A9.13,9.13,0,0,1,56,257.64a6.91,6.91,0,0,1,2.84,3.1,11.62,11.62,0,0,1,1,5,9.66,9.66,0,0,1-1,4.35,8.43,8.43,0,0,1-3.14,3.42,9.91,9.91,0,0,1-5.35,1.32,11.4,11.4,0,0,1-3.57-.57,10.38,10.38,0,0,1-3.12-1.66A7.93,7.93,0,0,1,41.45,270a6.77,6.77,0,0,1-.76-3.37h6.72a2.89,2.89,0,0,0,.83,2,2.74,2.74,0,0,0,2,.78,2.43,2.43,0,0,0,1.79-.61,3.24,3.24,0,0,0,.86-1.59,9.07,9.07,0,0,0,.23-2.05,5.43,5.43,0,0,0-.36-2.09,2.68,2.68,0,0,0-1.15-1.31,4.1,4.1,0,0,0-2.09-.46,3.7,3.7,0,0,0-2,.47,4.12,4.12,0,0,0-1,.85Z"/><path class="cls-3" d="M82.05,263.46a14.63,14.63,0,0,1-1.22,6.36,8.4,8.4,0,0,1-3.36,3.75,9.69,9.69,0,0,1-4.92,1.23,9.84,9.84,0,0,1-5-1.23,8.32,8.32,0,0,1-3.38-3.75A14.63,14.63,0,0,1,63,263.46V258.4A14.63,14.63,0,0,1,64.2,252a8.34,8.34,0,0,1,3.36-3.75,10.41,10.41,0,0,1,9.89,0A8.47,8.47,0,0,1,80.82,252a14.48,14.48,0,0,1,1.23,6.36Zm-6.7-5.93a10.58,10.58,0,0,0-.35-3,3,3,0,0,0-1-1.57,2.46,2.46,0,0,0-1.5-.47,2.51,2.51,0,0,0-1.51.47,2.92,2.92,0,0,0-1,1.57,10.58,10.58,0,0,0-.35,3v6.79a10.55,10.55,0,0,0,.36,3.1A2.86,2.86,0,0,0,71,269a2.65,2.65,0,0,0,1.53.44A2.54,2.54,0,0,0,74,269a2.91,2.91,0,0,0,1-1.56,11,11,0,0,0,.34-3.1Z"/><path class="cls-3" d="M104.17,263.46a14.63,14.63,0,0,1-1.22,6.36,8.4,8.4,0,0,1-3.36,3.75,9.71,9.71,0,0,1-4.92,1.23,9.88,9.88,0,0,1-5-1.23,8.36,8.36,0,0,1-3.37-3.75,14.63,14.63,0,0,1-1.22-6.36V258.4A14.63,14.63,0,0,1,86.32,252a8.37,8.37,0,0,1,3.35-3.75,10.41,10.41,0,0,1,9.89,0,8.49,8.49,0,0,1,3.38,3.75,14.48,14.48,0,0,1,1.23,6.36Zm-6.7-5.93a10.58,10.58,0,0,0-.35-3,3,3,0,0,0-1-1.57,2.46,2.46,0,0,0-1.5-.47,2.49,2.49,0,0,0-1.51.47,2.93,2.93,0,0,0-1,1.57,10.63,10.63,0,0,0-.34,3v6.79a11,11,0,0,0,.35,3.1,3,3,0,0,0,1,1.56,2.68,2.68,0,0,0,1.54.44,2.56,2.56,0,0,0,1.48-.44,2.84,2.84,0,0,0,1-1.56,11,11,0,0,0,.35-3.1Z"/><path class="cls-5" d="M30.25,254.65v-2.56h7.29v2.56Zm0,4.78v-2.65h9.47v2.65ZM35,255.35a2.23,2.23,0,0,1-.44,1.44,3.61,3.61,0,0,1-1.59,1l-1.82-1a.6.6,0,0,0,.36-.23,1,1,0,0,0,.12-.41c0-.16,0-.34,0-.54l-.16-5.3a4.07,4.07,0,0,1,.5-2.07,3.25,3.25,0,0,1,1.41-1.31,4.76,4.76,0,0,1,2.14-.45,4.36,4.36,0,0,1,3.15,1.05,3.66,3.66,0,0,1,1.09,2.78H36.72a1.51,1.51,0,0,0-.14-.71.82.82,0,0,0-.38-.36,1.41,1.41,0,0,0-.54-.11.76.76,0,0,0-.62.28,1.38,1.38,0,0,0-.24.9Z"/><line class="cls-6" x1="19.5" y1="72.27" x2="289.5" y2="72.27"/><line class="cls-6" x1="17.49" y1="293.92" x2="287.49" y2="293.92"/><line class="cls-6" x1="17.49" y1="204.07" x2="287.49" y2="204.07"/><line class="cls-6" x1="19.5" y1="386.88" x2="289.5" y2="386.88"/><path class="cls-3" d="M32.61,324.36H30v-9.95h2.57Zm4.13-4h-5v-2.07h5Zm1.72,4H35.91v-9.95h2.55Z"/><path class="cls-3" d="M39.51,320.6a4.49,4.49,0,0,1,.41-1.94,3.2,3.2,0,0,1,1.21-1.34,4.23,4.23,0,0,1,3.95,0,3.13,3.13,0,0,1,1.21,1.34,4.49,4.49,0,0,1,.41,1.94v.13a4.49,4.49,0,0,1-.41,1.94,3.11,3.11,0,0,1-1.2,1.34,4.25,4.25,0,0,1-4,0,3.14,3.14,0,0,1-1.21-1.34,4.49,4.49,0,0,1-.41-1.94Zm2.47.13a4.35,4.35,0,0,0,.09.92,1.14,1.14,0,0,0,.34.63,1,1,0,0,0,.7.24,1,1,0,0,0,.7-.24,1.2,1.2,0,0,0,.34-.63,4.35,4.35,0,0,0,.09-.92v-.13a4.16,4.16,0,0,0-.09-.9,1.35,1.35,0,0,0-.34-.65,1.16,1.16,0,0,0-1.41,0,1.34,1.34,0,0,0-.33.65,4.16,4.16,0,0,0-.09.9Z"/><path class="cls-3" d="M50.31,322l0,2.41H48.88L47.16,317h2.36Zm.94-5h1.53l-.52,2.87L51,324.36H49.73l.18-2.35Zm3.06,5,.18,2.35H53.25L52,319.86l-.5-2.89H53Zm.37-5H57l-1.71,7.39H53.84l0-2.53Z"/><path class="cls-3" d="M61,320.6a4.49,4.49,0,0,1,.41-1.94,3.26,3.26,0,0,1,1.21-1.34,3.69,3.69,0,0,1,2-.49,3.74,3.74,0,0,1,2,.49,3.2,3.2,0,0,1,1.21,1.34,4.49,4.49,0,0,1,.41,1.94v.13a4.49,4.49,0,0,1-.41,1.94A3.08,3.08,0,0,1,66.59,324a4.23,4.23,0,0,1-4,0,3.16,3.16,0,0,1-1.22-1.34,4.49,4.49,0,0,1-.41-1.94Zm2.47.13a4.35,4.35,0,0,0,.09.92,1.27,1.27,0,0,0,.34.63,1,1,0,0,0,.71.24.93.93,0,0,0,.69-.24,1.14,1.14,0,0,0,.34-.63,4.32,4.32,0,0,0,.1-.92v-.13a4.13,4.13,0,0,0-.1-.9,1.27,1.27,0,0,0-.34-.65,1,1,0,0,0-.71-.24.93.93,0,0,0-.69.24,1.44,1.44,0,0,0-.34.65,4.16,4.16,0,0,0-.09.9Z"/><path class="cls-3" d="M73.53,318.74H68.61V317h4.92Zm-3.87,5.62v-7.94a2.51,2.51,0,0,1,.79-2,3.09,3.09,0,0,1,2.12-.69,3.6,3.6,0,0,1,.58,0l.52.11,0,1.89a1,1,0,0,0-.25-.05l-.31,0a1.27,1.27,0,0,0-.73.19.62.62,0,0,0-.26.54v7.94Z"/><path class="cls-3" d="M78.3,318.74H73.76V317H78.3Zm-1.18-3.61v6.68a1.15,1.15,0,0,0,.06.41.38.38,0,0,0,.22.21,1.33,1.33,0,0,0,.44.06h.33a1,1,0,0,0,.24,0v1.84a4.61,4.61,0,0,1-.64.16,5,5,0,0,1-.7.05,3.14,3.14,0,0,1-1.3-.24,1.78,1.78,0,0,1-.82-.76,2.76,2.76,0,0,1-.28-1.33v-7Z"/><path class="cls-3" d="M82.79,324.5a4.18,4.18,0,0,1-2.1-.5,3.39,3.39,0,0,1-1.31-1.32,3.58,3.58,0,0,1-.46-1.76v-.26a4.69,4.69,0,0,1,.4-1.93,3.24,3.24,0,0,1,1.2-1.39,4.12,4.12,0,0,1,3.84-.07,2.92,2.92,0,0,1,1.17,1.26,4.32,4.32,0,0,1,.4,2v1H79.85v-1.58h3.68v-.2a1.11,1.11,0,0,0-.11-.52.69.69,0,0,0-.35-.3,1.34,1.34,0,0,0-.56-.1.91.91,0,0,0-.72.27,1.35,1.35,0,0,0-.32.68,4.37,4.37,0,0,0-.08.9v.26a1.9,1.9,0,0,0,.18.85,1.25,1.25,0,0,0,.54.55,1.68,1.68,0,0,0,.84.19,2.69,2.69,0,0,0,.91-.16,1.67,1.67,0,0,0,.77-.55l1.1,1.41a3,3,0,0,1-1.1.89A4,4,0,0,1,82.79,324.5Z"/><path class="cls-3" d="M89.21,324.36H86.75V317h2.31l.15,1.57Zm-.85-3.87a4.81,4.81,0,0,1,.35-2,2.59,2.59,0,0,1,2.5-1.66,2.56,2.56,0,0,1,1.2.27,1.89,1.89,0,0,1,.82.91,4.15,4.15,0,0,1,.3,1.74v4.61H91.05v-4.62a1.29,1.29,0,0,0-.11-.59.58.58,0,0,0-.33-.27,1.62,1.62,0,0,0-.53-.07,1.28,1.28,0,0,0-.55.11.86.86,0,0,0-.35.33,1.61,1.61,0,0,0-.2.52,4.47,4.47,0,0,0,0,.67Z"/><path class="cls-3" d="M97.94,320.61a5.39,5.39,0,0,1,.32-2,2.91,2.91,0,0,1,1-1.33,2.59,2.59,0,0,1,1.59-.48,2,2,0,0,1,1.41.53,3.71,3.71,0,0,1,.89,1.42,9.52,9.52,0,0,1,.47,2v-.09a9,9,0,0,1-.48,1.89,3.71,3.71,0,0,1-.89,1.4,2,2,0,0,1-1.41.53,2.53,2.53,0,0,1-1.59-.49,3,3,0,0,1-1-1.34,5.23,5.23,0,0,1-.32-1.92Zm2.46.14a4,4,0,0,0,.09.9,1.26,1.26,0,0,0,.32.63.82.82,0,0,0,.63.24,1.15,1.15,0,0,0,.69-.2,1.11,1.11,0,0,0,.39-.58,2.5,2.5,0,0,0,.09-.9v-.23a3.31,3.31,0,0,0,0-.81,1.37,1.37,0,0,0-.21-.56.82.82,0,0,0-.37-.32,1.21,1.21,0,0,0-.52-.11.85.85,0,0,0-.63.23,1.26,1.26,0,0,0-.33.64,3.73,3.73,0,0,0-.1.93Zm2-6.89h2.48v10.5h-2.22l-.26-1.76Z"/><path class="cls-3" d="M105.84,320.6a4.49,4.49,0,0,1,.41-1.94,3.26,3.26,0,0,1,1.21-1.34,3.69,3.69,0,0,1,2-.49,3.74,3.74,0,0,1,2,.49,3.2,3.2,0,0,1,1.21,1.34,4.49,4.49,0,0,1,.41,1.94v.13a4.49,4.49,0,0,1-.41,1.94,3.08,3.08,0,0,1-1.21,1.34,4.23,4.23,0,0,1-4,0,3.16,3.16,0,0,1-1.22-1.34,4.49,4.49,0,0,1-.41-1.94Zm2.47.13a4.35,4.35,0,0,0,.09.92,1.27,1.27,0,0,0,.34.63,1,1,0,0,0,.71.24.93.93,0,0,0,.69-.24,1.14,1.14,0,0,0,.34-.63,4.32,4.32,0,0,0,.1-.92v-.13a4.13,4.13,0,0,0-.1-.9,1.27,1.27,0,0,0-.34-.65,1,1,0,0,0-.71-.24.93.93,0,0,0-.69.24,1.44,1.44,0,0,0-.34.65,4.16,4.16,0,0,0-.09.9Z"/><path class="cls-3" d="M120.82,321.94l.25,2.74-1.64-.09L116.82,317h2.64Zm.81-5h2.64l-3,8.48a4.28,4.28,0,0,1-.26.61,2.82,2.82,0,0,1-.44.62,1.94,1.94,0,0,1-.71.48,2.64,2.64,0,0,1-1.08.19h-.37a1.09,1.09,0,0,1-.26,0l-.35-.08v-1.84h.28a1.59,1.59,0,0,0,.77-.14.68.68,0,0,0,.31-.36l.55-1.4Z"/><path class="cls-3" d="M124.53,320.6a4.35,4.35,0,0,1,.41-1.94,3.13,3.13,0,0,1,1.21-1.34,4.23,4.23,0,0,1,3.95,0,3.13,3.13,0,0,1,1.21,1.34,4.49,4.49,0,0,1,.41,1.94v.13a4.49,4.49,0,0,1-.41,1.94,3.11,3.11,0,0,1-1.2,1.34,4.25,4.25,0,0,1-4,0,3.14,3.14,0,0,1-1.21-1.34,4.35,4.35,0,0,1-.41-1.94Zm2.47.13a4.35,4.35,0,0,0,.09.92,1.14,1.14,0,0,0,.34.63.94.94,0,0,0,.7.24,1,1,0,0,0,.7-.24,1.19,1.19,0,0,0,.33-.63,3.76,3.76,0,0,0,.1-.92v-.13a3.59,3.59,0,0,0-.1-.9,1.34,1.34,0,0,0-.33-.65,1,1,0,0,0-.71-.24,1,1,0,0,0-.7.24,1.34,1.34,0,0,0-.33.65,4.16,4.16,0,0,0-.09.9Z"/><path class="cls-3" d="M137.8,321a4.76,4.76,0,0,1-.32,1.79,2.78,2.78,0,0,1-.91,1.24,2.33,2.33,0,0,1-1.46.46,2.52,2.52,0,0,1-1.79-.64,2.76,2.76,0,0,1-.69-2.1V317h2.47v4.8a.82.82,0,0,0,.09.4.59.59,0,0,0,.28.26,1,1,0,0,0,.46.09,1.26,1.26,0,0,0,.75-.2.92.92,0,0,0,.38-.52,2.35,2.35,0,0,0,.11-.77Zm-.86-4h2.47v7.39h-2.3l-.17-1.82Z"/><path class="cls-3" d="M146.75,322l.06,2.41h-1.49L143.61,317H146Zm.94-5h1.53l-.51,2.87-1.32,4.52h-1.22l.18-2.35Zm3.06,5,.18,2.35h-1.24l-1.28-4.5-.5-2.89h1.49Zm.38-5h2.35l-1.7,7.39h-1.49l0-2.53Z"/><path class="cls-3" d="M158.31,321.16h-.95a.88.88,0,0,0-.79.31,1.24,1.24,0,0,0-.2.66.49.49,0,0,0,.19.41.72.72,0,0,0,.47.15,1.35,1.35,0,0,0,.59-.12,1.11,1.11,0,0,0,.36-.3.39.39,0,0,0,.1-.3l.53,1a5.54,5.54,0,0,1-.3.53,1.91,1.91,0,0,1-.42.48,1.78,1.78,0,0,1-.6.36,2.68,2.68,0,0,1-.86.13,2.9,2.9,0,0,1-1.25-.28,2.32,2.32,0,0,1-.93-.79,2,2,0,0,1-.35-1.17,2.13,2.13,0,0,1,.84-1.79,4.27,4.27,0,0,1,2.64-.65h.92ZM158,319.5a1.07,1.07,0,0,0-.17-.65.7.7,0,0,0-.6-.24,1,1,0,0,0-.38.06.49.49,0,0,0-.23.22.93.93,0,0,0-.08.41h-2.46a2.1,2.1,0,0,1,.4-1.28,2.67,2.67,0,0,1,1.14-.87,4.29,4.29,0,0,1,1.74-.32,4,4,0,0,1,1.59.3,2.47,2.47,0,0,1,1.12.89,2.62,2.62,0,0,1,.41,1.5v2.91a6.37,6.37,0,0,0,.08,1.17,2.84,2.84,0,0,0,.24.64v.12h-2.46a3.24,3.24,0,0,1-.26-.89,7.69,7.69,0,0,1-.08-1.1Z"/><path class="cls-3" d="M164.08,324.36h-2.46V317h2.3l.16,1.57Zm-.85-3.87a5,5,0,0,1,.34-2,2.73,2.73,0,0,1,1-1.24,2.69,2.69,0,0,1,1.5-.42,2.59,2.59,0,0,1,1.2.27,1.89,1.89,0,0,1,.82.91,4.34,4.34,0,0,1,.29,1.74v4.61h-2.47v-4.62a1.29,1.29,0,0,0-.11-.59.58.58,0,0,0-.33-.27,1.66,1.66,0,0,0-.53-.07,1.28,1.28,0,0,0-.55.11,1,1,0,0,0-.36.33,1.6,1.6,0,0,0-.19.52,3.4,3.4,0,0,0-.06.67Z"/><path class="cls-3" d="M173.6,318.74h-4.54V317h4.54Zm-1.18-3.61v6.68a1.15,1.15,0,0,0,.06.41.38.38,0,0,0,.22.21,1.33,1.33,0,0,0,.44.06h.33a.85.85,0,0,0,.23,0v1.84a4.61,4.61,0,0,1-.64.16,5,5,0,0,1-.7.05,3.14,3.14,0,0,1-1.3-.24,1.78,1.78,0,0,1-.82-.76,2.76,2.76,0,0,1-.28-1.33v-7Z"/><path class="cls-3" d="M181.94,318.74H177.4V317h4.54Zm-1.18-3.61v6.68a1.15,1.15,0,0,0,.06.41.38.38,0,0,0,.22.21,1.33,1.33,0,0,0,.44.06h.33a.85.85,0,0,0,.23,0v1.84a4.61,4.61,0,0,1-.64.16,5,5,0,0,1-.7.05,3.14,3.14,0,0,1-1.3-.24,1.78,1.78,0,0,1-.82-.76,2.76,2.76,0,0,1-.28-1.33v-7Z"/><path class="cls-3" d="M182.37,320.6a4.35,4.35,0,0,1,.41-1.94,3.13,3.13,0,0,1,1.21-1.34,3.66,3.66,0,0,1,2-.49,3.72,3.72,0,0,1,2,.49,3.13,3.13,0,0,1,1.21,1.34,4.49,4.49,0,0,1,.41,1.94v.13a4.49,4.49,0,0,1-.41,1.94,3.08,3.08,0,0,1-1.21,1.34,4.23,4.23,0,0,1-3.95,0,3.08,3.08,0,0,1-1.21-1.34,4.35,4.35,0,0,1-.41-1.94Zm2.46.13a4.32,4.32,0,0,0,.1.92,1.19,1.19,0,0,0,.33.63,1.16,1.16,0,0,0,1.41,0,1.19,1.19,0,0,0,.33-.63,3.76,3.76,0,0,0,.1-.92v-.13a3.59,3.59,0,0,0-.1-.9,1.34,1.34,0,0,0-.33-.65,1,1,0,0,0-.72-.24.93.93,0,0,0-.69.24,1.34,1.34,0,0,0-.33.65,4.13,4.13,0,0,0-.1.9Z"/><path class="cls-3" d="M194,315.09a1.16,1.16,0,0,1,.38-.89,1.41,1.41,0,0,1,1-.34,1.45,1.45,0,0,1,1,.34,1.26,1.26,0,0,1,0,1.78,1.4,1.4,0,0,1-1,.34,1.37,1.37,0,0,1-1-.34A1.16,1.16,0,0,1,194,315.09Zm2.61,9.27h-2.47V317h2.47Z"/><path class="cls-3" d="M200.36,324.36H197.9V317h2.3l.16,1.57Zm-.86-3.87a5.15,5.15,0,0,1,.35-2,2.77,2.77,0,0,1,1-1.24,2.71,2.71,0,0,1,1.5-.42,2.6,2.6,0,0,1,1.21.27,1.87,1.87,0,0,1,.81.91,4.15,4.15,0,0,1,.3,1.74v4.61H202.2v-4.62a1.16,1.16,0,0,0-.12-.59.53.53,0,0,0-.32-.27,1.66,1.66,0,0,0-.53-.07,1.25,1.25,0,0,0-.55.11,1,1,0,0,0-.36.33,1.6,1.6,0,0,0-.19.52,3.4,3.4,0,0,0-.06.67Z"/><path class="cls-3" d="M209.19,322.63l0,1.73h-1.53L205.25,317h2.61Zm.75-5.66h2.59l-2.38,7.39h-1.53l0-1.72Z"/><path class="cls-3" d="M216.81,324.5a4.18,4.18,0,0,1-2.1-.5,3.42,3.42,0,0,1-1.32-1.32,3.57,3.57,0,0,1-.45-1.76v-.26a4.69,4.69,0,0,1,.4-1.93,3.17,3.17,0,0,1,1.2-1.39,4.12,4.12,0,0,1,3.84-.07,2.9,2.9,0,0,1,1.16,1.26,4.32,4.32,0,0,1,.41,2v1h-6.08v-1.58h3.67v-.2a.91.91,0,0,0-.11-.52.63.63,0,0,0-.34-.3,1.34,1.34,0,0,0-.56-.1.91.91,0,0,0-.72.27,1.35,1.35,0,0,0-.32.68,4.36,4.36,0,0,0-.09.9v.26a1.9,1.9,0,0,0,.19.85,1.25,1.25,0,0,0,.54.55,1.68,1.68,0,0,0,.84.19,2.69,2.69,0,0,0,.91-.16,1.64,1.64,0,0,0,.76-.55l1.11,1.41a3.12,3.12,0,0,1-1.1.89A4,4,0,0,1,216.81,324.5Z"/><path class="cls-3" d="M224.63,322.25a.36.36,0,0,0-.12-.28,1.34,1.34,0,0,0-.42-.21,6.33,6.33,0,0,0-.84-.21,6.31,6.31,0,0,1-1.31-.45,2.69,2.69,0,0,1-.95-.76,1.82,1.82,0,0,1-.35-1.12A2.1,2.1,0,0,1,221,318a2.52,2.52,0,0,1,1.06-.88,3.82,3.82,0,0,1,1.67-.33,4.42,4.42,0,0,1,1.75.31,2.64,2.64,0,0,1,1.14.85,2.08,2.08,0,0,1,.4,1.28h-2.46a.78.78,0,0,0-.19-.59.92.92,0,0,0-.65-.18,1.09,1.09,0,0,0-.36.06.75.75,0,0,0-.28.2.52.52,0,0,0-.11.33.42.42,0,0,0,.13.31,1,1,0,0,0,.38.22,2.83,2.83,0,0,0,.64.16,7.66,7.66,0,0,1,1.39.37,2.59,2.59,0,0,1,1.08.73,2.1,2.1,0,0,1,0,2.48,2.59,2.59,0,0,1-1.13.83,4.48,4.48,0,0,1-1.75.31,3.82,3.82,0,0,1-1.81-.39,2.85,2.85,0,0,1-1.12-1,2.14,2.14,0,0,1-.38-1.19h2.29a.85.85,0,0,0,.52.79,1.62,1.62,0,0,0,.57.09,1.58,1.58,0,0,0,.47-.06.75.75,0,0,0,.28-.2A.54.54,0,0,0,224.63,322.25Z"/><path class="cls-3" d="M232,318.74h-4.54V317H232Zm-1.18-3.61v6.68a1.15,1.15,0,0,0,.06.41.38.38,0,0,0,.22.21,1.33,1.33,0,0,0,.44.06h.33a.85.85,0,0,0,.23,0v1.84a4.61,4.61,0,0,1-.64.16,5,5,0,0,1-.7.05,3.14,3.14,0,0,1-1.3-.24,1.78,1.78,0,0,1-.82-.76,2.76,2.76,0,0,1-.28-1.33v-7Z"/><path class="cls-7" d="M154.21,341H277.66a6,6,0,0,1,6,6v13a6,6,0,0,1-6,6H154.21a0,0,0,0,1,0,0V341a0,0,0,0,1,0,0Z"/><rect class="cls-8" x="25.34" y="341" width="258.33" height="25" rx="6"/><path class="cls-8" d="M31.34,341H154.21a0,0,0,0,1,0,0v25a0,0,0,0,1,0,0H31.34a6,6,0,0,1-6-6V347a6,6,0,0,1,6-6Z"/><path class="cls-8" d="M154.21,341H277.66a6,6,0,0,1,6,6v13a6,6,0,0,1-6,6H154.21a0,0,0,0,1,0,0V341a0,0,0,0,1,0,0Z"/><path class="cls-9" d="M196,348.19l.26,6.76v3.19h-1.76v-9.95Zm.79,0,2.83,7.58,2.83-7.58H204l-3.78,9.95H199l-3.78-9.95Zm8,0v9.95H203V355l.27-6.76Z"/><path class="cls-9" d="M206.26,354.37a4.45,4.45,0,0,1,.41-1.93,3.26,3.26,0,0,1,1.18-1.34,3.69,3.69,0,0,1,3.71,0,3.19,3.19,0,0,1,1.18,1.34,4.45,4.45,0,0,1,.41,1.93v.15a4.43,4.43,0,0,1-.41,1.92,3.18,3.18,0,0,1-1.17,1.34,3.78,3.78,0,0,1-3.72,0,3.2,3.2,0,0,1-1.18-1.34,4.43,4.43,0,0,1-.41-1.92Zm1.69.15a3.76,3.76,0,0,0,.19,1.19,1.88,1.88,0,0,0,.57.88,1.72,1.72,0,0,0,2,0,1.94,1.94,0,0,0,.56-.88,3.76,3.76,0,0,0,.18-1.19v-.15a3.76,3.76,0,0,0-.18-1.19,1.88,1.88,0,0,0-.57-.88,1.68,1.68,0,0,0-2,0,1.94,1.94,0,0,0-.56.88,3.5,3.5,0,0,0-.19,1.19Z"/><path class="cls-9" d="M216.2,358.14h-1.7v-7.4h1.6l.1,1.58Zm-.85-4a4.57,4.57,0,0,1,.38-1.88,3,3,0,0,1,1-1.25,2.68,2.68,0,0,1,1.54-.45,2.71,2.71,0,0,1,1.25.27,2,2,0,0,1,.82.88,3.82,3.82,0,0,1,.29,1.62v4.77H219v-4.78a1.83,1.83,0,0,0-.15-.81.86.86,0,0,0-.43-.43,1.7,1.7,0,0,0-.71-.13,1.66,1.66,0,0,0-.75.17,1.55,1.55,0,0,0-.55.47,2,2,0,0,0-.35.7,2.84,2.84,0,0,0-.12.84Z"/><path class="cls-9" d="M225.75,352h-4.2v-1.25h4.2Zm-1.31-3.06v7.12a1.18,1.18,0,0,0,.09.52.57.57,0,0,0,.27.24,1.31,1.31,0,0,0,.41.06l.33,0,.26,0v1.3a4.2,4.2,0,0,1-.48.12,3.92,3.92,0,0,1-.63,0,2.31,2.31,0,0,1-1-.2,1.54,1.54,0,0,1-.69-.67,2.49,2.49,0,0,1-.25-1.22v-7.25Z"/><path class="cls-9" d="M228.66,358.14H227v-10.5h1.7Zm-.84-4a4.48,4.48,0,0,1,.37-1.84,3,3,0,0,1,1-1.27,2.56,2.56,0,0,1,1.52-.47,2.87,2.87,0,0,1,1.28.28,1.92,1.92,0,0,1,.84.89,3.74,3.74,0,0,1,.3,1.63v4.74h-1.7v-4.75a1.92,1.92,0,0,0-.15-.83.9.9,0,0,0-.44-.44,1.87,1.87,0,0,0-.71-.13,1.71,1.71,0,0,0-.77.17,1.64,1.64,0,0,0-.55.47,2,2,0,0,0-.33.7,2.84,2.84,0,0,0-.11.84Z"/><path class="cls-9" d="M236.58,358.14h-1.69v-10.5h1.69Z"/><path class="cls-9" d="M241.15,356.22l.3,1.83-1.18.27-2.67-7.58h1.83Zm1.35-5.48h1.81l-3,8.52a5.1,5.1,0,0,1-.27.6,2.71,2.71,0,0,1-.43.61,2,2,0,0,1-.65.47,2.26,2.26,0,0,1-.95.19l-.29,0-.27-.05a1.83,1.83,0,0,1-.25-.06v-1.3h.32a1.66,1.66,0,0,0,.92-.22,1.47,1.47,0,0,0,.49-.75l.54-1.43Z"/><path class="cls-10" d="M70.87,356l.12,2.16H69.82l-2.29-9.95h1.75Zm1.8-7.79h1.07l-.1,1.87-2.11,8.08H70.42l.29-2.11Zm3.43,7.86.28,2.09H75.27l-2.08-8.08-.08-1.87h1Zm1.42-7.86h1.76L77,358.14H75.81L76,356Z"/><path class="cls-10" d="M83.64,358.27a3.65,3.65,0,0,1-1.9-.47,3.36,3.36,0,0,1-1.23-1.28,3.94,3.94,0,0,1-.43-1.82v-.28a4.38,4.38,0,0,1,.44-2,3.36,3.36,0,0,1,4.7-1.34,2.72,2.72,0,0,1,1,1.28,4.78,4.78,0,0,1,.35,1.88V355H80.9v-1.23h4v-.13a2.37,2.37,0,0,0-.16-.8,1.32,1.32,0,0,0-.48-.61,1.62,1.62,0,0,0-1.77.07,1.87,1.87,0,0,0-.56.85,3.92,3.92,0,0,0-.19,1.3v.28a2.75,2.75,0,0,0,.23,1.13,1.93,1.93,0,0,0,.68.79,1.91,1.91,0,0,0,1.06.29,2.22,2.22,0,0,0,1.85-.9l.89.88a3.29,3.29,0,0,1-1,1A3.48,3.48,0,0,1,83.64,358.27Z"/><path class="cls-10" d="M91.16,358.27a3.6,3.6,0,0,1-1.9-.47A3.22,3.22,0,0,1,88,356.52a3.82,3.82,0,0,1-.43-1.82v-.28a4.38,4.38,0,0,1,.43-2,3.36,3.36,0,0,1,4.7-1.34,2.72,2.72,0,0,1,1,1.28,4.78,4.78,0,0,1,.35,1.88V355H88.41v-1.23h4v-.13a2.38,2.38,0,0,0-.17-.8,1.36,1.36,0,0,0-.47-.61A1.44,1.44,0,0,0,91,352a1.4,1.4,0,0,0-.91.3,2,2,0,0,0-.56.85,4.19,4.19,0,0,0-.19,1.3v.28a2.75,2.75,0,0,0,.23,1.13,1.83,1.83,0,0,0,1.74,1.08,2.19,2.19,0,0,0,1.85-.9l.89.88a3.29,3.29,0,0,1-1,1A3.44,3.44,0,0,1,91.16,358.27Z"/><path class="cls-10" d="M97.1,358.14H95.4v-10.5h1.7Zm1.39-3.82-1.79,1.82-.45-1.42,1.35-1.67,2-2.31h2Zm-.85.37,1.08-1.18,3.24,4.63h-2Z"/><path class="cls-10" d="M104.53,358.14h-1.7v-10.5h1.7Z"/><path class="cls-10" d="M109.09,356.22l.31,1.83-1.18.27-2.67-7.58h1.83Zm1.35-5.48h1.81l-3,8.52a5,5,0,0,1-.26.6,3.08,3.08,0,0,1-.43.61,2.13,2.13,0,0,1-.66.47,2.22,2.22,0,0,1-.94.19l-.3,0-.26-.05a2,2,0,0,1-.26-.06v-1.3h.32a1.68,1.68,0,0,0,.93-.22,1.4,1.4,0,0,0,.48-.75l.54-1.43Z"/><rect class="cls-7" x="29.34" y="105.53" width="241.92" height="84.39" rx="7"/><path class="cls-4" d="M123.94,115.3v8.88a4.66,4.66,0,0,1-.67,2.56,4.18,4.18,0,0,1-1.8,1.55,6.51,6.51,0,0,1-5.1,0,4.08,4.08,0,0,1-1.78-1.55,4.75,4.75,0,0,1-.65-2.56V115.3h2.36v8.88a3.36,3.36,0,0,0,.32,1.55,2,2,0,0,0,.91.89,3.46,3.46,0,0,0,2.82,0,2,2,0,0,0,.9-.89,3.24,3.24,0,0,0,.32-1.55V115.3Z"/><path class="cls-4" d="M128.76,128.63H126.4V115.3h2.36Zm2.62-6.88L128.29,125l-.42-2.36,2.18-2.75,3.83-4.62h2.88Zm-1.49.61,1.63-1.62,5.49,7.89H134.2Z"/><path class="cls-4" d="M144.91,115.3l.35,9v4.28h-2.35V115.3Zm1.07,0,3.79,10.16,3.79-10.16h2.1l-5.06,13.33h-1.67l-5.05-13.33Zm10.66,0v13.33h-2.37v-4.28l.36-9Z"/><path class="cls-4" d="M165,124h-1.55a3.05,3.05,0,0,0-1.82.45,1.4,1.4,0,0,0-.61,1.2,1.3,1.3,0,0,0,.4,1,1.58,1.58,0,0,0,1.14.39,2.46,2.46,0,0,0,1.17-.27,2.34,2.34,0,0,0,.78-.67,1.32,1.32,0,0,0,.29-.75l.73,1a3.38,3.38,0,0,1-.38.8,3.85,3.85,0,0,1-.68.81,3.65,3.65,0,0,1-1,.62,3.54,3.54,0,0,1-1.35.24,3.86,3.86,0,0,1-1.73-.38,3,3,0,0,1-1.2-1.06,2.73,2.73,0,0,1-.43-1.52,2.77,2.77,0,0,1,1.18-2.41,5.66,5.66,0,0,1,3.35-.85H165Zm-.34-2.06a1.73,1.73,0,0,0-.43-1.22,1.65,1.65,0,0,0-1.29-.46,2,2,0,0,0-.89.18,1.46,1.46,0,0,0-.6.48,1.17,1.17,0,0,0-.21.69H159a2.55,2.55,0,0,1,.5-1.5,3.49,3.49,0,0,1,1.43-1.13,5,5,0,0,1,2.17-.43,5,5,0,0,1,2,.37,3,3,0,0,1,1.37,1.14,3.42,3.42,0,0,1,.5,1.9v4.37a6.51,6.51,0,0,0,.1,1.23,3.69,3.69,0,0,0,.28.92v.16H165a3.64,3.64,0,0,1-.25-.93,8.38,8.38,0,0,1-.08-1.1Z"/><path class="cls-4" d="M169.23,116.13a1.21,1.21,0,0,1,.33-.87,1.5,1.5,0,0,1,1.9,0,1.18,1.18,0,0,1,.35.87,1.14,1.14,0,0,1-.35.85,1.46,1.46,0,0,1-1.9,0A1.16,1.16,0,0,1,169.23,116.13Zm2.41,12.5h-2.27v-9.91h2.27Z"/><path class="cls-4" d="M176.28,128.63H174v-9.91h2.13l.14,2.12Zm-1.14-5.3a6.15,6.15,0,0,1,.51-2.52,3.93,3.93,0,0,1,1.38-1.67,3.93,3.93,0,0,1,3.73-.24,2.46,2.46,0,0,1,1.1,1.17,5.08,5.08,0,0,1,.4,2.18v6.38H180v-6.4a2.52,2.52,0,0,0-.2-1.09,1.13,1.13,0,0,0-.59-.57,2.23,2.23,0,0,0-.94-.17,2.18,2.18,0,0,0-1,.22,2.22,2.22,0,0,0-.74.63,3.13,3.13,0,0,0-.47.93,4.19,4.19,0,0,0-.16,1.14Z"/><path class="cls-10" d="M117,141.3a.92.92,0,0,0-.11-.46,1,1,0,0,0-.42-.36,6.3,6.3,0,0,0-.88-.34,5.86,5.86,0,0,1-.87-.32,3.19,3.19,0,0,1-.7-.43,1.75,1.75,0,0,1-.47-.55,1.73,1.73,0,0,1,.14-1.7,2.06,2.06,0,0,1,.84-.65,3.15,3.15,0,0,1,1.24-.23,2.86,2.86,0,0,1,1.29.27,2.06,2.06,0,0,1,.83.74,1.93,1.93,0,0,1,.29,1H117a1.2,1.2,0,0,0-.14-.57,1,1,0,0,0-.41-.39,1.55,1.55,0,0,0-.7-.14,1.62,1.62,0,0,0-.66.12.85.85,0,0,0-.39.32.82.82,0,0,0-.13.46.66.66,0,0,0,.15.43,1.36,1.36,0,0,0,.47.34,7.41,7.41,0,0,0,.79.3,5.14,5.14,0,0,1,1.23.5,2,2,0,0,1,.73.68,1.8,1.8,0,0,1,.24.94,1.59,1.59,0,0,1-.29,1,1.86,1.86,0,0,1-.83.63,3.19,3.19,0,0,1-1.26.22,3.33,3.33,0,0,1-.94-.13,2.88,2.88,0,0,1-.85-.39,2,2,0,0,1-.6-.67,1.75,1.75,0,0,1-.23-.94h1.18a1.28,1.28,0,0,0,.11.55,1,1,0,0,0,.31.37,1.5,1.5,0,0,0,.46.21,2.47,2.47,0,0,0,.56.06,1.84,1.84,0,0,0,.67-.11,1,1,0,0,0,.4-.31A.77.77,0,0,0,117,141.3Z"/><path class="cls-10" d="M120.16,143H119v-7h1.14Zm-.57-2.65a3.17,3.17,0,0,1,.25-1.23,2,2,0,0,1,.67-.86,1.76,1.76,0,0,1,1-.31,1.82,1.82,0,0,1,.86.19,1.24,1.24,0,0,1,.56.59,2.61,2.61,0,0,1,.2,1.1V143H122v-3.18a1.25,1.25,0,0,0-.1-.56.63.63,0,0,0-.29-.29,1.14,1.14,0,0,0-.48-.09,1.19,1.19,0,0,0-.51.11,1,1,0,0,0-.37.32,1.42,1.42,0,0,0-.23.46,2.62,2.62,0,0,0-.07.57Z"/><path class="cls-10" d="M127.21,140.7h-.78a1.53,1.53,0,0,0-.91.22.72.72,0,0,0-.3.61.62.62,0,0,0,.2.48.77.77,0,0,0,.57.2,1.21,1.21,0,0,0,.58-.14,1.07,1.07,0,0,0,.39-.33.71.71,0,0,0,.15-.38l.36.51a2,2,0,0,1-.53.81,1.92,1.92,0,0,1-.5.31,1.79,1.79,0,0,1-.68.12,1.84,1.84,0,0,1-.86-.19,1.48,1.48,0,0,1-.6-.53,1.35,1.35,0,0,1-.22-.76,1.41,1.41,0,0,1,.59-1.21,2.88,2.88,0,0,1,1.68-.42h.85Zm-.17-1a.86.86,0,0,0-.22-.61.8.8,0,0,0-.64-.23,1.06,1.06,0,0,0-.45.09.73.73,0,0,0-.3.24.57.57,0,0,0-.1.34h-1.14a1.35,1.35,0,0,1,.25-.75,1.79,1.79,0,0,1,.72-.56,2.74,2.74,0,0,1,2.08,0,1.58,1.58,0,0,1,.68.57,1.66,1.66,0,0,1,.25,1v2.18a3.7,3.7,0,0,0,.05.62,1.91,1.91,0,0,0,.14.46V143H127.2a2.18,2.18,0,0,1-.12-.46,3.6,3.6,0,0,1,0-.56Z"/><path class="cls-10" d="M130.45,143h-1.13v-5h1.08l0,1Zm1.49-3.91-.22,0h-.23a1.26,1.26,0,0,0-.62.14.82.82,0,0,0-.38.38,1.35,1.35,0,0,0-.15.59h-.26a3.57,3.57,0,0,1,.16-1.12,1.75,1.75,0,0,1,.49-.79,1.19,1.19,0,0,1,.83-.3l.21,0,.18,0Z"/><path class="cls-10" d="M134.83,143.11a2.47,2.47,0,0,1-1.27-.32,2.12,2.12,0,0,1-.82-.86,2.46,2.46,0,0,1-.29-1.21v-.19a2.86,2.86,0,0,1,.29-1.35,2.23,2.23,0,0,1,.8-.89,2.35,2.35,0,0,1,2.35,0,1.93,1.93,0,0,1,.7.86,3.08,3.08,0,0,1,.23,1.26v.49H133v-.82h2.71V140a1.33,1.33,0,0,0-.11-.54.81.81,0,0,0-.32-.41,1,1,0,0,0-.57-.16.89.89,0,0,0-.61.21,1.2,1.2,0,0,0-.38.57,2.53,2.53,0,0,0-.13.87v.19a1.65,1.65,0,0,0,.16.75,1.22,1.22,0,0,0,.45.53,1.28,1.28,0,0,0,.71.19,1.61,1.61,0,0,0,.71-.15,1.74,1.74,0,0,0,.53-.45l.6.6a2.22,2.22,0,0,1-.71.63A2.27,2.27,0,0,1,134.83,143.11Z"/><path class="cls-10" d="M140.44,141.67a.57.57,0,0,0-.08-.29.8.8,0,0,0-.31-.23,3.08,3.08,0,0,0-.68-.21,4.15,4.15,0,0,1-.92-.29,1.52,1.52,0,0,1-.62-.47,1.12,1.12,0,0,1-.23-.71,1.34,1.34,0,0,1,.23-.74,1.67,1.67,0,0,1,.67-.55,2.32,2.32,0,0,1,1-.21,2.49,2.49,0,0,1,1.07.21,1.69,1.69,0,0,1,.69.56,1.43,1.43,0,0,1,.24.81h-1.13a.74.74,0,0,0-.22-.52.87.87,0,0,0-.65-.22,1,1,0,0,0-.45.09.67.67,0,0,0-.27.22.53.53,0,0,0-.09.3.45.45,0,0,0,.09.28.72.72,0,0,0,.3.21,3.27,3.27,0,0,0,.61.18,5,5,0,0,1,1,.3,1.6,1.6,0,0,1,.64.47,1.21,1.21,0,0,1,.22.75,1.27,1.27,0,0,1-.25.78,1.74,1.74,0,0,1-.7.53,2.68,2.68,0,0,1-1.06.19,2.48,2.48,0,0,1-1.15-.24,1.74,1.74,0,0,1-.71-.62,1.48,1.48,0,0,1-.24-.79h1.09a.76.76,0,0,0,.17.47.79.79,0,0,0,.38.26,1.45,1.45,0,0,0,.47.08,1.2,1.2,0,0,0,.49-.08.59.59,0,0,0,.29-.21A.49.49,0,0,0,140.44,141.67Z"/><path class="cls-10" d="M144.62,140.5a2.86,2.86,0,0,1,.28-1.3,2.13,2.13,0,0,1,2-1.23,2.26,2.26,0,0,1,1.25.33,2.21,2.21,0,0,1,.79.9,2.86,2.86,0,0,1,.28,1.3v.09a2.84,2.84,0,0,1-.28,1.29,2.14,2.14,0,0,1-.78.9,2.28,2.28,0,0,1-1.25.33,2.25,2.25,0,0,1-1.24-.33,2.09,2.09,0,0,1-.79-.9,2.84,2.84,0,0,1-.28-1.29Zm1.14.09a2.64,2.64,0,0,0,.12.81,1.31,1.31,0,0,0,.38.58,1.13,1.13,0,0,0,1.34,0,1.31,1.31,0,0,0,.38-.58,2.64,2.64,0,0,0,.12-.81v-.09a2.64,2.64,0,0,0-.12-.81,1.25,1.25,0,0,0-.38-.58,1,1,0,0,0-.68-.23,1,1,0,0,0-.66.23,1.25,1.25,0,0,0-.38.58,2.64,2.64,0,0,0-.12.81Z"/><path class="cls-10" d="M152.69,138.9h-2.9v-.84h2.9ZM150.54,143v-5.43a1.64,1.64,0,0,1,.47-1.26,1.81,1.81,0,0,1,1.28-.44l.32,0,.31.06,0,.89-.19,0h-.23a.8.8,0,0,0-.58.2.75.75,0,0,0-.21.57V143Z"/><path class="cls-10" d="M158.1,138.9h-2.81v-.84h2.81Zm-.88-2.05v4.77a.68.68,0,0,0,.07.35.31.31,0,0,0,.18.16,1.1,1.1,0,0,0,.27,0l.22,0,.17,0V143l-.32.08a2.58,2.58,0,0,1-.42,0,1.65,1.65,0,0,1-.68-.14,1,1,0,0,1-.46-.44,1.78,1.78,0,0,1-.16-.83v-4.85Z"/><path class="cls-10" d="M160.05,143h-1.14v-7h1.14Zm-.56-2.65a3,3,0,0,1,.24-1.23,2,2,0,0,1,.68-.86,1.75,1.75,0,0,1,1-.31,1.79,1.79,0,0,1,.86.19,1.24,1.24,0,0,1,.56.59,2.46,2.46,0,0,1,.2,1.1V143H161.9v-3.18a1.25,1.25,0,0,0-.1-.56.58.58,0,0,0-.29-.29,1.13,1.13,0,0,0-.47-.09,1.21,1.21,0,0,0-.52.11,1.13,1.13,0,0,0-.37.32,1.4,1.4,0,0,0-.22.46,2.12,2.12,0,0,0-.08.57Z"/><path class="cls-10" d="M166.34,143.11a2.47,2.47,0,0,1-1.27-.32,2.21,2.21,0,0,1-.83-.86,2.57,2.57,0,0,1-.28-1.21v-.19a2.86,2.86,0,0,1,.29-1.35,2.25,2.25,0,0,1,3.14-.9,1.88,1.88,0,0,1,.71.86,3.26,3.26,0,0,1,.23,1.26v.49H164.5v-.82h2.71V140a1.53,1.53,0,0,0-.11-.54.87.87,0,0,0-.32-.41,1,1,0,0,0-.58-.16.92.92,0,0,0-.61.21,1.18,1.18,0,0,0-.37.57,2.53,2.53,0,0,0-.13.87v.19a1.65,1.65,0,0,0,.16.75,1.22,1.22,0,0,0,.45.53,1.26,1.26,0,0,0,.71.19,1.61,1.61,0,0,0,.71-.15,1.74,1.74,0,0,0,.53-.45l.6.6a2.22,2.22,0,0,1-.71.63A2.27,2.27,0,0,1,166.34,143.11Z"/><path class="cls-10" d="M174.49,143h-1.14v-5.33l-1.63.55v-1l2.62-1h.15Z"/><path class="cls-10" d="M181.14,140.23a4.29,4.29,0,0,1-.27,1.66,1.84,1.84,0,0,1-.76.93,2.45,2.45,0,0,1-2.31,0,1.85,1.85,0,0,1-.77-.93,4.29,4.29,0,0,1-.27-1.66v-1.11a4.23,4.23,0,0,1,.27-1.66,1.87,1.87,0,0,1,.77-.92,2.5,2.5,0,0,1,2.3,0,1.92,1.92,0,0,1,.77.92,4.23,4.23,0,0,1,.27,1.66ZM180,139a3.66,3.66,0,0,0-.12-1,1.06,1.06,0,0,0-.35-.56,1,1,0,0,0-.58-.17.88.88,0,0,0-.57.17,1,1,0,0,0-.36.56,3.3,3.3,0,0,0-.13,1v1.44a3.41,3.41,0,0,0,.13,1.05,1.11,1.11,0,0,0,.36.58.92.92,0,0,0,.57.18.91.91,0,0,0,.58-.18,1,1,0,0,0,.35-.58,3.79,3.79,0,0,0,.12-1.05Z"/><path class="cls-10" d="M186.47,140.23a4.29,4.29,0,0,1-.27,1.66,1.84,1.84,0,0,1-.76.93,2.23,2.23,0,0,1-1.15.29,2.26,2.26,0,0,1-1.15-.29,1.85,1.85,0,0,1-.77-.93,4.1,4.1,0,0,1-.28-1.66v-1.11a4.23,4.23,0,0,1,.27-1.66,1.87,1.87,0,0,1,.77-.92,2.25,2.25,0,0,1,1.15-.28,2.29,2.29,0,0,1,1.16.28,1.91,1.91,0,0,1,.76.92,4.23,4.23,0,0,1,.27,1.66ZM185.34,139a3.66,3.66,0,0,0-.12-1,1,1,0,0,0-.36-.56.93.93,0,0,0-.58-.17.92.92,0,0,0-.57.17,1,1,0,0,0-.36.56,3.66,3.66,0,0,0-.12,1v1.44a3.79,3.79,0,0,0,.12,1.05,1.19,1.19,0,0,0,.37.58.9.9,0,0,0,.57.18.93.93,0,0,0,.58-.18,1.17,1.17,0,0,0,.35-.58,3.79,3.79,0,0,0,.12-1.05Z"/><path class="cls-10" d="M191.05,143h-1.13v-7h1.13Z"/><path class="cls-10" d="M195.2,140.7h-.78a1.53,1.53,0,0,0-.91.22.72.72,0,0,0-.3.61.62.62,0,0,0,.2.48.77.77,0,0,0,.57.2,1.21,1.21,0,0,0,.58-.14,1.07,1.07,0,0,0,.39-.33.71.71,0,0,0,.15-.38l.36.51a2,2,0,0,1-.53.81,1.92,1.92,0,0,1-.5.31,1.79,1.79,0,0,1-.68.12,1.84,1.84,0,0,1-.86-.19,1.48,1.48,0,0,1-.6-.53,1.35,1.35,0,0,1-.22-.76,1.41,1.41,0,0,1,.59-1.21,2.9,2.9,0,0,1,1.68-.42h.85Zm-.17-1a.86.86,0,0,0-.22-.61.8.8,0,0,0-.64-.23,1.06,1.06,0,0,0-.45.09.73.73,0,0,0-.3.24.57.57,0,0,0-.1.34h-1.14a1.35,1.35,0,0,1,.25-.75,1.79,1.79,0,0,1,.72-.56,2.74,2.74,0,0,1,2.08,0,1.58,1.58,0,0,1,.68.57,1.66,1.66,0,0,1,.25,1v2.18a3.7,3.7,0,0,0,.05.62,1.91,1.91,0,0,0,.14.46V143h-1.16a2.18,2.18,0,0,1-.12-.46,3.6,3.6,0,0,1,0-.56Z"/><path class="cls-10" d="M198.44,143h-1.13v-5h1.08l.05,1Zm1.49-3.91-.22,0h-.23a1.26,1.26,0,0,0-.62.14.82.82,0,0,0-.38.38,1.35,1.35,0,0,0-.15.59h-.26a3.57,3.57,0,0,1,.16-1.12,1.75,1.75,0,0,1,.49-.79,1.19,1.19,0,0,1,.83-.3l.21,0,.18,0Z"/><path class="cls-10" d="M200.43,140.5a3.38,3.38,0,0,1,.24-1.32,2,2,0,0,1,.69-.89,2,2,0,0,1,1.89-.14,1.52,1.52,0,0,1,.57.5,2.81,2.81,0,0,1,.36.78,6.59,6.59,0,0,1,.19,1v.26a4.49,4.49,0,0,1-.31,1.25,2,2,0,0,1-.63.86,1.61,1.61,0,0,1-1,.31,1.73,1.73,0,0,1-1-.33,2.12,2.12,0,0,1-.68-.89,3.13,3.13,0,0,1-.25-1.29Zm4.4-2.44v4.82a2.13,2.13,0,0,1-.29,1.13,1.86,1.86,0,0,1-.8.72,2.73,2.73,0,0,1-1.18.24,3,3,0,0,1-.63-.08,2.39,2.39,0,0,1-.67-.26,1.79,1.79,0,0,1-.55-.47l.53-.68a1.79,1.79,0,0,0,.59.45,1.53,1.53,0,0,0,.67.15,1.17,1.17,0,0,0,.87-.31,1.16,1.16,0,0,0,.32-.88v-3.7l.1-1.13Zm-3.26,2.54a2.53,2.53,0,0,0,.12.8,1.26,1.26,0,0,0,.37.57,1,1,0,0,0,.64.21,1,1,0,0,0,1-.6,2.1,2.1,0,0,0,.19-.63v-.78a2.45,2.45,0,0,0-.11-.5,1.34,1.34,0,0,0-.22-.41,1,1,0,0,0-.36-.26,1.07,1.07,0,0,0-.49-.1,1,1,0,0,0-.65.21,1.29,1.29,0,0,0-.37.58,2.55,2.55,0,0,0-.12.81Z"/><path class="cls-10" d="M208.14,143.11a2.47,2.47,0,0,1-1.27-.32,2.12,2.12,0,0,1-.82-.86,2.46,2.46,0,0,1-.29-1.21v-.19a3,3,0,0,1,.29-1.35,2.23,2.23,0,0,1,.8-.89,2.35,2.35,0,0,1,2.35,0,1.86,1.86,0,0,1,.7.86,3.08,3.08,0,0,1,.23,1.26v.49H206.3v-.82H209V140a1.33,1.33,0,0,0-.11-.54.81.81,0,0,0-.32-.41,1,1,0,0,0-.57-.16.89.89,0,0,0-.61.21,1.2,1.2,0,0,0-.38.57,2.8,2.8,0,0,0-.13.87v.19a1.8,1.8,0,0,0,.16.75,1.22,1.22,0,0,0,.45.53,1.28,1.28,0,0,0,.71.19,1.61,1.61,0,0,0,.71-.15,1.74,1.74,0,0,0,.53-.45l.6.6a2.22,2.22,0,0,1-.71.63A2.27,2.27,0,0,1,208.14,143.11Z"/><path class="cls-10" d="M213.75,141.67a.57.57,0,0,0-.08-.29.8.8,0,0,0-.31-.23,3.14,3.14,0,0,0-.67-.21,4.25,4.25,0,0,1-.93-.29,1.52,1.52,0,0,1-.62-.47,1.12,1.12,0,0,1-.23-.71,1.34,1.34,0,0,1,.23-.74,1.67,1.67,0,0,1,.67-.55,2.32,2.32,0,0,1,1-.21,2.49,2.49,0,0,1,1.07.21,1.69,1.69,0,0,1,.69.56,1.43,1.43,0,0,1,.24.81H213.7a.74.74,0,0,0-.22-.52.87.87,0,0,0-.65-.22,1,1,0,0,0-.45.09.67.67,0,0,0-.27.22.53.53,0,0,0-.09.3.45.45,0,0,0,.09.28.72.72,0,0,0,.3.21,3.27,3.27,0,0,0,.61.18,5,5,0,0,1,1,.3,1.6,1.6,0,0,1,.64.47,1.21,1.21,0,0,1,.22.75,1.27,1.27,0,0,1-.25.78,1.74,1.74,0,0,1-.7.53,2.68,2.68,0,0,1-1.06.19,2.48,2.48,0,0,1-1.15-.24,1.74,1.74,0,0,1-.71-.62,1.48,1.48,0,0,1-.24-.79h1.09a.83.83,0,0,0,.17.47.79.79,0,0,0,.38.26,1.45,1.45,0,0,0,.47.08,1.2,1.2,0,0,0,.49-.08.59.59,0,0,0,.29-.21A.49.49,0,0,0,213.75,141.67Z"/><path class="cls-10" d="M218.11,138.9h-2.82v-.84h2.82Zm-.88-2.05v4.77a.82.82,0,0,0,.06.35.31.31,0,0,0,.18.16,1.18,1.18,0,0,0,.28,0l.22,0,.17,0V143l-.32.08a2.58,2.58,0,0,1-.42,0,1.62,1.62,0,0,1-.68-.14,1,1,0,0,1-.46-.44,1.77,1.77,0,0,1-.17-.83v-4.85Z"/><path class="cls-10" d="M115.39,153.45a1,1,0,0,0,.48-.11.88.88,0,0,0,.34-.29.81.81,0,0,0,.14-.43h1.07a1.61,1.61,0,0,1-.28.88,2.13,2.13,0,0,1-.73.63,2.46,2.46,0,0,1-2.27-.1,2.09,2.09,0,0,1-.75-.91,3.13,3.13,0,0,1-.25-1.25v-.15a3.22,3.22,0,0,1,.25-1.26,2.12,2.12,0,0,1,.75-.9,2.23,2.23,0,0,1,1.26-.33,2.2,2.2,0,0,1,1,.23,1.78,1.78,0,0,1,.7.66,1.87,1.87,0,0,1,.27,1h-1.07a1.11,1.11,0,0,0-.13-.48.8.8,0,0,0-.33-.35,1.1,1.1,0,0,0-1.19.1,1.18,1.18,0,0,0-.33.59,3.1,3.1,0,0,0-.09.76v.15a3.19,3.19,0,0,0,.09.77,1.23,1.23,0,0,0,.33.59A1,1,0,0,0,115.39,153.45Z"/><path class="cls-10" d="M118.05,151.75a3,3,0,0,1,.27-1.29,2.16,2.16,0,0,1,.79-.9,2.25,2.25,0,0,1,1.24-.33,2.28,2.28,0,0,1,1.25.33,2.16,2.16,0,0,1,.79.9,3,3,0,0,1,.27,1.29v.09a3,3,0,0,1-.27,1.29,2.09,2.09,0,0,1-.79.9,2.25,2.25,0,0,1-1.24.33,2.28,2.28,0,0,1-1.25-.33,2.16,2.16,0,0,1-.79-.9,3,3,0,0,1-.27-1.29Zm1.13.09a2.33,2.33,0,0,0,.13.81,1.25,1.25,0,0,0,.38.58,1,1,0,0,0,.67.22,1,1,0,0,0,.67-.22,1.34,1.34,0,0,0,.38-.58,2.6,2.6,0,0,0,.12-.81v-.09a2.53,2.53,0,0,0-.12-.8,1.3,1.3,0,0,0-.39-.59,1,1,0,0,0-.67-.22,1,1,0,0,0-.67.22,1.29,1.29,0,0,0-.38.59,2.53,2.53,0,0,0-.12.8Z"/><path class="cls-10" d="M124.72,154.27h-1.14v-5h1.07l.07,1Zm-.57-2.65a3.17,3.17,0,0,1,.22-1.23,1.89,1.89,0,0,1,.66-.85,1.82,1.82,0,0,1,1.09-.31,1.56,1.56,0,0,1,1.11.4,1.77,1.77,0,0,1,.44,1.34v3.3h-1.14v-3.2a1,1,0,0,0-.11-.54.6.6,0,0,0-.3-.29,1.08,1.08,0,0,0-.46-.09,1,1,0,0,0-.52.12,1,1,0,0,0-.35.31,1.41,1.41,0,0,0-.19.47,2.56,2.56,0,0,0-.06.57Zm2.91-.16a2.91,2.91,0,0,1,.23-1.12,1.76,1.76,0,0,1,1.71-1.11,1.91,1.91,0,0,1,.86.18,1.19,1.19,0,0,1,.56.59,2.49,2.49,0,0,1,.2,1.07v3.2h-1.14v-3.2a1.18,1.18,0,0,0-.11-.56.55.55,0,0,0-.3-.28,1.26,1.26,0,0,0-.46-.08,1,1,0,0,0-.44.1.87.87,0,0,0-.32.25,1.23,1.23,0,0,0-.19.38,1.78,1.78,0,0,0-.07.47Z"/><path class="cls-10" d="M132.88,156.18h-1.14v-6.86h1l.09,1Zm3.21-4.34a3.49,3.49,0,0,1-.22,1.29,2.1,2.1,0,0,1-.65.9,1.88,1.88,0,0,1-2.08,0,2.09,2.09,0,0,1-.64-.84,4.45,4.45,0,0,1-.31-1.22v-.33a4.62,4.62,0,0,1,.31-1.28,2.09,2.09,0,0,1,.64-.86,1.67,1.67,0,0,1,1-.3,1.75,1.75,0,0,1,1.06.31,2,2,0,0,1,.65.89,3.49,3.49,0,0,1,.22,1.31Zm-1.13-.1a2.53,2.53,0,0,0-.12-.8,1.18,1.18,0,0,0-.35-.57,1,1,0,0,0-.64-.22,1.22,1.22,0,0,0-.49.1,1,1,0,0,0-.35.26,1.53,1.53,0,0,0-.22.4,2.71,2.71,0,0,0-.1.51v.83a1.91,1.91,0,0,0,.18.6,1,1,0,0,0,1,.6.88.88,0,0,0,.63-.22,1.26,1.26,0,0,0,.36-.59,2.86,2.86,0,0,0,.11-.8Z"/><path class="cls-10" d="M140,152h-.78a1.55,1.55,0,0,0-.91.23.69.69,0,0,0-.3.6.64.64,0,0,0,.2.49.77.77,0,0,0,.57.19,1.21,1.21,0,0,0,.58-.13,1.09,1.09,0,0,0,.39-.34.63.63,0,0,0,.15-.37l.36.51a1.79,1.79,0,0,1-.19.4,1.77,1.77,0,0,1-.34.4,1.69,1.69,0,0,1-.5.31,1.79,1.79,0,0,1-.68.12,1.84,1.84,0,0,1-.86-.19,1.41,1.41,0,0,1-.6-.53,1.33,1.33,0,0,1-.22-.76,1.39,1.39,0,0,1,.59-1.2,2.82,2.82,0,0,1,1.68-.43H140Zm-.17-1a.88.88,0,0,0-.22-.61.83.83,0,0,0-.64-.23,1.06,1.06,0,0,0-.45.09.73.73,0,0,0-.3.24.59.59,0,0,0-.1.34H137a1.29,1.29,0,0,1,.25-.74,1.73,1.73,0,0,1,.72-.57,2.54,2.54,0,0,1,1.08-.21,2.59,2.59,0,0,1,1,.18,1.58,1.58,0,0,1,.68.57,1.66,1.66,0,0,1,.25,1v2.19a3.67,3.67,0,0,0,0,.61,1.78,1.78,0,0,0,.14.46v.08H140a2,2,0,0,1-.12-.46,3.52,3.52,0,0,1,0-.56Z"/><path class="cls-10" d="M143.2,154.27h-1.14v-5h1.07l.07,1.05Zm-.57-2.65a3.08,3.08,0,0,1,.25-1.26,2.13,2.13,0,0,1,.69-.84,1.89,1.89,0,0,1,1-.29,1.78,1.78,0,0,1,.83.18,1.2,1.2,0,0,1,.55.58,2.52,2.52,0,0,1,.2,1.09v3.19h-1.14v-3.2a1.3,1.3,0,0,0-.1-.54.58.58,0,0,0-.29-.29,1.14,1.14,0,0,0-.48-.09,1,1,0,0,0-.5.12,1.1,1.1,0,0,0-.37.31,1.47,1.47,0,0,0-.23.47,1.75,1.75,0,0,0-.08.57Z"/><path class="cls-10" d="M147.3,148a.6.6,0,0,1,.17-.43.61.61,0,0,1,.47-.17.64.64,0,0,1,.48.17.6.6,0,0,1,.17.43.61.61,0,0,1-.17.43.69.69,0,0,1-.48.17.64.64,0,0,1-.47-.17A.61.61,0,0,1,147.3,148Zm1.21,6.25h-1.14v-5h1.14Z"/><path class="cls-10" d="M151.9,154.36a2.41,2.41,0,0,1-1.28-.32,2.12,2.12,0,0,1-.82-.86,2.55,2.55,0,0,1-.29-1.21v-.19a3,3,0,0,1,.29-1.35,2.25,2.25,0,0,1,.81-.89,2.13,2.13,0,0,1,1.15-.31,2.17,2.17,0,0,1,1.19.3,2,2,0,0,1,.71.86,3.34,3.34,0,0,1,.23,1.27v.49h-3.83v-.82h2.71v-.09a1.92,1.92,0,0,0-.11-.54,1,1,0,0,0-.32-.41,1,1,0,0,0-.58-.15.92.92,0,0,0-.61.2,1.29,1.29,0,0,0-.37.57,2.57,2.57,0,0,0-.13.87V152a1.79,1.79,0,0,0,.15.75,1.25,1.25,0,0,0,.46.53,1.24,1.24,0,0,0,.71.2,1.53,1.53,0,0,0,1.24-.61l.59.6a2.2,2.2,0,0,1-.7.64A2.27,2.27,0,0,1,151.9,154.36Z"/><path class="cls-10" d="M157.5,152.92a.54.54,0,0,0-.08-.28.67.67,0,0,0-.31-.24,2.58,2.58,0,0,0-.67-.2,4.42,4.42,0,0,1-.93-.3,1.67,1.67,0,0,1-.62-.47,1.09,1.09,0,0,1-.22-.7,1.28,1.28,0,0,1,.23-.75,1.65,1.65,0,0,1,.66-.55,2.34,2.34,0,0,1,1-.2,2.52,2.52,0,0,1,1.07.2,1.63,1.63,0,0,1,.69.57,1.37,1.37,0,0,1,.24.8h-1.14a.67.67,0,0,0-.22-.51.86.86,0,0,0-.65-.23,1,1,0,0,0-.45.09.67.67,0,0,0-.27.22.59.59,0,0,0-.09.31.47.47,0,0,0,.09.28.7.7,0,0,0,.31.21,3.15,3.15,0,0,0,.61.17,5.18,5.18,0,0,1,1,.3,1.56,1.56,0,0,1,.63.48,1.17,1.17,0,0,1,.22.75,1.25,1.25,0,0,1-.25.77,1.67,1.67,0,0,1-.7.53,2.64,2.64,0,0,1-1.06.19,2.48,2.48,0,0,1-1.15-.24,1.81,1.81,0,0,1-.71-.62,1.43,1.43,0,0,1-.24-.79h1.1a.79.79,0,0,0,.16.48.82.82,0,0,0,.38.25,1.26,1.26,0,0,0,.47.08,1.37,1.37,0,0,0,.49-.07.69.69,0,0,0,.3-.22A.48.48,0,0,0,157.5,152.92Z"/><path class="cls-10" d="M161.9,148a.56.56,0,0,1,.17-.43.73.73,0,0,1,.94,0,.57.57,0,0,1,.18.43.58.58,0,0,1-.18.43.73.73,0,0,1-.94,0A.57.57,0,0,1,161.9,148Zm1.2,6.25H162v-5h1.13Z"/><path class="cls-10" d="M165.42,154.27h-1.13v-5h1.06l.07,1.05Zm-.57-2.65a3.08,3.08,0,0,1,.26-1.26,2,2,0,0,1,.69-.84,1.86,1.86,0,0,1,1-.29,1.78,1.78,0,0,1,.83.18,1.2,1.2,0,0,1,.55.58,2.38,2.38,0,0,1,.2,1.09v3.19h-1.14v-3.2a1.16,1.16,0,0,0-.1-.54.55.55,0,0,0-.29-.29,1.13,1.13,0,0,0-.47-.09,1.07,1.07,0,0,0-.51.12,1.2,1.2,0,0,0-.37.31,1.47,1.47,0,0,0-.23.47,2.07,2.07,0,0,0-.08.57Z"/><path class="cls-10" d="M174.15,150.15h-2.81v-.83h2.81Zm-.88-2.05v4.77a.79.79,0,0,0,.06.35.37.37,0,0,0,.19.16.77.77,0,0,0,.27,0H174l.17,0v.87l-.32.08a2.58,2.58,0,0,1-.42,0,1.62,1.62,0,0,1-.68-.13,1.11,1.11,0,0,1-.46-.45,1.75,1.75,0,0,1-.17-.82V148.1Z"/><path class="cls-10" d="M176.1,154.27H175v-7h1.14Zm-.56-2.65a3,3,0,0,1,.24-1.23,2,2,0,0,1,.67-.85,1.71,1.71,0,0,1,1-.31,1.94,1.94,0,0,1,.86.18,1.22,1.22,0,0,1,.56.6,2.38,2.38,0,0,1,.2,1.09v3.17H178v-3.18a1.28,1.28,0,0,0-.1-.56.58.58,0,0,0-.29-.29,1.14,1.14,0,0,0-.48-.09,1.07,1.07,0,0,0-.51.12,1,1,0,0,0-.37.31,1.47,1.47,0,0,0-.23.47,2.54,2.54,0,0,0-.07.57Z"/><path class="cls-10" d="M182.39,154.36a2.35,2.35,0,0,1-1.27-.32,2.08,2.08,0,0,1-.83-.86A2.55,2.55,0,0,1,180,152v-.19a2.86,2.86,0,0,1,.3-1.35,2.28,2.28,0,0,1,3.14-.9,1.93,1.93,0,0,1,.71.86,3.34,3.34,0,0,1,.23,1.27v.49h-3.83v-.82h2.71v-.09a1.62,1.62,0,0,0-.11-.54.92.92,0,0,0-.32-.41,1,1,0,0,0-.58-.15.92.92,0,0,0-.61.2,1.29,1.29,0,0,0-.37.57,2.57,2.57,0,0,0-.13.87V152a1.79,1.79,0,0,0,.15.75,1.26,1.26,0,0,0,1.17.73,1.53,1.53,0,0,0,1.24-.61l.59.6a2.2,2.2,0,0,1-.7.64A2.27,2.27,0,0,1,182.39,154.36Z"/><path class="cls-10" d="M192.57,147.6v4.45a2.34,2.34,0,0,1-.33,1.28,2.17,2.17,0,0,1-.9.77,3.28,3.28,0,0,1-2.56,0,2.08,2.08,0,0,1-.89-.77,2.43,2.43,0,0,1-.32-1.28V147.6h1.18v4.45a1.6,1.6,0,0,0,.16.77,1.05,1.05,0,0,0,.46.45,1.54,1.54,0,0,0,.7.14,1.51,1.51,0,0,0,.7-.14,1.05,1.05,0,0,0,.46-.45,1.72,1.72,0,0,0,.16-.77V147.6Z"/><path class="cls-10" d="M195,154.27H193.8V147.6H195Zm1.31-3.44-1.55,1.64-.2-1.18,1.09-1.37,1.91-2.32H199Zm-.75.3.82-.8,2.75,3.94H197.7Z"/><path class="cls-10" d="M199.66,153.7a.61.61,0,0,1,.18-.45.65.65,0,0,1,.48-.18.66.66,0,0,1,.49.18.61.61,0,0,1,.18.45.59.59,0,0,1-.18.44.66.66,0,0,1-.49.18.65.65,0,0,1-.48-.18A.59.59,0,0,1,199.66,153.7Z"/><g class="cls-11"><path class="cls-12" d="M116,111.75H24.77a8,8,0,0,0-8,8V174a8,8,0,0,0,8,8H116a8,8,0,0,0,8-8V119.79A8,8,0,0,0,116,111.75Z"/><path class="cls-13" d="M124,118.46a8,8,0,0,0-7.92-6.71h-2.1L79.66,134.21V111.75H61.15v22.46L26.87,111.75h-2.1a8,8,0,0,0-7.92,6.71l29.3,19.2H16.73v18.51H46.15l-29.3,19.2a8,8,0,0,0,7.92,6.71h2.1l34.28-22.47v22.47H79.66V159.61l34.28,22.47H116a8,8,0,0,0,7.92-6.71l-29.3-19.2h29.42V137.66H94.66Z"/><polygon class="cls-9" points="75.96 111.75 64.85 111.75 64.85 141.36 16.73 141.36 16.73 152.47 64.85 152.47 64.85 182.08 75.96 182.08 75.96 152.47 124.08 152.47 124.08 141.36 75.96 141.36 75.96 111.75"/><path class="cls-9" d="M21.93,181.56l39.12-25.39h-6.8L18.67,179.26A8,8,0,0,0,21.93,181.56Z"/><path class="cls-9" d="M89.35,156.17H82.56l37.88,24.59A8.15,8.15,0,0,0,123,178Z"/><path class="cls-9" d="M17.58,116.19l33.07,21.47h6.8L20,113.34A8.07,8.07,0,0,0,17.58,116.19Z"/><path class="cls-9" d="M86.46,137.66l35.64-23.14a8.11,8.11,0,0,0-3.29-2.28L79.66,137.66Z"/></g><path class="cls-4" d="M117.19,170.82a5.21,5.21,0,0,1,1.9.32,2.76,2.76,0,0,1,1.23,1,2.68,2.68,0,0,1,.44,1.56,3.24,3.24,0,0,1-.25,1.38,2.29,2.29,0,0,1-.68.88,4.47,4.47,0,0,1-1,.59L118,177H115V175h2.21a1.63,1.63,0,0,0,.67-.13.85.85,0,0,0,.39-.38,1.34,1.34,0,0,0,.13-.63,1.13,1.13,0,0,0-.29-.84,1.18,1.18,0,0,0-.87-.3h-1.33v7.39h-2.4v-9.33Zm-.73,5.22,2.55,0,2.06,4v.1h-2.58Z"/><path class="cls-4" d="M124,180.15h-2.59l3.43-9.33h1.62l-.28,2.25Zm3.93-1.56h-4.79v-1.94h4.79Zm-2.17-5.52-.31-2.25h1.64l3.44,9.33h-2.58Z"/><path class="cls-4" d="M134.87,170.82a5.12,5.12,0,0,1,1.89.32,2.74,2.74,0,0,1,1.24,1,2.68,2.68,0,0,1,.44,1.56,3.24,3.24,0,0,1-.25,1.38,2.22,2.22,0,0,1-.69.88,4.2,4.2,0,0,1-1,.59l-.79.48h-3.05V175h2.21a1.55,1.55,0,0,0,.66-.13.87.87,0,0,0,.4-.38,1.34,1.34,0,0,0,.13-.63,1.13,1.13,0,0,0-.29-.84,1.18,1.18,0,0,0-.87-.3h-1.33v7.39h-2.4v-9.33Zm-.73,5.22,2.55,0,2.06,4v.1h-2.58Z"/><path class="cls-4" d="M139.79,174.07a1.15,1.15,0,0,1,.35-.85,1.4,1.4,0,0,1,1.83,0,1.21,1.21,0,0,1,0,1.7,1.4,1.4,0,0,1-1.83,0A1.15,1.15,0,0,1,139.79,174.07Zm0,5a1.15,1.15,0,0,1,.35-.85,1.4,1.4,0,0,1,1.83,0,1.21,1.21,0,0,1,0,1.7,1.4,1.4,0,0,1-1.83,0A1.15,1.15,0,0,1,139.79,179Z"/><path class="cls-4" d="M153.51,176.36a5,5,0,0,1-.42,2.2,2.88,2.88,0,0,1-1.16,1.29,3.31,3.31,0,0,1-1.7.43,3.35,3.35,0,0,1-1.72-.43,2.84,2.84,0,0,1-1.17-1.29,5,5,0,0,1-.42-2.2v-1.75a5,5,0,0,1,.42-2.19,3,3,0,0,1,1.16-1.3,3.62,3.62,0,0,1,3.42,0,3,3,0,0,1,1.16,1.3,4.88,4.88,0,0,1,.43,2.19Zm-2.32-2.05a3.6,3.6,0,0,0-.12-1.05,1,1,0,0,0-.34-.54.83.83,0,0,0-.52-.16.85.85,0,0,0-.52.16,1,1,0,0,0-.34.54,3.6,3.6,0,0,0-.12,1.05v2.35a3.75,3.75,0,0,0,.12,1.07,1.1,1.1,0,0,0,.35.54,1,1,0,0,0,1,0,1.1,1.1,0,0,0,.34-.54,4.22,4.22,0,0,0,.11-1.07Z"/><path class="cls-4" d="M154.76,179a1.13,1.13,0,0,1,.36-.85,1.39,1.39,0,0,1,1.82,0,1.21,1.21,0,0,1,0,1.7,1.39,1.39,0,0,1-1.82,0A1.13,1.13,0,0,1,154.76,179Z"/><path class="cls-4" d="M165.34,178.23H158.6l-.14-1.49,3.69-5.92H164L162,174.15l-1.38,2.23h4.69Zm-.89,1.92h-2.31v-9.33h2.31Z"/><path class="cls-14" d="M260.9,95.58a3.16,3.16,0,0,1-1.63-.41,2.71,2.71,0,0,1-1-1.1,3.24,3.24,0,0,1-.37-1.56v-.24a3.73,3.73,0,0,1,.37-1.72A2.75,2.75,0,0,1,260.73,89a2.67,2.67,0,0,1,1.52.4,2.42,2.42,0,0,1,.9,1.09,4.11,4.11,0,0,1,.3,1.62v.63h-4.91v-1H262v-.11a1.74,1.74,0,0,0-.14-.69,1.06,1.06,0,0,0-.41-.52,1.18,1.18,0,0,0-.74-.2,1.14,1.14,0,0,0-.77.26,1.55,1.55,0,0,0-.49.73,3.71,3.71,0,0,0-.16,1.11v.24a2.34,2.34,0,0,0,.2,1,1.58,1.58,0,0,0,1.49.92,1.87,1.87,0,0,0,.9-.2,2,2,0,0,0,.69-.57l.76.76a2.78,2.78,0,0,1-.9.82A3,3,0,0,1,260.9,95.58Z"/><path class="cls-14" d="M264.27,92.24a4.4,4.4,0,0,1,.3-1.69,2.58,2.58,0,0,1,.86-1.14,2.22,2.22,0,0,1,1.34-.41,2,2,0,0,1,1.28.4,2.73,2.73,0,0,1,.81,1.1,6,6,0,0,1,.4,1.64v.34a5.68,5.68,0,0,1-.4,1.6,2.56,2.56,0,0,1-.81,1.1,2.3,2.3,0,0,1-2.62,0,2.67,2.67,0,0,1-.86-1.15,4.26,4.26,0,0,1-.3-1.65Zm1.45.12a3.64,3.64,0,0,0,.14,1,1.62,1.62,0,0,0,.45.73,1.16,1.16,0,0,0,.81.28,1.3,1.3,0,0,0,1.26-.78,2.49,2.49,0,0,0,.24-.8v-1a2.68,2.68,0,0,0-.14-.65,1.75,1.75,0,0,0-.29-.52,1.37,1.37,0,0,0-.44-.34,1.49,1.49,0,0,0-.62-.12,1.2,1.2,0,0,0-.81.27,1.64,1.64,0,0,0-.46.74,3.74,3.74,0,0,0-.14,1Zm2.66-5.9h1.46v9h-1.32l-.14-1.33Z"/><path class="cls-14" d="M271.31,87.46a.75.75,0,0,1,.21-.55.82.82,0,0,1,.61-.22.83.83,0,0,1,.61.22.76.76,0,0,1,.22.55.78.78,0,0,1-.22.55.88.88,0,0,1-.61.22.86.86,0,0,1-.61-.22A.77.77,0,0,1,271.31,87.46Zm1.54,8H271.4V89.12h1.45Z"/><path class="cls-14" d="M277.32,90.19h-3.6V89.12h3.6Zm-1.13-2.62v6.1a.85.85,0,0,0,.09.44.43.43,0,0,0,.23.21,1.23,1.23,0,0,0,.35.05l.28,0,.22,0v1.12a3.19,3.19,0,0,1-.41.09,2.76,2.76,0,0,1-.54,0,2.05,2.05,0,0,1-.87-.18,1.35,1.35,0,0,1-.59-.57,2.28,2.28,0,0,1-.21-1V87.57Z"/></svg>