<svg id="Layer_1" data-name="Layer 1" xmlns="http://www.w3.org/2000/svg" viewBox="0 0 632 375"><defs><style>.cls-1{fill:#f6f8fc;}.cls-2{fill:#fff;}.cls-3{fill:#0093de;}.cls-4{fill:#616774;}.cls-5{fill:#1c272d;}</style></defs><rect class="cls-1" width="632" height="375"/><rect class="cls-2" x="115.05" y="129.49" width="116.03" height="116.03" rx="4"/><path class="cls-3" d="M183.58,194.55a7.88,7.88,0,0,0,2-1.41c1.23-1.08,1.42-2.51,2.52-3.88a47.59,47.59,0,0,1,3.82-3.94,33,33,0,0,1-1.54,4.86,6.9,6.9,0,0,1-2.31,2.93,1.51,1.51,0,0,0,1.42.06,5.23,5.23,0,0,1,2.89-.68,6.58,6.58,0,0,0,4.28-.72c1.53-.91,2.9-1.79,2.9-1.79a8.43,8.43,0,0,1-4.8,4.57c-2.46,1.06-5.36,1-6.26.54a4,4,0,0,0-2.76-.5,6.09,6.09,0,0,1-2.18,0"/><path class="cls-3" d="M196,178.85a37.9,37.9,0,0,0,.21,3.84,5.85,5.85,0,0,1-.44,3.16c-.41,1-1.1,2.31-.6,2.58s.67-.81,1.76-1.59,3.06-1.78,4.14-2.42a11.68,11.68,0,0,0,3.05-3,11.76,11.76,0,0,1-4.49,7c-2.46,1.7-7.35,2.13-7.35,2.13a3.26,3.26,0,0,0,.78-1.64c.27-1.17.4-3.66.89-5.24a52.18,52.18,0,0,1,2.05-4.83"/><path class="cls-3" d="M198,172.4a47.87,47.87,0,0,1,1.59,4.54,24.68,24.68,0,0,1-.1,4,15.1,15.1,0,0,0,2.3-2.84c.89-1.41,2.16-1.9,2.89-3s1-1.58,1-1.58a36.7,36.7,0,0,1-1.5,5c-1.32,3.06-6.56,6.29-6.56,6.29a13.52,13.52,0,0,0,.42-2.66,29.64,29.64,0,0,0-.45-5.12,28.39,28.39,0,0,1,.41-4.53"/><path class="cls-3" d="M197.89,165.15a18.88,18.88,0,0,1,1.26,1.85c.86,1.35,2,2.8,2,3.62s.45,1.81.72,1.76.27-1,.68-2.38,1.61-2.78,1.81-3.81c.16-.84.49-2,.49-2a17.55,17.55,0,0,1-.13,6.47,10.32,10.32,0,0,1-2.75,4.65c-.28.36-.78.86-.78.86s.27.27-.54-1.54-1.38-2.92-2.09-4.26c-.55-1-.71-5.18-.71-5.18"/><path class="cls-3" d="M196.08,159.17a15.53,15.53,0,0,1,2.87,2.12c1,1.1,2.15,3.14,2.51,3.05s0-1.81.07-2.49a28,28,0,0,0,.22-4.54c-.13-.81-.38-2-.38-2s2.25,3.29,2.2,5.63.07,2.88-1,4.71a11.08,11.08,0,0,0-.91,2.3,8.79,8.79,0,0,0-1.1-1.63c-.76-1-2.42-2.58-3-4s-1.48-3.15-1.48-3.15"/><path class="cls-3" d="M193.09,153.42a14.47,14.47,0,0,0,1.47,1.15,23.19,23.19,0,0,1,2.68,1.69c.62.63,1.42,1.37,1.74,1.18s-.1-.74-.59-2.1-.51-2.7-.91-3.29a8.8,8.8,0,0,1-.77-1.74s2.49,1.93,2.94,3.51a38.41,38.41,0,0,1,.4,6.56,6.73,6.73,0,0,0-1.3-1.26c-.87-.63-3-2.2-3.76-2.77a6.5,6.5,0,0,1-1.9-2.93"/><path class="cls-3" d="M191.08,148.11a9.86,9.86,0,0,1,3.26,1.62c1.26,1.09,2.3,4.08,2.3,4.08A16.88,16.88,0,0,1,193.7,152a28.37,28.37,0,0,1-2.62-3.84"/><path class="cls-3" d="M152.62,196.17a9.35,9.35,0,0,0,4.06,1.05,40.07,40.07,0,0,0,6.32-1.47,17,17,0,0,1,6.46-.69c1.3.23,3.6.53,3.6.53s3-.47,5.3-.59a13.57,13.57,0,0,1,4.49.82,29.47,29.47,0,0,0,6.45,1.53,10.21,10.21,0,0,0,4.43-.95s-.25,1.84-6.29,2.42c-3.59.34-5.07.07-6.65-.94a12,12,0,0,0-4.09-1.9,18.66,18.66,0,0,0-2,.06,15,15,0,0,1,3.25,1.64c1.08.85,3.87,3.14,3.87,3.14l-.7.79a13,13,0,0,0-2.84-2.85c-1.77-1.28-4.25-2.56-5.18-2.56s-3.92,1.38-5.86,3.18a12.93,12.93,0,0,0-2.07,2.16l-.72-.72a23.71,23.71,0,0,1,3.31-2.65,40.61,40.61,0,0,1,3.9-2.23s-.06-.19-1.21-.09a7.68,7.68,0,0,0-4,1.43A8.79,8.79,0,0,1,162,199a17,17,0,0,1-7-1c-2-.85-2.42-1.84-2.42-1.84"/><path class="cls-3" d="M146.56,189.69a32.29,32.29,0,0,0,2.68,1.93c1.91,1.08,3.58.59,4.78.75a12,12,0,0,1,2.66.63c.36.17,1.44.26,1.54.07s-1-.68-1.8-2.13a23.35,23.35,0,0,1-1.9-5.6,17.33,17.33,0,0,1,3.43,3.44c1.64,2.16,1.42,3.23,2.56,4.19a13.49,13.49,0,0,0,2.33,1.57,16,16,0,0,0-2.58-.06c-1.08.1-2.9.84-4.55.81a9.26,9.26,0,0,1-7.21-3,9.9,9.9,0,0,1-1.94-2.58"/><path class="cls-3" d="M142,181.57a17.07,17.07,0,0,0,2.66,2.71c1.58,1.28,4,2,4.79,3s1.17,1.67,1.63,1.44-.28-1-.58-2.23a19.46,19.46,0,0,1-.31-5.7,7.32,7.32,0,0,0,.07-1.64,34.43,34.43,0,0,1,1.58,3.15c.78,1.77.73,4.81,1.08,6.16a6.62,6.62,0,0,0,1.11,2.35,16.3,16.3,0,0,1-3.64-.59c-1.21-.46-4.61-1.7-5.89-3.8a50.51,50.51,0,0,1-2.5-4.81"/><path class="cls-3" d="M140.49,173.48a6.43,6.43,0,0,0,1.27,2,22.5,22.5,0,0,1,2.19,2.19c.65.76,2.17,3.69,2.66,3.61s-.2-1.58,0-3.05a18.53,18.53,0,0,1,1.84-5.49,38.13,38.13,0,0,1,.26,4.93c-.09,1.84-.72,3.9-.49,5s.36,2.35.36,2.35a42.32,42.32,0,0,1-4.1-3.13,13.07,13.07,0,0,1-3.95-8.36"/><path class="cls-3" d="M141.13,164.31s-.31,4.55.27,6.62a12,12,0,0,0,3.46,5.47,11.28,11.28,0,0,1,.79-2.33c.56-1.18,1.44-2.35,1.8-3.3a22.64,22.64,0,0,0,.85-5.21s-.62.94-1.18,1.7a14.73,14.73,0,0,0-1.77,2.92c-.52,1.25-.59,2.39-1.18,2.45-.82.08-.13-1.1-.82-2.72a30.85,30.85,0,0,1-1.76-4,6.5,6.5,0,0,0-.46-1.58"/><path class="cls-3" d="M144.72,155.53a12,12,0,0,0-2.07,4.7,8.74,8.74,0,0,0,.79,5.58,7.9,7.9,0,0,1,.78,2.52,5.78,5.78,0,0,1,1.05-1.61,20.28,20.28,0,0,0,3-3.56,32.35,32.35,0,0,0,1.74-3.64,16,16,0,0,0-2.3,1.58,16.68,16.68,0,0,0-3.08,3.66,1.37,1.37,0,0,1-.39-1.28,9.2,9.2,0,0,0,.24-2.75,7.86,7.86,0,0,1-.18-2.39c.18-1.05.44-2.81.44-2.81"/><path class="cls-3" d="M149.62,150.44s-2.42,1.47-3.07,3.31c-.5,1.4-.3,2.88-.53,4.35a6.45,6.45,0,0,0,.07,2.49,7.41,7.41,0,0,1,1-1.27,17.8,17.8,0,0,1,3.14-2.14,9.23,9.23,0,0,0,2.95-3.7,14.37,14.37,0,0,1-1.78,1.41,23.41,23.41,0,0,0-2.5,1.45,4.43,4.43,0,0,0-1.08,1.65,1.59,1.59,0,0,1-.5-1.49,19.7,19.7,0,0,0,.81-2.16,11.61,11.61,0,0,1,.72-2.53c.32-.54.72-1.37.72-1.37"/><path class="cls-3" d="M151.38,150.32a15.13,15.13,0,0,1,3.73-2,21.35,21.35,0,0,1-2.45,3.28,13.43,13.43,0,0,1-3.35,2.42,7.58,7.58,0,0,1,2.07-3.74"/><path class="cls-3" d="M164.23,153.56c2.53,0,7.62,2.74,7.62,6.39a5.61,5.61,0,0,1-1.77,3.84,5.83,5.83,0,0,1-.11,1.66c-.33.73-.67.52-1.11,1.18s-.62,1.69-2.47,1.69-1.81-.59-2.69-.59a2.07,2.07,0,0,0-1.48.85v6.61s.19.84,1.85,1.72a11.26,11.26,0,0,0,3.47,1.44c.51,0,.51-.58,1.14-.58s3.17,0,3.17,1.18-1.25,2-5.83,2a49.18,49.18,0,0,1-6.49-.36c-.52,0-.59.11-.59.81s0,1.69,0,1.69a5.46,5.46,0,0,0,1.69,1.7,4.6,4.6,0,0,0,2.47.74,10.54,10.54,0,0,0,3.84-.89,9.33,9.33,0,0,1,3.91-.88c1.44,0,4-.33,4-1.81s-.55-2-.55-3.13.18-2.15-.37-2.7-3-2.32-3-3.31.89-1.44,1-2,0-.89.4-1a4.62,4.62,0,0,0,.67-.26l.18-.92a4.34,4.34,0,0,0,.74-.45c.26-.21.47-.36.47-.36a1.33,1.33,0,0,1,.19-1.15,1.62,1.62,0,0,1,1.37-.33c.4,0,1.65-.15,1.65-.15a4,4,0,0,1,.86-1.06c.74-.56,2.76-.85,3.28-1.26s1.06-1.4,2.43-1.4c5.6,0,9.36,5.06,9.36,7.78,0,4.72-3.06,10.43-7.33,10.43-3.36,0-3.14,1-3.14,2.11a3.13,3.13,0,0,0,2.51,3.06s-5.27,4-11.39,4a21,21,0,0,1-15.77-6.73A18.76,18.76,0,0,1,153.32,170v-2.64a20.54,20.54,0,0,1,2.45-1.66c.93-.46,3-1.66,3-2.65a31.19,31.19,0,0,1-.38-3.45,7.13,7.13,0,0,1,1.11-3.89,5.86,5.86,0,0,1,4.75-2.15"/><path class="cls-3" d="M173.28,147.5a22.28,22.28,0,1,0,22.27,22.27,22.27,22.27,0,0,0-22.27-22.27ZM189.91,156a14.64,14.64,0,0,1,1.68,2.36,6.73,6.73,0,0,1-1.67,1.2c-.89.42-2.56,1-2.56,1a30.61,30.61,0,0,0-1.1-2.91c-.49-1-1-2.2-1-2.2l1.22-.84c.72-.52,1.21-1,1.21-1a29.64,29.64,0,0,1,2.22,2.3Zm-7.35-5.73a15,15,0,0,1,2.52,1.42c1,.74,2.18,1.66,2.18,1.66a2.81,2.81,0,0,1-.74.74,8.22,8.22,0,0,1-1.39.8s-.75-1-1.38-1.85-1.81-2.16-1.81-2.16a4.49,4.49,0,0,0,.4-.42c.15-.17.22-.19.22-.19Zm-2.91,4.64a8.08,8.08,0,0,0-.81-2,17.33,17.33,0,0,0,1.53-.84c.62-.4,1.11-.8,1.11-.8s1.06,1.06,1.83,2a19.7,19.7,0,0,1,1.31,1.88s-1,.44-2.11,1a11.09,11.09,0,0,1-2.54.72,18.62,18.62,0,0,0-.32-1.95Zm.56,7.61a12.57,12.57,0,0,1-2.25.21c-1.74.07-3.27,0-3.27,0v-4.92s1.34.09,2.33.09a19.92,19.92,0,0,0,2.65-.3s.1.77.3,2a24.2,24.2,0,0,1,.24,2.94Zm.55-13a6.36,6.36,0,0,1,1.33.6l-.64.5s-.46-.42-.86-.82a4,4,0,0,0-1.41-.75s1,.31,1.58.47Zm-1.75-.17a8.46,8.46,0,0,1,2,1.61s-.42.28-1,.71a4.15,4.15,0,0,1-1.42.6s-.51-1.23-.88-1.94a13.62,13.62,0,0,0-1.5-1.87,10.45,10.45,0,0,1,2.81.89Zm-4.42-1s1.22-.33,2.33,1.78c.58,1.09,1.11,2.33,1.11,2.33a11.68,11.68,0,0,1-1.73.36,7.26,7.26,0,0,1-1.71-.05v-4.42Zm0,5.06a13.1,13.1,0,0,0,1.81,0,15.69,15.69,0,0,0,1.89-.27,4.05,4.05,0,0,1,.65,1.75c.28,1.27.43,2.18.43,2.18a13.66,13.66,0,0,1-2.48.37,9.57,9.57,0,0,1-2.3-.07v-4Zm-.66-5.06.09,4.49a6.37,6.37,0,0,1-2-.2,6.26,6.26,0,0,1-1.54-.6,17.68,17.68,0,0,1,1.29-2.12c1.61-2.2,2.19-1.57,2.19-1.57Zm-1.36-.12a8.89,8.89,0,0,0-1.49,1.87,16.59,16.59,0,0,1-1.08,1.74,7.41,7.41,0,0,1-1.35-.75,9.13,9.13,0,0,1-.83-.68,6.37,6.37,0,0,1,2.46-1.58,8.84,8.84,0,0,1,2.29-.6Zm-4.18.52a11.86,11.86,0,0,1,1.49-.26,11.36,11.36,0,0,0-1.43.86c-.52.4-1,.69-1,.69a1.75,1.75,0,0,1-.38-.38,2.1,2.1,0,0,1-.17-.45,11,11,0,0,1,1.46-.46Zm4.94,42.7c-10.94,0-21.67-8.72-21.67-21.55,0-16.08,14.61-20.49,14.61-20.49l.89.83a9.16,9.16,0,0,0-1.41,1.17,10.6,10.6,0,0,0-1,1.23l.38.35a8.75,8.75,0,0,1,1-1.18c.51-.51,1.26-1.12,1.26-1.12a8.15,8.15,0,0,0,1.23,1.06c.48.29,1.17.6,1.17.6a3.48,3.48,0,0,1-.25.83c-.2.46-.41,1.06-.41,1.06l.46.26s.32-.89.49-1.23.31-.69.31-.69a13.32,13.32,0,0,0,2,.66,7.17,7.17,0,0,0,1.63.17v3.84h-1.41v.65h1.45v4.81h-1.21v.55H174V165h.59v-1.72s.77,0,2.77,0,3.3-.29,3.3-.29-.06-1.83-.23-3.18a20.39,20.39,0,0,0-.46-2.37,11,11,0,0,0,2.4-.66c1.27-.51,2.34-1,2.34-1a11.69,11.69,0,0,1,1.18,2.35c.51,1.37,1,2.77,1,2.77l-.85.37.14.43,1-.29.29.59.38-.16-.28-.61a14.4,14.4,0,0,0,2.35-1c1.17-.64,2-1.23,2-1.23a21.41,21.41,0,0,1,2.95,10.85c0,9.8-7.57,21.6-21.6,21.6"/><path class="cls-3" d="M146.36,227.08V225l-.05,0a4.83,4.83,0,0,1-4.65,2.6c-2.15,0-4.76-1-4.76-4.53V212.44h2.47v9.72c0,2.4,1.23,3.21,2.82,3.21,3.11,0,4-2.74,4-4.87v-8.06h2.47v14.64h-2.33"/><path class="cls-3" d="M164.31,227.08h-2.47v-9c0-2.55-.72-3.84-3.13-3.84-1.4,0-3.86.9-3.86,4.87v8h-2.47V212.44h2.33v2.07h0a5.31,5.31,0,0,1,4.43-2.49c2.26,0,5.12.93,5.12,5.1v10"/><path class="cls-3" d="M168,209.78V207h2.46v2.8Zm2.46,17.3H168V212.44h2.46v14.64"/><path class="cls-3" d="M183.31,217.37a3.26,3.26,0,0,0-3.47-3.14c-3.05,0-4,2.91-4,5.52s.62,5.62,4,5.62c1.66,0,3.08-1.23,3.5-3.47h2.38c-.25,2.33-1.68,5.6-6,5.6-4.12,0-6.55-3.11-6.55-7.33,0-4.54,2.18-8.15,7-8.15,3.83,0,5.29,2.8,5.48,5.35h-2.38"/><path class="cls-3" d="M200.58,222.49a6.09,6.09,0,0,1-6.57,5c-4.12,0-6.55-3.11-6.55-7.33,0-4.54,2.18-8.15,7-8.15,4.23,0,6.3,3.36,6.3,8.54H190.09c0,3.05,1.42,4.81,4.25,4.81a3.71,3.71,0,0,0,3.78-2.88Zm-2.35-3.89c-.14-2.27-1.09-4.37-4.08-4.37a4.3,4.3,0,0,0-4.06,4.37h8.14"/><path class="cls-3" d="M206.77,214.48v12.6h-2.46v-12.6h-2v-2h2v-2.52c0-2.21,1.4-3.22,3.8-3.22.37,0,.73,0,1.12.06V209c-.31,0-.7-.06-1-.06-1.06,0-1.45.54-1.45,1.71v1.82h2.46v2h-2.46"/><path class="cls-4" d="M259,184.24H247.1v-2.12H259ZM254.32,197H251.7V182.12h2.62Z"/><path class="cls-4" d="M263.16,197h-2.53V181.3h2.53Zm-1.26-5.92a6.81,6.81,0,0,1,.55-2.75,4.49,4.49,0,0,1,1.51-1.9,3.8,3.8,0,0,1,2.27-.7,4.06,4.06,0,0,1,1.9.42,2.82,2.82,0,0,1,1.26,1.33,5.55,5.55,0,0,1,.45,2.43V197H267.3v-7.11a2.81,2.81,0,0,0-.23-1.23,1.35,1.35,0,0,0-.65-.66,2.61,2.61,0,0,0-1.06-.19,2.47,2.47,0,0,0-1.15.25,2.53,2.53,0,0,0-.83.7,3.24,3.24,0,0,0-.5,1,4.75,4.75,0,0,0-.16,1.27Z"/><path class="cls-4" d="M278.9,191.82h-1.74a3.45,3.45,0,0,0-2,.5,1.58,1.58,0,0,0-.68,1.34,1.45,1.45,0,0,0,.45,1.09,1.77,1.77,0,0,0,1.27.44,2.68,2.68,0,0,0,1.3-.3,2.73,2.73,0,0,0,.88-.75,1.5,1.5,0,0,0,.32-.83l.81,1.13a3.67,3.67,0,0,1-.41.89,4,4,0,0,1-.77.9,3.86,3.86,0,0,1-1.12.7,4,4,0,0,1-1.51.27,4.15,4.15,0,0,1-1.93-.43,3.42,3.42,0,0,1-1.34-1.18,3.06,3.06,0,0,1-.48-1.69,3.12,3.12,0,0,1,1.32-2.7,6.34,6.34,0,0,1,3.74-.94h1.9Zm-.39-2.3a1.94,1.94,0,0,0-.47-1.36,1.85,1.85,0,0,0-1.44-.52,2.38,2.38,0,0,0-1,.2,1.74,1.74,0,0,0-.67.54,1.34,1.34,0,0,0-.23.77h-2.54a2.76,2.76,0,0,1,.57-1.67,3.86,3.86,0,0,1,1.59-1.27,5.65,5.65,0,0,1,2.42-.48,5.56,5.56,0,0,1,2.22.42,3.35,3.35,0,0,1,1.53,1.27,3.79,3.79,0,0,1,.56,2.13v4.87a7,7,0,0,0,.11,1.37,4.47,4.47,0,0,0,.31,1V197h-2.59a3.9,3.9,0,0,1-.27-1,7.46,7.46,0,0,1-.1-1.23Z"/><path class="cls-4" d="M286.1,197h-2.53V185.94H286l.15,2.36Zm-1.26-5.92a6.65,6.65,0,0,1,.56-2.81,4.46,4.46,0,0,1,1.54-1.87,4.07,4.07,0,0,1,2.31-.67,4,4,0,0,1,1.86.41,2.73,2.73,0,0,1,1.23,1.3,5.71,5.71,0,0,1,.44,2.43V197h-2.55v-7.15a2.73,2.73,0,0,0-.22-1.21,1.23,1.23,0,0,0-.65-.64,2.58,2.58,0,0,0-1.06-.19,2.4,2.4,0,0,0-1.12.25,2.53,2.53,0,0,0-.83.7,3.5,3.5,0,0,0-.52,1,4.38,4.38,0,0,0-.18,1.27Z"/><path class="cls-4" d="M297.81,197h-2.55V181.3h2.55Zm2.07-5.71L297.21,194l-.67-2.11,2-2.51,3.06-3.44h3.05Zm-1.26.54,1.61-1.75,4.85,6.92h-2.94Z"/><path class="cls-4" d="M312.39,194a1.16,1.16,0,0,0-.18-.63,1.6,1.6,0,0,0-.69-.53,6.18,6.18,0,0,0-1.5-.45,10.5,10.5,0,0,1-2.07-.66,3.53,3.53,0,0,1-1.39-1.05,2.5,2.5,0,0,1-.5-1.57,3,3,0,0,1,.52-1.67,3.69,3.69,0,0,1,1.48-1.22,5.26,5.26,0,0,1,2.29-.47,5.66,5.66,0,0,1,2.39.47,3.66,3.66,0,0,1,1.54,1.26,3.14,3.14,0,0,1,.53,1.79h-2.53a1.57,1.57,0,0,0-.49-1.15,2,2,0,0,0-1.45-.5,2.3,2.3,0,0,0-1,.2,1.37,1.37,0,0,0-.6.5,1.15,1.15,0,0,0-.2.67,1,1,0,0,0,.2.63,1.71,1.71,0,0,0,.68.47,8.1,8.1,0,0,0,1.37.38,11.27,11.27,0,0,1,2.18.67,3.44,3.44,0,0,1,1.42,1.07,2.69,2.69,0,0,1,.49,1.67,2.85,2.85,0,0,1-.55,1.73,3.82,3.82,0,0,1-1.57,1.18,5.94,5.94,0,0,1-2.37.43,5.55,5.55,0,0,1-2.57-.54,4,4,0,0,1-1.58-1.39,3.25,3.25,0,0,1-.53-1.75h2.44a1.76,1.76,0,0,0,.37,1,1.85,1.85,0,0,0,.84.58,3.39,3.39,0,0,0,2.15,0,1.53,1.53,0,0,0,.66-.48A1.13,1.13,0,0,0,312.39,194Z"/><path class="cls-4" d="M327.85,187.81h-6.48v-1.87h6.48ZM323.06,197V184.89a3.73,3.73,0,0,1,1-2.83,4,4,0,0,1,2.85-1,5.84,5.84,0,0,1,.73,0,7,7,0,0,1,.69.14l-.06,2a2.6,2.6,0,0,0-.44-.06l-.51,0a1.83,1.83,0,0,0-1.3.44,1.69,1.69,0,0,0-.47,1.28V197Z"/><path class="cls-4" d="M329.14,191.36a6.54,6.54,0,0,1,.61-2.88,4.92,4.92,0,0,1,1.77-2,5,5,0,0,1,2.76-.74,5.09,5.09,0,0,1,2.79.74,4.83,4.83,0,0,1,1.76,2,6.54,6.54,0,0,1,.61,2.88v.22a6.54,6.54,0,0,1-.61,2.88,4.79,4.79,0,0,1-1.75,2,5.59,5.59,0,0,1-5.56,0,4.83,4.83,0,0,1-1.77-2,6.54,6.54,0,0,1-.61-2.88Zm2.54.22a5.65,5.65,0,0,0,.27,1.79,2.93,2.93,0,0,0,.85,1.31,2.29,2.29,0,0,0,1.5.49,2.26,2.26,0,0,0,1.49-.49,2.93,2.93,0,0,0,.85-1.31,5.65,5.65,0,0,0,.27-1.79v-.22a5.63,5.63,0,0,0-.27-1.78,2.85,2.85,0,0,0-.86-1.32,2.53,2.53,0,0,0-3,0,2.89,2.89,0,0,0-.84,1.32,5.63,5.63,0,0,0-.27,1.78Z"/><path class="cls-4" d="M344,197H341.5V185.94h2.41l.12,2.16Zm3.33-8.73a3.65,3.65,0,0,0-.49-.06,4.61,4.61,0,0,0-.52,0,2.89,2.89,0,0,0-1.39.3,2,2,0,0,0-.85.86,3.24,3.24,0,0,0-.33,1.31h-.59a8.13,8.13,0,0,1,.37-2.51,3.94,3.94,0,0,1,1.1-1.77,2.68,2.68,0,0,1,1.84-.66,4.23,4.23,0,0,1,.48,0,1.76,1.76,0,0,1,.4.1Z"/><path class="cls-4" d="M353.68,191.37a7.45,7.45,0,0,1,.54-2.94,4.47,4.47,0,0,1,1.53-2,4,4,0,0,1,2.36-.71,3.89,3.89,0,0,1,1.85.4,3.36,3.36,0,0,1,1.28,1.12A6.06,6.06,0,0,1,362,189a13.63,13.63,0,0,1,.44,2.22v.59a10.18,10.18,0,0,1-.69,2.79,4.57,4.57,0,0,1-1.4,1.92,3.67,3.67,0,0,1-2.29.69,3.81,3.81,0,0,1-2.34-.73,4.71,4.71,0,0,1-1.53-2,7.25,7.25,0,0,1-.54-2.88Zm9.81-5.43v10.74a4.77,4.77,0,0,1-.64,2.54,4.13,4.13,0,0,1-1.79,1.59,6.1,6.1,0,0,1-2.64.54,6.18,6.18,0,0,1-1.4-.18,5.61,5.61,0,0,1-1.5-.58,3.72,3.72,0,0,1-1.22-1l1.19-1.53a4,4,0,0,0,1.3,1,3.36,3.36,0,0,0,1.5.34,2.7,2.7,0,0,0,1.95-.69,2.6,2.6,0,0,0,.71-2v-8.27l.23-2.51Zm-7.28,5.65a5.54,5.54,0,0,0,.27,1.78,2.81,2.81,0,0,0,.82,1.28,2.12,2.12,0,0,0,1.44.48,2.49,2.49,0,0,0,1.4-.37,2.44,2.44,0,0,0,.84-1,4.75,4.75,0,0,0,.41-1.4v-1.73a4.81,4.81,0,0,0-.24-1.13,2.47,2.47,0,0,0-.5-.9,2.16,2.16,0,0,0-.79-.6,2.67,2.67,0,0,0-1.1-.21,2.17,2.17,0,0,0-1.44.47,2.88,2.88,0,0,0-.84,1.29,5.67,5.67,0,0,0-.27,1.8Z"/><path class="cls-4" d="M366,183.05a1.34,1.34,0,0,1,.38-1,1.38,1.38,0,0,1,1.05-.38,1.45,1.45,0,0,1,1.07.38,1.31,1.31,0,0,1,.39,1,1.27,1.27,0,0,1-.39.95,1.45,1.45,0,0,1-1.07.38,1.38,1.38,0,0,1-1.05-.38A1.3,1.3,0,0,1,366,183.05Zm2.7,13.95h-2.53V185.94h2.53Z"/><path class="cls-4" d="M375.67,195l.12,2h-1.62l-3.85-11.06H373Zm1.95-9.08h2.63L376.43,197h-1.64l.17-2Z"/><path class="cls-4" d="M381.76,183.05a1.34,1.34,0,0,1,.38-1,1.38,1.38,0,0,1,1.05-.38,1.45,1.45,0,0,1,1.07.38,1.34,1.34,0,0,1,.38,1,1.3,1.3,0,0,1-.38.95,1.45,1.45,0,0,1-1.07.38,1.38,1.38,0,0,1-1.05-.38A1.3,1.3,0,0,1,381.76,183.05Zm2.7,13.95h-2.53V185.94h2.53Z"/><path class="cls-4" d="M389.63,197H387.1V185.94h2.38l.15,2.36Zm-1.27-5.92a6.8,6.8,0,0,1,.57-2.81,4.39,4.39,0,0,1,1.54-1.87,4.36,4.36,0,0,1,4.17-.26,2.83,2.83,0,0,1,1.23,1.3,5.72,5.72,0,0,1,.43,2.43V197h-2.54v-7.15a2.73,2.73,0,0,0-.22-1.21,1.27,1.27,0,0,0-.65-.64,2.61,2.61,0,0,0-1.06-.19,2.37,2.37,0,0,0-1.12.25,2.53,2.53,0,0,0-.83.7,3.28,3.28,0,0,0-.52,1,4.38,4.38,0,0,0-.18,1.27Z"/><path class="cls-4" d="M398.35,191.37a7.45,7.45,0,0,1,.54-2.94,4.47,4.47,0,0,1,1.53-2,4,4,0,0,1,2.36-.71,3.89,3.89,0,0,1,1.85.4,3.36,3.36,0,0,1,1.28,1.12,6.06,6.06,0,0,1,.79,1.74,13.63,13.63,0,0,1,.44,2.22v.59a10.18,10.18,0,0,1-.69,2.79,4.57,4.57,0,0,1-1.4,1.92,3.67,3.67,0,0,1-2.29.69,3.81,3.81,0,0,1-2.34-.73,4.71,4.71,0,0,1-1.53-2,7.25,7.25,0,0,1-.54-2.88Zm9.81-5.43v10.74a4.77,4.77,0,0,1-.64,2.54,4.13,4.13,0,0,1-1.79,1.59,6.1,6.1,0,0,1-2.64.54,6.18,6.18,0,0,1-1.4-.18,5.61,5.61,0,0,1-1.5-.58,3.72,3.72,0,0,1-1.22-1l1.19-1.53a4,4,0,0,0,1.3,1,3.36,3.36,0,0,0,1.5.34,2.7,2.7,0,0,0,2-.69,2.6,2.6,0,0,0,.71-2v-8.27l.23-2.51Zm-7.28,5.65a5.54,5.54,0,0,0,.27,1.78,2.81,2.81,0,0,0,.82,1.28,2.12,2.12,0,0,0,1.44.48,2.49,2.49,0,0,0,1.4-.37,2.44,2.44,0,0,0,.84-1,4.75,4.75,0,0,0,.41-1.4v-1.73a4.81,4.81,0,0,0-.24-1.13,2.47,2.47,0,0,0-.5-.9,2.24,2.24,0,0,0-.79-.6,2.67,2.67,0,0,0-1.1-.21,2.17,2.17,0,0,0-1.44.47,2.88,2.88,0,0,0-.84,1.29,5.67,5.67,0,0,0-.27,1.8Z"/><path class="cls-4" d="M418.4,181.3v13.3l-.25,2.4h-2.28V181.3Zm7.19,10.28a8.13,8.13,0,0,1-.48,2.9,4.31,4.31,0,0,1-1.44,2,3.79,3.79,0,0,1-2.38.73,3.64,3.64,0,0,1-2.28-.69,4.57,4.57,0,0,1-1.4-1.92,10.7,10.7,0,0,1-.68-2.82v-.6a10.78,10.78,0,0,1,.68-2.83,4.46,4.46,0,0,1,1.39-1.91,3.63,3.63,0,0,1,2.27-.7,3.86,3.86,0,0,1,2.39.72,4.35,4.35,0,0,1,1.45,2,8.26,8.26,0,0,1,.48,2.93Zm-2.53-.22a6.55,6.55,0,0,0-.22-1.77,2.67,2.67,0,0,0-.75-1.3,2.06,2.06,0,0,0-1.45-.48,2.68,2.68,0,0,0-1.11.21,2.26,2.26,0,0,0-.77.6,2.58,2.58,0,0,0-.48.88,4.86,4.86,0,0,0-.24,1.11v1.74a4.82,4.82,0,0,0,.38,1.4,2.35,2.35,0,0,0,.84,1,2.43,2.43,0,0,0,1.4.38,2,2,0,0,0,1.43-.48,2.56,2.56,0,0,0,.75-1.27,6.62,6.62,0,0,0,.22-1.8Z"/><path class="cls-4" d="M434.23,191.82h-1.74a3.4,3.4,0,0,0-2,.5,1.56,1.56,0,0,0-.68,1.34,1.44,1.44,0,0,0,.44,1.09,1.77,1.77,0,0,0,1.27.44,2.68,2.68,0,0,0,1.3-.3,2.63,2.63,0,0,0,.88-.75,1.6,1.6,0,0,0,.33-.83l.8,1.13a3.67,3.67,0,0,1-.41.89,4.13,4.13,0,0,1-1.89,1.6,3.91,3.91,0,0,1-1.51.27,4.15,4.15,0,0,1-1.93-.43,3.32,3.32,0,0,1-1.33-1.18,3,3,0,0,1-.49-1.69,3.12,3.12,0,0,1,1.32-2.7,6.34,6.34,0,0,1,3.74-.94h1.9Zm-.39-2.3a1.94,1.94,0,0,0-.47-1.36,1.85,1.85,0,0,0-1.44-.52,2.41,2.41,0,0,0-1,.2,1.63,1.63,0,0,0-.66.54,1.28,1.28,0,0,0-.24.77H427.5a2.75,2.75,0,0,1,.56-1.67,3.86,3.86,0,0,1,1.59-1.27,5.65,5.65,0,0,1,2.42-.48,5.53,5.53,0,0,1,2.22.42,3.35,3.35,0,0,1,1.53,1.27,3.79,3.79,0,0,1,.56,2.13v4.87a7,7,0,0,0,.11,1.37,4,4,0,0,0,.32,1V197h-2.6a3.9,3.9,0,0,1-.27-1,8.73,8.73,0,0,1-.1-1.23Z"/><path class="cls-4" d="M443.47,195.17a2.37,2.37,0,0,0,1.07-.24,2,2,0,0,0,.77-.66,1.86,1.86,0,0,0,.32-1H448a3.54,3.54,0,0,1-.65,2,4.42,4.42,0,0,1-1.62,1.4,4.85,4.85,0,0,1-2.26.52,5,5,0,0,1-2.81-.75,4.6,4.6,0,0,1-1.67-2,7,7,0,0,1-.55-2.79v-.35a7,7,0,0,1,.55-2.79,4.66,4.66,0,0,1,1.67-2,5,5,0,0,1,2.81-.75,5.06,5.06,0,0,1,2.35.53,3.91,3.91,0,0,1,1.57,1.47,4.25,4.25,0,0,1,.61,2.19h-2.39a2.63,2.63,0,0,0-.29-1.08,2,2,0,0,0-.74-.78,2.46,2.46,0,0,0-2.66.22,2.69,2.69,0,0,0-.74,1.32,6.63,6.63,0,0,0-.2,1.69v.35a6.79,6.79,0,0,0,.2,1.71,2.58,2.58,0,0,0,.74,1.31A2.14,2.14,0,0,0,443.47,195.17Z"/><path class="cls-4" d="M452.42,197h-2.54V181.3h2.54Zm2.08-5.71L451.83,194l-.68-2.11,2-2.51,3.05-3.44h3.06Zm-1.26.54,1.6-1.75L459.7,197h-2.94Z"/><path class="cls-4" d="M463.19,196.39a5,5,0,0,1-.53,2.18,5.43,5.43,0,0,1-1.4,1.85l-1.36-.78a10.63,10.63,0,0,0,.53-.93,5.26,5.26,0,0,0,.37-1,4.5,4.5,0,0,0,.15-1.21v-1.9h2.24Z"/><path class="cls-4" d="M474.91,194.12l.45,2.74-1.76.4-4-11.32h2.74Zm2-8.18h2.71l-4.43,12.73a6.77,6.77,0,0,1-.4.9,4.13,4.13,0,0,1-.63.91,3.18,3.18,0,0,1-1,.71,3.35,3.35,0,0,1-1.41.27l-.44,0-.4-.07-.38-.09v-1.95l.25,0H471a2.38,2.38,0,0,0,1.38-.33,2.06,2.06,0,0,0,.73-1.11l.81-2.14Z"/><path class="cls-4" d="M480.54,191.36a6.54,6.54,0,0,1,.61-2.88,5,5,0,0,1,1.76-2,5.59,5.59,0,0,1,5.56,0,4.83,4.83,0,0,1,1.76,2,6.54,6.54,0,0,1,.61,2.88v.22a6.54,6.54,0,0,1-.61,2.88,4.74,4.74,0,0,1-1.76,2,5.57,5.57,0,0,1-5.55,0,4.83,4.83,0,0,1-1.77-2,6.54,6.54,0,0,1-.61-2.88Zm2.53.22a5.38,5.38,0,0,0,.28,1.79,2.93,2.93,0,0,0,.85,1.31,2.29,2.29,0,0,0,1.5.49,2.24,2.24,0,0,0,1.48-.49,2.85,2.85,0,0,0,.85-1.31,5.65,5.65,0,0,0,.27-1.79v-.22a5.63,5.63,0,0,0-.27-1.78,2.83,2.83,0,0,0-.85-1.32,2.24,2.24,0,0,0-1.5-.49,2.21,2.21,0,0,0-1.49.49,2.91,2.91,0,0,0-.85,1.32,5.63,5.63,0,0,0-.27,1.78Z"/><path class="cls-4" d="M500.71,192.05a7.51,7.51,0,0,1-.44,2.65,3.9,3.9,0,0,1-1.37,1.83,4,4,0,0,1-2.41.67,3.7,3.7,0,0,1-2.65-1,4.22,4.22,0,0,1-1-3.16v-7.14h2.54v7.16a2.55,2.55,0,0,0,.24,1.21,1.35,1.35,0,0,0,.64.63,2.06,2.06,0,0,0,.87.19,2.85,2.85,0,0,0,1.63-.41,2.19,2.19,0,0,0,.86-1.1,4.46,4.46,0,0,0,.25-1.55Zm-1.19-6.11h2.53V197h-2.39l-.14-2.62Z"/><path class="cls-4" d="M507.08,197h-2.54V185.94H507l.12,2.16Zm3.33-8.73a3.8,3.8,0,0,0-.5-.06,4.35,4.35,0,0,0-.51,0,2.93,2.93,0,0,0-1.4.3,2,2,0,0,0-.84.86,3.41,3.41,0,0,0-.34,1.31h-.58a7.84,7.84,0,0,1,.37-2.51,3.86,3.86,0,0,1,1.1-1.77,2.66,2.66,0,0,1,1.84-.66,4.64,4.64,0,0,1,.48,0,1.76,1.76,0,0,1,.4.1Z"/><path class="cls-4" d="M247.44,216.49a7.69,7.69,0,0,1,.53-3,4.47,4.47,0,0,1,1.5-2,3.84,3.84,0,0,1,2.33-.71,3.55,3.55,0,0,1,2.23.69,4.75,4.75,0,0,1,1.42,1.93,10.43,10.43,0,0,1,.69,2.86v.59a9.83,9.83,0,0,1-.69,2.79,4.58,4.58,0,0,1-1.41,1.91,3.63,3.63,0,0,1-2.27.7,3.74,3.74,0,0,1-2.3-.73,4.71,4.71,0,0,1-1.5-2,7.5,7.5,0,0,1-.53-2.88Zm2.54.22a6.23,6.23,0,0,0,.24,1.78,2.8,2.8,0,0,0,.78,1.28,2.1,2.1,0,0,0,1.42.47,2.37,2.37,0,0,0,1.36-.36,2.4,2.4,0,0,0,.84-1,4.88,4.88,0,0,0,.42-1.4v-1.72a5.6,5.6,0,0,0-.26-1.14,2.8,2.8,0,0,0-.5-.9,2.06,2.06,0,0,0-.77-.59,2.52,2.52,0,0,0-1.07-.22,2.1,2.1,0,0,0-1.43.48,2.67,2.67,0,0,0-.79,1.29,6.32,6.32,0,0,0-.24,1.8Zm4.64-10.3h2.53v15.7h-2.3l-.23-2.32Z"/><path class="cls-4" d="M259.25,216.48a6.48,6.48,0,0,1,.61-2.88,4.85,4.85,0,0,1,1.76-2,5.59,5.59,0,0,1,5.56,0,4.78,4.78,0,0,1,1.76,2,6.62,6.62,0,0,1,.61,2.88v.21a6.65,6.65,0,0,1-.61,2.88,4.78,4.78,0,0,1-1.76,2,5.57,5.57,0,0,1-5.55,0,4.8,4.8,0,0,1-1.77-2,6.51,6.51,0,0,1-.61-2.88Zm2.53.21a5.4,5.4,0,0,0,.28,1.8,2.77,2.77,0,0,0,.85,1.3,2.22,2.22,0,0,0,1.5.49,2.19,2.19,0,0,0,1.48-.49,2.77,2.77,0,0,0,.85-1.3,5.67,5.67,0,0,0,.27-1.8v-.21a5.69,5.69,0,0,0-.27-1.79,2.85,2.85,0,0,0-.85-1.31,2.24,2.24,0,0,0-1.5-.5,2.2,2.2,0,0,0-1.49.5,2.85,2.85,0,0,0-.85,1.31,5.69,5.69,0,0,0-.27,1.79Z"/><path class="cls-4" d="M274.11,222.11h-2.54V211.05H274l.16,2.36Zm-1.27-5.92a6.6,6.6,0,0,1,.56-2.8,4.46,4.46,0,0,1,1.54-1.87,4.41,4.41,0,0,1,4.17-.27,2.76,2.76,0,0,1,1.23,1.31,5.64,5.64,0,0,1,.44,2.43v7.12h-2.55V215a2.77,2.77,0,0,0-.22-1.22,1.27,1.27,0,0,0-.65-.64,2.75,2.75,0,0,0-1.06-.19,2.53,2.53,0,0,0-1.12.25,2.4,2.4,0,0,0-.82.7,3,3,0,0,0-.52,1,4.26,4.26,0,0,0-.18,1.26Z"/><path class="cls-4" d="M289.85,216.94h-1.73a3.43,3.43,0,0,0-2,.5,1.57,1.57,0,0,0-.68,1.34,1.45,1.45,0,0,0,.45,1.09,1.75,1.75,0,0,0,1.27.43,2.71,2.71,0,0,0,1.3-.3,2.55,2.55,0,0,0,.87-.74,1.6,1.6,0,0,0,.33-.84l.81,1.14a3.53,3.53,0,0,1-.42.89,4,4,0,0,1-.76.9,4.24,4.24,0,0,1-1.13.7,3.86,3.86,0,0,1-1.5.27,4.33,4.33,0,0,1-1.94-.43,3.39,3.39,0,0,1-1.33-1.18,3.36,3.36,0,0,1,.83-4.39,6.36,6.36,0,0,1,3.74-.94h1.9Zm-.38-2.3a1.92,1.92,0,0,0-.48-1.37,1.86,1.86,0,0,0-1.43-.51,2.43,2.43,0,0,0-1,.2,1.61,1.61,0,0,0-.66.54,1.27,1.27,0,0,0-.24.76h-2.53a2.84,2.84,0,0,1,.56-1.67,4.06,4.06,0,0,1,1.59-1.26,5.69,5.69,0,0,1,2.43-.48,5.56,5.56,0,0,1,2.22.42,3.38,3.38,0,0,1,1.52,1.27,3.7,3.7,0,0,1,.56,2.12v4.88a8,8,0,0,0,.11,1.37,4.62,4.62,0,0,0,.32,1v.17h-2.6a4.73,4.73,0,0,1-.27-1,8.83,8.83,0,0,1-.09-1.24Z"/><path class="cls-4" d="M299.68,212.92H293.4v-1.87h6.28Zm-2-4.57V219a1.61,1.61,0,0,0,.15.78.71.71,0,0,0,.41.35,1.87,1.87,0,0,0,.61.09,3.91,3.91,0,0,0,.49,0l.38-.06v1.95a4.11,4.11,0,0,1-.71.17,5.27,5.27,0,0,1-1,.08,3.56,3.56,0,0,1-1.5-.31,2.23,2.23,0,0,1-1-1,3.84,3.84,0,0,1-.37-1.83V208.35Z"/><path class="cls-4" d="M301.54,208.16a1.3,1.3,0,0,1,.37-1,1.64,1.64,0,0,1,2.12,0,1.27,1.27,0,0,1,.39,1,1.3,1.3,0,0,1-.39,1,1.67,1.67,0,0,1-2.12,0A1.33,1.33,0,0,1,301.54,208.16Zm2.69,14H301.7V211.05h2.53Z"/><path class="cls-4" d="M306.43,216.48a6.49,6.49,0,0,1,.62-2.88,4.71,4.71,0,0,1,1.76-2,5,5,0,0,1,2.76-.74,5.09,5.09,0,0,1,2.79.74,4.8,4.8,0,0,1,1.77,2,6.62,6.62,0,0,1,.6,2.88v.21a6.65,6.65,0,0,1-.6,2.88,4.85,4.85,0,0,1-1.76,2,5.59,5.59,0,0,1-5.56,0,4.71,4.71,0,0,1-1.76-2,6.52,6.52,0,0,1-.62-2.88Zm2.54.21a5.67,5.67,0,0,0,.27,1.8,2.86,2.86,0,0,0,.86,1.3,2.51,2.51,0,0,0,3,0,2.84,2.84,0,0,0,.85-1.3,5.67,5.67,0,0,0,.27-1.8v-.21a5.69,5.69,0,0,0-.27-1.79,2.87,2.87,0,0,0-.86-1.31,2.47,2.47,0,0,0-3,0,2.85,2.85,0,0,0-.85,1.31,5.69,5.69,0,0,0-.27,1.79Z"/><path class="cls-4" d="M321.29,222.11h-2.53V211.05h2.38l.15,2.36ZM320,216.19a6.75,6.75,0,0,1,.57-2.8,4.39,4.39,0,0,1,1.54-1.87,4,4,0,0,1,2.31-.67,4,4,0,0,1,1.86.4,2.86,2.86,0,0,1,1.23,1.31A5.64,5.64,0,0,1,328,215v7.12h-2.55V215a2.77,2.77,0,0,0-.22-1.22,1.31,1.31,0,0,0-.65-.64,2.79,2.79,0,0,0-1.06-.19,2.5,2.5,0,0,0-1.12.25,2.53,2.53,0,0,0-.83.7,3.23,3.23,0,0,0-.52,1,4.26,4.26,0,0,0-.18,1.26Z"/><path class="cls-4" d="M335.65,208.16a1.3,1.3,0,0,1,.38-1,1.39,1.39,0,0,1,1.05-.39,1.43,1.43,0,0,1,1.06.39,1.27,1.27,0,0,1,.39,1,1.3,1.3,0,0,1-.39,1,1.46,1.46,0,0,1-1.06.38,1.42,1.42,0,0,1-1.05-.38A1.34,1.34,0,0,1,335.65,208.16Zm2.7,14h-2.54V211.05h2.54Z"/><path class="cls-4" d="M347.19,219.1a1.19,1.19,0,0,0-.18-.64,1.68,1.68,0,0,0-.69-.53,7.23,7.23,0,0,0-1.5-.45,9.52,9.52,0,0,1-2.07-.65,3.62,3.62,0,0,1-1.39-1.05,2.53,2.53,0,0,1-.5-1.58,2.86,2.86,0,0,1,.52-1.66,3.63,3.63,0,0,1,1.48-1.23,5.21,5.21,0,0,1,2.28-.46,5.68,5.68,0,0,1,2.4.46,3.63,3.63,0,0,1,1.53,1.26,3.12,3.12,0,0,1,.54,1.79h-2.53a1.6,1.6,0,0,0-.49-1.14,2,2,0,0,0-1.46-.5,2.29,2.29,0,0,0-1,.19,1.54,1.54,0,0,0-.61.5,1.25,1.25,0,0,0-.19.68,1,1,0,0,0,.19.62,1.64,1.64,0,0,0,.69.47,7.24,7.24,0,0,0,1.36.39,11.17,11.17,0,0,1,2.19.67,3.49,3.49,0,0,1,1.42,1.06,2.71,2.71,0,0,1,.49,1.67,2.83,2.83,0,0,1-.55,1.73,3.75,3.75,0,0,1-1.57,1.19,6.11,6.11,0,0,1-2.37.43,5.4,5.4,0,0,1-2.57-.55,4.05,4.05,0,0,1-1.58-1.38,3.21,3.21,0,0,1-.54-1.75h2.45a1.75,1.75,0,0,0,.37,1.05,1.85,1.85,0,0,0,.84.58,3.15,3.15,0,0,0,1.06.18,2.8,2.8,0,0,0,1.08-.18,1.47,1.47,0,0,0,.67-.47A1.15,1.15,0,0,0,347.19,219.1Z"/><path class="cls-4" d="M361.31,220.14l.13,2h-1.63L356,211.05h2.63Zm1.95-9.09h2.63l-3.82,11.06h-1.64l.17-2Z"/><path class="cls-4" d="M373.83,216.94h-1.74a3.42,3.42,0,0,0-2,.5,1.55,1.55,0,0,0-.68,1.34,1.45,1.45,0,0,0,.45,1.09,1.74,1.74,0,0,0,1.26.43,2.72,2.72,0,0,0,1.31-.3,2.55,2.55,0,0,0,.87-.74,1.6,1.6,0,0,0,.33-.84l.81,1.14a3.92,3.92,0,0,1-.42.89,3.77,3.77,0,0,1-.77.9,4.18,4.18,0,0,1-1.12.7,3.88,3.88,0,0,1-1.51.27,4.31,4.31,0,0,1-1.93-.43,3.39,3.39,0,0,1-1.33-1.18,3,3,0,0,1-.49-1.69,3.1,3.1,0,0,1,1.32-2.7,6.36,6.36,0,0,1,3.74-.94h1.9Zm-.39-2.3a1.92,1.92,0,0,0-.47-1.37,1.89,1.89,0,0,0-1.44-.51,2.41,2.41,0,0,0-1,.2,1.55,1.55,0,0,0-.66.54,1.27,1.27,0,0,0-.24.76H367.1a2.84,2.84,0,0,1,.56-1.67,3.92,3.92,0,0,1,1.59-1.26,5.66,5.66,0,0,1,2.43-.48,5.48,5.48,0,0,1,2.21.42,3.35,3.35,0,0,1,1.53,1.27,3.78,3.78,0,0,1,.56,2.12v4.88a8,8,0,0,0,.11,1.37,4.62,4.62,0,0,0,.32,1v.17h-2.6a4.73,4.73,0,0,1-.27-1,8.87,8.87,0,0,1-.1-1.24Z"/><path class="cls-4" d="M381.23,222.11H378.7v-15.7h2.53Z"/><path class="cls-4" d="M391.72,217.17a7.55,7.55,0,0,1-.44,2.65,4,4,0,0,1-1.37,1.83,4.09,4.09,0,0,1-2.41.67,3.69,3.69,0,0,1-2.65-1,4.23,4.23,0,0,1-1-3.16v-7.15h2.53v7.17a2.57,2.57,0,0,0,.24,1.21,1.44,1.44,0,0,0,.64.63,2.13,2.13,0,0,0,.88.18,2.87,2.87,0,0,0,1.63-.4,2.22,2.22,0,0,0,.85-1.1,4.46,4.46,0,0,0,.26-1.55Zm-1.2-6.12h2.54v11.06h-2.4l-.14-2.61Z"/><path class="cls-4" d="M400.44,222.32a5.52,5.52,0,0,1-2.84-.71,5,5,0,0,1-1.84-1.93,5.65,5.65,0,0,1-.64-2.71v-.42a6.64,6.64,0,0,1,.65-3,4.87,4.87,0,0,1,1.8-2,4.72,4.72,0,0,1,2.58-.71,4.77,4.77,0,0,1,2.65.69,4.23,4.23,0,0,1,1.57,1.91,7.14,7.14,0,0,1,.52,2.83v1.09h-8.55v-1.83h6.05v-.19a3.73,3.73,0,0,0-.25-1.21,2.06,2.06,0,0,0-.71-.91,2.17,2.17,0,0,0-1.29-.35,2,2,0,0,0-1.36.46,2.76,2.76,0,0,0-.84,1.28,5.85,5.85,0,0,0-.29,1.93V217a4,4,0,0,0,.35,1.69,2.71,2.71,0,0,0,2.6,1.61,3.37,3.37,0,0,0,1.58-.35,3.43,3.43,0,0,0,1.19-1l1.33,1.33a4.89,4.89,0,0,1-1.57,1.43A5.17,5.17,0,0,1,400.44,222.32Z"/><path class="cls-4" d="M406.32,216.49a7.69,7.69,0,0,1,.53-3,4.53,4.53,0,0,1,1.49-2,3.88,3.88,0,0,1,2.33-.71,3.56,3.56,0,0,1,2.24.69,4.75,4.75,0,0,1,1.42,1.93,10.43,10.43,0,0,1,.69,2.86v.59a10.18,10.18,0,0,1-.69,2.79,4.58,4.58,0,0,1-1.41,1.91,3.65,3.65,0,0,1-2.27.7,3.79,3.79,0,0,1-2.31-.73,4.77,4.77,0,0,1-1.49-2,7.5,7.5,0,0,1-.53-2.88Zm2.54.22a6.23,6.23,0,0,0,.24,1.78,2.72,2.72,0,0,0,.78,1.28,2.1,2.1,0,0,0,1.42.47,2.26,2.26,0,0,0,2.2-1.35,4.58,4.58,0,0,0,.41-1.4v-1.72a5,5,0,0,0-.25-1.14,2.8,2.8,0,0,0-.5-.9,2.06,2.06,0,0,0-.77-.59,2.52,2.52,0,0,0-1.07-.22,2.1,2.1,0,0,0-1.43.48,2.67,2.67,0,0,0-.79,1.29,6.32,6.32,0,0,0-.24,1.8Zm4.64-10.3H416v15.7h-2.3l-.23-2.32Z"/><path class="cls-4" d="M418.7,220.84a1.38,1.38,0,0,1,.39-1,1.43,1.43,0,0,1,1.08-.41,1.46,1.46,0,0,1,1.09.41,1.46,1.46,0,0,1,0,2,1.48,1.48,0,0,1-1.09.39,1.46,1.46,0,0,1-1.08-.39A1.37,1.37,0,0,1,418.7,220.84Z"/><path class="cls-5" d="M254.22,159l2.91-7.05h4.74l-5.42,11V169H252v-6.07l-5.43-11h4.74Z"/><path class="cls-5" d="M260.07,162.54a7.58,7.58,0,0,1,.71-3.33,5.42,5.42,0,0,1,2.07-2.3,7.26,7.26,0,0,1,6.78,0,5.38,5.38,0,0,1,2.08,2.3,7.71,7.71,0,0,1,.69,3.33v.22a7.66,7.66,0,0,1-.69,3.31,5.39,5.39,0,0,1-2.07,2.31,7.26,7.26,0,0,1-6.78,0,5.35,5.35,0,0,1-2.08-2.31,7.52,7.52,0,0,1-.71-3.31Zm4.23.22a7.34,7.34,0,0,0,.16,1.56,2.15,2.15,0,0,0,.58,1.1,2,2,0,0,0,2.41,0,2.15,2.15,0,0,0,.58-1.1,7.37,7.37,0,0,0,.15-1.56v-.22A7.41,7.41,0,0,0,268,161a2.27,2.27,0,0,0-.58-1.11,1.67,1.67,0,0,0-1.22-.41,1.58,1.58,0,0,0-1.19.41,2.27,2.27,0,0,0-.58,1.11,7.38,7.38,0,0,0-.16,1.55Z"/><path class="cls-5" d="M282.82,163.24a8.2,8.2,0,0,1-.54,3.07,4.84,4.84,0,0,1-1.57,2.13,4,4,0,0,1-2.49.78,4.34,4.34,0,0,1-3.07-1.1,4.75,4.75,0,0,1-1.18-3.6V156.3h4.22v8.24a1.38,1.38,0,0,0,.16.69,1.06,1.06,0,0,0,.48.43,1.74,1.74,0,0,0,.79.16,2.21,2.21,0,0,0,1.3-.33,1.8,1.8,0,0,0,.65-.91,4.48,4.48,0,0,0,.18-1.32Zm-1.46-6.94h4.23V169h-3.95l-.28-3.12Z"/><path class="cls-5" d="M293.13,162.55a9.46,9.46,0,0,1,.56-3.38,4.85,4.85,0,0,1,1.66-2.28,4.41,4.41,0,0,1,2.73-.82,3.38,3.38,0,0,1,2.41.91,6.26,6.26,0,0,1,1.53,2.43,15.94,15.94,0,0,1,.8,3.41v-.14a14.6,14.6,0,0,1-.81,3.22,6.3,6.3,0,0,1-1.54,2.41,3.41,3.41,0,0,1-2.42.91,4.33,4.33,0,0,1-2.71-.84,5.09,5.09,0,0,1-1.65-2.29,9.21,9.21,0,0,1-.56-3.3Zm4.22.24a6.56,6.56,0,0,0,.16,1.54,2.38,2.38,0,0,0,.54,1.09,1.49,1.49,0,0,0,1.09.4,2,2,0,0,0,1.18-.34,1.94,1.94,0,0,0,.68-1,4.09,4.09,0,0,0,.15-1.54v-.4a6.64,6.64,0,0,0-.08-1.4,2.52,2.52,0,0,0-.37-1,1.45,1.45,0,0,0-.63-.55,2.13,2.13,0,0,0-.9-.18,1.49,1.49,0,0,0-1.08.39,2.23,2.23,0,0,0-.57,1.09,7,7,0,0,0-.17,1.6ZM300.81,151h4.24v18h-3.8l-.44-3Z"/><path class="cls-5" d="M306.69,162.54a7.72,7.72,0,0,1,.7-3.33,5.38,5.38,0,0,1,2.08-2.3,6.33,6.33,0,0,1,3.37-.84,6.43,6.43,0,0,1,3.41.84,5.3,5.3,0,0,1,2.07,2.3,7.57,7.57,0,0,1,.7,3.33v.22a7.52,7.52,0,0,1-.7,3.31,5.27,5.27,0,0,1-2.07,2.31,6.35,6.35,0,0,1-3.38.84,6.42,6.42,0,0,1-3.4-.84,5.41,5.41,0,0,1-2.08-2.31,7.66,7.66,0,0,1-.7-3.31Zm4.23.22a6.74,6.74,0,0,0,.16,1.56,2.15,2.15,0,0,0,.58,1.1,1.71,1.71,0,0,0,1.21.4,1.69,1.69,0,0,0,1.19-.4,2.08,2.08,0,0,0,.58-1.1,6.74,6.74,0,0,0,.16-1.56v-.22a6.77,6.77,0,0,0-.16-1.55,2.19,2.19,0,0,0-.58-1.11,1.64,1.64,0,0,0-1.22-.41,1.61,1.61,0,0,0-1.19.41,2.35,2.35,0,0,0-.57,1.11,6.77,6.77,0,0,0-.16,1.55Z"/><path class="cls-5" d="M324.8,169h-4.22V156.3h3.95l.27,2.71Zm-1.47-6.64a8.31,8.31,0,0,1,.6-3.42,4.78,4.78,0,0,1,1.72-2.13,4.58,4.58,0,0,1,2.57-.72,4.26,4.26,0,0,1,2.06.47,3.19,3.19,0,0,1,1.4,1.55,7.16,7.16,0,0,1,.51,3V169H328v-7.92a2.25,2.25,0,0,0-.19-1,1,1,0,0,0-.57-.46,3,3,0,0,0-.9-.11,2.09,2.09,0,0,0-1,.19,1.57,1.57,0,0,0-.61.56,2.75,2.75,0,0,0-.33.89,6.54,6.54,0,0,0-.1,1.14Z"/><path class="cls-5" d="M341.24,163.48h-1.63a1.51,1.51,0,0,0-1.35.54,2.09,2.09,0,0,0-.35,1.14.88.88,0,0,0,.32.7,1.29,1.29,0,0,0,.81.26,2.12,2.12,0,0,0,1-.22,1.64,1.64,0,0,0,.63-.51.67.67,0,0,0,.17-.51l.9,1.77c-.15.3-.33.61-.52.91a3.91,3.91,0,0,1-.71.82,3.35,3.35,0,0,1-1,.61,4.24,4.24,0,0,1-1.47.23,4.72,4.72,0,0,1-2.15-.49,4,4,0,0,1-1.59-1.34,3.46,3.46,0,0,1-.6-2,3.67,3.67,0,0,1,1.44-3.07,7.42,7.42,0,0,1,4.52-1.11h1.58Zm-.53-2.83a1.88,1.88,0,0,0-.3-1.12,1.17,1.17,0,0,0-1-.42,1.54,1.54,0,0,0-.65.12.78.78,0,0,0-.4.38,1.48,1.48,0,0,0-.14.69H334a3.62,3.62,0,0,1,.7-2.19,4.6,4.6,0,0,1,1.95-1.5,7.59,7.59,0,0,1,3-.54,6.92,6.92,0,0,1,2.73.51,4.32,4.32,0,0,1,1.91,1.53,4.43,4.43,0,0,1,.7,2.56v5a9.43,9.43,0,0,0,.15,2,4.74,4.74,0,0,0,.4,1.1V169h-4.21a5.6,5.6,0,0,1-.44-1.52,12.72,12.72,0,0,1-.14-1.89Z"/><path class="cls-5" d="M353.87,159.35h-7.79v-3h7.79Zm-2-6.2v11.46a1.86,1.86,0,0,0,.11.7.63.63,0,0,0,.38.35,2.18,2.18,0,0,0,.76.11h.55l.41,0v3.14a6.24,6.24,0,0,1-1.09.28,7.55,7.55,0,0,1-1.21.09,5.31,5.31,0,0,1-2.23-.42,2.9,2.9,0,0,1-1.4-1.3,4.76,4.76,0,0,1-.48-2.28V153.15Z"/><path class="cls-5" d="M361.56,169.22a7.07,7.07,0,0,1-3.59-.86,5.84,5.84,0,0,1-2.26-2.26,6.2,6.2,0,0,1-.77-3v-.43a7.81,7.81,0,0,1,.68-3.31,5.39,5.39,0,0,1,2.05-2.38,7.06,7.06,0,0,1,6.58-.13,5,5,0,0,1,2,2.16,7.35,7.35,0,0,1,.7,3.34v1.77H356.52v-2.7h6.3v-.34a1.78,1.78,0,0,0-.18-.91,1.23,1.23,0,0,0-.59-.51,2.56,2.56,0,0,0-1-.16,1.57,1.57,0,0,0-1.23.45,2.36,2.36,0,0,0-.55,1.18,7.54,7.54,0,0,0-.14,1.54v.43a3.15,3.15,0,0,0,.31,1.46,2.22,2.22,0,0,0,.92.95,3,3,0,0,0,1.45.33,4.69,4.69,0,0,0,1.55-.27,2.88,2.88,0,0,0,1.32-.95l1.9,2.42a5.29,5.29,0,0,1-1.89,1.51A6.7,6.7,0,0,1,361.56,169.22Z"/><path class="cls-5" d="M368,162.55a9.47,9.47,0,0,1,.55-3.38,4.92,4.92,0,0,1,1.66-2.28,4.41,4.41,0,0,1,2.73-.82,3.38,3.38,0,0,1,2.41.91,6.26,6.26,0,0,1,1.53,2.43,16.55,16.55,0,0,1,.81,3.41v-.14a15.18,15.18,0,0,1-.82,3.22,6.4,6.4,0,0,1-1.53,2.41,3.43,3.43,0,0,1-2.42.91,4.34,4.34,0,0,1-2.72-.84,5.09,5.09,0,0,1-1.65-2.29,9.21,9.21,0,0,1-.55-3.3Zm4.21.24a7.14,7.14,0,0,0,.16,1.54,2.3,2.3,0,0,0,.55,1.09,1.47,1.47,0,0,0,1.09.4,1.8,1.8,0,0,0,1.85-1.33A4.09,4.09,0,0,0,376,163v-.4a6,6,0,0,0-.08-1.4,2.69,2.69,0,0,0-.36-1,1.54,1.54,0,0,0-.64-.55,2.09,2.09,0,0,0-.9-.18,1.49,1.49,0,0,0-1.08.39,2.41,2.41,0,0,0-.57,1.09,7,7,0,0,0-.17,1.6ZM375.62,151h4.24v18h-3.79l-.45-3Z"/><path class="cls-5" d="M388.15,162.61V159.2h9.73v3.41Zm0,6.37v-3.54h12.64V169Zm6.34-5.44a3,3,0,0,1-.58,1.92,4.85,4.85,0,0,1-2.12,1.28l-2.43-1.3a.7.7,0,0,0,.48-.3,1.19,1.19,0,0,0,.16-.54c0-.22,0-.46,0-.73l-.21-7.06a5.42,5.42,0,0,1,.66-2.76,4.33,4.33,0,0,1,1.87-1.75,6.38,6.38,0,0,1,2.86-.6,5.82,5.82,0,0,1,4.21,1.4,4.94,4.94,0,0,1,1.45,3.71h-4.13a2,2,0,0,0-.18-.95,1.07,1.07,0,0,0-.51-.48,1.72,1.72,0,0,0-.72-.15,1,1,0,0,0-.82.38,1.79,1.79,0,0,0-.32,1.2Z"/><path class="cls-5" d="M411.39,169h-4.23V156.9l-3.81,1V154.6l7.65-2.67h.39Z"/><path class="cls-5" d="M420,159.73h2.69A9.25,9.25,0,0,1,425,160a5.34,5.34,0,0,1,1.82.83,3.66,3.66,0,0,1,1.18,1.38,4.23,4.23,0,0,1,.42,1.94,4.41,4.41,0,0,1-.86,2.74,5.31,5.31,0,0,1-2.32,1.72,8.63,8.63,0,0,1-3.3.6,8.43,8.43,0,0,1-2.15-.29,6.35,6.35,0,0,1-2-.89,4.5,4.5,0,0,1-1.42-1.55,4.59,4.59,0,0,1-.54-2.29h4.24a1.31,1.31,0,0,0,.27.8,1.93,1.93,0,0,0,.73.59,2.1,2.1,0,0,0,1,.23,2.14,2.14,0,0,0,1.56-.54,1.67,1.67,0,0,0,.56-1.22,2.67,2.67,0,0,0-.26-1.27,1.46,1.46,0,0,0-.77-.68,3.07,3.07,0,0,0-1.2-.21h-2Zm2-1.1a2.24,2.24,0,0,0,1.1-.23,1.43,1.43,0,0,0,.65-.66,2.47,2.47,0,0,0,.21-1.06,1.72,1.72,0,0,0-.19-.77,1.41,1.41,0,0,0-.61-.6,2,2,0,0,0-1-.24,2.28,2.28,0,0,0-.81.15,1.63,1.63,0,0,0-.67.42.9.9,0,0,0-.27.66h-4.22a4,4,0,0,1,.82-2.51,5.2,5.2,0,0,1,2.14-1.57,7.41,7.41,0,0,1,2.87-.55,8.72,8.72,0,0,1,3.24.56,4.76,4.76,0,0,1,2.18,1.65,4.42,4.42,0,0,1,.79,2.69,3.5,3.5,0,0,1-.42,1.69,4.05,4.05,0,0,1-1.16,1.36,5.53,5.53,0,0,1-1.74.91,7.07,7.07,0,0,1-2.15.32H420v-2.22Z"/></svg>