<svg id="Layer_1" data-name="Layer 1" xmlns="http://www.w3.org/2000/svg" viewBox="0 0 309 410"><defs><style>.cls-1{fill:#fff;}.cls-2{fill:#1c272d;}.cls-3{fill:#1d212a;}.cls-4{fill:#a5aab5;}.cls-5{fill:#f6f8fc;stroke:#dce0e8;}.cls-5,.cls-7{stroke-miterlimit:10;}.cls-6,.cls-8{fill:#00bce0;}.cls-6{opacity:0.15;}.cls-7{fill:none;stroke:#00bce0;}.cls-9{fill:#616774;}</style></defs><rect class="cls-1" width="309" height="410"/><path class="cls-2" d="M72.53,31.85l-2-.4,1.62-1.2h.38l1,6-.73.15-2.6-4.12.74.89a5.08,5.08,0,0,0-1.4-.73A4.89,4.89,0,0,0,68,32.18a3.69,3.69,0,0,0-2.43.67,2.22,2.22,0,0,0-.8,1.81A2.29,2.29,0,0,0,65.09,36a3,3,0,0,0,1,.89,8.7,8.7,0,0,0,1.44.66l1.67.6c.58.2,1.16.44,1.73.7a7.16,7.16,0,0,1,1.58,1,4.25,4.25,0,0,1,1.15,1.43,4.48,4.48,0,0,1,.44,2.11,5.05,5.05,0,0,1-.89,3,5.47,5.47,0,0,1-2.42,1.86,9.07,9.07,0,0,1-3.48.63,14.6,14.6,0,0,1-2.41-.17,10.66,10.66,0,0,1-2.21-.61l-1.14-4.83h.8L66,48.05l-2.69-1.69a11.16,11.16,0,0,0,1.84.79,6.08,6.08,0,0,0,1.73.24,7.17,7.17,0,0,0,2.35-.34,2.85,2.85,0,0,0,1.42-1,2.72,2.72,0,0,0,.48-1.64,2.44,2.44,0,0,0-.45-1.51,3.65,3.65,0,0,0-1.19-1,10.26,10.26,0,0,0-1.61-.69c-.59-.19-1.16-.4-1.72-.6a14.42,14.42,0,0,1-1.59-.71A5.59,5.59,0,0,1,63.19,39a3.84,3.84,0,0,1-.91-1.34A4.84,4.84,0,0,1,62,35.75a4.52,4.52,0,0,1,.76-2.63,5,5,0,0,1,2.15-1.71,8.05,8.05,0,0,1,3.29-.61,10,10,0,0,1,2.26.24A9.77,9.77,0,0,1,72.53,31.85Z"/><path class="cls-2" d="M82.72,41.47l.12,1.07a14,14,0,0,0-2,.59,4.4,4.4,0,0,0-1.2.64,1.76,1.76,0,0,0-.59.69,2.09,2.09,0,0,0-.16.81,1.67,1.67,0,0,0,.42,1.25,1.46,1.46,0,0,0,1,.41,1.58,1.58,0,0,0,.88-.25,1.74,1.74,0,0,0,.62-.67,1.79,1.79,0,0,0,.23-.91V40.25a1.9,1.9,0,0,0-.43-1.31,1.82,1.82,0,0,0-1.41-.49,4.17,4.17,0,0,0-.83.1,4.4,4.4,0,0,0-.82.28L79.1,38c0,.41-.1.76-.16,1.05a4,4,0,0,1-.19.71,1.17,1.17,0,0,1-.26.44,1.37,1.37,0,0,1-.56.37,2,2,0,0,1-.72.13,1.33,1.33,0,0,1-.8-.21.63.63,0,0,1-.28-.55,1.52,1.52,0,0,1,.46-1A4.74,4.74,0,0,1,77.82,38a7.84,7.84,0,0,1,3.68-.94,4.61,4.61,0,0,1,2.15.42,2.4,2.4,0,0,1,1.12,1.17,4.5,4.5,0,0,1,.33,1.79v5.72a1.4,1.4,0,0,0,.1.58.77.77,0,0,0,.3.36,1,1,0,0,0,.48.11,2.05,2.05,0,0,0,.58-.09,3.56,3.56,0,0,0,.63-.3v.74a5,5,0,0,1-1.34.91,3.21,3.21,0,0,1-1.34.33,2.43,2.43,0,0,1-1.3-.32,1.82,1.82,0,0,1-.76-.9,3.27,3.27,0,0,1-.26-1.34l.1-.07a4,4,0,0,1-.69,1.43,3.22,3.22,0,0,1-1.14.91,3.67,3.67,0,0,1-3.65-.43A2.7,2.7,0,0,1,76,45.92a2.83,2.83,0,0,1,.29-1.31,3.14,3.14,0,0,1,1-1.12,9.47,9.47,0,0,1,2.07-1A31.7,31.7,0,0,1,82.72,41.47Z"/><path class="cls-2" d="M98.4,38.44,94.19,48.69H92.57L87.83,38.55l-1.56-.64v-.56h6.38v.57l-1.53.52,3.56,7.89-.68,0,3-7.92-1.52-.51v-.57h4.22v.57Z"/><path class="cls-2" d="M105.56,37a4.69,4.69,0,0,1,2.43.61,4.14,4.14,0,0,1,1.58,1.75,7.46,7.46,0,0,1,.72,2.77h-8.12v-1l6.58-.35-1.43.65a6.9,6.9,0,0,0-.3-1.75,2.51,2.51,0,0,0-.66-1.1,1.52,1.52,0,0,0-1.08-.39,2.05,2.05,0,0,0-1.24.41,2.69,2.69,0,0,0-.86,1.29,7.44,7.44,0,0,0-.31,2.34,5.17,5.17,0,0,0,.52,2.39,3.57,3.57,0,0,0,1.46,1.52,4.32,4.32,0,0,0,2.2.53,4.71,4.71,0,0,0,1-.11,4.52,4.52,0,0,0,1-.34,6.85,6.85,0,0,0,.93-.59l.41.53a10.78,10.78,0,0,1-1.44,1.43,6.12,6.12,0,0,1-1.59.93,5.1,5.1,0,0,1-1.81.32,5.47,5.47,0,0,1-2.88-.75A5.22,5.22,0,0,1,100.7,46a6.12,6.12,0,0,1-.69-2.93,7.08,7.08,0,0,1,.65-3,5.18,5.18,0,0,1,4.9-3Z"/><path class="cls-2" d="M123.24,48.84a6.19,6.19,0,0,1-3.09-.73,5.06,5.06,0,0,1-2-2,6.1,6.1,0,0,1-.72-3,6.32,6.32,0,0,1,.77-3.14,5.48,5.48,0,0,1,2.12-2.15,6,6,0,0,1,3.09-.79,6.35,6.35,0,0,1,3.11.73,5.12,5.12,0,0,1,2,2,6.12,6.12,0,0,1,.71,3,6.21,6.21,0,0,1-.77,3.13,5.68,5.68,0,0,1-2.12,2.15A6.08,6.08,0,0,1,123.24,48.84Zm.14-1.19a2.23,2.23,0,0,0,1.36-.43,2.67,2.67,0,0,0,.93-1.35,7.18,7.18,0,0,0,.34-2.45,10.47,10.47,0,0,0-.33-2.85,3.79,3.79,0,0,0-1-1.74,2.06,2.06,0,0,0-1.49-.6,2.3,2.3,0,0,0-1.35.42A2.72,2.72,0,0,0,121,40a7.2,7.2,0,0,0-.34,2.46,11,11,0,0,0,.32,2.85,3.79,3.79,0,0,0,1,1.74A2.07,2.07,0,0,0,123.38,47.65Z"/><path class="cls-2" d="M135.41,39.57v7.84L137,48v.51h-6.34V48l1.71-.66V40a2.36,2.36,0,0,0-.66-.59,6.48,6.48,0,0,0-1.12-.5v-.42L134.46,37h.38ZM138.35,48l1.59-.61V41.28a2.16,2.16,0,0,0-.23-1.06,1.48,1.48,0,0,0-.71-.64,3,3,0,0,0-1.2-.22,4.58,4.58,0,0,0-1.59.28,2.74,2.74,0,0,0-1.09.7l-.53-.49a15.28,15.28,0,0,1,1.44-1.4,6.49,6.49,0,0,1,1.24-.86,5.08,5.08,0,0,1,1.17-.44,6.28,6.28,0,0,1,1.24-.13,2.93,2.93,0,0,1,2.47,1,5.26,5.26,0,0,1,.81,3.23v6.07l1.74.66v.51h-6.35Z"/><path class="cls-2" d="M158,41.47l.12,1.07a13.8,13.8,0,0,0-2,.59,4.48,4.48,0,0,0-1.21.64,1.85,1.85,0,0,0-.59.69,2.09,2.09,0,0,0-.15.81,1.67,1.67,0,0,0,.41,1.25,1.46,1.46,0,0,0,1,.41,1.56,1.56,0,0,0,.88-.25,1.84,1.84,0,0,0,.63-.67,1.88,1.88,0,0,0,.22-.91V40.25a1.9,1.9,0,0,0-.43-1.31,1.82,1.82,0,0,0-1.41-.49,4.17,4.17,0,0,0-.83.1,4.4,4.4,0,0,0-.82.28l.52-.79c-.06.41-.11.76-.17,1.05a5.18,5.18,0,0,1-.18.71,1.31,1.31,0,0,1-.26.44,1.52,1.52,0,0,1-.56.37,2,2,0,0,1-.73.13,1.3,1.3,0,0,1-.79-.21.64.64,0,0,1-.29-.55,1.52,1.52,0,0,1,.46-1,4.74,4.74,0,0,1,1.23-.94,7.84,7.84,0,0,1,3.68-.94,4.59,4.59,0,0,1,2.15.42,2.4,2.4,0,0,1,1.12,1.17,4.5,4.5,0,0,1,.33,1.79v5.72a1.4,1.4,0,0,0,.1.58.77.77,0,0,0,.3.36,1,1,0,0,0,.48.11,2,2,0,0,0,.58-.09,3,3,0,0,0,.63-.3v.74a5,5,0,0,1-1.34.91,3.21,3.21,0,0,1-1.34.33,2.45,2.45,0,0,1-1.3-.32,1.87,1.87,0,0,1-.76-.9,3.44,3.44,0,0,1-.26-1.34l.1-.07a4,4,0,0,1-.69,1.43,3.27,3.27,0,0,1-1.13.91,3.43,3.43,0,0,1-1.43.3,3.33,3.33,0,0,1-2.23-.73,2.73,2.73,0,0,1-.86-2.19,2.83,2.83,0,0,1,.29-1.31,3.23,3.23,0,0,1,1-1.12,9.47,9.47,0,0,1,2.07-1A31.7,31.7,0,0,1,158,41.47Z"/><path class="cls-2" d="M167.39,44.73a2.51,2.51,0,0,0,.18,1.05,1.06,1.06,0,0,0,.62.55,3.15,3.15,0,0,0,1.17.17,4.05,4.05,0,0,0,1.45-.25,2.22,2.22,0,0,0,1-.65l.52.56A16.75,16.75,0,0,1,171,47.5a6.16,6.16,0,0,1-1.16.81,4.08,4.08,0,0,1-1.09.42,6.12,6.12,0,0,1-1.17.11,2.87,2.87,0,0,1-2.41-1,4.93,4.93,0,0,1-.79-3.06v-5.9l-1.7-.81v-.59l4.86-.35-.14,1.65Zm4.33,4-.26-2.53V38.82l-1.55-.76v-.59l4.74-.35-.18,1.7v7.66c.1.09.21.19.33.28a3,3,0,0,0,.42.27l.46.22a4.34,4.34,0,0,0,.47.16v.47l-4.07.88Z"/><path class="cls-2" d="M181.51,45.19a1.38,1.38,0,0,0,.52,1.16,2.29,2.29,0,0,0,1.48.41,5.67,5.67,0,0,0,1-.1,12.31,12.31,0,0,0,1.23-.31v.71a12.54,12.54,0,0,1-1.55,1,6.75,6.75,0,0,1-1.28.56,3.89,3.89,0,0,1-1.07.17,4.22,4.22,0,0,1-1.76-.35,2.53,2.53,0,0,1-1.18-1.06,3.37,3.37,0,0,1-.43-1.79V39.46l-1.61-1.19v-.44l.74-.48.8-.53.81-.56.8-.54.74-.52h.73v10Zm-1.23-6.33V37.35h5.05l-.24,1.51Z"/><path class="cls-2" d="M192.32,48.84a6.19,6.19,0,0,1-3.09-.73,5.06,5.06,0,0,1-2-2,6.1,6.1,0,0,1-.72-3,6.32,6.32,0,0,1,.77-3.14,5.48,5.48,0,0,1,2.12-2.15,6,6,0,0,1,3.09-.79,6.35,6.35,0,0,1,3.11.73,5.12,5.12,0,0,1,2,2,6.12,6.12,0,0,1,.71,3,6.21,6.21,0,0,1-.77,3.13,5.61,5.61,0,0,1-2.12,2.15A6.08,6.08,0,0,1,192.32,48.84Zm.14-1.19a2.21,2.21,0,0,0,1.36-.43,2.67,2.67,0,0,0,.93-1.35,7.18,7.18,0,0,0,.34-2.45,10.47,10.47,0,0,0-.33-2.85,3.79,3.79,0,0,0-.95-1.74,2.06,2.06,0,0,0-1.49-.6,2.25,2.25,0,0,0-1.34.42,2.67,2.67,0,0,0-.93,1.35,7.2,7.2,0,0,0-.34,2.46,11,11,0,0,0,.32,2.85,3.79,3.79,0,0,0,.95,1.74A2.07,2.07,0,0,0,192.46,47.65Z"/><path class="cls-2" d="M209.57,43.08a5,5,0,0,0-.84-3.14,2.67,2.67,0,0,0-2.21-1.07,5.67,5.67,0,0,0-1.09.1,4.8,4.8,0,0,0-1,.29,4,4,0,0,0-.91.52l-.21-1c.45-.28.89-.53,1.31-.74a11.47,11.47,0,0,1,1.21-.55,7.44,7.44,0,0,1,1.11-.35,4.66,4.66,0,0,1,1-.13,4.86,4.86,0,0,1,2.67.69,4.43,4.43,0,0,1,1.65,1.88,6.4,6.4,0,0,1,.56,2.73,6.72,6.72,0,0,1-.87,3.49,5.91,5.91,0,0,1-2.3,2.25,6.47,6.47,0,0,1-3.14.78,7.43,7.43,0,0,1-1.27-.1,9.45,9.45,0,0,1-1.27-.32,11.85,11.85,0,0,1-1.42-.58h1.71v6l2,.71v.51h-6.72V54.6l1.72-.66v-14a2.46,2.46,0,0,0-.44-.41,5.91,5.91,0,0,0-.58-.35c-.23-.11-.48-.22-.77-.33v-.43l4-1.45h.37l.41,1.68v6.51a2.72,2.72,0,0,0,.29,1.26,2.12,2.12,0,0,0,.86.87,2.63,2.63,0,0,0,1.32.32,2.45,2.45,0,0,0,1.54-.5,3.23,3.23,0,0,0,1-1.51A7.87,7.87,0,0,0,209.57,43.08Z"/><path class="cls-2" d="M219.14,37l-.13,2.5v7.84l1.74.66v.51h-6.47V48l1.71-.66V39.79a2.58,2.58,0,0,0-.44-.43c-.19-.13-.4-.26-.62-.38a6.36,6.36,0,0,0-.7-.33v-.47L218.67,37Zm-1.72-3.14a1.88,1.88,0,0,1-1.39-.55,1.94,1.94,0,0,1-.53-1.39,1.89,1.89,0,0,1,.53-1.36,1.85,1.85,0,0,1,1.39-.55,1.85,1.85,0,0,1,1.94,1.91,1.94,1.94,0,0,1-.53,1.39A1.91,1.91,0,0,1,217.42,33.88Z"/><path class="cls-2" d="M226.22,47.36,228,48v.51h-6.49V48l1.73-.66V33.16a3.33,3.33,0,0,0-.46-.46,4.2,4.2,0,0,0-.64-.44,8.15,8.15,0,0,0-.88-.42v-.47L226.06,30h.36l-.2,2.54Z"/><path class="cls-2" d="M235,48.84a6.26,6.26,0,0,1-3.1-.73,5.12,5.12,0,0,1-2-2,6.2,6.2,0,0,1-.71-3,6.32,6.32,0,0,1,.77-3.14A5.41,5.41,0,0,1,232,37.81a6,6,0,0,1,3.09-.79,6.38,6.38,0,0,1,3.11.73,5.1,5.1,0,0,1,2,2,6.12,6.12,0,0,1,.72,3,6.31,6.31,0,0,1-.77,3.13,5.76,5.76,0,0,1-2.12,2.15A6.08,6.08,0,0,1,235,48.84Zm.14-1.19a2.25,2.25,0,0,0,1.36-.43,2.8,2.8,0,0,0,.93-1.35,7.43,7.43,0,0,0,.34-2.45,10.44,10.44,0,0,0-.34-2.85,3.7,3.7,0,0,0-.95-1.74,2,2,0,0,0-1.48-.6,2.28,2.28,0,0,0-1.35.42,2.8,2.8,0,0,0-.93,1.35,7.46,7.46,0,0,0-.34,2.46,10.58,10.58,0,0,0,.33,2.85,3.7,3.7,0,0,0,1,1.74A2.05,2.05,0,0,0,235.13,47.65Z"/><path class="cls-2" d="M246.78,45.19a1.38,1.38,0,0,0,.52,1.16,2.29,2.29,0,0,0,1.48.41,5.59,5.59,0,0,0,1-.1,12.31,12.31,0,0,0,1.23-.31v.71a12.54,12.54,0,0,1-1.55,1,6.49,6.49,0,0,1-1.28.56,3.89,3.89,0,0,1-1.07.17,4.22,4.22,0,0,1-1.76-.35,2.53,2.53,0,0,1-1.18-1.06,3.46,3.46,0,0,1-.43-1.79V39.46l-1.61-1.19v-.44l.74-.48.8-.53c.27-.18.55-.37.81-.56l.8-.54.74-.52h.73v10Zm-1.23-6.33V37.35h5l-.23,1.51Z"/><polygon class="cls-3" points="45.25 49.81 53.1 41.96 55.06 40 53.1 38.04 45.25 30.19 43.29 28.23 39.37 32.15 41.33 34.11 44.34 37.13 32.46 37.13 29.34 37.13 29.34 42.9 32.46 42.9 44.32 42.9 41.33 45.89 39.37 47.85 43.29 51.77 45.25 49.81"/><path class="cls-2" d="M38.2,100.85a3.48,3.48,0,0,1-.56,1.85A3.41,3.41,0,0,1,36.2,104a4.84,4.84,0,0,1-2.16.45,4.3,4.3,0,0,1-2.3-.59,3.78,3.78,0,0,1-1.46-1.69,6.23,6.23,0,0,1-.51-2.63v-.4a6,6,0,0,1,.53-2.63,4,4,0,0,1,1.47-1.7A4.08,4.08,0,0,1,34,94.18a4.72,4.72,0,0,1,2.23.47A3.54,3.54,0,0,1,37.63,96a4.29,4.29,0,0,1,.59,1.87H35.66a1.72,1.72,0,0,0-.38-1.17A1.75,1.75,0,0,0,34,96.28a1.51,1.51,0,0,0-.91.26,1.62,1.62,0,0,0-.54.88,6.6,6.6,0,0,0-.17,1.66v.42a7.31,7.31,0,0,0,.15,1.67,1.49,1.49,0,0,0,.52.87,1.64,1.64,0,0,0,1,.26,2.26,2.26,0,0,0,.87-.15,1.08,1.08,0,0,0,.54-.47,1.67,1.67,0,0,0,.2-.83Z"/><path class="cls-2" d="M41.55,104.27H39.08V93.77h2.47Zm-.85-3.87A4.87,4.87,0,0,1,41,98.51a3,3,0,0,1,.94-1.3,2.27,2.27,0,0,1,1.42-.47,2.82,2.82,0,0,1,1.29.29,2,2,0,0,1,.88,1,3.91,3.91,0,0,1,.32,1.75v4.54H43.4V99.72a1.28,1.28,0,0,0-.12-.62.68.68,0,0,0-.33-.3,1.64,1.64,0,0,0-.53-.08,1.48,1.48,0,0,0-.61.11.86.86,0,0,0-.35.33,1.59,1.59,0,0,0-.16.52,6.53,6.53,0,0,0,0,.67Z"/><path class="cls-2" d="M46.8,100.51a4.35,4.35,0,0,1,.41-1.94,3.13,3.13,0,0,1,1.21-1.34,3.63,3.63,0,0,1,2-.49,3.74,3.74,0,0,1,2,.49,3.13,3.13,0,0,1,1.21,1.34,4.49,4.49,0,0,1,.41,1.94v.13a4.49,4.49,0,0,1-.41,1.94,3.08,3.08,0,0,1-1.21,1.34,4.23,4.23,0,0,1-3.95,0,3.08,3.08,0,0,1-1.21-1.34,4.35,4.35,0,0,1-.41-1.94Zm2.46.13a4.35,4.35,0,0,0,.09.92,1.27,1.27,0,0,0,.34.63,1.16,1.16,0,0,0,1.41,0,1.19,1.19,0,0,0,.33-.63,3.76,3.76,0,0,0,.1-.92v-.13a3.59,3.59,0,0,0-.1-.9A1.34,1.34,0,0,0,51.1,99a1,1,0,0,0-.72-.24.93.93,0,0,0-.69.24,1.44,1.44,0,0,0-.34.65,4.16,4.16,0,0,0-.09.9Z"/><path class="cls-2" d="M54.67,100.51a4.49,4.49,0,0,1,.41-1.94,3.2,3.2,0,0,1,1.21-1.34,3.67,3.67,0,0,1,2-.49,3.74,3.74,0,0,1,2,.49,3.17,3.17,0,0,1,1.2,1.34,4.35,4.35,0,0,1,.41,1.94v.13a4.35,4.35,0,0,1-.41,1.94,3.11,3.11,0,0,1-1.2,1.34,3.68,3.68,0,0,1-2,.49,3.73,3.73,0,0,1-2-.49,3.14,3.14,0,0,1-1.21-1.34,4.49,4.49,0,0,1-.41-1.94Zm2.47.13a4.35,4.35,0,0,0,.09.92,1.14,1.14,0,0,0,.34.63,1.14,1.14,0,0,0,1.4,0,1.2,1.2,0,0,0,.34-.63,4.35,4.35,0,0,0,.09-.92v-.13a4.16,4.16,0,0,0-.09-.9A1.35,1.35,0,0,0,59,99a1,1,0,0,0-.71-.24.93.93,0,0,0-.69.24,1.27,1.27,0,0,0-.34.65,4.16,4.16,0,0,0-.09.9Z"/><path class="cls-2" d="M66.63,102.16a.36.36,0,0,0-.12-.28,1.34,1.34,0,0,0-.42-.21,6.33,6.33,0,0,0-.84-.21,6.31,6.31,0,0,1-1.31-.45,2.69,2.69,0,0,1-.95-.76,1.82,1.82,0,0,1-.35-1.12A2.1,2.1,0,0,1,63,98a2.52,2.52,0,0,1,1.06-.88,3.82,3.82,0,0,1,1.67-.33,4.42,4.42,0,0,1,1.75.31,2.64,2.64,0,0,1,1.14.85,2.1,2.1,0,0,1,.4,1.28H66.56a.78.78,0,0,0-.19-.59.92.92,0,0,0-.65-.18.89.89,0,0,0-.36.07.63.63,0,0,0-.28.19A.52.52,0,0,0,65,99a.42.42,0,0,0,.13.31.91.91,0,0,0,.38.22,2.83,2.83,0,0,0,.64.16,7.66,7.66,0,0,1,1.39.37,2.69,2.69,0,0,1,1.08.73,2.06,2.06,0,0,1,0,2.48,2.59,2.59,0,0,1-1.13.83,4.48,4.48,0,0,1-1.75.31,3.82,3.82,0,0,1-1.81-.39,2.85,2.85,0,0,1-1.12-1,2.14,2.14,0,0,1-.38-1.19h2.3a.84.84,0,0,0,.14.49.91.91,0,0,0,.37.3,1.62,1.62,0,0,0,.57.09,1.58,1.58,0,0,0,.47-.06.75.75,0,0,0,.28-.2A.54.54,0,0,0,66.63,102.16Z"/><path class="cls-2" d="M73.67,104.41a4.18,4.18,0,0,1-2.1-.5,3.39,3.39,0,0,1-1.31-1.32,3.58,3.58,0,0,1-.46-1.76v-.26a4.69,4.69,0,0,1,.4-1.93,3.24,3.24,0,0,1,1.2-1.39,4.12,4.12,0,0,1,3.84-.07,2.92,2.92,0,0,1,1.17,1.26,4.32,4.32,0,0,1,.4,2v1H70.73V99.84h3.68v-.2a1.11,1.11,0,0,0-.11-.52.69.69,0,0,0-.35-.3,1.34,1.34,0,0,0-.56-.1.91.91,0,0,0-.72.27,1.39,1.39,0,0,0-.32.68,4.37,4.37,0,0,0-.08.9v.26a1.9,1.9,0,0,0,.18.85,1.25,1.25,0,0,0,.54.55,1.68,1.68,0,0,0,.84.19,2.69,2.69,0,0,0,.91-.16,1.67,1.67,0,0,0,.77-.55l1.1,1.41a3,3,0,0,1-1.1.89A4,4,0,0,1,73.67,104.41Z"/><path class="cls-2" d="M85.19,98.65H80.65V96.88h4.54ZM84,95v6.68a1.11,1.11,0,0,0,.06.41.38.38,0,0,0,.22.21,1.33,1.33,0,0,0,.44.06h.33a1,1,0,0,0,.24,0v1.84a4.61,4.61,0,0,1-.64.16,5,5,0,0,1-.7,0,3.14,3.14,0,0,1-1.3-.24,1.78,1.78,0,0,1-.82-.76,2.76,2.76,0,0,1-.28-1.33V95Z"/><path class="cls-2" d="M88.43,104.27H86V93.77h2.47Zm-.86-3.87a5.06,5.06,0,0,1,.33-1.89,3,3,0,0,1,.93-1.3,2.29,2.29,0,0,1,1.42-.47,2.86,2.86,0,0,1,1.3.29,2,2,0,0,1,.88,1,4.05,4.05,0,0,1,.32,1.75v4.54H90.27V99.72a1.43,1.43,0,0,0-.11-.62.66.66,0,0,0-.34-.3,1.6,1.6,0,0,0-.53-.08,1.51,1.51,0,0,0-.61.11.86.86,0,0,0-.35.33,1.38,1.38,0,0,0-.15.52,4.55,4.55,0,0,0,0,.67Z"/><path class="cls-2" d="M97.6,104.41a4.18,4.18,0,0,1-2.1-.5,3.39,3.39,0,0,1-1.31-1.32,3.57,3.57,0,0,1-.45-1.76v-.26a4.69,4.69,0,0,1,.39-1.93,3.3,3.3,0,0,1,1.2-1.39,3.66,3.66,0,0,1,2-.51,3.59,3.59,0,0,1,1.83.44,2.86,2.86,0,0,1,1.17,1.26,4.32,4.32,0,0,1,.4,2v1H94.66V99.84h3.68v-.2a1,1,0,0,0-.11-.52.65.65,0,0,0-.35-.3,1.34,1.34,0,0,0-.56-.1.91.91,0,0,0-.72.27,1.48,1.48,0,0,0-.32.68,5.19,5.19,0,0,0-.08.9v.26a1.9,1.9,0,0,0,.18.85,1.3,1.3,0,0,0,.54.55,1.71,1.71,0,0,0,.84.19,2.65,2.65,0,0,0,.91-.16,1.67,1.67,0,0,0,.77-.55l1.11,1.41a3.16,3.16,0,0,1-1.11.89A4,4,0,0,1,97.6,104.41Z"/><path class="cls-2" d="M109.19,101.07h-1a.86.86,0,0,0-.78.31,1.17,1.17,0,0,0-.21.66.49.49,0,0,0,.19.41.73.73,0,0,0,.47.15,1.32,1.32,0,0,0,.59-.12,1.27,1.27,0,0,0,.37-.3.43.43,0,0,0,.1-.3l.52,1a5.54,5.54,0,0,1-.3.53,2.09,2.09,0,0,1-.41.48,2,2,0,0,1-.6.36,2.75,2.75,0,0,1-.87.13,2.9,2.9,0,0,1-1.25-.28,2.39,2.39,0,0,1-.93-.79,2,2,0,0,1-.35-1.17,2.12,2.12,0,0,1,.85-1.79,4.26,4.26,0,0,1,2.63-.65h.92Zm-.3-1.66a1.07,1.07,0,0,0-.18-.65.68.68,0,0,0-.6-.24,1.08,1.08,0,0,0-.38.06.49.49,0,0,0-.23.22.93.93,0,0,0-.08.41H105a2.1,2.1,0,0,1,.41-1.28,2.56,2.56,0,0,1,1.14-.87,4.21,4.21,0,0,1,1.73-.32,4,4,0,0,1,1.6.3,2.39,2.39,0,0,1,1.11.89,2.62,2.62,0,0,1,.41,1.5v2.91a5.36,5.36,0,0,0,.09,1.17,2.42,2.42,0,0,0,.23.64v.12h-2.46a3.25,3.25,0,0,1-.25-.89,6.47,6.47,0,0,1-.08-1.1Z"/><path class="cls-2" d="M115,104.27h-2.47V96.88h2.31l.16,1.57Zm-.86-3.87a5.06,5.06,0,0,1,.32-1.89,2.78,2.78,0,0,1,1-1.3,2.61,2.61,0,0,1,1.57-.47,2.11,2.11,0,0,1,1.56.6,2.83,2.83,0,0,1,.59,2v4.93h-2.47V99.69a1.61,1.61,0,0,0-.09-.63.45.45,0,0,0-.27-.27,1.26,1.26,0,0,0-.93,0,1.16,1.16,0,0,0-.37.33,1.64,1.64,0,0,0-.23.52,2.32,2.32,0,0,0-.08.67Zm4,.08a5.77,5.77,0,0,1,.3-1.94,2.88,2.88,0,0,1,.94-1.32,2.5,2.5,0,0,1,1.56-.48,2.59,2.59,0,0,1,1.2.27,1.87,1.87,0,0,1,.81.91,4.12,4.12,0,0,1,.3,1.74v4.61h-2.47V99.66a1.48,1.48,0,0,0-.1-.6.48.48,0,0,0-.27-.27,1.11,1.11,0,0,0-.43-.07,1,1,0,0,0-.52.13,1,1,0,0,0-.36.36,1.86,1.86,0,0,0-.21.56,3.26,3.26,0,0,0-.08.73Z"/><path class="cls-2" d="M124.29,100.51a4.49,4.49,0,0,1,.41-1.94,3.26,3.26,0,0,1,1.21-1.34,3.69,3.69,0,0,1,2-.49,3.74,3.74,0,0,1,2,.49,3.2,3.2,0,0,1,1.21,1.34,4.49,4.49,0,0,1,.41,1.94v.13a4.49,4.49,0,0,1-.41,1.94,3.08,3.08,0,0,1-1.21,1.34,4.23,4.23,0,0,1-4,0,3.16,3.16,0,0,1-1.22-1.34,4.49,4.49,0,0,1-.41-1.94Zm2.47.13a4.35,4.35,0,0,0,.09.92,1.27,1.27,0,0,0,.34.63,1,1,0,0,0,.71.24.93.93,0,0,0,.69-.24,1.14,1.14,0,0,0,.34-.63,4.35,4.35,0,0,0,.09-.92v-.13a4.16,4.16,0,0,0-.09-.9,1.27,1.27,0,0,0-.34-.65,1,1,0,0,0-.71-.24.93.93,0,0,0-.69.24,1.44,1.44,0,0,0-.34.65,4.16,4.16,0,0,0-.09.9Z"/><path class="cls-2" d="M137.56,100.92a4.76,4.76,0,0,1-.31,1.79,2.79,2.79,0,0,1-.92,1.24,2.29,2.29,0,0,1-1.45.46,2.5,2.5,0,0,1-1.79-.64,2.76,2.76,0,0,1-.69-2.1V96.88h2.46v4.8a.72.72,0,0,0,.1.4.62.62,0,0,0,.27.26,1.09,1.09,0,0,0,.47.09,1.26,1.26,0,0,0,.75-.2,1,1,0,0,0,.38-.52,2.65,2.65,0,0,0,.11-.77Zm-.85-4h2.47v7.39h-2.31l-.16-1.82Z"/><path class="cls-2" d="M142.78,104.27h-2.46V96.88h2.3l.16,1.57Zm-.86-3.87a5.15,5.15,0,0,1,.35-2,2.77,2.77,0,0,1,1-1.24,2.71,2.71,0,0,1,1.5-.42A2.6,2.6,0,0,1,146,97a1.87,1.87,0,0,1,.81.91,4.15,4.15,0,0,1,.3,1.74v4.61h-2.47V99.65a1.29,1.29,0,0,0-.11-.59.58.58,0,0,0-.33-.27,1.66,1.66,0,0,0-.53-.07,1.25,1.25,0,0,0-.55.11,1,1,0,0,0-.36.33,1.6,1.6,0,0,0-.19.52,3.4,3.4,0,0,0-.06.67Z"/><path class="cls-2" d="M152.3,98.65h-4.54V96.88h4.54ZM151.12,95v6.68a1.11,1.11,0,0,0,.06.41.38.38,0,0,0,.22.21,1.33,1.33,0,0,0,.44.06h.32a.88.88,0,0,0,.24,0v1.84a3.92,3.92,0,0,1-1.34.21,3.23,3.23,0,0,1-1.31-.24,1.76,1.76,0,0,1-.81-.76,2.76,2.76,0,0,1-.28-1.33V95Z"/><path class="cls-2" d="M160,101.85l.25,2.74-1.64-.09L156,96.88h2.64Zm.81-5h2.64l-2.94,8.48a5.85,5.85,0,0,1-.26.61,2.82,2.82,0,0,1-.44.62,2.12,2.12,0,0,1-.71.48,2.64,2.64,0,0,1-1.08.19h-.37a1.28,1.28,0,0,1-.27,0l-.35-.08v-1.84h.28a1.54,1.54,0,0,0,.77-.14.68.68,0,0,0,.31-.36l.55-1.4Z"/><path class="cls-2" d="M163.66,100.51a4.49,4.49,0,0,1,.41-1.94,3.26,3.26,0,0,1,1.21-1.34,3.69,3.69,0,0,1,2-.49,3.74,3.74,0,0,1,2,.49,3.2,3.2,0,0,1,1.21,1.34,4.49,4.49,0,0,1,.4,1.94v.13a4.49,4.49,0,0,1-.4,1.94,3.14,3.14,0,0,1-1.21,1.34,4.23,4.23,0,0,1-4,0,3.16,3.16,0,0,1-1.22-1.34,4.49,4.49,0,0,1-.41-1.94Zm2.47.13a4.35,4.35,0,0,0,.09.92,1.2,1.2,0,0,0,.34.63,1,1,0,0,0,.7.24.94.94,0,0,0,.7-.24,1.14,1.14,0,0,0,.34-.63,4.35,4.35,0,0,0,.09-.92v-.13a4.16,4.16,0,0,0-.09-.9A1.27,1.27,0,0,0,168,99a1,1,0,0,0-.71-.24.93.93,0,0,0-.69.24,1.35,1.35,0,0,0-.34.65,4.16,4.16,0,0,0-.09.9Z"/><path class="cls-2" d="M176.93,100.92a4.76,4.76,0,0,1-.31,1.79,2.79,2.79,0,0,1-.92,1.24,2.32,2.32,0,0,1-1.46.46,2.49,2.49,0,0,1-1.78-.64,2.76,2.76,0,0,1-.69-2.1V96.88h2.46v4.8a.82.82,0,0,0,.09.4.64.64,0,0,0,.28.26,1.08,1.08,0,0,0,.46.09,1.27,1.27,0,0,0,.76-.2,1,1,0,0,0,.38-.52,2.65,2.65,0,0,0,.11-.77Zm-.85-4h2.46v7.39h-2.3l-.16-1.82Z"/><path class="cls-2" d="M185.89,101.86l.05,2.41h-1.48l-1.72-7.39h2.36Zm.93-5h1.53l-.51,2.87-1.31,4.52H185.3l.19-2.35Zm3.07,5,.17,2.35h-1.23l-1.28-4.5-.5-2.89h1.48Zm.37-5h2.35l-1.7,7.39h-1.49l0-2.53Z"/><path class="cls-2" d="M197.45,101.07h-.95a.88.88,0,0,0-.79.31,1.17,1.17,0,0,0-.21.66.52.52,0,0,0,.19.41.73.73,0,0,0,.47.15,1.32,1.32,0,0,0,.59-.12,1.15,1.15,0,0,0,.37-.3.43.43,0,0,0,.1-.3l.53,1a5.64,5.64,0,0,1-.31.53,2.09,2.09,0,0,1-.41.48,2,2,0,0,1-.6.36,2.73,2.73,0,0,1-.86.13,2.94,2.94,0,0,1-1.26-.28,2.36,2.36,0,0,1-.92-.79,2,2,0,0,1-.35-1.17,2.13,2.13,0,0,1,.84-1.79,4.27,4.27,0,0,1,2.64-.65h.91Zm-.31-1.66a1.07,1.07,0,0,0-.18-.65.67.67,0,0,0-.59-.24,1,1,0,0,0-.38.06.51.51,0,0,0-.24.22.94.94,0,0,0-.07.41h-2.47a2.1,2.1,0,0,1,.41-1.28,2.67,2.67,0,0,1,1.14-.87,4.22,4.22,0,0,1,1.74-.32,4,4,0,0,1,1.59.3,2.39,2.39,0,0,1,1.11.89,2.55,2.55,0,0,1,.41,1.5v2.91a5.36,5.36,0,0,0,.09,1.17,2.83,2.83,0,0,0,.23.64v.12h-2.46a3.25,3.25,0,0,1-.25-.89,7.69,7.69,0,0,1-.08-1.1Z"/><path class="cls-2" d="M203.22,104.27h-2.47V96.88h2.31l.16,1.57Zm-.86-3.87a5,5,0,0,1,.35-2,2.77,2.77,0,0,1,1-1.24,2.69,2.69,0,0,1,1.5-.42,2.53,2.53,0,0,1,1.2.27,1.89,1.89,0,0,1,.82.91,4.15,4.15,0,0,1,.3,1.74v4.61h-2.48V99.65a1.17,1.17,0,0,0-.11-.59.53.53,0,0,0-.33-.27,1.62,1.62,0,0,0-.53-.07,1.28,1.28,0,0,0-.55.11,1,1,0,0,0-.35.33,1.4,1.4,0,0,0-.19.52,3.4,3.4,0,0,0-.06.67Z"/><path class="cls-2" d="M212.74,98.65h-4.55V96.88h4.55ZM211.55,95v6.68a1.08,1.08,0,0,0,.07.41.35.35,0,0,0,.22.21,1.29,1.29,0,0,0,.44.06h.32a.88.88,0,0,0,.24,0v1.84a4.85,4.85,0,0,1-.63.16,5.16,5.16,0,0,1-.71,0,3.18,3.18,0,0,1-1.3-.24,1.78,1.78,0,0,1-.82-.76,2.88,2.88,0,0,1-.28-1.33V95Z"/><path class="cls-2" d="M221.08,98.65h-4.55V96.88h4.55ZM219.89,95v6.68a1.08,1.08,0,0,0,.07.41.35.35,0,0,0,.22.21,1.29,1.29,0,0,0,.44.06h.32a.88.88,0,0,0,.24,0v1.84a4.85,4.85,0,0,1-.63.16,5.16,5.16,0,0,1-.71,0,3.18,3.18,0,0,1-1.3-.24,1.78,1.78,0,0,1-.82-.76,2.88,2.88,0,0,1-.28-1.33V95Z"/><path class="cls-2" d="M221.5,100.51a4.49,4.49,0,0,1,.41-1.94,3.2,3.2,0,0,1,1.21-1.34,3.67,3.67,0,0,1,2-.49,3.74,3.74,0,0,1,2,.49,3.26,3.26,0,0,1,1.21,1.34,4.49,4.49,0,0,1,.4,1.94v.13a4.49,4.49,0,0,1-.4,1.94,3.2,3.2,0,0,1-1.21,1.34,4.23,4.23,0,0,1-4,0,3.1,3.1,0,0,1-1.22-1.34,4.49,4.49,0,0,1-.41-1.94Zm2.47.13a4.35,4.35,0,0,0,.09.92,1.2,1.2,0,0,0,.34.63,1.14,1.14,0,0,0,1.4,0,1.14,1.14,0,0,0,.34-.63,4.35,4.35,0,0,0,.09-.92v-.13a4.16,4.16,0,0,0-.09-.9,1.27,1.27,0,0,0-.34-.65,1,1,0,0,0-.71-.24.93.93,0,0,0-.69.24,1.27,1.27,0,0,0-.34.65,4.16,4.16,0,0,0-.09.9Z"/><path class="cls-2" d="M237,102.16a.36.36,0,0,0-.12-.28,1.34,1.34,0,0,0-.42-.21,6.33,6.33,0,0,0-.84-.21,6.31,6.31,0,0,1-1.31-.45,2.69,2.69,0,0,1-1-.76,1.82,1.82,0,0,1-.35-1.12,2.1,2.1,0,0,1,.36-1.18,2.58,2.58,0,0,1,1.06-.88,3.86,3.86,0,0,1,1.67-.33,4.42,4.42,0,0,1,1.75.31,2.64,2.64,0,0,1,1.14.85,2.1,2.1,0,0,1,.4,1.28h-2.46a.78.78,0,0,0-.19-.59.92.92,0,0,0-.65-.18.89.89,0,0,0-.36.07.63.63,0,0,0-.28.19.52.52,0,0,0-.11.33.46.46,0,0,0,.13.31.91.91,0,0,0,.38.22,2.83,2.83,0,0,0,.64.16,7.66,7.66,0,0,1,1.39.37,2.69,2.69,0,0,1,1.08.73,1.88,1.88,0,0,1,.42,1.3,1.93,1.93,0,0,1-.4,1.18,2.68,2.68,0,0,1-1.14.83,4.45,4.45,0,0,1-1.75.31,3.84,3.84,0,0,1-1.81-.39,2.85,2.85,0,0,1-1.12-1,2.22,2.22,0,0,1-.38-1.19H235a.91.91,0,0,0,.14.49.88.88,0,0,0,.38.3,1.57,1.57,0,0,0,.56.09,1.53,1.53,0,0,0,.47-.06.75.75,0,0,0,.28-.2A.54.54,0,0,0,237,102.16Z"/><path class="cls-2" d="M244.42,101.07h-.95a.85.85,0,0,0-.78.31,1.17,1.17,0,0,0-.21.66.49.49,0,0,0,.19.41.72.72,0,0,0,.47.15,1.32,1.32,0,0,0,.59-.12,1.11,1.11,0,0,0,.36-.3.4.4,0,0,0,.11-.3l.52,1a5.54,5.54,0,0,1-.3.53,2.09,2.09,0,0,1-.41.48,1.93,1.93,0,0,1-.61.36,2.64,2.64,0,0,1-.86.13,2.9,2.9,0,0,1-1.25-.28,2.32,2.32,0,0,1-.93-.79,2,2,0,0,1-.35-1.17,2.13,2.13,0,0,1,.84-1.79,4.27,4.27,0,0,1,2.64-.65h.92Zm-.31-1.66a1.07,1.07,0,0,0-.17-.65.7.7,0,0,0-.6-.24,1,1,0,0,0-.38.06.49.49,0,0,0-.23.22.93.93,0,0,0-.08.41h-2.46a2.16,2.16,0,0,1,.4-1.28,2.65,2.65,0,0,1,1.15-.87,4.21,4.21,0,0,1,1.73-.32,4,4,0,0,1,1.59.3,2.42,2.42,0,0,1,1.12.89,2.62,2.62,0,0,1,.41,1.5v2.91a6.3,6.3,0,0,0,.08,1.17,2.84,2.84,0,0,0,.24.64v.12h-2.46a3.25,3.25,0,0,1-.25-.89,6.45,6.45,0,0,1-.09-1.1Z"/><path class="cls-2" d="M251,102.54l0,1.73h-1.53L247,96.88h2.61Zm.75-5.66h2.59l-2.38,7.39H250.4l0-1.72Z"/><path class="cls-2" d="M258.59,104.41a4.18,4.18,0,0,1-2.1-.5,3.32,3.32,0,0,1-1.31-1.32,3.48,3.48,0,0,1-.46-1.76v-.26a4.69,4.69,0,0,1,.4-1.93,3.24,3.24,0,0,1,1.2-1.39,4.12,4.12,0,0,1,3.84-.07,2.9,2.9,0,0,1,1.16,1.26,4.19,4.19,0,0,1,.41,2v1h-6.08V99.84h3.67v-.2a1,1,0,0,0-.1-.52.69.69,0,0,0-.35-.3,1.34,1.34,0,0,0-.56-.1.91.91,0,0,0-.72.27,1.39,1.39,0,0,0-.32.68,4.36,4.36,0,0,0-.09.9v.26a1.9,1.9,0,0,0,.19.85,1.25,1.25,0,0,0,.54.55,1.68,1.68,0,0,0,.84.19,2.69,2.69,0,0,0,.91-.16,1.67,1.67,0,0,0,.77-.55l1.1,1.41a3.12,3.12,0,0,1-1.1.89A4,4,0,0,1,258.59,104.41Z"/><path class="cls-2" d="M41.17,134.67l1.67-13.91h16v5.38H48.3l-.58,4.69a10.1,10.1,0,0,1,1.46-.56,7.11,7.11,0,0,1,2.27-.35A9.13,9.13,0,0,1,56,131a6.9,6.9,0,0,1,2.84,3.1,11.62,11.62,0,0,1,1,5,9.66,9.66,0,0,1-1,4.35,8.43,8.43,0,0,1-3.14,3.42,9.91,9.91,0,0,1-5.35,1.32,11.4,11.4,0,0,1-3.57-.57,10.35,10.35,0,0,1-3.12-1.65,8,8,0,0,1-2.18-2.59,6.88,6.88,0,0,1-.76-3.37h6.72a2.89,2.89,0,0,0,.83,2,2.74,2.74,0,0,0,2,.78,2.43,2.43,0,0,0,1.79-.61,3.24,3.24,0,0,0,.86-1.59,9.07,9.07,0,0,0,.23-2.05,5.38,5.38,0,0,0-.36-2.08,2.66,2.66,0,0,0-1.15-1.32,4.2,4.2,0,0,0-2.09-.46,3.73,3.73,0,0,0-2,.47,4.12,4.12,0,0,0-1,.85Z"/><path class="cls-2" d="M82.05,136.81a14.58,14.58,0,0,1-1.22,6.35,8.35,8.35,0,0,1-3.36,3.75,9.69,9.69,0,0,1-4.92,1.23,9.84,9.84,0,0,1-5-1.23,8.27,8.27,0,0,1-3.38-3.75A14.58,14.58,0,0,1,63,136.81v-5.07a14.56,14.56,0,0,1,1.21-6.35,8.31,8.31,0,0,1,3.36-3.76,10.48,10.48,0,0,1,9.89,0,8.44,8.44,0,0,1,3.37,3.76,14.4,14.4,0,0,1,1.23,6.35Zm-6.7-5.94a10.58,10.58,0,0,0-.35-3.05,3,3,0,0,0-1-1.57,2.46,2.46,0,0,0-1.5-.47,2.51,2.51,0,0,0-1.51.47,2.92,2.92,0,0,0-1,1.57,10.58,10.58,0,0,0-.35,3.05v6.79a10.51,10.51,0,0,0,.36,3.1,2.86,2.86,0,0,0,1,1.56,2.67,2.67,0,0,0,1.53.44,2.54,2.54,0,0,0,1.48-.44,2.91,2.91,0,0,0,1-1.56,11,11,0,0,0,.34-3.1Z"/><path class="cls-2" d="M104.17,136.81a14.58,14.58,0,0,1-1.22,6.35,8.35,8.35,0,0,1-3.36,3.75,9.71,9.71,0,0,1-4.92,1.23,9.88,9.88,0,0,1-5-1.23,8.31,8.31,0,0,1-3.37-3.75,14.58,14.58,0,0,1-1.22-6.35v-5.07a14.56,14.56,0,0,1,1.21-6.35,8.31,8.31,0,0,1,3.36-3.76,10.46,10.46,0,0,1,9.88,0,8.41,8.41,0,0,1,3.38,3.76,14.4,14.4,0,0,1,1.23,6.35Zm-6.7-5.94a10.58,10.58,0,0,0-.35-3.05,3,3,0,0,0-1-1.57,2.46,2.46,0,0,0-1.5-.47,2.49,2.49,0,0,0-1.51.47,2.93,2.93,0,0,0-1,1.57,10.63,10.63,0,0,0-.34,3.05v6.79a10.91,10.91,0,0,0,.35,3.1,2.92,2.92,0,0,0,1,1.56,2.63,2.63,0,0,0,1.53.44,2.56,2.56,0,0,0,1.48-.44,2.91,2.91,0,0,0,1-1.56,11.35,11.35,0,0,0,.34-3.1Z"/><path class="cls-4" d="M30.25,128v-2.56h7.3V128Zm0,4.78v-2.65h9.47v2.65ZM35,128.69a2.17,2.17,0,0,1-.44,1.44,3.61,3.61,0,0,1-1.59,1l-1.82-1a.56.56,0,0,0,.36-.23.9.9,0,0,0,.12-.41,4.52,4.52,0,0,0,0-.54l-.16-5.3a4.07,4.07,0,0,1,.5-2.07,3.25,3.25,0,0,1,1.41-1.31,4.76,4.76,0,0,1,2.14-.45,4.36,4.36,0,0,1,3.15,1,3.68,3.68,0,0,1,1.09,2.78H36.72a1.54,1.54,0,0,0-.14-.71.82.82,0,0,0-.38-.36,1.41,1.41,0,0,0-.54-.11.79.79,0,0,0-.62.28,1.38,1.38,0,0,0-.24.9Z"/><path class="cls-2" d="M60,332.91H40.91v-4.53l8.67-9a21.29,21.29,0,0,0,1.77-2.18,8.68,8.68,0,0,0,1-1.76,3.83,3.83,0,0,0,.31-1.4,3.56,3.56,0,0,0-.69-2.41,2.49,2.49,0,0,0-2-.78,2.35,2.35,0,0,0-1.54.52,3.3,3.3,0,0,0-1,1.39,5.07,5.07,0,0,0-.37,2H40.36a9.06,9.06,0,0,1,4.66-8,10.12,10.12,0,0,1,5.12-1.25q4.56,0,6.89,2.08a7.49,7.49,0,0,1,2.33,5.88,8.62,8.62,0,0,1-.78,3.64,15.59,15.59,0,0,1-2.25,3.45q-1.47,1.76-3.54,3.87l-3.1,3.1H60Z"/><path class="cls-2" d="M82,325.41a7.36,7.36,0,0,1-1.22,4.36,7.47,7.47,0,0,1-3.35,2.63,12.59,12.59,0,0,1-4.87.88,12.8,12.8,0,0,1-4.89-.88,7.58,7.58,0,0,1-3.41-2.63A7.23,7.23,0,0,1,63,325.41a6.67,6.67,0,0,1,1.27-4.1,8,8,0,0,1,3.41-2.6,13.54,13.54,0,0,1,9.71,0,7.8,7.8,0,0,1,3.38,2.6A6.84,6.84,0,0,1,82,325.41Zm-.53-12.24a6.27,6.27,0,0,1-1.14,3.73,7.43,7.43,0,0,1-3.13,2.48,11.6,11.6,0,0,1-4.64.88,11.72,11.72,0,0,1-4.65-.88,7.61,7.61,0,0,1-3.19-2.48,6.22,6.22,0,0,1-1.16-3.73A7.34,7.34,0,0,1,64.7,309a7.1,7.1,0,0,1,3.17-2.58,12.83,12.83,0,0,1,9.29,0A7,7,0,0,1,80.31,309,7.42,7.42,0,0,1,81.46,313.17ZM75.3,324.82a3.62,3.62,0,0,0-.35-1.67,2.4,2.4,0,0,0-1-1,3.35,3.35,0,0,0-2.94,0,2.47,2.47,0,0,0-1,1,3.62,3.62,0,0,0-.35,1.67,3.57,3.57,0,0,0,.35,1.63,2.63,2.63,0,0,0,1,1.07,2.93,2.93,0,0,0,1.5.38,2.79,2.79,0,0,0,1.46-.38,2.48,2.48,0,0,0,.95-1.07A3.7,3.7,0,0,0,75.3,324.82Zm-.52-11.24a3.88,3.88,0,0,0-.25-1.45,2,2,0,0,0-.76-.92,2.27,2.27,0,0,0-1.28-.32,2.2,2.2,0,0,0-1.24.32,1.94,1.94,0,0,0-.74.92,3.89,3.89,0,0,0-.24,1.45,4.16,4.16,0,0,0,.24,1.47,2.07,2.07,0,0,0,.75,1,2.12,2.12,0,0,0,1.29.37,2,2,0,0,0,1.27-.37,2,2,0,0,0,.72-1A4.16,4.16,0,0,0,74.78,313.58Z"/><path class="cls-2" d="M90.92,318.27h4.25a14.46,14.46,0,0,1,3.66.44,8.46,8.46,0,0,1,2.88,1.31,5.94,5.94,0,0,1,1.87,2.18,6.81,6.81,0,0,1,.66,3.08,7,7,0,0,1-1.35,4.34,8.47,8.47,0,0,1-3.68,2.72,13.73,13.73,0,0,1-5.23.94,13.3,13.3,0,0,1-3.4-.45,10.38,10.38,0,0,1-3.1-1.4A7.12,7.12,0,0,1,85.22,329a7.27,7.27,0,0,1-.85-3.63h6.72a2.07,2.07,0,0,0,.43,1.27,3.2,3.2,0,0,0,1.14.94,3.48,3.48,0,0,0,1.54.35,3.41,3.41,0,0,0,2.48-.85,2.61,2.61,0,0,0,.88-1.93,4.18,4.18,0,0,0-.42-2,2.32,2.32,0,0,0-1.2-1.07,4.93,4.93,0,0,0-1.9-.33H90.92ZM94,316.53a3.62,3.62,0,0,0,1.74-.37,2.26,2.26,0,0,0,1-1.05,3.93,3.93,0,0,0,.33-1.68,2.65,2.65,0,0,0-.3-1.22,2.44,2.44,0,0,0-1-.95,3.25,3.25,0,0,0-1.65-.37,3.66,3.66,0,0,0-1.29.23,2.68,2.68,0,0,0-1.06.67,1.48,1.48,0,0,0-.41,1H84.78a6.22,6.22,0,0,1,1.29-4,8.2,8.2,0,0,1,3.39-2.49,11.8,11.8,0,0,1,4.54-.86,13.79,13.79,0,0,1,5.13.88,7.53,7.53,0,0,1,3.46,2.6,7.12,7.12,0,0,1,1.24,4.27,5.57,5.57,0,0,1-.66,2.68,6.69,6.69,0,0,1-1.83,2.15,8.81,8.81,0,0,1-2.76,1.43,11,11,0,0,1-3.41.51H90.92v-3.5Z"/><path class="cls-2" d="M113.76,332.24a10.27,10.27,0,0,1-1.16,4.67,12.25,12.25,0,0,1-2.81,3.74l-3.36-1.56q.38-.85.84-1.74a10.55,10.55,0,0,0,.82-2,9.19,9.19,0,0,0,.34-2.68V328h5.35Z"/><path class="cls-2" d="M118.05,319.81l1.67-13.91h16v5.38H125.17L124.6,316a10.31,10.31,0,0,1,1.45-.57,7.45,7.45,0,0,1,2.27-.34,9.1,9.1,0,0,1,4.58,1.06,6.85,6.85,0,0,1,2.84,3.1,11.47,11.47,0,0,1,1,5,9.66,9.66,0,0,1-1,4.35,8.41,8.41,0,0,1-3.13,3.42,10,10,0,0,1-5.36,1.32,11.4,11.4,0,0,1-3.57-.57,10.71,10.71,0,0,1-3.12-1.65,8,8,0,0,1-2.18-2.59,6.88,6.88,0,0,1-.76-3.37h6.72a3,3,0,0,0,.83,2,2.75,2.75,0,0,0,2,.78,2.44,2.44,0,0,0,1.79-.61,3.22,3.22,0,0,0,.85-1.59,8.53,8.53,0,0,0,.23-2.05,5.47,5.47,0,0,0-.36-2.09,2.63,2.63,0,0,0-1.15-1.31,4.1,4.1,0,0,0-2.09-.46,3.73,3.73,0,0,0-2,.47,4.12,4.12,0,0,0-1,.85Z"/><path class="cls-2" d="M154.12,332.91h-6.7V313.78l-6,1.62v-5.26l12.11-4.23h.62Z"/><path class="cls-2" d="M181,325.41a7.06,7.06,0,0,1-4.57,7,12.59,12.59,0,0,1-4.87.88,12.8,12.8,0,0,1-4.89-.88,7.58,7.58,0,0,1-3.41-2.63,7.23,7.23,0,0,1-1.26-4.36,6.73,6.73,0,0,1,1.26-4.1,8,8,0,0,1,3.42-2.6,13.54,13.54,0,0,1,9.71,0,7.8,7.8,0,0,1,3.38,2.6A6.84,6.84,0,0,1,181,325.41Zm-.54-12.24a6.26,6.26,0,0,1-1.13,3.73,7.43,7.43,0,0,1-3.13,2.48,11.6,11.6,0,0,1-4.64.88,11.72,11.72,0,0,1-4.65-.88,7.61,7.61,0,0,1-3.19-2.48,6.22,6.22,0,0,1-1.16-3.73,7.34,7.34,0,0,1,1.15-4.21,7.1,7.1,0,0,1,3.17-2.58,12.83,12.83,0,0,1,9.29,0A7,7,0,0,1,179.3,309,7.41,7.41,0,0,1,180.44,313.17Zm-6.16,11.65a3.63,3.63,0,0,0-.34-1.67,2.4,2.4,0,0,0-1-1,3,3,0,0,0-1.48-.34,3,3,0,0,0-1.46.34,2.41,2.41,0,0,0-1,1,3.62,3.62,0,0,0-.35,1.67,3.57,3.57,0,0,0,.35,1.63,2.63,2.63,0,0,0,1,1.07,2.93,2.93,0,0,0,1.5.38,2.79,2.79,0,0,0,1.46-.38,2.48,2.48,0,0,0,.95-1.07A3.7,3.7,0,0,0,174.28,324.82Zm-.52-11.24a3.69,3.69,0,0,0-.25-1.45,1.9,1.9,0,0,0-.75-.92,2.27,2.27,0,0,0-1.28-.32,2.2,2.2,0,0,0-1.24.32,1.94,1.94,0,0,0-.74.92,3.89,3.89,0,0,0-.24,1.45,4.16,4.16,0,0,0,.24,1.47,2.07,2.07,0,0,0,.75,1,2.12,2.12,0,0,0,1.29.37,2,2,0,0,0,1.27-.37,2,2,0,0,0,.72-1A4.16,4.16,0,0,0,173.76,313.58Z"/><path class="cls-4" d="M30.25,313.13v-2.56h7.3v2.56Zm0,4.78v-2.65h9.47v2.65ZM35,313.83a2.17,2.17,0,0,1-.44,1.44,3.61,3.61,0,0,1-1.59,1l-1.82-1a.56.56,0,0,0,.36-.23,1,1,0,0,0,.12-.41,4.52,4.52,0,0,0,0-.54l-.16-5.3a4.07,4.07,0,0,1,.5-2.07,3.25,3.25,0,0,1,1.41-1.31,4.76,4.76,0,0,1,2.14-.45A4.36,4.36,0,0,1,38.72,306a3.66,3.66,0,0,1,1.09,2.78H36.72a1.51,1.51,0,0,0-.14-.71.82.82,0,0,0-.38-.36,1.41,1.41,0,0,0-.54-.11.76.76,0,0,0-.62.28,1.38,1.38,0,0,0-.24.9Z"/><line class="cls-5" x1="19.5" y1="72.27" x2="289.5" y2="72.27"/><line class="cls-5" x1="17.49" y1="168.26" x2="287.49" y2="168.26"/><line class="cls-5" x1="19.5" y1="261.52" x2="289.5" y2="261.52"/><line class="cls-5" x1="19.5" y1="386.88" x2="289.5" y2="386.88"/><path class="cls-2" d="M32.61,198.7H30v-9.95h2.57Zm4.13-4h-5v-2.06h5Zm1.72,4H35.91v-9.95h2.55Z"/><path class="cls-2" d="M39.51,194.94a4.41,4.41,0,0,1,.41-1.93,3.16,3.16,0,0,1,1.21-1.35,4.23,4.23,0,0,1,3.95,0A3.1,3.1,0,0,1,46.29,193a4.41,4.41,0,0,1,.41,1.93v.13a4.49,4.49,0,0,1-.41,1.94,3.06,3.06,0,0,1-1.2,1.34,4.25,4.25,0,0,1-4,0A3.08,3.08,0,0,1,39.92,197a4.49,4.49,0,0,1-.41-1.94Zm2.47.13a4.28,4.28,0,0,0,.09.92,1.2,1.2,0,0,0,.34.64,1,1,0,0,0,.7.23,1,1,0,0,0,.7-.23,1.27,1.27,0,0,0,.34-.64,4.28,4.28,0,0,0,.09-.92v-.13a4.13,4.13,0,0,0-.09-.89,1.27,1.27,0,0,0-.34-.65,1.12,1.12,0,0,0-1.41,0,1.26,1.26,0,0,0-.33.65,4.13,4.13,0,0,0-.09.89Z"/><path class="cls-2" d="M50.31,196.29l0,2.41H48.88l-1.71-7.39h2.35Zm.94-5h1.53l-.52,2.88L51,198.7H49.73l.18-2.35Zm3.06,5,.18,2.35H53.25L52,194.21l-.5-2.9H53Zm.37-5H57l-1.71,7.39H53.84l0-2.53Z"/><path class="cls-2" d="M61,194.94a4.28,4.28,0,0,1,.42-1.93,3.1,3.1,0,0,1,1.21-1.35,3.63,3.63,0,0,1,2-.49,3.74,3.74,0,0,1,2,.49A3.1,3.1,0,0,1,67.8,193a4.41,4.41,0,0,1,.41,1.93v.13A4.49,4.49,0,0,1,67.8,197a3,3,0,0,1-1.21,1.34,4.23,4.23,0,0,1-4,0A3,3,0,0,1,61.43,197a4.35,4.35,0,0,1-.42-1.94Zm2.47.13a4.28,4.28,0,0,0,.09.92,1.36,1.36,0,0,0,.34.64,1,1,0,0,0,.71.23,1,1,0,0,0,.69-.23,1.2,1.2,0,0,0,.34-.64,3.71,3.71,0,0,0,.1-.92v-.13a3.57,3.57,0,0,0-.1-.89,1.2,1.2,0,0,0-.34-.65.93.93,0,0,0-.71-.25.9.9,0,0,0-.69.25,1.34,1.34,0,0,0-.34.65,4.13,4.13,0,0,0-.09.89Z"/><path class="cls-2" d="M73.53,193.08H68.61v-1.77h4.92Zm-3.87,5.62v-7.94a2.54,2.54,0,0,1,.79-2,3.09,3.09,0,0,1,2.12-.69,3.6,3.6,0,0,1,.58,0l.53.11v1.89a1,1,0,0,0-.25,0h-.3a1.28,1.28,0,0,0-.74.18.62.62,0,0,0-.26.54v7.94Z"/><path class="cls-2" d="M78.3,193.08H73.76v-1.77H78.3Zm-1.18-3.61v6.68a1.11,1.11,0,0,0,.06.41.38.38,0,0,0,.22.21,1.36,1.36,0,0,0,.45.06h.32l.24,0v1.83a4.61,4.61,0,0,1-.64.16,5,5,0,0,1-.7.05,3.14,3.14,0,0,1-1.3-.24,1.73,1.73,0,0,1-.82-.76,2.76,2.76,0,0,1-.28-1.33v-7Z"/><path class="cls-2" d="M82.79,198.84a4.18,4.18,0,0,1-2.1-.5A3.43,3.43,0,0,1,79.38,197a3.64,3.64,0,0,1-.45-1.77V195a4.7,4.7,0,0,1,.39-1.94,3.15,3.15,0,0,1,1.2-1.38,3.58,3.58,0,0,1,2-.52,3.65,3.65,0,0,1,1.83.44,2.92,2.92,0,0,1,1.17,1.26,4.32,4.32,0,0,1,.4,1.95v1H79.85v-1.58h3.68v-.19a1.16,1.16,0,0,0-.11-.53.69.69,0,0,0-.35-.3,1.52,1.52,0,0,0-.56-.1.91.91,0,0,0-.72.27,1.38,1.38,0,0,0-.32.69,4.31,4.31,0,0,0-.08.9v.25a1.87,1.87,0,0,0,.18.85,1.25,1.25,0,0,0,.54.55,1.68,1.68,0,0,0,.84.19,2.69,2.69,0,0,0,.91-.16,1.67,1.67,0,0,0,.77-.55l1.1,1.42a3.12,3.12,0,0,1-1.1.88A3.88,3.88,0,0,1,82.79,198.84Z"/><path class="cls-2" d="M89.21,198.7H86.75v-7.39h2.31l.15,1.58Zm-.85-3.87a4.81,4.81,0,0,1,.35-2,2.76,2.76,0,0,1,1-1.24,2.69,2.69,0,0,1,1.5-.42,2.53,2.53,0,0,1,1.2.27,1.93,1.93,0,0,1,.82.91,4.19,4.19,0,0,1,.3,1.74v4.61H91.05v-4.62a1.29,1.29,0,0,0-.11-.59.63.63,0,0,0-.33-.27,1.94,1.94,0,0,0-.53-.07,1.15,1.15,0,0,0-.55.12.78.78,0,0,0-.35.32,1.61,1.61,0,0,0-.2.52,4.47,4.47,0,0,0,0,.67Z"/><path class="cls-2" d="M97.94,195a5.43,5.43,0,0,1,.32-2,2.91,2.91,0,0,1,1-1.33,2.59,2.59,0,0,1,1.59-.48,2,2,0,0,1,1.41.53,3.71,3.71,0,0,1,.89,1.42,9.52,9.52,0,0,1,.47,2V195a8.49,8.49,0,0,1-.48,1.88,3.59,3.59,0,0,1-.89,1.4,2,2,0,0,1-1.41.53,2.53,2.53,0,0,1-1.59-.49,3,3,0,0,1-1-1.33,5.32,5.32,0,0,1-.32-1.93Zm2.46.14a4,4,0,0,0,.09.9,1.34,1.34,0,0,0,.32.64.85.85,0,0,0,.63.23,1.15,1.15,0,0,0,.69-.2,1.08,1.08,0,0,0,.39-.57,2.58,2.58,0,0,0,.09-.91V195a2.91,2.91,0,0,0,0-.81,1.37,1.37,0,0,0-.21-.56.88.88,0,0,0-.37-.32,1.21,1.21,0,0,0-.52-.11.82.82,0,0,0-.63.24,1.19,1.19,0,0,0-.33.63,3.73,3.73,0,0,0-.1.93Zm2-6.89h2.48v10.5h-2.22l-.26-1.75Z"/><path class="cls-2" d="M105.85,194.94a4.28,4.28,0,0,1,.41-1.93,3.1,3.1,0,0,1,1.21-1.35,3.63,3.63,0,0,1,2-.49,3.74,3.74,0,0,1,2,.49,3.1,3.1,0,0,1,1.21,1.35,4.41,4.41,0,0,1,.41,1.93v.13a4.49,4.49,0,0,1-.41,1.94,3,3,0,0,1-1.21,1.34,4.23,4.23,0,0,1-4,0,3,3,0,0,1-1.21-1.34,4.35,4.35,0,0,1-.41-1.94Zm2.46.13a4.28,4.28,0,0,0,.09.92,1.36,1.36,0,0,0,.34.64,1,1,0,0,0,.71.23,1,1,0,0,0,.69-.23,1.2,1.2,0,0,0,.34-.64,3.71,3.71,0,0,0,.1-.92v-.13a3.57,3.57,0,0,0-.1-.89,1.2,1.2,0,0,0-.34-.65.93.93,0,0,0-.71-.25.9.9,0,0,0-.69.25,1.34,1.34,0,0,0-.34.65,4.13,4.13,0,0,0-.09.89Z"/><path class="cls-2" d="M120.82,196.28l.25,2.74-1.64-.08-2.61-7.63h2.64Zm.81-5h2.64l-3,8.48a4.28,4.28,0,0,1-.26.61,2.82,2.82,0,0,1-.44.62,1.94,1.94,0,0,1-.71.48,2.64,2.64,0,0,1-1.08.19h-.37l-.26,0-.35-.09v-1.83h.28a1.59,1.59,0,0,0,.77-.14.68.68,0,0,0,.31-.36l.55-1.4Z"/><path class="cls-2" d="M124.53,194.94a4.28,4.28,0,0,1,.41-1.93,3.1,3.1,0,0,1,1.21-1.35,4.23,4.23,0,0,1,3.95,0,3.1,3.1,0,0,1,1.21,1.35,4.41,4.41,0,0,1,.41,1.93v.13a4.49,4.49,0,0,1-.41,1.94,3.06,3.06,0,0,1-1.2,1.34,4.25,4.25,0,0,1-4,0,3.08,3.08,0,0,1-1.21-1.34,4.35,4.35,0,0,1-.41-1.94Zm2.47.13a4.28,4.28,0,0,0,.09.92,1.2,1.2,0,0,0,.34.64,1,1,0,0,0,.7.23,1,1,0,0,0,.7-.23,1.36,1.36,0,0,0,.34-.64,4.28,4.28,0,0,0,.09-.92v-.13a4.13,4.13,0,0,0-.09-.89,1.34,1.34,0,0,0-.34-.65,1,1,0,0,0-.71-.25.92.92,0,0,0-.7.25,1.26,1.26,0,0,0-.33.65,4.13,4.13,0,0,0-.09.89Z"/><path class="cls-2" d="M137.8,195.35a4.85,4.85,0,0,1-.32,1.8,2.89,2.89,0,0,1-.91,1.24,2.39,2.39,0,0,1-1.46.45,2.52,2.52,0,0,1-1.79-.64,2.76,2.76,0,0,1-.68-2.1v-4.79h2.46v4.8a.82.82,0,0,0,.09.4.59.59,0,0,0,.28.26,1,1,0,0,0,.46.09,1.32,1.32,0,0,0,.75-.19,1,1,0,0,0,.38-.53,2.35,2.35,0,0,0,.11-.77Zm-.86-4h2.47v7.39h-2.3l-.17-1.81Z"/><path class="cls-2" d="M146.75,196.29l.06,2.41h-1.49l-1.71-7.39H146Zm.94-5h1.53l-.51,2.88-1.32,4.51h-1.22l.18-2.35Zm3.06,5,.18,2.35h-1.24l-1.28-4.49-.5-2.9h1.49Zm.38-5h2.35l-1.7,7.39h-1.49l0-2.53Z"/><path class="cls-2" d="M158.31,195.5h-.95a.88.88,0,0,0-.79.31,1.25,1.25,0,0,0-.2.67.48.48,0,0,0,.19.4.72.72,0,0,0,.47.16,1.32,1.32,0,0,0,.59-.13,1,1,0,0,0,.36-.3.45.45,0,0,0,.11-.3l.52,1a5.54,5.54,0,0,1-.3.53,1.91,1.91,0,0,1-.42.48,1.78,1.78,0,0,1-.6.36,2.43,2.43,0,0,1-.86.13,2.76,2.76,0,0,1-1.25-.28,2.32,2.32,0,0,1-.93-.79,2,2,0,0,1-.35-1.17,2.13,2.13,0,0,1,.84-1.79,4.27,4.27,0,0,1,2.64-.65h.92Zm-.31-1.66a1.07,1.07,0,0,0-.17-.65.7.7,0,0,0-.6-.24.86.86,0,0,0-.38.07.43.43,0,0,0-.23.21,1,1,0,0,0-.08.41h-2.46a2.1,2.1,0,0,1,.4-1.28,2.67,2.67,0,0,1,1.14-.87,4.46,4.46,0,0,1,1.74-.32,4,4,0,0,1,1.59.3,2.53,2.53,0,0,1,1.12.89,2.62,2.62,0,0,1,.41,1.5v2.92a6.25,6.25,0,0,0,.08,1.16,2.84,2.84,0,0,0,.24.64v.12h-2.46a2.85,2.85,0,0,1-.25-.89,6.45,6.45,0,0,1-.09-1.1Z"/><path class="cls-2" d="M164.08,198.7h-2.46v-7.39h2.3l.16,1.58Zm-.85-3.87a5,5,0,0,1,.34-2,2.78,2.78,0,0,1,1-1.24,2.69,2.69,0,0,1,1.5-.42,2.59,2.59,0,0,1,1.2.27,1.93,1.93,0,0,1,.82.91,4.2,4.2,0,0,1,.29,1.74v4.61h-2.47v-4.62a1.29,1.29,0,0,0-.11-.59.63.63,0,0,0-.33-.27,2,2,0,0,0-.53-.07,1.15,1.15,0,0,0-.55.12.86.86,0,0,0-.36.32,1.6,1.6,0,0,0-.19.52,3.4,3.4,0,0,0-.06.67Z"/><path class="cls-2" d="M173.6,193.08h-4.54v-1.77h4.54Zm-1.18-3.61v6.68a1.11,1.11,0,0,0,.06.41.38.38,0,0,0,.22.21,1.33,1.33,0,0,0,.44.06h.33l.24,0v1.83a4.61,4.61,0,0,1-.64.16,5,5,0,0,1-.7.05,3.14,3.14,0,0,1-1.3-.24,1.73,1.73,0,0,1-.82-.76,2.76,2.76,0,0,1-.28-1.33v-7Z"/><path class="cls-2" d="M181.94,193.08H177.4v-1.77h4.54Zm-1.18-3.61v6.68a1.11,1.11,0,0,0,.06.41.38.38,0,0,0,.22.21,1.33,1.33,0,0,0,.44.06h.33l.24,0v1.83a4.61,4.61,0,0,1-.64.16,5,5,0,0,1-.7.05,3.14,3.14,0,0,1-1.3-.24,1.73,1.73,0,0,1-.82-.76,2.76,2.76,0,0,1-.28-1.33v-7Z"/><path class="cls-2" d="M182.37,194.94a4.28,4.28,0,0,1,.41-1.93,3.1,3.1,0,0,1,1.21-1.35,4.23,4.23,0,0,1,3.95,0,3.1,3.1,0,0,1,1.21,1.35,4.41,4.41,0,0,1,.41,1.93v.13a4.49,4.49,0,0,1-.41,1.94,3,3,0,0,1-1.21,1.34,4.23,4.23,0,0,1-3.95,0,3,3,0,0,1-1.21-1.34,4.35,4.35,0,0,1-.41-1.94Zm2.46.13a4.25,4.25,0,0,0,.1.92,1.26,1.26,0,0,0,.33.64,1.2,1.2,0,0,0,1.41,0A1.26,1.26,0,0,0,187,196a3.71,3.71,0,0,0,.1-.92v-.13a3.57,3.57,0,0,0-.1-.89,1.26,1.26,0,0,0-.33-.65,1,1,0,0,0-.71-.25.91.91,0,0,0-.7.25,1.26,1.26,0,0,0-.33.65,4.11,4.11,0,0,0-.1.89Z"/><path class="cls-2" d="M197.83,196.59a.36.36,0,0,0-.12-.28,1.34,1.34,0,0,0-.42-.21,8.06,8.06,0,0,0-.85-.21,6.21,6.21,0,0,1-1.3-.45,2.5,2.5,0,0,1-.95-.76,1.76,1.76,0,0,1-.35-1.12,2.1,2.1,0,0,1,.36-1.18,2.56,2.56,0,0,1,1.05-.88,3.87,3.87,0,0,1,1.68-.33,4.48,4.48,0,0,1,1.75.31,2.55,2.55,0,0,1,1.13.85,2.1,2.1,0,0,1,.41,1.28h-2.47a.83.83,0,0,0-.18-.59.92.92,0,0,0-.65-.18.94.94,0,0,0-.37.07.77.77,0,0,0-.28.19.52.52,0,0,0-.1.33.42.42,0,0,0,.13.31,1.07,1.07,0,0,0,.37.23,3.71,3.71,0,0,0,.65.15,8.86,8.86,0,0,1,1.39.37,2.58,2.58,0,0,1,1.07.73,1.9,1.9,0,0,1,.42,1.3,1.92,1.92,0,0,1-.4,1.19,2.64,2.64,0,0,1-1.14.83,4.59,4.59,0,0,1-1.74.3,3.86,3.86,0,0,1-1.82-.39,3,3,0,0,1-1.12-1,2.2,2.2,0,0,1-.38-1.19h2.3a.92.92,0,0,0,.15.49.85.85,0,0,0,.37.3,1.61,1.61,0,0,0,.57.1,1.44,1.44,0,0,0,.46-.07.55.55,0,0,0,.28-.2A.48.48,0,0,0,197.83,196.59Z"/><path class="cls-2" d="M205.29,195.5h-.95a.88.88,0,0,0-.79.31,1.17,1.17,0,0,0-.2.67.5.5,0,0,0,.18.4.76.76,0,0,0,.47.16,1.32,1.32,0,0,0,.59-.13,1,1,0,0,0,.37-.3.39.39,0,0,0,.1-.3l.53,1a4.07,4.07,0,0,1-.31.53,2.09,2.09,0,0,1-.41.48,1.78,1.78,0,0,1-.6.36,2.47,2.47,0,0,1-.86.13,2.83,2.83,0,0,1-1.26-.28,2.36,2.36,0,0,1-.92-.79,2,2,0,0,1-.35-1.17,2.13,2.13,0,0,1,.84-1.79,4.27,4.27,0,0,1,2.64-.65h.91Zm-.31-1.66a1.07,1.07,0,0,0-.18-.65.67.67,0,0,0-.59-.24.86.86,0,0,0-.38.07.4.4,0,0,0-.23.21.83.83,0,0,0-.08.41h-2.46a2.1,2.1,0,0,1,.4-1.28,2.67,2.67,0,0,1,1.14-.87,4.39,4.39,0,0,1,1.74-.32,4,4,0,0,1,1.59.3,2.45,2.45,0,0,1,1.11.89,2.55,2.55,0,0,1,.41,1.5v2.92a5.32,5.32,0,0,0,.09,1.16,2.84,2.84,0,0,0,.24.64v.12h-2.47a3.53,3.53,0,0,1-.25-.89,7.69,7.69,0,0,1-.08-1.1Z"/><path class="cls-2" d="M211.84,197l0,1.73h-1.53l-2.38-7.39h2.6Zm.74-5.66h2.59l-2.38,7.39h-1.53l0-1.72Z"/><path class="cls-2" d="M219.45,198.84a4.12,4.12,0,0,1-2.09-.5A3.39,3.39,0,0,1,216,197a3.64,3.64,0,0,1-.45-1.77V195a4.55,4.55,0,0,1,.4-1.94,3.13,3.13,0,0,1,1.19-1.38,4.09,4.09,0,0,1,3.84-.08,2.86,2.86,0,0,1,1.17,1.26,4.32,4.32,0,0,1,.41,1.95v1h-6.09v-1.58h3.68v-.19a1,1,0,0,0-.11-.53.65.65,0,0,0-.35-.3,1.52,1.52,0,0,0-.56-.1.91.91,0,0,0-.72.27,1.47,1.47,0,0,0-.32.69,5.11,5.11,0,0,0-.08.9v.25a1.87,1.87,0,0,0,.18.85,1.36,1.36,0,0,0,.54.55,1.75,1.75,0,0,0,.85.19,2.59,2.59,0,0,0,.9-.16,1.67,1.67,0,0,0,.77-.55l1.11,1.42a3.26,3.26,0,0,1-1.11.88A3.85,3.85,0,0,1,219.45,198.84Z"/><path class="cls-6" d="M154.21,215.34H277.66a6,6,0,0,1,6,6v13a6,6,0,0,1-6,6H154.21a0,0,0,0,1,0,0v-25a0,0,0,0,1,0,0Z"/><rect class="cls-7" x="25.34" y="215.34" width="258.33" height="25" rx="6"/><path class="cls-7" d="M31.34,215.34H154.21a0,0,0,0,1,0,0v25a0,0,0,0,1,0,0H31.34a6,6,0,0,1-6-6v-13a6,6,0,0,1,6-6Z"/><path class="cls-7" d="M154.21,215.34H277.66a6,6,0,0,1,6,6v13a6,6,0,0,1-6,6H154.21a0,0,0,0,1,0,0v-25a0,0,0,0,1,0,0Z"/><path class="cls-8" d="M196,222.53l.26,6.76v3.19h-1.76v-9.95Zm.79,0,2.83,7.58,2.83-7.58H204l-3.78,9.95H199l-3.77-9.95Zm8,0v9.95H203v-3.19l.27-6.76Z"/><path class="cls-8" d="M206.26,228.71a4.37,4.37,0,0,1,.41-1.92,3.23,3.23,0,0,1,1.18-1.35,3.76,3.76,0,0,1,3.71,0,3.16,3.16,0,0,1,1.18,1.35,4.37,4.37,0,0,1,.41,1.92v.15a4.43,4.43,0,0,1-.41,1.92,3.12,3.12,0,0,1-1.17,1.34,3.71,3.71,0,0,1-3.72,0,3.14,3.14,0,0,1-1.18-1.34,4.43,4.43,0,0,1-.41-1.92Zm1.69.15a3.87,3.87,0,0,0,.19,1.2,1.9,1.9,0,0,0,.57.87,1.68,1.68,0,0,0,2,0,2,2,0,0,0,.56-.87,3.87,3.87,0,0,0,.18-1.2v-.15a3.76,3.76,0,0,0-.18-1.19,1.88,1.88,0,0,0-.57-.88,1.68,1.68,0,0,0-2,0,1.94,1.94,0,0,0-.56.88,3.5,3.5,0,0,0-.19,1.19Z"/><path class="cls-8" d="M216.2,232.48h-1.7v-7.4h1.6l.1,1.58Zm-.85-4a4.36,4.36,0,0,1,.38-1.87,2.93,2.93,0,0,1,1-1.26,2.75,2.75,0,0,1,1.54-.44,2.71,2.71,0,0,1,1.25.27,1.88,1.88,0,0,1,.82.87,3.9,3.9,0,0,1,.29,1.63v4.76H219V227.7a1.83,1.83,0,0,0-.15-.81.86.86,0,0,0-.43-.43,1.87,1.87,0,0,0-.71-.13,1.66,1.66,0,0,0-.75.17,1.55,1.55,0,0,0-.55.47,2,2,0,0,0-.35.7,2.86,2.86,0,0,0-.12.85Z"/><path class="cls-8" d="M225.75,226.33h-4.2v-1.25h4.2Zm-1.31-3.06v7.13a1.16,1.16,0,0,0,.09.51.52.52,0,0,0,.27.24,1.33,1.33,0,0,0,.42.06l.32,0,.26,0v1.3a2.8,2.8,0,0,1-.48.12,3.83,3.83,0,0,1-.63.05,2.31,2.31,0,0,1-1-.21,1.57,1.57,0,0,1-.69-.66,2.56,2.56,0,0,1-.25-1.23v-7.25Z"/><path class="cls-8" d="M228.66,232.48H227V222h1.69Zm-.84-4a4.64,4.64,0,0,1,.36-1.84,3.12,3.12,0,0,1,1-1.27,2.55,2.55,0,0,1,1.52-.46,2.87,2.87,0,0,1,1.28.27,1.92,1.92,0,0,1,.84.89,3.74,3.74,0,0,1,.3,1.63v4.74h-1.7v-4.75a1.92,1.92,0,0,0-.15-.83.94.94,0,0,0-.44-.44,1.87,1.87,0,0,0-.71-.13,1.71,1.71,0,0,0-.77.17,1.64,1.64,0,0,0-.55.47,2,2,0,0,0-.33.7,2.87,2.87,0,0,0-.11.85Z"/><path class="cls-8" d="M236.58,232.48h-1.69V222h1.69Z"/><path class="cls-8" d="M241.15,230.56l.3,1.83-1.18.27-2.67-7.58h1.83Zm1.35-5.48h1.81l-3,8.52a5.1,5.1,0,0,1-.27.6,2.51,2.51,0,0,1-.43.61,2,2,0,0,1-.65.47,2.12,2.12,0,0,1-.95.19l-.29,0-.27,0-.25-.07V234h.32a1.58,1.58,0,0,0,.92-.22,1.44,1.44,0,0,0,.49-.74l.54-1.43Z"/><path class="cls-9" d="M70.88,230.32l.11,2.16H69.81l-2.28-9.95h1.75Zm1.79-7.79h1.07l-.1,1.88-2.11,8.07H70.42l.29-2.11Zm3.43,7.87.28,2.08H75.27l-2.08-8.07-.08-1.88h1Zm1.42-7.87h1.76L77,232.48H75.81L76,230.3Z"/><path class="cls-9" d="M83.64,232.62a3.65,3.65,0,0,1-1.9-.48,3.29,3.29,0,0,1-1.23-1.28,3.91,3.91,0,0,1-.43-1.82v-.28a4.38,4.38,0,0,1,.44-2,3.23,3.23,0,0,1,1.2-1.33,3.52,3.52,0,0,1,3.5,0,2.77,2.77,0,0,1,1,1.28,4.79,4.79,0,0,1,.35,1.89v.73H80.9v-1.23h4V228a2.37,2.37,0,0,0-.16-.8,1.32,1.32,0,0,0-.48-.61,1.62,1.62,0,0,0-1.77.07,1.85,1.85,0,0,0-.56.86,3.81,3.81,0,0,0-.19,1.29V229a2.71,2.71,0,0,0,.23,1.13,1.87,1.87,0,0,0,.68.79,1.91,1.91,0,0,0,1.06.29,2.22,2.22,0,0,0,1.85-.9l.89.89a3.27,3.27,0,0,1-1,.95A3.47,3.47,0,0,1,83.64,232.62Z"/><path class="cls-9" d="M91.16,232.62a3.6,3.6,0,0,1-1.9-.48A3.15,3.15,0,0,1,88,230.86,3.79,3.79,0,0,1,87.6,229v-.28a4.38,4.38,0,0,1,.43-2,3.23,3.23,0,0,1,1.2-1.33A3.19,3.19,0,0,1,91,225a3.15,3.15,0,0,1,1.77.46,2.77,2.77,0,0,1,1,1.28,4.79,4.79,0,0,1,.35,1.89v.73H88.41v-1.23h4V228a2.38,2.38,0,0,0-.17-.8,1.36,1.36,0,0,0-.47-.61,1.44,1.44,0,0,0-.87-.23,1.4,1.4,0,0,0-.91.3,1.93,1.93,0,0,0-.56.86,3.81,3.81,0,0,0-.19,1.29V229a2.71,2.71,0,0,0,.23,1.13,1.87,1.87,0,0,0,.68.79,1.93,1.93,0,0,0,1.06.29,2.19,2.19,0,0,0,1.85-.9l.89.89a3.27,3.27,0,0,1-1,.95A3.44,3.44,0,0,1,91.16,232.62Z"/><path class="cls-9" d="M97.1,232.48H95.39V222H97.1Zm1.38-3.81-1.78,1.81-.45-1.42,1.35-1.67,2-2.31h2Zm-.84.36,1.08-1.18,3.25,4.63h-2Z"/><path class="cls-9" d="M104.53,232.48h-1.7V222h1.7Z"/><path class="cls-9" d="M109.09,230.56l.3,1.83-1.17.27-2.67-7.58h1.83Zm1.35-5.48h1.81l-3,8.52a5,5,0,0,1-.26.6,2.81,2.81,0,0,1-.43.61,2,2,0,0,1-.66.47,2.07,2.07,0,0,1-.94.19l-.29,0-.27,0-.26-.07V234h.32a1.6,1.6,0,0,0,.93-.22,1.37,1.37,0,0,0,.48-.74l.54-1.43Z"/><path class="cls-2" d="M32.09,289H29.34L33,279h1.73l-.3,2.4Zm4.19-1.67h-5.1v-2.07h5.1ZM34,281.41l-.33-2.4h1.75l3.67,10H36.31Z"/><path class="cls-2" d="M43.49,283.35H38.94v-1.78h4.55Zm-1.19-3.62v6.69a.87.87,0,0,0,.07.4.35.35,0,0,0,.22.21,1.25,1.25,0,0,0,.44.06h.32l.24,0v1.83a2.91,2.91,0,0,1-.63.16,4,4,0,0,1-.71.05,3.18,3.18,0,0,1-1.3-.24,1.68,1.68,0,0,1-.82-.76,2.82,2.82,0,0,1-.28-1.33v-7Z"/><path class="cls-2" d="M51.83,283.35H47.28v-1.78h4.55Zm-1.19-3.62v6.69a.87.87,0,0,0,.07.4.35.35,0,0,0,.22.21,1.25,1.25,0,0,0,.44.06h.32l.24,0v1.83a2.91,2.91,0,0,1-.63.16,4,4,0,0,1-.71.05,3.18,3.18,0,0,1-1.3-.24,1.68,1.68,0,0,1-.82-.76,2.82,2.82,0,0,1-.28-1.33v-7Z"/><path class="cls-2" d="M55.06,289H52.59v-10.5h2.47Zm-.85-3.88a4.87,4.87,0,0,1,.32-1.89,2.93,2.93,0,0,1,.94-1.29,2.2,2.2,0,0,1,1.42-.48,2.73,2.73,0,0,1,1.29.3,1.93,1.93,0,0,1,.88.94,4.1,4.1,0,0,1,.32,1.76V289H56.91v-4.56a1.27,1.27,0,0,0-.12-.61.59.59,0,0,0-.34-.3,1.35,1.35,0,0,0-.52-.08,1.31,1.31,0,0,0-.61.11.7.7,0,0,0-.35.33,1.46,1.46,0,0,0-.16.51,6.71,6.71,0,0,0,0,.67Z"/><path class="cls-2" d="M60.56,279.7a1.15,1.15,0,0,1,.38-.89,1.58,1.58,0,0,1,2,0,1.24,1.24,0,0,1,0,1.77,1.55,1.55,0,0,1-2,0A1.14,1.14,0,0,1,60.56,279.7ZM63.17,289H60.7v-7.4h2.47Z"/><path class="cls-2" d="M68.32,286.85a.38.38,0,0,0-.12-.28,1.17,1.17,0,0,0-.42-.2,7.65,7.65,0,0,0-.85-.22,5.25,5.25,0,0,1-1.3-.45,2.56,2.56,0,0,1-.95-.75,1.84,1.84,0,0,1-.35-1.12,2.13,2.13,0,0,1,.36-1.19,2.54,2.54,0,0,1,1-.87,3.76,3.76,0,0,1,1.68-.34,4.64,4.64,0,0,1,1.75.31,2.66,2.66,0,0,1,1.14.86,2.13,2.13,0,0,1,.4,1.27H68.25a.81.81,0,0,0-.19-.58.87.87,0,0,0-.65-.19,1.1,1.1,0,0,0-.36.07.65.65,0,0,0-.28.2.5.5,0,0,0-.11.33.41.41,0,0,0,.13.3.91.91,0,0,0,.38.23,3.29,3.29,0,0,0,.64.16,6.93,6.93,0,0,1,1.39.37,2.57,2.57,0,0,1,1.08.72,2,2,0,0,1,.41,1.31,1.89,1.89,0,0,1-.4,1.18,2.59,2.59,0,0,1-1.13.83,4.68,4.68,0,0,1-1.75.3,3.89,3.89,0,0,1-1.82-.39,2.81,2.81,0,0,1-1.11-1,2.11,2.11,0,0,1-.38-1.18h2.29a1,1,0,0,0,.15.49.83.83,0,0,0,.37.29,1.42,1.42,0,0,0,.57.1,1.29,1.29,0,0,0,.47-.07.58.58,0,0,0,.28-.2A.52.52,0,0,0,68.32,286.85Z"/><path class="cls-2" d="M77.68,289H75.22v-7.4h2.3l.16,2Zm2.09-5.05-.38,0a3.19,3.19,0,0,0-.4,0,2.21,2.21,0,0,0-.84.13.91.91,0,0,0-.47.41,1.6,1.6,0,0,0-.14.74l-.43-.37a5.53,5.53,0,0,1,.26-1.76,2.61,2.61,0,0,1,.71-1.17,1.56,1.56,0,0,1,1.08-.42l.35,0a.83.83,0,0,1,.3.07Z"/><path class="cls-2" d="M84.69,285.76h-1a.86.86,0,0,0-.78.32,1.17,1.17,0,0,0-.21.66.5.5,0,0,0,.19.41.73.73,0,0,0,.47.15,1.2,1.2,0,0,0,.59-.13,1.11,1.11,0,0,0,.37-.29.47.47,0,0,0,.1-.31l.52,1c-.09.17-.19.35-.3.53a2.61,2.61,0,0,1-.41.48,2,2,0,0,1-.6.35,2.49,2.49,0,0,1-.87.13,2.76,2.76,0,0,1-1.25-.28,2.28,2.28,0,0,1-.93-.78,2.05,2.05,0,0,1-.35-1.18,2.12,2.12,0,0,1,.85-1.79,4.31,4.31,0,0,1,2.63-.65h.92Zm-.3-1.65a1.1,1.1,0,0,0-.18-.66.68.68,0,0,0-.6-.24.89.89,0,0,0-.38.07.49.49,0,0,0-.23.22.89.89,0,0,0-.08.4H80.46a2.13,2.13,0,0,1,.41-1.28,2.62,2.62,0,0,1,1.14-.87,4.38,4.38,0,0,1,1.73-.32,4,4,0,0,1,1.6.3,2.53,2.53,0,0,1,1.11.9,2.59,2.59,0,0,1,.41,1.49V287A5.32,5.32,0,0,0,87,288.2a2.3,2.3,0,0,0,.23.64V289H84.72a3.25,3.25,0,0,1-.25-.89,6.55,6.55,0,0,1-.08-1.1Z"/><path class="cls-2" d="M92.06,283.35H87.52v-1.78h4.54Zm-1.18-3.62v6.69a1.05,1.05,0,0,0,.06.4.38.38,0,0,0,.22.21,1.33,1.33,0,0,0,.44.06h.33l.24,0v1.83a2.86,2.86,0,0,1-.64.16,3.84,3.84,0,0,1-.7.05,3.14,3.14,0,0,1-1.3-.24,1.68,1.68,0,0,1-.82-.76,2.71,2.71,0,0,1-.28-1.33v-7Z"/><path class="cls-2" d="M96.55,289.1a4.08,4.08,0,0,1-2.1-.5,3.43,3.43,0,0,1-1.31-1.31,3.62,3.62,0,0,1-.46-1.77v-.25a4.66,4.66,0,0,1,.4-1.93,3.18,3.18,0,0,1,1.2-1.39,3.66,3.66,0,0,1,2-.52,3.55,3.55,0,0,1,1.83.45,3,3,0,0,1,1.17,1.25,4.38,4.38,0,0,1,.4,1.95v1H93.61v-1.58h3.68v-.2a1.19,1.19,0,0,0-.11-.53.79.79,0,0,0-.35-.3,1.53,1.53,0,0,0-.56-.09,1,1,0,0,0-.72.26,1.38,1.38,0,0,0-.32.69,4.31,4.31,0,0,0-.08.9v.25a1.87,1.87,0,0,0,.18.85,1.2,1.2,0,0,0,.54.55,1.68,1.68,0,0,0,.84.19,2.94,2.94,0,0,0,.91-.15,1.69,1.69,0,0,0,.77-.56l1.1,1.42a3,3,0,0,1-1.1.88A3.88,3.88,0,0,1,96.55,289.1Z"/><path class="cls-2" d="M104.05,279.7a1.14,1.14,0,0,1,.37-.89,1.58,1.58,0,0,1,2,0,1.24,1.24,0,0,1,0,1.77,1.55,1.55,0,0,1-2,0A1.13,1.13,0,0,1,104.05,279.7Zm2.6,9.27h-2.47v-7.4h2.47Z"/><path class="cls-2" d="M110.4,289h-2.46v-7.4h2.31l.15,1.58Zm-.85-3.88a4.92,4.92,0,0,1,.35-2,2.61,2.61,0,0,1,2.5-1.67,2.53,2.53,0,0,1,1.2.28,1.84,1.84,0,0,1,.82.91,4.1,4.1,0,0,1,.3,1.73V289h-2.48v-4.62a1.19,1.19,0,0,0-.11-.6.59.59,0,0,0-.33-.27,2,2,0,0,0-.53-.06,1.15,1.15,0,0,0-.55.11.79.79,0,0,0-.35.33,1.47,1.47,0,0,0-.2.51,4.57,4.57,0,0,0,0,.67Z"/><path class="cls-2" d="M126.41,289h-7V287.3l3.19-3.3a8.84,8.84,0,0,0,.65-.81,2.65,2.65,0,0,0,.36-.64,1.42,1.42,0,0,0,.12-.52,1.31,1.31,0,0,0-.26-.89.91.91,0,0,0-.73-.29.93.93,0,0,0-.57.19,1.26,1.26,0,0,0-.37.52,1.81,1.81,0,0,0-.13.72h-2.47a3.27,3.27,0,0,1,.46-1.71,3.34,3.34,0,0,1,1.26-1.24,4.35,4.35,0,0,1,4.42.31,2.75,2.75,0,0,1,.86,2.16,3.09,3.09,0,0,1-.29,1.35,5.78,5.78,0,0,1-.82,1.27c-.36.43-.8.9-1.31,1.42L122.62,287h3.79Z"/><path class="cls-2" d="M134.54,284.93a5.36,5.36,0,0,1-.45,2.34,3,3,0,0,1-1.23,1.38,3.93,3.93,0,0,1-3.65,0,3,3,0,0,1-1.24-1.38,5.36,5.36,0,0,1-.45-2.34v-1.87a5.36,5.36,0,0,1,.45-2.34,3,3,0,0,1,1.23-1.38,3.85,3.85,0,0,1,3.65,0,3,3,0,0,1,1.24,1.38,5.36,5.36,0,0,1,.45,2.34Zm-2.47-2.19a3.69,3.69,0,0,0-.13-1.12,1,1,0,0,0-.36-.58.86.86,0,0,0-.55-.17.89.89,0,0,0-.56.17,1,1,0,0,0-.36.58,3.69,3.69,0,0,0-.13,1.12v2.5a4.14,4.14,0,0,0,.13,1.14,1.06,1.06,0,0,0,.37.58,1,1,0,0,0,.56.16.94.94,0,0,0,.55-.16,1.11,1.11,0,0,0,.36-.58,4.21,4.21,0,0,0,.12-1.14Z"/><path class="cls-2" d="M142.53,286.54l.26,2.75-1.65-.09-2.6-7.63h2.64Zm.82-5H146L143,290.05a5.85,5.85,0,0,1-.26.61,2.6,2.6,0,0,1-.44.62,2.19,2.19,0,0,1-.71.49,2.83,2.83,0,0,1-1.08.18h-.37a1.26,1.26,0,0,1-.27,0l-.34-.09V290h.28a1.61,1.61,0,0,0,.77-.13.75.75,0,0,0,.31-.37l.54-1.4Z"/><path class="cls-2" d="M150.18,289.1a4.06,4.06,0,0,1-2.1-.5,3.39,3.39,0,0,1-1.32-1.31,3.61,3.61,0,0,1-.45-1.77v-.25a4.66,4.66,0,0,1,.4-1.93,3.12,3.12,0,0,1,1.2-1.39,3.66,3.66,0,0,1,2-.52,3.55,3.55,0,0,1,1.83.45,2.93,2.93,0,0,1,1.16,1.25,4.38,4.38,0,0,1,.41,1.95v1h-6.08v-1.58h3.67v-.2a1,1,0,0,0-.11-.53.72.72,0,0,0-.34-.3,1.55,1.55,0,0,0-.57-.09.94.94,0,0,0-.71.26,1.38,1.38,0,0,0-.32.69,4.29,4.29,0,0,0-.09.9v.25a1.87,1.87,0,0,0,.19.85,1.23,1.23,0,0,0,.53.55,1.75,1.75,0,0,0,.85.19,2.83,2.83,0,0,0,.9-.15,1.64,1.64,0,0,0,.77-.56l1.11,1.42a3.1,3.1,0,0,1-1.1.88A3.9,3.9,0,0,1,150.18,289.1Z"/><path class="cls-2" d="M158.27,285.76h-1a.88.88,0,0,0-.79.32,1.24,1.24,0,0,0-.2.66.5.5,0,0,0,.19.41.71.71,0,0,0,.46.15,1.17,1.17,0,0,0,.59-.13.94.94,0,0,0,.37-.29.42.42,0,0,0,.1-.31l.53,1c-.09.17-.19.35-.3.53a2.68,2.68,0,0,1-.42.48,1.76,1.76,0,0,1-.6.35,2.43,2.43,0,0,1-.86.13,2.76,2.76,0,0,1-1.25-.28,2.22,2.22,0,0,1-.93-.78,2.05,2.05,0,0,1-.35-1.18,2.13,2.13,0,0,1,.84-1.79,4.34,4.34,0,0,1,2.64-.65h.92Zm-.31-1.65a1.17,1.17,0,0,0-.17-.66.7.7,0,0,0-.6-.24.86.86,0,0,0-.38.07.49.49,0,0,0-.23.22.77.77,0,0,0-.08.4H154a2.12,2.12,0,0,1,.4-1.28,2.67,2.67,0,0,1,1.14-.87,4.39,4.39,0,0,1,1.74-.32,4,4,0,0,1,1.59.3,2.55,2.55,0,0,1,1.12.9,2.59,2.59,0,0,1,.41,1.49V287a5.47,5.47,0,0,0,.08,1.16,2.67,2.67,0,0,0,.24.64V289H158.3a3.24,3.24,0,0,1-.26-.89A7.8,7.8,0,0,1,158,287Z"/><path class="cls-2" d="M164.11,289h-2.46v-7.4h2.29l.17,2Zm2.09-5.05-.39,0a3,3,0,0,0-.39,0,2.27,2.27,0,0,0-.85.13.89.89,0,0,0-.46.41,1.6,1.6,0,0,0-.14.74l-.43-.37a5.54,5.54,0,0,1,.25-1.76,2.72,2.72,0,0,1,.72-1.17,1.54,1.54,0,0,1,1.08-.42l.35,0a.94.94,0,0,1,.3.07Z"/><path class="cls-2" d="M170.8,286.85a.38.38,0,0,0-.12-.28,1.17,1.17,0,0,0-.42-.2,7.65,7.65,0,0,0-.85-.22,5.25,5.25,0,0,1-1.3-.45,2.48,2.48,0,0,1-1-.75,1.78,1.78,0,0,1-.35-1.12,2.13,2.13,0,0,1,.36-1.19,2.54,2.54,0,0,1,1.05-.87,3.73,3.73,0,0,1,1.68-.34,4.67,4.67,0,0,1,1.75.31,2.66,2.66,0,0,1,1.14.86,2.13,2.13,0,0,1,.39,1.27h-2.46a.81.81,0,0,0-.18-.58.87.87,0,0,0-.65-.19,1.16,1.16,0,0,0-.37.07.72.72,0,0,0-.28.2.5.5,0,0,0-.1.33.44.44,0,0,0,.12.3,1,1,0,0,0,.38.23,3.63,3.63,0,0,0,.65.16,7.11,7.11,0,0,1,1.39.37,2.48,2.48,0,0,1,1.07.72,1.93,1.93,0,0,1,.42,1.31,1.89,1.89,0,0,1-.4,1.18,2.62,2.62,0,0,1-1.14.83,4.59,4.59,0,0,1-1.74.3,3.86,3.86,0,0,1-1.82-.39,2.92,2.92,0,0,1-1.12-1,2.19,2.19,0,0,1-.38-1.18h2.3a1,1,0,0,0,.15.49.83.83,0,0,0,.37.29,1.42,1.42,0,0,0,.57.1,1.24,1.24,0,0,0,.46-.07.5.5,0,0,0,.28-.2A.46.46,0,0,0,170.8,286.85Z"/><path class="cls-2" d="M181,286.54l.25,2.75-1.64-.09-2.6-7.63h2.63Zm.81-5h2.64l-2.95,8.48a4.28,4.28,0,0,1-.26.61,2.14,2.14,0,0,1-.44.62,2.08,2.08,0,0,1-.71.49A2.82,2.82,0,0,1,179,292h-.37a1.17,1.17,0,0,1-.27,0l-.35-.09V290h.28a1.59,1.59,0,0,0,.77-.13.7.7,0,0,0,.31-.37l.55-1.4Z"/><path class="cls-2" d="M184.71,285.21a4.46,4.46,0,0,1,.41-1.94,3.08,3.08,0,0,1,1.21-1.34,3.67,3.67,0,0,1,2-.5,3.74,3.74,0,0,1,2,.5,3.06,3.06,0,0,1,1.2,1.34,4.32,4.32,0,0,1,.41,1.94v.13a4.31,4.31,0,0,1-.41,1.93,3.14,3.14,0,0,1-1.2,1.35,3.77,3.77,0,0,1-2,.48,3.82,3.82,0,0,1-2-.48,3.16,3.16,0,0,1-1.21-1.35,4.45,4.45,0,0,1-.41-1.93Zm2.47.13a4.19,4.19,0,0,0,.09.91,1.2,1.2,0,0,0,.34.64,1.18,1.18,0,0,0,1.4,0,1.27,1.27,0,0,0,.34-.64,4.19,4.19,0,0,0,.09-.91v-.13a4.16,4.16,0,0,0-.09-.9,1.31,1.31,0,0,0-.34-.65,1,1,0,0,0-.71-.24.93.93,0,0,0-.69.24,1.23,1.23,0,0,0-.34.65,4.16,4.16,0,0,0-.09.9Z"/><path class="cls-2" d="M198,285.62a4.76,4.76,0,0,1-.32,1.79,2.76,2.76,0,0,1-.91,1.24,2.37,2.37,0,0,1-1.46.45,2.56,2.56,0,0,1-1.79-.63,2.81,2.81,0,0,1-.68-2.11v-4.79h2.46v4.81a.87.87,0,0,0,.09.4.62.62,0,0,0,.28.25,1.08,1.08,0,0,0,.46.09,1.28,1.28,0,0,0,.76-.19,1,1,0,0,0,.38-.53,2.55,2.55,0,0,0,.11-.77Zm-.86-4.05h2.47V289h-2.3l-.17-1.82Z"/><path class="cls-2" d="M203,279.66a2.75,2.75,0,0,1-.18.95,4.51,4.51,0,0,1-.49.92,3.72,3.72,0,0,1-.61.72l-1.08-.58a6.3,6.3,0,0,0,.39-.86,3.12,3.12,0,0,0,.19-1.17v-1.17H203Z"/><path class="cls-2" d="M206.86,289h-2.47v-10.5h2.47Z"/><path class="cls-2" d="M210.79,289h-2.47v-10.5h2.47Z"/><path class="cls-2" d="M218,289h-2.47v-10.5H218Zm-.86-3.88a4.87,4.87,0,0,1,.33-1.89,3,3,0,0,1,.93-1.29,2.24,2.24,0,0,1,1.42-.48,2.74,2.74,0,0,1,1.3.3,2,2,0,0,1,.88.94,4.1,4.1,0,0,1,.32,1.76V289h-2.48v-4.56a1.27,1.27,0,0,0-.12-.61.54.54,0,0,0-.33-.3,1.41,1.41,0,0,0-.53-.08,1.33,1.33,0,0,0-.61.11.75.75,0,0,0-.35.33,1.27,1.27,0,0,0-.15.51,4.64,4.64,0,0,0,0,.67Z"/><path class="cls-2" d="M227.63,285.76h-.95a.86.86,0,0,0-.78.32,1.17,1.17,0,0,0-.21.66.5.5,0,0,0,.19.41.73.73,0,0,0,.47.15,1.2,1.2,0,0,0,.59-.13,1,1,0,0,0,.36-.29.44.44,0,0,0,.11-.31l.52,1c-.09.17-.19.35-.3.53a2.61,2.61,0,0,1-.41.48,1.91,1.91,0,0,1-.61.35,2.4,2.4,0,0,1-.86.13,2.76,2.76,0,0,1-1.25-.28,2.22,2.22,0,0,1-.93-.78,2.05,2.05,0,0,1-.35-1.18,2.13,2.13,0,0,1,.84-1.79,4.36,4.36,0,0,1,2.64-.65h.92Zm-.3-1.65a1.1,1.1,0,0,0-.18-.66.68.68,0,0,0-.6-.24.89.89,0,0,0-.38.07.49.49,0,0,0-.23.22.89.89,0,0,0-.08.4H223.4a2.19,2.19,0,0,1,.4-1.28,2.65,2.65,0,0,1,1.15-.87,4.38,4.38,0,0,1,1.73-.32,4,4,0,0,1,1.6.3,2.53,2.53,0,0,1,1.11.9,2.59,2.59,0,0,1,.41,1.49V287a5.32,5.32,0,0,0,.09,1.16,2.3,2.3,0,0,0,.23.64V289h-2.46a3.25,3.25,0,0,1-.25-.89,6.55,6.55,0,0,1-.08-1.1Z"/><path class="cls-2" d="M234.18,287.24l0,1.73h-1.53l-2.38-7.4h2.61Zm.75-5.67h2.59l-2.38,7.4h-1.53l0-1.73Z"/><path class="cls-2" d="M241.8,289.1a4.08,4.08,0,0,1-2.1-.5,3.43,3.43,0,0,1-1.31-1.31,3.62,3.62,0,0,1-.46-1.77v-.25a4.66,4.66,0,0,1,.4-1.93,3.18,3.18,0,0,1,1.2-1.39,3.66,3.66,0,0,1,2-.52,3.55,3.55,0,0,1,1.83.45,3,3,0,0,1,1.17,1.25,4.38,4.38,0,0,1,.4,1.95v1h-6.08v-1.58h3.68v-.2a1.19,1.19,0,0,0-.11-.53.79.79,0,0,0-.35-.3,1.53,1.53,0,0,0-.56-.09,1,1,0,0,0-.72.26,1.38,1.38,0,0,0-.32.69,4.31,4.31,0,0,0-.08.9v.25a1.87,1.87,0,0,0,.18.85,1.2,1.2,0,0,0,.54.55,1.68,1.68,0,0,0,.84.19,2.94,2.94,0,0,0,.91-.15,1.69,1.69,0,0,0,.77-.56l1.1,1.42a3,3,0,0,1-1.1.88A3.88,3.88,0,0,1,241.8,289.1Z"/><path class="cls-9" d="M31,350.37l-1.48-.45.23-.73,1.49.55,0-1.7H32l-.05,1.73,1.46-.55.23.75-1.51.45,1,1.34-.62.45-.9-1.42-.89,1.39-.62-.45Z"/><path class="cls-9" d="M37.73,352.63h-.92a2.45,2.45,0,0,0-1.2.24.82.82,0,0,0-.43.74.91.91,0,0,0,.26.65,1,1,0,0,0,.76.27,1.5,1.5,0,0,0,.74-.18,1.57,1.57,0,0,0,.51-.44,1,1,0,0,0,.2-.5l.39.44a1.15,1.15,0,0,1-.19.46,2.42,2.42,0,0,1-.4.48,2.27,2.27,0,0,1-.6.38,1.94,1.94,0,0,1-.78.15,2,2,0,0,1-1-.21,1.58,1.58,0,0,1-.63-.57,1.59,1.59,0,0,1,.42-2.11,3.13,3.13,0,0,1,1.75-.44h1.06Zm-.17-1.07a1.06,1.06,0,0,0-.28-.76,1.14,1.14,0,0,0-.84-.28,1.4,1.4,0,0,0-.6.12,1.05,1.05,0,0,0-.4.31.73.73,0,0,0-.14.42h-.92a1.22,1.22,0,0,1,.26-.75,2,2,0,0,1,.73-.6,2.6,2.6,0,0,1,1.12-.23,2.56,2.56,0,0,1,1,.2,1.59,1.59,0,0,1,.71.59,1.91,1.91,0,0,1,.25,1v2.49a2.84,2.84,0,0,0,.05.56,1.88,1.88,0,0,0,.14.52v.08h-1a1.42,1.42,0,0,1-.11-.42,2.93,2.93,0,0,1,0-.49Z"/><path class="cls-9" d="M43,353.8a.74.74,0,0,0-.09-.36.7.7,0,0,0-.34-.31,2.83,2.83,0,0,0-.79-.25,5.16,5.16,0,0,1-1-.31,1.74,1.74,0,0,1-.67-.49,1.18,1.18,0,0,1-.23-.73,1.36,1.36,0,0,1,.24-.78,1.79,1.79,0,0,1,.69-.57,2.71,2.71,0,0,1,2.14,0,1.64,1.64,0,0,1,.7.6,1.52,1.52,0,0,1,.24.83H43a.92.92,0,0,0-.29-.63,1.15,1.15,0,0,0-.83-.29,1.35,1.35,0,0,0-.61.12.81.81,0,0,0-.34.29.75.75,0,0,0-.1.38.57.57,0,0,0,.1.34.76.76,0,0,0,.36.26,4.92,4.92,0,0,0,.76.22,4.85,4.85,0,0,1,1.08.36,1.51,1.51,0,0,1,.63.51,1.23,1.23,0,0,1,.21.73,1.32,1.32,0,0,1-.26.82,1.74,1.74,0,0,1-.71.56,2.83,2.83,0,0,1-1.09.2,2.52,2.52,0,0,1-1.19-.26,1.74,1.74,0,0,1-.74-.64,1.55,1.55,0,0,1-.25-.84h.92a.92.92,0,0,0,.22.59,1,1,0,0,0,.47.31,1.63,1.63,0,0,0,.57.1,1.89,1.89,0,0,0,.63-.1.92.92,0,0,0,.38-.28A.64.64,0,0,0,43,353.8Z"/><path class="cls-9" d="M48.22,353.8a.74.74,0,0,0-.09-.36.72.72,0,0,0-.35-.31,2.62,2.62,0,0,0-.79-.25,5.62,5.62,0,0,1-1-.31,1.63,1.63,0,0,1-.66-.49,1.13,1.13,0,0,1-.24-.73,1.3,1.3,0,0,1,.25-.78A1.79,1.79,0,0,1,46,350a2.38,2.38,0,0,1,1-.21,2.44,2.44,0,0,1,1.09.23,1.54,1.54,0,0,1,.7.6,1.52,1.52,0,0,1,.24.83h-.92a.92.92,0,0,0-.29-.63,1.11,1.11,0,0,0-.82-.29,1.35,1.35,0,0,0-.61.12.71.71,0,0,0-.34.29.76.76,0,0,0-.11.38.65.65,0,0,0,.1.34.88.88,0,0,0,.36.26,5.1,5.1,0,0,0,.77.22,4.85,4.85,0,0,1,1.08.36,1.64,1.64,0,0,1,.63.51,1.23,1.23,0,0,1,.21.73,1.38,1.38,0,0,1-.26.82,1.71,1.71,0,0,1-.72.56,2.79,2.79,0,0,1-1.09.2,2.55,2.55,0,0,1-1.19-.26,1.87,1.87,0,0,1-.74-.64,1.55,1.55,0,0,1-.25-.84h.92a1,1,0,0,0,.22.59,1,1,0,0,0,.48.31,1.62,1.62,0,0,0,.56.1,1.89,1.89,0,0,0,.63-.1.81.81,0,0,0,.38-.28A.65.65,0,0,0,48.22,353.8Z"/><path class="cls-9" d="M54.13,352.85a3.57,3.57,0,0,1-.2,1.27,1.77,1.77,0,0,1-.66.88,2.1,2.1,0,0,1-1.22.32,1.75,1.75,0,0,1-1.27-.47,2,2,0,0,1-.48-1.52v-3.44h.92v3.45a1.62,1.62,0,0,0,.14.74.76.76,0,0,0,.36.37,1.28,1.28,0,0,0,.47.1,1.62,1.62,0,0,0,.92-.23,1.25,1.25,0,0,0,.49-.6,2.35,2.35,0,0,0,.15-.86Zm-.55-3h.92v5.33h-.88l0-1.23Z"/><path class="cls-9" d="M56.79,355.22h-.92v-5.33h.87l0,1.06Zm-.61-2.89a3.17,3.17,0,0,1,.25-1.3,1.93,1.93,0,0,1,1.91-1.24,1.79,1.79,0,0,1,1.24.44,1.83,1.83,0,0,1,.49,1.44v3.55h-.92v-3.51A1.42,1.42,0,0,0,59,351a.89.89,0,0,0-.4-.37,1.4,1.4,0,0,0-.6-.12,1.36,1.36,0,0,0-.67.15,1.08,1.08,0,0,0-.43.39,1.59,1.59,0,0,0-.23.57,3.11,3.11,0,0,0-.07.69Zm3.26-.3a2.68,2.68,0,0,1,.25-1.09,2,2,0,0,1,.72-.83,2,2,0,0,1,1.15-.32,2.21,2.21,0,0,1,1,.2,1.38,1.38,0,0,1,.61.63,2.64,2.64,0,0,1,.2,1.1v3.5h-.92v-3.51a1.36,1.36,0,0,0-.14-.7.76.76,0,0,0-.39-.36,1.79,1.79,0,0,0-.6-.1,1.25,1.25,0,0,0-.53.11,1.08,1.08,0,0,0-.38.28,1.14,1.14,0,0,0-.24.41,1.62,1.62,0,0,0-.08.49Z"/><path class="cls-9" d="M64.73,348.47a.54.54,0,0,1,.13-.37.52.52,0,0,1,.4-.15.53.53,0,0,1,.41.15.55.55,0,0,1,.14.37.57.57,0,0,1-1,.36A.52.52,0,0,1,64.73,348.47Zm1,6.75H64.8v-5.33h.92Z"/><path class="cls-9" d="M68.09,355.22h-.92v-5.33H68l0,1.14Zm-.6-2.89a3.18,3.18,0,0,1,.28-1.3,2.19,2.19,0,0,1,.76-.91,1.93,1.93,0,0,1,1.13-.33,2.06,2.06,0,0,1,.9.19,1.27,1.27,0,0,1,.59.62,2.45,2.45,0,0,1,.21,1.13v3.49h-.92v-3.5a1.63,1.63,0,0,0-.12-.68.79.79,0,0,0-.35-.37,1.31,1.31,0,0,0-.58-.12,1.26,1.26,0,0,0-.62.15,1.48,1.48,0,0,0-.48.39,2,2,0,0,0-.31.57,2.26,2.26,0,0,0-.11.69Z"/><path class="cls-9" d="M72.52,352.51a3.72,3.72,0,0,1,.26-1.43,2.13,2.13,0,0,1,.73-.95,1.84,1.84,0,0,1,1.12-.34,2,2,0,0,1,.88.18,1.72,1.72,0,0,1,.64.5,2.88,2.88,0,0,1,.42.8,5.13,5.13,0,0,1,.21,1.05v.48a4.32,4.32,0,0,1-.33,1.34,2.1,2.1,0,0,1-.7.87,2,2,0,0,1-1.13.31,1.76,1.76,0,0,1-1.11-.36,2.24,2.24,0,0,1-.73-1,3.59,3.59,0,0,1-.26-1.39ZM77,349.89v5.21a2.43,2.43,0,0,1-.29,1.21,1.87,1.87,0,0,1-.8.75,2.58,2.58,0,0,1-1.17.26,2.8,2.8,0,0,1-.65-.09,2.37,2.37,0,0,1-.73-.29,1.75,1.75,0,0,1-.6-.55l.48-.53a2,2,0,0,0,.7.56,1.79,1.79,0,0,0,.73.16,1.31,1.31,0,0,0,1.41-1.43v-4.09l.08-1.17Zm-3.59,2.72a3,3,0,0,0,.15,1,1.49,1.49,0,0,0,.45.7,1.2,1.2,0,0,0,.81.27,1.4,1.4,0,0,0,.74-.19,1.54,1.54,0,0,0,.47-.51,2.61,2.61,0,0,0,.27-.69V352a3.24,3.24,0,0,0-.16-.53,1.74,1.74,0,0,0-.29-.45,1.31,1.31,0,0,0-1-.44,1.17,1.17,0,0,0-.81.27,1.47,1.47,0,0,0-.46.71,3.05,3.05,0,0,0-.15,1Z"/><path class="cls-9" d="M84.21,352.63H83.3a2.52,2.52,0,0,0-1.21.24.81.81,0,0,0-.42.74.91.91,0,0,0,.26.65,1,1,0,0,0,.76.27,1.46,1.46,0,0,0,.73-.18,1.38,1.38,0,0,0,.51-.44.91.91,0,0,0,.2-.5l.4.44a1.55,1.55,0,0,1-.19.46,2.5,2.5,0,0,1-.41.48,2.27,2.27,0,0,1-.6.38,1.94,1.94,0,0,1-.78.15,2.08,2.08,0,0,1-1-.21,1.58,1.58,0,0,1-.63-.57,1.48,1.48,0,0,1-.22-.8,1.5,1.5,0,0,1,.65-1.31,3.1,3.1,0,0,1,1.75-.44h1ZM84,351.56a1,1,0,0,0-.28-.76,1.13,1.13,0,0,0-.83-.28,1.4,1.4,0,0,0-.6.12,1,1,0,0,0-.4.31.68.68,0,0,0-.15.42h-.92a1.29,1.29,0,0,1,.26-.75,2,2,0,0,1,.74-.6,2.6,2.6,0,0,1,1.12-.23,2.56,2.56,0,0,1,1,.2,1.56,1.56,0,0,1,.7.59,1.82,1.82,0,0,1,.26,1v2.49a3.78,3.78,0,0,0,0,.56,2.3,2.3,0,0,0,.14.52v.08h-1a2.51,2.51,0,0,1-.11-.42,4.6,4.6,0,0,1,0-.49Z"/><path class="cls-9" d="M91.8,355.22h-.92v-6.08l-1.83.67V349l2.61-1h.14Z"/><path class="cls-9" d="M95.8,351.39h.78a3.34,3.34,0,0,1,1.13.16,1.9,1.9,0,0,1,.71.43,1.59,1.59,0,0,1,.36.59,2.18,2.18,0,0,1-.19,1.79,1.92,1.92,0,0,1-.81.71,2.74,2.74,0,0,1-1.16.25,2.86,2.86,0,0,1-.89-.14,2.26,2.26,0,0,1-.72-.38,1.79,1.79,0,0,1-.49-.63,1.93,1.93,0,0,1-.18-.85h.92a1.3,1.3,0,0,0,.17.66,1.15,1.15,0,0,0,.46.44,1.67,1.67,0,0,0,.73.16,1.36,1.36,0,0,0,1-.34,1.27,1.27,0,0,0,.37-1,1.37,1.37,0,0,0-.19-.74,1.13,1.13,0,0,0-.53-.43,2,2,0,0,0-.8-.14H95.8Zm.65-.2a1.64,1.64,0,0,0,.78-.16,1.12,1.12,0,0,0,.47-.44,1.35,1.35,0,0,0,.16-.64,1.6,1.6,0,0,0-.14-.69.92.92,0,0,0-.42-.43,1.54,1.54,0,0,0-.69-.14,1.44,1.44,0,0,0-.67.15,1.06,1.06,0,0,0-.46.43,1.33,1.33,0,0,0-.16.65H94.4a1.79,1.79,0,0,1,.28-1,2,2,0,0,1,.77-.72,2.51,2.51,0,0,1,1.16-.26,2.55,2.55,0,0,1,1.14.23,1.73,1.73,0,0,1,.76.68,2.12,2.12,0,0,1,.27,1.11,1.39,1.39,0,0,1-.13.58,1.65,1.65,0,0,1-.39.58,2,2,0,0,1-.68.44,2.72,2.72,0,0,1-1,.17H95.8v-.55Z"/><path class="cls-9" d="M100.25,354.74a.54.54,0,0,1,.15-.39.51.51,0,0,1,.42-.16.52.52,0,0,1,.42.16.54.54,0,0,1,.15.39.52.52,0,0,1-.15.38.55.55,0,0,1-.42.15.54.54,0,0,1-.42-.15A.52.52,0,0,1,100.25,354.74Z"/><path class="cls-9" d="M103.22,351.62l.36-3.57h3.68v.83h-2.9l-.21,2a3.41,3.41,0,0,1,.49-.21,2.52,2.52,0,0,1,.7-.1,2.11,2.11,0,0,1,1.14.3,2,2,0,0,1,.74.83,2.94,2.94,0,0,1,.25,1.27,3,3,0,0,1-.24,1.23,2,2,0,0,1-.76.85,2.69,2.69,0,0,1-2.08.18,2.06,2.06,0,0,1-.69-.36,2,2,0,0,1-.5-.62,2.33,2.33,0,0,1-.24-.88h.88a1.45,1.45,0,0,0,.43.93,1.49,1.49,0,0,0,1.67.12,1.31,1.31,0,0,0,.46-.57,2.26,2.26,0,0,0,.15-.87,1.92,1.92,0,0,0-.16-.81,1.34,1.34,0,0,0-.48-.57,1.42,1.42,0,0,0-.78-.21,1.52,1.52,0,0,0-.69.12,2,2,0,0,0-.48.34Z"/><path class="cls-9" d="M113.11,348.55l-3,6.67h-1l3-6.43h-3.87v-.74h4.85Z"/><path class="cls-9" d="M114.06,349.43a1.57,1.57,0,0,1,.18-.75,1.27,1.27,0,0,1,.5-.53,1.43,1.43,0,0,1,.79-.21,1.46,1.46,0,0,1,.79.21,1.37,1.37,0,0,1,.51.53,1.69,1.69,0,0,1,.17.75v.38a1.63,1.63,0,0,1-.17.73,1.46,1.46,0,0,1-.51.54,1.64,1.64,0,0,1-1.57,0,1.32,1.32,0,0,1-.51-.54,1.52,1.52,0,0,1-.18-.73Zm.69.38a1.16,1.16,0,0,0,.08.42.73.73,0,0,0,.27.33.68.68,0,0,0,.44.13.67.67,0,0,0,.43-.13.71.71,0,0,0,.26-.33,1,1,0,0,0,.08-.42v-.38a1.08,1.08,0,0,0-.08-.44.72.72,0,0,0-.7-.46.76.76,0,0,0-.44.13.78.78,0,0,0-.26.33,1.27,1.27,0,0,0-.08.44Zm1,4.86-.52-.32,3.51-5.61.51.33Zm1.81-1.21a1.53,1.53,0,0,1,.18-.74,1.44,1.44,0,0,1,.5-.54,1.66,1.66,0,0,1,1.58,0,1.44,1.44,0,0,1,.5.54,1.53,1.53,0,0,1,.18.74v.38a1.53,1.53,0,0,1-.18.74,1.3,1.3,0,0,1-.5.54,1.64,1.64,0,0,1-1.57,0,1.32,1.32,0,0,1-.51-.54,1.53,1.53,0,0,1-.18-.74Zm.68.38a1,1,0,0,0,.09.43.78.78,0,0,0,.26.33.73.73,0,0,0,.45.13.71.71,0,0,0,.69-.45,1.08,1.08,0,0,0,.08-.44v-.38a1,1,0,0,0-.19-.62.68.68,0,0,0-.59-.27.67.67,0,0,0-.59.27,1,1,0,0,0-.2.62Z"/><path class="cls-9" d="M127.43,352.63h-.92a2.45,2.45,0,0,0-1.2.24.81.81,0,0,0-.42.74.87.87,0,0,0,.26.65,1,1,0,0,0,.75.27,1.47,1.47,0,0,0,.74-.18,1.57,1.57,0,0,0,.51-.44,1,1,0,0,0,.2-.5l.39.44a1.28,1.28,0,0,1-.18.46,2.91,2.91,0,0,1-.41.48,2.27,2.27,0,0,1-.6.38,1.94,1.94,0,0,1-.78.15,2,2,0,0,1-1-.21,1.58,1.58,0,0,1-.63-.57,1.62,1.62,0,0,1,.43-2.11,3.07,3.07,0,0,1,1.74-.44h1.06Zm-.17-1.07a1,1,0,0,0-.28-.76,1.14,1.14,0,0,0-.84-.28,1.38,1.38,0,0,0-.59.12,1,1,0,0,0-.41.31.73.73,0,0,0-.14.42h-.92a1.29,1.29,0,0,1,.26-.75,2,2,0,0,1,.74-.6,2.8,2.8,0,0,1,2.15,0,1.61,1.61,0,0,1,.7.59,1.82,1.82,0,0,1,.25,1v2.49a3.87,3.87,0,0,0,0,.56,2.3,2.3,0,0,0,.14.52v.08h-1a1.81,1.81,0,0,1-.11-.42,2.93,2.93,0,0,1,0-.49Z"/><path class="cls-9" d="M130.53,355.22h-.92v-5.33h.87l.05,1.14Zm-.6-2.89a3.18,3.18,0,0,1,.28-1.3,2.19,2.19,0,0,1,.76-.91,2,2,0,0,1,1.13-.33,2.14,2.14,0,0,1,.91.19,1.37,1.37,0,0,1,.59.62,2.6,2.6,0,0,1,.2,1.13v3.49h-.91v-3.5a1.61,1.61,0,0,0-.13-.68.79.79,0,0,0-.35-.37,1.31,1.31,0,0,0-.58-.12,1.26,1.26,0,0,0-.62.15,1.48,1.48,0,0,0-.48.39,2,2,0,0,0-.31.57,2.26,2.26,0,0,0-.11.69Z"/><path class="cls-9" d="M136.1,355.22h-.92v-5.33h.87l0,1.14Zm-.6-2.89a3.18,3.18,0,0,1,.28-1.3,2.19,2.19,0,0,1,.76-.91,2,2,0,0,1,1.13-.33,2.06,2.06,0,0,1,.9.19,1.34,1.34,0,0,1,.6.62,2.76,2.76,0,0,1,.2,1.13v3.49h-.92v-3.5a1.63,1.63,0,0,0-.12-.68.79.79,0,0,0-.35-.37,1.29,1.29,0,0,0-.59-.12,1.25,1.25,0,0,0-.61.15,1.48,1.48,0,0,0-.48.39,2,2,0,0,0-.31.57,2.26,2.26,0,0,0-.11.69Z"/><path class="cls-9" d="M144.56,352.85a3.57,3.57,0,0,1-.2,1.27,1.77,1.77,0,0,1-.66.88,2.1,2.1,0,0,1-1.22.32,1.76,1.76,0,0,1-1.27-.47,2,2,0,0,1-.48-1.52v-3.44h.92v3.45a1.62,1.62,0,0,0,.14.74.76.76,0,0,0,.36.37,1.28,1.28,0,0,0,.47.1,1.68,1.68,0,0,0,.93-.23,1.29,1.29,0,0,0,.48-.6,2.35,2.35,0,0,0,.15-.86Zm-.55-3h.92v5.33h-.88l0-1.23Z"/><path class="cls-9" d="M149.62,352.63h-.92a2.45,2.45,0,0,0-1.2.24.81.81,0,0,0-.42.74.87.87,0,0,0,.26.65,1,1,0,0,0,.75.27,1.47,1.47,0,0,0,.74-.18,1.57,1.57,0,0,0,.51-.44,1,1,0,0,0,.2-.5l.39.44a1.28,1.28,0,0,1-.18.46,2.91,2.91,0,0,1-.41.48,2.27,2.27,0,0,1-.6.38,1.94,1.94,0,0,1-.78.15,2,2,0,0,1-1-.21,1.58,1.58,0,0,1-.63-.57,1.62,1.62,0,0,1,.43-2.11,3.07,3.07,0,0,1,1.74-.44h1.06Zm-.17-1.07a1,1,0,0,0-.28-.76,1.14,1.14,0,0,0-.84-.28,1.46,1.46,0,0,0-.6.12,1.05,1.05,0,0,0-.4.31.73.73,0,0,0-.14.42h-.92a1.29,1.29,0,0,1,.26-.75,2,2,0,0,1,.74-.6,2.8,2.8,0,0,1,2.15,0,1.61,1.61,0,0,1,.7.59,1.82,1.82,0,0,1,.25,1v2.49a3.87,3.87,0,0,0,0,.56,2.3,2.3,0,0,0,.14.52v.08h-1a1.81,1.81,0,0,1-.11-.42,2.93,2.93,0,0,1,0-.49Z"/><path class="cls-9" d="M152.8,355.22h-.92v-7.57h.92Z"/><path class="cls-9" d="M157.67,355.22h-.92v-5.33h.9l0,.84Zm1.66-4.52-.22,0h-.22a1.41,1.41,0,0,0-.71.17,1.3,1.3,0,0,0-.45.48,1.85,1.85,0,0,0-.19.69l-.27.15a3.7,3.7,0,0,1,.18-1.18,1.82,1.82,0,0,1,.54-.86,1.39,1.39,0,0,1,.94-.32l.22,0a.69.69,0,0,1,.18.05Z"/><path class="cls-9" d="M162.39,355.32a2.49,2.49,0,0,1-1.3-.34,2.26,2.26,0,0,1-.85-.91,2.86,2.86,0,0,1-.3-1.33v-.21a3.08,3.08,0,0,1,.33-1.48,2.4,2.4,0,0,1,.87-.94,2.17,2.17,0,0,1,1.13-.32,2.1,2.1,0,0,1,1.25.34,2,2,0,0,1,.71.93,3.56,3.56,0,0,1,.23,1.34v.4h-4v-.73h3.06V352a2.29,2.29,0,0,0-.14-.69,1.24,1.24,0,0,0-.39-.56,1.13,1.13,0,0,0-.74-.22,1.22,1.22,0,0,0-.73.23,1.53,1.53,0,0,0-.5.68,2.93,2.93,0,0,0-.18,1.09v.21a2.1,2.1,0,0,0,.19.92,1.55,1.55,0,0,0,.54.67,1.47,1.47,0,0,0,.85.25,1.57,1.57,0,0,0,.81-.2,2,2,0,0,0,.59-.53l.55.44a2.48,2.48,0,0,1-.73.71A2.3,2.3,0,0,1,162.39,355.32Z"/><path class="cls-9" d="M167.76,350.58h-2.88v-.69h2.88Zm-1-2v5.31a.87.87,0,0,0,.08.41.42.42,0,0,0,.22.18.88.88,0,0,0,.29.05l.23,0,.19,0v.74l-.28.06a1.76,1.76,0,0,1-.42,0,1.44,1.44,0,0,1-.62-.14,1,1,0,0,1-.44-.44,1.71,1.71,0,0,1-.17-.85v-5.3Z"/><path class="cls-9" d="M172.64,352.85a3.8,3.8,0,0,1-.2,1.27,1.89,1.89,0,0,1-.66.88,2.16,2.16,0,0,1-1.23.32,1.74,1.74,0,0,1-1.26-.47,2,2,0,0,1-.49-1.52v-3.44h.92v3.45a1.62,1.62,0,0,0,.14.74.83.83,0,0,0,.37.37,1.24,1.24,0,0,0,.47.1,1.65,1.65,0,0,0,.92-.23,1.25,1.25,0,0,0,.49-.6,2.35,2.35,0,0,0,.14-.86Zm-.56-3H173v5.33h-.87l0-1.23Z"/><path class="cls-9" d="M175.3,355.22h-.92v-5.33h.9l0,.84ZM177,350.7l-.22,0h-.23a1.37,1.37,0,0,0-.7.17,1.3,1.3,0,0,0-.45.48,2.06,2.06,0,0,0-.2.69l-.26.15a3.7,3.7,0,0,1,.18-1.18,1.82,1.82,0,0,1,.54-.86,1.37,1.37,0,0,1,.94-.32l.22,0a.69.69,0,0,1,.18.05Z"/><path class="cls-9" d="M178.72,355.22h-.92v-5.33h.87l.05,1.14Zm-.6-2.89a3.18,3.18,0,0,1,.28-1.3,2.19,2.19,0,0,1,.76-.91,2,2,0,0,1,1.13-.33,2.14,2.14,0,0,1,.91.19,1.37,1.37,0,0,1,.59.62,2.6,2.6,0,0,1,.2,1.13v3.49h-.92v-3.5A1.63,1.63,0,0,0,181,351a.79.79,0,0,0-.35-.37,1.4,1.4,0,0,0-1.2,0,1.48,1.48,0,0,0-.48.39,2,2,0,0,0-.31.57,2.26,2.26,0,0,0-.11.69Z"/><path class="cls-9" d="M185.63,352.5a3,3,0,0,1,.3-1.38,2.41,2.41,0,0,1,.84-1,2.26,2.26,0,0,1,1.28-.36,2.3,2.3,0,0,1,1.3.36,2.27,2.27,0,0,1,.84,1,3,3,0,0,1,.29,1.38v.11a3.1,3.1,0,0,1-.29,1.38,2.21,2.21,0,0,1-.84,1,2.49,2.49,0,0,1-2.58,0,2.34,2.34,0,0,1-.84-1,3.11,3.11,0,0,1-.3-1.38Zm.92.11a2.84,2.84,0,0,0,.17,1,1.64,1.64,0,0,0,.5.72,1.28,1.28,0,0,0,.84.27,1.3,1.3,0,0,0,.84-.27,1.73,1.73,0,0,0,.5-.72,2.84,2.84,0,0,0,.16-1v-.11a2.84,2.84,0,0,0-.16-1,1.72,1.72,0,0,0-.51-.72,1.43,1.43,0,0,0-1.67,0,1.7,1.7,0,0,0-.5.72,2.84,2.84,0,0,0-.17,1Z"/><path class="cls-9" d="M192.55,355.22h-.92v-5.33h.87l.05,1.14Zm-.6-2.89a3,3,0,0,1,.28-1.3,2.25,2.25,0,0,1,.75-.91,2,2,0,0,1,1.13-.33,2.08,2.08,0,0,1,.91.19,1.32,1.32,0,0,1,.59.62,2.59,2.59,0,0,1,.21,1.13v3.49h-.92v-3.5a1.63,1.63,0,0,0-.12-.68.76.76,0,0,0-.36-.37,1.38,1.38,0,0,0-1.19,0,1.38,1.38,0,0,0-.48.39,2,2,0,0,0-.31.57,2.26,2.26,0,0,0-.11.69Z"/><path class="cls-9" d="M201.5,354l.23,1-.66.33-1.95-5.43h1Zm1.18-4.14h1L201.52,356c-.05.13-.11.27-.19.43a3.11,3.11,0,0,1-.31.43,1.41,1.41,0,0,1-.45.34,1.39,1.39,0,0,1-.63.13l-.18,0-.2,0-.14,0v-.73h.25a1.16,1.16,0,0,0,.72-.19,1.35,1.35,0,0,0,.43-.69l.38-1Z"/><path class="cls-9" d="M204.23,352.5a3,3,0,0,1,.3-1.38,2.41,2.41,0,0,1,.84-1,2.26,2.26,0,0,1,1.28-.36,2.3,2.3,0,0,1,1.3.36,2.27,2.27,0,0,1,.84,1,3,3,0,0,1,.29,1.38v.11a3.1,3.1,0,0,1-.29,1.38,2.21,2.21,0,0,1-.84,1,2.49,2.49,0,0,1-2.58,0,2.34,2.34,0,0,1-.84-1,3.11,3.11,0,0,1-.3-1.38Zm.92.11a2.84,2.84,0,0,0,.17,1,1.64,1.64,0,0,0,.5.72,1.28,1.28,0,0,0,.84.27,1.3,1.3,0,0,0,.84-.27,1.73,1.73,0,0,0,.5-.72,2.84,2.84,0,0,0,.16-1v-.11a2.84,2.84,0,0,0-.16-1,1.72,1.72,0,0,0-.51-.72,1.43,1.43,0,0,0-1.67,0,1.7,1.7,0,0,0-.5.72,2.84,2.84,0,0,0-.17,1Z"/><path class="cls-9" d="M214,352.85a3.8,3.8,0,0,1-.2,1.27,1.77,1.77,0,0,1-.66.88,2.1,2.1,0,0,1-1.22.32,1.75,1.75,0,0,1-1.27-.47,2,2,0,0,1-.48-1.52v-3.44h.92v3.45a1.5,1.5,0,0,0,.14.74.76.76,0,0,0,.36.37,1.28,1.28,0,0,0,.47.1,1.62,1.62,0,0,0,.92-.23,1.25,1.25,0,0,0,.49-.6,2.35,2.35,0,0,0,.15-.86Zm-.55-3h.92v5.33h-.88l0-1.23Z"/><path class="cls-9" d="M216.71,355.22h-.92v-5.33h.89l0,.84Zm1.66-4.52-.22,0h-.23a1.41,1.41,0,0,0-.71.17,1.2,1.2,0,0,0-.44.48,1.85,1.85,0,0,0-.2.69l-.26.15a4,4,0,0,1,.17-1.18,1.89,1.89,0,0,1,.54-.86,1.39,1.39,0,0,1,.94-.32l.23,0,.18.05Z"/><path class="cls-9" d="M221.72,348.47a.54.54,0,0,1,.13-.37.51.51,0,0,1,.4-.15.5.5,0,0,1,.55.52.52.52,0,0,1-.14.36.54.54,0,0,1-.41.15.51.51,0,0,1-.4-.15A.52.52,0,0,1,221.72,348.47Zm1,6.75h-.92v-5.33h.92Z"/><path class="cls-9" d="M225.08,355.22h-.92v-5.33H225l.05,1.14Zm-.6-2.89a3,3,0,0,1,.28-1.3,2.25,2.25,0,0,1,.75-.91,2,2,0,0,1,1.13-.33,2.08,2.08,0,0,1,.91.19,1.32,1.32,0,0,1,.59.62,2.59,2.59,0,0,1,.21,1.13v3.49h-.92v-3.5a1.63,1.63,0,0,0-.12-.68.76.76,0,0,0-.36-.37,1.38,1.38,0,0,0-1.19,0,1.29,1.29,0,0,0-.48.39,2,2,0,0,0-.31.57,2.26,2.26,0,0,0-.11.69Z"/><path class="cls-9" d="M231.64,354.42l.11.8h-.62l-1.93-5.33h.94Zm1.16-4.53h.94l-1.91,5.33h-.62l.14-.82Z"/><path class="cls-9" d="M236.83,355.32a2.48,2.48,0,0,1-1.29-.34,2.2,2.2,0,0,1-.85-.91,2.86,2.86,0,0,1-.3-1.33v-.21a3.08,3.08,0,0,1,.33-1.48,2.45,2.45,0,0,1,.86-.94,2.23,2.23,0,0,1,1.14-.32,2.12,2.12,0,0,1,1.25.34,2,2,0,0,1,.71.93,3.76,3.76,0,0,1,.23,1.34v.4h-4v-.73H238V352a2.29,2.29,0,0,0-.14-.69,1.26,1.26,0,0,0-.4-.56,1.1,1.1,0,0,0-.73-.22,1.27,1.27,0,0,0-.74.23,1.6,1.6,0,0,0-.49.68,2.93,2.93,0,0,0-.18,1.09v.21a2.25,2.25,0,0,0,.18.92,1.65,1.65,0,0,0,.55.67,1.44,1.44,0,0,0,.84.25,1.61,1.61,0,0,0,.82-.2,2.11,2.11,0,0,0,.59-.53l.55.44a2.48,2.48,0,0,1-.73.71A2.31,2.31,0,0,1,236.83,355.32Z"/><path class="cls-9" d="M243.07,353.8a.86.86,0,0,0-.08-.36.77.77,0,0,0-.35-.31,2.72,2.72,0,0,0-.79-.25,5.62,5.62,0,0,1-1-.31,1.74,1.74,0,0,1-.67-.49,1.18,1.18,0,0,1-.23-.73,1.36,1.36,0,0,1,.24-.78,2,2,0,0,1,.69-.57,2.71,2.71,0,0,1,2.14,0,1.59,1.59,0,0,1,.7.6,1.52,1.52,0,0,1,.24.83H243a.92.92,0,0,0-.29-.63,1.13,1.13,0,0,0-.83-.29,1.28,1.28,0,0,0-.6.12.71.71,0,0,0-.34.29.76.76,0,0,0-.11.38.57.57,0,0,0,.1.34.82.82,0,0,0,.36.26,4.77,4.77,0,0,0,.77.22,5.24,5.24,0,0,1,1.08.36,1.64,1.64,0,0,1,.63.51,1.3,1.3,0,0,1,.2.73,1.37,1.37,0,0,1-.25.82,1.71,1.71,0,0,1-.72.56,2.79,2.79,0,0,1-1.09.2,2.52,2.52,0,0,1-1.19-.26,1.8,1.8,0,0,1-.74-.64,1.55,1.55,0,0,1-.25-.84h.92a1,1,0,0,0,.22.59,1,1,0,0,0,.48.31,1.54,1.54,0,0,0,.56.1,1.89,1.89,0,0,0,.63-.1.86.86,0,0,0,.38-.28A.64.64,0,0,0,243.07,353.8Z"/><path class="cls-9" d="M247.42,350.58h-2.89v-.69h2.89Zm-1-2v5.31a.87.87,0,0,0,.08.41.42.42,0,0,0,.22.18.88.88,0,0,0,.29.05l.24,0,.18,0v.74l-.28.06a1.71,1.71,0,0,1-.42,0,1.37,1.37,0,0,1-.61-.14,1,1,0,0,1-.45-.44,1.71,1.71,0,0,1-.17-.85v-5.3Z"/><path class="cls-9" d="M249.39,355.22h-.92v-5.33h.87l0,1.06Zm-.62-2.89A3.54,3.54,0,0,1,249,351a2.13,2.13,0,0,1,.73-.91,2.06,2.06,0,0,1,1.19-.33,1.81,1.81,0,0,1,1.24.44,1.86,1.86,0,0,1,.48,1.44v3.55h-.92v-3.51a1.31,1.31,0,0,0-.14-.67.82.82,0,0,0-.39-.37,1.4,1.4,0,0,0-.6-.12,1.36,1.36,0,0,0-.67.15,1.08,1.08,0,0,0-.43.39,1.81,1.81,0,0,0-.24.57,3.84,3.84,0,0,0-.07.69ZM252,352a2.53,2.53,0,0,1,.25-1.09,2,2,0,0,1,1.87-1.15,2.21,2.21,0,0,1,1,.2,1.41,1.41,0,0,1,.6.63,2.48,2.48,0,0,1,.21,1.1v3.5H255v-3.51a1.47,1.47,0,0,0-.14-.7.82.82,0,0,0-.4-.36,1.73,1.73,0,0,0-.59-.1,1.25,1.25,0,0,0-.53.11,1.11,1.11,0,0,0-.39.28,1.27,1.27,0,0,0-.23.41,1.37,1.37,0,0,0-.09.49Z"/><path class="cls-9" d="M259.53,355.32a2.43,2.43,0,0,1-1.29-.34,2.2,2.2,0,0,1-.85-.91,2.75,2.75,0,0,1-.31-1.33v-.21a3.08,3.08,0,0,1,.33-1.48,2.48,2.48,0,0,1,.87-.94,2.2,2.2,0,0,1,1.13-.32,2.1,2.1,0,0,1,1.25.34,2,2,0,0,1,.72.93,3.76,3.76,0,0,1,.23,1.34v.4h-4v-.73h3.06V352a2.3,2.3,0,0,0-.15-.69,1.24,1.24,0,0,0-.39-.56,1.13,1.13,0,0,0-.74-.22,1.24,1.24,0,0,0-.73.23,1.61,1.61,0,0,0-.5.68,2.93,2.93,0,0,0-.18,1.09v.21a2.1,2.1,0,0,0,.19.92,1.55,1.55,0,0,0,.54.67,1.49,1.49,0,0,0,.85.25,1.63,1.63,0,0,0,.82-.2,2.07,2.07,0,0,0,.58-.53l.56.44a2.52,2.52,0,0,1-.74.71A2.27,2.27,0,0,1,259.53,355.32Z"/><path class="cls-9" d="M263.59,355.22h-.92v-5.33h.87l0,1.14Zm-.6-2.89a3,3,0,0,1,.28-1.3,2.25,2.25,0,0,1,.75-.91,2,2,0,0,1,1.13-.33,2.11,2.11,0,0,1,.91.19,1.32,1.32,0,0,1,.59.62,2.59,2.59,0,0,1,.21,1.13v3.49h-.92v-3.5a1.63,1.63,0,0,0-.12-.68.76.76,0,0,0-.36-.37,1.28,1.28,0,0,0-.58-.12,1.23,1.23,0,0,0-.61.15,1.29,1.29,0,0,0-.48.39,1.76,1.76,0,0,0-.31.57,2.26,2.26,0,0,0-.11.69Z"/><path class="cls-9" d="M270.48,350.58h-2.89v-.69h2.89Zm-1-2v5.31a.87.87,0,0,0,.08.41.42.42,0,0,0,.22.18.93.93,0,0,0,.29.05l.24,0,.18,0v.74l-.29.06a1.66,1.66,0,0,1-.42,0,1.37,1.37,0,0,1-.61-.14,1,1,0,0,1-.45-.44,1.83,1.83,0,0,1-.17-.85v-5.3Z"/><path class="cls-9" d="M274.64,353.8a.74.74,0,0,0-.09-.36.72.72,0,0,0-.35-.31,2.64,2.64,0,0,0-.78-.25,5.5,5.5,0,0,1-1-.31,1.78,1.78,0,0,1-.66-.49,1.13,1.13,0,0,1-.24-.73,1.37,1.37,0,0,1,.25-.78,1.79,1.79,0,0,1,.69-.57,2.69,2.69,0,0,1,2.13,0,1.54,1.54,0,0,1,.7.6,1.52,1.52,0,0,1,.24.83h-.92a.9.9,0,0,0-.28-.63,1.15,1.15,0,0,0-.83-.29,1.35,1.35,0,0,0-.61.12.76.76,0,0,0-.34.29.75.75,0,0,0-.1.38.64.64,0,0,0,.09.34.86.86,0,0,0,.37.26,4.6,4.6,0,0,0,.76.22,4.85,4.85,0,0,1,1.08.36,1.64,1.64,0,0,1,.63.51,1.23,1.23,0,0,1,.21.73,1.38,1.38,0,0,1-.26.82,1.71,1.71,0,0,1-.72.56,2.79,2.79,0,0,1-1.09.2,2.55,2.55,0,0,1-1.19-.26,1.87,1.87,0,0,1-.74-.64,1.64,1.64,0,0,1-.25-.84h.92a1,1,0,0,0,.22.59,1,1,0,0,0,.48.31,1.62,1.62,0,0,0,.56.1,1.89,1.89,0,0,0,.63-.1.89.89,0,0,0,.39-.28A.71.71,0,0,0,274.64,353.8Z"/><path class="cls-9" d="M33.67,366.17a7.2,7.2,0,0,1,.24-1.94,6.69,6.69,0,0,1,.62-1.53,5.38,5.38,0,0,1,.79-1.09,3,3,0,0,1,.77-.62l.19.59a3.55,3.55,0,0,0-.59.62,4.76,4.76,0,0,0-.54,1,6.12,6.12,0,0,0-.41,1.31,8.6,8.6,0,0,0-.15,1.68v.08a8.6,8.6,0,0,0,.15,1.68,6.22,6.22,0,0,0,.41,1.32,5.26,5.26,0,0,0,.54,1,4.17,4.17,0,0,0,.59.64l-.19.54a3.54,3.54,0,0,1-.77-.62,5.38,5.38,0,0,1-.79-1.09,6.43,6.43,0,0,1-.62-1.52,7.31,7.31,0,0,1-.24-1.94Z"/><path class="cls-9" d="M42.36,361.91v4.85A2.35,2.35,0,0,1,42,368.1a2.26,2.26,0,0,1-1,.81,3.11,3.11,0,0,1-1.29.27,3.15,3.15,0,0,1-1.32-.27,2.15,2.15,0,0,1-.93-.81,2.42,2.42,0,0,1-.34-1.34v-4.85h1v4.85a1.82,1.82,0,0,0,.2.92,1.28,1.28,0,0,0,.58.55,1.94,1.94,0,0,0,.86.18,2,2,0,0,0,.87-.18,1.31,1.31,0,0,0,.57-.55,1.82,1.82,0,0,0,.2-.92v-4.85Z"/><path class="cls-9" d="M47.66,367.27a1.16,1.16,0,0,0-.14-.58,1.29,1.29,0,0,0-.52-.43,5.49,5.49,0,0,0-1-.39,6.26,6.26,0,0,1-1-.35,2.72,2.72,0,0,1-.73-.44,1.72,1.72,0,0,1-.47-.58,1.58,1.58,0,0,1-.16-.74,1.73,1.73,0,0,1,.3-1,2,2,0,0,1,.85-.7,3,3,0,0,1,1.28-.25,2.81,2.81,0,0,1,1.38.31,2.22,2.22,0,0,1,.86.8A2,2,0,0,1,48.6,364h-1a1.42,1.42,0,0,0-.17-.72,1.15,1.15,0,0,0-.52-.5,1.89,1.89,0,0,0-.88-.18,2,2,0,0,0-.83.15,1.2,1.2,0,0,0-.49.42,1.15,1.15,0,0,0-.15.59.87.87,0,0,0,.17.54,1.43,1.43,0,0,0,.54.42,5.87,5.87,0,0,0,.95.35,6.22,6.22,0,0,1,1.34.53,2.13,2.13,0,0,1,.77.71,1.77,1.77,0,0,1,.25,1,1.68,1.68,0,0,1-.31,1,2,2,0,0,1-.87.67,3.38,3.38,0,0,1-1.32.24,3.63,3.63,0,0,1-1-.14,2.7,2.7,0,0,1-.87-.42,2.15,2.15,0,0,1-.63-.68,1.9,1.9,0,0,1-.23-.94h1a1.29,1.29,0,0,0,.15.64,1.15,1.15,0,0,0,.39.43,1.7,1.7,0,0,0,.56.26,2.84,2.84,0,0,0,.66.08,2.3,2.3,0,0,0,.84-.14,1.25,1.25,0,0,0,.52-.4A1,1,0,0,0,47.66,367.27Z"/><path class="cls-9" d="M53.1,369.08h-.92v-5.33h.88l0,1.06Zm-.61-2.89a3.35,3.35,0,0,1,.25-1.3,2,2,0,0,1,.72-.91,2.07,2.07,0,0,1,1.2-.33,1.78,1.78,0,0,1,1.23.44,1.83,1.83,0,0,1,.49,1.44v3.55h-.92v-3.51a1.42,1.42,0,0,0-.14-.67.89.89,0,0,0-.4-.37,1.4,1.4,0,0,0-.6-.12,1.36,1.36,0,0,0-.67.15,1.08,1.08,0,0,0-.43.39,1.8,1.8,0,0,0-.23.57,3.11,3.11,0,0,0-.07.69Zm3.26-.3A2.68,2.68,0,0,1,56,364.8a2.06,2.06,0,0,1,.72-.83,2,2,0,0,1,1.15-.32,2.18,2.18,0,0,1,1,.2,1.38,1.38,0,0,1,.61.63,2.49,2.49,0,0,1,.2,1.1v3.5h-.92v-3.51a1.36,1.36,0,0,0-.14-.7.7.7,0,0,0-.39-.35,1.57,1.57,0,0,0-.6-.11,1.25,1.25,0,0,0-.53.11,1.08,1.08,0,0,0-.38.28,1.3,1.3,0,0,0-.24.41,1.62,1.62,0,0,0-.08.49Z"/><path class="cls-9" d="M64.34,366.49h-.92a2.45,2.45,0,0,0-1.2.24.81.81,0,0,0-.42.74.9.9,0,0,0,.25.65,1,1,0,0,0,.76.27,1.47,1.47,0,0,0,.74-.18,1.57,1.57,0,0,0,.51-.44,1,1,0,0,0,.2-.5l.39.44a1.28,1.28,0,0,1-.18.46,2.91,2.91,0,0,1-.41.48,2.27,2.27,0,0,1-.6.38,1.94,1.94,0,0,1-.78.15,2,2,0,0,1-1-.21,1.58,1.58,0,0,1-.63-.57,1.62,1.62,0,0,1,.43-2.11,3.07,3.07,0,0,1,1.74-.44h1.06Zm-.17-1.07a1,1,0,0,0-.28-.76,1.14,1.14,0,0,0-.84-.28,1.46,1.46,0,0,0-.6.12,1.05,1.05,0,0,0-.4.31.73.73,0,0,0-.14.42H61a1.29,1.29,0,0,1,.26-.75,1.85,1.85,0,0,1,.74-.59,2.44,2.44,0,0,1,1.12-.24,2.59,2.59,0,0,1,1,.2,1.61,1.61,0,0,1,.7.59,1.82,1.82,0,0,1,.25,1v2.49a3.87,3.87,0,0,0,0,.56,2.3,2.3,0,0,0,.14.52v.08h-1a1.81,1.81,0,0,1-.11-.42,2.93,2.93,0,0,1,0-.49Z"/><path class="cls-9" d="M66.53,362.33a.54.54,0,0,1,.13-.37.53.53,0,0,1,.41-.15.52.52,0,0,1,.4.15.5.5,0,0,1,.14.37.48.48,0,0,1-.14.36.52.52,0,0,1-.4.15.53.53,0,0,1-.41-.15A.52.52,0,0,1,66.53,362.33Zm1,6.75H66.6v-5.33h.92Z"/><path class="cls-9" d="M69.89,369.08H69v-5.33h.87l0,1.14Zm-.6-2.89a3.18,3.18,0,0,1,.28-1.3,2.19,2.19,0,0,1,.76-.91,2,2,0,0,1,1.13-.33,2,2,0,0,1,.91.2,1.34,1.34,0,0,1,.59.61,2.59,2.59,0,0,1,.21,1.13v3.49h-.92v-3.5a1.63,1.63,0,0,0-.12-.68.76.76,0,0,0-.36-.37,1.28,1.28,0,0,0-.58-.12,1.29,1.29,0,0,0-.62.15,1.48,1.48,0,0,0-.48.39,1.91,1.91,0,0,0-.41,1.26Z"/><path class="cls-9" d="M80.35,366.49h-.91a2.52,2.52,0,0,0-1.21.24.81.81,0,0,0-.42.74.91.91,0,0,0,.26.65,1,1,0,0,0,.76.27,1.46,1.46,0,0,0,.73-.18,1.38,1.38,0,0,0,.51-.44.91.91,0,0,0,.2-.5l.4.44a1.55,1.55,0,0,1-.19.46,2.5,2.5,0,0,1-.41.48,2.27,2.27,0,0,1-.6.38,1.94,1.94,0,0,1-.78.15,2,2,0,0,1-1-.21,1.58,1.58,0,0,1-.63-.57,1.48,1.48,0,0,1-.22-.8,1.5,1.5,0,0,1,.65-1.31,3.1,3.1,0,0,1,1.75-.44h1Zm-.17-1.07a1,1,0,0,0-.28-.76,1.13,1.13,0,0,0-.83-.28,1.4,1.4,0,0,0-.6.12,1,1,0,0,0-.4.31.68.68,0,0,0-.15.42H77a1.29,1.29,0,0,1,.26-.75,1.92,1.92,0,0,1,.74-.59,2.46,2.46,0,0,1,1.12-.24,2.56,2.56,0,0,1,1,.2,1.56,1.56,0,0,1,.7.59,1.82,1.82,0,0,1,.25,1v2.49a3.87,3.87,0,0,0,.05.56,2.3,2.3,0,0,0,.14.52v.08h-1a2.51,2.51,0,0,1-.11-.42,4.6,4.6,0,0,1,0-.49Z"/><path class="cls-9" d="M84.37,368.28l.11.8h-.62l-1.93-5.33h.94Zm1.16-4.53h.94l-1.91,5.33h-.62l.14-.82Z"/><path class="cls-9" d="M87.13,366.37a3.72,3.72,0,0,1,.26-1.43,2.13,2.13,0,0,1,.73-.95,1.84,1.84,0,0,1,1.12-.34,2,2,0,0,1,.88.18,1.72,1.72,0,0,1,.64.5,2.88,2.88,0,0,1,.42.8,5.13,5.13,0,0,1,.21,1.05v.48a4.25,4.25,0,0,1-.33,1.34,1.86,1.86,0,0,1-1.83,1.18,1.76,1.76,0,0,1-1.11-.36,2.24,2.24,0,0,1-.73-1,3.59,3.59,0,0,1-.26-1.39Zm4.51-2.62V369a2.43,2.43,0,0,1-.29,1.21,1.87,1.87,0,0,1-.8.75,2.58,2.58,0,0,1-1.17.26,2.8,2.8,0,0,1-.65-.09,2.37,2.37,0,0,1-.73-.29,1.75,1.75,0,0,1-.6-.55l.48-.53a1.86,1.86,0,0,0,.7.56,1.79,1.79,0,0,0,.73.16,1.42,1.42,0,0,0,1-.37,1.4,1.4,0,0,0,.38-1.06v-4.09l.08-1.17Zm-3.59,2.72a3,3,0,0,0,.15,1,1.57,1.57,0,0,0,.45.7,1.2,1.2,0,0,0,.81.27,1.37,1.37,0,0,0,.74-.19,1.54,1.54,0,0,0,.47-.51,2.61,2.61,0,0,0,.27-.69v-1.19a3.24,3.24,0,0,0-.16-.53,1.74,1.74,0,0,0-.29-.45,1.31,1.31,0,0,0-1-.44,1.18,1.18,0,0,0-.81.27,1.54,1.54,0,0,0-.46.71,3.1,3.1,0,0,0-.15,1Z"/><path class="cls-9" d="M96.43,369.08h-.92v-5.33h.9l0,.84Zm1.66-4.52-.21,0h-.23a1.41,1.41,0,0,0-.71.17,1.3,1.3,0,0,0-.45.48,1.85,1.85,0,0,0-.19.69L96,366a3.7,3.7,0,0,1,.17-1.18,1.82,1.82,0,0,1,.54-.86,1.39,1.39,0,0,1,.94-.32l.22,0a.69.69,0,0,1,.18.05Z"/><path class="cls-9" d="M101.15,369.18a2.49,2.49,0,0,1-1.3-.34,2.26,2.26,0,0,1-.85-.91,2.86,2.86,0,0,1-.3-1.33v-.21a3.08,3.08,0,0,1,.33-1.48,2.4,2.4,0,0,1,.87-.94,2.2,2.2,0,0,1,1.13-.32,2.17,2.17,0,0,1,1.25.34,2,2,0,0,1,.72.93,3.77,3.77,0,0,1,.22,1.34v.4h-4v-.73h3v-.07a2.29,2.29,0,0,0-.14-.69,1.24,1.24,0,0,0-.39-.56,1.13,1.13,0,0,0-.74-.22,1.22,1.22,0,0,0-.73.23,1.61,1.61,0,0,0-.5.68,2.93,2.93,0,0,0-.18,1.09v.21a2.1,2.1,0,0,0,.19.92,1.55,1.55,0,0,0,.54.67,1.49,1.49,0,0,0,.85.25,1.57,1.57,0,0,0,.81-.2,2,2,0,0,0,.59-.53l.56.44a2.52,2.52,0,0,1-.74.71A2.27,2.27,0,0,1,101.15,369.18Z"/><path class="cls-9" d="M106.52,364.44h-2.88v-.69h2.88Zm-1-2v5.31a.87.87,0,0,0,.08.41.42.42,0,0,0,.22.18.88.88,0,0,0,.29,0l.23,0,.19,0v.74l-.28.06a1.76,1.76,0,0,1-.42,0,1.44,1.44,0,0,1-.62-.14,1,1,0,0,1-.44-.44,1.83,1.83,0,0,1-.17-.85v-5.3Z"/><path class="cls-9" d="M111.4,366.71a3.8,3.8,0,0,1-.2,1.27,1.89,1.89,0,0,1-.66.88,2.16,2.16,0,0,1-1.23.32,1.74,1.74,0,0,1-1.26-.47,2,2,0,0,1-.49-1.52v-3.44h.92v3.45a1.49,1.49,0,0,0,.15.74.76.76,0,0,0,.36.37,1.28,1.28,0,0,0,.47.1,1.65,1.65,0,0,0,.92-.23,1.25,1.25,0,0,0,.49-.6,2.35,2.35,0,0,0,.15-.86Zm-.56-3h.92v5.33h-.87l0-1.23Z"/><path class="cls-9" d="M114.06,369.08h-.92v-5.33h.9l0,.84Zm1.66-4.52-.22,0h-.22a1.41,1.41,0,0,0-.71.17,1.3,1.3,0,0,0-.45.48,1.85,1.85,0,0,0-.19.69l-.26.15a3.7,3.7,0,0,1,.17-1.18,1.82,1.82,0,0,1,.54-.86,1.39,1.39,0,0,1,.94-.32l.22,0a.69.69,0,0,1,.18.05Z"/><path class="cls-9" d="M117.48,369.08h-.92v-5.33h.87l0,1.14Zm-.6-2.89a3.18,3.18,0,0,1,.28-1.3,2.19,2.19,0,0,1,.76-.91,2,2,0,0,1,1.13-.33,2,2,0,0,1,.91.2,1.34,1.34,0,0,1,.59.61,2.59,2.59,0,0,1,.21,1.13v3.49h-.92v-3.5a1.47,1.47,0,0,0-.13-.68.79.79,0,0,0-.35-.37,1.28,1.28,0,0,0-.58-.12,1.29,1.29,0,0,0-.62.15,1.48,1.48,0,0,0-.48.39,2.24,2.24,0,0,0-.31.57,2.26,2.26,0,0,0-.11.69Z"/><path class="cls-9" d="M124.39,366.36a3,3,0,0,1,.3-1.38,2.41,2.41,0,0,1,.84-1,2.26,2.26,0,0,1,1.28-.36,2.3,2.3,0,0,1,1.3.36,2.27,2.27,0,0,1,.84,1,3,3,0,0,1,.3,1.38v.11a3.11,3.11,0,0,1-.3,1.38,2.25,2.25,0,0,1-.83,1,2.33,2.33,0,0,1-1.3.36,2.27,2.27,0,0,1-1.29-.36,2.34,2.34,0,0,1-.84-1,3.11,3.11,0,0,1-.3-1.38Zm.93.11a2.84,2.84,0,0,0,.16,1,1.73,1.73,0,0,0,.5.72,1.44,1.44,0,0,0,1.68,0,1.64,1.64,0,0,0,.5-.72,2.84,2.84,0,0,0,.16-1v-.11a2.84,2.84,0,0,0-.16-1,1.7,1.7,0,0,0-.51-.72,1.43,1.43,0,0,0-1.67,0,1.76,1.76,0,0,0-.5.72,2.84,2.84,0,0,0-.16,1Z"/><path class="cls-9" d="M132.22,368.28l.11.8h-.61l-1.93-5.33h.94Zm1.17-4.53h.94l-1.91,5.33h-.62l.14-.82Z"/><path class="cls-9" d="M137.42,369.18a2.43,2.43,0,0,1-1.29-.34,2.2,2.2,0,0,1-.85-.91,2.75,2.75,0,0,1-.31-1.33v-.21a3.08,3.08,0,0,1,.33-1.48,2.56,2.56,0,0,1,.87-.94,2.2,2.2,0,0,1,1.13-.32,2.17,2.17,0,0,1,1.25.34,2,2,0,0,1,.72.93,3.76,3.76,0,0,1,.23,1.34v.4h-4v-.73h3.06v-.07a2.3,2.3,0,0,0-.15-.69,1.24,1.24,0,0,0-.39-.56,1.13,1.13,0,0,0-.74-.22,1.24,1.24,0,0,0-.73.23,1.61,1.61,0,0,0-.5.68,2.93,2.93,0,0,0-.18,1.09v.21a2.26,2.26,0,0,0,.19.92,1.71,1.71,0,0,0,.54.67,1.49,1.49,0,0,0,.85.25,1.63,1.63,0,0,0,.82-.2,1.94,1.94,0,0,0,.58-.53l.56.44a2.52,2.52,0,0,1-.74.71A2.27,2.27,0,0,1,137.42,369.18Z"/><path class="cls-9" d="M141.48,369.08h-.92v-5.33h.89l0,.84Zm1.66-4.52-.22,0h-.23a1.43,1.43,0,0,0-.71.17,1.2,1.2,0,0,0-.44.48,1.85,1.85,0,0,0-.2.69l-.26.15a4,4,0,0,1,.17-1.18,2,2,0,0,1,.54-.86,1.41,1.41,0,0,1,.94-.32l.23,0,.18.05Z"/><path class="cls-9" d="M147.48,369.08h-.93v-7.57h.93Z"/><path class="cls-9" d="M152.24,366.49h-.92a2.45,2.45,0,0,0-1.2.24.81.81,0,0,0-.42.74.87.87,0,0,0,.26.65,1,1,0,0,0,.75.27,1.47,1.47,0,0,0,.74-.18,1.57,1.57,0,0,0,.51-.44,1,1,0,0,0,.2-.5l.39.44a1.28,1.28,0,0,1-.18.46,2.91,2.91,0,0,1-.41.48,2.27,2.27,0,0,1-.6.38,1.94,1.94,0,0,1-.78.15,2,2,0,0,1-1-.21,1.58,1.58,0,0,1-.63-.57,1.62,1.62,0,0,1,.43-2.11,3.07,3.07,0,0,1,1.74-.44h1.06Zm-.17-1.07a1,1,0,0,0-.28-.76,1.14,1.14,0,0,0-.84-.28,1.46,1.46,0,0,0-.6.12,1.05,1.05,0,0,0-.4.31.73.73,0,0,0-.14.42h-.92a1.29,1.29,0,0,1,.26-.75,1.85,1.85,0,0,1,.74-.59,2.44,2.44,0,0,1,1.12-.24,2.59,2.59,0,0,1,1,.2,1.61,1.61,0,0,1,.7.59,1.82,1.82,0,0,1,.25,1v2.49a3.87,3.87,0,0,0,0,.56,2.3,2.3,0,0,0,.14.52v.08h-1a1.81,1.81,0,0,1-.11-.42,2.93,2.93,0,0,1,0-.49Z"/><path class="cls-9" d="M157.52,367.66a.74.74,0,0,0-.09-.36.7.7,0,0,0-.34-.31,2.83,2.83,0,0,0-.79-.25,5.62,5.62,0,0,1-1-.31,1.74,1.74,0,0,1-.67-.49,1.18,1.18,0,0,1-.23-.73,1.36,1.36,0,0,1,.24-.78,2,2,0,0,1,.69-.57,2.71,2.71,0,0,1,2.14,0,1.65,1.65,0,0,1,.7.6,1.52,1.52,0,0,1,.24.83h-.92a.88.88,0,0,0-.29-.62,1.1,1.1,0,0,0-.83-.3,1.28,1.28,0,0,0-.6.12.71.71,0,0,0-.34.29.76.76,0,0,0-.11.38.57.57,0,0,0,.1.34.82.82,0,0,0,.36.26,4.77,4.77,0,0,0,.77.22,4.93,4.93,0,0,1,1.07.36,1.61,1.61,0,0,1,.64.51,1.3,1.3,0,0,1,.2.73,1.37,1.37,0,0,1-.25.82,1.77,1.77,0,0,1-.72.56,2.79,2.79,0,0,1-1.09.2,2.65,2.65,0,0,1-1.19-.25,1.9,1.9,0,0,1-.74-.65,1.55,1.55,0,0,1-.25-.84h.92a1,1,0,0,0,.22.59,1,1,0,0,0,.47.31,1.63,1.63,0,0,0,.57.1,1.89,1.89,0,0,0,.63-.1.86.86,0,0,0,.38-.28A.64.64,0,0,0,157.52,367.66Z"/><path class="cls-9" d="M161.86,364.44H159v-.69h2.88Zm-1-2v5.31a.87.87,0,0,0,.08.41.42.42,0,0,0,.22.18.88.88,0,0,0,.29,0l.23,0,.19,0v.74l-.28.06a1.76,1.76,0,0,1-.42,0,1.44,1.44,0,0,1-.62-.14,1,1,0,0,1-.44-.44,1.83,1.83,0,0,1-.17-.85v-5.3Z"/><path class="cls-9" d="M165.75,365.48l.36-3.57h3.68v.83h-2.9l-.21,2a3.14,3.14,0,0,1,.5-.21,2.4,2.4,0,0,1,.69-.09,2.1,2.1,0,0,1,1.14.29,2,2,0,0,1,.74.83,2.94,2.94,0,0,1,.25,1.27,3,3,0,0,1-.24,1.23,2,2,0,0,1-.75.85,2.47,2.47,0,0,1-1.28.31,2.81,2.81,0,0,1-.82-.12,2.3,2.3,0,0,1-.69-.37,2.14,2.14,0,0,1-.49-.62,2.33,2.33,0,0,1-.24-.88h.88a1.45,1.45,0,0,0,.43.93,1.49,1.49,0,0,0,1.67.12,1.31,1.31,0,0,0,.46-.57,2.26,2.26,0,0,0,.15-.87,1.92,1.92,0,0,0-.16-.81,1.34,1.34,0,0,0-.48-.57,1.42,1.42,0,0,0-.78-.21,1.52,1.52,0,0,0-.69.12,2,2,0,0,0-.48.34Z"/><path class="cls-9" d="M175.39,367.89l.24,1-.66.33-2-5.43h1Zm1.18-4.14h1l-2.13,6.15c0,.13-.12.27-.2.43a2.38,2.38,0,0,1-.3.43,1.67,1.67,0,0,1-.45.34,1.39,1.39,0,0,1-.63.13.62.62,0,0,1-.18,0l-.2,0-.14,0v-.73h.24a1.22,1.22,0,0,0,.73-.19,1.41,1.41,0,0,0,.42-.69l.38-1Z"/><path class="cls-9" d="M179.29,369.08h-.92v-5.33h.89l0,.84Zm1.66-4.52-.22,0h-.23a1.41,1.41,0,0,0-.71.17,1.2,1.2,0,0,0-.44.48,1.85,1.85,0,0,0-.2.69l-.26.15a4,4,0,0,1,.17-1.18,1.89,1.89,0,0,1,.54-.86,1.39,1.39,0,0,1,.94-.32l.23,0,.18.05Z"/><path class="cls-9" d="M184.89,367.66a.74.74,0,0,0-.09-.36.72.72,0,0,0-.35-.31,2.62,2.62,0,0,0-.79-.25,5.62,5.62,0,0,1-1-.31,1.7,1.7,0,0,1-.66-.49,1.13,1.13,0,0,1-.24-.73,1.37,1.37,0,0,1,.25-.78,1.79,1.79,0,0,1,.69-.57,2.69,2.69,0,0,1,2.13,0,1.6,1.6,0,0,1,.7.6,1.52,1.52,0,0,1,.24.83h-.92a.84.84,0,0,0-.29-.62,1.07,1.07,0,0,0-.82-.3,1.35,1.35,0,0,0-.61.12.71.71,0,0,0-.34.29.75.75,0,0,0-.1.38.64.64,0,0,0,.09.34.86.86,0,0,0,.37.26,4.6,4.6,0,0,0,.76.22,4.85,4.85,0,0,1,1.08.36,1.64,1.64,0,0,1,.63.51,1.23,1.23,0,0,1,.21.73,1.38,1.38,0,0,1-.26.82,1.71,1.71,0,0,1-.72.56,2.79,2.79,0,0,1-1.09.2,2.68,2.68,0,0,1-1.19-.25,2,2,0,0,1-.74-.65,1.64,1.64,0,0,1-.25-.84h.92a1,1,0,0,0,.22.59,1,1,0,0,0,.48.31,1.62,1.62,0,0,0,.56.1,1.89,1.89,0,0,0,.63-.1.89.89,0,0,0,.39-.28A.71.71,0,0,0,184.89,367.66Z"/><path class="cls-9" d="M189.1,366.22a6.91,6.91,0,0,1-.25,1.94,6.43,6.43,0,0,1-.61,1.52,5.38,5.38,0,0,1-.79,1.09,3.54,3.54,0,0,1-.77.62l-.19-.54a3.55,3.55,0,0,0,.59-.62,5.26,5.26,0,0,0,.54-1,6.42,6.42,0,0,0,.41-1.34,8.6,8.6,0,0,0,.15-1.68v-.08a8,8,0,0,0-.16-1.69,7,7,0,0,0-.42-1.33,6.23,6.23,0,0,0-.55-1,3.42,3.42,0,0,0-.56-.61l.19-.55a3,3,0,0,1,.77.62,5.38,5.38,0,0,1,.79,1.09,6.69,6.69,0,0,1,.61,1.53,6.81,6.81,0,0,1,.25,1.94Z"/></svg>