<svg id="Layer_1" data-name="Layer 1" xmlns="http://www.w3.org/2000/svg" viewBox="0 0 309 410"><defs><style>.cls-1{fill:#fff;}.cls-2{fill:#1c272d;}.cls-3{fill:#f6f8fc;stroke:#dce0e8;stroke-miterlimit:10;}.cls-4{fill:#1d212a;}.cls-5{fill:#00dcc4;}.cls-5,.cls-6{opacity:0.15;}.cls-10,.cls-6{fill:#1d67e1;}.cls-7{fill:#a5aab5;}.cls-8{fill:#616774;}.cls-9{fill:#00bce0;}</style></defs><rect class="cls-1" width="309" height="410"/><path class="cls-2" d="M32.58,98.25H30.46l4.28-11.37h1.35L36,88.49Zm6-2.6h-6.2V94h6.2Zm-3.25-7.16-.15-1.61h1.35l4.3,11.37H38.75Z"/><path class="cls-2" d="M44,98.25H42.07v-12H44Z"/><path class="cls-2" d="M48.11,98.25H46.17v-12h1.94Z"/><path class="cls-2" d="M53.77,94a5.83,5.83,0,0,1,.41-2.25,3.56,3.56,0,0,1,1.14-1.52,3,3,0,0,1,1.78-.54,2.72,2.72,0,0,1,1.71.53,3.65,3.65,0,0,1,1.09,1.48,7.84,7.84,0,0,1,.52,2.18v.45a7.73,7.73,0,0,1-.52,2.13,3.57,3.57,0,0,1-1.08,1.47,2.78,2.78,0,0,1-1.73.53,2.88,2.88,0,0,1-1.77-.56,3.59,3.59,0,0,1-1.14-1.53,5.64,5.64,0,0,1-.41-2.2Zm1.94.17a4.47,4.47,0,0,0,.19,1.36,2,2,0,0,0,.6,1,1.57,1.57,0,0,0,1.08.36,1.77,1.77,0,0,0,1-.28,1.74,1.74,0,0,0,.64-.75,3.61,3.61,0,0,0,.32-1.07V93.4a4,4,0,0,0-.2-.87,2.31,2.31,0,0,0-.38-.69,1.57,1.57,0,0,0-.59-.45,1.88,1.88,0,0,0-.82-.16,1.63,1.63,0,0,0-1.09.36,2.07,2.07,0,0,0-.6,1A4.65,4.65,0,0,0,55.71,94Zm3.55-7.87H61.2v12H59.44l-.18-1.77Z"/><path class="cls-2" d="M66.9,98.41a4.09,4.09,0,0,1-2.17-.55,3.73,3.73,0,0,1-1.41-1.46,4.34,4.34,0,0,1-.49-2.08V94a5,5,0,0,1,.5-2.3,3.74,3.74,0,0,1,1.37-1.52,4,4,0,0,1,4,0,3.27,3.27,0,0,1,1.2,1.46,5.55,5.55,0,0,1,.4,2.16v.84H63.76v-1.4h4.62v-.15a2.74,2.74,0,0,0-.18-.92,1.58,1.58,0,0,0-.55-.7,1.62,1.62,0,0,0-1-.26,1.56,1.56,0,0,0-1,.34,2,2,0,0,0-.64,1A4.39,4.39,0,0,0,64.77,94v.32A3.13,3.13,0,0,0,65,95.61a2.1,2.1,0,0,0,2,1.23,2.5,2.5,0,0,0,2.11-1l1,1A3.89,3.89,0,0,1,69,97.92,3.94,3.94,0,0,1,66.9,98.41Z"/><path class="cls-2" d="M73.68,101.5H71.74V89.8h1.79l.15,1.62Zm5.48-7.4a6.1,6.1,0,0,1-.37,2.21,3.54,3.54,0,0,1-1.11,1.53,2.84,2.84,0,0,1-1.79.57,2.91,2.91,0,0,1-1.76-.52A3.41,3.41,0,0,1,73,96.45a7.81,7.81,0,0,1-.54-2.08v-.56A8.18,8.18,0,0,1,73,91.63a3.41,3.41,0,0,1,1.09-1.46,2.79,2.79,0,0,1,1.74-.53,3,3,0,0,1,1.8.54,3.36,3.36,0,0,1,1.12,1.51,6.17,6.17,0,0,1,.37,2.25Zm-1.93-.16A4.9,4.9,0,0,0,77,92.56a2.13,2.13,0,0,0-.61-1,1.63,1.63,0,0,0-1.09-.36,2,2,0,0,0-.84.16,1.53,1.53,0,0,0-.59.45,2.12,2.12,0,0,0-.37.68,4.34,4.34,0,0,0-.19.86V94.8a4.12,4.12,0,0,0,.31,1,1.73,1.73,0,0,0,1.69,1,1.53,1.53,0,0,0,1.09-.38,2.22,2.22,0,0,0,.6-1,4.88,4.88,0,0,0,.19-1.37Z"/><path class="cls-2" d="M80.38,94a5.05,5.05,0,0,1,.47-2.21,3.7,3.7,0,0,1,1.35-1.53,3.8,3.8,0,0,1,2.11-.57,3.86,3.86,0,0,1,2.14.57,3.75,3.75,0,0,1,1.34,1.53A5.05,5.05,0,0,1,88.26,94v.16a5,5,0,0,1-.47,2.2,3.56,3.56,0,0,1-1.34,1.53,4.25,4.25,0,0,1-4.25,0,3.59,3.59,0,0,1-1.35-1.53,5,5,0,0,1-.47-2.2Zm1.94.16a4.24,4.24,0,0,0,.21,1.37,2.21,2.21,0,0,0,.65,1,2,2,0,0,0,2.29,0,2.12,2.12,0,0,0,.64-1,4.24,4.24,0,0,0,.21-1.37V94a4.28,4.28,0,0,0-.21-1.37,2.14,2.14,0,0,0-.65-1,1.73,1.73,0,0,0-1.15-.37,1.67,1.67,0,0,0-1.13.37,2.21,2.21,0,0,0-.65,1A4.28,4.28,0,0,0,82.32,94Z"/><path class="cls-2" d="M94.55,96a.93.93,0,0,0-.14-.49,1.24,1.24,0,0,0-.53-.4,5.21,5.21,0,0,0-1.14-.35,7.25,7.25,0,0,1-1.59-.5,2.85,2.85,0,0,1-1.06-.8,1.94,1.94,0,0,1-.38-1.21,2.2,2.2,0,0,1,.4-1.27A2.77,2.77,0,0,1,91.24,90,3.93,3.93,0,0,1,93,89.64a4.25,4.25,0,0,1,1.82.36A2.7,2.7,0,0,1,96,91a2.4,2.4,0,0,1,.41,1.37H94.46a1.21,1.21,0,0,0-.37-.88A1.51,1.51,0,0,0,93,91.07a1.73,1.73,0,0,0-.77.15,1.11,1.11,0,0,0-.46.38,1,1,0,0,0-.16.52.76.76,0,0,0,.16.47,1.13,1.13,0,0,0,.52.36,5.16,5.16,0,0,0,1,.3,9.35,9.35,0,0,1,1.68.51,2.85,2.85,0,0,1,1.08.81,2.11,2.11,0,0,1,.38,1.28A2.17,2.17,0,0,1,96,97.17a2.74,2.74,0,0,1-1.2.91,4.54,4.54,0,0,1-1.81.33,4.15,4.15,0,0,1-2-.42,3,3,0,0,1-1.21-1.06,2.47,2.47,0,0,1-.41-1.34H91.3a1.33,1.33,0,0,0,.28.81,1.5,1.5,0,0,0,.64.44A2.46,2.46,0,0,0,93,97a2.21,2.21,0,0,0,.83-.14,1.1,1.1,0,0,0,.51-.36A.83.83,0,0,0,94.55,96Z"/><path class="cls-2" d="M98.07,87.59a1,1,0,0,1,.29-.74,1.05,1.05,0,0,1,.8-.29,1.1,1.1,0,0,1,.82.29,1.08,1.08,0,0,1,0,1.47,1.14,1.14,0,0,1-.82.29,1.09,1.09,0,0,1-.8-.29A1,1,0,0,1,98.07,87.59Zm2.06,10.66H98.2V89.8h1.93Z"/><path class="cls-2" d="M106.09,91.23h-4.8V89.8h4.8Zm-1.5-3.5v8.14a1.19,1.19,0,0,0,.11.59.55.55,0,0,0,.31.27,1.61,1.61,0,0,0,.47.07,2.22,2.22,0,0,0,.37,0l.29,0v1.49a3.3,3.3,0,0,1-.54.13,3.88,3.88,0,0,1-.72.06,2.67,2.67,0,0,1-1.16-.24,1.7,1.7,0,0,1-.79-.76,3,3,0,0,1-.28-1.4V87.73Z"/><path class="cls-2" d="M112.23,96a.93.93,0,0,0-.14-.49,1.24,1.24,0,0,0-.53-.4,5.15,5.15,0,0,0-1.15-.35,7.33,7.33,0,0,1-1.58-.5,2.85,2.85,0,0,1-1.06-.8,1.94,1.94,0,0,1-.38-1.21,2.2,2.2,0,0,1,.4-1.27,2.77,2.77,0,0,1,1.13-.93,3.92,3.92,0,0,1,1.74-.36,4.27,4.27,0,0,1,1.83.36,2.7,2.7,0,0,1,1.18,1,2.4,2.4,0,0,1,.41,1.37h-1.94a1.21,1.21,0,0,0-.37-.88,1.51,1.51,0,0,0-1.11-.38,1.73,1.73,0,0,0-.77.15,1.11,1.11,0,0,0-.46.38.89.89,0,0,0-.16.52.71.71,0,0,0,.16.47A1.13,1.13,0,0,0,110,93a5.16,5.16,0,0,0,1,.3,9,9,0,0,1,1.67.51,2.81,2.81,0,0,1,1.09.81,2.11,2.11,0,0,1,.38,1.28,2.17,2.17,0,0,1-.43,1.32,2.74,2.74,0,0,1-1.2.91,4.54,4.54,0,0,1-1.81.33,4.15,4.15,0,0,1-2-.42,3,3,0,0,1-1.21-1.06,2.47,2.47,0,0,1-.41-1.34H109a1.33,1.33,0,0,0,.28.81,1.5,1.5,0,0,0,.64.44,2.46,2.46,0,0,0,.81.14,2.21,2.21,0,0,0,.83-.14,1.1,1.1,0,0,0,.51-.36A.83.83,0,0,0,112.23,96Z"/><path class="cls-2" d="M124.77,94.3h-1.33a2.55,2.55,0,0,0-1.55.38,1.18,1.18,0,0,0-.52,1,1.12,1.12,0,0,0,.34.84,1.34,1.34,0,0,0,1,.33,2.14,2.14,0,0,0,1-.23,2.07,2.07,0,0,0,.66-.57,1.09,1.09,0,0,0,.25-.64l.62.87a3.08,3.08,0,0,1-.31.68,3.39,3.39,0,0,1-.59.69,3.2,3.2,0,0,1-.86.53,2.91,2.91,0,0,1-1.15.21,3.22,3.22,0,0,1-1.48-.33,2.62,2.62,0,0,1-1-.9,2.35,2.35,0,0,1-.37-1.3,2.39,2.39,0,0,1,1-2.06,4.85,4.85,0,0,1,2.86-.72h1.45Zm-.3-1.76a1.49,1.49,0,0,0-.36-1.05,1.45,1.45,0,0,0-1.1-.39,1.86,1.86,0,0,0-.77.15,1.29,1.29,0,0,0-.5.41,1,1,0,0,0-.18.59h-1.94a2.14,2.14,0,0,1,.43-1.28,2.94,2.94,0,0,1,1.21-1,4.74,4.74,0,0,1,3.55-.05,2.6,2.6,0,0,1,1.17,1,2.85,2.85,0,0,1,.43,1.63v3.72a6.41,6.41,0,0,0,.08,1,3.33,3.33,0,0,0,.25.79v.13h-2a3.19,3.19,0,0,1-.21-.79,6.13,6.13,0,0,1-.07-.94Z"/><path class="cls-2" d="M130.27,98.25h-1.93V89.8h1.82l.11,1.8Zm-1-4.52a5,5,0,0,1,.43-2.15,3.4,3.4,0,0,1,1.17-1.43,3.12,3.12,0,0,1,1.77-.51,3,3,0,0,1,1.42.31,2.13,2.13,0,0,1,.94,1,4.35,4.35,0,0,1,.34,1.86v5.44h-1.95V92.79a2.18,2.18,0,0,0-.17-.93,1,1,0,0,0-.5-.49,2,2,0,0,0-.81-.14,1.78,1.78,0,0,0-1.48.72,2.41,2.41,0,0,0-.4.8,3.39,3.39,0,0,0-.14,1Z"/><path class="cls-2" d="M136.92,94a6,6,0,0,1,.4-2.25,3.5,3.5,0,0,1,1.15-1.52,2.94,2.94,0,0,1,1.78-.54,2.74,2.74,0,0,1,1.71.53A3.54,3.54,0,0,1,143,91.65a7.49,7.49,0,0,1,.53,2.18v.45a7.73,7.73,0,0,1-.52,2.13A3.57,3.57,0,0,1,142,97.88a2.8,2.8,0,0,1-1.73.53,2.86,2.86,0,0,1-1.77-.56,3.53,3.53,0,0,1-1.15-1.53,5.83,5.83,0,0,1-.4-2.2Zm1.94.17a4.47,4.47,0,0,0,.19,1.36,2,2,0,0,0,.6,1,1.57,1.57,0,0,0,1.08.36,1.77,1.77,0,0,0,1-.28,1.81,1.81,0,0,0,.64-.75,3.93,3.93,0,0,0,.32-1.07V93.4a4,4,0,0,0-.2-.87,2.31,2.31,0,0,0-.38-.69,1.66,1.66,0,0,0-.59-.45,1.88,1.88,0,0,0-.82-.16,1.61,1.61,0,0,0-1.09.36,2,2,0,0,0-.6,1,4.65,4.65,0,0,0-.19,1.38Zm3.55-7.87h1.93v12h-1.75l-.18-1.77Z"/><path class="cls-2" d="M153,96.34l.1,1.91h-1.22l-2.28-8.45h1.89Zm1.53-6.54h1.23l-.33,2.06-2,6.39h-1.09l.2-1.93Zm3.36,6.45.23,2H157l-2-6.4-.32-2H156ZM159,89.8h1.88l-2.27,8.45h-1.23l.16-2Z"/><path class="cls-2" d="M162.15,87.59a1,1,0,0,1,.29-.74,1.05,1.05,0,0,1,.8-.29,1.1,1.1,0,0,1,.82.29,1.08,1.08,0,0,1,0,1.47,1.14,1.14,0,0,1-.82.29,1.09,1.09,0,0,1-.8-.29A1,1,0,0,1,162.15,87.59Zm2.06,10.66h-1.94V89.8h1.94Z"/><path class="cls-2" d="M170.16,91.23h-4.79V89.8h4.79Zm-1.5-3.5v8.14a1.32,1.32,0,0,0,.11.59.6.6,0,0,0,.32.27,1.61,1.61,0,0,0,.47.07,2.22,2.22,0,0,0,.37,0l.29,0v1.49a3.57,3.57,0,0,1-.54.13,3.91,3.91,0,0,1-.73.06,2.66,2.66,0,0,1-1.15-.24,1.7,1.7,0,0,1-.79-.76,3,3,0,0,1-.28-1.4V87.73Z"/><path class="cls-2" d="M173.49,98.25h-1.93v-12h1.93Zm-1-4.52a5.31,5.31,0,0,1,.42-2.1,3.51,3.51,0,0,1,1.15-1.46,3,3,0,0,1,1.74-.53,3.16,3.16,0,0,1,1.45.32,2.16,2.16,0,0,1,1,1,4.28,4.28,0,0,1,.34,1.87v5.41h-1.94V92.82a2.22,2.22,0,0,0-.17-.94,1,1,0,0,0-.51-.5,2,2,0,0,0-.81-.15,1.86,1.86,0,0,0-.87.19,1.91,1.91,0,0,0-.64.53,2.37,2.37,0,0,0-.38.8,3.79,3.79,0,0,0-.12,1Z"/><path class="cls-2" d="M180.13,94a5.83,5.83,0,0,1,.41-2.25,3.48,3.48,0,0,1,1.14-1.52,3,3,0,0,1,1.78-.54,2.74,2.74,0,0,1,1.71.53,3.54,3.54,0,0,1,1.08,1.48,7.49,7.49,0,0,1,.53,2.18v.45a7.73,7.73,0,0,1-.52,2.13,3.57,3.57,0,0,1-1.08,1.47,2.78,2.78,0,0,1-1.73.53,2.88,2.88,0,0,1-1.77-.56,3.51,3.51,0,0,1-1.14-1.53,5.64,5.64,0,0,1-.41-2.2Zm1.94.17a4.47,4.47,0,0,0,.19,1.36,2,2,0,0,0,.6,1,1.57,1.57,0,0,0,1.08.36,1.77,1.77,0,0,0,1-.28,1.81,1.81,0,0,0,.64-.75,3.61,3.61,0,0,0,.32-1.07V93.4a4,4,0,0,0-.2-.87,2.31,2.31,0,0,0-.38-.69,1.66,1.66,0,0,0-.59-.45,1.88,1.88,0,0,0-.82-.16,1.63,1.63,0,0,0-1.09.36,2.07,2.07,0,0,0-.6,1,4.65,4.65,0,0,0-.19,1.38Zm3.55-7.87h1.94v12H185.8l-.18-1.77Z"/><path class="cls-2" d="M191.45,98.25h-1.93V89.8h1.84l.09,1.65ZM194,91.58l-.38,0h-.39a2.17,2.17,0,0,0-1.07.23,1.49,1.49,0,0,0-.64.65,2.43,2.43,0,0,0-.26,1h-.45a6.35,6.35,0,0,1,.28-1.92,3,3,0,0,1,.85-1.35,2,2,0,0,1,1.4-.5l.37,0a2.13,2.13,0,0,1,.31.07Z"/><path class="cls-2" d="M200.09,94.3h-1.32a2.55,2.55,0,0,0-1.55.38,1.18,1.18,0,0,0-.52,1,1.12,1.12,0,0,0,.34.84,1.34,1.34,0,0,0,1,.33,2.07,2.07,0,0,0,1-.23,2,2,0,0,0,.67-.57,1.16,1.16,0,0,0,.25-.64l.62.87a2.74,2.74,0,0,1-.32.68,3.32,3.32,0,0,1-.58.69,3.2,3.2,0,0,1-.86.53,3,3,0,0,1-1.15.21,3.19,3.19,0,0,1-1.48-.33,2.62,2.62,0,0,1-1-.9,2.56,2.56,0,0,1,.64-3.36,4.85,4.85,0,0,1,2.86-.72h1.45Zm-.29-1.76a1.45,1.45,0,0,0-.37-1.05,1.41,1.41,0,0,0-1.09-.39,1.82,1.82,0,0,0-.77.15,1.32,1.32,0,0,0-.51.41,1,1,0,0,0-.18.59H195a2.14,2.14,0,0,1,.43-1.28,2.94,2.94,0,0,1,1.21-1,4.74,4.74,0,0,1,3.55-.05,2.6,2.6,0,0,1,1.17,1,2.93,2.93,0,0,1,.43,1.63v3.72a5.47,5.47,0,0,0,.08,1,3.88,3.88,0,0,0,.24.79v.13h-2a3.19,3.19,0,0,1-.21-.79,6.13,6.13,0,0,1-.07-.94Z"/><path class="cls-2" d="M206.4,96.34l.1,1.91h-1.23L203,89.8h1.89Zm1.52-6.54h1.24l-.33,2.06-2,6.39h-1.1l.21-1.93Zm3.37,6.45.23,2h-1.11l-2-6.4-.32-2h1.26Zm1.12-6.45h1.88L212,98.25h-1.23l.16-2Z"/><path class="cls-2" d="M220.59,94.3h-1.32a2.55,2.55,0,0,0-1.55.38,1.18,1.18,0,0,0-.52,1,1.12,1.12,0,0,0,.34.84,1.34,1.34,0,0,0,1,.33,2.07,2.07,0,0,0,1-.23,2,2,0,0,0,.67-.57,1.16,1.16,0,0,0,.25-.64l.62.87a2.74,2.74,0,0,1-.32.68,3.32,3.32,0,0,1-.58.69,3.2,3.2,0,0,1-.86.53,3,3,0,0,1-1.15.21,3.19,3.19,0,0,1-1.48-.33,2.62,2.62,0,0,1-1-.9,2.56,2.56,0,0,1,.64-3.36,4.85,4.85,0,0,1,2.86-.72h1.45Zm-.29-1.76a1.45,1.45,0,0,0-.37-1.05,1.41,1.41,0,0,0-1.09-.39,1.82,1.82,0,0,0-.77.15,1.32,1.32,0,0,0-.51.41,1,1,0,0,0-.18.59h-1.93a2.14,2.14,0,0,1,.43-1.28,2.94,2.94,0,0,1,1.21-1,4.74,4.74,0,0,1,3.55-.05,2.6,2.6,0,0,1,1.17,1,2.93,2.93,0,0,1,.43,1.63v3.72a5.47,5.47,0,0,0,.08,1,3.88,3.88,0,0,0,.24.79v.13h-2a3.19,3.19,0,0,1-.21-.79,6.13,6.13,0,0,1-.07-.94Z"/><path class="cls-2" d="M226.25,98.25h-1.94v-12h1.94Z"/><path class="cls-2" d="M233,96a.93.93,0,0,0-.14-.49,1.18,1.18,0,0,0-.53-.4,5.21,5.21,0,0,0-1.14-.35,7.25,7.25,0,0,1-1.59-.5,2.85,2.85,0,0,1-1.06-.8,1.94,1.94,0,0,1-.38-1.21,2.2,2.2,0,0,1,.4-1.27A2.77,2.77,0,0,1,229.7,90a3.93,3.93,0,0,1,1.75-.36,4.25,4.25,0,0,1,1.82.36,2.7,2.7,0,0,1,1.18,1,2.4,2.4,0,0,1,.41,1.37h-1.94a1.21,1.21,0,0,0-.37-.88,1.51,1.51,0,0,0-1.11-.38,1.73,1.73,0,0,0-.77.15,1.11,1.11,0,0,0-.46.38,1,1,0,0,0-.15.52.75.75,0,0,0,.15.47,1.13,1.13,0,0,0,.52.36,5.37,5.37,0,0,0,1,.3,9.35,9.35,0,0,1,1.68.51,2.77,2.77,0,0,1,1.08.81,2.29,2.29,0,0,1-.05,2.6,2.77,2.77,0,0,1-1.19.91,4.62,4.62,0,0,1-1.82.33,4.15,4.15,0,0,1-2-.42,3,3,0,0,1-1.21-1.06,2.47,2.47,0,0,1-.41-1.34h1.87a1.33,1.33,0,0,0,.28.81,1.5,1.5,0,0,0,.64.44,2.46,2.46,0,0,0,.81.14,2.17,2.17,0,0,0,.83-.14,1,1,0,0,0,.51-.36A.83.83,0,0,0,233,96Z"/><path class="cls-2" d="M245.55,94.3h-1.33a2.57,2.57,0,0,0-1.55.38,1.18,1.18,0,0,0-.52,1,1.12,1.12,0,0,0,.34.84,1.34,1.34,0,0,0,1,.33,2.14,2.14,0,0,0,1-.23,2.22,2.22,0,0,0,.67-.57,1.24,1.24,0,0,0,.25-.64l.61.87a3.08,3.08,0,0,1-.31.68,3.39,3.39,0,0,1-.59.69,3.2,3.2,0,0,1-.86.53,2.91,2.91,0,0,1-1.15.21,3.22,3.22,0,0,1-1.48-.33,2.62,2.62,0,0,1-1-.9,2.43,2.43,0,0,1-.37-1.3,2.39,2.39,0,0,1,1-2.06,4.85,4.85,0,0,1,2.86-.72h1.45Zm-.3-1.76a1.49,1.49,0,0,0-.36-1.05,1.43,1.43,0,0,0-1.1-.39,1.86,1.86,0,0,0-.77.15,1.36,1.36,0,0,0-.5.41,1,1,0,0,0-.18.59H240.4a2.14,2.14,0,0,1,.43-1.28A2.94,2.94,0,0,1,242,90a4.74,4.74,0,0,1,3.55-.05,2.6,2.6,0,0,1,1.17,1,2.85,2.85,0,0,1,.43,1.63v3.72a6.41,6.41,0,0,0,.08,1,3.33,3.33,0,0,0,.25.79v.13h-2a3.19,3.19,0,0,1-.21-.79,7.72,7.72,0,0,1-.07-.94Z"/><path class="cls-2" d="M251.08,98.25h-1.94V89.8H251l.09,1.65Zm2.55-6.67-.38,0h-.4a2.13,2.13,0,0,0-1.06.23,1.51,1.51,0,0,0-.65.65,2.78,2.78,0,0,0-.26,1h-.44a6.06,6.06,0,0,1,.28-1.92,3.12,3.12,0,0,1,.84-1.35,2.08,2.08,0,0,1,1.41-.5l.37,0a2.28,2.28,0,0,1,.3.07Z"/><path class="cls-2" d="M258.56,98.41a4.13,4.13,0,0,1-2.18-.55A3.71,3.71,0,0,1,255,96.4a4.34,4.34,0,0,1-.49-2.08V94a4.91,4.91,0,0,1,.5-2.3,3.74,3.74,0,0,1,1.37-1.52,4,4,0,0,1,4,0,3.22,3.22,0,0,1,1.21,1.46,5.55,5.55,0,0,1,.39,2.16v.84h-6.54v-1.4H260v-.15a2.52,2.52,0,0,0-.19-.92,1.5,1.5,0,0,0-.54-.7,1.66,1.66,0,0,0-1-.26,1.59,1.59,0,0,0-1,.34,2.18,2.18,0,0,0-.64,1,4.66,4.66,0,0,0-.22,1.48v.32a3,3,0,0,0,.27,1.29,2,2,0,0,0,.77.9,2.17,2.17,0,0,0,1.21.33,2.6,2.6,0,0,0,1.21-.26,2.66,2.66,0,0,0,.91-.77l1,1a3.89,3.89,0,0,1-1.2,1.09A4,4,0,0,1,258.56,98.41Z"/><path class="cls-2" d="M35.62,110.43h-5V109h5Zm-3.67,7v-9.26a2.82,2.82,0,0,1,.8-2.15,3.05,3.05,0,0,1,2.18-.75,3.52,3.52,0,0,1,.56,0,4.94,4.94,0,0,1,.53.1L36,106.94l-.34,0-.39,0a1.35,1.35,0,0,0-1,.34,1.28,1.28,0,0,0-.36,1v9.26Z"/><path class="cls-2" d="M38.9,117.45H37V109h1.85l.09,1.65Zm2.55-6.67-.38,0h-.4a2.13,2.13,0,0,0-1.06.23,1.51,1.51,0,0,0-.65.65,2.78,2.78,0,0,0-.26,1h-.44a6.06,6.06,0,0,1,.28-1.92,3.12,3.12,0,0,1,.84-1.35,2.08,2.08,0,0,1,1.41-.5l.37,0a2.28,2.28,0,0,1,.3.07Z"/><path class="cls-2" d="M46.38,117.61a4.13,4.13,0,0,1-2.18-.55,3.71,3.71,0,0,1-1.4-1.46,4.34,4.34,0,0,1-.49-2.08v-.32a4.91,4.91,0,0,1,.5-2.3,3.74,3.74,0,0,1,1.37-1.52,4,4,0,0,1,4,0,3.22,3.22,0,0,1,1.21,1.46,5.55,5.55,0,0,1,.39,2.16v.84H43.24v-1.4h4.62v-.15a2.52,2.52,0,0,0-.19-.92,1.5,1.5,0,0,0-.54-.7,1.66,1.66,0,0,0-1-.26,1.59,1.59,0,0,0-1,.34,2.24,2.24,0,0,0-.64,1,4.66,4.66,0,0,0-.22,1.48v.32a3,3,0,0,0,.27,1.29,2.11,2.11,0,0,0,.77.9,2.17,2.17,0,0,0,1.21.33,2.6,2.6,0,0,0,1.21-.26,2.57,2.57,0,0,0,.91-.77l1,1a3.89,3.89,0,0,1-1.2,1.09A4,4,0,0,1,46.38,117.61Z"/><path class="cls-2" d="M55,117.61a4.09,4.09,0,0,1-2.17-.55,3.73,3.73,0,0,1-1.41-1.46,4.46,4.46,0,0,1-.49-2.08v-.32a5,5,0,0,1,.5-2.3,3.74,3.74,0,0,1,1.37-1.52,3.68,3.68,0,0,1,2-.54,3.63,3.63,0,0,1,2,.53,3.2,3.2,0,0,1,1.2,1.46,5.37,5.37,0,0,1,.4,2.16v.84H51.82v-1.4h4.63v-.15a2.74,2.74,0,0,0-.19-.92,1.64,1.64,0,0,0-.54-.7,1.66,1.66,0,0,0-1-.26,1.59,1.59,0,0,0-1,.34,2.15,2.15,0,0,0-.64,1,4.39,4.39,0,0,0-.22,1.48v.32a3.13,3.13,0,0,0,.26,1.29,2.14,2.14,0,0,0,.78.9,2.17,2.17,0,0,0,1.21.33,2.5,2.5,0,0,0,2.12-1l1,1a3.67,3.67,0,0,1-1.2,1.09A3.94,3.94,0,0,1,55,117.61Z"/><path class="cls-2" d="M59.88,116.48a1.06,1.06,0,0,1,.3-.77,1.27,1.27,0,0,1,1.66,0,1.06,1.06,0,0,1,.3.77,1,1,0,0,1-.3.75,1.27,1.27,0,0,1-1.66,0A1,1,0,0,1,59.88,116.48Z"/><path class="cls-2" d="M70.46,117.45h-2V106.08h2Zm5.25-9.75H70v-1.62h5.75Zm-.65,5H70V111h5.1Z"/><path class="cls-2" d="M76.39,113.15a5.05,5.05,0,0,1,.47-2.21,3.7,3.7,0,0,1,1.35-1.53,3.78,3.78,0,0,1,2.11-.57,3.85,3.85,0,0,1,2.13.57,3.7,3.7,0,0,1,1.35,1.53,5.05,5.05,0,0,1,.47,2.21v.16a5,5,0,0,1-.47,2.2A3.63,3.63,0,0,1,82.46,117a4.25,4.25,0,0,1-4.25,0,3.59,3.59,0,0,1-1.35-1.53,5,5,0,0,1-.47-2.2Zm1.94.16a4.24,4.24,0,0,0,.21,1.37,2.21,2.21,0,0,0,.65,1,1.73,1.73,0,0,0,1.15.37,1.67,1.67,0,0,0,1.13-.37,2.13,2.13,0,0,0,.65-1,4.24,4.24,0,0,0,.21-1.37v-.16a4.28,4.28,0,0,0-.21-1.37,2.21,2.21,0,0,0-.65-1,2,2,0,0,0-2.29,0,2.2,2.2,0,0,0-.64,1,4.28,4.28,0,0,0-.21,1.37Z"/><path class="cls-2" d="M87.77,117.45H85.84V109h1.84l.09,1.65Zm2.55-6.67-.38,0h-.39a2.17,2.17,0,0,0-1.07.23,1.49,1.49,0,0,0-.64.65,2.59,2.59,0,0,0-.26,1h-.45a6.35,6.35,0,0,1,.28-1.92,3,3,0,0,1,.85-1.35,2,2,0,0,1,1.4-.5l.37,0a2.13,2.13,0,0,1,.31.07Z"/><path class="cls-2" d="M95.25,117.61a4.09,4.09,0,0,1-2.17-.55,3.73,3.73,0,0,1-1.41-1.46,4.34,4.34,0,0,1-.49-2.08v-.32a5,5,0,0,1,.5-2.3,3.74,3.74,0,0,1,1.37-1.52,4,4,0,0,1,4,0,3.2,3.2,0,0,1,1.2,1.46,5.37,5.37,0,0,1,.4,2.16v.84H92.11v-1.4h4.63v-.15a3,3,0,0,0-.19-.92,1.58,1.58,0,0,0-.55-.7,1.6,1.6,0,0,0-1-.26,1.59,1.59,0,0,0-1,.34,2.15,2.15,0,0,0-.64,1,4.39,4.39,0,0,0-.22,1.48v.32a3.13,3.13,0,0,0,.26,1.29,2.14,2.14,0,0,0,.78.9,2.17,2.17,0,0,0,1.21.33,2.54,2.54,0,0,0,2.12-1l1,1a3.67,3.67,0,0,1-1.2,1.09A3.94,3.94,0,0,1,95.25,117.61Z"/><path class="cls-2" d="M103.28,115.94l.1,1.51h-1.25L99.19,109h2Zm1.49-6.94h2l-2.92,8.45h-1.25l.13-1.53Z"/><path class="cls-2" d="M111.68,117.61a4.09,4.09,0,0,1-2.17-.55,3.73,3.73,0,0,1-1.41-1.46,4.34,4.34,0,0,1-.49-2.08v-.32a5,5,0,0,1,.5-2.3,3.74,3.74,0,0,1,1.37-1.52,4,4,0,0,1,4,0,3.27,3.27,0,0,1,1.2,1.46,5.37,5.37,0,0,1,.4,2.16v.84h-6.54v-1.4h4.62v-.15a2.74,2.74,0,0,0-.18-.92,1.58,1.58,0,0,0-.55-.7,1.6,1.6,0,0,0-1-.26,1.57,1.57,0,0,0-1,.34,2.15,2.15,0,0,0-.64,1,4.39,4.39,0,0,0-.22,1.48v.32a3.13,3.13,0,0,0,.26,1.29,2.14,2.14,0,0,0,.78.9,2.17,2.17,0,0,0,1.21.33,2.58,2.58,0,0,0,1.2-.26,2.49,2.49,0,0,0,.91-.77l1,1a3.78,3.78,0,0,1-1.2,1.09A3.94,3.94,0,0,1,111.68,117.61Z"/><path class="cls-2" d="M118.46,117.45h-1.94V109h1.85l.09,1.65Zm2.55-6.67-.38,0h-.39a2.15,2.15,0,0,0-1.07.23,1.51,1.51,0,0,0-.65.65,2.59,2.59,0,0,0-.25,1h-.45a6.06,6.06,0,0,1,.28-1.92,3,3,0,0,1,.85-1.35,2,2,0,0,1,1.4-.5l.37,0a1.68,1.68,0,0,1,.3.07Z"/><path class="cls-2" d="M121.05,116.48a1.06,1.06,0,0,1,.3-.77,1.25,1.25,0,0,1,1.65,0,1.07,1.07,0,0,1,.31.77,1,1,0,0,1-.31.75,1.25,1.25,0,0,1-1.65,0A1,1,0,0,1,121.05,116.48Z"/><line class="cls-3" x1="20" y1="67.75" x2="290" y2="67.75"/><line class="cls-3" x1="20" y1="138.75" x2="290" y2="138.75"/><line class="cls-3" x1="20" y1="237.25" x2="290" y2="237.25"/><line class="cls-3" x1="20" y1="321.82" x2="290" y2="321.82"/><path class="cls-2" d="M62.92,29.53l-1.59-.65v-.46H68.1v.46l-1.81.63,4.58,6.55-.78,0,3.74-6.52-1.74-.63v-.46h4.8v.46l-1.59.63-4.38,7.15v5.42l1.64.62v.46H66.45V42.7l1.64-.62V36.7Z"/><path class="cls-2" d="M80,43.42a5.34,5.34,0,0,1-2.62-.61,4.29,4.29,0,0,1-1.71-1.72,5.09,5.09,0,0,1-.61-2.53,5.4,5.4,0,0,1,.65-2.66,4.74,4.74,0,0,1,1.79-1.82,5.15,5.15,0,0,1,2.62-.66,5.35,5.35,0,0,1,2.63.62,4.35,4.35,0,0,1,1.72,1.71,5.22,5.22,0,0,1,.6,2.55,5.32,5.32,0,0,1-.65,2.64,4.77,4.77,0,0,1-1.8,1.82A5.13,5.13,0,0,1,80,43.42Zm.12-1a1.92,1.92,0,0,0,1.15-.36,2.37,2.37,0,0,0,.79-1.14,6.23,6.23,0,0,0,.28-2.07,8.79,8.79,0,0,0-.28-2.42,3.21,3.21,0,0,0-.8-1.47,1.73,1.73,0,0,0-1.26-.5,1.88,1.88,0,0,0-1.14.35,2.28,2.28,0,0,0-.79,1.14A6.25,6.25,0,0,0,77.78,38a9.15,9.15,0,0,0,.27,2.41,3.17,3.17,0,0,0,.81,1.48A1.77,1.77,0,0,0,80.11,42.41Z"/><path class="cls-2" d="M90,40a2.11,2.11,0,0,0,.15.88.93.93,0,0,0,.52.47,2.76,2.76,0,0,0,1,.14,3.61,3.61,0,0,0,1.23-.21,2,2,0,0,0,.86-.55l.44.48c-.43.45-.81.83-1.15,1.12a6.28,6.28,0,0,1-1,.7,3.5,3.5,0,0,1-.93.34,4.49,4.49,0,0,1-1,.1,2.39,2.39,0,0,1-2-.86A4.19,4.19,0,0,1,87.43,40V35L86,34.3v-.5l4.11-.3L90,34.9Zm3.66,3.41-.22-2.15V34.94l-1.31-.64v-.5l4-.3L96,34.94v6.48a3.48,3.48,0,0,0,.28.24,3.17,3.17,0,0,0,.36.23,2.32,2.32,0,0,0,.39.18,2,2,0,0,0,.39.14v.4L94,43.36Z"/><path class="cls-2" d="M102.24,35.58v6.56l1.59.59v.43H98.24v-.43l1.45-.56V35.93a1.85,1.85,0,0,0-.38-.36,5.26,5.26,0,0,0-.49-.3c-.19-.09-.4-.18-.62-.26v-.35l3.5-1.24H102Zm3.08-2.06a1.14,1.14,0,0,1,.94.35,1.28,1.28,0,0,1,.28.85,1.22,1.22,0,0,1-.43,1,1.5,1.5,0,0,1-1,.36,1.76,1.76,0,0,1-.64-.1l-.53-.18a1.57,1.57,0,0,0-.6-.1,2.37,2.37,0,0,0-.52.06,2.5,2.5,0,0,0-.52.19,2.46,2.46,0,0,0-.48.31l-.25-.5c.41-.38.78-.72,1.13-1a9.71,9.71,0,0,1,1-.7,4.28,4.28,0,0,1,.87-.42A2.46,2.46,0,0,1,105.32,33.52Z"/><path class="cls-2" d="M117.32,37.19l.1.9a12.74,12.74,0,0,0-1.69.5,4.23,4.23,0,0,0-1,.54,1.48,1.48,0,0,0-.49.59,1.65,1.65,0,0,0-.13.68,1.46,1.46,0,0,0,.35,1.06,1.21,1.21,0,0,0,.89.35,1.37,1.37,0,0,0,.74-.22,1.46,1.46,0,0,0,.53-.57,1.54,1.54,0,0,0,.19-.77v-4.1a1.6,1.6,0,0,0-.36-1.1,1.53,1.53,0,0,0-1.2-.42,3,3,0,0,0-.7.09,3.38,3.38,0,0,0-.7.23l.45-.67c0,.35-.09.64-.14.89a4.22,4.22,0,0,1-.16.6,1,1,0,0,1-.22.37,1.21,1.21,0,0,1-.47.31,1.67,1.67,0,0,1-.62.12,1.09,1.09,0,0,1-.67-.18.54.54,0,0,1-.24-.47,1.29,1.29,0,0,1,.39-.85,3.65,3.65,0,0,1,1-.79,6.55,6.55,0,0,1,1.45-.58,6.15,6.15,0,0,1,1.66-.22,4,4,0,0,1,1.82.35,2.09,2.09,0,0,1,1,1,3.87,3.87,0,0,1,.28,1.51v4.84a1.17,1.17,0,0,0,.08.49.64.64,0,0,0,.26.3.72.72,0,0,0,.4.1,1.73,1.73,0,0,0,.49-.08,2.87,2.87,0,0,0,.54-.25v.63a4.58,4.58,0,0,1-1.14.77,2.77,2.77,0,0,1-1.13.27,2,2,0,0,1-1.1-.27,1.62,1.62,0,0,1-.65-.76,3,3,0,0,1-.22-1.14l.09-.05a3.34,3.34,0,0,1-.59,1.21,2.59,2.59,0,0,1-1,.76,2.7,2.7,0,0,1-1.2.26,2.8,2.8,0,0,1-1.89-.62,2.31,2.31,0,0,1-.73-1.85,2.41,2.41,0,0,1,.25-1.11,2.62,2.62,0,0,1,.87-.94,7.66,7.66,0,0,1,1.75-.87A25.4,25.4,0,0,1,117.32,37.19Z"/><path class="cls-2" d="M127.37,33.42a5,5,0,0,1,1.6.22,1.88,1.88,0,0,1,.88.55,1.1,1.1,0,0,1,.27.7,1.18,1.18,0,0,1-.17.62,1.1,1.1,0,0,1-.45.43,1.28,1.28,0,0,1-.63.15,1.39,1.39,0,0,1-.65-.16,2.66,2.66,0,0,1-.54-.39c-.17-.16-.33-.31-.48-.47a2.55,2.55,0,0,0-.48-.4,1.06,1.06,0,0,0-.54-.16,1.74,1.74,0,0,0-1,.32,2.19,2.19,0,0,0-.77,1,4.33,4.33,0,0,0-.29,1.7,5.45,5.45,0,0,0,.41,2.23,3.08,3.08,0,0,0,1.17,1.38,3.21,3.21,0,0,0,1.77.48,3.53,3.53,0,0,0,1.23-.22,4.19,4.19,0,0,0,1.14-.66l.36.44a7.82,7.82,0,0,1-1.28,1.29,4.64,4.64,0,0,1-1.32.75,4.66,4.66,0,0,1-3.77-.39,4.29,4.29,0,0,1-1.58-1.69,5.2,5.2,0,0,1-.56-2.42,5.56,5.56,0,0,1,.38-2A4.95,4.95,0,0,1,125,33.84,6.44,6.44,0,0,1,127.37,33.42Z"/><path class="cls-2" d="M136.94,33.42a5,5,0,0,1,1.6.22,1.83,1.83,0,0,1,.88.55,1.1,1.1,0,0,1,.27.7,1.18,1.18,0,0,1-.17.62,1.1,1.1,0,0,1-.45.43,1.28,1.28,0,0,1-.63.15,1.39,1.39,0,0,1-.65-.16,2.66,2.66,0,0,1-.54-.39c-.17-.16-.33-.31-.48-.47a2.55,2.55,0,0,0-.48-.4,1.06,1.06,0,0,0-.54-.16,1.74,1.74,0,0,0-1,.32,2.19,2.19,0,0,0-.77,1,4.33,4.33,0,0,0-.29,1.7,5.45,5.45,0,0,0,.41,2.23,3.08,3.08,0,0,0,1.17,1.38,3.21,3.21,0,0,0,1.77.48,3.53,3.53,0,0,0,1.23-.22,4.19,4.19,0,0,0,1.14-.66l.36.44a7.82,7.82,0,0,1-1.28,1.29,4.64,4.64,0,0,1-1.32.75,4.66,4.66,0,0,1-3.77-.39,4.29,4.29,0,0,1-1.58-1.69,5.2,5.2,0,0,1-.56-2.42,5.56,5.56,0,0,1,.38-2,4.95,4.95,0,0,1,2.88-2.81A6.44,6.44,0,0,1,136.94,33.42Z"/><path class="cls-2" d="M145.79,43.42a5.34,5.34,0,0,1-2.62-.61,4.29,4.29,0,0,1-1.71-1.72,5.09,5.09,0,0,1-.61-2.53,5.4,5.4,0,0,1,.65-2.66,4.74,4.74,0,0,1,1.79-1.82,5.18,5.18,0,0,1,2.62-.66,5.35,5.35,0,0,1,2.63.62,4.35,4.35,0,0,1,1.72,1.71,5.22,5.22,0,0,1,.6,2.55,5.32,5.32,0,0,1-.65,2.64,4.77,4.77,0,0,1-1.8,1.82A5.1,5.1,0,0,1,145.79,43.42Zm.12-1a1.92,1.92,0,0,0,1.15-.36,2.31,2.31,0,0,0,.79-1.14,6.23,6.23,0,0,0,.28-2.07,8.79,8.79,0,0,0-.28-2.42,3.12,3.12,0,0,0-.8-1.47,1.73,1.73,0,0,0-1.26-.5,1.92,1.92,0,0,0-1.14.35,2.27,2.27,0,0,0-.78,1.14,6.22,6.22,0,0,0-.29,2.08,8.71,8.71,0,0,0,.28,2.41,3.16,3.16,0,0,0,.8,1.48A1.77,1.77,0,0,0,145.91,42.41Z"/><path class="cls-2" d="M155.78,40a2.11,2.11,0,0,0,.15.88,1,1,0,0,0,.53.47,2.67,2.67,0,0,0,1,.14,3.61,3.61,0,0,0,1.23-.21,2,2,0,0,0,.86-.55l.44.48a14.53,14.53,0,0,1-1.15,1.12,5.85,5.85,0,0,1-1,.7,3.5,3.5,0,0,1-.93.34,4.43,4.43,0,0,1-1,.1,2.42,2.42,0,0,1-2-.86,4.19,4.19,0,0,1-.66-2.58V35l-1.44-.69v-.5l4.11-.3-.12,1.4Zm3.66,3.41-.22-2.15V34.94l-1.31-.64v-.5l4-.3-.16,1.44v6.48l.28.24a3.17,3.17,0,0,0,.36.23,2.76,2.76,0,0,0,.39.18,2,2,0,0,0,.39.14v.4l-3.44.75Z"/><path class="cls-2" d="M168,35.58v6.63l1.37.52v.43H164v-.43l1.45-.56V35.93a1.92,1.92,0,0,0-.56-.49A5,5,0,0,0,164,35v-.35l3.25-1.24h.32Zm2.49,7.15,1.35-.52V37a1.86,1.86,0,0,0-.19-.89,1.29,1.29,0,0,0-.61-.54,2.33,2.33,0,0,0-1-.19,3.63,3.63,0,0,0-1.34.24,2.33,2.33,0,0,0-.93.59l-.45-.42a13,13,0,0,1,1.22-1.18,5.91,5.91,0,0,1,1.05-.73,4.43,4.43,0,0,1,1-.37,5.19,5.19,0,0,1,1-.11,2.49,2.49,0,0,1,2.09.88,4.42,4.42,0,0,1,.69,2.73v5.14l1.47.56v.43h-5.38Z"/><path class="cls-2" d="M180.3,40.33a1.17,1.17,0,0,0,.44,1,2,2,0,0,0,1.25.34,4.78,4.78,0,0,0,.88-.09,7.17,7.17,0,0,0,1-.26v.61a13.75,13.75,0,0,1-1.31.86,5.78,5.78,0,0,1-1.09.48,3.41,3.41,0,0,1-.9.14,3.68,3.68,0,0,1-1.5-.29,2.23,2.23,0,0,1-1-.9,3,3,0,0,1-.35-1.52V35.48l-1.37-1v-.37c.2-.13.41-.26.62-.41l.68-.45c.24-.16.47-.31.69-.47l.67-.46c.23-.15.43-.3.63-.44h.62v8.45Zm-1-5.35V33.7h4.27l-.2,1.28Z"/><polygon class="cls-4" points="46.25 45.29 54.1 37.44 56.06 35.48 54.1 33.52 46.25 25.67 44.29 23.71 40.37 27.63 42.33 29.59 45.34 32.6 33.46 32.6 30.34 32.6 30.34 38.38 33.46 38.38 45.32 38.38 42.33 41.36 40.37 43.33 44.29 47.25 46.25 45.29"/><rect class="cls-5" x="29.17" y="340.57" width="120" height="35" rx="7"/><rect class="cls-6" x="158.66" y="340.57" width="120" height="35" rx="7"/><path class="cls-2" d="M31.87,167.75H29.12l3.65-9.95h1.74l-.3,2.4Zm4.2-1.67H31V164h5.11Zm-2.32-5.88-.33-2.4h1.76l3.67,9.95H36.09Z"/><path class="cls-2" d="M42.29,166l0,1.73H40.73l-2.38-7.4H41Zm.74-5.67h2.59l-2.38,7.4H41.71l0-1.72Z"/><path class="cls-2" d="M50.2,164.54h-1a.87.87,0,0,0-.78.32,1.17,1.17,0,0,0-.21.66.52.52,0,0,0,.19.41.73.73,0,0,0,.47.15,1.32,1.32,0,0,0,.59-.12,1.27,1.27,0,0,0,.37-.3.46.46,0,0,0,.1-.3l.53,1c-.09.18-.2.35-.31.53a2.09,2.09,0,0,1-.41.48,2,2,0,0,1-.6.35,2.46,2.46,0,0,1-.86.14,2.94,2.94,0,0,1-1.26-.28,2.46,2.46,0,0,1-.93-.79,2,2,0,0,1-.34-1.17,2.15,2.15,0,0,1,.84-1.8,4.34,4.34,0,0,1,2.64-.65h.91Zm-.31-1.65a1.07,1.07,0,0,0-.18-.65.68.68,0,0,0-.6-.25,1,1,0,0,0-.37.07.51.51,0,0,0-.24.22.93.93,0,0,0-.08.41H46a2.1,2.1,0,0,1,.41-1.28,2.67,2.67,0,0,1,1.14-.87,4.7,4.7,0,0,1,3.33,0,2.47,2.47,0,0,1,1.11.9,2.54,2.54,0,0,1,.41,1.49v2.92a5.26,5.26,0,0,0,.09,1.16,2.37,2.37,0,0,0,.23.65v.12H50.22a3.25,3.25,0,0,1-.25-.89,6.55,6.55,0,0,1-.08-1.1Z"/><path class="cls-2" d="M53.54,158.48a1.16,1.16,0,0,1,.37-.89,1.39,1.39,0,0,1,1-.34,1.38,1.38,0,0,1,1,.34,1.26,1.26,0,0,1,0,1.78,1.38,1.38,0,0,1-1,.34,1.39,1.39,0,0,1-1-.34A1.16,1.16,0,0,1,53.54,158.48Zm2.6,9.27H53.67v-7.4h2.47Z"/><path class="cls-2" d="M60.07,167.75H57.61v-10.5h2.46Z"/><path class="cls-2" d="M65.49,164.54h-.95a.86.86,0,0,0-.78.32,1.17,1.17,0,0,0-.21.66.49.49,0,0,0,.19.41.73.73,0,0,0,.47.15,1.32,1.32,0,0,0,.59-.12,1.27,1.27,0,0,0,.37-.3.46.46,0,0,0,.1-.3l.52,1c-.09.18-.19.35-.3.53a2.09,2.09,0,0,1-.41.48,2,2,0,0,1-.6.35,2.48,2.48,0,0,1-.87.14,2.9,2.9,0,0,1-1.25-.28,2.39,2.39,0,0,1-.93-.79,2,2,0,0,1-.35-1.17,2.13,2.13,0,0,1,.85-1.8,4.33,4.33,0,0,1,2.63-.65h.92Zm-.3-1.65a1.07,1.07,0,0,0-.18-.65.68.68,0,0,0-.6-.25,1.07,1.07,0,0,0-.38.07.49.49,0,0,0-.23.22.93.93,0,0,0-.08.41H61.26a2.1,2.1,0,0,1,.41-1.28,2.62,2.62,0,0,1,1.14-.87,4.7,4.7,0,0,1,3.33,0,2.47,2.47,0,0,1,1.11.9,2.61,2.61,0,0,1,.41,1.49v2.92a5.26,5.26,0,0,0,.09,1.16,2.37,2.37,0,0,0,.23.65v.12H65.52a3.25,3.25,0,0,1-.25-.89,6.55,6.55,0,0,1-.08-1.1Z"/><path class="cls-2" d="M71.33,157.25v8.59l-.26,1.91h-2.2v-10.5Zm4.48,6.86a6,6,0,0,1-.3,2,2.81,2.81,0,0,1-.94,1.33,2.66,2.66,0,0,1-1.64.48,2,2,0,0,1-1.45-.53,3.63,3.63,0,0,1-.86-1.42,10.81,10.81,0,0,1-.46-1.94v.08a9.92,9.92,0,0,1,.46-1.93,3.43,3.43,0,0,1,.86-1.4,1.94,1.94,0,0,1,1.44-.53,2.58,2.58,0,0,1,1.64.49,2.88,2.88,0,0,1,1,1.34,5.67,5.67,0,0,1,.3,1.91ZM73.35,164a4.79,4.79,0,0,0-.08-.88,1.35,1.35,0,0,0-.29-.64.89.89,0,0,0-.68-.24,1.28,1.28,0,0,0-.58.11.82.82,0,0,0-.37.32,1.49,1.49,0,0,0-.19.54,4.38,4.38,0,0,0,0,.75v.23a3.6,3.6,0,0,0,.07,1,1,1,0,0,0,.37.59,1.23,1.23,0,0,0,.74.2,1,1,0,0,0,.69-.22,1.09,1.09,0,0,0,.28-.64,5.34,5.34,0,0,0,.07-.95Z"/><path class="cls-2" d="M79.34,167.75H76.87v-10.5h2.47Z"/><path class="cls-2" d="M84.33,167.89a4.14,4.14,0,0,1-2.09-.5,3.35,3.35,0,0,1-1.32-1.32,3.57,3.57,0,0,1-.45-1.76v-.26a4.54,4.54,0,0,1,.4-1.93,3.21,3.21,0,0,1,1.19-1.39,3.7,3.7,0,0,1,2-.51,3.56,3.56,0,0,1,1.84.44,2.9,2.9,0,0,1,1.16,1.26,4.32,4.32,0,0,1,.41,2v1H81.39v-1.58h3.68v-.2a.91.91,0,0,0-.11-.52.63.63,0,0,0-.34-.3,1.39,1.39,0,0,0-.57-.1.88.88,0,0,0-.71.27,1.4,1.4,0,0,0-.33.68,5.11,5.11,0,0,0-.08.9v.26a1.78,1.78,0,0,0,.19.85,1.28,1.28,0,0,0,.53.55,1.87,1.87,0,0,0,.85.19,2.59,2.59,0,0,0,.9-.16,1.62,1.62,0,0,0,.77-.55l1.11,1.41a3.08,3.08,0,0,1-1.1.88A3.92,3.92,0,0,1,84.33,167.89Z"/><path class="cls-2" d="M95.86,162.13H91.31v-1.78h4.55Zm-1.18-3.61v6.68a1.15,1.15,0,0,0,.06.41.38.38,0,0,0,.22.21,1.29,1.29,0,0,0,.44.06h.32a.88.88,0,0,0,.24,0v1.84a4.85,4.85,0,0,1-.63.16,5,5,0,0,1-.71,0,3.18,3.18,0,0,1-1.3-.24,1.71,1.71,0,0,1-.81-.76,2.76,2.76,0,0,1-.28-1.33v-7Z"/><path class="cls-2" d="M96.28,164a4.49,4.49,0,0,1,.41-1.94,3.2,3.2,0,0,1,1.21-1.34,3.69,3.69,0,0,1,2-.49,3.74,3.74,0,0,1,2,.49,3.14,3.14,0,0,1,1.21,1.34,4.49,4.49,0,0,1,.4,1.94v.13a4.49,4.49,0,0,1-.4,1.94,3.2,3.2,0,0,1-1.21,1.34,4.23,4.23,0,0,1-4,0,3.22,3.22,0,0,1-1.22-1.34,4.49,4.49,0,0,1-.41-1.94Zm2.47.13a4.19,4.19,0,0,0,.09.91,1.31,1.31,0,0,0,.34.64,1,1,0,0,0,.71.23.93.93,0,0,0,.69-.23,1.17,1.17,0,0,0,.34-.64,4.19,4.19,0,0,0,.09-.91V164a4.16,4.16,0,0,0-.09-.9,1.23,1.23,0,0,0-.34-.65,1,1,0,0,0-.71-.24.93.93,0,0,0-.69.24,1.39,1.39,0,0,0-.34.65,4.16,4.16,0,0,0-.09.9Z"/><path class="cls-2" d="M107.92,158.48a1.16,1.16,0,0,1,.37-.89,1.39,1.39,0,0,1,1-.34,1.38,1.38,0,0,1,1,.34,1.26,1.26,0,0,1,0,1.78,1.38,1.38,0,0,1-1,.34,1.39,1.39,0,0,1-1-.34A1.16,1.16,0,0,1,107.92,158.48Zm2.6,9.27h-2.47v-7.4h2.47Z"/><path class="cls-2" d="M114.28,167.75h-2.47v-7.4h2.31l.16,1.58Zm-.86-3.88a5,5,0,0,1,.35-2,2.77,2.77,0,0,1,1-1.24,2.69,2.69,0,0,1,1.5-.42,2.53,2.53,0,0,1,1.2.27,1.89,1.89,0,0,1,.82.91,4.12,4.12,0,0,1,.3,1.74v4.61h-2.48v-4.62a1.21,1.21,0,0,0-.11-.6.51.51,0,0,0-.33-.26,1.62,1.62,0,0,0-.53-.07,1.28,1.28,0,0,0-.55.11,1,1,0,0,0-.35.33,1.34,1.34,0,0,0-.19.52,3.4,3.4,0,0,0-.06.67Z"/><path class="cls-2" d="M123.11,166l0,1.73h-1.53l-2.38-7.4h2.6Zm.74-5.67h2.59l-2.38,7.4h-1.53l0-1.72Z"/><path class="cls-2" d="M130.72,167.89a4.12,4.12,0,0,1-2.09-.5,3.35,3.35,0,0,1-1.32-1.32,3.57,3.57,0,0,1-.45-1.76v-.26a4.54,4.54,0,0,1,.4-1.93,3.21,3.21,0,0,1,1.19-1.39,3.7,3.7,0,0,1,2-.51,3.49,3.49,0,0,1,1.83.44,2.86,2.86,0,0,1,1.17,1.26,4.32,4.32,0,0,1,.41,2v1h-6.09v-1.58h3.68v-.2a.91.91,0,0,0-.11-.52.66.66,0,0,0-.34-.3,1.39,1.39,0,0,0-.57-.1.91.91,0,0,0-.72.27,1.49,1.49,0,0,0-.32.68,5.11,5.11,0,0,0-.08.9v.26a1.78,1.78,0,0,0,.19.85,1.28,1.28,0,0,0,.53.55,1.87,1.87,0,0,0,.85.19,2.59,2.59,0,0,0,.9-.16,1.62,1.62,0,0,0,.77-.55l1.11,1.41a3,3,0,0,1-1.11.88A3.85,3.85,0,0,1,130.72,167.89Z"/><path class="cls-2" d="M138.55,165.64a.35.35,0,0,0-.12-.28,1.15,1.15,0,0,0-.42-.21,7.65,7.65,0,0,0-.85-.22,5.68,5.68,0,0,1-1.3-.44,2.6,2.6,0,0,1-1-.76,1.76,1.76,0,0,1-.35-1.12,2.1,2.1,0,0,1,.36-1.18,2.49,2.49,0,0,1,1.05-.88,3.87,3.87,0,0,1,1.68-.33,4.64,4.64,0,0,1,1.75.3,2.64,2.64,0,0,1,1.13.86,2.08,2.08,0,0,1,.41,1.28h-2.47a.82.82,0,0,0-.18-.59.92.92,0,0,0-.65-.18,1,1,0,0,0-.36.06.75.75,0,0,0-.29.2.52.52,0,0,0-.1.33.39.39,0,0,0,.13.3.94.94,0,0,0,.37.23,2.94,2.94,0,0,0,.65.16,7.89,7.89,0,0,1,1.39.37,2.48,2.48,0,0,1,1.07.72,1.93,1.93,0,0,1,.42,1.31,1.87,1.87,0,0,1-.4,1.18,2.57,2.57,0,0,1-1.14.83,4.4,4.4,0,0,1-1.74.31,3.86,3.86,0,0,1-1.82-.39,3,3,0,0,1-1.12-1,2.22,2.22,0,0,1-.38-1.19h2.3a.92.92,0,0,0,.15.49.77.77,0,0,0,.37.29,1.42,1.42,0,0,0,.57.1,1.2,1.2,0,0,0,.46-.07.54.54,0,0,0,.28-.19A.48.48,0,0,0,138.55,165.64Z"/><path class="cls-2" d="M145.94,162.13h-4.55v-1.78h4.55Zm-1.18-3.61v6.68a1.15,1.15,0,0,0,.06.41.38.38,0,0,0,.22.21,1.29,1.29,0,0,0,.44.06h.32a.88.88,0,0,0,.24,0v1.84a4.85,4.85,0,0,1-.63.16,5,5,0,0,1-.7,0,3.19,3.19,0,0,1-1.31-.24,1.71,1.71,0,0,1-.81-.76,2.76,2.76,0,0,1-.28-1.33v-7Z"/><path class="cls-2" d="M60.13,205.2H40.63l-.4-4.32,10.68-17.15h5.27l-5.62,9.63-4,6.46H60.13Zm-2.57,5.55H50.88v-27h6.68Z"/><path class="cls-2" d="M69.36,210.08a10.27,10.27,0,0,1-1.16,4.67,12.41,12.41,0,0,1-2.81,3.74L62,216.93c.24-.57.53-1.15.84-1.74a10.55,10.55,0,0,0,.82-2,9.19,9.19,0,0,0,.34-2.68v-4.68h5.34Z"/><path class="cls-2" d="M88.67,183.29v5.47h-.35a12.3,12.3,0,0,0-3.27.43,7.65,7.65,0,0,0-2.66,1.33,6,6,0,0,0-1.78,2.33,8.27,8.27,0,0,0-.64,3.43v4.91a8,8,0,0,0,.35,2.58,2.92,2.92,0,0,0,1.06,1.49,3.09,3.09,0,0,0,1.78.48,2.59,2.59,0,0,0,1.59-.52,3.39,3.39,0,0,0,1.09-1.43,5.62,5.62,0,0,0,0-4.24,3.27,3.27,0,0,0-1.18-1.33,3.13,3.13,0,0,0-1.69-.46,3.41,3.41,0,0,0-1.88.48,3.12,3.12,0,0,0-1.48,2.62L78,199a5.13,5.13,0,0,1,.41-2.06,7.34,7.34,0,0,1,1.36-2.17,7.46,7.46,0,0,1,2.29-1.69,7.22,7.22,0,0,1,3.21-.67,7,7,0,0,1,4.17,1.22A7.77,7.77,0,0,1,92.05,197a12.39,12.39,0,0,1,.89,4.81,9.31,9.31,0,0,1-1.23,4.77,9.08,9.08,0,0,1-3.4,3.34,10,10,0,0,1-5,1.22,11,11,0,0,1-4-.71,9,9,0,0,1-3.2-2.11A9.64,9.64,0,0,1,74,204.84a13.66,13.66,0,0,1-.76-4.76v-2.34a15.68,15.68,0,0,1,1.16-6.22A12.89,12.89,0,0,1,77.6,187a13.7,13.7,0,0,1,4.59-2.76,15.51,15.51,0,0,1,5.41-.94Z"/><path class="cls-2" d="M114.52,199.78a14.6,14.6,0,0,1-1.22,6.36,8.4,8.4,0,0,1-3.36,3.75,9.69,9.69,0,0,1-4.92,1.23,9.84,9.84,0,0,1-5-1.23,8.32,8.32,0,0,1-3.38-3.75,14.6,14.6,0,0,1-1.22-6.36v-5.06a14.63,14.63,0,0,1,1.21-6.36,8.34,8.34,0,0,1,3.36-3.75,10.41,10.41,0,0,1,9.89,0,8.47,8.47,0,0,1,3.37,3.75,14.48,14.48,0,0,1,1.23,6.36Zm-6.7-5.93a10.58,10.58,0,0,0-.35-3,3,3,0,0,0-1-1.57,2.46,2.46,0,0,0-1.5-.47,2.51,2.51,0,0,0-1.51.47,2.86,2.86,0,0,0-1,1.57,10.58,10.58,0,0,0-.35,3v6.79a11,11,0,0,0,.35,3.1,2.92,2.92,0,0,0,1,1.56,2.63,2.63,0,0,0,1.53.44,2.54,2.54,0,0,0,1.48-.44,2.91,2.91,0,0,0,1-1.56,11,11,0,0,0,.34-3.1Z"/><path class="cls-2" d="M136.64,199.78a14.6,14.6,0,0,1-1.22,6.36,8.4,8.4,0,0,1-3.36,3.75,9.71,9.71,0,0,1-4.92,1.23,9.88,9.88,0,0,1-5-1.23,8.36,8.36,0,0,1-3.37-3.75,14.6,14.6,0,0,1-1.22-6.36v-5.06a14.63,14.63,0,0,1,1.21-6.36,8.37,8.37,0,0,1,3.35-3.75,10.41,10.41,0,0,1,9.89,0,8.49,8.49,0,0,1,3.38,3.75,14.48,14.48,0,0,1,1.23,6.36Zm-6.7-5.93a10.18,10.18,0,0,0-.36-3,3,3,0,0,0-1-1.57,2.46,2.46,0,0,0-1.5-.47,2.49,2.49,0,0,0-1.51.47,2.93,2.93,0,0,0-1,1.57,10.63,10.63,0,0,0-.34,3v6.79a11,11,0,0,0,.35,3.1,3,3,0,0,0,1,1.56,2.68,2.68,0,0,0,1.54.44,2.56,2.56,0,0,0,1.48-.44,2.9,2.9,0,0,0,1-1.56,11,11,0,0,0,.35-3.1Z"/><path class="cls-7" d="M30.08,191v-2.56h7.3V191Zm0,4.78V193.1h9.47v2.65Zm4.75-4.08a2.17,2.17,0,0,1-.44,1.44,3.61,3.61,0,0,1-1.59,1l-1.82-1a.56.56,0,0,0,.36-.23.83.83,0,0,0,.12-.41,4.52,4.52,0,0,0,0-.54l-.15-5.3a4.07,4.07,0,0,1,.49-2.07,3.25,3.25,0,0,1,1.41-1.31,4.76,4.76,0,0,1,2.14-.45,4.34,4.34,0,0,1,3.15,1.05,3.66,3.66,0,0,1,1.09,2.78H36.55a1.51,1.51,0,0,0-.14-.71.78.78,0,0,0-.38-.36,1.33,1.33,0,0,0-.54-.11.77.77,0,0,0-.62.28,1.38,1.38,0,0,0-.24.9Z"/><path class="cls-4" d="M230,262.73v-1.6h5.68v1.6Zm0,4.65v-1.62h8.2v1.62Zm3.33-3.32a3,3,0,0,1-.28,1.34,2,2,0,0,1-.93.93l-1.45-.57a.63.63,0,0,0,.39-.33,2.15,2.15,0,0,0,.19-.62,5.14,5.14,0,0,0,.05-.66l-.17-4.89a3.56,3.56,0,0,1,.45-1.84,3,3,0,0,1,1.25-1.17,4,4,0,0,1,1.83-.4,3.49,3.49,0,0,1,2.53.87,3.09,3.09,0,0,1,.89,2.3h-2a1.7,1.7,0,0,0-.21-.91,1.24,1.24,0,0,0-.55-.49,1.94,1.94,0,0,0-.76-.15,1.33,1.33,0,0,0-1,.45,1.92,1.92,0,0,0-.42,1.34Z"/><path class="cls-4" d="M247.36,264.84h-8.22l-.06-1.19L244,256h1.56l-1.66,2.9-2.77,4.38h6.27ZM246,267.38H244V256H246Z"/><path class="cls-4" d="M250.52,266.92a3.85,3.85,0,0,1-.4,1.66,4.12,4.12,0,0,1-1.07,1.41l-1-.59c.14-.23.28-.47.4-.71a4.71,4.71,0,0,0,.29-.77,3.84,3.84,0,0,0,.1-.93v-1.45h1.72Z"/><path class="cls-4" d="M254.43,261.27h1.43a5.4,5.4,0,0,1,1.71.23,3.09,3.09,0,0,1,1.15.63,2.49,2.49,0,0,1,.65.94,3.05,3.05,0,0,1,.21,1.12,3.17,3.17,0,0,1-.51,1.82,3.27,3.27,0,0,1-1.38,1.13,5.13,5.13,0,0,1-3.38.19,3.78,3.78,0,0,1-1.2-.61,2.81,2.81,0,0,1-.84-1,3,3,0,0,1-.31-1.41h1.94a1.65,1.65,0,0,0,.23.86,1.68,1.68,0,0,0,.65.59,2.05,2.05,0,0,0,1,.22,2,2,0,0,0,1.38-.47,1.76,1.76,0,0,0,.5-1.32,2,2,0,0,0-.25-1.06,1.5,1.5,0,0,0-.73-.6,2.87,2.87,0,0,0-1.11-.19h-1.12Zm1.12-.46a2.36,2.36,0,0,0,1.07-.22,1.46,1.46,0,0,0,.64-.61,1.87,1.87,0,0,0,.21-.9,1.91,1.91,0,0,0-.19-.89,1.25,1.25,0,0,0-.57-.59,2.07,2.07,0,0,0-1-.2,2,2,0,0,0-.88.19,1.55,1.55,0,0,0-.62.54,1.42,1.42,0,0,0-.23.83h-1.94a2.82,2.82,0,0,1,.47-1.61,3.32,3.32,0,0,1,1.31-1.11,4.3,4.3,0,0,1,1.86-.39,4.82,4.82,0,0,1,1.93.36,2.85,2.85,0,0,1,1.29,1.08,3.21,3.21,0,0,1,.47,1.78,2.43,2.43,0,0,1-.23,1,3,3,0,0,1-.67.91,3.37,3.37,0,0,1-1.11.66,4.29,4.29,0,0,1-1.54.25h-1.43v-1.08Z"/><path class="cls-4" d="M268.75,262.61a7.32,7.32,0,0,1-.46,2.85A3.24,3.24,0,0,1,267,267a4.19,4.19,0,0,1-3.93,0,3.22,3.22,0,0,1-1.32-1.58,7.3,7.3,0,0,1-.47-2.85v-1.88a7.3,7.3,0,0,1,.47-2.85,3.13,3.13,0,0,1,1.31-1.55,4.26,4.26,0,0,1,3.93,0,3.11,3.11,0,0,1,1.3,1.55,7.3,7.3,0,0,1,.47,2.85Zm-1.94-2.17a6.46,6.46,0,0,0-.2-1.78,1.9,1.9,0,0,0-.61-1,1.82,1.82,0,0,0-2,0,1.9,1.9,0,0,0-.61,1,6,6,0,0,0-.21,1.78v2.44a5.87,5.87,0,0,0,.22,1.8,2,2,0,0,0,.62,1,1.52,1.52,0,0,0,1,.31,1.56,1.56,0,0,0,1-.31,2,2,0,0,0,.6-1,6.67,6.67,0,0,0,.2-1.8Z"/><path class="cls-4" d="M277.85,262.61a7.32,7.32,0,0,1-.46,2.85,3.24,3.24,0,0,1-1.3,1.58,3.77,3.77,0,0,1-2,.49,3.83,3.83,0,0,1-2-.49,3.27,3.27,0,0,1-1.32-1.58,7.3,7.3,0,0,1-.47-2.85v-1.88a7.3,7.3,0,0,1,.47-2.85,3.18,3.18,0,0,1,1.31-1.55,4.26,4.26,0,0,1,3.93,0,3.18,3.18,0,0,1,1.31,1.55,7.32,7.32,0,0,1,.46,2.85Zm-1.94-2.17a6.46,6.46,0,0,0-.2-1.78,1.84,1.84,0,0,0-.61-1,1.68,1.68,0,0,0-1-.29,1.64,1.64,0,0,0-1,.29,1.85,1.85,0,0,0-.62,1,6,6,0,0,0-.21,1.78v2.44a5.87,5.87,0,0,0,.22,1.8,2,2,0,0,0,.62,1,1.52,1.52,0,0,0,1,.31,1.54,1.54,0,0,0,1-.31,2,2,0,0,0,.6-1,6.29,6.29,0,0,0,.2-1.8Z"/><path class="cls-8" d="M32.31,264.09l.1,1.85h-1l-2-8.53h1.5Zm1.54-6.68h.91L34.68,259l-1.81,6.92h-.95l.25-1.81Zm2.94,6.75.24,1.78h-1L34.3,259l-.07-1.61h.89ZM38,257.41h1.51l-2,8.53h-1l.12-1.87Z"/><path class="cls-8" d="M40.45,258a.78.78,0,0,1,.21-.56,1,1,0,0,1,1.22,0,.75.75,0,0,1,.22.56.72.72,0,0,1-.22.54,1,1,0,0,1-1.22,0A.75.75,0,0,1,40.45,258Zm1.54,8H40.54V259.6H42Z"/><path class="cls-8" d="M46.46,260.68h-3.6V259.6h3.6Zm-1.13-2.63v6.11a.88.88,0,0,0,.09.44.38.38,0,0,0,.23.2,1,1,0,0,0,.35.05h.28l.22,0v1.12a3.08,3.08,0,0,1-.41.1,2.83,2.83,0,0,1-.54,0,2.13,2.13,0,0,1-.86-.17,1.27,1.27,0,0,1-.59-.58,2.1,2.1,0,0,1-.22-1.05v-6.21Z"/><path class="cls-8" d="M49,265.94H47.5v-9H49Zm-.72-3.39a3.73,3.73,0,0,1,.31-1.57,2.49,2.49,0,0,1,.86-1.09,2.16,2.16,0,0,1,1.3-.4,2.51,2.51,0,0,1,1.1.23,1.64,1.64,0,0,1,.72.77,3.19,3.19,0,0,1,.26,1.39v4.06H51.33v-4.07a1.58,1.58,0,0,0-.13-.71.76.76,0,0,0-.38-.37,1.37,1.37,0,0,0-.6-.11,1.39,1.39,0,0,0-.66.14,1.43,1.43,0,0,0-.48.4,1.85,1.85,0,0,0-.28.6,2.86,2.86,0,0,0-.1.73Z"/><path class="cls-8" d="M53.94,262.72a4.43,4.43,0,0,1,.3-1.69,2.64,2.64,0,0,1,.86-1.14,2.18,2.18,0,0,1,1.33-.4,2,2,0,0,1,1.29.4,2.66,2.66,0,0,1,.81,1.1,5.89,5.89,0,0,1,.39,1.64V263a5.44,5.44,0,0,1-.39,1.6,2.69,2.69,0,0,1-.81,1.09,2.06,2.06,0,0,1-1.3.4,2.12,2.12,0,0,1-1.32-.42,2.7,2.7,0,0,1-.86-1.14,4.35,4.35,0,0,1-.3-1.66Zm1.45.12a3.66,3.66,0,0,0,.14,1,1.51,1.51,0,0,0,.45.73,1.17,1.17,0,0,0,.81.27,1.33,1.33,0,0,0,.78-.21,1.31,1.31,0,0,0,.48-.56,2.57,2.57,0,0,0,.24-.8v-1a3.2,3.2,0,0,0-.15-.66,1.67,1.67,0,0,0-.28-.51,1.22,1.22,0,0,0-.44-.34,1.49,1.49,0,0,0-.62-.12A1.23,1.23,0,0,0,56,261a1.57,1.57,0,0,0-.45.74,3.66,3.66,0,0,0-.14,1Zm2.66-5.9H59.5v9H58.18l-.13-1.33Z"/><path class="cls-8" d="M62.43,265.94H61V259.6h1.39l.07,1.25Zm1.91-5-.29,0h-.29a1.61,1.61,0,0,0-.8.18,1.11,1.11,0,0,0-.49.49,1.88,1.88,0,0,0-.19.75H62a4.55,4.55,0,0,1,.21-1.44,2.28,2.28,0,0,1,.63-1,1.51,1.51,0,0,1,1.05-.37,1.37,1.37,0,0,1,.28,0l.23.05Z"/><path class="cls-8" d="M68.91,263h-1a2,2,0,0,0-1.16.28.91.91,0,0,0-.39.77.82.82,0,0,0,.26.63,1,1,0,0,0,.72.25,1.49,1.49,0,0,0,.75-.18,1.39,1.39,0,0,0,.5-.42,1,1,0,0,0,.19-.48l.46.65A2.31,2.31,0,0,1,69,265a2.1,2.1,0,0,1-.44.52,2.4,2.4,0,0,1-.64.4,2.57,2.57,0,0,1-2-.1,1.86,1.86,0,0,1-.77-.67,1.94,1.94,0,0,1,.48-2.52,3.65,3.65,0,0,1,2.15-.54H68.9Zm-.23-1.32a1.09,1.09,0,0,0-.27-.78,1,1,0,0,0-.82-.3,1.34,1.34,0,0,0-.58.12,1,1,0,0,0-.38.3.76.76,0,0,0-.13.44H65.05a1.53,1.53,0,0,1,.32-.95,2.32,2.32,0,0,1,.91-.73,3.31,3.31,0,0,1,1.39-.27,3.16,3.16,0,0,1,1.27.24,2,2,0,0,1,.88.72,2.21,2.21,0,0,1,.32,1.22v2.8a4.5,4.5,0,0,0,.06.78,2.58,2.58,0,0,0,.18.59v.1H68.9a2.36,2.36,0,0,1-.16-.59,4.34,4.34,0,0,1-.06-.71Z"/><path class="cls-8" d="M73.64,264.51l.07,1.43h-.92l-1.71-6.34H72.5Zm1.14-4.91h.92l-.24,1.55L74,265.94h-.82l.15-1.44Zm2.52,4.84.17,1.5h-.82l-1.49-4.79-.24-1.55h.94Zm.84-4.84h1.41l-1.7,6.34h-.92l.12-1.48Z"/><path class="cls-8" d="M84.28,263h-1a2,2,0,0,0-1.17.28.91.91,0,0,0-.39.77.86.86,0,0,0,.26.63,1,1,0,0,0,.73.25,1.47,1.47,0,0,0,.74-.18,1.42,1.42,0,0,0,.51-.42.85.85,0,0,0,.18-.48l.47.65a2.31,2.31,0,0,1-.24.51,2.34,2.34,0,0,1-.44.52,2.46,2.46,0,0,1-.65.4,2.24,2.24,0,0,1-.86.15,2.39,2.39,0,0,1-1.11-.25,1.84,1.84,0,0,1-.76-.67,1.72,1.72,0,0,1-.28-1,1.78,1.78,0,0,1,.76-1.55,3.62,3.62,0,0,1,2.14-.54h1.09Zm-.22-1.32a1.09,1.09,0,0,0-.27-.78,1.07,1.07,0,0,0-.83-.3,1.26,1.26,0,0,0-.57.12,1,1,0,0,0-.38.3.77.77,0,0,0-.14.44H80.42a1.6,1.6,0,0,1,.32-.95,2.39,2.39,0,0,1,.91-.73,3.36,3.36,0,0,1,1.4-.27,3.2,3.2,0,0,1,1.27.24,1.93,1.93,0,0,1,.87.72,2.13,2.13,0,0,1,.32,1.22v2.8a3.64,3.64,0,0,0,.07.78,2.16,2.16,0,0,0,.18.59v.1H84.27a2.36,2.36,0,0,1-.16-.59,5.78,5.78,0,0,1,0-.71Z"/><path class="cls-8" d="M88.43,256.94v7.63l-.14,1.37H87v-9Zm4.13,5.9a4.73,4.73,0,0,1-.28,1.66,2.54,2.54,0,0,1-.83,1.15,2.22,2.22,0,0,1-1.36.41,2,2,0,0,1-1.31-.4,2.48,2.48,0,0,1-.8-1.1,6,6,0,0,1-.39-1.61v-.35A6.21,6.21,0,0,1,88,261a2.51,2.51,0,0,1,.8-1.09,2,2,0,0,1,1.3-.4,2.21,2.21,0,0,1,1.37.41,2.48,2.48,0,0,1,.83,1.13,4.87,4.87,0,0,1,.28,1.69Zm-1.46-.12a4,4,0,0,0-.12-1,1.63,1.63,0,0,0-.43-.75,1.21,1.21,0,0,0-.84-.27,1.54,1.54,0,0,0-.63.12,1.22,1.22,0,0,0-.44.34,1.56,1.56,0,0,0-.28.51,2.52,2.52,0,0,0-.13.63v1a2.55,2.55,0,0,0,.21.8,1.37,1.37,0,0,0,.48.58,1.43,1.43,0,0,0,.81.21,1.19,1.19,0,0,0,.82-.27,1.5,1.5,0,0,0,.42-.73,3.63,3.63,0,0,0,.13-1Z"/><path class="cls-8" d="M95.27,265.94H93.82v-9h1.45Z"/><path class="cls-8" d="M99.61,266.06a3.06,3.06,0,0,1-1.63-.41,2.65,2.65,0,0,1-1-1.1,3.2,3.2,0,0,1-.37-1.55v-.24a3.77,3.77,0,0,1,.37-1.73,2.85,2.85,0,0,1,1-1.14,3,3,0,0,1,3,0,2.44,2.44,0,0,1,.9,1.1,4,4,0,0,1,.3,1.62v.63H97.25v-1.05h3.47v-.12a1.81,1.81,0,0,0-.14-.69,1.14,1.14,0,0,0-.4-.52,1.3,1.3,0,0,0-.75-.2,1.19,1.19,0,0,0-.77.26,1.58,1.58,0,0,0-.49.74,3.62,3.62,0,0,0-.16,1.11V263a2.26,2.26,0,0,0,.2,1,1.56,1.56,0,0,0,1.49.93,1.94,1.94,0,0,0,1.59-.77l.76.76a2.76,2.76,0,0,1-.9.81A2.86,2.86,0,0,1,99.61,266.06Z"/><path class="cls-8" d="M108.83,264.9a1.37,1.37,0,0,0,.61-.14,1.09,1.09,0,0,0,.44-.38,1,1,0,0,0,.18-.55h1.37a2,2,0,0,1-.36,1.13,2.53,2.53,0,0,1-.94.8,2.73,2.73,0,0,1-1.29.3,2.8,2.8,0,0,1-1.61-.43,2.63,2.63,0,0,1-1-1.15,4,4,0,0,1-.31-1.61v-.2a4,4,0,0,1,.31-1.6,2.57,2.57,0,0,1,1-1.15,2.8,2.8,0,0,1,1.61-.43,2.85,2.85,0,0,1,1.34.3,2.24,2.24,0,0,1,.91.84,2.47,2.47,0,0,1,.34,1.26h-1.37a1.42,1.42,0,0,0-.16-.62,1.1,1.1,0,0,0-.43-.45,1.23,1.23,0,0,0-.65-.17,1.21,1.21,0,0,0-.87.3,1.46,1.46,0,0,0-.42.75,3.85,3.85,0,0,0-.12,1v.2a4.39,4.39,0,0,0,.11,1,1.48,1.48,0,0,0,.43.75A1.22,1.22,0,0,0,108.83,264.9Z"/><path class="cls-8" d="M116.28,263h-1a2,2,0,0,0-1.16.28.91.91,0,0,0-.39.77.86.86,0,0,0,.26.63,1,1,0,0,0,.73.25,1.47,1.47,0,0,0,.74-.18,1.31,1.31,0,0,0,.5-.42.87.87,0,0,0,.19-.48l.46.65a1.88,1.88,0,0,1-.23.51,2.34,2.34,0,0,1-.44.52,2.46,2.46,0,0,1-.65.4,2.28,2.28,0,0,1-.86.15,2.36,2.36,0,0,1-1.11-.25,1.84,1.84,0,0,1-.76-.67,1.72,1.72,0,0,1-.28-1,1.8,1.8,0,0,1,.75-1.55,3.67,3.67,0,0,1,2.15-.54h1.09Zm-.22-1.32a1,1,0,0,0-1.1-1.08,1.26,1.26,0,0,0-.57.12.89.89,0,0,0-.38.3.77.77,0,0,0-.14.44h-1.45a1.6,1.6,0,0,1,.32-.95,2.39,2.39,0,0,1,.91-.73,3.31,3.31,0,0,1,1.39-.27,3.25,3.25,0,0,1,1.28.24,1.93,1.93,0,0,1,.87.72,2.21,2.21,0,0,1,.32,1.22v2.8a4.5,4.5,0,0,0,.06.78,2.56,2.56,0,0,0,.19.59v.1h-1.49a2.36,2.36,0,0,1-.16-.59,5.78,5.78,0,0,1,0-.71Z"/><path class="cls-8" d="M122.51,264.22a.66.66,0,0,0-.1-.37.91.91,0,0,0-.39-.3,3.88,3.88,0,0,0-.86-.26,5.2,5.2,0,0,1-1.19-.38,2,2,0,0,1-.8-.6,1.44,1.44,0,0,1-.28-.9,1.69,1.69,0,0,1,.29-1,2.15,2.15,0,0,1,.85-.71,3.12,3.12,0,0,1,1.31-.26,3.35,3.35,0,0,1,1.37.26,2.15,2.15,0,0,1,.89.72,1.85,1.85,0,0,1,.3,1h-1.45a.9.9,0,0,0-.28-.66,1.1,1.1,0,0,0-.83-.28,1.39,1.39,0,0,0-.58.11.84.84,0,0,0-.35.29.7.7,0,0,0-.11.38.61.61,0,0,0,.11.36,1,1,0,0,0,.4.27,4.06,4.06,0,0,0,.78.22,6.6,6.6,0,0,1,1.25.39,2,2,0,0,1,.81.61,1.54,1.54,0,0,1,.29,1,1.65,1.65,0,0,1-.32,1,2.09,2.09,0,0,1-.9.67,3.34,3.34,0,0,1-1.36.25,3.13,3.13,0,0,1-1.47-.31A2.37,2.37,0,0,1,119,265a1.91,1.91,0,0,1-.3-1h1.4a1,1,0,0,0,.21.61,1.15,1.15,0,0,0,.48.33,2.05,2.05,0,0,0,.61.1,1.58,1.58,0,0,0,.62-.1.93.93,0,0,0,.38-.27A.64.64,0,0,0,122.51,264.22Z"/><path class="cls-8" d="M126.59,265.94h-1.46v-9h1.46Zm-.72-3.39a3.73,3.73,0,0,1,.31-1.57,2.49,2.49,0,0,1,.86-1.09,2.16,2.16,0,0,1,1.3-.4,2.51,2.51,0,0,1,1.1.23,1.64,1.64,0,0,1,.72.77,3.19,3.19,0,0,1,.26,1.39v4.06H129v-4.07a1.58,1.58,0,0,0-.13-.71.76.76,0,0,0-.38-.37,1.37,1.37,0,0,0-.6-.11,1.39,1.39,0,0,0-.66.14,1.31,1.31,0,0,0-.47.4,1.68,1.68,0,0,0-.29.6,2.86,2.86,0,0,0-.1.73Z"/><path class="cls-4" d="M242.68,297.68v-1.59h5.68v1.59Zm0,4.65v-1.62h8.21v1.62ZM246,299a2.9,2.9,0,0,1-.27,1.34,2.12,2.12,0,0,1-.93.92l-1.46-.57a.57.57,0,0,0,.4-.33,2.44,2.44,0,0,0,.18-.61,5.43,5.43,0,0,0,.05-.67l-.16-4.89a3.66,3.66,0,0,1,.44-1.84,3.07,3.07,0,0,1,1.25-1.17,4,4,0,0,1,1.83-.4,3.47,3.47,0,0,1,2.53.87,3.1,3.1,0,0,1,.89,2.3h-1.95a1.73,1.73,0,0,0-.21-.91,1.24,1.24,0,0,0-.56-.48,1.76,1.76,0,0,0-.76-.16,1.33,1.33,0,0,0-1,.46,1.88,1.88,0,0,0-.42,1.33Z"/><path class="cls-4" d="M254.43,296.22h1.43a5.71,5.71,0,0,1,1.71.23,3.11,3.11,0,0,1,1.15.64,2.46,2.46,0,0,1,.65.93,3.05,3.05,0,0,1,.21,1.12,3.14,3.14,0,0,1-.51,1.82,3.3,3.3,0,0,1-1.38,1.14,5,5,0,0,1-3.38.18,3.56,3.56,0,0,1-1.2-.6,2.94,2.94,0,0,1-.84-1,3,3,0,0,1-.31-1.41h1.94a1.65,1.65,0,0,0,.23.86,1.71,1.71,0,0,0,.65.6,2.17,2.17,0,0,0,1,.21,2,2,0,0,0,1.38-.47,1.76,1.76,0,0,0,.5-1.32,2,2,0,0,0-.25-1.06,1.5,1.5,0,0,0-.73-.6,2.87,2.87,0,0,0-1.11-.19h-1.12Zm1.12-.46a2.24,2.24,0,0,0,1.07-.22,1.4,1.4,0,0,0,.64-.61,1.87,1.87,0,0,0,.21-.9,1.91,1.91,0,0,0-.19-.89,1.23,1.23,0,0,0-.57-.58,2,2,0,0,0-1-.21,2.1,2.1,0,0,0-.88.19,1.55,1.55,0,0,0-.62.54,1.43,1.43,0,0,0-.23.84h-1.94a2.88,2.88,0,0,1,.47-1.62,3.22,3.22,0,0,1,1.31-1.1,4.16,4.16,0,0,1,1.86-.4,4.82,4.82,0,0,1,1.93.36,2.85,2.85,0,0,1,1.29,1.08,3.23,3.23,0,0,1,.47,1.78,2.39,2.39,0,0,1-.23,1,3,3,0,0,1-.67.91,3.39,3.39,0,0,1-1.11.67,4.52,4.52,0,0,1-1.54.25h-1.43v-1.09Z"/><path class="cls-4" d="M268.75,297.56a7.32,7.32,0,0,1-.46,2.85A3.24,3.24,0,0,1,267,302a4.11,4.11,0,0,1-3.93,0,3.22,3.22,0,0,1-1.32-1.58,7.3,7.3,0,0,1-.47-2.85v-1.88a7.21,7.21,0,0,1,.47-2.84,3.15,3.15,0,0,1,1.31-1.56,4.26,4.26,0,0,1,3.93,0,3.14,3.14,0,0,1,1.3,1.56,7.21,7.21,0,0,1,.47,2.84Zm-1.94-2.17a6.51,6.51,0,0,0-.2-1.78,1.9,1.9,0,0,0-.61-1,1.82,1.82,0,0,0-2,0,1.9,1.9,0,0,0-.61,1,6.1,6.1,0,0,0-.21,1.78v2.45a5.85,5.85,0,0,0,.22,1.79,1.86,1.86,0,0,0,.62,1,1.52,1.52,0,0,0,1,.31,1.56,1.56,0,0,0,1-.31,1.91,1.91,0,0,0,.6-1,6.64,6.64,0,0,0,.2-1.79Z"/><path class="cls-4" d="M277.85,297.56a7.32,7.32,0,0,1-.46,2.85,3.24,3.24,0,0,1-1.3,1.58,3.77,3.77,0,0,1-2,.5,3.83,3.83,0,0,1-2-.5,3.27,3.27,0,0,1-1.32-1.58,7.3,7.3,0,0,1-.47-2.85v-1.88a7.21,7.21,0,0,1,.47-2.84,3.2,3.2,0,0,1,1.31-1.56,4.26,4.26,0,0,1,3.93,0,3.2,3.2,0,0,1,1.31,1.56,7.23,7.23,0,0,1,.46,2.84Zm-1.94-2.17a6.51,6.51,0,0,0-.2-1.78,1.84,1.84,0,0,0-.61-1,1.68,1.68,0,0,0-1-.29,1.64,1.64,0,0,0-1,.29,1.85,1.85,0,0,0-.62,1,6.1,6.1,0,0,0-.21,1.78v2.45a5.85,5.85,0,0,0,.22,1.79,1.86,1.86,0,0,0,.62,1,1.52,1.52,0,0,0,1,.31,1.54,1.54,0,0,0,1-.31,1.91,1.91,0,0,0,.6-1,6.26,6.26,0,0,0,.2-1.79Z"/><path class="cls-8" d="M31.63,300.9H30.12v-8.54h1.51Z"/><path class="cls-8" d="M34.74,300.9H33.28v-6.34h1.37l.09,1.35ZM34,297.5a3.77,3.77,0,0,1,.32-1.6,2.57,2.57,0,0,1,.89-1.08,2.33,2.33,0,0,1,1.32-.38,2.38,2.38,0,0,1,1.07.23,1.56,1.56,0,0,1,.7.75,3.2,3.2,0,0,1,.25,1.39v4.09H37.1v-4.1a1.69,1.69,0,0,0-.12-.7.74.74,0,0,0-.38-.36,1.39,1.39,0,0,0-.61-.11,1.47,1.47,0,0,0-.64.14,1.5,1.5,0,0,0-.47.4,2,2,0,0,0-.3.6,2.48,2.48,0,0,0-.1.73Z"/><path class="cls-8" d="M42.46,299.77l.07,1.13H41.6l-2.21-6.34H40.9Zm1.12-5.21h1.5l-2.19,6.34H42l.1-1.15Z"/><path class="cls-8" d="M48.76,301a3.13,3.13,0,0,1-1.63-.4,2.83,2.83,0,0,1-1.06-1.11A3.32,3.32,0,0,1,45.7,298v-.24a3.77,3.77,0,0,1,.38-1.73,2.78,2.78,0,0,1,1-1.14,3,3,0,0,1,3,0,2.4,2.4,0,0,1,.91,1.1,4.11,4.11,0,0,1,.3,1.62v.63H46.4v-1.05h3.47V297a1.93,1.93,0,0,0-.14-.69,1.19,1.19,0,0,0-.41-.53,1.25,1.25,0,0,0-.74-.2,1.16,1.16,0,0,0-.78.27,1.56,1.56,0,0,0-.48.73,3.34,3.34,0,0,0-.16,1.11V298a2.19,2.19,0,0,0,.2,1,1.51,1.51,0,0,0,.58.67,1.56,1.56,0,0,0,.9.25,2,2,0,0,0,.91-.2,1.94,1.94,0,0,0,.68-.57l.76.76a2.79,2.79,0,0,1-.9.82A2.94,2.94,0,0,1,48.76,301Z"/><path class="cls-8" d="M55.93,299.17a.76.76,0,0,0-.1-.37.89.89,0,0,0-.4-.3,4.09,4.09,0,0,0-.86-.26,5.76,5.76,0,0,1-1.19-.37,2.06,2.06,0,0,1-.79-.61,1.41,1.41,0,0,1-.29-.9,1.65,1.65,0,0,1,.3-.95,2,2,0,0,1,.85-.7,2.94,2.94,0,0,1,1.31-.27,3.22,3.22,0,0,1,1.37.27,2,2,0,0,1,.88.72,1.81,1.81,0,0,1,.31,1H55.86a.89.89,0,0,0-.27-.65,1.14,1.14,0,0,0-.84-.29,1.43,1.43,0,0,0-.58.11.82.82,0,0,0-.34.29.69.69,0,0,0-.12.39.55.55,0,0,0,.12.35.75.75,0,0,0,.39.27,4.43,4.43,0,0,0,.78.23,6.53,6.53,0,0,1,1.26.38,2,2,0,0,1,.81.61,1.54,1.54,0,0,1,.28,1,1.59,1.59,0,0,1-.32,1,2.14,2.14,0,0,1-.89.68,3.57,3.57,0,0,1-1.37.24,3.13,3.13,0,0,1-1.47-.31,2.26,2.26,0,0,1-.9-.79,1.81,1.81,0,0,1-.31-1h1.4a1.14,1.14,0,0,0,.21.61,1.12,1.12,0,0,0,.49.33,1.72,1.72,0,0,0,.6.1,1.67,1.67,0,0,0,.63-.1,1,1,0,0,0,.38-.27A.71.71,0,0,0,55.93,299.17Z"/><path class="cls-8" d="M61.51,295.63h-3.6v-1.07h3.6ZM60.38,293v6.11a1,1,0,0,0,.08.44.42.42,0,0,0,.24.2,1,1,0,0,0,.35.06l.28,0,.22,0v1.12a3.52,3.52,0,0,1-.41.1,2.83,2.83,0,0,1-.54,0,2.18,2.18,0,0,1-.87-.17,1.3,1.3,0,0,1-.59-.57,2.3,2.3,0,0,1-.21-1.06V293Z"/><path class="cls-8" d="M64,300.9H62.57v-6.34h1.37l.09,1.29Zm-.74-3.4a4.07,4.07,0,0,1,.29-1.57,2.43,2.43,0,0,1,.84-1.09,2.36,2.36,0,0,1,1.4-.4,2,2,0,0,1,1.42.52,2.27,2.27,0,0,1,.56,1.71v4.23H66.35v-4.09a1.54,1.54,0,0,0-.14-.71.76.76,0,0,0-.39-.36,1.32,1.32,0,0,0-.59-.11,1.51,1.51,0,0,0-.67.14,1.21,1.21,0,0,0-.44.4,1.9,1.9,0,0,0-.25.6,3.4,3.4,0,0,0-.08.73Zm3.74-.2a3.68,3.68,0,0,1,.28-1.43,2.46,2.46,0,0,1,.84-1,2.27,2.27,0,0,1,1.35-.39,2.39,2.39,0,0,1,1.11.24,1.59,1.59,0,0,1,.72.75,3.34,3.34,0,0,1,.25,1.38v4.09H70.12v-4.11a1.54,1.54,0,0,0-.14-.71.72.72,0,0,0-.38-.35,1.55,1.55,0,0,0-.59-.1,1.26,1.26,0,0,0-.57.12,1,1,0,0,0-.4.32,1.51,1.51,0,0,0-.25.49,1.9,1.9,0,0,0-.08.6Z"/><path class="cls-8" d="M75.82,301a3.15,3.15,0,0,1-1.63-.4,2.8,2.8,0,0,1-1-1.11,3.2,3.2,0,0,1-.37-1.55v-.24a3.77,3.77,0,0,1,.37-1.73,2.85,2.85,0,0,1,1-1.14,3,3,0,0,1,3,0,2.44,2.44,0,0,1,.9,1.1,4.11,4.11,0,0,1,.3,1.62v.63h-4.9v-1.05h3.46V297a1.74,1.74,0,0,0-.14-.69,1.17,1.17,0,0,0-.4-.53,1.29,1.29,0,0,0-.74-.2,1.16,1.16,0,0,0-.78.27,1.49,1.49,0,0,0-.48.73,3.32,3.32,0,0,0-.17,1.11V298a2.34,2.34,0,0,0,.2,1,1.58,1.58,0,0,0,1.49.92,2,2,0,0,0,.9-.2,1.89,1.89,0,0,0,.69-.57l.76.76a2.9,2.9,0,0,1-.9.82A3,3,0,0,1,75.82,301Z"/><path class="cls-8" d="M80.89,300.9H79.44v-6.34H80.8l.09,1.35Zm-.73-3.4a3.77,3.77,0,0,1,.33-1.6,2.55,2.55,0,0,1,.88-1.08,2.35,2.35,0,0,1,1.32-.38,2.38,2.38,0,0,1,1.07.23,1.51,1.51,0,0,1,.7.75,3.19,3.19,0,0,1,.26,1.39v4.09H83.26v-4.1a1.68,1.68,0,0,0-.13-.7.72.72,0,0,0-.37-.36,1.42,1.42,0,0,0-.61-.11,1.35,1.35,0,0,0-1.12.54,2,2,0,0,0-.3.6,2.86,2.86,0,0,0-.1.73Z"/><path class="cls-8" d="M89.07,295.63H85.48v-1.07h3.59ZM88,293v6.11a1,1,0,0,0,.08.44.4.4,0,0,0,.24.2,1,1,0,0,0,.35.06l.28,0,.22,0v1.12a3.52,3.52,0,0,1-.41.1,3,3,0,0,1-.54,0,2.14,2.14,0,0,1-.87-.17,1.3,1.3,0,0,1-.59-.57,2.3,2.3,0,0,1-.21-1.06V293Z"/><path class="cls-8" d="M94.58,303.33H93.12v-8.77h1.35l.11,1.21Zm4.11-5.55a4.55,4.55,0,0,1-.28,1.66,2.56,2.56,0,0,1-.84,1.15,2.11,2.11,0,0,1-1.33.42,2.16,2.16,0,0,1-1.33-.39,2.46,2.46,0,0,1-.81-1.07,5.91,5.91,0,0,1-.41-1.57v-.41a6.15,6.15,0,0,1,.41-1.64,2.56,2.56,0,0,1,.81-1.1,2.12,2.12,0,0,1,1.31-.39,2.23,2.23,0,0,1,1.35.4,2.5,2.5,0,0,1,.84,1.13,4.64,4.64,0,0,1,.28,1.69Zm-1.45-.12a3.33,3.33,0,0,0-.15-1,1.47,1.47,0,0,0-.45-.73,1.21,1.21,0,0,0-.82-.27,1.54,1.54,0,0,0-.63.12,1.22,1.22,0,0,0-.44.34,1.56,1.56,0,0,0-.28.51,3.91,3.91,0,0,0-.14.65v1.06a3,3,0,0,0,.24.77,1.28,1.28,0,0,0,.47.56,1.36,1.36,0,0,0,.79.21,1.17,1.17,0,0,0,.82-.29,1.75,1.75,0,0,0,.45-.75,3.66,3.66,0,0,0,.14-1Z"/><path class="cls-8" d="M102.68,301a3.15,3.15,0,0,1-1.63-.4,2.73,2.73,0,0,1-1-1.11,3.2,3.2,0,0,1-.37-1.55v-.24A3.77,3.77,0,0,1,100,296a2.85,2.85,0,0,1,1-1.14,3,3,0,0,1,3,0,2.44,2.44,0,0,1,.9,1.1,4.11,4.11,0,0,1,.3,1.62v.63h-4.91v-1.05h3.47V297a1.74,1.74,0,0,0-.14-.69,1.17,1.17,0,0,0-.4-.53,1.3,1.3,0,0,0-.75-.2,1.15,1.15,0,0,0-.77.27,1.5,1.5,0,0,0-.49.73,3.62,3.62,0,0,0-.16,1.11V298a2.34,2.34,0,0,0,.2,1,1.58,1.58,0,0,0,1.49.92,1.94,1.94,0,0,0,1.59-.77l.76.76a2.9,2.9,0,0,1-.9.82A3,3,0,0,1,102.68,301Z"/><path class="cls-8" d="M107.75,300.9H106.3v-6.34h1.36l.09,1.35Zm-.73-3.4a3.93,3.93,0,0,1,.32-1.6,2.65,2.65,0,0,1,.89-1.08,2.35,2.35,0,0,1,1.32-.38,2.38,2.38,0,0,1,1.07.23,1.51,1.51,0,0,1,.7.75,3.2,3.2,0,0,1,.25,1.39v4.09h-1.45v-4.1a1.68,1.68,0,0,0-.13-.7.7.7,0,0,0-.38-.36,1.34,1.34,0,0,0-.6-.11,1.35,1.35,0,0,0-1.12.54,2,2,0,0,0-.3.6,2.86,2.86,0,0,0-.1.73Z"/><path class="cls-8" d="M112.74,297.67A4.43,4.43,0,0,1,113,296a2.53,2.53,0,0,1,.86-1.13,2.13,2.13,0,0,1,1.33-.41,2,2,0,0,1,1.28.4,2.59,2.59,0,0,1,.82,1.1,5.89,5.89,0,0,1,.39,1.64v.34a5.77,5.77,0,0,1-.39,1.6,2.69,2.69,0,0,1-.81,1.09,2.06,2.06,0,0,1-1.3.4,2.12,2.12,0,0,1-1.32-.42,2.62,2.62,0,0,1-.86-1.14,4.33,4.33,0,0,1-.3-1.65Zm1.45.13a3.64,3.64,0,0,0,.14,1,1.47,1.47,0,0,0,.45.73,1.17,1.17,0,0,0,.81.27,1.41,1.41,0,0,0,.78-.2,1.34,1.34,0,0,0,.48-.57,2.57,2.57,0,0,0,.24-.8v-1a3.1,3.1,0,0,0-.15-.65,1.73,1.73,0,0,0-.28-.52,1.34,1.34,0,0,0-.44-.34,1.52,1.52,0,0,0-.62-.12,1.21,1.21,0,0,0-.82.27,1.5,1.5,0,0,0-.45.74,3.66,3.66,0,0,0-.14,1Zm2.66-5.9h1.45v9H117l-.13-1.33Z"/><path class="cls-8" d="M119.77,292.9a.76.76,0,0,1,.22-.56.82.82,0,0,1,.6-.22.86.86,0,0,1,.61.22.76.76,0,0,1,.22.56.74.74,0,0,1-.22.55.86.86,0,0,1-.61.22.82.82,0,0,1-.6-.22A.74.74,0,0,1,119.77,292.9Zm1.55,8h-1.45v-6.34h1.45Z"/><path class="cls-8" d="M124.28,300.9h-1.45v-6.34h1.37l.08,1.35Zm-.72-3.4a3.77,3.77,0,0,1,.32-1.6,2.63,2.63,0,0,1,.88-1.08,2.36,2.36,0,0,1,1.33-.38,2.41,2.41,0,0,1,1.07.23,1.56,1.56,0,0,1,.7.75,3.2,3.2,0,0,1,.25,1.39v4.09h-1.46v-4.1a1.69,1.69,0,0,0-.12-.7.74.74,0,0,0-.38-.36,1.42,1.42,0,0,0-.61-.11,1.47,1.47,0,0,0-.64.14,1.5,1.5,0,0,0-.47.4,2,2,0,0,0-.3.6,2.48,2.48,0,0,0-.1.73Z"/><path class="cls-8" d="M129.28,297.67a4.25,4.25,0,0,1,.31-1.69,2.57,2.57,0,0,1,.88-1.13,2.21,2.21,0,0,1,1.35-.41,2.35,2.35,0,0,1,1.07.22,2,2,0,0,1,.72.65,3.18,3.18,0,0,1,.46,1,7.32,7.32,0,0,1,.25,1.27v.34a6.15,6.15,0,0,1-.39,1.6,2.52,2.52,0,0,1-.81,1.09,2,2,0,0,1-1.31.4,2.2,2.2,0,0,1-1.34-.42,2.74,2.74,0,0,1-.88-1.14,4.33,4.33,0,0,1-.31-1.65Zm5.63-3.11v6.15a2.8,2.8,0,0,1-.37,1.46,2.43,2.43,0,0,1-1,.91,3.5,3.5,0,0,1-1.52.31,3.43,3.43,0,0,1-.8-.1,3.33,3.33,0,0,1-.86-.33,2.13,2.13,0,0,1-.7-.6l.68-.88a2.14,2.14,0,0,0,.75.58,1.93,1.93,0,0,0,.85.2,1.55,1.55,0,0,0,1.12-.4,1.48,1.48,0,0,0,.41-1.12V296l.13-1.44Zm-4.17,3.24a3.31,3.31,0,0,0,.15,1,1.57,1.57,0,0,0,.47.73,1.23,1.23,0,0,0,.82.27,1.52,1.52,0,0,0,.81-.2,1.5,1.5,0,0,0,.48-.57,3.25,3.25,0,0,0,.24-.8v-1a3.11,3.11,0,0,0-.14-.65,1.75,1.75,0,0,0-.29-.52,1.28,1.28,0,0,0-.45-.34,1.56,1.56,0,0,0-.64-.12,1.23,1.23,0,0,0-.82.27,1.54,1.54,0,0,0-.48.74,3.33,3.33,0,0,0-.15,1Z"/><path class="cls-9" d="M60.56,360.33l.1,1.86h-1l-2-8.54H59.2Zm1.54-6.68H63l-.08,1.62-1.81,6.92h-1l.24-1.81Zm2.95,6.75.23,1.79h-1l-1.78-6.92-.07-1.62h.9Zm1.21-6.75h1.5l-2,8.54h-1l.13-1.87Z"/><path class="cls-9" d="M70.44,362.19h-1.5v-8.54h1.5Z"/><path class="cls-9" d="M78.45,354.87H71.66v-1.22h6.79Zm-2.66,7.32h-1.5v-8.54h1.5Z"/><path class="cls-9" d="M81.08,362.19H79.57v-8.54h1.51Zm4.11-3.78H80.7v-1.22h4.49Zm1.17,3.78H84.85v-8.54h1.51Z"/><path class="cls-9" d="M89.59,362.19H88.08v-8.54h1.51Zm-.84,0V361h1.8a2.38,2.38,0,0,0,1.32-.34,2.07,2.07,0,0,0,.79-1,3.9,3.9,0,0,0,.27-1.52v-.45a4,4,0,0,0-.26-1.53,2,2,0,0,0-.79-1,2.33,2.33,0,0,0-1.27-.33H88.71v-1.22h1.91a3.84,3.84,0,0,1,2,.51A3.46,3.46,0,0,1,94,355.57a4.41,4.41,0,0,1,.49,2.13v.44a4.42,4.42,0,0,1-.49,2.14,3.48,3.48,0,0,1-1.36,1.41,4.1,4.1,0,0,1-2,.5Z"/><path class="cls-9" d="M98.94,353.65a4.19,4.19,0,0,1,1.67.3,2.22,2.22,0,0,1,1.06.86,2.65,2.65,0,0,1,.37,1.42,2.54,2.54,0,0,1-.24,1.13,2.37,2.37,0,0,1-.66.82,3.25,3.25,0,0,1-1,.51l-.46.23H97v-1.21h2a1.87,1.87,0,0,0,.87-.18,1.22,1.22,0,0,0,.53-.5,1.53,1.53,0,0,0,.17-.72,1.45,1.45,0,0,0-.38-1.05,1.6,1.6,0,0,0-1.2-.39H97.42v7.32H95.91v-8.54Zm-.17,4.71h1.58l2,3.76v.08h-1.62Z"/><path class="cls-9" d="M104.31,362.19h-1.59l3.21-8.54h1l-.1,1.22Zm4.53-2h-4.65V359h4.65Zm-2.44-5.36-.11-1.22h1l3.23,8.54h-1.59Z"/><path class="cls-9" d="M113.5,360.33l.1,1.86h-1l-2-8.54h1.5Zm1.54-6.68H116l-.08,1.62-1.81,6.92h-1l.25-1.81ZM118,360.4l.23,1.79h-.95l-1.78-6.92-.07-1.62h.9Zm1.21-6.75h1.51l-2,8.54h-1l.12-1.87Z"/><path class="cls-10" d="M196.88,362.19h-1.51v-8.54h1.51Zm-.85,0,0-1.22h1.8a2.34,2.34,0,0,0,1.31-.34,2,2,0,0,0,.8-1,3.9,3.9,0,0,0,.27-1.52v-.45a3.84,3.84,0,0,0-.27-1.53,2,2,0,0,0-.78-1,2.37,2.37,0,0,0-1.28-.33H196v-1.22h1.9a3.88,3.88,0,0,1,2,.51,3.46,3.46,0,0,1,1.35,1.41,4.41,4.41,0,0,1,.49,2.13v.44a4.42,4.42,0,0,1-.49,2.14,3.55,3.55,0,0,1-1.36,1.41,4.1,4.1,0,0,1-2.05.5Z"/><path class="cls-10" d="M204.71,362.19H203.2v-8.54h1.51Zm4.06-7.32h-4.48v-1.22h4.48Zm-.57,3.52h-3.91v-1.2h3.91Zm.6,3.8h-4.51V361h4.51Z"/><path class="cls-10" d="M211,359v-1.22h2.21a2,2,0,0,0,.92-.18,1.17,1.17,0,0,0,.51-.5,1.64,1.64,0,0,0,.17-.74,1.72,1.72,0,0,0-.17-.75,1.31,1.31,0,0,0-.51-.56,1.76,1.76,0,0,0-.92-.22h-1.75v7.32H210v-8.54h3.26a3.64,3.64,0,0,1,1.69.36,2.42,2.42,0,0,1,1.06,1,2.66,2.66,0,0,1,.37,1.42,2.61,2.61,0,0,1-.37,1.42,2.32,2.32,0,0,1-1.06.91,4.08,4.08,0,0,1-1.69.32Z"/><path class="cls-10" d="M224.49,358.14a5.07,5.07,0,0,1-.45,2.23,3.28,3.28,0,0,1-1.24,1.43,3.36,3.36,0,0,1-1.86.5,3.4,3.4,0,0,1-1.85-.5,3.46,3.46,0,0,1-1.26-1.43,5.07,5.07,0,0,1-.45-2.23v-.44a5.13,5.13,0,0,1,.45-2.23,3.32,3.32,0,0,1,3.1-1.93,3.36,3.36,0,0,1,1.86.5,3.3,3.3,0,0,1,1.25,1.43,5.13,5.13,0,0,1,.45,2.23Zm-1.52-.45a4.59,4.59,0,0,0-.24-1.59,2,2,0,0,0-.7-1,2,2,0,0,0-2.19,0,2.07,2.07,0,0,0-.69,1,4.57,4.57,0,0,0-.25,1.59v.45a4.67,4.67,0,0,0,.25,1.6,2.09,2.09,0,0,0,.7,1,1.95,1.95,0,0,0,2.2,0,2.07,2.07,0,0,0,.69-1,5,5,0,0,0,.23-1.6Z"/><path class="cls-10" d="M230.41,360a1.13,1.13,0,0,0-.15-.59,1.29,1.29,0,0,0-.53-.45,7,7,0,0,0-1.13-.43,7.69,7.69,0,0,1-1.12-.42,4.47,4.47,0,0,1-.89-.54,2.27,2.27,0,0,1-.6-.72,2,2,0,0,1-.21-.94,2.06,2.06,0,0,1,.38-1.22,2.53,2.53,0,0,1,1.08-.83,3.87,3.87,0,0,1,1.58-.3,3.57,3.57,0,0,1,1.66.35,2.56,2.56,0,0,1,1.06.94,2.39,2.39,0,0,1,.37,1.32H230.4a1.57,1.57,0,0,0-.17-.73,1.22,1.22,0,0,0-.53-.5,1.93,1.93,0,0,0-.89-.18,2.08,2.08,0,0,0-.85.16,1.12,1.12,0,0,0-.51.41,1,1,0,0,0-.16.58.85.85,0,0,0,.2.55,1.73,1.73,0,0,0,.6.44,7,7,0,0,0,1,.38,7.19,7.19,0,0,1,1.58.64,2.64,2.64,0,0,1,.93.88,2.18,2.18,0,0,1,.31,1.19,2.1,2.1,0,0,1-.38,1.25,2.36,2.36,0,0,1-1.06.8,4.14,4.14,0,0,1-1.61.28,4.52,4.52,0,0,1-1.21-.16,3.58,3.58,0,0,1-1.08-.51,2.51,2.51,0,0,1-.78-.84,2.43,2.43,0,0,1-.29-1.21H227a1.48,1.48,0,0,0,.14.7,1.19,1.19,0,0,0,.39.47,1.45,1.45,0,0,0,.59.27,3.24,3.24,0,0,0,.72.08,2.32,2.32,0,0,0,.85-.14,1.1,1.1,0,0,0,.51-.4A1,1,0,0,0,230.41,360Z"/><path class="cls-10" d="M234.82,362.19h-1.51v-8.54h1.51Z"/><path class="cls-10" d="M242.83,354.87H236v-1.22h6.8Zm-2.66,7.32h-1.5v-8.54h1.5Z"/></svg>