<svg id="Layer_1" data-name="Layer 1" xmlns="http://www.w3.org/2000/svg" viewBox="0 0 309 390"><defs><style>.cls-1,.cls-8{fill:#fff;}.cls-2{fill:#1c272d;}.cls-3,.cls-5{fill:#f6f8fc;stroke:#dce0e8;stroke-miterlimit:10;}.cls-4{fill:#1d212a;}.cls-5{opacity:0.65;}.cls-6{fill:#1d67e1;}.cls-7{fill:#616774;}.cls-8{opacity:0.54;}.cls-9{fill:#ffcb3d;}.cls-10{fill:#00dcc4;}</style></defs><rect class="cls-1" y="0.25" width="309" height="390"/><path class="cls-2" d="M40.19,96.05a4.45,4.45,0,0,1-.63,2,3.71,3.71,0,0,1-1.5,1.38,5.07,5.07,0,0,1-2.35.5,4.43,4.43,0,0,1-2.44-.66,4.3,4.3,0,0,1-1.59-1.87,6.67,6.67,0,0,1-.56-2.86v-.9a6.6,6.6,0,0,1,.57-2.86,4.39,4.39,0,0,1,1.62-1.88,4.57,4.57,0,0,1,2.48-.66,4.93,4.93,0,0,1,2.31.5,3.65,3.65,0,0,1,1.46,1.4,4.75,4.75,0,0,1,.63,2h-2a3,3,0,0,0-.64-1.69,2.25,2.25,0,0,0-1.75-.6,2.41,2.41,0,0,0-1.46.43,2.6,2.6,0,0,0-.88,1.27,6.1,6.1,0,0,0-.3,2v.92a6.52,6.52,0,0,0,.27,2,2.61,2.61,0,0,0,.82,1.3,2.25,2.25,0,0,0,1.47.46A3,3,0,0,0,37.05,98a1.77,1.77,0,0,0,.78-.75,3.3,3.3,0,0,0,.34-1.23Z"/><path class="cls-2" d="M43.69,99.77H41.75V91.32h1.84l.1,1.66Zm2.55-6.67-.38,0h-.4a2.13,2.13,0,0,0-1.06.23,1.51,1.51,0,0,0-.65.65,2.78,2.78,0,0,0-.26,1h-.44A6.08,6.08,0,0,1,43.33,93a3.18,3.18,0,0,1,.84-1.35,2.08,2.08,0,0,1,1.41-.5l.37,0a2.28,2.28,0,0,1,.3.07Z"/><path class="cls-2" d="M51.17,99.93A4.22,4.22,0,0,1,49,99.39a3.8,3.8,0,0,1-1.4-1.47,4.35,4.35,0,0,1-.5-2.08v-.32a5,5,0,0,1,.5-2.3A3.77,3.77,0,0,1,49,91.7a4,4,0,0,1,4,0,3.22,3.22,0,0,1,1.21,1.46,5.55,5.55,0,0,1,.39,2.16v.84H48v-1.4h4.63V94.6a2.52,2.52,0,0,0-.19-.92,1.5,1.5,0,0,0-.54-.7,1.73,1.73,0,0,0-1-.26,1.59,1.59,0,0,0-1,.34,2.24,2.24,0,0,0-.64,1A4.66,4.66,0,0,0,49,95.52v.32a3,3,0,0,0,.27,1.29,2,2,0,0,0,.77.9,2.1,2.1,0,0,0,1.21.34,2.6,2.6,0,0,0,1.21-.27,2.66,2.66,0,0,0,.91-.77l1,1a3.75,3.75,0,0,1-3.25,1.58Z"/><path class="cls-2" d="M61.05,95.82H59.72a2.57,2.57,0,0,0-1.55.38,1.19,1.19,0,0,0-.52,1,1.1,1.1,0,0,0,.34.83,1.34,1.34,0,0,0,1,.33,2.14,2.14,0,0,0,1-.23,2.09,2.09,0,0,0,.67-.57,1.24,1.24,0,0,0,.25-.64l.61.87a2.68,2.68,0,0,1-.31.68,3.39,3.39,0,0,1-.59.69,3,3,0,0,1-.86.53,2.91,2.91,0,0,1-1.15.21,3.25,3.25,0,0,1-1.48-.33,2.62,2.62,0,0,1-1-.9,2.43,2.43,0,0,1-.37-1.3,2.39,2.39,0,0,1,1-2.06,4.85,4.85,0,0,1,2.86-.72H61Zm-.3-1.76a1.49,1.49,0,0,0-.36-1,1.43,1.43,0,0,0-1.1-.39,1.71,1.71,0,0,0-.77.16,1.19,1.19,0,0,0-.5.41,1,1,0,0,0-.18.58H55.9a2.14,2.14,0,0,1,.43-1.28,3.1,3.1,0,0,1,1.21-1,4.32,4.32,0,0,1,1.86-.37,4.24,4.24,0,0,1,1.69.32,2.6,2.6,0,0,1,1.17,1,2.87,2.87,0,0,1,.43,1.63V97.8a6.41,6.41,0,0,0,.08,1,3.19,3.19,0,0,0,.25.79v.13H61a3.11,3.11,0,0,1-.2-.79,6.07,6.07,0,0,1-.08-.94Z"/><path class="cls-2" d="M68.56,92.75h-4.8V91.32h4.8Zm-1.5-3.5v8.14a1.17,1.17,0,0,0,.11.59.55.55,0,0,0,.31.27,1.33,1.33,0,0,0,.47.07l.37,0,.29,0v1.49a3.57,3.57,0,0,1-.54.13,3.91,3.91,0,0,1-.73.06,2.66,2.66,0,0,1-1.15-.24,1.7,1.7,0,0,1-.79-.76,3,3,0,0,1-.28-1.4V89.25Z"/><path class="cls-2" d="M73.72,99.93a4.18,4.18,0,0,1-2.17-.54,3.82,3.82,0,0,1-1.41-1.47,4.34,4.34,0,0,1-.49-2.08v-.32a5,5,0,0,1,.5-2.3,3.74,3.74,0,0,1,1.37-1.52,4,4,0,0,1,4,0,3.27,3.27,0,0,1,1.2,1.46,5.37,5.37,0,0,1,.4,2.16v.84H70.58v-1.4H75.2V94.6a2.74,2.74,0,0,0-.18-.92,1.58,1.58,0,0,0-.55-.7,1.67,1.67,0,0,0-1-.26,1.57,1.57,0,0,0-1,.34,2.15,2.15,0,0,0-.64,1,4.39,4.39,0,0,0-.22,1.48v.32a3.13,3.13,0,0,0,.26,1.29,2.14,2.14,0,0,0,.78.9,2.08,2.08,0,0,0,1.21.34A2.59,2.59,0,0,0,75,98.1a2.49,2.49,0,0,0,.91-.77l1,1a3.89,3.89,0,0,1-1.2,1.09A3.84,3.84,0,0,1,73.72,99.93Z"/><path class="cls-2" d="M87.26,97.47a.93.93,0,0,0-.14-.49,1.18,1.18,0,0,0-.53-.4,5.21,5.21,0,0,0-1.14-.35,7.25,7.25,0,0,1-1.59-.5,2.75,2.75,0,0,1-1.06-.8,1.93,1.93,0,0,1-.38-1.2,2.15,2.15,0,0,1,.4-1.27A2.79,2.79,0,0,1,84,91.52a3.93,3.93,0,0,1,1.75-.36,4.25,4.25,0,0,1,1.82.36,2.78,2.78,0,0,1,1.18,1,2.4,2.4,0,0,1,.41,1.37H87.17A1.21,1.21,0,0,0,86.8,93a1.51,1.51,0,0,0-1.11-.38,1.73,1.73,0,0,0-.77.15,1.11,1.11,0,0,0-.46.38,1,1,0,0,0-.15.52.81.81,0,0,0,.15.48,1.31,1.31,0,0,0,.52.36,6.32,6.32,0,0,0,1,.29,9.35,9.35,0,0,1,1.68.51,2.63,2.63,0,0,1,1.08.82,2.06,2.06,0,0,1,.38,1.27,2.11,2.11,0,0,1-.43,1.32,2.77,2.77,0,0,1-1.19.91,4.62,4.62,0,0,1-1.82.33,4.15,4.15,0,0,1-2-.42,3.05,3.05,0,0,1-1.21-1.05,2.5,2.5,0,0,1-.41-1.34H84a1.33,1.33,0,0,0,.28.8,1.5,1.5,0,0,0,.64.44,2.46,2.46,0,0,0,.81.14,2.51,2.51,0,0,0,.84-.13,1.08,1.08,0,0,0,.5-.37A.83.83,0,0,0,87.26,97.47Z"/><path class="cls-2" d="M95.82,95.82H94.49a2.59,2.59,0,0,0-1.55.38,1.21,1.21,0,0,0-.52,1,1.11,1.11,0,0,0,.35.83,1.34,1.34,0,0,0,1,.33,2.07,2.07,0,0,0,1-.23,1.9,1.9,0,0,0,.67-.57,1.24,1.24,0,0,0,.25-.64l.62.87a3.16,3.16,0,0,1-.32.68,3.1,3.1,0,0,1-.59.69,2.84,2.84,0,0,1-.86.53,2.91,2.91,0,0,1-1.15.21,3.18,3.18,0,0,1-1.47-.33,2.49,2.49,0,0,1-1-.9,2.35,2.35,0,0,1-.37-1.3,2.38,2.38,0,0,1,1-2.06,4.9,4.9,0,0,1,2.86-.72h1.46Zm-.3-1.76a1.49,1.49,0,0,0-.36-1,1.43,1.43,0,0,0-1.1-.39,1.67,1.67,0,0,0-.76.16,1.16,1.16,0,0,0-.51.41,1,1,0,0,0-.18.58H90.67a2.21,2.21,0,0,1,.43-1.28,3.06,3.06,0,0,1,1.22-1,4.24,4.24,0,0,1,1.85-.37,4.33,4.33,0,0,1,1.7.32,2.72,2.72,0,0,1,1.17,1,3,3,0,0,1,.42,1.63V97.8a5.41,5.41,0,0,0,.09,1,3.69,3.69,0,0,0,.24.79v.13h-2A3.07,3.07,0,0,1,95.6,99a6.07,6.07,0,0,1-.08-.94Z"/><path class="cls-2" d="M102.59,98.26l.09,1.51h-1.24l-3-8.45h2Zm1.49-6.94h2l-2.92,8.45h-1.25l.12-1.53Z"/><path class="cls-2" d="M107.24,89.11a1,1,0,0,1,.29-.74,1.06,1.06,0,0,1,.81-.29,1.09,1.09,0,0,1,.81.29,1.05,1.05,0,0,1,0,1.47,1.13,1.13,0,0,1-.81.29,1.1,1.1,0,0,1-.81-.29A1,1,0,0,1,107.24,89.11Zm2.07,10.66h-1.94V91.32h1.94Z"/><path class="cls-2" d="M113.26,99.77h-1.94V91.32h1.82l.12,1.8Zm-1-4.52a5.15,5.15,0,0,1,.43-2.15,3.4,3.4,0,0,1,1.18-1.43,3.07,3.07,0,0,1,1.77-.51,3.16,3.16,0,0,1,1.42.31,2.11,2.11,0,0,1,.93,1,4.2,4.2,0,0,1,.34,1.86v5.44h-1.94V94.31a2.18,2.18,0,0,0-.17-.93,1,1,0,0,0-.5-.49,2.14,2.14,0,0,0-.81-.14,1.84,1.84,0,0,0-.86.19,1.91,1.91,0,0,0-.63.54,2.45,2.45,0,0,0-.4.79,3.39,3.39,0,0,0-.13,1Z"/><path class="cls-2" d="M119.92,95.48a5.84,5.84,0,0,1,.41-2.26,3.52,3.52,0,0,1,1.17-1.51,3,3,0,0,1,1.81-.55,3.07,3.07,0,0,1,1.42.3,2.66,2.66,0,0,1,1,.86,4.53,4.53,0,0,1,.61,1.33,10,10,0,0,1,.33,1.7v.45a8.19,8.19,0,0,1-.52,2.14A3.54,3.54,0,0,1,125,99.4a2.79,2.79,0,0,1-1.74.53,2.94,2.94,0,0,1-1.79-.56,3.49,3.49,0,0,1-1.17-1.53,5.46,5.46,0,0,1-.42-2.2Zm7.5-4.16v8.21a3.61,3.61,0,0,1-.49,1.94,3.15,3.15,0,0,1-1.36,1.22,4.76,4.76,0,0,1-2,.41,4.93,4.93,0,0,1-1.08-.14,4.2,4.2,0,0,1-1.14-.44,3,3,0,0,1-.93-.79l.91-1.18a3,3,0,0,0,1,.78,2.65,2.65,0,0,0,1.15.25,2,2,0,0,0,1.48-.52,2,2,0,0,0,.55-1.5V93.24l.18-1.92Zm-5.56,4.32a4.46,4.46,0,0,0,.2,1.36,2.19,2.19,0,0,0,.63,1,1.66,1.66,0,0,0,1.1.36,1.85,1.85,0,0,0,1.07-.28,1.74,1.74,0,0,0,.64-.75,3.52,3.52,0,0,0,.32-1.07V94.92a4,4,0,0,0-.18-.87,2,2,0,0,0-.39-.68,1.61,1.61,0,0,0-.6-.46,2,2,0,0,0-.84-.16,1.68,1.68,0,0,0-1.11.36,2.17,2.17,0,0,0-.63,1,4.25,4.25,0,0,0-.21,1.38Z"/><path class="cls-2" d="M133,95.48a5.66,5.66,0,0,1,.41-2.26,3.38,3.38,0,0,1,1.17-1.51,3,3,0,0,1,1.81-.55,3.06,3.06,0,0,1,1.41.3,2.59,2.59,0,0,1,1,.86,4.29,4.29,0,0,1,.61,1.33,11.1,11.1,0,0,1,.34,1.7v.45a8.18,8.18,0,0,1-.53,2.14,3.44,3.44,0,0,1-1.07,1.46,2.8,2.8,0,0,1-1.75.53,3,3,0,0,1-1.79-.56,3.65,3.65,0,0,1-1.17-1.53,5.64,5.64,0,0,1-.41-2.2Zm7.5-4.16v8.21a3.7,3.7,0,0,1-.49,1.94,3.18,3.18,0,0,1-1.37,1.22,4.73,4.73,0,0,1-2,.41,4.84,4.84,0,0,1-1.07-.14,4.14,4.14,0,0,1-1.15-.44,3,3,0,0,1-.93-.79l.91-1.18a2.93,2.93,0,0,0,1,.78,2.63,2.63,0,0,0,1.14.25,2,2,0,0,0,1.49-.52,2,2,0,0,0,.54-1.5V93.24l.18-1.92Zm-5.56,4.32a4.18,4.18,0,0,0,.2,1.36,2,2,0,0,0,.63,1,1.63,1.63,0,0,0,1.09.36,1.88,1.88,0,0,0,1.08-.28,1.81,1.81,0,0,0,.64-.75,3.83,3.83,0,0,0,.32-1.07V94.92a4.61,4.61,0,0,0-.19-.87,2.14,2.14,0,0,0-.38-.68,1.64,1.64,0,0,0-.61-.46,2,2,0,0,0-.84-.16,1.64,1.64,0,0,0-1.1.36,2.11,2.11,0,0,0-.64,1,4.26,4.26,0,0,0-.2,1.38Z"/><path class="cls-2" d="M142,95.47a5.05,5.05,0,0,1,.47-2.21,3.7,3.7,0,0,1,1.35-1.53,3.78,3.78,0,0,1,2.11-.57,3.83,3.83,0,0,1,2.13.57,3.7,3.7,0,0,1,1.35,1.53,5.05,5.05,0,0,1,.47,2.21v.16a5,5,0,0,1-.47,2.2,3.72,3.72,0,0,1-1.34,1.54,4.31,4.31,0,0,1-4.25,0,3.67,3.67,0,0,1-1.35-1.54,5,5,0,0,1-.47-2.2Zm1.94.16a4.24,4.24,0,0,0,.21,1.37,2.21,2.21,0,0,0,.65,1,1.73,1.73,0,0,0,1.15.37,1.67,1.67,0,0,0,1.13-.37,2.13,2.13,0,0,0,.65-1,4.24,4.24,0,0,0,.21-1.37v-.16a4.28,4.28,0,0,0-.21-1.37,2.13,2.13,0,0,0-.65-1,1.68,1.68,0,0,0-1.15-.38,1.63,1.63,0,0,0-1.13.38,2.06,2.06,0,0,0-.65,1,4.28,4.28,0,0,0-.21,1.37Z"/><path class="cls-2" d="M156.52,95.82h-1.33a2.55,2.55,0,0,0-1.55.38,1.19,1.19,0,0,0-.52,1,1.1,1.1,0,0,0,.34.83,1.34,1.34,0,0,0,1,.33,2.14,2.14,0,0,0,1-.23,2,2,0,0,0,.66-.57,1.09,1.09,0,0,0,.25-.64l.62.87a3.08,3.08,0,0,1-.31.68,3.39,3.39,0,0,1-.59.69,3,3,0,0,1-.86.53,2.91,2.91,0,0,1-1.15.21,3.22,3.22,0,0,1-1.48-.33,2.62,2.62,0,0,1-1-.9,2.35,2.35,0,0,1-.37-1.3,2.39,2.39,0,0,1,1-2.06,4.85,4.85,0,0,1,2.86-.72h1.45Zm-.3-1.76a1.49,1.49,0,0,0-.36-1,1.45,1.45,0,0,0-1.1-.39,1.71,1.71,0,0,0-.77.16,1.14,1.14,0,0,0-.5.41,1,1,0,0,0-.18.58h-1.94a2.14,2.14,0,0,1,.43-1.28,3,3,0,0,1,1.21-1,4.74,4.74,0,0,1,3.55,0,2.6,2.6,0,0,1,1.17,1,2.87,2.87,0,0,1,.43,1.63V97.8a6.41,6.41,0,0,0,.08,1,3.19,3.19,0,0,0,.25.79v.13h-2a3.07,3.07,0,0,1-.21-.79,6,6,0,0,1-.07-.94Z"/><path class="cls-2" d="M162.17,99.77h-1.93v-12h1.93Z"/><path class="cls-2" d="M168.93,97.47a.93.93,0,0,0-.14-.49,1.2,1.2,0,0,0-.52-.4,5.32,5.32,0,0,0-1.15-.35,7,7,0,0,1-1.58-.5,2.79,2.79,0,0,1-1.07-.8,1.93,1.93,0,0,1-.38-1.2,2.22,2.22,0,0,1,.4-1.27,2.79,2.79,0,0,1,1.13-.94,4,4,0,0,1,1.75-.36,4.27,4.27,0,0,1,1.83.36,2.81,2.81,0,0,1,1.17,1,2.33,2.33,0,0,1,.41,1.37h-1.94a1.21,1.21,0,0,0-.37-.88,1.48,1.48,0,0,0-1.11-.38,1.76,1.76,0,0,0-.77.15,1.11,1.11,0,0,0-.46.38,1,1,0,0,0-.15.52.81.81,0,0,0,.15.48,1.38,1.38,0,0,0,.52.36,6.19,6.19,0,0,0,1,.29,9.48,9.48,0,0,1,1.67.51,2.63,2.63,0,0,1,1.08.82,2.06,2.06,0,0,1,.38,1.27,2.11,2.11,0,0,1-.43,1.32,2.77,2.77,0,0,1-1.19.91,4.59,4.59,0,0,1-1.82.33,4.18,4.18,0,0,1-2-.42,3.05,3.05,0,0,1-1.21-1.05,2.5,2.5,0,0,1-.41-1.34h1.87a1.33,1.33,0,0,0,.29.8,1.39,1.39,0,0,0,.64.44,2.38,2.38,0,0,0,.81.14,2.45,2.45,0,0,0,.83-.13,1.08,1.08,0,0,0,.5-.37A.83.83,0,0,0,168.93,97.47Z"/><path class="cls-2" d="M181.47,95.82h-1.33a2.57,2.57,0,0,0-1.55.38,1.19,1.19,0,0,0-.52,1,1.11,1.11,0,0,0,.35.83,1.32,1.32,0,0,0,1,.33,2.11,2.11,0,0,0,1-.23,2,2,0,0,0,.67-.57,1.24,1.24,0,0,0,.25-.64l.62.87a3.16,3.16,0,0,1-.32.68,3.39,3.39,0,0,1-.59.69,3,3,0,0,1-.86.53,2.91,2.91,0,0,1-1.15.21,3.25,3.25,0,0,1-1.48-.33,2.62,2.62,0,0,1-1-.9,2.43,2.43,0,0,1-.37-1.3,2.39,2.39,0,0,1,1-2.06,4.87,4.87,0,0,1,2.86-.72h1.45Zm-.3-1.76a1.49,1.49,0,0,0-.36-1,1.43,1.43,0,0,0-1.1-.39,1.67,1.67,0,0,0-.76.16,1.16,1.16,0,0,0-.51.41,1,1,0,0,0-.18.58h-1.94a2.14,2.14,0,0,1,.43-1.28,3.06,3.06,0,0,1,1.22-1,4.24,4.24,0,0,1,1.85-.37,4.33,4.33,0,0,1,1.7.32,2.63,2.63,0,0,1,1.16,1,2.87,2.87,0,0,1,.43,1.63V97.8a5.41,5.41,0,0,0,.09,1,2.82,2.82,0,0,0,.24.79v.13h-2a3.6,3.6,0,0,1-.2-.79,6.07,6.07,0,0,1-.08-.94Z"/><path class="cls-2" d="M187,99.77H185V91.32h1.82l.12,1.8Zm-1-4.52a5.15,5.15,0,0,1,.43-2.15,3.4,3.4,0,0,1,1.18-1.43,3.06,3.06,0,0,1,1.76-.51,3.21,3.21,0,0,1,1.43.31,2.11,2.11,0,0,1,.93,1,4.2,4.2,0,0,1,.34,1.86v5.44h-2V94.31a2.19,2.19,0,0,0-.16-.93,1,1,0,0,0-.5-.49,2.21,2.21,0,0,0-.81-.14,1.76,1.76,0,0,0-1.49.73,2.27,2.27,0,0,0-.4.79,3.39,3.39,0,0,0-.14,1Z"/><path class="cls-2" d="M193.63,95.48a5.85,5.85,0,0,1,.4-2.26,3.47,3.47,0,0,1,1.14-1.51,2.9,2.9,0,0,1,1.78-.55,2.75,2.75,0,0,1,1.72.53,3.72,3.72,0,0,1,1.08,1.48,7.5,7.5,0,0,1,.52,2.18v.45a7.46,7.46,0,0,1-.52,2.14,3.54,3.54,0,0,1-1.08,1.46,2.78,2.78,0,0,1-1.73.53,2.9,2.9,0,0,1-1.77-.56A3.59,3.59,0,0,1,194,97.84a5.64,5.64,0,0,1-.4-2.2Zm1.93.16a4.8,4.8,0,0,0,.19,1.36,2.15,2.15,0,0,0,.6,1,1.57,1.57,0,0,0,1.08.36,1.77,1.77,0,0,0,1-.28,1.74,1.74,0,0,0,.64-.75,3.52,3.52,0,0,0,.32-1.07V94.92a4.61,4.61,0,0,0-.19-.87,2.35,2.35,0,0,0-.38-.68,1.66,1.66,0,0,0-.59-.46,1.94,1.94,0,0,0-.82-.16,1.59,1.59,0,0,0-1.09.36,2.07,2.07,0,0,0-.61,1,4.9,4.9,0,0,0-.19,1.38Zm3.55-7.87h1.94v12h-1.76L199.11,98Z"/><path class="cls-2" d="M209.7,97.87l.1,1.9h-1.23l-2.28-8.45h1.89Zm1.52-6.55h1.23l-.32,2.06-2,6.39h-1.1l.2-1.93Zm3.37,6.45.22,2h-1.1l-2-6.4-.32-2.05h1.26Zm1.11-6.45h1.89l-2.28,8.45h-1.22l.15-2Z"/><path class="cls-2" d="M223.89,95.82h-1.33a2.59,2.59,0,0,0-1.55.38,1.21,1.21,0,0,0-.52,1,1.11,1.11,0,0,0,.35.83,1.34,1.34,0,0,0,1,.33,2.07,2.07,0,0,0,1-.23,1.9,1.9,0,0,0,.67-.57,1.24,1.24,0,0,0,.25-.64l.62.87a3.16,3.16,0,0,1-.32.68,3.1,3.1,0,0,1-.59.69,2.92,2.92,0,0,1-.85.53,3,3,0,0,1-1.16.21A3.18,3.18,0,0,1,220,99.6a2.49,2.49,0,0,1-1-.9,2.35,2.35,0,0,1-.37-1.3,2.38,2.38,0,0,1,1-2.06,4.9,4.9,0,0,1,2.86-.72h1.46Zm-.3-1.76a1.49,1.49,0,0,0-.36-1,1.43,1.43,0,0,0-1.1-.39,1.67,1.67,0,0,0-.76.16,1.16,1.16,0,0,0-.51.41,1,1,0,0,0-.18.58h-1.94a2.21,2.21,0,0,1,.43-1.28,3.06,3.06,0,0,1,1.22-1,4.24,4.24,0,0,1,1.85-.37,4.33,4.33,0,0,1,1.7.32,2.72,2.72,0,0,1,1.17,1,3,3,0,0,1,.42,1.63V97.8a5.41,5.41,0,0,0,.09,1,3.69,3.69,0,0,0,.24.79v.13h-2a3.07,3.07,0,0,1-.21-.79,6.07,6.07,0,0,1-.08-.94Z"/><path class="cls-2" d="M229.55,99.77h-1.94v-12h1.94Z"/><path class="cls-2" d="M233.65,99.77h-1.94v-12h1.94Z"/><path class="cls-2" d="M239.43,99.93a4.18,4.18,0,0,1-2.17-.54,3.82,3.82,0,0,1-1.41-1.47,4.34,4.34,0,0,1-.49-2.08v-.32a5,5,0,0,1,.5-2.3,3.74,3.74,0,0,1,1.37-1.52,4,4,0,0,1,4,0,3.2,3.2,0,0,1,1.2,1.46,5.37,5.37,0,0,1,.4,2.16v.84h-6.54v-1.4h4.63V94.6a3,3,0,0,0-.19-.92,1.58,1.58,0,0,0-.55-.7,1.67,1.67,0,0,0-1-.26,1.59,1.59,0,0,0-1,.34,2.15,2.15,0,0,0-.64,1,4.39,4.39,0,0,0-.22,1.48v.32a3.13,3.13,0,0,0,.26,1.29,2.14,2.14,0,0,0,.78.9,2.1,2.1,0,0,0,1.21.34,2.58,2.58,0,0,0,2.12-1l1,1a3.67,3.67,0,0,1-1.2,1.09A3.84,3.84,0,0,1,239.43,99.93Z"/><path class="cls-2" d="M248.19,92.75h-4.8V91.32h4.8Zm-1.5-3.5v8.14a1.17,1.17,0,0,0,.11.59.55.55,0,0,0,.31.27,1.37,1.37,0,0,0,.47.07l.37,0,.29,0v1.49a3.06,3.06,0,0,1-.54.13,3.88,3.88,0,0,1-.72.06,2.6,2.6,0,0,1-1.15-.24,1.66,1.66,0,0,1-.79-.76,2.94,2.94,0,0,1-.29-1.4V89.25Z"/><path class="cls-2" d="M254.33,97.47a.93.93,0,0,0-.14-.49,1.2,1.2,0,0,0-.52-.4,5.51,5.51,0,0,0-1.15-.35,7.25,7.25,0,0,1-1.59-.5,2.75,2.75,0,0,1-1.06-.8,1.93,1.93,0,0,1-.38-1.2,2.15,2.15,0,0,1,.4-1.27,2.79,2.79,0,0,1,1.13-.94,3.93,3.93,0,0,1,1.75-.36,4.25,4.25,0,0,1,1.82.36,2.78,2.78,0,0,1,1.18,1,2.4,2.4,0,0,1,.41,1.37h-1.94a1.21,1.21,0,0,0-.37-.88,1.51,1.51,0,0,0-1.11-.38,1.76,1.76,0,0,0-.77.15,1.11,1.11,0,0,0-.46.38,1,1,0,0,0-.15.52.81.81,0,0,0,.15.48,1.31,1.31,0,0,0,.52.36,6.32,6.32,0,0,0,1,.29,9.35,9.35,0,0,1,1.68.51,2.63,2.63,0,0,1,1.08.82,2.06,2.06,0,0,1,.38,1.27,2.11,2.11,0,0,1-.43,1.32,2.77,2.77,0,0,1-1.19.91,4.62,4.62,0,0,1-1.82.33,4.15,4.15,0,0,1-2-.42,3.05,3.05,0,0,1-1.21-1.05,2.5,2.5,0,0,1-.41-1.34h1.87a1.39,1.39,0,0,0,.28.8,1.5,1.5,0,0,0,.64.44,2.46,2.46,0,0,0,.81.14,2.51,2.51,0,0,0,.84-.13,1.08,1.08,0,0,0,.5-.37A.83.83,0,0,0,254.33,97.47Z"/><path class="cls-2" d="M265.74,92.75H261V91.32h4.79Zm-1.5-3.5v8.14a1.29,1.29,0,0,0,.11.59.6.6,0,0,0,.32.27,1.31,1.31,0,0,0,.46.07l.38,0,.29,0v1.49a3.43,3.43,0,0,1-.55.13,3.73,3.73,0,0,1-.72.06,2.66,2.66,0,0,1-1.15-.24,1.66,1.66,0,0,1-.79-.76,3,3,0,0,1-.28-1.4V89.25Z"/><path class="cls-2" d="M266.61,95.47a5.05,5.05,0,0,1,.47-2.21,3.7,3.7,0,0,1,1.35-1.53,3.78,3.78,0,0,1,2.11-.57,3.85,3.85,0,0,1,2.13.57A3.7,3.7,0,0,1,274,93.26a5.05,5.05,0,0,1,.47,2.21v.16a5,5,0,0,1-.47,2.2,3.72,3.72,0,0,1-1.34,1.54,4.31,4.31,0,0,1-4.25,0,3.67,3.67,0,0,1-1.35-1.54,5,5,0,0,1-.47-2.2Zm1.94.16a4.24,4.24,0,0,0,.21,1.37,2.21,2.21,0,0,0,.65,1,1.73,1.73,0,0,0,1.15.37,1.67,1.67,0,0,0,1.13-.37,2.13,2.13,0,0,0,.65-1,4.24,4.24,0,0,0,.21-1.37v-.16a4.28,4.28,0,0,0-.21-1.37,2.13,2.13,0,0,0-.65-1,1.92,1.92,0,0,0-2.29,0,2.21,2.21,0,0,0-.65,1,4.58,4.58,0,0,0-.2,1.37Z"/><path class="cls-2" d="M33.24,119H31.3v-8.45h1.84l.1,1.66Zm2.54-6.67-.38,0H35a2.17,2.17,0,0,0-1.07.23,1.49,1.49,0,0,0-.64.65,2.59,2.59,0,0,0-.26,1h-.45a6.07,6.07,0,0,1,.29-1.93,3,3,0,0,1,.84-1.35,2,2,0,0,1,1.41-.5l.36,0a2.13,2.13,0,0,1,.31.07Z"/><path class="cls-2" d="M40.71,119.13a4.18,4.18,0,0,1-2.17-.54,3.82,3.82,0,0,1-1.41-1.47,4.46,4.46,0,0,1-.49-2.08v-.32a5,5,0,0,1,.5-2.3,3.74,3.74,0,0,1,1.37-1.52,3.68,3.68,0,0,1,2-.54,3.63,3.63,0,0,1,2,.53,3.2,3.2,0,0,1,1.2,1.46,5.37,5.37,0,0,1,.4,2.16v.84H37.57V114H42.2v-.15a2.74,2.74,0,0,0-.19-.92,1.64,1.64,0,0,0-.54-.7,1.73,1.73,0,0,0-1-.26,1.54,1.54,0,0,0-1,.35,2.07,2.07,0,0,0-.64,1,4.39,4.39,0,0,0-.22,1.48V115a3.13,3.13,0,0,0,.26,1.29,2.14,2.14,0,0,0,.78.9,2.1,2.1,0,0,0,1.21.34,2.54,2.54,0,0,0,2.12-1l1,1a3.67,3.67,0,0,1-1.2,1.09A3.84,3.84,0,0,1,40.71,119.13Z"/><path class="cls-2" d="M47.49,119H45.55v-8.45h1.83l.11,1.73Zm-1-4.52a5.32,5.32,0,0,1,.38-2.1,3,3,0,0,1,3-2,2.61,2.61,0,0,1,1.89.7,3,3,0,0,1,.74,2.28V119H50.59v-5.45a1.91,1.91,0,0,0-.19-.94,1.05,1.05,0,0,0-.51-.49,2.12,2.12,0,0,0-.8-.14,1.84,1.84,0,0,0-.88.19,1.61,1.61,0,0,0-.59.54,2.35,2.35,0,0,0-.33.79,4.3,4.3,0,0,0-.11,1Zm5-.27a4.93,4.93,0,0,1,.39-1.91A3.25,3.25,0,0,1,53,110.88a3.07,3.07,0,0,1,1.81-.52,3.19,3.19,0,0,1,1.47.32,2.14,2.14,0,0,1,1,1,4.28,4.28,0,0,1,.33,1.83V119H55.62V113.5a1.9,1.9,0,0,0-.19-1,.93.93,0,0,0-.51-.47,2.08,2.08,0,0,0-.79-.13,1.79,1.79,0,0,0-.75.15,1.46,1.46,0,0,0-.54.44,2.09,2.09,0,0,0-.33.65,2.86,2.86,0,0,0-.11.8Z"/><path class="cls-2" d="M59.48,108.31a1,1,0,0,1,.29-.74,1.26,1.26,0,0,1,1.61,0,1.05,1.05,0,0,1,0,1.47,1.26,1.26,0,0,1-1.61,0A1,1,0,0,1,59.48,108.31ZM61.54,119H59.6v-8.45h1.94Z"/><path class="cls-2" d="M65.49,119H63.56v-8.45h1.82l.11,1.8Zm-1-4.52A5.32,5.32,0,0,1,65,112.3a3.56,3.56,0,0,1,1.18-1.43,3.36,3.36,0,0,1,3.19-.2,2.13,2.13,0,0,1,.94,1,4.36,4.36,0,0,1,.33,1.86V119H68.65v-5.46a2.18,2.18,0,0,0-.17-.93,1,1,0,0,0-.5-.49,2.14,2.14,0,0,0-.81-.14,1.78,1.78,0,0,0-.85.19,2,2,0,0,0-.64.54,2.43,2.43,0,0,0-.39.79,3.39,3.39,0,0,0-.14,1Z"/><path class="cls-2" d="M72.14,114.68a6,6,0,0,1,.4-2.26,3.41,3.41,0,0,1,1.15-1.51,2.88,2.88,0,0,1,1.78-.55,2.74,2.74,0,0,1,1.71.53,3.54,3.54,0,0,1,1.08,1.48,7.49,7.49,0,0,1,.53,2.18V115a7.72,7.72,0,0,1-.52,2.14,3.47,3.47,0,0,1-1.09,1.46,2.76,2.76,0,0,1-1.73.53,2.85,2.85,0,0,1-1.76-.56A3.53,3.53,0,0,1,72.54,117a5.83,5.83,0,0,1-.4-2.2Zm1.94.16a4.47,4.47,0,0,0,.19,1.36,2.05,2.05,0,0,0,.59,1,1.61,1.61,0,0,0,1.09.36,1.85,1.85,0,0,0,1-.27,1.91,1.91,0,0,0,.64-.76,3.83,3.83,0,0,0,.32-1.07v-1.32a4.61,4.61,0,0,0-.2-.87,2.14,2.14,0,0,0-.38-.68,1.58,1.58,0,0,0-.59-.46A1.91,1.91,0,0,0,76,112a1.61,1.61,0,0,0-1.09.36,2,2,0,0,0-.6,1,4.56,4.56,0,0,0-.19,1.38ZM77.63,107h1.93v12H77.81l-.18-1.77Z"/><path class="cls-2" d="M88.68,116.78l.34,2.09-1.34.31-3.05-8.66h2.09Zm1.54-6.26h2.07l-3.38,9.73a5.1,5.1,0,0,1-.31.69,3,3,0,0,1-.49.7,2.67,2.67,0,0,1-.75.54,2.54,2.54,0,0,1-1.08.21l-.33,0-.31-.05-.29-.07v-1.5l.19,0h.18a1.87,1.87,0,0,0,1-.25,1.61,1.61,0,0,0,.56-.85L88,118Z"/><path class="cls-2" d="M93,114.67a5.05,5.05,0,0,1,.46-2.21,4,4,0,0,1,5.6-1.53,3.7,3.7,0,0,1,1.35,1.53,5.05,5.05,0,0,1,.46,2.21v.16a5,5,0,0,1-.46,2.2,3.67,3.67,0,0,1-1.35,1.54,4.29,4.29,0,0,1-4.24,0A3.76,3.76,0,0,1,93.45,117a5,5,0,0,1-.46-2.2Zm1.93.16a4.24,4.24,0,0,0,.21,1.37,2.15,2.15,0,0,0,.66,1,1.68,1.68,0,0,0,1.14.37,1.72,1.72,0,0,0,1.14-.37,2.21,2.21,0,0,0,.65-1,4.53,4.53,0,0,0,.2-1.37v-.16a4.58,4.58,0,0,0-.2-1.37,2.15,2.15,0,0,0-.66-1,1.65,1.65,0,0,0-1.14-.38,1.64,1.64,0,0,0-1.14.38,2.13,2.13,0,0,0-.65,1,4.28,4.28,0,0,0-.21,1.37Z"/><path class="cls-2" d="M108.41,115.19a5.8,5.8,0,0,1-.34,2,2.92,2.92,0,0,1-1,1.4,3.06,3.06,0,0,1-1.84.51,2.81,2.81,0,0,1-2-.74,3.19,3.19,0,0,1-.78-2.41v-5.46h1.94V116a2,2,0,0,0,.18.92,1.08,1.08,0,0,0,.49.48,1.53,1.53,0,0,0,.68.14,2.15,2.15,0,0,0,1.24-.31,1.61,1.61,0,0,0,.65-.84,3.4,3.4,0,0,0,.2-1.18Zm-.92-4.67h1.94V119H107.6l-.11-2Z"/><path class="cls-2" d="M118,117.07l.11,1.9H116.9l-2.28-8.45h1.89Zm1.53-6.55h1.23l-.33,2.06-2,6.39H117.4l.2-1.93Zm3.37,6.45.22,2H122l-2-6.4-.32-2H121Zm1.11-6.45h1.89L123.64,119h-1.22l.15-2Z"/><path class="cls-2" d="M129.09,119h-1.94V107h1.94Zm-1-4.52a5.14,5.14,0,0,1,.41-2.1,3.53,3.53,0,0,1,1.16-1.46,2.91,2.91,0,0,1,1.73-.53,3.2,3.2,0,0,1,1.46.32,2.19,2.19,0,0,1,1,1,4.27,4.27,0,0,1,.35,1.87V119h-1.95v-5.43a2.22,2.22,0,0,0-.17-.94,1,1,0,0,0-.5-.5,2,2,0,0,0-.81-.15,1.87,1.87,0,0,0-.88.19,1.82,1.82,0,0,0-.63.54,2.23,2.23,0,0,0-.38.79,3.39,3.39,0,0,0-.13,1Z"/><path class="cls-2" d="M141.12,115h-1.33a2.64,2.64,0,0,0-1.55.38,1.19,1.19,0,0,0-.52,1,1.1,1.1,0,0,0,.34.83,1.36,1.36,0,0,0,1,.33,2.14,2.14,0,0,0,1-.23,1.88,1.88,0,0,0,.67-.57,1.24,1.24,0,0,0,.25-.64l.61.87a2.68,2.68,0,0,1-.31.68,3.39,3.39,0,0,1-.59.69,3,3,0,0,1-.86.53,2.91,2.91,0,0,1-1.15.21,3.25,3.25,0,0,1-1.48-.33,2.62,2.62,0,0,1-1-.9,2.56,2.56,0,0,1,.64-3.36,4.87,4.87,0,0,1,2.86-.72h1.45Zm-.3-1.76a1.5,1.5,0,0,0-.36-1.05,1.43,1.43,0,0,0-1.1-.39,1.71,1.71,0,0,0-.77.16,1.19,1.19,0,0,0-.5.41,1,1,0,0,0-.18.58H136a2.14,2.14,0,0,1,.43-1.28,3.19,3.19,0,0,1,1.21-1,4.77,4.77,0,0,1,3.56,0,2.63,2.63,0,0,1,1.16,1,2.87,2.87,0,0,1,.43,1.63V117a6.41,6.41,0,0,0,.08,1,3.19,3.19,0,0,0,.25.79V119h-2a3.11,3.11,0,0,1-.2-.79,6.07,6.07,0,0,1-.08-.94Z"/><path class="cls-2" d="M148.63,112h-4.8v-1.43h4.8Zm-1.5-3.5v8.14a1.17,1.17,0,0,0,.11.59.55.55,0,0,0,.31.27,1.33,1.33,0,0,0,.47.07l.37,0,.29,0v1.49a3.57,3.57,0,0,1-.54.13,3.88,3.88,0,0,1-.72.06,2.67,2.67,0,0,1-1.16-.24,1.7,1.7,0,0,1-.79-.76,3,3,0,0,1-.28-1.4v-8.28Z"/><path class="cls-2" d="M157.2,116.78l.35,2.09-1.35.31-3-8.66h2.09Zm1.54-6.26h2.07l-3.38,9.73a6.57,6.57,0,0,1-.3.69,3.28,3.28,0,0,1-.49.7,2.67,2.67,0,0,1-.75.54,2.54,2.54,0,0,1-1.08.21l-.34,0-.3-.05-.29-.07v-1.5l.18,0h.18a1.9,1.9,0,0,0,1.06-.25,1.6,1.6,0,0,0,.55-.85l.62-1.64Z"/><path class="cls-2" d="M161.51,114.67a5.05,5.05,0,0,1,.47-2.21,3.7,3.7,0,0,1,1.35-1.53,3.78,3.78,0,0,1,2.11-.57,3.85,3.85,0,0,1,2.13.57,3.7,3.7,0,0,1,1.35,1.53,5.05,5.05,0,0,1,.46,2.21v.16a5,5,0,0,1-.46,2.2,3.72,3.72,0,0,1-1.34,1.54,4.31,4.31,0,0,1-4.25,0A3.67,3.67,0,0,1,162,117a5,5,0,0,1-.47-2.2Zm1.94.16a4.24,4.24,0,0,0,.21,1.37,2.21,2.21,0,0,0,.65,1,1.7,1.7,0,0,0,1.14.37,1.68,1.68,0,0,0,1.14-.37,2.21,2.21,0,0,0,.65-1,4.24,4.24,0,0,0,.21-1.37v-.16a4.28,4.28,0,0,0-.21-1.37,2.21,2.21,0,0,0-.65-1,1.68,1.68,0,0,0-1.15-.38,1.65,1.65,0,0,0-1.14.38,2.21,2.21,0,0,0-.65,1,4.58,4.58,0,0,0-.2,1.37Z"/><path class="cls-2" d="M176.93,115.19a5.58,5.58,0,0,1-.34,2,3,3,0,0,1-1,1.4,3.11,3.11,0,0,1-1.85.51,2.82,2.82,0,0,1-2-.74,3.23,3.23,0,0,1-.77-2.41v-5.46h1.93V116a2,2,0,0,0,.19.92,1,1,0,0,0,.49.48,1.46,1.46,0,0,0,.67.14,2.15,2.15,0,0,0,1.24-.31,1.63,1.63,0,0,0,.66-.84,3.4,3.4,0,0,0,.19-1.18Zm-.91-4.67H178V119h-1.82l-.11-2Z"/><path class="cls-2" d="M181.7,108.1a3.14,3.14,0,0,1-.18,1,4.39,4.39,0,0,1-.5,1,3.66,3.66,0,0,1-.73.83l-1-.6a4.33,4.33,0,0,0,.52-1,3.62,3.62,0,0,0,.2-1.24V107h1.66Z"/><path class="cls-2" d="M185.29,119h-1.94v-8.45h1.85l.09,1.66Zm2.55-6.67-.38,0h-.4a2.13,2.13,0,0,0-1.06.23,1.51,1.51,0,0,0-.65.65,2.78,2.78,0,0,0-.26,1h-.44a6.08,6.08,0,0,1,.28-1.93,3.18,3.18,0,0,1,.84-1.35,2.08,2.08,0,0,1,1.41-.5l.37,0a1.94,1.94,0,0,1,.3.07Z"/><path class="cls-2" d="M192.77,119.13a4.22,4.22,0,0,1-2.18-.54,3.87,3.87,0,0,1-1.4-1.47,4.34,4.34,0,0,1-.49-2.08v-.32a4.91,4.91,0,0,1,.5-2.3,3.74,3.74,0,0,1,1.37-1.52,3.67,3.67,0,0,1,2-.54,3.61,3.61,0,0,1,2,.53,3.22,3.22,0,0,1,1.21,1.46,5.55,5.55,0,0,1,.4,2.16v.84h-6.54V114h4.62v-.15a2.52,2.52,0,0,0-.19-.92,1.5,1.5,0,0,0-.54-.7,1.73,1.73,0,0,0-1-.26,1.54,1.54,0,0,0-1,.35,2.15,2.15,0,0,0-.64,1,4.66,4.66,0,0,0-.22,1.48V115a3,3,0,0,0,.27,1.29,2.1,2.1,0,0,0,2,1.24,2.6,2.6,0,0,0,1.21-.27,2.57,2.57,0,0,0,.91-.77l1,1a3.75,3.75,0,0,1-3.25,1.58Z"/><path class="cls-2" d="M206.31,116.67a.93.93,0,0,0-.14-.49,1.24,1.24,0,0,0-.53-.4,5.15,5.15,0,0,0-1.15-.35,7.16,7.16,0,0,1-1.58-.5,2.66,2.66,0,0,1-1.06-.8,1.93,1.93,0,0,1-.38-1.2,2.21,2.21,0,0,1,.39-1.27,2.82,2.82,0,0,1,1.14-.94,3.92,3.92,0,0,1,1.74-.36,4.27,4.27,0,0,1,1.83.36,2.91,2.91,0,0,1,1.18,1,2.4,2.4,0,0,1,.41,1.37h-1.94a1.21,1.21,0,0,0-.37-.88,1.51,1.51,0,0,0-1.11-.38,1.73,1.73,0,0,0-.77.15,1.21,1.21,0,0,0-.47.38,1,1,0,0,0-.15.52.81.81,0,0,0,.15.48,1.43,1.43,0,0,0,.53.36,6,6,0,0,0,1,.29,9.22,9.22,0,0,1,1.67.51,2.73,2.73,0,0,1,1.09.82,2.06,2.06,0,0,1,.37,1.27,2.17,2.17,0,0,1-.42,1.32,2.8,2.8,0,0,1-1.2.91,4.57,4.57,0,0,1-1.81.33,4.15,4.15,0,0,1-2-.42,2.92,2.92,0,0,1-1.21-1,2.5,2.5,0,0,1-.41-1.34h1.87a1.33,1.33,0,0,0,.28.8,1.45,1.45,0,0,0,.64.44,2.56,2.56,0,0,0,1.64,0,1.17,1.17,0,0,0,.51-.37A.83.83,0,0,0,206.31,116.67Z"/><path class="cls-2" d="M214.87,115h-1.33a2.64,2.64,0,0,0-1.55.38,1.19,1.19,0,0,0-.52,1,1.1,1.1,0,0,0,.34.83,1.36,1.36,0,0,0,1,.33,2.14,2.14,0,0,0,1-.23,1.88,1.88,0,0,0,.67-.57,1.24,1.24,0,0,0,.25-.64l.61.87a2.68,2.68,0,0,1-.31.68,3.39,3.39,0,0,1-.59.69,3,3,0,0,1-.86.53,2.91,2.91,0,0,1-1.15.21,3.25,3.25,0,0,1-1.48-.33,2.62,2.62,0,0,1-1-.9,2.56,2.56,0,0,1,.64-3.36,4.87,4.87,0,0,1,2.86-.72h1.45Zm-.3-1.76a1.5,1.5,0,0,0-.36-1.05,1.43,1.43,0,0,0-1.1-.39,1.71,1.71,0,0,0-.77.16,1.19,1.19,0,0,0-.5.41,1,1,0,0,0-.18.58h-1.94a2.14,2.14,0,0,1,.43-1.28,3.19,3.19,0,0,1,1.21-1,4.77,4.77,0,0,1,3.56,0,2.63,2.63,0,0,1,1.16,1,2.87,2.87,0,0,1,.43,1.63V117a6.41,6.41,0,0,0,.08,1,3.19,3.19,0,0,0,.25.79V119h-2a3.11,3.11,0,0,1-.2-.79,6.07,6.07,0,0,1-.08-.94Z"/><path class="cls-2" d="M221.63,117.46l.1,1.51h-1.24l-3-8.45h2Zm1.5-6.94h2L222.21,119H221l.13-1.53Z"/><path class="cls-2" d="M226.29,108.31a1,1,0,0,1,.29-.74,1.05,1.05,0,0,1,.8-.29,1.1,1.1,0,0,1,.82.29,1.08,1.08,0,0,1,0,1.47,1.14,1.14,0,0,1-.82.29,1.09,1.09,0,0,1-.8-.29A1,1,0,0,1,226.29,108.31ZM228.35,119h-1.93v-8.45h1.93Z"/><path class="cls-2" d="M232.31,119h-1.94v-8.45h1.82l.12,1.8Zm-1-4.52a5.15,5.15,0,0,1,.43-2.15,3.4,3.4,0,0,1,1.18-1.43,3.06,3.06,0,0,1,1.76-.51,3.13,3.13,0,0,1,1.42.31,2.08,2.08,0,0,1,.94,1,4.35,4.35,0,0,1,.34,1.86V119h-1.95v-5.46a2,2,0,0,0-.17-.93,1,1,0,0,0-.5-.49,2.12,2.12,0,0,0-.8-.14,1.76,1.76,0,0,0-1.49.73,2.27,2.27,0,0,0-.4.79,3.39,3.39,0,0,0-.14,1Z"/><path class="cls-2" d="M239,114.68a5.84,5.84,0,0,1,.41-2.26,3.38,3.38,0,0,1,1.17-1.51,3,3,0,0,1,1.81-.55,3.06,3.06,0,0,1,1.41.3,2.62,2.62,0,0,1,1,.86,4.94,4.94,0,0,1,.61,1.33,11.14,11.14,0,0,1,.33,1.7V115a8.5,8.5,0,0,1-.52,2.14,3.54,3.54,0,0,1-1.08,1.46,2.8,2.8,0,0,1-1.75.53,2.93,2.93,0,0,1-1.78-.56,3.59,3.59,0,0,1-1.18-1.53,5.64,5.64,0,0,1-.41-2.2Zm7.5-4.16v8.21a3.61,3.61,0,0,1-.49,1.94,3.12,3.12,0,0,1-1.37,1.22,4.73,4.73,0,0,1-2,.41,4.84,4.84,0,0,1-1.07-.14,4.2,4.2,0,0,1-1.14-.44,3,3,0,0,1-.93-.79l.9-1.18a3,3,0,0,0,1,.78,2.63,2.63,0,0,0,1.14.25,2,2,0,0,0,1.49-.52,2,2,0,0,0,.54-1.5v-6.32l.18-1.92Zm-5.56,4.32a4.18,4.18,0,0,0,.2,1.36,2.19,2.19,0,0,0,.63,1,1.64,1.64,0,0,0,1.1.36,2,2,0,0,0,1.07-.27,1.91,1.91,0,0,0,.64-.76,3.52,3.52,0,0,0,.32-1.07v-1.32a3.45,3.45,0,0,0-.19-.87,2,2,0,0,0-.38-.68,1.61,1.61,0,0,0-.6-.46,2,2,0,0,0-.85-.16,1.66,1.66,0,0,0-1.1.36,2.11,2.11,0,0,0-.64,1,4.55,4.55,0,0,0-.2,1.38Z"/><path class="cls-2" d="M256.68,112h-5v-1.43h5ZM253,119v-9.26a2.82,2.82,0,0,1,.79-2.15,3.05,3.05,0,0,1,2.18-.75,3.43,3.43,0,0,1,.56,0,4.51,4.51,0,0,1,.53.1l-.05,1.51-.33,0-.39,0a1.42,1.42,0,0,0-1,.34,1.28,1.28,0,0,0-.36,1V119Z"/><path class="cls-2" d="M257.67,114.67a5.05,5.05,0,0,1,.46-2.21,3.85,3.85,0,0,1,1.35-1.53,3.8,3.8,0,0,1,2.11-.57,3.86,3.86,0,0,1,2.14.57,3.7,3.7,0,0,1,1.35,1.53,5.2,5.2,0,0,1,.46,2.21v.16a5.18,5.18,0,0,1-.46,2.2,3.67,3.67,0,0,1-1.35,1.54,4.29,4.29,0,0,1-4.24,0,3.76,3.76,0,0,1-1.36-1.54,5,5,0,0,1-.46-2.2Zm1.93.16a4.24,4.24,0,0,0,.21,1.37,2.15,2.15,0,0,0,.66,1,1.68,1.68,0,0,0,1.14.37,1.72,1.72,0,0,0,1.14-.37,2.21,2.21,0,0,0,.65-1,4.53,4.53,0,0,0,.2-1.37v-.16a4.58,4.58,0,0,0-.2-1.37,2.15,2.15,0,0,0-.66-1,1.66,1.66,0,0,0-1.15-.38,1.63,1.63,0,0,0-1.13.38,2.13,2.13,0,0,0-.65,1,4.28,4.28,0,0,0-.21,1.37Z"/><path class="cls-2" d="M269.05,119h-1.94v-8.45H269l.1,1.66Zm2.54-6.67-.37,0h-.4a2.17,2.17,0,0,0-1.07.23,1.54,1.54,0,0,0-.64.65,2.59,2.59,0,0,0-.26,1h-.44a6.08,6.08,0,0,1,.28-1.93,3.18,3.18,0,0,1,.84-1.35,2.08,2.08,0,0,1,1.41-.5l.37,0a2.28,2.28,0,0,1,.3.07Z"/><path class="cls-2" d="M271.63,118a1.08,1.08,0,0,1,.3-.77,1.3,1.3,0,0,1,1.66,0,1.08,1.08,0,0,1,.3.77,1,1,0,0,1-.3.75,1.27,1.27,0,0,1-1.66,0A1,1,0,0,1,271.63,118Z"/><line class="cls-3" x1="20" y1="72.27" x2="290" y2="72.27"/><line class="cls-3" x1="20" y1="137.27" x2="290" y2="137.27"/><path class="cls-2" d="M71.68,33.57,70,33.23l1.38-1h.31l.81,5-.62.14-2.2-3.49.63.75A4.11,4.11,0,0,0,69.11,34a4.25,4.25,0,0,0-1.29-.2,3.15,3.15,0,0,0-2.06.57,1.93,1.93,0,0,0-.68,1.53,2,2,0,0,0,.31,1.11,2.62,2.62,0,0,0,.85.76,7.12,7.12,0,0,0,1.21.55l1.42.51c.49.18,1,.37,1.47.59a6,6,0,0,1,1.33.82,3.54,3.54,0,0,1,1,1.21A4,4,0,0,1,73,43.27a4.27,4.27,0,0,1-.75,2.57,4.61,4.61,0,0,1-2,1.57,7.64,7.64,0,0,1-3,.53,12.57,12.57,0,0,1-2-.14,8.94,8.94,0,0,1-1.87-.52l-1-4.09h.67l3.05,4.08-2.28-1.43a8.79,8.79,0,0,0,1.56.67,5.33,5.33,0,0,0,1.47.2,5.93,5.93,0,0,0,2-.28,2.54,2.54,0,0,0,1.21-.84,2.31,2.31,0,0,0,.4-1.39,2.08,2.08,0,0,0-.38-1.27,3,3,0,0,0-1-.84,8.44,8.44,0,0,0-1.36-.59c-.5-.16-1-.33-1.46-.51a10.85,10.85,0,0,1-1.34-.59,4.89,4.89,0,0,1-1.13-.8A3.33,3.33,0,0,1,63,38.47a4.09,4.09,0,0,1-.28-1.6,3.79,3.79,0,0,1,.64-2.22,4.23,4.23,0,0,1,1.82-1.46A7,7,0,0,1,68,32.68a8.22,8.22,0,0,1,1.91.21A7,7,0,0,1,71.68,33.57Z"/><path class="cls-2" d="M80.31,41.71l.1.9a13,13,0,0,0-1.7.5,4,4,0,0,0-1,.54,1.46,1.46,0,0,0-.49.59,1.65,1.65,0,0,0-.14.68A1.4,1.4,0,0,0,77.42,46a1.21,1.21,0,0,0,.89.35,1.29,1.29,0,0,0,.74-.22,1.53,1.53,0,0,0,.72-1.33V40.67a1.56,1.56,0,0,0-.37-1.1,1.5,1.5,0,0,0-1.19-.42,2.92,2.92,0,0,0-.7.09,3.19,3.19,0,0,0-.7.23l.44-.67c0,.35-.09.64-.14.89a3,3,0,0,1-.16.6,1,1,0,0,1-.22.37,1.18,1.18,0,0,1-.47.32,1.84,1.84,0,0,1-.62.11,1.18,1.18,0,0,1-.67-.17.57.57,0,0,1-.24-.48,1.29,1.29,0,0,1,.39-.85,4,4,0,0,1,1-.79,6.64,6.64,0,0,1,1.46-.58A6.13,6.13,0,0,1,79.27,38a4,4,0,0,1,1.82.35,2,2,0,0,1,1,1,3.7,3.7,0,0,1,.28,1.51V45.7a1.16,1.16,0,0,0,.09.49.58.58,0,0,0,.25.3.76.76,0,0,0,.41.1,1.79,1.79,0,0,0,.49-.08,2.8,2.8,0,0,0,.53-.25v.63a4.32,4.32,0,0,1-1.14.77,2.73,2.73,0,0,1-1.12.27,2.07,2.07,0,0,1-1.11-.27,1.6,1.6,0,0,1-.64-.76,3,3,0,0,1-.22-1.13l.09-.06a3.5,3.5,0,0,1-.59,1.21,2.73,2.73,0,0,1-1,.77,2.84,2.84,0,0,1-1.2.25,2.8,2.8,0,0,1-1.89-.62,2.28,2.28,0,0,1-.73-1.85,2.44,2.44,0,0,1,.25-1.11,2.53,2.53,0,0,1,.87-.94,7.66,7.66,0,0,1,1.75-.87A27.7,27.7,0,0,1,80.31,41.71Z"/><path class="cls-2" d="M93.57,39.14,90,47.81H88.65l-4-8.58-1.32-.54v-.47h5.4v.48l-1.3.44,3,6.68h-.57l2.55-6.7-1.29-.43v-.48H94.7v.48Z"/><path class="cls-2" d="M99.57,37.94l-.11,2.12v6.63l1.47.56v.43H95.46v-.43l1.45-.56v-6.4a1.64,1.64,0,0,0-.38-.36A3.41,3.41,0,0,0,96,39.6a4,4,0,0,0-.59-.28v-.4l3.76-1Zm-1.45-2.66a1.56,1.56,0,0,1-1.18-.46,1.65,1.65,0,0,1-.45-1.18,1.58,1.58,0,0,1,.45-1.15,1.64,1.64,0,0,1,2.82,1.15,1.62,1.62,0,0,1-.46,1.18A1.56,1.56,0,0,1,98.12,35.28Z"/><path class="cls-2" d="M105.77,40.1v6.63l1.37.52v.43h-5.37v-.43l1.45-.56V40.45a2.06,2.06,0,0,0-.56-.49,5.5,5.5,0,0,0-1-.43v-.35L105,37.94h.32Zm2.49,7.15,1.35-.52V41.54a1.75,1.75,0,0,0-.2-.89,1.22,1.22,0,0,0-.6-.54,2.5,2.5,0,0,0-1-.18,3.63,3.63,0,0,0-1.34.23,2.37,2.37,0,0,0-.93.59l-.45-.42a14.41,14.41,0,0,1,1.22-1.18,6.49,6.49,0,0,1,1-.73,4,4,0,0,1,1-.36,4.57,4.57,0,0,1,1-.12,2.49,2.49,0,0,1,2.09.88,4.43,4.43,0,0,1,.68,2.73v5.14l1.48.56v.43h-5.38Z"/><path class="cls-2" d="M118.71,53.51a11.19,11.19,0,0,1-2-.17,4.8,4.8,0,0,1-1.46-.5,2.39,2.39,0,0,1-.88-.77,1.79,1.79,0,0,1-.3-1,1.68,1.68,0,0,1,.2-.79,2,2,0,0,1,.68-.69,5.81,5.81,0,0,1,1.31-.59,17,17,0,0,1,2-.51h.83v.25a7,7,0,0,0-1.84.48,2,2,0,0,0-.88.69,1.52,1.52,0,0,0-.25.86,1.45,1.45,0,0,0,.33,1,2,2,0,0,0,1,.62,5.3,5.3,0,0,0,1.68.22,5,5,0,0,0,1.72-.26A2.72,2.72,0,0,0,122,51.6a1.38,1.38,0,0,0,.39-.94,1,1,0,0,0-.19-.63,1.39,1.39,0,0,0-.62-.44,5.62,5.62,0,0,0-1.2-.3c-.5-.08-1.13-.15-1.88-.21a8.72,8.72,0,0,1-1.86-.31,3.31,3.31,0,0,1-1.1-.54,1.65,1.65,0,0,1-.53-.72,2.64,2.64,0,0,1-.14-.84,1.79,1.79,0,0,1,.75-1.44,4.36,4.36,0,0,1,2-.78l.38.33a1.7,1.7,0,0,0-.92.32.81.81,0,0,0-.28.63.78.78,0,0,0,.11.44.85.85,0,0,0,.43.32,3.87,3.87,0,0,0,.94.23c.41.06,1,.11,1.62.16a12.15,12.15,0,0,1,1.92.25,5,5,0,0,1,1.37.52,2.46,2.46,0,0,1,.83.84,2.54,2.54,0,0,1,.28,1.21,2.94,2.94,0,0,1-.66,1.91A4.42,4.42,0,0,1,121.74,53,7.87,7.87,0,0,1,118.71,53.51Zm.06-8.51a5.1,5.1,0,0,1-2.21-.46,3.51,3.51,0,0,1-1.48-1.25,3.32,3.32,0,0,1-.52-1.8,3.2,3.2,0,0,1,.55-1.87,3.52,3.52,0,0,1,1.5-1.23,5.09,5.09,0,0,1,2.18-.45,5,5,0,0,1,1.79.3,4,4,0,0,1,1.32.81,3.67,3.67,0,0,1,.82,1.13,3.06,3.06,0,0,1,.28,1.29,3.14,3.14,0,0,1-.55,1.84A3.59,3.59,0,0,1,121,44.56,5.22,5.22,0,0,1,118.77,45Zm.09-.91A1.31,1.31,0,0,0,120,43.5a3.15,3.15,0,0,0,.41-1.8,3.9,3.9,0,0,0-.47-2.14,1.45,1.45,0,0,0-1.25-.7,1.33,1.33,0,0,0-1.15.58,3.16,3.16,0,0,0-.41,1.82,3.81,3.81,0,0,0,.47,2.12A1.44,1.44,0,0,0,118.86,44.09Zm1.34-5.32L120,38.1a9.28,9.28,0,0,0,1.49.1,8.76,8.76,0,0,0,1.12-.09l.87-.15a3.3,3.3,0,0,1,.75-.08.76.76,0,0,1,.58.22,1,1,0,0,1,.21.68,1.15,1.15,0,0,1-.32.87,1,1,0,0,1-.69.3,1.2,1.2,0,0,1-.68-.22l-.68-.49a3.22,3.22,0,0,0-.95-.44A3.43,3.43,0,0,0,120.2,38.77Z"/><path class="cls-2" d="M129.1,37.94a6,6,0,0,1,1.36.14,6.35,6.35,0,0,1,1.26.44l.12,2.6h-.63L130,38.48l.84.92A3.31,3.31,0,0,0,130,39a2.33,2.33,0,0,0-.82-.15,2.16,2.16,0,0,0-1.25.32,1,1,0,0,0-.44.88,1.19,1.19,0,0,0,.23.74,2.06,2.06,0,0,0,.72.55,12.17,12.17,0,0,0,1.25.51,6.53,6.53,0,0,1,1,.47,3.38,3.38,0,0,1,.8.63,2.65,2.65,0,0,1,.52.83,2.92,2.92,0,0,1,.19,1.1,2.72,2.72,0,0,1-.52,1.71,3.12,3.12,0,0,1-1.39,1,5.36,5.36,0,0,1-2,.34,7.28,7.28,0,0,1-1.36-.11,5.86,5.86,0,0,1-1.21-.36l-.37-2.73H126l1.57,2.81-1.47-.88a6.36,6.36,0,0,0,.73.25,3.54,3.54,0,0,0,.6.12l.56,0a3,3,0,0,0,1.57-.36,1.23,1.23,0,0,0,.58-1.11A1.14,1.14,0,0,0,130,45a1.59,1.59,0,0,0-.47-.46,4.47,4.47,0,0,0-.76-.39q-.44-.19-1-.39a4.63,4.63,0,0,1-1.21-.66,2.43,2.43,0,0,1-.74-1,3.06,3.06,0,0,1-.25-1.29,2.49,2.49,0,0,1,.49-1.57,3,3,0,0,1,1.29-1A4.64,4.64,0,0,1,129.1,37.94Z"/><path class="cls-2" d="M151.27,39.1,150,38.7v-.48h3.52v.48l-1.11.41-2.73,8.7h-1.39l-3.14-7.38.63-.24-3.07,7.62h-1.4l-2.85-8.58-1.33-.54v-.47h5.27v.48l-1.3.44,2,6.45h-.53l3-7.5h1.35L150,45.6h-.54Z"/><path class="cls-2" d="M159.75,41.71l.1.9a13,13,0,0,0-1.7.5,4,4,0,0,0-1,.54,1.46,1.46,0,0,0-.49.59,1.65,1.65,0,0,0-.14.68,1.4,1.4,0,0,0,.36,1.06,1.21,1.21,0,0,0,.89.35,1.29,1.29,0,0,0,.74-.22,1.53,1.53,0,0,0,.72-1.33V40.67a1.56,1.56,0,0,0-.37-1.1,1.5,1.5,0,0,0-1.19-.42,3,3,0,0,0-.7.09,3.19,3.19,0,0,0-.7.23l.44-.67c0,.35-.09.64-.14.89a3,3,0,0,1-.16.6,1,1,0,0,1-.22.37,1.18,1.18,0,0,1-.47.32,1.84,1.84,0,0,1-.62.11,1.21,1.21,0,0,1-.67-.17.57.57,0,0,1-.24-.48,1.29,1.29,0,0,1,.39-.85,4,4,0,0,1,1-.79,6.64,6.64,0,0,1,1.46-.58,6.13,6.13,0,0,1,1.65-.22,4,4,0,0,1,1.83.35,2.07,2.07,0,0,1,.94,1,3.7,3.7,0,0,1,.28,1.51V45.7a1.16,1.16,0,0,0,.09.49.58.58,0,0,0,.25.3.76.76,0,0,0,.41.1,1.79,1.79,0,0,0,.49-.08,2.8,2.8,0,0,0,.53-.25v.63a4.32,4.32,0,0,1-1.14.77,2.7,2.7,0,0,1-1.12.27,2.07,2.07,0,0,1-1.11-.27,1.6,1.6,0,0,1-.64-.76,3,3,0,0,1-.22-1.13l.09-.06a3.34,3.34,0,0,1-.59,1.21,2.73,2.73,0,0,1-1,.77,2.84,2.84,0,0,1-1.2.25,2.8,2.8,0,0,1-1.89-.62,2.28,2.28,0,0,1-.73-1.85,2.44,2.44,0,0,1,.25-1.11,2.53,2.53,0,0,1,.87-.94,7.66,7.66,0,0,1,1.75-.87A27.7,27.7,0,0,1,159.75,41.71Z"/><path class="cls-2" d="M167.76,46.69l1.47.56v.43h-5.49v-.43l1.47-.56v-12a3.78,3.78,0,0,0-.4-.4,4.86,4.86,0,0,0-.53-.37,5.31,5.31,0,0,0-.75-.35v-.4L167.61,32h.31l-.16,2.14Z"/><path class="cls-2" d="M173.85,46.69l1.47.56v.43h-5.49v-.43l1.47-.56v-12a2.92,2.92,0,0,0-.39-.4,4.2,4.2,0,0,0-.54-.37,5.72,5.72,0,0,0-.74-.35v-.4L173.71,32H174l-.17,2.14Z"/><path class="cls-2" d="M181,37.94a3.92,3.92,0,0,1,2,.52,3.53,3.53,0,0,1,1.35,1.48,6.58,6.58,0,0,1,.61,2.34h-6.88v-.86l5.57-.3-1.21.55a6,6,0,0,0-.26-1.48,2.11,2.11,0,0,0-.55-.93,1.29,1.29,0,0,0-.92-.32,1.66,1.66,0,0,0-1,.34,2.21,2.21,0,0,0-.73,1.09,6,6,0,0,0-.26,2,4.22,4.22,0,0,0,.44,2,3,3,0,0,0,1.23,1.29,3.71,3.71,0,0,0,1.86.45,3.33,3.33,0,0,0,.84-.1,3.57,3.57,0,0,0,.81-.29,5.32,5.32,0,0,0,.79-.49l.34.45a8.61,8.61,0,0,1-1.22,1.2,4.82,4.82,0,0,1-1.34.79,4.24,4.24,0,0,1-1.53.27,4.64,4.64,0,0,1-2.44-.63,4.47,4.47,0,0,1-1.63-1.74,5.16,5.16,0,0,1-.58-2.48,5.9,5.9,0,0,1,.55-2.57A4.38,4.38,0,0,1,181,37.94Z"/><path class="cls-2" d="M189.9,44.85a1.17,1.17,0,0,0,.44,1,2,2,0,0,0,1.25.34,5.75,5.75,0,0,0,.88-.08,8.93,8.93,0,0,0,1-.27v.61a12.28,12.28,0,0,1-1.31.87,5.68,5.68,0,0,1-1.09.47,3.35,3.35,0,0,1-.9.14,3.63,3.63,0,0,1-1.49-.29,2.15,2.15,0,0,1-1-.9,3,3,0,0,1-.35-1.51V40L186,39v-.37l.63-.41.67-.45c.24-.16.47-.31.69-.47l.68-.46.62-.44h.62v8.45Zm-1-5.35V38.22h4.27l-.2,1.28Z"/><path class="cls-2" d="M198,37.94a6.05,6.05,0,0,1,1.36.14,6.82,6.82,0,0,1,1.26.44l.12,2.6h-.64l-1.23-2.64.83.92a3.31,3.31,0,0,0-.8-.43,2.24,2.24,0,0,0-.81-.15,2.12,2.12,0,0,0-1.25.32,1,1,0,0,0-.45.88,1.19,1.19,0,0,0,.23.74,2.27,2.27,0,0,0,.72.55,13.19,13.19,0,0,0,1.25.51,6.66,6.66,0,0,1,1,.47,3.53,3.53,0,0,1,.79.63,2.67,2.67,0,0,1,.53.83,3.13,3.13,0,0,1,.18,1.1,2.78,2.78,0,0,1-.51,1.71,3.15,3.15,0,0,1-1.4,1,5.34,5.34,0,0,1-2,.34,7.39,7.39,0,0,1-1.37-.11,6,6,0,0,1-1.2-.36l-.38-2.73H195l1.56,2.81-1.46-.88a7,7,0,0,0,.72.25,3.85,3.85,0,0,0,.61.12,5.25,5.25,0,0,0,.56,0,3,3,0,0,0,1.56-.36,1.21,1.21,0,0,0,.58-1.11,1.14,1.14,0,0,0-.16-.63,1.52,1.52,0,0,0-.48-.46,4.36,4.36,0,0,0-.75-.39q-.45-.19-1-.39a4.47,4.47,0,0,1-1.21-.66,2.56,2.56,0,0,1-.75-1,3.23,3.23,0,0,1-.24-1.29,2.55,2.55,0,0,1,.48-1.57,3,3,0,0,1,1.29-1A4.65,4.65,0,0,1,198,37.94Z"/><polygon class="cls-4" points="46.25 49.81 54.1 41.96 56.06 40 54.1 38.04 46.25 30.19 44.29 28.23 40.37 32.15 42.33 34.11 45.34 37.13 33.46 37.13 30.34 37.13 30.34 42.9 33.46 42.9 45.32 42.9 42.33 45.89 40.37 47.85 44.29 51.77 46.25 49.81"/><rect class="cls-5" x="19" y="151.77" width="271" height="80" rx="4"/><rect class="cls-6" x="26.15" y="169.86" width="37.81" height="37.81" rx="4"/><path class="cls-4" d="M73.13,193H71.7V185h1.43Zm-.8,0v-1.15h1.71a2.28,2.28,0,0,0,1.24-.32,2,2,0,0,0,.75-.92,3.7,3.7,0,0,0,.26-1.44v-.42a3.85,3.85,0,0,0-.25-1.45,1.94,1.94,0,0,0-.75-.91,2.28,2.28,0,0,0-1.2-.31H72.3V185h1.8a3.7,3.7,0,0,1,1.9.48,3.26,3.26,0,0,1,1.27,1.33,4.18,4.18,0,0,1,.46,2v.41a4.16,4.16,0,0,1-.46,2A3.18,3.18,0,0,1,76,192.55a3.76,3.76,0,0,1-1.93.48Z"/><path class="cls-4" d="M81.63,193.14a2.94,2.94,0,0,1-1.54-.39,2.7,2.7,0,0,1-1-1,3.12,3.12,0,0,1-.34-1.47V190a3.52,3.52,0,0,1,.35-1.63,2.65,2.65,0,0,1,1-1.07,2.81,2.81,0,0,1,2.84,0,2.27,2.27,0,0,1,.85,1,3.83,3.83,0,0,1,.28,1.53v.6H79.41v-1h3.27v-.11a1.75,1.75,0,0,0-.13-.65,1.12,1.12,0,0,0-.38-.5,1.23,1.23,0,0,0-.7-.19,1.14,1.14,0,0,0-.74.25,1.64,1.64,0,0,0-.46.69,3.32,3.32,0,0,0-.15,1v.23a2,2,0,0,0,.19.91,1.43,1.43,0,0,0,.55.64,1.49,1.49,0,0,0,.85.24,1.82,1.82,0,0,0,.86-.19,1.86,1.86,0,0,0,.65-.54l.72.72a2.67,2.67,0,0,1-2.31,1.12Z"/><path class="cls-4" d="M86.44,195.33H85.07V187h1.26l.11,1.16Zm3.89-5.25a4.27,4.27,0,0,1-.27,1.57,2.47,2.47,0,0,1-.79,1.09,2,2,0,0,1-1.26.4,2.06,2.06,0,0,1-1.25-.37,2.43,2.43,0,0,1-.77-1,5.25,5.25,0,0,1-.39-1.48v-.39a5.58,5.58,0,0,1,.39-1.55,2.46,2.46,0,0,1,.76-1,2,2,0,0,1,1.24-.38,2.07,2.07,0,0,1,1.28.39,2.32,2.32,0,0,1,.79,1.06,4.36,4.36,0,0,1,.27,1.6ZM89,190a3.37,3.37,0,0,0-.13-1,1.51,1.51,0,0,0-.43-.69,1.16,1.16,0,0,0-.78-.25,1.35,1.35,0,0,0-.59.11,1.3,1.3,0,0,0-.42.32,1.59,1.59,0,0,0-.26.48,2.86,2.86,0,0,0-.13.61v1a2.82,2.82,0,0,0,.22.73,1.27,1.27,0,0,0,.44.53,1.35,1.35,0,0,0,.75.2,1.08,1.08,0,0,0,.77-.27,1.55,1.55,0,0,0,.43-.71,3.37,3.37,0,0,0,.13-1Z"/><path class="cls-4" d="M91.19,190a3.58,3.58,0,0,1,.33-1.57,2.67,2.67,0,0,1,1-1.09,2.77,2.77,0,0,1,1.5-.4,2.81,2.81,0,0,1,1.51.4,2.6,2.6,0,0,1,1,1.09,3.58,3.58,0,0,1,.33,1.57v.11a3.57,3.57,0,0,1-.33,1.56,2.6,2.6,0,0,1-1,1.09,2.75,2.75,0,0,1-1.5.4,2.81,2.81,0,0,1-1.51-.4,2.75,2.75,0,0,1-1-1.09,3.57,3.57,0,0,1-.33-1.56Zm1.38.11a3.24,3.24,0,0,0,.14,1,1.56,1.56,0,0,0,.47.71A1.2,1.2,0,0,0,94,192a1.16,1.16,0,0,0,.8-.27,1.47,1.47,0,0,0,.46-.71,3,3,0,0,0,.15-1V190a3.05,3.05,0,0,0-.15-1,1.52,1.52,0,0,0-.46-.71,1.35,1.35,0,0,0-1.62,0,1.6,1.6,0,0,0-.46.71,3.06,3.06,0,0,0-.14,1Z"/><path class="cls-4" d="M101.23,191.39a.67.67,0,0,0-.09-.34.94.94,0,0,0-.38-.29,3.32,3.32,0,0,0-.81-.24,5.08,5.08,0,0,1-1.12-.36,2,2,0,0,1-.76-.57,1.34,1.34,0,0,1-.26-.85,1.59,1.59,0,0,1,.27-.9,2,2,0,0,1,.81-.67,3,3,0,0,1,1.24-.25,3.16,3.16,0,0,1,1.29.25,2.06,2.06,0,0,1,.84.69,1.71,1.71,0,0,1,.29,1h-1.38a.85.85,0,0,0-.26-.63,1.11,1.11,0,0,0-.79-.26,1.21,1.21,0,0,0-.54.1.75.75,0,0,0-.33.27.7.7,0,0,0-.11.37.58.58,0,0,0,.11.34.85.85,0,0,0,.37.25,4.73,4.73,0,0,0,.74.21,6.64,6.64,0,0,1,1.18.36,1.87,1.87,0,0,1,.77.58,1.47,1.47,0,0,1,.27.91,1.52,1.52,0,0,1-.3.93,1.92,1.92,0,0,1-.85.64,3.16,3.16,0,0,1-1.29.24,2.94,2.94,0,0,1-1.39-.3,2.09,2.09,0,0,1-.85-.75,1.68,1.68,0,0,1-.29-1h1.32a.91.91,0,0,0,.2.57,1,1,0,0,0,.46.32,1.79,1.79,0,0,0,.57.09,1.66,1.66,0,0,0,.59-.09.77.77,0,0,0,.36-.26A.62.62,0,0,0,101.23,191.39Z"/><path class="cls-4" d="M103.73,185.47a.71.71,0,0,1,.21-.53.74.74,0,0,1,.57-.21.77.77,0,0,1,.57.21.71.71,0,0,1,.21.53.69.69,0,0,1-.21.51.77.77,0,0,1-.57.21.74.74,0,0,1-.57-.21A.69.69,0,0,1,103.73,185.47Zm1.46,7.56h-1.37v-6h1.37Z"/><path class="cls-4" d="M109.42,188.05H106v-1h3.41Zm-1.07-2.49v5.78a.87.87,0,0,0,.08.41.43.43,0,0,0,.22.2,1.14,1.14,0,0,0,.33.05l.27,0,.2,0V193a3,3,0,0,1-.38.1,3.77,3.77,0,0,1-.51,0,1.94,1.94,0,0,1-.82-.17,1.22,1.22,0,0,1-.56-.54,2.15,2.15,0,0,1-.2-1v-5.88Z"/><path class="cls-4" d="M116.31,188.05h-3.52v-1h3.52Zm-2.6,5v-6.57a2,2,0,0,1,.56-1.53,2.21,2.21,0,0,1,1.55-.53,2.56,2.56,0,0,1,.39,0l.38.07,0,1.08-.24,0H116a1,1,0,0,0-.71.24.94.94,0,0,0-.25.69V193Z"/><path class="cls-4" d="M117,190a3.59,3.59,0,0,1,.34-1.57,2.65,2.65,0,0,1,1-1.09,3,3,0,0,1,3,0,2.6,2.6,0,0,1,1,1.09,3.58,3.58,0,0,1,.33,1.57v.11a3.57,3.57,0,0,1-.33,1.56,2.65,2.65,0,0,1-1,1.09,3.05,3.05,0,0,1-3,0,2.65,2.65,0,0,1-1-1.09,3.57,3.57,0,0,1-.34-1.56Zm1.38.11a3,3,0,0,0,.15,1,1.54,1.54,0,0,0,.46.71,1.35,1.35,0,0,0,1.62,0,1.54,1.54,0,0,0,.46-.71,3,3,0,0,0,.14-1V190a3.06,3.06,0,0,0-.14-1,1.53,1.53,0,0,0-.47-.71,1.35,1.35,0,0,0-1.62,0,1.68,1.68,0,0,0-.46.71,3.36,3.36,0,0,0-.14,1Z"/><path class="cls-4" d="M125.08,193H123.7v-6H125l.07,1.18Zm1.8-4.73-.27,0h-.28a1.67,1.67,0,0,0-.75.16,1.1,1.1,0,0,0-.46.47,1.9,1.9,0,0,0-.18.71h-.32a4.48,4.48,0,0,1,.2-1.37,2,2,0,0,1,.6-.95,1.43,1.43,0,0,1,1-.36l.26,0,.21.05Z"/><path class="cls-4" d="M134.14,193h-1.38v-6.45l-2,.66v-1.15l3.17-1.16h.17Z"/><path class="cls-4" d="M140.34,191.39a.59.59,0,0,0-.1-.34.9.9,0,0,0-.37-.29,3.47,3.47,0,0,0-.81-.24,5.36,5.36,0,0,1-1.13-.36,2,2,0,0,1-.75-.57,1.35,1.35,0,0,1-.27-.85,1.52,1.52,0,0,1,.28-.9,2,2,0,0,1,.81-.67,2.9,2.9,0,0,1,1.23-.25,3.17,3.17,0,0,1,1.3.25,2,2,0,0,1,.83.69,1.63,1.63,0,0,1,.29,1h-1.37a.89.89,0,0,0-.26-.63,1.11,1.11,0,0,0-.79-.26,1.29,1.29,0,0,0-.55.1.89.89,0,0,0-.33.27.69.69,0,0,0-.1.37.57.57,0,0,0,.1.34,1,1,0,0,0,.38.25,4.73,4.73,0,0,0,.74.21,6.91,6.91,0,0,1,1.18.36,1.94,1.94,0,0,1,.77.58,1.61,1.61,0,0,1,0,1.84,1.89,1.89,0,0,1-.84.64,3.23,3.23,0,0,1-1.29.24,2.94,2.94,0,0,1-1.39-.3,2.12,2.12,0,0,1-.86-.75,1.76,1.76,0,0,1-.29-1H138a.91.91,0,0,0,.2.57,1,1,0,0,0,.45.32,1.9,1.9,0,0,0,.58.09,1.7,1.7,0,0,0,.59-.09.88.88,0,0,0,.36-.26A.62.62,0,0,0,140.34,191.39Z"/><path class="cls-4" d="M145.61,188.05h-3.4v-1h3.4Zm-1.06-2.49v5.78a.87.87,0,0,0,.08.41.39.39,0,0,0,.22.2,1.14,1.14,0,0,0,.33.05l.27,0,.2,0V193a3,3,0,0,1-.38.1,3.8,3.8,0,0,1-.52,0,1.92,1.92,0,0,1-.81-.17,1.17,1.17,0,0,1-.56-.54,2,2,0,0,1-.2-1v-5.88Z"/><path class="cls-4" d="M151,193h-1.43V185H151Zm3.89-3.57h-4.25v-1.15h4.25ZM156,193h-1.42V185H156Z"/><path class="cls-4" d="M157.24,190a3.58,3.58,0,0,1,.33-1.57,2.65,2.65,0,0,1,1-1.09,3,3,0,0,1,3,0,2.6,2.6,0,0,1,1,1.09,3.58,3.58,0,0,1,.33,1.57v.11a3.57,3.57,0,0,1-.33,1.56,2.65,2.65,0,0,1-1,1.09,2.81,2.81,0,0,1-1.51.4,2.77,2.77,0,0,1-1.5-.4,2.6,2.6,0,0,1-1-1.09,3.57,3.57,0,0,1-.33-1.56Zm1.37.11a3,3,0,0,0,.15,1,1.54,1.54,0,0,0,.46.71,1.35,1.35,0,0,0,1.62,0,1.54,1.54,0,0,0,.46-.71,3,3,0,0,0,.14-1V190a3.06,3.06,0,0,0-.14-1,1.53,1.53,0,0,0-.47-.71,1.35,1.35,0,0,0-1.62,0,1.68,1.68,0,0,0-.46.71,3.36,3.36,0,0,0-.14,1Z"/><path class="cls-4" d="M165.31,193h-1.38v-6h1.29l.09,1.23Zm-.7-3.21a3.85,3.85,0,0,1,.27-1.49,2.31,2.31,0,0,1,.8-1,2.27,2.27,0,0,1,1.33-.38,1.92,1.92,0,0,1,1.34.49,2.14,2.14,0,0,1,.52,1.62v4H167.5v-3.87a1.43,1.43,0,0,0-.13-.67.76.76,0,0,0-.37-.34,1.6,1.6,0,0,0-1.19,0,1.18,1.18,0,0,0-.42.38,2,2,0,0,0-.23.57,3,3,0,0,0-.08.68Zm3.53-.19a3.51,3.51,0,0,1,.27-1.36,2.31,2.31,0,0,1,.79-1,2.2,2.2,0,0,1,1.28-.37,2.26,2.26,0,0,1,1.05.23,1.51,1.51,0,0,1,.68.71,3,3,0,0,1,.24,1.3V193h-1.38v-3.88a1.55,1.55,0,0,0-.13-.68.7.7,0,0,0-.37-.33,1.57,1.57,0,0,0-.56-.09,1.12,1.12,0,0,0-.53.11,1,1,0,0,0-.38.31,1.61,1.61,0,0,0-.24.45,2.12,2.12,0,0,0-.08.57Z"/><path class="cls-4" d="M176.46,193.14a2.91,2.91,0,0,1-1.54-.39,2.56,2.56,0,0,1-1-1,3.13,3.13,0,0,1-.35-1.47V190a3.66,3.66,0,0,1,.35-1.63,2.61,2.61,0,0,1,1-1.07,2.53,2.53,0,0,1,1.39-.39,2.57,2.57,0,0,1,1.44.38,2.27,2.27,0,0,1,.85,1,3.83,3.83,0,0,1,.29,1.53v.6h-4.64v-1h3.28v-.11a2,2,0,0,0-.13-.65,1.14,1.14,0,0,0-.39-.5,1.23,1.23,0,0,0-.7-.19,1.16,1.16,0,0,0-.74.25,1.54,1.54,0,0,0-.45.69,3.31,3.31,0,0,0-.16,1v.23a2.17,2.17,0,0,0,.19.91,1.5,1.5,0,0,0,.55.64,1.52,1.52,0,0,0,.86.24,1.78,1.78,0,0,0,.85-.19,1.86,1.86,0,0,0,.65-.54l.72.72a2.68,2.68,0,0,1-.85.77A2.75,2.75,0,0,1,176.46,193.14Z"/><path class="cls-4" d="M221.86,191.36a3.58,3.58,0,0,1-2.32,3.55,6.41,6.41,0,0,1-2.48.45,6.49,6.49,0,0,1-2.48-.45,4,4,0,0,1-1.74-1.33,3.73,3.73,0,0,1-.63-2.22,3.38,3.38,0,0,1,.64-2.08,4.07,4.07,0,0,1,1.73-1.33,7,7,0,0,1,4.94,0,4,4,0,0,1,1.71,1.33A3.44,3.44,0,0,1,221.86,191.36Zm-.27-6.22A3.14,3.14,0,0,1,221,187a3.66,3.66,0,0,1-1.59,1.26,5.81,5.81,0,0,1-2.36.45,5.88,5.88,0,0,1-2.36-.45,3.75,3.75,0,0,1-1.62-1.26,3.15,3.15,0,0,1-.59-1.89,3.74,3.74,0,0,1,.59-2.14,3.55,3.55,0,0,1,1.61-1.31,5.75,5.75,0,0,1,2.34-.44,5.91,5.91,0,0,1,2.38.44A3.63,3.63,0,0,1,221,183,3.82,3.82,0,0,1,221.59,185.14Zm-3.13,5.92a1.81,1.81,0,0,0-.18-.85,1.15,1.15,0,0,0-.49-.51,1.63,1.63,0,0,0-1.49,0,1.23,1.23,0,0,0-.5.51,1.81,1.81,0,0,0-.18.85,1.78,1.78,0,0,0,.18.83,1.37,1.37,0,0,0,.5.54,1.45,1.45,0,0,0,.76.19,1.36,1.36,0,0,0,.74-.19,1.28,1.28,0,0,0,.49-.54A1.92,1.92,0,0,0,218.46,191.06Zm-.27-5.71a2,2,0,0,0-.12-.74,1,1,0,0,0-.39-.46,1.29,1.29,0,0,0-1.28,0,.94.94,0,0,0-.37.46,1.82,1.82,0,0,0-.13.74,2,2,0,0,0,.13.75,1.08,1.08,0,0,0,.38.51,1.11,1.11,0,0,0,.65.18,1.09,1.09,0,0,0,.65-.18,1.2,1.2,0,0,0,.37-.51A2.47,2.47,0,0,0,218.19,185.35Z"/><path class="cls-4" d="M226.76,194.83a5.07,5.07,0,0,1-.59,2.37,6.26,6.26,0,0,1-1.42,1.9l-1.71-.79c.12-.29.27-.58.43-.88a5.29,5.29,0,0,0,.41-1,4.53,4.53,0,0,0,.18-1.36v-2.38h2.71Z"/><path class="cls-4" d="M238.66,192.35h-9.91l-.21-2.19,5.43-8.72h2.68l-2.85,4.9-2,3.28h6.9Zm-1.31,2.82H234V181.44h3.39Z"/><path class="cls-4" d="M240.18,188.51l.85-7.07h8.14v2.74H243.8l-.3,2.38a6.35,6.35,0,0,1,.75-.28,3.47,3.47,0,0,1,1.15-.18,4.6,4.6,0,0,1,2.32.54,3.46,3.46,0,0,1,1.45,1.57,5.86,5.86,0,0,1,.49,2.53,4.91,4.91,0,0,1-.52,2.21,4.15,4.15,0,0,1-1.6,1.73,5,5,0,0,1-2.72.68,5.86,5.86,0,0,1-1.81-.29,5.31,5.31,0,0,1-1.58-.84,4.12,4.12,0,0,1-1.11-1.32,3.48,3.48,0,0,1-.39-1.71h3.41a1.47,1.47,0,0,0,.43,1,1.4,1.4,0,0,0,1,.39,1.24,1.24,0,0,0,.91-.31,1.59,1.59,0,0,0,.43-.8,4.42,4.42,0,0,0,.12-1,2.58,2.58,0,0,0-.19-1.06,1.28,1.28,0,0,0-.58-.67,2.06,2.06,0,0,0-1.06-.23,1.9,1.9,0,0,0-1,.23,2.26,2.26,0,0,0-.52.43Z"/><path class="cls-4" d="M260.94,189.6a7.45,7.45,0,0,1-.61,3.23,4.24,4.24,0,0,1-1.71,1.9,4.89,4.89,0,0,1-2.5.63,5,5,0,0,1-2.52-.63,4.2,4.2,0,0,1-1.72-1.9,7.44,7.44,0,0,1-.62-3.23V187a7.41,7.41,0,0,1,.62-3.23,4.19,4.19,0,0,1,1.7-1.91,5.34,5.34,0,0,1,5,0,4.27,4.27,0,0,1,1.71,1.91,7.27,7.27,0,0,1,.62,3.23Zm-3.4-3a5.3,5.3,0,0,0-.18-1.55,1.46,1.46,0,0,0-.5-.79,1.23,1.23,0,0,0-.76-.24,1.26,1.26,0,0,0-.77.24,1.46,1.46,0,0,0-.5.79,5.35,5.35,0,0,0-.17,1.55V190a5.43,5.43,0,0,0,.18,1.58,1.41,1.41,0,0,0,.5.79,1.35,1.35,0,0,0,.78.22,1.25,1.25,0,0,0,.75-.22,1.46,1.46,0,0,0,.5-.79,5.87,5.87,0,0,0,.17-1.58Z"/><path class="cls-4" d="M262.8,194.35a.88.88,0,0,1,.27-.66,1.09,1.09,0,0,1,1.41,0,.88.88,0,0,1,.27.66.86.86,0,0,1-.27.65,1.06,1.06,0,0,1-1.41,0A.86.86,0,0,1,262.8,194.35Z"/><path class="cls-4" d="M270.88,192.28a3.85,3.85,0,0,1-.32,1.7,2.26,2.26,0,0,1-.9,1,2.8,2.8,0,0,1-2.64,0,2.22,2.22,0,0,1-.91-1,4,4,0,0,1-.32-1.7v-1.35a4,4,0,0,1,.32-1.7,2.29,2.29,0,0,1,.9-1,2.81,2.81,0,0,1,2.64,0,2.25,2.25,0,0,1,.91,1,4,4,0,0,1,.32,1.7Zm-1.79-1.59a2.87,2.87,0,0,0-.09-.81.78.78,0,0,0-.26-.42.71.71,0,0,0-.41-.13.68.68,0,0,0-.4.13.78.78,0,0,0-.26.42,2.82,2.82,0,0,0-.1.81v1.82a3,3,0,0,0,.1.83.62.62,0,0,0,.67.53.72.72,0,0,0,.4-.11.78.78,0,0,0,.26-.42,3,3,0,0,0,.09-.83Z"/><path class="cls-4" d="M276.8,192.28a3.84,3.84,0,0,1-.33,1.7,2.15,2.15,0,0,1-.9,1,2.58,2.58,0,0,1-1.31.33,2.65,2.65,0,0,1-1.33-.33,2.15,2.15,0,0,1-.9-1,3.84,3.84,0,0,1-.33-1.7v-1.35a4,4,0,0,1,.32-1.7,2.29,2.29,0,0,1,.9-1,2.83,2.83,0,0,1,2.65,0,2.29,2.29,0,0,1,.9,1,3.84,3.84,0,0,1,.33,1.7ZM275,190.69a2.5,2.5,0,0,0-.1-.81.78.78,0,0,0-.26-.42.68.68,0,0,0-.4-.13.71.71,0,0,0-.41.13.78.78,0,0,0-.26.42,2.87,2.87,0,0,0-.09.81v1.82a3,3,0,0,0,.09.83.79.79,0,0,0,.27.42.76.76,0,0,0,.41.11.71.71,0,0,0,.39-.11.73.73,0,0,0,.26-.42,2.64,2.64,0,0,0,.1-.83Z"/><path class="cls-7" d="M205.55,185.12v-1.3h3.71v1.3Zm0,2.43V186.2h4.82v1.35Zm2.42-2.07a1.14,1.14,0,0,1-.23.73,1.86,1.86,0,0,1-.8.49l-.93-.5a.27.27,0,0,0,.18-.11.48.48,0,0,0,.07-.21c0-.08,0-.18,0-.28l-.08-2.69a2,2,0,0,1,.25-1,1.7,1.7,0,0,1,.71-.67,2.47,2.47,0,0,1,1.09-.23,2.2,2.2,0,0,1,1.6.54,1.85,1.85,0,0,1,.56,1.41h-1.57a.71.71,0,0,0-.08-.36.33.33,0,0,0-.19-.18.6.6,0,0,0-.27-.06.42.42,0,0,0-.32.14.72.72,0,0,0-.12.46Z"/><path class="cls-8" d="M19,228H290a0,0,0,0,1,0,0v.68a3.1,3.1,0,0,1-3.1,3.1H22.1a3.1,3.1,0,0,1-3.1-3.1V228a0,0,0,0,1,0,0Z"/><path class="cls-9" d="M19,228H186a0,0,0,0,1,0,0v3.78a0,0,0,0,1,0,0H22.1a3.1,3.1,0,0,1-3.1-3.1V228a0,0,0,0,1,0,0Z"/><path class="cls-4" d="M233.81,223.54a1.65,1.65,0,0,1-.35.36,2.06,2.06,0,0,1-.65.35,3.29,3.29,0,0,1-1.09.15,2.34,2.34,0,0,1-1.27-.34,2.22,2.22,0,0,1-.88-1,3.33,3.33,0,0,1-.31-1.51v-.46a3.81,3.81,0,0,1,.27-1.51,2.08,2.08,0,0,1,.81-1,2.38,2.38,0,0,1,1.29-.33,2.52,2.52,0,0,1,1.13.23,1.8,1.8,0,0,1,.72.64,2.45,2.45,0,0,1,.33.94H233a1.65,1.65,0,0,0-.2-.59,1.14,1.14,0,0,0-.45-.42,1.48,1.48,0,0,0-.74-.16,1.45,1.45,0,0,0-.9.26,1.58,1.58,0,0,0-.52.74,3.59,3.59,0,0,0-.16,1.15v.47a2.91,2.91,0,0,0,.21,1.17,1.63,1.63,0,0,0,.59.74,1.45,1.45,0,0,0,.88.26,2.5,2.5,0,0,0,.67-.07,1.07,1.07,0,0,0,.4-.17.93.93,0,0,0,.23-.19V222h-1.36v-.62h2.14Z"/><path class="cls-4" d="M234.79,222.08a2.45,2.45,0,0,1,.25-1.14,1.92,1.92,0,0,1,.69-.8,1.83,1.83,0,0,1,1.06-.29,1.89,1.89,0,0,1,1.07.29,1.92,1.92,0,0,1,.69.8,2.58,2.58,0,0,1,.24,1.14v.09a2.64,2.64,0,0,1-.24,1.14,1.83,1.83,0,0,1-.69.79,1.89,1.89,0,0,1-1.07.3,1.86,1.86,0,0,1-1.06-.3,1.83,1.83,0,0,1-.69-.79,2.51,2.51,0,0,1-.25-1.14Zm.76.09a2.28,2.28,0,0,0,.14.8,1.37,1.37,0,0,0,.41.6,1.19,1.19,0,0,0,1.38,0,1.37,1.37,0,0,0,.41-.6,2.28,2.28,0,0,0,.14-.8v-.09a2.38,2.38,0,0,0-.14-.81,1.4,1.4,0,0,0-.41-.59,1.08,1.08,0,0,0-.69-.23,1,1,0,0,0-.69.23,1.4,1.4,0,0,0-.41.59,2.38,2.38,0,0,0-.14.81Z"/><path class="cls-4" d="M242.46,222.18h-.76a1.92,1.92,0,0,0-1,.21.65.65,0,0,0-.35.6.73.73,0,0,0,.22.54.8.8,0,0,0,.62.22,1.23,1.23,0,0,0,.61-.15,1.31,1.31,0,0,0,.41-.36.75.75,0,0,0,.17-.41l.32.36a1,1,0,0,1-.15.38,1.67,1.67,0,0,1-.33.39,1.69,1.69,0,0,1-.5.31,1.47,1.47,0,0,1-.64.13,1.73,1.73,0,0,1-.78-.17,1.32,1.32,0,0,1-.52-.47,1.27,1.27,0,0,1-.19-.66,1.23,1.23,0,0,1,.54-1.08,2.56,2.56,0,0,1,1.44-.37h.87Zm-.14-.87a.84.84,0,0,0-.24-.63.89.89,0,0,0-.68-.23,1.31,1.31,0,0,0-.5.09.87.87,0,0,0-.33.26.53.53,0,0,0-.11.34h-.76a1,1,0,0,1,.21-.61,1.59,1.59,0,0,1,.61-.49,2,2,0,0,1,.92-.19,2.08,2.08,0,0,1,.85.16,1.27,1.27,0,0,1,.58.49,1.46,1.46,0,0,1,.21.81v2.05a3.8,3.8,0,0,0,0,.46,2,2,0,0,0,.12.43v.07h-.79a1.36,1.36,0,0,1-.09-.35,3,3,0,0,1,0-.4Z"/><path class="cls-4" d="M245.08,224.32h-.76v-6.23h.76Z"/><path class="cls-4" d="M248.14,222.08a2.58,2.58,0,0,1,.24-1.14,1.92,1.92,0,0,1,.69-.8,1.85,1.85,0,0,1,1.06-.29,1.89,1.89,0,0,1,1.07.29,1.92,1.92,0,0,1,.69.8,2.58,2.58,0,0,1,.24,1.14v.09a2.64,2.64,0,0,1-.24,1.14,1.83,1.83,0,0,1-.69.79,1.86,1.86,0,0,1-1.06.3,1.89,1.89,0,0,1-1.07-.3,1.83,1.83,0,0,1-.69-.79,2.64,2.64,0,0,1-.24-1.14Zm.76.09a2.07,2.07,0,0,0,.14.8,1.29,1.29,0,0,0,.41.6,1.1,1.1,0,0,0,.69.22,1.14,1.14,0,0,0,.69-.22,1.37,1.37,0,0,0,.41-.6,2.28,2.28,0,0,0,.14-.8v-.09a2.38,2.38,0,0,0-.14-.81,1.33,1.33,0,0,0-.42-.59,1,1,0,0,0-.69-.23,1.08,1.08,0,0,0-.69.23,1.4,1.4,0,0,0-.41.59,2.37,2.37,0,0,0-.13.81Z"/><path class="cls-4" d="M255.13,220.5h-2.38v-.57h2.38Zm-1.69,3.82v-4.86a1.43,1.43,0,0,1,.39-1.08,1.46,1.46,0,0,1,1.06-.38l.26,0,.26,0,0,.61-.2,0H255a.75.75,0,0,0-.56.21.88.88,0,0,0-.2.61v4.86Z"/><path class="cls-4" d="M257.82,221.79v-.63h2.73v.63Zm0,2.53v-.64H262v.64Zm1.47-1.63a1.86,1.86,0,0,1-.11.71,1,1,0,0,1-.34.5l-.71-.22a.35.35,0,0,0,.23-.2,1.6,1.6,0,0,0,.11-.39,2,2,0,0,0,0-.4l-.09-2.59a1.88,1.88,0,0,1,.23-.95,1.53,1.53,0,0,1,.65-.61,2,2,0,0,1,.92-.21,1.67,1.67,0,0,1,1.24.44,1.54,1.54,0,0,1,.44,1.14h-.79a1,1,0,0,0-.13-.55.78.78,0,0,0-.35-.3,1.07,1.07,0,0,0-.47-.1.9.9,0,0,0-.68.3,1.18,1.18,0,0,0-.28.84Z"/><path class="cls-4" d="M265.25,224.32h-.76v-5l-1.51.55v-.67l2.15-.81h.12Z"/><path class="cls-4" d="M267.79,221.35l.3-2.94h3v.69h-2.39l-.17,1.61a1.92,1.92,0,0,1,.4-.17,2,2,0,0,1,.58-.08,1.8,1.8,0,0,1,.94.24,1.56,1.56,0,0,1,.6.69,2.38,2.38,0,0,1,.22,1,2.31,2.31,0,0,1-.21,1,1.51,1.51,0,0,1-.62.7,1.93,1.93,0,0,1-1,.26,2.48,2.48,0,0,1-.68-.1,1.76,1.76,0,0,1-.57-.31,1.47,1.47,0,0,1-.4-.51,1.74,1.74,0,0,1-.2-.72h.72a1.17,1.17,0,0,0,.36.77,1.12,1.12,0,0,0,.77.26,1.08,1.08,0,0,0,.6-.17,1,1,0,0,0,.38-.46,1.93,1.93,0,0,0,.13-.72,1.6,1.6,0,0,0-.14-.67,1.14,1.14,0,0,0-.4-.47,1.15,1.15,0,0,0-.64-.17,1.24,1.24,0,0,0-.57.1,2.07,2.07,0,0,0-.39.28Z"/><path class="cls-4" d="M272.88,224a1.93,1.93,0,0,1-.71,1.46l-.43-.29a3.48,3.48,0,0,0,.22-.36,1.71,1.71,0,0,0,.13-.38,1.86,1.86,0,0,0,.05-.42v-.61h.74Z"/><path class="cls-4" d="M277.46,221.8a4.25,4.25,0,0,1-.23,1.53,1.59,1.59,0,0,1-.64.82,2.09,2.09,0,0,1-2,0,1.61,1.61,0,0,1-.65-.82,4,4,0,0,1-.24-1.53v-.91a3.93,3.93,0,0,1,.24-1.52,1.5,1.5,0,0,1,.64-.8,2.16,2.16,0,0,1,2,0,1.52,1.52,0,0,1,.65.8,4.15,4.15,0,0,1,.23,1.52Zm-.76-1a3.46,3.46,0,0,0-.13-1.07,1,1,0,0,0-.37-.58,1,1,0,0,0-.61-.18,1,1,0,0,0-.6.18,1.09,1.09,0,0,0-.38.58,3.8,3.8,0,0,0-.13,1.07v1.14a4,4,0,0,0,.13,1.08,1.26,1.26,0,0,0,.38.61,1.07,1.07,0,0,0,1.22,0,1.17,1.17,0,0,0,.36-.61,3.62,3.62,0,0,0,.13-1.08Z"/><path class="cls-4" d="M282.13,221.8a4.25,4.25,0,0,1-.23,1.53,1.59,1.59,0,0,1-.64.82,2.09,2.09,0,0,1-2,0,1.61,1.61,0,0,1-.65-.82,4,4,0,0,1-.24-1.53v-.91a4.15,4.15,0,0,1,.23-1.52,1.56,1.56,0,0,1,.65-.8,2.16,2.16,0,0,1,2,0,1.56,1.56,0,0,1,.65.8,4.15,4.15,0,0,1,.23,1.52Zm-.76-1a3.46,3.46,0,0,0-.13-1.07,1.08,1.08,0,0,0-.37-.58,1,1,0,0,0-.61-.18,1,1,0,0,0-.6.18,1.09,1.09,0,0,0-.38.58,3.8,3.8,0,0,0-.13,1.07v1.14a4,4,0,0,0,.13,1.08,1.26,1.26,0,0,0,.38.61,1.07,1.07,0,0,0,1.22,0,1.17,1.17,0,0,0,.36-.61,3.62,3.62,0,0,0,.13-1.08Z"/><path class="cls-4" d="M286.79,221.8a4.27,4.27,0,0,1-.22,1.53,1.59,1.59,0,0,1-.64.82,2.09,2.09,0,0,1-2,0,1.61,1.61,0,0,1-.65-.82,4,4,0,0,1-.24-1.53v-.91a4.15,4.15,0,0,1,.23-1.52,1.56,1.56,0,0,1,.65-.8,2.16,2.16,0,0,1,2,0,1.56,1.56,0,0,1,.65.8,4.18,4.18,0,0,1,.22,1.52Zm-.75-1a3.8,3.8,0,0,0-.13-1.07,1.08,1.08,0,0,0-.37-.58,1.12,1.12,0,0,0-1.22,0,1.15,1.15,0,0,0-.37.58,3.46,3.46,0,0,0-.13,1.07v1.14A4,4,0,0,0,284,223a1.19,1.19,0,0,0,.38.61,1,1,0,0,0,.61.19,1,1,0,0,0,.6-.19,1.12,1.12,0,0,0,.37-.61,3.62,3.62,0,0,0,.13-1.08Z"/><path class="cls-1" d="M54.91,186.69l-9.15-8.33a1,1,0,0,0-1.41,0l-9.15,8.33a1,1,0,0,0,.71,1.82h1.46v8.35a.6.6,0,0,0,.6.6h5a.6.6,0,0,0,.6-.6v-5.07h3v5.07a.6.6,0,0,0,.6.6h5a.6.6,0,0,0,.6-.6v-8.35H54.2a1,1,0,0,0,1-.67A1.05,1.05,0,0,0,54.91,186.69Z"/><path class="cls-1" d="M53.18,179.88a.6.6,0,0,0-.6-.6h-4l4.62,4.21Z"/><rect class="cls-5" x="19" y="246.77" width="271" height="80" rx="4"/><rect class="cls-6" x="26.15" y="264.86" width="37.81" height="37.81" rx="4"/><path class="cls-4" d="M77.88,285.39a3.34,3.34,0,0,1-.45,1.42,2.62,2.62,0,0,1-1.06,1,3.53,3.53,0,0,1-1.67.36,3.18,3.18,0,0,1-1.73-.47,3.08,3.08,0,0,1-1.13-1.33,4.87,4.87,0,0,1-.39-2v-.63a4.71,4.71,0,0,1,.4-2A3.12,3.12,0,0,1,73,280.32a3.26,3.26,0,0,1,1.76-.47,3.39,3.39,0,0,1,1.63.36,2.59,2.59,0,0,1,1,1,3.53,3.53,0,0,1,.45,1.45H76.45a2.08,2.08,0,0,0-.45-1.2,1.6,1.6,0,0,0-1.24-.43,1.71,1.71,0,0,0-1,.31,1.82,1.82,0,0,0-.62.9,4.32,4.32,0,0,0-.21,1.45v.64a5,5,0,0,0,.18,1.42,2,2,0,0,0,.59.92,1.58,1.58,0,0,0,1,.32,2.14,2.14,0,0,0,1-.18,1.23,1.23,0,0,0,.55-.53,2.41,2.41,0,0,0,.25-.87Z"/><path class="cls-4" d="M82.56,285.22h-.94a1.84,1.84,0,0,0-1.1.27.85.85,0,0,0-.37.73.79.79,0,0,0,.24.59.93.93,0,0,0,.69.24,1.42,1.42,0,0,0,.7-.17,1.37,1.37,0,0,0,.48-.4.82.82,0,0,0,.17-.45l.44.61a2.26,2.26,0,0,1-.22.49,2.33,2.33,0,0,1-.42.48,2,2,0,0,1-.61.38,2,2,0,0,1-.81.15,2.26,2.26,0,0,1-1-.24,1.66,1.66,0,0,1-.72-.64,1.6,1.6,0,0,1-.27-.91,1.67,1.67,0,0,1,.72-1.46,3.44,3.44,0,0,1,2-.51h1ZM82.35,284a1.09,1.09,0,0,0-.26-.75,1,1,0,0,0-.78-.27,1.13,1.13,0,0,0-.54.11.75.75,0,0,0-.36.29.67.67,0,0,0-.13.41H78.91a1.52,1.52,0,0,1,.3-.9,2.14,2.14,0,0,1,.86-.69,3.14,3.14,0,0,1,1.32-.26,3,3,0,0,1,1.2.23,1.81,1.81,0,0,1,.83.69,2,2,0,0,1,.3,1.15v2.64a4,4,0,0,0,.06.74,2.47,2.47,0,0,0,.17.56v.1h-1.4a1.89,1.89,0,0,1-.15-.56,3.92,3.92,0,0,1-.05-.67Z"/><path class="cls-4" d="M86.48,288H85.1v-6h1.31l.07,1.18Zm1.8-4.73-.26,0h-.28a1.68,1.68,0,0,0-.76.16,1.16,1.16,0,0,0-.46.47,1.9,1.9,0,0,0-.18.71H86a4.48,4.48,0,0,1,.2-1.37,2.22,2.22,0,0,1,.6-1,1.44,1.44,0,0,1,1-.36l.26,0,.21.05Z"/><path class="cls-4" d="M94.72,282.7a1.68,1.68,0,0,0,.49-.45.9.9,0,0,0,.15-.53.76.76,0,0,0-.22-.53.78.78,0,0,0-.61-.24.75.75,0,0,0-.64.28,1,1,0,0,0-.21.65,1.33,1.33,0,0,0,.28.77c.19.27.42.57.7.9l3.8,4.48H96.88l-3.1-3.64a14.58,14.58,0,0,1-1-1.3,2.07,2.07,0,0,1-.38-1.19,2.12,2.12,0,0,1,.26-1.09,1.75,1.75,0,0,1,.74-.71,2.34,2.34,0,0,1,1.12-.25,2.14,2.14,0,0,1,1.07.25,1.76,1.76,0,0,1,.69.66,1.65,1.65,0,0,1,.25.9,1.74,1.74,0,0,1-.14.69,2.15,2.15,0,0,1-.38.58,4.74,4.74,0,0,1-.57.5l-1.7,1.23a1.88,1.88,0,0,0-.42.44,1.42,1.42,0,0,0-.18.38,1.39,1.39,0,0,0-.05.32,1.33,1.33,0,0,0,.15.63,1.12,1.12,0,0,0,.45.44,1.39,1.39,0,0,0,.7.17,2,2,0,0,0,.88-.21,2.69,2.69,0,0,0,.77-.59,2.85,2.85,0,0,0,.54-.91,3.11,3.11,0,0,0,.2-1.16H98a4.82,4.82,0,0,1-.26,1.64,3.05,3.05,0,0,1-.87,1.29.38.38,0,0,0-.09.09.38.38,0,0,1-.09.09,3.11,3.11,0,0,1-1.07.65,3.69,3.69,0,0,1-1.25.21,3,3,0,0,1-1.39-.3A2.18,2.18,0,0,1,92,287a2.22,2.22,0,0,1-.32-1.18,1.75,1.75,0,0,1,.21-.87,2.62,2.62,0,0,1,.57-.69,8.39,8.39,0,0,1,.82-.65Z"/><path class="cls-4" d="M103.7,288h-1.42V280h1.42Z"/><path class="cls-4" d="M106.63,288h-1.37v-6h1.29l.08,1.28Zm-.68-3.21a3.58,3.58,0,0,1,.3-1.52,2.4,2.4,0,0,1,.84-1,2.12,2.12,0,0,1,1.25-.37,2.15,2.15,0,0,1,1,.22,1.53,1.53,0,0,1,.66.71,3.05,3.05,0,0,1,.24,1.32V288h-1.38v-3.88a1.56,1.56,0,0,0-.12-.66.68.68,0,0,0-.35-.34,1.42,1.42,0,0,0-.57-.1,1.31,1.31,0,0,0-.61.13,1.27,1.27,0,0,0-.45.38,1.78,1.78,0,0,0-.28.57,2.15,2.15,0,0,0-.1.68Z"/><path class="cls-4" d="M114.94,286.39a.67.67,0,0,0-.09-.34.94.94,0,0,0-.38-.29,3.32,3.32,0,0,0-.81-.24,5.08,5.08,0,0,1-1.12-.36,2,2,0,0,1-.76-.57,1.35,1.35,0,0,1-.27-.85,1.6,1.6,0,0,1,.28-.9,2,2,0,0,1,.81-.67,3,3,0,0,1,1.24-.25,3.16,3.16,0,0,1,1.29.25,2.06,2.06,0,0,1,.84.69,1.71,1.71,0,0,1,.29,1h-1.38a.89.89,0,0,0-.26-.63,1.11,1.11,0,0,0-.79-.26,1.21,1.21,0,0,0-.54.1.75.75,0,0,0-.33.27.7.7,0,0,0-.11.37.58.58,0,0,0,.11.34.85.85,0,0,0,.37.25,4.73,4.73,0,0,0,.74.21,6.64,6.64,0,0,1,1.18.36,1.87,1.87,0,0,1,.77.58,1.47,1.47,0,0,1,.27.91,1.52,1.52,0,0,1-.3.93,1.92,1.92,0,0,1-.85.64,3.16,3.16,0,0,1-1.29.24,2.94,2.94,0,0,1-1.39-.3,2.09,2.09,0,0,1-.85-.75,1.68,1.68,0,0,1-.29-.95h1.32a.91.91,0,0,0,.2.57,1,1,0,0,0,.46.32,1.79,1.79,0,0,0,.57.09,1.66,1.66,0,0,0,.59-.09.77.77,0,0,0,.36-.26A.62.62,0,0,0,114.94,286.39Z"/><path class="cls-4" d="M121.68,285.35a4,4,0,0,1-.24,1.43,2.07,2.07,0,0,1-.74,1,2.14,2.14,0,0,1-1.31.37,2,2,0,0,1-1.43-.52,2.28,2.28,0,0,1-.55-1.72V282h1.37v3.89a1.47,1.47,0,0,0,.13.65.72.72,0,0,0,.35.34,1.06,1.06,0,0,0,.48.1,1.53,1.53,0,0,0,.88-.22,1.18,1.18,0,0,0,.46-.59,2.47,2.47,0,0,0,.14-.84ZM121,282h1.38v6h-1.3l-.08-1.42Z"/><path class="cls-4" d="M125.13,288h-1.37v-6h1.3l.07,1.18Zm1.81-4.73-.27,0h-.28a1.68,1.68,0,0,0-.76.16,1.16,1.16,0,0,0-.46.47,1.9,1.9,0,0,0-.18.71h-.31a4.2,4.2,0,0,1,.2-1.37,2.12,2.12,0,0,1,.59-1,1.44,1.44,0,0,1,1-.36l.26,0,.22.05Z"/><path class="cls-4" d="M131.26,285.22h-.95a1.88,1.88,0,0,0-1.1.27.86.86,0,0,0-.36.73.79.79,0,0,0,.24.59.93.93,0,0,0,.69.24,1.42,1.42,0,0,0,.7-.17,1.47,1.47,0,0,0,.48-.4.82.82,0,0,0,.17-.45l.44.61a2.26,2.26,0,0,1-.22.49,2.33,2.33,0,0,1-.42.48,2,2,0,0,1-.61.38,2,2,0,0,1-.81.15,2.23,2.23,0,0,1-1-.24,1.66,1.66,0,0,1-.72-.64,1.6,1.6,0,0,1-.27-.91,1.67,1.67,0,0,1,.72-1.46,3.43,3.43,0,0,1,2-.51h1Zm-.21-1.24a1.09,1.09,0,0,0-.26-.75A1,1,0,0,0,130,283a1.13,1.13,0,0,0-.54.11.75.75,0,0,0-.36.29.67.67,0,0,0-.13.41h-1.37a1.52,1.52,0,0,1,.3-.9,2.14,2.14,0,0,1,.86-.69,3.14,3.14,0,0,1,1.32-.26,3,3,0,0,1,1.2.23,1.81,1.81,0,0,1,.83.69,2,2,0,0,1,.3,1.15v2.64a4,4,0,0,0,.06.74,2.47,2.47,0,0,0,.17.56v.1h-1.4a1.89,1.89,0,0,1-.15-.56,3.92,3.92,0,0,1,0-.67Z"/><path class="cls-4" d="M135.16,288h-1.37v-6h1.29l.08,1.28Zm-.69-3.21a3.74,3.74,0,0,1,.31-1.52,2.4,2.4,0,0,1,.84-1,2.1,2.1,0,0,1,1.25-.37,2.18,2.18,0,0,1,1,.22,1.53,1.53,0,0,1,.66.71,3.05,3.05,0,0,1,.24,1.32V288H137.4v-3.88a1.56,1.56,0,0,0-.12-.66.72.72,0,0,0-.35-.34,1.44,1.44,0,0,0-.58-.1,1.25,1.25,0,0,0-1,.51,1.8,1.8,0,0,0-.29.57,2.48,2.48,0,0,0-.09.68Z"/><path class="cls-4" d="M142.58,287a1.28,1.28,0,0,0,.59-.14,1,1,0,0,0,.41-.35,1,1,0,0,0,.17-.52h1.3a2,2,0,0,1-.35,1.07,2.38,2.38,0,0,1-.88.75,2.66,2.66,0,0,1-1.23.29,2.71,2.71,0,0,1-1.52-.41,2.53,2.53,0,0,1-.9-1.09,3.75,3.75,0,0,1-.3-1.52v-.18a3.75,3.75,0,0,1,.3-1.52,2.53,2.53,0,0,1,.9-1.09,2.71,2.71,0,0,1,1.52-.41,2.75,2.75,0,0,1,1.28.29,2.16,2.16,0,0,1,.85.79,2.33,2.33,0,0,1,.33,1.19h-1.3a1.26,1.26,0,0,0-.16-.58,1.08,1.08,0,0,0-.39-.43,1.24,1.24,0,0,0-.62-.16,1.15,1.15,0,0,0-.82.28,1.52,1.52,0,0,0-.41.72,3.87,3.87,0,0,0-.11.92v.18a4,4,0,0,0,.11.93,1.42,1.42,0,0,0,.4.71A1.21,1.21,0,0,0,142.58,287Z"/><path class="cls-4" d="M148.71,288.14a2.94,2.94,0,0,1-1.54-.39,2.7,2.7,0,0,1-1-1,3.13,3.13,0,0,1-.35-1.47V285a3.53,3.53,0,0,1,.36-1.63,2.65,2.65,0,0,1,1-1.07,2.57,2.57,0,0,1,1.4-.39,2.54,2.54,0,0,1,1.43.38,2.29,2.29,0,0,1,.86,1,3.83,3.83,0,0,1,.28,1.53v.6h-4.64v-1h3.28v-.11a2,2,0,0,0-.13-.65,1.12,1.12,0,0,0-.38-.5,1.24,1.24,0,0,0-.71-.19,1.13,1.13,0,0,0-.73.25,1.64,1.64,0,0,0-.46.69,3.32,3.32,0,0,0-.15,1.05v.23a2,2,0,0,0,.19.91,1.41,1.41,0,0,0,.54.64,1.52,1.52,0,0,0,.86.24,1.79,1.79,0,0,0,1.5-.73l.72.72a2.58,2.58,0,0,1-.85.77A2.73,2.73,0,0,1,148.71,288.14Z"/><path class="cls-4" d="M156.09,285.05V283.9h2.08a2,2,0,0,0,.87-.17,1.14,1.14,0,0,0,.49-.48,1.54,1.54,0,0,0,.15-.7,1.66,1.66,0,0,0-.15-.7,1.31,1.31,0,0,0-.49-.53,1.6,1.6,0,0,0-.87-.21h-1.65V288h-1.43V280h3.08a3.54,3.54,0,0,1,1.6.33,2.44,2.44,0,0,1,1,.92,2.81,2.81,0,0,1,0,2.68,2.26,2.26,0,0,1-1,.86,3.84,3.84,0,0,1-1.6.3Z"/><path class="cls-4" d="M161.89,285a3.58,3.58,0,0,1,.33-1.57,2.6,2.6,0,0,1,1-1.09,2.74,2.74,0,0,1,1.49-.4,2.84,2.84,0,0,1,1.52.4,2.65,2.65,0,0,1,.95,1.09,3.58,3.58,0,0,1,.33,1.57v.11a3.57,3.57,0,0,1-.33,1.56,2.65,2.65,0,0,1-.95,1.09,3,3,0,0,1-3,0,2.6,2.6,0,0,1-1-1.09,3.57,3.57,0,0,1-.33-1.56Zm1.37.11a3,3,0,0,0,.15,1,1.62,1.62,0,0,0,.46.71,1.35,1.35,0,0,0,1.62,0,1.54,1.54,0,0,0,.46-.71,3,3,0,0,0,.15-1V285a3.05,3.05,0,0,0-.15-1,1.6,1.6,0,0,0-.46-.71,1.21,1.21,0,0,0-.82-.27,1.17,1.17,0,0,0-.8.27,1.6,1.6,0,0,0-.46.71,3.05,3.05,0,0,0-.15,1Z"/><path class="cls-4" d="M171.34,283.05h-3.4v-1h3.4Zm-1.07-2.49v5.78a.87.87,0,0,0,.08.41.43.43,0,0,0,.22.2,1.16,1.16,0,0,0,.34.05l.26,0,.21,0V288a2.74,2.74,0,0,1-.39.1,3.64,3.64,0,0,1-.51,0,1.94,1.94,0,0,1-.82-.17,1.22,1.22,0,0,1-.56-.54,2.15,2.15,0,0,1-.2-1v-5.88Z"/><path class="cls-4" d="M262.8,289.35a.88.88,0,0,1,.27-.66,1.09,1.09,0,0,1,1.41,0,.88.88,0,0,1,.27.66.86.86,0,0,1-.27.65,1.06,1.06,0,0,1-1.41,0A.86.86,0,0,1,262.8,289.35Z"/><path class="cls-4" d="M270.88,287.28a3.85,3.85,0,0,1-.32,1.7,2.26,2.26,0,0,1-.9,1,2.81,2.81,0,0,1-2.64,0,2.22,2.22,0,0,1-.91-1,4,4,0,0,1-.32-1.7v-1.35a4,4,0,0,1,.32-1.7,2.29,2.29,0,0,1,.9-1,2.8,2.8,0,0,1,2.64,0,2.25,2.25,0,0,1,.91,1,4,4,0,0,1,.32,1.7Zm-1.79-1.59a2.87,2.87,0,0,0-.09-.81.78.78,0,0,0-.26-.42.71.71,0,0,0-.41-.13.68.68,0,0,0-.4.13.78.78,0,0,0-.26.42,2.82,2.82,0,0,0-.1.81v1.82a3,3,0,0,0,.1.83.62.62,0,0,0,.67.53.72.72,0,0,0,.4-.11.78.78,0,0,0,.26-.42,3,3,0,0,0,.09-.83Z"/><path class="cls-4" d="M276.8,287.28a3.84,3.84,0,0,1-.33,1.7,2.15,2.15,0,0,1-.9,1,2.58,2.58,0,0,1-1.31.33,2.65,2.65,0,0,1-1.33-.33,2.15,2.15,0,0,1-.9-1,3.84,3.84,0,0,1-.33-1.7v-1.35a4,4,0,0,1,.32-1.7,2.29,2.29,0,0,1,.9-1,2.83,2.83,0,0,1,2.65,0,2.29,2.29,0,0,1,.9,1,3.84,3.84,0,0,1,.33,1.7ZM275,285.69a2.5,2.5,0,0,0-.1-.81.78.78,0,0,0-.26-.42.68.68,0,0,0-.4-.13.71.71,0,0,0-.41.13.78.78,0,0,0-.26.42,2.87,2.87,0,0,0-.09.81v1.82a3,3,0,0,0,.09.83.79.79,0,0,0,.27.42.76.76,0,0,0,.41.11.71.71,0,0,0,.39-.11.73.73,0,0,0,.26-.42,2.64,2.64,0,0,0,.1-.83Z"/><path class="cls-7" d="M205.55,280.12v-1.3h3.71v1.3Zm0,2.43V281.2h4.82v1.35Zm2.42-2.07a1.14,1.14,0,0,1-.23.73,1.86,1.86,0,0,1-.8.49l-.93-.5a.27.27,0,0,0,.18-.11.48.48,0,0,0,.07-.21c0-.08,0-.18,0-.28l-.08-2.69a2,2,0,0,1,.25-1.05,1.7,1.7,0,0,1,.71-.67,2.47,2.47,0,0,1,1.09-.23,2.2,2.2,0,0,1,1.6.54,1.85,1.85,0,0,1,.56,1.41h-1.57a.71.71,0,0,0-.08-.36.33.33,0,0,0-.19-.18.6.6,0,0,0-.27-.06.42.42,0,0,0-.32.14.72.72,0,0,0-.12.46Z"/><path class="cls-8" d="M19,323H290a0,0,0,0,1,0,0v.68a3.1,3.1,0,0,1-3.1,3.1H22.1a3.1,3.1,0,0,1-3.1-3.1V323a0,0,0,0,1,0,0Z"/><path class="cls-9" d="M19,323H262.68a0,0,0,0,1,0,0v3.78a0,0,0,0,1,0,0H22.1a3.1,3.1,0,0,1-3.1-3.1V323a0,0,0,0,1,0,0Z"/><path class="cls-4" d="M238.48,318.54a1.65,1.65,0,0,1-.35.36,2.18,2.18,0,0,1-.65.35,3.33,3.33,0,0,1-1.09.15,2.34,2.34,0,0,1-1.27-.34,2.22,2.22,0,0,1-.88-1,3.33,3.33,0,0,1-.32-1.51v-.46a3.8,3.8,0,0,1,.28-1.51,2,2,0,0,1,.81-1,2.38,2.38,0,0,1,1.29-.33,2.52,2.52,0,0,1,1.13.23,1.8,1.8,0,0,1,.72.64,2.45,2.45,0,0,1,.33.94h-.79a1.49,1.49,0,0,0-.21-.59,1.05,1.05,0,0,0-.44-.42,1.48,1.48,0,0,0-.74-.16,1.45,1.45,0,0,0-.9.26,1.58,1.58,0,0,0-.52.74,3.57,3.57,0,0,0-.17,1.15v.47a2.91,2.91,0,0,0,.22,1.17,1.68,1.68,0,0,0,.58.74,1.49,1.49,0,0,0,.88.26,2.53,2.53,0,0,0,.68-.07,1.07,1.07,0,0,0,.4-.17.93.93,0,0,0,.23-.19V317h-1.37v-.62h2.15Z"/><path class="cls-4" d="M239.46,317.08a2.45,2.45,0,0,1,.25-1.14,2,2,0,0,1,.68-.8,2.1,2.1,0,0,1,2.13,0,2,2,0,0,1,.7.8,2.58,2.58,0,0,1,.24,1.14v.09a2.64,2.64,0,0,1-.24,1.14,2,2,0,0,1-.69.79,1.89,1.89,0,0,1-1.07.3,1.86,1.86,0,0,1-1.06-.3,1.83,1.83,0,0,1-.69-.79,2.51,2.51,0,0,1-.25-1.14Zm.76.09a2.28,2.28,0,0,0,.14.8,1.37,1.37,0,0,0,.41.6,1.19,1.19,0,0,0,1.38,0,1.37,1.37,0,0,0,.41-.6,2.28,2.28,0,0,0,.14-.8v-.09a2.38,2.38,0,0,0-.14-.81,1.4,1.4,0,0,0-.41-.59,1.09,1.09,0,0,0-.7-.23,1,1,0,0,0-.68.23,1.31,1.31,0,0,0-.41.59,2.38,2.38,0,0,0-.14.81Z"/><path class="cls-4" d="M247.12,317.18h-.75a1.92,1.92,0,0,0-1,.21.65.65,0,0,0-.35.6.76.76,0,0,0,.21.54.83.83,0,0,0,.63.22,1.16,1.16,0,0,0,.6-.15,1.25,1.25,0,0,0,.42-.36.75.75,0,0,0,.17-.41l.32.36a1.24,1.24,0,0,1-.15.38,1.73,1.73,0,0,1-.34.39,1.52,1.52,0,0,1-.49.31,1.5,1.5,0,0,1-.64.13,1.73,1.73,0,0,1-.78-.17,1.32,1.32,0,0,1-.52-.47,1.18,1.18,0,0,1-.19-.66,1.23,1.23,0,0,1,.54-1.08,2.51,2.51,0,0,1,1.44-.37h.87Zm-.13-.87a.84.84,0,0,0-.24-.63.9.9,0,0,0-.69-.23,1.26,1.26,0,0,0-.49.09.87.87,0,0,0-.33.26.54.54,0,0,0-.12.34h-.75a1,1,0,0,1,.21-.61,1.59,1.59,0,0,1,.61-.49,2,2,0,0,1,.92-.19,2.08,2.08,0,0,1,.85.16,1.32,1.32,0,0,1,.58.49,1.54,1.54,0,0,1,.2.81v2.05a3.91,3.91,0,0,0,0,.46,2,2,0,0,0,.12.43v.07h-.79A1.36,1.36,0,0,1,247,319a3,3,0,0,1,0-.4Z"/><path class="cls-4" d="M249.74,319.32H249v-6.23h.75Z"/><path class="cls-4" d="M252.81,317.08a2.58,2.58,0,0,1,.24-1.14,1.92,1.92,0,0,1,.69-.8,1.85,1.85,0,0,1,1.06-.29,1.89,1.89,0,0,1,1.07.29,1.92,1.92,0,0,1,.69.8,2.58,2.58,0,0,1,.24,1.14v.09a2.64,2.64,0,0,1-.24,1.14,1.83,1.83,0,0,1-.69.79,1.86,1.86,0,0,1-1.06.3,1.89,1.89,0,0,1-1.07-.3,1.83,1.83,0,0,1-.69-.79,2.64,2.64,0,0,1-.24-1.14Zm.76.09a2.28,2.28,0,0,0,.13.8,1.31,1.31,0,0,0,.42.6,1.18,1.18,0,0,0,1.37,0,1.39,1.39,0,0,0,.42-.6,2.28,2.28,0,0,0,.13-.8v-.09a2.37,2.37,0,0,0-.13-.81,1.42,1.42,0,0,0-.42-.59,1,1,0,0,0-.69-.23,1.08,1.08,0,0,0-.69.23,1.4,1.4,0,0,0-.41.59,2.37,2.37,0,0,0-.13.81Z"/><path class="cls-4" d="M259.8,315.5h-2.38v-.57h2.38Zm-1.69,3.82v-4.86a1.43,1.43,0,0,1,.39-1.08,1.46,1.46,0,0,1,1.06-.38l.26,0,.26,0,0,.61-.2,0h-.21a.75.75,0,0,0-.56.21.88.88,0,0,0-.2.61v4.86Z"/><path class="cls-4" d="M262.49,316.79v-.63h2.73v.63Zm0,2.53v-.64h4.19v.64Zm1.47-1.63a2.07,2.07,0,0,1-.11.71,1,1,0,0,1-.34.5l-.71-.22a.31.31,0,0,0,.22-.2,1.27,1.27,0,0,0,.12-.39,3.18,3.18,0,0,0,0-.4l-.09-2.59a1.78,1.78,0,0,1,.23-1,1.53,1.53,0,0,1,.65-.61,2,2,0,0,1,.92-.21,1.67,1.67,0,0,1,1.24.44,1.54,1.54,0,0,1,.44,1.14h-.79a1,1,0,0,0-.13-.55.75.75,0,0,0-.36-.3,1,1,0,0,0-.46-.1.9.9,0,0,0-.68.3,1.18,1.18,0,0,0-.28.84Z"/><path class="cls-4" d="M267.79,316.35l.3-2.94h3v.69h-2.39l-.17,1.61a1.92,1.92,0,0,1,.4-.17,2,2,0,0,1,.58-.08,1.8,1.8,0,0,1,.94.24,1.56,1.56,0,0,1,.6.69,2.38,2.38,0,0,1,.21,1,2.31,2.31,0,0,1-.2,1,1.56,1.56,0,0,1-.62.7,1.93,1.93,0,0,1-1,.26,2.48,2.48,0,0,1-.68-.1,1.76,1.76,0,0,1-.57-.31,1.62,1.62,0,0,1-.41-.51,1.9,1.9,0,0,1-.19-.72h.72a1.17,1.17,0,0,0,.36.77,1.12,1.12,0,0,0,.77.26,1.08,1.08,0,0,0,.6-.17,1,1,0,0,0,.38-.46,1.93,1.93,0,0,0,.13-.72,1.6,1.6,0,0,0-.14-.67,1.14,1.14,0,0,0-.4-.47,1.15,1.15,0,0,0-.64-.17,1.24,1.24,0,0,0-.57.1,1.79,1.79,0,0,0-.39.28Z"/><path class="cls-4" d="M272.88,319a1.93,1.93,0,0,1-.71,1.46l-.43-.29a3.48,3.48,0,0,0,.22-.36,1.71,1.71,0,0,0,.13-.38,1.86,1.86,0,0,0,.05-.42v-.61h.74Z"/><path class="cls-4" d="M277.46,316.8a4.25,4.25,0,0,1-.23,1.53,1.59,1.59,0,0,1-.64.82,2.09,2.09,0,0,1-2,0,1.61,1.61,0,0,1-.65-.82,4,4,0,0,1-.24-1.53v-.91a4.15,4.15,0,0,1,.23-1.52,1.56,1.56,0,0,1,.65-.8,2.16,2.16,0,0,1,2,0,1.56,1.56,0,0,1,.65.8,4.15,4.15,0,0,1,.23,1.52Zm-.76-1a3.46,3.46,0,0,0-.13-1.07,1.08,1.08,0,0,0-.37-.58,1,1,0,0,0-.61-.18,1,1,0,0,0-.6.18,1.09,1.09,0,0,0-.38.58,3.8,3.8,0,0,0-.13,1.07v1.14a4,4,0,0,0,.13,1.08,1.26,1.26,0,0,0,.38.61,1.07,1.07,0,0,0,1.22,0,1.17,1.17,0,0,0,.36-.61,3.62,3.62,0,0,0,.13-1.08Z"/><path class="cls-4" d="M282.12,316.8a4.27,4.27,0,0,1-.22,1.53,1.59,1.59,0,0,1-.64.82,2.09,2.09,0,0,1-2,0,1.61,1.61,0,0,1-.65-.82,4,4,0,0,1-.24-1.53v-.91a4.15,4.15,0,0,1,.23-1.52,1.56,1.56,0,0,1,.65-.8,2.16,2.16,0,0,1,2,0,1.56,1.56,0,0,1,.65.8,4.18,4.18,0,0,1,.22,1.52Zm-.75-1a3.46,3.46,0,0,0-.13-1.07,1.08,1.08,0,0,0-.37-.58,1,1,0,0,0-.61-.18,1,1,0,0,0-.6.18,1.09,1.09,0,0,0-.38.58,3.8,3.8,0,0,0-.13,1.07v1.14a4,4,0,0,0,.13,1.08,1.26,1.26,0,0,0,.38.61,1.07,1.07,0,0,0,1.22,0,1.17,1.17,0,0,0,.36-.61,3.62,3.62,0,0,0,.13-1.08Z"/><path class="cls-4" d="M286.79,316.8a4.27,4.27,0,0,1-.22,1.53,1.59,1.59,0,0,1-.64.82,2.09,2.09,0,0,1-2,0,1.61,1.61,0,0,1-.65-.82,4,4,0,0,1-.24-1.53v-.91a4.15,4.15,0,0,1,.23-1.52,1.56,1.56,0,0,1,.65-.8,2.16,2.16,0,0,1,2,0,1.56,1.56,0,0,1,.65.8,4.18,4.18,0,0,1,.22,1.52Zm-.75-1a3.8,3.8,0,0,0-.13-1.07,1.08,1.08,0,0,0-.37-.58,1.12,1.12,0,0,0-1.22,0,1.08,1.08,0,0,0-.37.58,3.46,3.46,0,0,0-.13,1.07v1.14A3.62,3.62,0,0,0,284,318a1.19,1.19,0,0,0,.38.61,1,1,0,0,0,.61.19,1,1,0,0,0,.6-.19,1.12,1.12,0,0,0,.37-.61,4,4,0,0,0,.13-1.08Z"/><path class="cls-1" d="M36.84,285.82A2.2,2.2,0,1,0,39,288,2.2,2.2,0,0,0,36.84,285.82Z"/><path class="cls-1" d="M57.4,283,55,281.89a.49.49,0,0,1-.2-.18l-2.12-3.38a2.12,2.12,0,0,0-1.83-1H42.18a2.18,2.18,0,0,0-1.72.84l-2.72,3.57a.49.49,0,0,1-.25.17l-4.56,1.25a1.48,1.48,0,0,0-1.09,1.45v1.67a1.5,1.5,0,0,0,1.48,1.52h.39a3.13,3.13,0,0,1,6.25,0h9.86a3.13,3.13,0,0,1,6.25,0h.72a1.5,1.5,0,0,0,1.48-1.52v-1.91A1.5,1.5,0,0,0,57.4,283Z"/><path class="cls-1" d="M53,285.82a2.2,2.2,0,1,0,2.19,2.2A2.2,2.2,0,0,0,53,285.82Z"/><path class="cls-4" d="M222.1,287.37h-10l-.21-2.22,5.48-8.8h2.71l-2.89,4.94-2.05,3.32h7Zm-1.33,2.84h-3.43V276.35h3.43Z"/><path class="cls-4" d="M226.83,289.87a5.26,5.26,0,0,1-.6,2.4,6.36,6.36,0,0,1-1.44,1.92l-1.72-.8c.12-.3.27-.59.43-.9a6,6,0,0,0,.42-1,4.74,4.74,0,0,0,.17-1.38v-2.4h2.75Z"/><path class="cls-4" d="M229,283.49l.85-7.14h8.23v2.76h-5.43l-.29,2.41a4.92,4.92,0,0,1,.75-.29,3.57,3.57,0,0,1,1.16-.18,4.72,4.72,0,0,1,2.35.55,3.53,3.53,0,0,1,1.46,1.59,6,6,0,0,1,.5,2.55,5,5,0,0,1-.53,2.23,4.29,4.29,0,0,1-1.61,1.75,5,5,0,0,1-2.75.68,5.65,5.65,0,0,1-1.83-.29,5.22,5.22,0,0,1-1.6-.85,4.08,4.08,0,0,1-1.12-1.33,3.52,3.52,0,0,1-.39-1.72h3.45a1.51,1.51,0,0,0,.42,1,1.41,1.41,0,0,0,1,.4,1.25,1.25,0,0,0,.92-.31,1.68,1.68,0,0,0,.44-.81,4.59,4.59,0,0,0,.12-1.06,2.66,2.66,0,0,0-.19-1.07,1.33,1.33,0,0,0-.59-.67,2.07,2.07,0,0,0-1.07-.24,1.93,1.93,0,0,0-1,.24,2,2,0,0,0-.52.44Z"/><path class="cls-4" d="M250,284.59a7.58,7.58,0,0,1-.62,3.26,4.32,4.32,0,0,1-1.72,1.92,5.44,5.44,0,0,1-5.08,0,4.22,4.22,0,0,1-1.73-1.92,7.43,7.43,0,0,1-.63-3.26V282a7.55,7.55,0,0,1,.62-3.26,4.3,4.3,0,0,1,1.73-1.93,5.34,5.34,0,0,1,5.07,0,4.25,4.25,0,0,1,1.73,1.93A7.4,7.4,0,0,1,250,282Zm-3.43-3a5.35,5.35,0,0,0-.19-1.57,1.54,1.54,0,0,0-.5-.8,1.26,1.26,0,0,0-.77-.24,1.29,1.29,0,0,0-.78.24,1.54,1.54,0,0,0-.5.8,5.4,5.4,0,0,0-.18,1.57V285a5.51,5.51,0,0,0,.18,1.59,1.5,1.5,0,0,0,.51.81,1.36,1.36,0,0,0,.79.22,1.31,1.31,0,0,0,.76-.22,1.49,1.49,0,0,0,.5-.81,5.51,5.51,0,0,0,.18-1.59Z"/><path class="cls-4" d="M261.35,284.59a7.58,7.58,0,0,1-.62,3.26,4.28,4.28,0,0,1-1.73,1.92,5,5,0,0,1-2.52.63,5.08,5.08,0,0,1-2.55-.63,4.22,4.22,0,0,1-1.73-1.92,7.43,7.43,0,0,1-.63-3.26V282a7.55,7.55,0,0,1,.62-3.26,4.3,4.3,0,0,1,1.73-1.93,5.34,5.34,0,0,1,5.07,0,4.3,4.3,0,0,1,1.73,1.93,7.4,7.4,0,0,1,.63,3.26Zm-3.43-3a5.35,5.35,0,0,0-.19-1.57,1.54,1.54,0,0,0-.5-.8,1.26,1.26,0,0,0-.77-.24,1.29,1.29,0,0,0-.78.24,1.48,1.48,0,0,0-.5.8,5.4,5.4,0,0,0-.18,1.57V285a5.51,5.51,0,0,0,.18,1.59,1.5,1.5,0,0,0,.51.81,1.36,1.36,0,0,0,.79.22,1.31,1.31,0,0,0,.76-.22,1.49,1.49,0,0,0,.5-.81,5.51,5.51,0,0,0,.18-1.59Z"/><path class="cls-10" d="M85,356.15a3.27,3.27,0,0,1-.47,1.5,2.75,2.75,0,0,1-1.12,1,3.78,3.78,0,0,1-1.76.37,3.29,3.29,0,0,1-1.83-.49,3.2,3.2,0,0,1-1.2-1.41,5,5,0,0,1-.42-2.14v-.68a4.89,4.89,0,0,1,.43-2.14,3.24,3.24,0,0,1,1.22-1.41,3.4,3.4,0,0,1,1.86-.49,3.66,3.66,0,0,1,1.73.37,2.76,2.76,0,0,1,1.09,1.05,3.57,3.57,0,0,1,.47,1.52h-1.5A2.26,2.26,0,0,0,83,352a1.67,1.67,0,0,0-1.31-.45,1.75,1.75,0,0,0-1.1.32,2,2,0,0,0-.66.95,4.58,4.58,0,0,0-.22,1.53V355a5.11,5.11,0,0,0,.19,1.5,2,2,0,0,0,.63,1,1.66,1.66,0,0,0,1.1.34,2.2,2.2,0,0,0,1-.19,1.35,1.35,0,0,0,.59-.57,2.57,2.57,0,0,0,.25-.92Z"/><path class="cls-10" d="M87.6,358.94H86.15V352.6h1.38l.07,1.25Zm1.91-5-.28,0h-.3a1.61,1.61,0,0,0-.8.18,1.14,1.14,0,0,0-.48.49,1.88,1.88,0,0,0-.2.75h-.33a4.55,4.55,0,0,1,.21-1.44,2.28,2.28,0,0,1,.63-1,1.54,1.54,0,0,1,1.06-.37,1.32,1.32,0,0,1,.27,0l.23.05Z"/><path class="cls-10" d="M93.21,359.06a3.06,3.06,0,0,1-1.63-.41,2.74,2.74,0,0,1-1.06-1.1,3.32,3.32,0,0,1-.37-1.55v-.24a3.77,3.77,0,0,1,.38-1.73,2.78,2.78,0,0,1,1-1.14,3,3,0,0,1,3,0,2.4,2.4,0,0,1,.91,1.1,4,4,0,0,1,.3,1.62v.63H90.85v-1.05h3.47v-.12a2,2,0,0,0-.14-.69,1.17,1.17,0,0,0-.41-.52,1.25,1.25,0,0,0-.74-.2,1.2,1.2,0,0,0-.78.26,1.65,1.65,0,0,0-.48.74,3.34,3.34,0,0,0-.16,1.11V356a2.12,2.12,0,0,0,.2,1,1.54,1.54,0,0,0,.58.68,1.56,1.56,0,0,0,.9.25,2,2,0,0,0,.91-.2,1.94,1.94,0,0,0,.68-.57l.76.76a2.62,2.62,0,0,1-.89.81A2.9,2.9,0,0,1,93.21,359.06Z"/><path class="cls-10" d="M100.62,356h-1a2,2,0,0,0-1.16.28.91.91,0,0,0-.39.77.86.86,0,0,0,.26.63,1,1,0,0,0,.72.25,1.49,1.49,0,0,0,.75-.18,1.39,1.39,0,0,0,.5-.42.87.87,0,0,0,.19-.48l.46.65a1.88,1.88,0,0,1-.23.51,2.29,2.29,0,0,1-1.09.92,2.28,2.28,0,0,1-.86.15,2.33,2.33,0,0,1-1.11-.25,1.84,1.84,0,0,1-.76-.67,1.72,1.72,0,0,1-.28-1,1.8,1.8,0,0,1,.75-1.55,3.67,3.67,0,0,1,2.15-.54h1.09Zm-.22-1.32a1,1,0,0,0-1.1-1.08,1.26,1.26,0,0,0-.57.12.89.89,0,0,0-.38.3.77.77,0,0,0-.14.44H96.76a1.6,1.6,0,0,1,.32-.95,2.32,2.32,0,0,1,.91-.73,3.31,3.31,0,0,1,1.39-.27,3.16,3.16,0,0,1,1.27.24,1.9,1.9,0,0,1,.88.72,2.21,2.21,0,0,1,.32,1.22v2.8a4.5,4.5,0,0,0,.06.78,2.56,2.56,0,0,0,.19.59v.1h-1.49a2.36,2.36,0,0,1-.16-.59,5.78,5.78,0,0,1,0-.71Z"/><path class="cls-10" d="M106.25,353.68h-3.6V352.6h3.6Zm-1.13-2.63v6.11a.88.88,0,0,0,.09.44.38.38,0,0,0,.23.2,1,1,0,0,0,.35.05h.28l.22,0v1.12a3.08,3.08,0,0,1-.41.1,2.83,2.83,0,0,1-.54,0,2.13,2.13,0,0,1-.86-.17,1.27,1.27,0,0,1-.59-.58,2.1,2.1,0,0,1-.22-1.05v-6.21Z"/><path class="cls-10" d="M110.12,359.06a3.06,3.06,0,0,1-1.63-.41,2.78,2.78,0,0,1-1-1.1,3.2,3.2,0,0,1-.37-1.55v-.24a3.77,3.77,0,0,1,.38-1.73,2.83,2.83,0,0,1,1-1.14,3,3,0,0,1,3,0,2.44,2.44,0,0,1,.9,1.1,4,4,0,0,1,.3,1.62v.63h-4.9v-1.05h3.47v-.12a2.29,2.29,0,0,0-.14-.69,1.24,1.24,0,0,0-.41-.52,1.27,1.27,0,0,0-.74-.2,1.2,1.2,0,0,0-.78.26,1.65,1.65,0,0,0-.48.74,3.32,3.32,0,0,0-.17,1.11V356a2.26,2.26,0,0,0,.2,1,1.68,1.68,0,0,0,.58.68,1.61,1.61,0,0,0,.91.25,2.06,2.06,0,0,0,.91-.2,1.94,1.94,0,0,0,.68-.57l.76.76a2.76,2.76,0,0,1-.9.81A2.86,2.86,0,0,1,110.12,359.06Z"/><path class="cls-10" d="M118.17,358.94h-1.45V352.6h1.37l.08,1.36Zm-.72-3.39a3.85,3.85,0,0,1,.32-1.61,2.6,2.6,0,0,1,.88-1.07,2.28,2.28,0,0,1,1.33-.38,2.21,2.21,0,0,1,1.06.23,1.53,1.53,0,0,1,.71.75,3.17,3.17,0,0,1,.25,1.39v4.08h-1.46v-4.09a1.69,1.69,0,0,0-.12-.7.8.8,0,0,0-.38-.37,1.59,1.59,0,0,0-.61-.1,1.34,1.34,0,0,0-.64.14,1.5,1.5,0,0,0-.47.4,1.88,1.88,0,0,0-.3.6,2.48,2.48,0,0,0-.1.73Z"/><path class="cls-10" d="M126.23,359.06a3.06,3.06,0,0,1-1.63-.41,2.65,2.65,0,0,1-1-1.1,3.2,3.2,0,0,1-.37-1.55v-.24a3.77,3.77,0,0,1,.37-1.73,2.85,2.85,0,0,1,1-1.14,3,3,0,0,1,3,0,2.44,2.44,0,0,1,.9,1.1,4,4,0,0,1,.3,1.62v.63h-4.9v-1.05h3.46v-.12a1.81,1.81,0,0,0-.14-.69,1.14,1.14,0,0,0-.4-.52,1.3,1.3,0,0,0-.75-.2,1.19,1.19,0,0,0-.77.26,1.58,1.58,0,0,0-.49.74,3.62,3.62,0,0,0-.16,1.11V356a2.26,2.26,0,0,0,.2,1,1.56,1.56,0,0,0,1.49.93,1.94,1.94,0,0,0,1.59-.77l.76.76a2.76,2.76,0,0,1-.9.81A2.86,2.86,0,0,1,126.23,359.06Z"/><path class="cls-10" d="M131.9,357.51l.07,1.43h-.92l-1.71-6.34h1.42ZM133,352.6H134l-.24,1.55-1.47,4.79h-.82l.15-1.44Zm2.52,4.84.17,1.5h-.82l-1.49-4.79-.24-1.55h.94Zm.84-4.84h1.41l-1.7,6.34h-.92l.12-1.48Z"/><path class="cls-10" d="M145.29,357.22a.67.67,0,0,0-.11-.37.91.91,0,0,0-.39-.3,3.88,3.88,0,0,0-.86-.26,5.2,5.2,0,0,1-1.19-.38,2,2,0,0,1-.8-.6,1.44,1.44,0,0,1-.28-.9,1.69,1.69,0,0,1,.29-1,2.15,2.15,0,0,1,.85-.71,3.12,3.12,0,0,1,1.31-.26,3.35,3.35,0,0,1,1.37.26,2.15,2.15,0,0,1,.89.72,1.85,1.85,0,0,1,.3,1h-1.45a.9.9,0,0,0-.28-.66,1.1,1.1,0,0,0-.83-.28,1.39,1.39,0,0,0-.58.11.84.84,0,0,0-.35.29.7.7,0,0,0-.11.38.61.61,0,0,0,.11.36,1,1,0,0,0,.4.27,4.06,4.06,0,0,0,.78.22,6.6,6.6,0,0,1,1.25.39,1.91,1.91,0,0,1,.81.61,1.54,1.54,0,0,1,.29,1,1.65,1.65,0,0,1-.32,1,2.09,2.09,0,0,1-.9.67,3.34,3.34,0,0,1-1.36.25,3.13,3.13,0,0,1-1.47-.31,2.37,2.37,0,0,1-.91-.79,1.91,1.91,0,0,1-.3-1h1.4a1,1,0,0,0,.21.61,1.15,1.15,0,0,0,.48.33,2.11,2.11,0,0,0,.61.1,1.58,1.58,0,0,0,.62-.1.87.87,0,0,0,.38-.27A.65.65,0,0,0,145.29,357.22Z"/><path class="cls-10" d="M151.71,356h-1a2,2,0,0,0-1.16.28.91.91,0,0,0-.39.77.82.82,0,0,0,.26.63,1,1,0,0,0,.72.25,1.49,1.49,0,0,0,.75-.18,1.39,1.39,0,0,0,.5-.42,1,1,0,0,0,.19-.48l.46.65a1.93,1.93,0,0,1-.24.51,2.1,2.1,0,0,1-.44.52,2.4,2.4,0,0,1-.64.4,2.57,2.57,0,0,1-2-.1,1.86,1.86,0,0,1-.77-.67,1.94,1.94,0,0,1,.48-2.52,3.65,3.65,0,0,1,2.15-.54h1.09Zm-.23-1.32a1.09,1.09,0,0,0-.27-.78,1,1,0,0,0-.82-.3,1.34,1.34,0,0,0-.58.12,1,1,0,0,0-.38.3.76.76,0,0,0-.13.44h-1.45a1.53,1.53,0,0,1,.32-.95,2.32,2.32,0,0,1,.91-.73,3.31,3.31,0,0,1,1.39-.27,3.16,3.16,0,0,1,1.27.24,2,2,0,0,1,.88.72,2.21,2.21,0,0,1,.32,1.22v2.8a4.5,4.5,0,0,0,.06.78,2.58,2.58,0,0,0,.18.59v.1H151.7a2.36,2.36,0,0,1-.16-.59,4.34,4.34,0,0,1-.06-.71Z"/><path class="cls-10" d="M156.78,357.81l.07,1.13h-.93l-2.21-6.34h1.51Zm1.12-5.21h1.51l-2.2,6.34h-.93l.09-1.14Z"/><path class="cls-10" d="M160.27,351a.79.79,0,0,1,.22-.56.83.83,0,0,1,.6-.22.86.86,0,0,1,.61.22.75.75,0,0,1,.23.56.73.73,0,0,1-.23.54.82.82,0,0,1-.61.22.79.79,0,0,1-.6-.22A.76.76,0,0,1,160.27,351Zm1.55,8h-1.45V352.6h1.45Z"/><path class="cls-10" d="M164.79,358.94h-1.46V352.6h1.37l.09,1.36Zm-.73-3.39a3.85,3.85,0,0,1,.32-1.61,2.54,2.54,0,0,1,.89-1.07,2.53,2.53,0,0,1,2.39-.15,1.56,1.56,0,0,1,.7.75,3.17,3.17,0,0,1,.25,1.39v4.08h-1.46v-4.09a1.69,1.69,0,0,0-.12-.7.8.8,0,0,0-.38-.37,1.56,1.56,0,0,0-.61-.1,1.34,1.34,0,0,0-.64.14,1.5,1.5,0,0,0-.47.4,1.88,1.88,0,0,0-.3.6,2.48,2.48,0,0,0-.1.73Z"/><path class="cls-10" d="M169.78,355.72a4.43,4.43,0,0,1,.31-1.69,2.68,2.68,0,0,1,.88-1.14,2.28,2.28,0,0,1,1.36-.4,2.33,2.33,0,0,1,1.06.22,2.06,2.06,0,0,1,.73.65,3.47,3.47,0,0,1,.45,1,7.64,7.64,0,0,1,.25,1.28V356a6.15,6.15,0,0,1-.39,1.6,2.52,2.52,0,0,1-.81,1.09,2,2,0,0,1-1.31.4,2.2,2.2,0,0,1-1.34-.42,2.74,2.74,0,0,1-.88-1.14,4.35,4.35,0,0,1-.31-1.66Zm5.63-3.12v6.16a2.71,2.71,0,0,1-.37,1.46,2.43,2.43,0,0,1-1,.91,3.47,3.47,0,0,1-1.52.31,3.43,3.43,0,0,1-.8-.1,3.47,3.47,0,0,1-.86-.33,2.4,2.4,0,0,1-.7-.6l.68-.88a2.24,2.24,0,0,0,.75.58,1.93,1.93,0,0,0,.86.19,1.53,1.53,0,0,0,1.11-.39,1.5,1.5,0,0,0,.41-1.12v-4.74l.13-1.45Zm-4.17,3.24a3.33,3.33,0,0,0,.15,1,1.62,1.62,0,0,0,.47.73,1.23,1.23,0,0,0,.82.27,1.43,1.43,0,0,0,.81-.21,1.46,1.46,0,0,0,.48-.56,3.25,3.25,0,0,0,.24-.8v-1a3.2,3.2,0,0,0-.14-.66,1.51,1.51,0,0,0-.29-.51,1.17,1.17,0,0,0-.45-.34,1.54,1.54,0,0,0-.63-.12,1.24,1.24,0,0,0-.83.27,1.62,1.62,0,0,0-.48.74,3.33,3.33,0,0,0-.15,1Z"/><path class="cls-10" d="M181.86,357.51l.08,1.43H181l-1.72-6.34h1.42ZM183,352.6h.93l-.25,1.55-1.47,4.79h-.82l.15-1.44Zm2.53,4.84.17,1.5h-.83l-1.49-4.79-.24-1.55h1Zm.84-4.84h1.41l-1.71,6.34h-.92l.12-1.48Z"/><path class="cls-10" d="M192.51,356h-1a2,2,0,0,0-1.16.28.91.91,0,0,0-.39.77.85.85,0,0,0,.25.63,1.06,1.06,0,0,0,.73.25,1.49,1.49,0,0,0,.75-.18,1.39,1.39,0,0,0,.5-.42,1,1,0,0,0,.19-.48l.46.65a2.31,2.31,0,0,1-.24.51,2.34,2.34,0,0,1-.44.52,2.4,2.4,0,0,1-.64.4,2.57,2.57,0,0,1-2-.1,1.86,1.86,0,0,1-.77-.67,1.91,1.91,0,0,1,.48-2.52,3.64,3.64,0,0,1,2.14-.54h1.09Zm-.23-1.32a1.09,1.09,0,0,0-.27-.78,1.06,1.06,0,0,0-.82-.3,1.34,1.34,0,0,0-.58.12,1,1,0,0,0-.38.3.76.76,0,0,0-.13.44h-1.46a1.55,1.55,0,0,1,.33-.95,2.32,2.32,0,0,1,.91-.73,3.28,3.28,0,0,1,1.39-.27,3.16,3.16,0,0,1,1.27.24,2,2,0,0,1,.88.72,2.21,2.21,0,0,1,.32,1.22v2.8a4.5,4.5,0,0,0,.06.78,2.16,2.16,0,0,0,.18.59v.1h-1.49a3,3,0,0,1-.15-.59,4.34,4.34,0,0,1-.06-.71Z"/><path class="cls-10" d="M196.75,358.94h-1.46v-9h1.46Z"/><path class="cls-10" d="M199.82,358.94h-1.45v-9h1.45Z"/><path class="cls-10" d="M204.16,359.06a3.06,3.06,0,0,1-1.63-.41,2.65,2.65,0,0,1-1.05-1.1,3.2,3.2,0,0,1-.37-1.55v-.24a3.77,3.77,0,0,1,.37-1.73,2.85,2.85,0,0,1,1-1.14,3,3,0,0,1,3,0,2.44,2.44,0,0,1,.9,1.1,4,4,0,0,1,.3,1.62v.63H201.8v-1.05h3.47v-.12a1.81,1.81,0,0,0-.14-.69,1.14,1.14,0,0,0-.4-.52,1.3,1.3,0,0,0-.75-.2,1.19,1.19,0,0,0-.77.26,1.58,1.58,0,0,0-.49.74,3.62,3.62,0,0,0-.16,1.11V356a2.26,2.26,0,0,0,.2,1,1.56,1.56,0,0,0,1.49.93,1.94,1.94,0,0,0,1.59-.77l.76.76a2.76,2.76,0,0,1-.9.81A2.86,2.86,0,0,1,204.16,359.06Z"/><path class="cls-10" d="M210.73,353.68h-3.6V352.6h3.6Zm-1.13-2.63v6.11a.88.88,0,0,0,.09.44.38.38,0,0,0,.23.2,1,1,0,0,0,.35.05h.28l.22,0v1.12a3.08,3.08,0,0,1-.41.1,2.83,2.83,0,0,1-.54,0,2.13,2.13,0,0,1-.86-.17,1.29,1.29,0,0,1-.6-.58,2.22,2.22,0,0,1-.21-1.05v-6.21Z"/><path class="cls-10" d="M220.75,346.82v16h5.33v-16Z"/><path class="cls-10" d="M215.41,352.16v5.33h16v-5.33h-16Z"/></svg>