<svg id="Layer_1" data-name="Layer 1" xmlns="http://www.w3.org/2000/svg" viewBox="0 0 309 415"><defs><style>.cls-1{fill:#fff;}.cls-2{fill:#1c272d;}.cls-3{fill:#1d212a;}.cls-4{fill:#a5aab5;}.cls-5{fill:#f6f8fc;stroke:#dce0e8;}.cls-11,.cls-13,.cls-5,.cls-9{stroke-miterlimit:10;}.cls-6{fill:#616774;}.cls-7{fill:#1d67e1;}.cls-12,.cls-8{fill:#00bce0;}.cls-8{opacity:0.15;}.cls-9{fill:none;stroke-width:2px;}.cls-11,.cls-13,.cls-9{stroke:#00bce0;}.cls-10{fill:#2e3340;}.cls-11,.cls-13{fill:#dce0e8;}.cls-12{opacity:0.1;}.cls-13{opacity:0.5;}</style></defs><rect class="cls-1" x="-0.17" y="2.5" width="309" height="410"/><path class="cls-2" d="M66.63,33.61V49.76l2,.72V51H61.34v-.55l1.93-.72V34.88l-1.93-.72v-.55Zm6.24,5a3.88,3.88,0,0,0-.45-1.93A2.89,2.89,0,0,0,71,35.49a7.39,7.39,0,0,0-2.71-.41h-4l.09-1.47h5.23a9.45,9.45,0,0,1,3.85.66A4.55,4.55,0,0,1,75.57,36a4.76,4.76,0,0,1,.68,2.5,5,5,0,0,1-.7,2.56A4.73,4.73,0,0,1,73.39,43a8.84,8.84,0,0,1-3.81.71H64.35l-.09-1.47h5a4.16,4.16,0,0,0,1.88-.41A3.07,3.07,0,0,0,72.4,40.6,3.79,3.79,0,0,0,72.87,38.64Z"/><path class="cls-2" d="M83.67,44,83.79,45a13.43,13.43,0,0,0-2,.59,4.33,4.33,0,0,0-1.21.64A1.76,1.76,0,0,0,80,47a2.09,2.09,0,0,0-.16.81A1.67,1.67,0,0,0,80.25,49a1.46,1.46,0,0,0,1,.41,1.56,1.56,0,0,0,.88-.25,1.84,1.84,0,0,0,.63-.67A1.88,1.88,0,0,0,83,47.6V42.75a1.9,1.9,0,0,0-.43-1.31A1.82,1.82,0,0,0,81.19,41a4.17,4.17,0,0,0-.83.1,4.4,4.4,0,0,0-.82.28l.52-.79c-.06.41-.11.76-.17,1.05a5.18,5.18,0,0,1-.18.71,1.31,1.31,0,0,1-.26.44,1.52,1.52,0,0,1-.56.37,2,2,0,0,1-.73.13,1.3,1.3,0,0,1-.79-.21.62.62,0,0,1-.29-.55,1.52,1.52,0,0,1,.46-1,4.74,4.74,0,0,1,1.23-.94,7.84,7.84,0,0,1,3.68-.94A4.59,4.59,0,0,1,84.6,40a2.4,2.4,0,0,1,1.12,1.17A4.5,4.5,0,0,1,86.05,43v5.72a1.4,1.4,0,0,0,.1.58.77.77,0,0,0,.3.36,1,1,0,0,0,.48.11,2,2,0,0,0,.58-.09,3.26,3.26,0,0,0,.63-.3v.74A5,5,0,0,1,86.8,51a3.21,3.21,0,0,1-1.34.33,2.45,2.45,0,0,1-1.3-.32,1.87,1.87,0,0,1-.76-.9,3.44,3.44,0,0,1-.26-1.34l.1-.07a4,4,0,0,1-.69,1.43,3.27,3.27,0,0,1-1.13.91,3.43,3.43,0,0,1-1.43.3,3.33,3.33,0,0,1-2.23-.73,2.73,2.73,0,0,1-.86-2.19,2.83,2.83,0,0,1,.29-1.31,3.14,3.14,0,0,1,1-1.12,9.47,9.47,0,0,1,2.07-1A31.7,31.7,0,0,1,83.67,44Z"/><path class="cls-2" d="M95.7,48.77l-1.49,3.55L88.79,41.06l-1.57-.65v-.56h6.42v.57l-1.53.52Zm-5.35,9.15a1.92,1.92,0,0,1-1.28-.42,1.43,1.43,0,0,1-.51-1.17,1.36,1.36,0,0,1,.17-.69,1.25,1.25,0,0,1,.42-.46.92.92,0,0,1,.5-.16,1.33,1.33,0,0,1,.48.1l.51.23a1.92,1.92,0,0,0,.67.11,1.6,1.6,0,0,0,.67-.13,1.55,1.55,0,0,0,.6-.49,5,5,0,0,0,.59-1l1.52-3.54.63-1.56,2.79-7.81-1.47-.47v-.57h4.24v.57l-1.3.48L94.45,53.71a14.33,14.33,0,0,1-1.29,2.61,3.68,3.68,0,0,1-1.27,1.26A3.32,3.32,0,0,1,90.35,57.92Z"/><path class="cls-2" d="M113.84,48.77l-1.48,3.55-5.42-11.26-1.57-.65v-.56h6.42v.57l-1.54.52Zm-5.34,9.15a2,2,0,0,1-1.29-.42,1.45,1.45,0,0,1-.5-1.17,1.26,1.26,0,0,1,.17-.69,1.25,1.25,0,0,1,.42-.46.89.89,0,0,1,.5-.16,1.28,1.28,0,0,1,.47.1l.52.23a1.92,1.92,0,0,0,.67.11,1.63,1.63,0,0,0,.67-.13,1.53,1.53,0,0,0,.59-.49,5.42,5.42,0,0,0,.6-1l1.52-3.54.63-1.56,2.79-7.81-1.47-.47v-.57H119v.57l-1.3.48-5.14,12.81a15.09,15.09,0,0,1-1.28,2.61A3.62,3.62,0,0,1,110,57.58,3.25,3.25,0,0,1,108.5,57.92Z"/><path class="cls-2" d="M125.17,51.34a6.26,6.26,0,0,1-3.1-.73,5.12,5.12,0,0,1-2-2,6.72,6.72,0,0,1,.06-6.13,5.45,5.45,0,0,1,2.11-2.15,6,6,0,0,1,3.1-.79,6.41,6.41,0,0,1,3.11.73,5.1,5.1,0,0,1,2,2,6.12,6.12,0,0,1,.72,3,6.31,6.31,0,0,1-.77,3.13,5.76,5.76,0,0,1-2.12,2.15A6.08,6.08,0,0,1,125.17,51.34Zm.14-1.19a2.25,2.25,0,0,0,1.36-.43,2.8,2.8,0,0,0,.93-1.35,7.43,7.43,0,0,0,.34-2.45,10.44,10.44,0,0,0-.34-2.85,3.7,3.7,0,0,0-.95-1.74,2,2,0,0,0-1.48-.6,2.26,2.26,0,0,0-1.35.42,2.8,2.8,0,0,0-.93,1.35,7.46,7.46,0,0,0-.34,2.46,10.58,10.58,0,0,0,.33,2.85,3.62,3.62,0,0,0,1,1.74A2.05,2.05,0,0,0,125.31,50.15Z"/><path class="cls-2" d="M137,47.23a2.51,2.51,0,0,0,.18,1.05,1.06,1.06,0,0,0,.62.55A3.17,3.17,0,0,0,139,49a4.13,4.13,0,0,0,1.45-.25,2.34,2.34,0,0,0,1-.65l.52.56A18.47,18.47,0,0,1,140.57,50a6.16,6.16,0,0,1-1.16.81,4,4,0,0,1-1.09.42,6.12,6.12,0,0,1-1.17.11,2.87,2.87,0,0,1-2.41-1,5,5,0,0,1-.79-3.06v-5.9l-1.7-.81V40l4.86-.35L137,41.27Zm4.33,4L141,48.73V41.32l-1.55-.76V40l4.75-.35-.19,1.7V49a3.39,3.39,0,0,0,.34.28,2.42,2.42,0,0,0,.41.27l.46.22c.16.06.32.12.47.16v.47l-4.07.88Z"/><path class="cls-2" d="M151.46,42.07v7.75l1.88.7V51h-6.61v-.51l1.72-.66V42.49a2,2,0,0,0-.45-.43,4.45,4.45,0,0,0-.58-.35,6.33,6.33,0,0,0-.74-.31V41l4.15-1.46h.36Zm3.64-2.43a1.38,1.38,0,0,1,1.12.41,1.55,1.55,0,0,1,.33,1,1.47,1.47,0,0,1-.51,1.21,1.79,1.79,0,0,1-1.18.41,2.14,2.14,0,0,1-.76-.11l-.63-.22a2.16,2.16,0,0,0-.71-.11,2.81,2.81,0,0,0-1.23.29,3,3,0,0,0-.56.37l-.3-.59c.48-.45.92-.85,1.33-1.18a12.44,12.44,0,0,1,1.17-.83,5.72,5.72,0,0,1,1-.5A3.05,3.05,0,0,1,155.1,39.64Z"/><path class="cls-2" d="M161.84,39.52a7.45,7.45,0,0,1,1.6.16,7.61,7.61,0,0,1,1.49.52l.15,3.08h-.76l-1.45-3.12,1,1.08a4.59,4.59,0,0,0-.94-.51,3,3,0,0,0-1-.17,2.5,2.5,0,0,0-1.47.38,1.22,1.22,0,0,0-.53,1,1.37,1.37,0,0,0,.27.87,2.55,2.55,0,0,0,.86.65,12.89,12.89,0,0,0,1.47.6,8.13,8.13,0,0,1,1.22.56,3.9,3.9,0,0,1,1,.74,3.15,3.15,0,0,1,.61,1,3.44,3.44,0,0,1,.22,1.3,3.25,3.25,0,0,1-.61,2,3.64,3.64,0,0,1-1.64,1.22,6.2,6.2,0,0,1-2.35.41,9.17,9.17,0,0,1-1.62-.13,7.53,7.53,0,0,1-1.42-.43l-.44-3.22h.73L160,50.87l-1.73-1a8.2,8.2,0,0,0,.86.3,5.14,5.14,0,0,0,.72.15l.66,0a3.48,3.48,0,0,0,1.84-.42,1.45,1.45,0,0,0,.69-1.32,1.34,1.34,0,0,0-.19-.74,1.77,1.77,0,0,0-.57-.55,5.62,5.62,0,0,0-.89-.46c-.34-.15-.73-.3-1.17-.46a5.53,5.53,0,0,1-1.43-.78,2.86,2.86,0,0,1-.87-1.12,3.66,3.66,0,0,1-.3-1.53,3,3,0,0,1,.57-1.85,3.72,3.72,0,0,1,1.53-1.16A5.48,5.48,0,0,1,161.84,39.52Z"/><path class="cls-2" d="M172.81,39.52a4.71,4.71,0,0,1,2.43.61,4.14,4.14,0,0,1,1.58,1.75,7.46,7.46,0,0,1,.72,2.77h-8.12v-1l6.58-.35-1.43.65a6.9,6.9,0,0,0-.3-1.75,2.51,2.51,0,0,0-.66-1.1,1.52,1.52,0,0,0-1.08-.39,2.05,2.05,0,0,0-1.24.41,2.69,2.69,0,0,0-.86,1.29,7.44,7.44,0,0,0-.31,2.34,5.17,5.17,0,0,0,.52,2.39,3.57,3.57,0,0,0,1.46,1.52,4.29,4.29,0,0,0,2.2.53,4.71,4.71,0,0,0,1-.11,4.52,4.52,0,0,0,.95-.34,6.85,6.85,0,0,0,.93-.59l.4.53a10.17,10.17,0,0,1-1.43,1.43,6.12,6.12,0,0,1-1.59.93,5.1,5.1,0,0,1-1.81.32,5.47,5.47,0,0,1-2.88-.75A5.22,5.22,0,0,1,168,48.54a6.12,6.12,0,0,1-.69-2.93,7.08,7.08,0,0,1,.65-3,5.18,5.18,0,0,1,4.9-3Z"/><path class="cls-2" d="M183.43,49.86l1.74.66V51h-6.48v-.51l1.73-.66V35.66a2.93,2.93,0,0,0-.47-.46,4.08,4.08,0,0,0-.63-.44,8.15,8.15,0,0,0-.88-.42v-.47l4.82-1.34h.37l-.2,2.54Z"/><path class="cls-2" d="M188.53,41.36l-.47.4-2.24-.57v-.51l2.42-1,1.28.13h5.1l-.24,1.51Zm2.53,8.46,2,.7V51h-6.72v-.51l1.73-.66v-10a8.44,8.44,0,0,1,.59-3.29,6,6,0,0,1,1.63-2.27A6.85,6.85,0,0,1,192.62,33a8.7,8.7,0,0,1,2.75-.43,5.41,5.41,0,0,1,1.22.12,2.7,2.7,0,0,1,.85.32,1.46,1.46,0,0,1,.49.46,1.21,1.21,0,0,1,.15.6,1.28,1.28,0,0,1-.41,1,1.38,1.38,0,0,1-1,.38,1.57,1.57,0,0,1-.83-.23,4.8,4.8,0,0,1-.69-.52,4,4,0,0,0-.7-.53,1.72,1.72,0,0,0-.9-.23,2.48,2.48,0,0,0-1.24.33,2.33,2.33,0,0,0-.93,1.06,4.63,4.63,0,0,0-.35,1.95Z"/><path class="cls-2" d="M212.64,41.36h-8.12l-.47.4-2.24-.57v-.51l2.42-1,1.17.13h5.68l3.5-.33H215L214.9,42v7.84l1.75.66V51h-6.48v-.51l1.73-.66V40.79Zm-5.59,8.5,1.87.66V51h-6.6v-.51l1.73-.66v-10a8.44,8.44,0,0,1,.59-3.29,6,6,0,0,1,1.63-2.27A6.94,6.94,0,0,1,208.63,33a8.76,8.76,0,0,1,2.76-.43,5.54,5.54,0,0,1,1.88.25,2.1,2.1,0,0,1,1,.62,1.28,1.28,0,0,1,.29.78,1.52,1.52,0,0,1-.19.77,1.35,1.35,0,0,1-.53.53,1.58,1.58,0,0,1-.76.18,1.52,1.52,0,0,1-.92-.27,4.5,4.5,0,0,1-.69-.62,4.16,4.16,0,0,0-.71-.61,1.69,1.69,0,0,0-1-.28,2.87,2.87,0,0,0-1.38.33,2.41,2.41,0,0,0-1,1.09,4.87,4.87,0,0,0-.35,2Z"/><path class="cls-2" d="M222.38,42.07v7.75l1.87.7V51h-6.6v-.51l1.71-.66V42.49a2,2,0,0,0-.45-.43,3.86,3.86,0,0,0-.58-.35,5.68,5.68,0,0,0-.74-.31V41l4.15-1.46h.37ZM226,39.64a1.36,1.36,0,0,1,1.11.41,1.55,1.55,0,0,1,.33,1,1.47,1.47,0,0,1-.51,1.21,1.77,1.77,0,0,1-1.18.41,2.18,2.18,0,0,1-.76-.11l-.62-.22a2.2,2.2,0,0,0-.71-.11,3.37,3.37,0,0,0-.62.07,3.52,3.52,0,0,0-.62.22,3.39,3.39,0,0,0-.56.37l-.29-.59c.47-.45.92-.85,1.33-1.18a10.29,10.29,0,0,1,1.17-.83,5.66,5.66,0,0,1,1-.5A3.06,3.06,0,0,1,226,39.64Z"/><path class="cls-2" d="M232.75,39.52a7.55,7.55,0,0,1,1.61.16,8.09,8.09,0,0,1,1.49.52l.14,3.08h-.75l-1.46-3.12,1,1.08a4.66,4.66,0,0,0-1-.51,2.85,2.85,0,0,0-1-.17,2.51,2.51,0,0,0-1.48.38,1.22,1.22,0,0,0-.53,1,1.37,1.37,0,0,0,.28.87,2.4,2.4,0,0,0,.85.65,14,14,0,0,0,1.48.6,8.62,8.62,0,0,1,1.22.56,4,4,0,0,1,.94.74,3.38,3.38,0,0,1,.62,1,3.65,3.65,0,0,1,.22,1.3,3.32,3.32,0,0,1-.61,2,3.73,3.73,0,0,1-1.65,1.22,6.18,6.18,0,0,1-2.34.41,9.17,9.17,0,0,1-1.62-.13,7.41,7.41,0,0,1-1.43-.43l-.44-3.22h.73L231,50.87l-1.73-1a7.47,7.47,0,0,0,.86.3,5,5,0,0,0,.71.15l.66,0a3.54,3.54,0,0,0,1.85-.42,1.45,1.45,0,0,0,.69-1.32,1.34,1.34,0,0,0-.2-.74,1.84,1.84,0,0,0-.56-.55,6.65,6.65,0,0,0-.89-.46c-.35-.15-.74-.3-1.17-.46a5.37,5.37,0,0,1-1.43-.78,2.89,2.89,0,0,1-.88-1.12,3.67,3.67,0,0,1-.29-1.53,3,3,0,0,1,.57-1.85,3.59,3.59,0,0,1,1.53-1.16A5.43,5.43,0,0,1,232.75,39.52Z"/><path class="cls-2" d="M242.32,47.69a1.38,1.38,0,0,0,.52,1.16,2.31,2.31,0,0,0,1.48.41,5.77,5.77,0,0,0,1-.1c.37-.07.78-.18,1.22-.31v.71a12.49,12.49,0,0,1-1.54,1,7,7,0,0,1-1.28.56,4,4,0,0,1-1.08.17,4.25,4.25,0,0,1-1.76-.35,2.58,2.58,0,0,1-1.18-1.06,3.46,3.46,0,0,1-.42-1.79V42l-1.61-1.19v-.44l.73-.48.8-.53c.28-.18.55-.37.82-.56l.79-.54.74-.52h.73v10Zm-1.22-6.33V39.85h5l-.23,1.51Z"/><polygon class="cls-3" points="45.09 52.31 52.93 44.46 54.9 42.5 52.93 40.54 45.09 32.69 43.12 30.73 39.2 34.65 41.16 36.61 44.17 39.63 32.3 39.63 29.17 39.63 29.17 45.4 32.3 45.4 44.15 45.4 41.16 48.39 39.2 50.35 43.12 54.27 45.09 52.31"/><path class="cls-2" d="M38,106.35a3.51,3.51,0,0,1-2,3.11,4.92,4.92,0,0,1-2.17.45,4.32,4.32,0,0,1-2.3-.59,3.78,3.78,0,0,1-1.46-1.69,6.24,6.24,0,0,1-.5-2.63v-.4a6,6,0,0,1,.52-2.63,3.91,3.91,0,0,1,1.48-1.7,4,4,0,0,1,2.22-.59,4.72,4.72,0,0,1,2.23.47,3.48,3.48,0,0,1,1.4,1.31,4.29,4.29,0,0,1,.59,1.87H35.49a1.72,1.72,0,0,0-.37-1.17,1.77,1.77,0,0,0-1.29-.38,1.53,1.53,0,0,0-.91.26,1.62,1.62,0,0,0-.54.88,6.6,6.6,0,0,0-.17,1.66V105a7.31,7.31,0,0,0,.15,1.67,1.49,1.49,0,0,0,.52.87,1.66,1.66,0,0,0,1,.26,2.26,2.26,0,0,0,.87-.15,1,1,0,0,0,.54-.47,1.67,1.67,0,0,0,.2-.83Z"/><path class="cls-2" d="M41.38,109.77H38.92V99.27h2.46Zm-.85-3.87a4.87,4.87,0,0,1,.32-1.89,3.13,3.13,0,0,1,.94-1.3,2.27,2.27,0,0,1,1.42-.47,2.79,2.79,0,0,1,1.29.29,2,2,0,0,1,.89,1,4.06,4.06,0,0,1,.31,1.75v4.54H43.23v-4.55a1.28,1.28,0,0,0-.12-.62.64.64,0,0,0-.33-.3,1.64,1.64,0,0,0-.53-.08,1.48,1.48,0,0,0-.61.11.86.86,0,0,0-.35.33,1.59,1.59,0,0,0-.16.52c0,.2,0,.42,0,.67Z"/><path class="cls-2" d="M46.63,106a4.35,4.35,0,0,1,.41-1.94,3.13,3.13,0,0,1,1.21-1.34,4.23,4.23,0,0,1,4,0,3.13,3.13,0,0,1,1.21,1.34,4.49,4.49,0,0,1,.41,1.94v.13a4.49,4.49,0,0,1-.41,1.94,3.11,3.11,0,0,1-1.2,1.34,4.25,4.25,0,0,1-4,0A3.08,3.08,0,0,1,47,108.08a4.35,4.35,0,0,1-.41-1.94Zm2.46.13a4.32,4.32,0,0,0,.1.92,1.14,1.14,0,0,0,.34.63.94.94,0,0,0,.7.24,1,1,0,0,0,.7-.24,1.19,1.19,0,0,0,.33-.63,3.76,3.76,0,0,0,.1-.92V106a3.59,3.59,0,0,0-.1-.9,1.34,1.34,0,0,0-.33-.65,1,1,0,0,0-.71-.24,1,1,0,0,0-.7.24,1.34,1.34,0,0,0-.33.65,4.13,4.13,0,0,0-.1.9Z"/><path class="cls-2" d="M54.5,106a4.49,4.49,0,0,1,.41-1.94,3.26,3.26,0,0,1,1.21-1.34,3.69,3.69,0,0,1,2-.49,3.74,3.74,0,0,1,2,.49,3.2,3.2,0,0,1,1.21,1.34,4.49,4.49,0,0,1,.4,1.94v.13a4.49,4.49,0,0,1-.4,1.94,3.14,3.14,0,0,1-1.21,1.34,4.23,4.23,0,0,1-3.95,0,3.16,3.16,0,0,1-1.22-1.34,4.49,4.49,0,0,1-.41-1.94Zm2.47.13a4.35,4.35,0,0,0,.09.92,1.2,1.2,0,0,0,.34.63,1,1,0,0,0,.7.24.94.94,0,0,0,.7-.24,1.14,1.14,0,0,0,.34-.63,4.35,4.35,0,0,0,.09-.92V106a4.16,4.16,0,0,0-.09-.9,1.27,1.27,0,0,0-.34-.65,1,1,0,0,0-.71-.24.93.93,0,0,0-.69.24,1.35,1.35,0,0,0-.34.65,4.16,4.16,0,0,0-.09.9Z"/><path class="cls-2" d="M66.46,107.66a.36.36,0,0,0-.12-.28,1.14,1.14,0,0,0-.42-.21,6.33,6.33,0,0,0-.84-.21,6.31,6.31,0,0,1-1.31-.45,2.65,2.65,0,0,1-.94-.76,1.77,1.77,0,0,1-.36-1.12,2.1,2.1,0,0,1,.36-1.18,2.58,2.58,0,0,1,1.06-.88,3.86,3.86,0,0,1,1.67-.33,4.42,4.42,0,0,1,1.75.31,2.64,2.64,0,0,1,1.14.85,2.1,2.1,0,0,1,.4,1.28H66.39a.82.82,0,0,0-.18-.59,1.16,1.16,0,0,0-1-.11.63.63,0,0,0-.28.19.52.52,0,0,0-.11.33.46.46,0,0,0,.13.31.91.91,0,0,0,.38.22,2.83,2.83,0,0,0,.64.16,7.66,7.66,0,0,1,1.39.37,2.69,2.69,0,0,1,1.08.73,1.88,1.88,0,0,1,.42,1.3,1.93,1.93,0,0,1-.4,1.18,2.68,2.68,0,0,1-1.14.83,4.4,4.4,0,0,1-1.74.31,3.86,3.86,0,0,1-1.82-.39,2.93,2.93,0,0,1-1.12-1,2.22,2.22,0,0,1-.38-1.19h2.3a.91.91,0,0,0,.14.49.88.88,0,0,0,.38.3,1.6,1.6,0,0,0,.56.09,1.53,1.53,0,0,0,.47-.06.67.67,0,0,0,.28-.2A.54.54,0,0,0,66.46,107.66Z"/><path class="cls-2" d="M73.5,109.91a4.18,4.18,0,0,1-2.1-.5,3.39,3.39,0,0,1-1.31-1.32,3.57,3.57,0,0,1-.45-1.76v-.26a4.69,4.69,0,0,1,.39-1.93,3.3,3.3,0,0,1,1.2-1.39,3.66,3.66,0,0,1,2-.51,3.59,3.59,0,0,1,1.83.44,2.86,2.86,0,0,1,1.17,1.26,4.32,4.32,0,0,1,.4,2v1H70.56v-1.58h3.68v-.2a1,1,0,0,0-.11-.52.65.65,0,0,0-.35-.3,1.34,1.34,0,0,0-.56-.1.91.91,0,0,0-.72.27,1.39,1.39,0,0,0-.32.68,5.19,5.19,0,0,0-.08.9v.26a1.9,1.9,0,0,0,.18.85,1.3,1.3,0,0,0,.54.55,1.68,1.68,0,0,0,.84.19,2.65,2.65,0,0,0,.91-.16,1.67,1.67,0,0,0,.77-.55l1.11,1.41a3.16,3.16,0,0,1-1.11.89A4,4,0,0,1,73.5,109.91Z"/><path class="cls-2" d="M85,104.15H80.48v-1.77H85Zm-1.18-3.61v6.68a1.11,1.11,0,0,0,.06.41.37.37,0,0,0,.23.21,1.25,1.25,0,0,0,.44.06h.32a1,1,0,0,0,.24,0v1.84a4.61,4.61,0,0,1-.64.16,4.9,4.9,0,0,1-.7,0,3.18,3.18,0,0,1-1.3-.24,1.78,1.78,0,0,1-.82-.76,2.76,2.76,0,0,1-.28-1.33v-7Z"/><path class="cls-2" d="M88.26,109.77H85.79V99.27h2.47Zm-.86-3.87a5.06,5.06,0,0,1,.33-1.89,3,3,0,0,1,.94-1.3,2.24,2.24,0,0,1,1.41-.47,2.86,2.86,0,0,1,1.3.29,2,2,0,0,1,.88,1,4.05,4.05,0,0,1,.32,1.75v4.54H90.1v-4.55a1.43,1.43,0,0,0-.11-.62.66.66,0,0,0-.34-.3,1.58,1.58,0,0,0-.52-.08,1.53,1.53,0,0,0-.62.11.83.83,0,0,0-.34.33,1.38,1.38,0,0,0-.16.52,4.55,4.55,0,0,0,0,.67Z"/><path class="cls-2" d="M97.43,109.91a4.12,4.12,0,0,1-2.09-.5A3.35,3.35,0,0,1,94,108.09a3.57,3.57,0,0,1-.45-1.76v-.26a4.54,4.54,0,0,1,.4-1.93,3.21,3.21,0,0,1,1.19-1.39,3.7,3.7,0,0,1,2-.51,3.59,3.59,0,0,1,1.83.44,2.86,2.86,0,0,1,1.17,1.26,4.32,4.32,0,0,1,.41,2v1H94.49v-1.58h3.68v-.2a1,1,0,0,0-.11-.52.65.65,0,0,0-.35-.3,1.31,1.31,0,0,0-.56-.1.91.91,0,0,0-.72.27,1.48,1.48,0,0,0-.32.68,5.19,5.19,0,0,0-.08.9v.26a1.9,1.9,0,0,0,.18.85,1.36,1.36,0,0,0,.54.55,1.75,1.75,0,0,0,.85.19,2.59,2.59,0,0,0,.9-.16,1.67,1.67,0,0,0,.77-.55l1.11,1.41a3.16,3.16,0,0,1-1.11.89A4,4,0,0,1,97.43,109.91Z"/><path class="cls-2" d="M109,106.57h-1a.88.88,0,0,0-.79.31,1.17,1.17,0,0,0-.21.66.52.52,0,0,0,.19.41.73.73,0,0,0,.47.15,1.32,1.32,0,0,0,.59-.12,1.15,1.15,0,0,0,.37-.3.43.43,0,0,0,.1-.3l.53,1a5.64,5.64,0,0,1-.31.53,2.09,2.09,0,0,1-.41.48,2,2,0,0,1-.6.36,2.73,2.73,0,0,1-.86.13,2.94,2.94,0,0,1-1.26-.28,2.46,2.46,0,0,1-.93-.79,2,2,0,0,1-.34-1.17,2.13,2.13,0,0,1,.84-1.79,4.27,4.27,0,0,1,2.64-.65H109Zm-.31-1.66a1.07,1.07,0,0,0-.18-.65A.67.67,0,0,0,108,104a1,1,0,0,0-.38.06.51.51,0,0,0-.24.22.93.93,0,0,0-.08.41h-2.46a2.1,2.1,0,0,1,.41-1.28,2.67,2.67,0,0,1,1.14-.87,4.22,4.22,0,0,1,1.74-.32,4,4,0,0,1,1.59.3,2.39,2.39,0,0,1,1.11.89,2.55,2.55,0,0,1,.41,1.5v2.91a5.36,5.36,0,0,0,.09,1.17,2.42,2.42,0,0,0,.23.64v.12h-2.46a3.25,3.25,0,0,1-.25-.89,7.69,7.69,0,0,1-.08-1.1Z"/><path class="cls-2" d="M114.87,109.77H112.4v-7.39h2.31l.16,1.57ZM114,105.9a5.07,5.07,0,0,1,.31-1.89,2.78,2.78,0,0,1,1-1.3,2.62,2.62,0,0,1,1.58-.47,2.1,2.1,0,0,1,1.55.6,2.83,2.83,0,0,1,.59,2v4.93h-2.47v-4.58a1.61,1.61,0,0,0-.09-.63.45.45,0,0,0-.27-.27,1.11,1.11,0,0,0-.43-.07,1.15,1.15,0,0,0-.5.11,1.16,1.16,0,0,0-.37.33,1.64,1.64,0,0,0-.23.52,2.73,2.73,0,0,0-.08.67Zm4,.08a5.31,5.31,0,0,1,.3-1.94,2.79,2.79,0,0,1,.93-1.32,2.5,2.5,0,0,1,1.56-.48,2.59,2.59,0,0,1,1.2.27,1.89,1.89,0,0,1,.82.91,4.3,4.3,0,0,1,.29,1.74v4.61h-2.47v-4.61a1.33,1.33,0,0,0-.1-.6.48.48,0,0,0-.27-.27,1.08,1.08,0,0,0-.43-.07.92.92,0,0,0-.51.13,1,1,0,0,0-.37.36,2.17,2.17,0,0,0-.21.56,3.29,3.29,0,0,0-.07.73Z"/><path class="cls-2" d="M124.13,106a4.35,4.35,0,0,1,.41-1.94,3.13,3.13,0,0,1,1.21-1.34,3.66,3.66,0,0,1,2-.49,3.72,3.72,0,0,1,2,.49,3.13,3.13,0,0,1,1.21,1.34,4.49,4.49,0,0,1,.41,1.94v.13a4.49,4.49,0,0,1-.41,1.94,3.08,3.08,0,0,1-1.21,1.34,4.23,4.23,0,0,1-3.95,0,3.08,3.08,0,0,1-1.21-1.34,4.35,4.35,0,0,1-.41-1.94Zm2.46.13a4.32,4.32,0,0,0,.1.92,1.19,1.19,0,0,0,.33.63,1.16,1.16,0,0,0,1.41,0,1.19,1.19,0,0,0,.33-.63,3.76,3.76,0,0,0,.1-.92V106a3.59,3.59,0,0,0-.1-.9,1.34,1.34,0,0,0-.33-.65,1,1,0,0,0-.72-.24.93.93,0,0,0-.69.24,1.34,1.34,0,0,0-.33.65,4.13,4.13,0,0,0-.1.9Z"/><path class="cls-2" d="M137.39,106.42a4.76,4.76,0,0,1-.31,1.79,2.72,2.72,0,0,1-.92,1.24,2.29,2.29,0,0,1-1.45.46,2.5,2.5,0,0,1-1.79-.64,2.76,2.76,0,0,1-.69-2.1v-4.79h2.46v4.8a.72.72,0,0,0,.1.4.59.59,0,0,0,.28.26,1,1,0,0,0,.46.09,1.26,1.26,0,0,0,.75-.2,1,1,0,0,0,.38-.52,2.35,2.35,0,0,0,.11-.77Zm-.85-4H139v7.39H136.7l-.16-1.82Z"/><path class="cls-2" d="M142.61,109.77h-2.46v-7.39h2.3l.16,1.57Zm-.85-3.87a5,5,0,0,1,.34-2,2.73,2.73,0,0,1,1-1.24,2.69,2.69,0,0,1,1.5-.42,2.59,2.59,0,0,1,1.2.27,1.89,1.89,0,0,1,.82.91,4.17,4.17,0,0,1,.29,1.74v4.61h-2.47v-4.62a1.29,1.29,0,0,0-.11-.59.58.58,0,0,0-.33-.27,1.66,1.66,0,0,0-.53-.07,1.28,1.28,0,0,0-.55.11,1,1,0,0,0-.36.33,1.6,1.6,0,0,0-.19.52,3.4,3.4,0,0,0-.06.67Z"/><path class="cls-2" d="M152.13,104.15h-4.54v-1.77h4.54ZM151,100.54v6.68a1.11,1.11,0,0,0,.06.41.38.38,0,0,0,.22.21,1.33,1.33,0,0,0,.44.06H152a1,1,0,0,0,.24,0v1.84a4.61,4.61,0,0,1-.64.16,5,5,0,0,1-.7,0,3.14,3.14,0,0,1-1.3-.24,1.78,1.78,0,0,1-.82-.76,2.76,2.76,0,0,1-.28-1.33v-7Z"/><path class="cls-2" d="M159.78,107.35l.26,2.74-1.65-.09-2.6-7.62h2.64Zm.82-5h2.63l-2.94,8.48a5.85,5.85,0,0,1-.26.61,2.82,2.82,0,0,1-.44.62,2,2,0,0,1-.71.48,2.64,2.64,0,0,1-1.08.19h-.37a1.28,1.28,0,0,1-.27,0l-.34-.08v-1.84h.28a1.59,1.59,0,0,0,.77-.14.73.73,0,0,0,.31-.36l.54-1.4Z"/><path class="cls-2" d="M163.49,106a4.49,4.49,0,0,1,.41-1.94,3.26,3.26,0,0,1,1.21-1.34,3.69,3.69,0,0,1,2-.49,3.74,3.74,0,0,1,2,.49,3.2,3.2,0,0,1,1.21,1.34,4.49,4.49,0,0,1,.41,1.94v.13a4.49,4.49,0,0,1-.41,1.94,3.08,3.08,0,0,1-1.21,1.34,4.23,4.23,0,0,1-3.95,0,3.16,3.16,0,0,1-1.22-1.34,4.49,4.49,0,0,1-.41-1.94Zm2.47.13a4.35,4.35,0,0,0,.09.92,1.27,1.27,0,0,0,.34.63,1,1,0,0,0,.71.24.93.93,0,0,0,.69-.24,1.14,1.14,0,0,0,.34-.63,4.35,4.35,0,0,0,.09-.92V106a4.16,4.16,0,0,0-.09-.9,1.27,1.27,0,0,0-.34-.65,1,1,0,0,0-.71-.24.93.93,0,0,0-.69.24,1.44,1.44,0,0,0-.34.65,4.16,4.16,0,0,0-.09.9Z"/><path class="cls-2" d="M176.76,106.42a4.76,4.76,0,0,1-.31,1.79,2.79,2.79,0,0,1-.92,1.24,2.29,2.29,0,0,1-1.45.46,2.5,2.5,0,0,1-1.79-.64,2.76,2.76,0,0,1-.69-2.1v-4.79h2.46v4.8a.72.72,0,0,0,.1.4.62.62,0,0,0,.27.26,1.09,1.09,0,0,0,.47.09,1.26,1.26,0,0,0,.75-.2,1,1,0,0,0,.38-.52,2.65,2.65,0,0,0,.11-.77Zm-.85-4h2.47v7.39h-2.31l-.16-1.82Z"/><path class="cls-2" d="M185.72,107.36l.05,2.41h-1.48l-1.72-7.39h2.36Zm.93-5h1.54l-.52,2.87-1.31,4.52h-1.22l.18-2.35Zm3.07,5,.17,2.35h-1.23l-1.28-4.5-.5-2.89h1.48Zm.37-5h2.35l-1.7,7.39h-1.49l0-2.53Z"/><path class="cls-2" d="M197.28,106.57h-.95a.88.88,0,0,0-.79.31,1.16,1.16,0,0,0-.2.66.51.51,0,0,0,.18.41.75.75,0,0,0,.47.15,1.32,1.32,0,0,0,.59-.12,1.05,1.05,0,0,0,.37-.3.39.39,0,0,0,.1-.3l.53,1a4.07,4.07,0,0,1-.31.53,2.09,2.09,0,0,1-.41.48,1.78,1.78,0,0,1-.6.36,2.73,2.73,0,0,1-.86.13,3,3,0,0,1-1.26-.28,2.36,2.36,0,0,1-.92-.79,2,2,0,0,1-.35-1.17,2.13,2.13,0,0,1,.84-1.79,4.27,4.27,0,0,1,2.64-.65h.91Zm-.31-1.66a1.07,1.07,0,0,0-.18-.65.67.67,0,0,0-.59-.24,1,1,0,0,0-.38.06.45.45,0,0,0-.23.22.81.81,0,0,0-.08.41h-2.46a2.1,2.1,0,0,1,.4-1.28,2.67,2.67,0,0,1,1.14-.87,4.22,4.22,0,0,1,1.74-.32,4,4,0,0,1,1.59.3,2.39,2.39,0,0,1,1.11.89,2.55,2.55,0,0,1,.41,1.5v2.91a5.36,5.36,0,0,0,.09,1.17,2.84,2.84,0,0,0,.24.64v.12H197.3a3.65,3.65,0,0,1-.25-.89,7.69,7.69,0,0,1-.08-1.1Z"/><path class="cls-2" d="M203.05,109.77h-2.46v-7.39h2.3l.16,1.57Zm-.86-3.87a5,5,0,0,1,.35-2,2.77,2.77,0,0,1,1-1.24,2.69,2.69,0,0,1,1.5-.42,2.6,2.6,0,0,1,1.21.27,1.87,1.87,0,0,1,.81.91,4.15,4.15,0,0,1,.3,1.74v4.61h-2.47v-4.62a1.16,1.16,0,0,0-.12-.59.53.53,0,0,0-.32-.27,1.66,1.66,0,0,0-.53-.07,1.25,1.25,0,0,0-.55.11,1,1,0,0,0-.36.33,1.6,1.6,0,0,0-.19.52,3.4,3.4,0,0,0-.06.67Z"/><path class="cls-2" d="M212.57,104.15H208v-1.77h4.55Zm-1.18-3.61v6.68a1.11,1.11,0,0,0,.06.41.35.35,0,0,0,.22.21,1.29,1.29,0,0,0,.44.06h.32a.88.88,0,0,0,.24,0v1.84a3.92,3.92,0,0,1-1.34.21,3.19,3.19,0,0,1-1.31-.24,1.76,1.76,0,0,1-.81-.76,2.76,2.76,0,0,1-.28-1.33v-7Z"/><path class="cls-2" d="M220.91,104.15h-4.55v-1.77h4.55Zm-1.18-3.61v6.68a1.11,1.11,0,0,0,.06.41.35.35,0,0,0,.22.21,1.29,1.29,0,0,0,.44.06h.32a.88.88,0,0,0,.24,0v1.84a4.85,4.85,0,0,1-.63.16,5,5,0,0,1-.7,0,3.19,3.19,0,0,1-1.31-.24,1.71,1.71,0,0,1-.81-.76,2.76,2.76,0,0,1-.28-1.33v-7Z"/><path class="cls-2" d="M221.33,106a4.49,4.49,0,0,1,.41-1.94,3.26,3.26,0,0,1,1.21-1.34,3.69,3.69,0,0,1,2-.49,3.74,3.74,0,0,1,2,.49,3.2,3.2,0,0,1,1.21,1.34,4.49,4.49,0,0,1,.4,1.94v.13a4.49,4.49,0,0,1-.4,1.94,3.14,3.14,0,0,1-1.21,1.34,4.23,4.23,0,0,1-3.95,0,3.16,3.16,0,0,1-1.22-1.34,4.49,4.49,0,0,1-.41-1.94Zm2.47.13a4.35,4.35,0,0,0,.09.92,1.27,1.27,0,0,0,.34.63,1,1,0,0,0,.71.24.93.93,0,0,0,.69-.24,1.14,1.14,0,0,0,.34-.63,4.35,4.35,0,0,0,.09-.92V106a4.16,4.16,0,0,0-.09-.9,1.27,1.27,0,0,0-.34-.65,1,1,0,0,0-.71-.24.93.93,0,0,0-.69.24,1.44,1.44,0,0,0-.34.65,4.16,4.16,0,0,0-.09.9Z"/><path class="cls-2" d="M236.8,107.66a.36.36,0,0,0-.12-.28,1.34,1.34,0,0,0-.42-.21,6.55,6.55,0,0,0-.85-.21,6.31,6.31,0,0,1-1.31-.45,2.65,2.65,0,0,1-.94-.76,1.77,1.77,0,0,1-.36-1.12,2,2,0,0,1,.37-1.18,2.49,2.49,0,0,1,1.05-.88,3.86,3.86,0,0,1,1.67-.33,4.42,4.42,0,0,1,1.75.31,2.53,2.53,0,0,1,1.14.85,2.1,2.1,0,0,1,.4,1.28h-2.46a.82.82,0,0,0-.18-.59,1.16,1.16,0,0,0-1-.11.63.63,0,0,0-.28.19.52.52,0,0,0-.11.33.46.46,0,0,0,.13.31,1,1,0,0,0,.38.22,2.83,2.83,0,0,0,.64.16,7.66,7.66,0,0,1,1.39.37,2.69,2.69,0,0,1,1.08.73,2.08,2.08,0,0,1,0,2.48,2.68,2.68,0,0,1-1.14.83,4.4,4.4,0,0,1-1.74.31,3.86,3.86,0,0,1-1.82-.39,2.93,2.93,0,0,1-1.12-1,2.22,2.22,0,0,1-.38-1.19h2.3a.92.92,0,0,0,.15.49.8.8,0,0,0,.37.3,1.62,1.62,0,0,0,.57.09,1.51,1.51,0,0,0,.46-.06.67.67,0,0,0,.28-.2A.55.55,0,0,0,236.8,107.66Z"/><path class="cls-2" d="M244.25,106.57h-.95a.86.86,0,0,0-.78.31,1.17,1.17,0,0,0-.21.66.52.52,0,0,0,.19.41.73.73,0,0,0,.47.15,1.32,1.32,0,0,0,.59-.12,1.27,1.27,0,0,0,.37-.3.43.43,0,0,0,.1-.3l.52,1a5.54,5.54,0,0,1-.3.53,2.09,2.09,0,0,1-.41.48,2,2,0,0,1-.6.36,2.75,2.75,0,0,1-.87.13,2.9,2.9,0,0,1-1.25-.28,2.39,2.39,0,0,1-.93-.79,2,2,0,0,1-.35-1.17,2.14,2.14,0,0,1,.85-1.79,4.26,4.26,0,0,1,2.63-.65h.92Zm-.3-1.66a1.07,1.07,0,0,0-.18-.65.68.68,0,0,0-.6-.24,1.08,1.08,0,0,0-.38.06.49.49,0,0,0-.23.22.93.93,0,0,0-.08.41H240a2.1,2.1,0,0,1,.41-1.28,2.62,2.62,0,0,1,1.14-.87,4.21,4.21,0,0,1,1.73-.32,4,4,0,0,1,1.6.3,2.39,2.39,0,0,1,1.11.89,2.62,2.62,0,0,1,.41,1.5v2.91a5.36,5.36,0,0,0,.09,1.17,2.42,2.42,0,0,0,.23.64v.12h-2.46a3.25,3.25,0,0,1-.25-.89,6.47,6.47,0,0,1-.08-1.1Z"/><path class="cls-2" d="M250.8,108l0,1.73h-1.54l-2.37-7.39h2.6Zm.75-5.66h2.59l-2.38,7.39h-1.53l0-1.72Z"/><path class="cls-2" d="M258.42,109.91a4.18,4.18,0,0,1-2.1-.5,3.39,3.39,0,0,1-1.31-1.32,3.57,3.57,0,0,1-.45-1.76v-.26a4.69,4.69,0,0,1,.39-1.93,3.3,3.3,0,0,1,1.2-1.39,4.12,4.12,0,0,1,3.84-.07,2.92,2.92,0,0,1,1.17,1.26,4.32,4.32,0,0,1,.4,2v1h-6.08v-1.58h3.68v-.2a1.11,1.11,0,0,0-.11-.52.69.69,0,0,0-.35-.3,1.34,1.34,0,0,0-.56-.1.91.91,0,0,0-.72.27,1.39,1.39,0,0,0-.32.68,4.37,4.37,0,0,0-.08.9v.26a1.9,1.9,0,0,0,.18.85,1.25,1.25,0,0,0,.54.55,1.68,1.68,0,0,0,.84.19,2.69,2.69,0,0,0,.91-.16,1.67,1.67,0,0,0,.77-.55l1.1,1.41a3,3,0,0,1-1.1.89A4,4,0,0,1,258.42,109.91Z"/><path class="cls-2" d="M38.41,249a5.86,5.86,0,0,1-.56,2.65,4.18,4.18,0,0,1-1.56,1.71,4.3,4.3,0,0,1-2.27.6,4.37,4.37,0,0,1-2.29-.6,4.11,4.11,0,0,1-1.56-1.71,5.73,5.73,0,0,1-.56-2.65v-.3a5.73,5.73,0,0,1,.56-2.65,4.18,4.18,0,0,1,1.55-1.72,4.35,4.35,0,0,1,2.29-.6A4.11,4.11,0,0,1,37.84,246a5.73,5.73,0,0,1,.57,2.65Zm-2.6-.31a5.08,5.08,0,0,0-.21-1.58,2.1,2.1,0,0,0-.61-1,1.69,1.69,0,0,0-2,0,2,2,0,0,0-.59,1,5.11,5.11,0,0,0-.2,1.58V249a5.1,5.1,0,0,0,.2,1.56,1.92,1.92,0,0,0,.6,1,1.48,1.48,0,0,0,1,.34,1.46,1.46,0,0,0,1-.34,2.07,2.07,0,0,0,.6-1,5.08,5.08,0,0,0,.21-1.56Z"/><path class="cls-2" d="M42,253.77H39.49v-7.39h2.3l.16,2Zm2.09-5-.38,0-.4,0a2.23,2.23,0,0,0-.84.14.87.87,0,0,0-.47.41,1.71,1.71,0,0,0-.14.74l-.43-.37a5.48,5.48,0,0,1,.26-1.76,2.59,2.59,0,0,1,.71-1.17,1.56,1.56,0,0,1,1.08-.42,2.06,2.06,0,0,1,.35,0,1.13,1.13,0,0,1,.3.06Z"/><path class="cls-2" d="M47.19,253.53a3.79,3.79,0,0,1-.42,1.71,4.4,4.4,0,0,1-1,1.38l-1.24-.57c.09-.21.2-.42.31-.64a4.22,4.22,0,0,0,.31-.74,3.53,3.53,0,0,0,.12-1V252h2Z"/><path class="cls-2" d="M55.86,253.91a4.12,4.12,0,0,1-2.09-.5,3.35,3.35,0,0,1-1.32-1.32,3.57,3.57,0,0,1-.45-1.76v-.26a4.54,4.54,0,0,1,.4-1.93,3.21,3.21,0,0,1,1.19-1.39,3.7,3.7,0,0,1,2-.51,3.59,3.59,0,0,1,1.83.44,2.86,2.86,0,0,1,1.17,1.26,4.32,4.32,0,0,1,.41,1.95v1H52.92v-1.58H56.6v-.2a.91.91,0,0,0-.11-.52.66.66,0,0,0-.34-.3,1.39,1.39,0,0,0-.57-.1.91.91,0,0,0-.72.27,1.59,1.59,0,0,0-.32.68,5.19,5.19,0,0,0-.08.9v.26a1.78,1.78,0,0,0,.19.85,1.28,1.28,0,0,0,.53.55,1.75,1.75,0,0,0,.85.19,2.59,2.59,0,0,0,.9-.16,1.62,1.62,0,0,0,.77-.55l1.11,1.41a3.16,3.16,0,0,1-1.11.89A4,4,0,0,1,55.86,253.91Z"/><path class="cls-2" d="M62.29,253.77H59.83v-7.39h2.3l.16,1.57Zm-.86-3.87a5,5,0,0,1,.35-2,2.77,2.77,0,0,1,1-1.24,2.69,2.69,0,0,1,1.5-.42,2.6,2.6,0,0,1,1.21.27,1.87,1.87,0,0,1,.81.91,4.15,4.15,0,0,1,.3,1.74v4.61H64.13v-4.62a1.16,1.16,0,0,0-.12-.59.53.53,0,0,0-.32-.27,1.66,1.66,0,0,0-.53-.07,1.25,1.25,0,0,0-.55.11,1,1,0,0,0-.36.33,1.6,1.6,0,0,0-.19.52,3.4,3.4,0,0,0-.06.67Z"/><path class="cls-2" d="M71.81,248.15H67.26v-1.77h4.55Zm-1.18-3.61v6.68a1.11,1.11,0,0,0,.06.41.35.35,0,0,0,.22.21,1.33,1.33,0,0,0,.44.06h.32a.88.88,0,0,0,.24,0v1.84a3.92,3.92,0,0,1-1.34.21,3.23,3.23,0,0,1-1.31-.24,1.76,1.76,0,0,1-.81-.76,2.76,2.76,0,0,1-.28-1.33v-7Z"/><path class="cls-2" d="M76.29,253.91a4.14,4.14,0,0,1-2.09-.5,3.35,3.35,0,0,1-1.32-1.32,3.57,3.57,0,0,1-.45-1.76v-.26a4.54,4.54,0,0,1,.4-1.93,3.17,3.17,0,0,1,1.2-1.39,4.12,4.12,0,0,1,3.84-.07A2.9,2.9,0,0,1,79,247.94a4.32,4.32,0,0,1,.41,1.95v1H73.36v-1.58H77v-.2a.91.91,0,0,0-.11-.52.63.63,0,0,0-.34-.3,1.35,1.35,0,0,0-.57-.1.91.91,0,0,0-.71.27,1.39,1.39,0,0,0-.32.68,4.36,4.36,0,0,0-.09.9v.26a1.9,1.9,0,0,0,.19.85,1.25,1.25,0,0,0,.54.55,1.68,1.68,0,0,0,.84.19,2.69,2.69,0,0,0,.91-.16,1.64,1.64,0,0,0,.76-.55l1.11,1.41a3.12,3.12,0,0,1-1.1.89A4,4,0,0,1,76.29,253.91Z"/><path class="cls-2" d="M82.79,253.77H80.33v-7.39h2.3l.16,2Zm2.09-5-.39,0-.39,0a2.16,2.16,0,0,0-.84.14.84.84,0,0,0-.47.41,1.58,1.58,0,0,0-.14.74l-.43-.37a5.79,5.79,0,0,1,.25-1.76,2.6,2.6,0,0,1,.72-1.17,1.56,1.56,0,0,1,1.08-.42,2.06,2.06,0,0,1,.35,0,1.33,1.33,0,0,1,.3.06Z"/><path class="cls-2" d="M93.25,250.57h-1a.88.88,0,0,0-.79.31,1.24,1.24,0,0,0-.2.66.51.51,0,0,0,.18.41.75.75,0,0,0,.47.15,1.29,1.29,0,0,0,.59-.12,1.05,1.05,0,0,0,.37-.3.39.39,0,0,0,.1-.3l.53,1a4.07,4.07,0,0,1-.31.53,1.87,1.87,0,0,1-.41.48,1.78,1.78,0,0,1-.6.36,2.68,2.68,0,0,1-.86.13,3,3,0,0,1-1.26-.28,2.36,2.36,0,0,1-.92-.79,2,2,0,0,1-.35-1.17,2.13,2.13,0,0,1,.84-1.79,4.27,4.27,0,0,1,2.64-.65h.91Zm-.31-1.66a1.14,1.14,0,0,0-.17-.65.7.7,0,0,0-.6-.24,1,1,0,0,0-.38.06.49.49,0,0,0-.23.22.81.81,0,0,0-.08.41H89a2.1,2.1,0,0,1,.4-1.28,2.67,2.67,0,0,1,1.14-.87,4.22,4.22,0,0,1,1.74-.32,4,4,0,0,1,1.59.3,2.39,2.39,0,0,1,1.11.89,2.55,2.55,0,0,1,.42,1.5v2.91A5.52,5.52,0,0,0,95.5,253a2.84,2.84,0,0,0,.24.64v.12H93.28a3.24,3.24,0,0,1-.26-.89,7.69,7.69,0,0,1-.08-1.1Z"/><path class="cls-2" d="M99,253.77H96.56v-7.39h2.3L99,248Zm-.86-3.87a5,5,0,0,1,.35-2,2.77,2.77,0,0,1,1-1.24,2.69,2.69,0,0,1,1.5-.42,2.6,2.6,0,0,1,1.21.27,1.87,1.87,0,0,1,.81.91,4.15,4.15,0,0,1,.3,1.74v4.61h-2.47v-4.62a1.16,1.16,0,0,0-.12-.59.53.53,0,0,0-.32-.27,1.66,1.66,0,0,0-.53-.07,1.25,1.25,0,0,0-.55.11,1,1,0,0,0-.36.33,1.6,1.6,0,0,0-.19.52,3.4,3.4,0,0,0-.06.67Z"/><path class="cls-2" d="M112.11,250.57h-1a.88.88,0,0,0-.79.31,1.24,1.24,0,0,0-.2.66.51.51,0,0,0,.18.41.75.75,0,0,0,.47.15,1.37,1.37,0,0,0,.6-.12,1.11,1.11,0,0,0,.36-.3.39.39,0,0,0,.1-.3l.53,1a4.07,4.07,0,0,1-.31.53,1.87,1.87,0,0,1-.41.48,1.78,1.78,0,0,1-.6.36,2.68,2.68,0,0,1-.86.13,3,3,0,0,1-1.26-.28,2.36,2.36,0,0,1-.92-.79,2,2,0,0,1-.35-1.17,2.13,2.13,0,0,1,.84-1.79,4.27,4.27,0,0,1,2.64-.65h.91Zm-.31-1.66a1.14,1.14,0,0,0-.17-.65.7.7,0,0,0-.6-.24,1,1,0,0,0-.38.06.49.49,0,0,0-.23.22.81.81,0,0,0-.08.41h-2.46a2.1,2.1,0,0,1,.4-1.28,2.67,2.67,0,0,1,1.14-.87,4.22,4.22,0,0,1,1.74-.32,4,4,0,0,1,1.59.3,2.47,2.47,0,0,1,1.12.89,2.62,2.62,0,0,1,.41,1.5v2.91a5.52,5.52,0,0,0,.08,1.17,2.84,2.84,0,0,0,.24.64v.12h-2.46a3.24,3.24,0,0,1-.26-.89,7.69,7.69,0,0,1-.08-1.1Z"/><path class="cls-2" d="M118,253.77h-2.46v-7.39h2.31L118,248Zm-.85-3.87a5.07,5.07,0,0,1,.31-1.89,2.92,2.92,0,0,1,1-1.3,2.64,2.64,0,0,1,1.58-.47,2.09,2.09,0,0,1,1.55.6,2.78,2.78,0,0,1,.6,2v4.93h-2.47v-4.58a1.61,1.61,0,0,0-.09-.63.51.51,0,0,0-.27-.27,1.16,1.16,0,0,0-.44-.07,1.1,1.1,0,0,0-.49.11,1.19,1.19,0,0,0-.38.33,1.64,1.64,0,0,0-.23.52,2.73,2.73,0,0,0-.08.67Zm4,.08a5.31,5.31,0,0,1,.3-1.94,2.86,2.86,0,0,1,.93-1.32,2.5,2.5,0,0,1,1.56-.48,2.56,2.56,0,0,1,1.2.27,1.84,1.84,0,0,1,.82.91,4.12,4.12,0,0,1,.3,1.74v4.61h-2.48v-4.61a1.33,1.33,0,0,0-.1-.6.49.49,0,0,0-.26-.27,1.11,1.11,0,0,0-.43-.07,1,1,0,0,0-.52.13.89.89,0,0,0-.36.36,1.87,1.87,0,0,0-.22.56,3.29,3.29,0,0,0-.07.73Z"/><path class="cls-2" d="M127.21,250a4.49,4.49,0,0,1,.41-1.94,3.2,3.2,0,0,1,1.21-1.34,4.23,4.23,0,0,1,3.95,0,3.13,3.13,0,0,1,1.21,1.34,4.49,4.49,0,0,1,.41,1.94v.13a4.49,4.49,0,0,1-.41,1.94,3.11,3.11,0,0,1-1.2,1.34,4.25,4.25,0,0,1-4,0,3.14,3.14,0,0,1-1.21-1.34,4.49,4.49,0,0,1-.41-1.94Zm2.47.13a4.35,4.35,0,0,0,.09.92,1.14,1.14,0,0,0,.34.63,1,1,0,0,0,.7.24,1,1,0,0,0,.7-.24,1.2,1.2,0,0,0,.34-.63,4.35,4.35,0,0,0,.09-.92V250a4.16,4.16,0,0,0-.09-.9,1.35,1.35,0,0,0-.34-.65,1.16,1.16,0,0,0-1.41,0,1.34,1.34,0,0,0-.33.65,4.16,4.16,0,0,0-.09.9Z"/><path class="cls-2" d="M140.48,250.42a4.76,4.76,0,0,1-.32,1.79,2.78,2.78,0,0,1-.91,1.24,2.32,2.32,0,0,1-1.46.46,2.52,2.52,0,0,1-1.79-.64,2.8,2.8,0,0,1-.68-2.1v-4.79h2.46v4.8a.82.82,0,0,0,.09.4.59.59,0,0,0,.28.26,1.08,1.08,0,0,0,.46.09,1.29,1.29,0,0,0,.76-.2,1,1,0,0,0,.38-.52,2.65,2.65,0,0,0,.11-.77Zm-.86-4h2.47v7.39h-2.3l-.17-1.82Z"/><path class="cls-2" d="M145.69,253.77h-2.46v-7.39h2.31l.15,1.57Zm-.85-3.87a4.81,4.81,0,0,1,.35-2,2.59,2.59,0,0,1,2.5-1.66,2.53,2.53,0,0,1,1.2.27,1.89,1.89,0,0,1,.82.91,4.15,4.15,0,0,1,.3,1.74v4.61h-2.48v-4.62a1.29,1.29,0,0,0-.11-.59.58.58,0,0,0-.33-.27,1.62,1.62,0,0,0-.53-.07,1.28,1.28,0,0,0-.55.11.86.86,0,0,0-.35.33,1.61,1.61,0,0,0-.2.52,4.47,4.47,0,0,0-.05.67Z"/><path class="cls-2" d="M155.22,248.15h-4.55v-1.77h4.55ZM154,244.54v6.68a1.11,1.11,0,0,0,.06.41.4.4,0,0,0,.23.21,1.25,1.25,0,0,0,.44.06h.32a.88.88,0,0,0,.24,0v1.84a4.85,4.85,0,0,1-.63.16,5.16,5.16,0,0,1-.71,0,3.18,3.18,0,0,1-1.3-.24,1.78,1.78,0,0,1-.82-.76,2.88,2.88,0,0,1-.28-1.33v-7Z"/><path class="cls-2" d="M41,283.67l1.67-13.91h16v5.38H48.13l-.58,4.69a10.1,10.1,0,0,1,1.46-.56,7.16,7.16,0,0,1,2.27-.35A9.1,9.1,0,0,1,55.86,280a6.9,6.9,0,0,1,2.84,3.1,11.47,11.47,0,0,1,1,5,9.66,9.66,0,0,1-1,4.35,8.41,8.41,0,0,1-3.13,3.42,10,10,0,0,1-5.36,1.32,11.4,11.4,0,0,1-3.57-.57,10.35,10.35,0,0,1-3.12-1.65,8,8,0,0,1-2.18-2.59,6.88,6.88,0,0,1-.76-3.37h6.72a2.93,2.93,0,0,0,.83,2,2.75,2.75,0,0,0,2,.78,2.44,2.44,0,0,0,1.79-.61,3.22,3.22,0,0,0,.85-1.59,8.53,8.53,0,0,0,.23-2.05,5.38,5.38,0,0,0-.36-2.08,2.61,2.61,0,0,0-1.15-1.32,4.2,4.2,0,0,0-2.09-.46,3.73,3.73,0,0,0-2,.47,4.12,4.12,0,0,0-1,.85Z"/><path class="cls-2" d="M81.88,285.81a14.59,14.59,0,0,1-1.21,6.35,8.35,8.35,0,0,1-3.36,3.75,9.72,9.72,0,0,1-4.93,1.23,9.84,9.84,0,0,1-5-1.23A8.33,8.33,0,0,1,64,292.16a14.59,14.59,0,0,1-1.21-6.35v-5.07a14.71,14.71,0,0,1,1.2-6.35,8.31,8.31,0,0,1,3.36-3.76,10.48,10.48,0,0,1,9.89,0,8.52,8.52,0,0,1,3.38,3.76,14.55,14.55,0,0,1,1.22,6.35Zm-6.7-5.94a10.58,10.58,0,0,0-.35-3.05,3,3,0,0,0-1-1.57,2.66,2.66,0,0,0-3,0,2.92,2.92,0,0,0-1,1.57,10.58,10.58,0,0,0-.35,3.05v6.79a10.51,10.51,0,0,0,.36,3.1,2.86,2.86,0,0,0,1,1.56,2.67,2.67,0,0,0,1.53.44,2.59,2.59,0,0,0,1.49-.44,2.9,2.9,0,0,0,1-1.56,11,11,0,0,0,.34-3.1Z"/><path class="cls-2" d="M104,285.81a14.58,14.58,0,0,1-1.22,6.35,8.35,8.35,0,0,1-3.36,3.75,9.69,9.69,0,0,1-4.92,1.23,9.84,9.84,0,0,1-5-1.23,8.27,8.27,0,0,1-3.38-3.75,14.58,14.58,0,0,1-1.22-6.35v-5.07a14.56,14.56,0,0,1,1.21-6.35,8.31,8.31,0,0,1,3.36-3.76,10.48,10.48,0,0,1,9.89,0,8.44,8.44,0,0,1,3.37,3.76,14.4,14.4,0,0,1,1.23,6.35Zm-6.7-5.94a10.58,10.58,0,0,0-.35-3.05,3,3,0,0,0-1-1.57,2.46,2.46,0,0,0-1.5-.47,2.51,2.51,0,0,0-1.51.47,2.93,2.93,0,0,0-1,1.57,11,11,0,0,0-.34,3.05v6.79a10.91,10.91,0,0,0,.35,3.1,2.92,2.92,0,0,0,1,1.56,2.63,2.63,0,0,0,1.53.44,2.54,2.54,0,0,0,1.48-.44,2.91,2.91,0,0,0,1-1.56,11,11,0,0,0,.34-3.1Z"/><path class="cls-4" d="M30.08,277v-2.56h7.3V277Zm0,4.78v-2.65h9.47v2.65Zm4.75-4.08a2.17,2.17,0,0,1-.44,1.44,3.61,3.61,0,0,1-1.59,1l-1.82-1a.56.56,0,0,0,.36-.23.8.8,0,0,0,.12-.41,4.52,4.52,0,0,0,0-.54l-.15-5.3a4.07,4.07,0,0,1,.49-2.07,3.25,3.25,0,0,1,1.41-1.31,4.78,4.78,0,0,1,2.14-.45,4.34,4.34,0,0,1,3.15,1.05,3.68,3.68,0,0,1,1.09,2.78H36.55a1.54,1.54,0,0,0-.14-.71.78.78,0,0,0-.38-.36,1.33,1.33,0,0,0-.54-.11.8.8,0,0,0-.62.28,1.38,1.38,0,0,0-.24.9Z"/><line class="cls-5" x1="19.33" y1="74.77" x2="289.33" y2="74.77"/><line class="cls-5" x1="19.33" y1="220.27" x2="289.33" y2="220.27"/><line class="cls-5" x1="19.33" y1="322.27" x2="289.33" y2="322.27"/><path class="cls-6" d="M32.17,346.63,34,343.06h1.08l-2.45,4.45v2.65h-.95v-2.65l-2.45-4.45h1.09Z"/><path class="cls-6" d="M35.31,347.47a3,3,0,0,1,.29-1.37,2.26,2.26,0,0,1,2.1-1.32,2.27,2.27,0,0,1,1.29.36,2.31,2.31,0,0,1,.84,1,3.17,3.17,0,0,1,.29,1.37v.11a3.17,3.17,0,0,1-.29,1.37,2.36,2.36,0,0,1-.83,1,2.29,2.29,0,0,1-1.29.35,2.26,2.26,0,0,1-1.28-.35,2.23,2.23,0,0,1-.83-1,3,3,0,0,1-.29-1.37Zm.91.11a2.78,2.78,0,0,0,.16,1,1.76,1.76,0,0,0,.5.71,1.41,1.41,0,0,0,1.66,0,1.67,1.67,0,0,0,.5-.71,2.78,2.78,0,0,0,.16-1v-.11a2.78,2.78,0,0,0-.16-1,1.67,1.67,0,0,0-.5-.71,1.28,1.28,0,0,0-.84-.27,1.25,1.25,0,0,0-.82.27,1.67,1.67,0,0,0-.5.71,2.78,2.78,0,0,0-.16,1Z"/><path class="cls-6" d="M45,347.82a3.55,3.55,0,0,1-.2,1.26,1.76,1.76,0,0,1-.65.86,2,2,0,0,1-1.22.32,1.71,1.71,0,0,1-1.25-.46,2,2,0,0,1-.48-1.51v-3.41h.91v3.42a1.65,1.65,0,0,0,.14.74.78.78,0,0,0,.36.36,1.1,1.1,0,0,0,.47.1,1.61,1.61,0,0,0,.91-.22,1.18,1.18,0,0,0,.48-.6,2.34,2.34,0,0,0,.15-.85Zm-.55-2.94h.91v5.28h-.87l0-1.22Z"/><path class="cls-6" d="M47.67,350.16h-.91v-5.28h.89l0,.83Zm1.65-4.47-.22,0h-.22a1.31,1.31,0,0,0-.71.17,1.17,1.17,0,0,0-.44.47,1.85,1.85,0,0,0-.19.69l-.26.14a3.68,3.68,0,0,1,.17-1.17,1.9,1.9,0,0,1,.53-.85,1.41,1.41,0,0,1,.94-.32l.22,0,.18,0Z"/><path class="cls-6" d="M55.91,347.6H55a2.43,2.43,0,0,0-1.19.24.79.79,0,0,0-.42.73.91.91,0,0,0,.26.65,1,1,0,0,0,.75.26,1.57,1.57,0,0,0,.73-.17,1.54,1.54,0,0,0,.5-.44.91.91,0,0,0,.2-.5l.39.44a1.24,1.24,0,0,1-.18.45,2.22,2.22,0,0,1-.4.48,2.25,2.25,0,0,1-.6.37,1.92,1.92,0,0,1-.77.15,2.1,2.1,0,0,1-.94-.2,1.58,1.58,0,0,1-.63-.57,1.45,1.45,0,0,1-.22-.79,1.48,1.48,0,0,1,.64-1.3,3.07,3.07,0,0,1,1.74-.44h1Zm-.16-1.06a1,1,0,0,0-.29-.75,1.09,1.09,0,0,0-.82-.28,1.57,1.57,0,0,0-.6.11,1,1,0,0,0-.39.31.68.68,0,0,0-.15.42h-.91a1.26,1.26,0,0,1,.26-.74,1.89,1.89,0,0,1,.73-.59,2.39,2.39,0,0,1,1.11-.24,2.51,2.51,0,0,1,1,.2,1.56,1.56,0,0,1,.7.59,1.85,1.85,0,0,1,.25,1V349a3.6,3.6,0,0,0,0,.56,3,3,0,0,0,.14.52v.07h-1a2.14,2.14,0,0,1-.11-.41,4.42,4.42,0,0,1,0-.49Z"/><path class="cls-6" d="M61.86,347.82a3.78,3.78,0,0,1-.2,1.26,1.77,1.77,0,0,1-.66.86,2,2,0,0,1-1.21.32,1.73,1.73,0,0,1-1.26-.46,2,2,0,0,1-.48-1.51v-3.41H59v3.42a1.52,1.52,0,0,0,.14.74.78.78,0,0,0,.36.36,1.06,1.06,0,0,0,.46.1,1.65,1.65,0,0,0,.92-.22,1.29,1.29,0,0,0,.48-.6,2.34,2.34,0,0,0,.15-.85Zm-.55-2.94h.91v5.28h-.87l0-1.22Z"/><path class="cls-6" d="M65.81,345.57H63v-.69h2.86Zm-1-2v5.26a.76.76,0,0,0,.09.41.37.37,0,0,0,.21.18.86.86,0,0,0,.28,0l.24,0,.18,0v.72a1.42,1.42,0,0,1-.28.07,2.58,2.58,0,0,1-.42,0,1.39,1.39,0,0,1-.61-.13.94.94,0,0,1-.44-.44,1.7,1.7,0,0,1-.17-.84V343.6Z"/><path class="cls-6" d="M66.48,347.47a3,3,0,0,1,.3-1.37,2.26,2.26,0,0,1,2.1-1.32,2.27,2.27,0,0,1,1.29.36,2.23,2.23,0,0,1,.83,1,3,3,0,0,1,.29,1.37v.11A3,3,0,0,1,71,349a2.23,2.23,0,0,1-.83,1,2.52,2.52,0,0,1-2.56,0,2.23,2.23,0,0,1-.83-1,3,3,0,0,1-.3-1.37Zm.92.11a2.78,2.78,0,0,0,.16,1,1.67,1.67,0,0,0,.5.71,1.26,1.26,0,0,0,.83.27,1.27,1.27,0,0,0,.83-.27,1.65,1.65,0,0,0,.49-.71,2.78,2.78,0,0,0,.17-1v-.11a2.78,2.78,0,0,0-.17-1,1.59,1.59,0,0,0-.5-.71,1.27,1.27,0,0,0-.83-.27,1.29,1.29,0,0,0-.83.27,1.65,1.65,0,0,0-.49.71,2.78,2.78,0,0,0-.16,1Z"/><path class="cls-6" d="M73.33,350.16h-.91v-5.28h.86l0,1.05Zm-.61-2.86A3.49,3.49,0,0,1,73,346a1.94,1.94,0,0,1,1.9-1.23,1.78,1.78,0,0,1,1.23.44,1.83,1.83,0,0,1,.48,1.42v3.52h-.91v-3.47a1.42,1.42,0,0,0-.14-.67.89.89,0,0,0-.4-.37,1.48,1.48,0,0,0-.59-.11,1.43,1.43,0,0,0-.66.14,1.24,1.24,0,0,0-.43.39,1.8,1.8,0,0,0-.23.57,3,3,0,0,0-.07.68ZM76,347a2.53,2.53,0,0,1,.25-1.09,1.94,1.94,0,0,1,.71-.82,2,2,0,0,1,1.14-.32,2.13,2.13,0,0,1,1,.2,1.29,1.29,0,0,1,.6.62,2.46,2.46,0,0,1,.21,1.09v3.47h-.92v-3.48a1.36,1.36,0,0,0-.14-.69.74.74,0,0,0-.39-.35,1.49,1.49,0,0,0-.59-.1,1.21,1.21,0,0,0-.52.1,1.11,1.11,0,0,0-.38.28,1.14,1.14,0,0,0-.24.41,1.57,1.57,0,0,0-.08.49Z"/><path class="cls-6" d="M84.47,347.6h-.91a2.43,2.43,0,0,0-1.19.24.79.79,0,0,0-.42.73.91.91,0,0,0,.26.65,1,1,0,0,0,.75.26,1.57,1.57,0,0,0,.73-.17,1.54,1.54,0,0,0,.5-.44.91.91,0,0,0,.2-.5l.39.44a1.24,1.24,0,0,1-.18.45,2.22,2.22,0,0,1-.4.48,2.25,2.25,0,0,1-.6.37,1.92,1.92,0,0,1-.77.15,2.18,2.18,0,0,1-1-.2,1.62,1.62,0,0,1-.62-.57,1.45,1.45,0,0,1-.22-.79,1.48,1.48,0,0,1,.64-1.3,3.07,3.07,0,0,1,1.74-.44h1Zm-.17-1.06a1,1,0,0,0-.28-.75,1.09,1.09,0,0,0-.82-.28,1.57,1.57,0,0,0-.6.11,1,1,0,0,0-.39.31.68.68,0,0,0-.15.42h-.91a1.26,1.26,0,0,1,.26-.74,1.89,1.89,0,0,1,.73-.59,2.39,2.39,0,0,1,1.11-.24,2.54,2.54,0,0,1,1,.2,1.56,1.56,0,0,1,.7.59,1.85,1.85,0,0,1,.25,1V349a3.6,3.6,0,0,0,0,.56,2.3,2.3,0,0,0,.14.52v.07h-1a2.14,2.14,0,0,1-.11-.41,4.6,4.6,0,0,1,0-.49Z"/><path class="cls-6" d="M88.86,345.57H86v-.69h2.87Zm-1-2v5.26a.87.87,0,0,0,.08.41.42.42,0,0,0,.22.18.82.82,0,0,0,.28,0l.24,0,.18,0v.72a1.54,1.54,0,0,1-.29.07,2.37,2.37,0,0,1-.41,0,1.36,1.36,0,0,1-.61-.13,1,1,0,0,1-.45-.44,1.82,1.82,0,0,1-.16-.84V343.6Z"/><path class="cls-6" d="M89.92,343.48a.52.52,0,0,1,.13-.37.51.51,0,0,1,.4-.15.52.52,0,0,1,.4.15.53.53,0,0,1,.14.37.5.5,0,0,1-.54.5.48.48,0,0,1-.53-.5Zm1,6.68H90v-5.28h.92Z"/><path class="cls-6" d="M94.46,349.53a1.45,1.45,0,0,0,.59-.13,1.36,1.36,0,0,0,.45-.37,1,1,0,0,0,.2-.54h.87a1.69,1.69,0,0,1-.32.88,2.29,2.29,0,0,1-.76.65,2.48,2.48,0,0,1-2.35-.12,2.19,2.19,0,0,1-.78-1,3.28,3.28,0,0,1-.26-1.3v-.21a3.29,3.29,0,0,1,.26-1.31,2.16,2.16,0,0,1,.78-1,2.46,2.46,0,0,1,2.4-.11,1.78,1.78,0,0,1,.73.68,2,2,0,0,1,.3,1H95.7a1.5,1.5,0,0,0-.18-.6,1.15,1.15,0,0,0-1.06-.58,1.25,1.25,0,0,0-.87.28,1.49,1.49,0,0,0-.44.72,3,3,0,0,0-.13.9v.21a3.37,3.37,0,0,0,.12.9,1.56,1.56,0,0,0,.44.72A1.26,1.26,0,0,0,94.46,349.53Z"/><path class="cls-6" d="M101,350.16h-.91v-5.28h.87l0,1.05Zm-.61-2.86a3.49,3.49,0,0,1,.25-1.29,1.94,1.94,0,0,1,1.9-1.23,1.76,1.76,0,0,1,1.23.44,1.83,1.83,0,0,1,.48,1.42v3.52h-.91v-3.47a1.42,1.42,0,0,0-.14-.67.82.82,0,0,0-.39-.37,1.57,1.57,0,0,0-.6-.11,1.46,1.46,0,0,0-.66.14,1.24,1.24,0,0,0-.43.39,1.8,1.8,0,0,0-.23.57,3,3,0,0,0-.07.68Zm3.24-.29a2.53,2.53,0,0,1,.25-1.09,2,2,0,0,1,.71-.82,2,2,0,0,1,1.14-.32,2.13,2.13,0,0,1,1,.2,1.29,1.29,0,0,1,.6.62,2.46,2.46,0,0,1,.21,1.09v3.47h-.91v-3.48a1.48,1.48,0,0,0-.14-.69.82.82,0,0,0-.39-.35,1.57,1.57,0,0,0-.6-.1,1.13,1.13,0,0,0-.9.38,1.3,1.3,0,0,0-.24.41,1.57,1.57,0,0,0-.08.49Z"/><path class="cls-6" d="M108.59,347.47a3,3,0,0,1,.29-1.37,2.29,2.29,0,0,1,.83-1,2.23,2.23,0,0,1,1.27-.36,2.27,2.27,0,0,1,1.29.36,2.31,2.31,0,0,1,.84,1,3.17,3.17,0,0,1,.29,1.37v.11a3.17,3.17,0,0,1-.29,1.37,2.29,2.29,0,0,1-.83,1,2.53,2.53,0,0,1-2.57,0,2.29,2.29,0,0,1-.83-1,3,3,0,0,1-.29-1.37Zm.91.11a2.78,2.78,0,0,0,.17,1,1.65,1.65,0,0,0,.49.71,1.27,1.27,0,0,0,.83.27,1.26,1.26,0,0,0,.83-.27,1.67,1.67,0,0,0,.5-.71,2.78,2.78,0,0,0,.16-1v-.11a2.78,2.78,0,0,0-.16-1,1.67,1.67,0,0,0-.5-.71,1.28,1.28,0,0,0-.84-.27,1.26,1.26,0,0,0-.82.27,1.67,1.67,0,0,0-.5.71,2.78,2.78,0,0,0-.16,1Z"/><path class="cls-6" d="M115.44,350.16h-.91v-5.28h.86l0,1.13Zm-.59-2.86a3,3,0,0,1,.28-1.29,2.07,2.07,0,0,1,.75-.9,1.92,1.92,0,0,1,1.12-.33,2,2,0,0,1,.9.2,1.28,1.28,0,0,1,.58.61,2.5,2.5,0,0,1,.21,1.11v3.46h-.91v-3.47a1.61,1.61,0,0,0-.12-.67.76.76,0,0,0-.36-.37,1.38,1.38,0,0,0-.57-.11,1.34,1.34,0,0,0-.61.14,1.65,1.65,0,0,0-.48.39,2.24,2.24,0,0,0-.31.57,2.15,2.15,0,0,0-.1.68Z"/><path class="cls-6" d="M122.27,345.57h-2.86v-.69h2.86Zm-1-2v5.26a.76.76,0,0,0,.08.41.44.44,0,0,0,.21.18.92.92,0,0,0,.29,0l.23,0,.19,0v.72a1.26,1.26,0,0,1-.28.07,2.42,2.42,0,0,1-.42,0,1.39,1.39,0,0,1-.61-.13,1,1,0,0,1-.44-.44,1.81,1.81,0,0,1-.17-.84V343.6Z"/><path class="cls-6" d="M124.24,350.16h-.92v-7.5h.92Zm-.6-2.86a3.13,3.13,0,0,1,.28-1.29,2.22,2.22,0,0,1,.75-.9,2.09,2.09,0,0,1,2-.13,1.3,1.3,0,0,1,.59.61,2.66,2.66,0,0,1,.2,1.11v3.46h-.91v-3.47a1.61,1.61,0,0,0-.12-.67.79.79,0,0,0-.35-.37,1.43,1.43,0,0,0-.58-.11,1.37,1.37,0,0,0-.61.14,1.61,1.61,0,0,0-.47.39,1.76,1.76,0,0,0-.31.57,2.15,2.15,0,0,0-.11.68Z"/><path class="cls-6" d="M129.82,350.16h-.91v-7.5h.91Z"/><path class="cls-6" d="M133,349l.24.95-.65.33-1.94-5.39h1Zm1.18-4.11h1l-2.12,6.1a3.7,3.7,0,0,1-.19.42,1.8,1.8,0,0,1-.31.43,1.48,1.48,0,0,1-.44.34,1.39,1.39,0,0,1-.63.13l-.17,0-.2,0-.14,0v-.73l.12,0h.12a1.23,1.23,0,0,0,.72-.19,1.42,1.42,0,0,0,.42-.68l.38-1Z"/><path class="cls-6" d="M141.55,348.76a.72.72,0,0,0-.43-.67,3,3,0,0,0-.78-.24,6.09,6.09,0,0,1-1-.31,1.63,1.63,0,0,1-.66-.49,1.07,1.07,0,0,1-.23-.72,1.32,1.32,0,0,1,.24-.77,1.65,1.65,0,0,1,.68-.56,2.26,2.26,0,0,1,1-.22,2.41,2.41,0,0,1,1.09.23,1.61,1.61,0,0,1,.69.59,1.52,1.52,0,0,1,.24.83h-.91a.88.88,0,0,0-.29-.62,1.07,1.07,0,0,0-.82-.29,1.34,1.34,0,0,0-.6.11.9.9,0,0,0-.34.29.75.75,0,0,0-.1.38.57.57,0,0,0,.1.34.77.77,0,0,0,.35.25,4.76,4.76,0,0,0,.76.23,4.79,4.79,0,0,1,1.07.35,1.63,1.63,0,0,1,.63.5,1.23,1.23,0,0,1,.2.73,1.32,1.32,0,0,1-.25.81,1.64,1.64,0,0,1-.71.55,2.6,2.6,0,0,1-1.08.2,2.48,2.48,0,0,1-1.18-.25,1.8,1.8,0,0,1-.74-.64,1.58,1.58,0,0,1-.25-.83h.92a1,1,0,0,0,.21.59,1.11,1.11,0,0,0,.48.31,1.82,1.82,0,0,0,.56.09,1.61,1.61,0,0,0,.62-.1.93.93,0,0,0,.38-.27A.64.64,0,0,0,141.55,348.76Z"/><path class="cls-6" d="M146.92,347.6H146a2.41,2.41,0,0,0-1.19.24.79.79,0,0,0-.42.73.9.9,0,0,0,.25.65,1,1,0,0,0,.75.26,1.61,1.61,0,0,0,.74-.17,1.65,1.65,0,0,0,.5-.44,1,1,0,0,0,.2-.5l.39.44a1.28,1.28,0,0,1-.19.45,2,2,0,0,1-.4.48,2.36,2.36,0,0,1-.59.37,1.94,1.94,0,0,1-.78.15,2.13,2.13,0,0,1-.94-.2,1.49,1.49,0,0,1-.62-.57,1.46,1.46,0,0,1-.23-.79,1.49,1.49,0,0,1,.65-1.3,3.06,3.06,0,0,1,1.73-.44h1Zm-.17-1.06a1,1,0,0,0-.28-.75,1.11,1.11,0,0,0-.83-.28,1.55,1.55,0,0,0-.59.11,1.05,1.05,0,0,0-.4.31.73.73,0,0,0-.14.42h-.91a1.19,1.19,0,0,1,.26-.74,1.85,1.85,0,0,1,.72-.59,2.46,2.46,0,0,1,1.12-.24,2.54,2.54,0,0,1,1,.2,1.53,1.53,0,0,1,.69.59,1.76,1.76,0,0,1,.25,1V349a3.64,3.64,0,0,0,.05.56,2.3,2.3,0,0,0,.14.52v.07h-.95a1.59,1.59,0,0,1-.11-.41,2.93,2.93,0,0,1,0-.49Z"/><path class="cls-6" d="M150.9,349.38l.11.78h-.61l-1.92-5.28h.94Zm1.15-4.5H153l-1.9,5.28h-.61l.14-.81Z"/><path class="cls-6" d="M153.87,343.48a.52.52,0,0,1,.13-.37.51.51,0,0,1,.4-.15.52.52,0,0,1,.4.15.53.53,0,0,1,.14.37.5.5,0,0,1-.54.5.48.48,0,0,1-.53-.5Zm1,6.68h-.92v-5.28h.92Z"/><path class="cls-6" d="M157.2,350.16h-.91v-5.28h.86l0,1.13Zm-.6-2.86a3.13,3.13,0,0,1,.28-1.29,2.22,2.22,0,0,1,.75-.9,2.09,2.09,0,0,1,2-.13,1.25,1.25,0,0,1,.59.61,2.5,2.5,0,0,1,.21,1.11v3.46h-.92v-3.47a1.61,1.61,0,0,0-.12-.67.74.74,0,0,0-.35-.37,1.43,1.43,0,0,0-.58-.11,1.4,1.4,0,0,0-.61.14,1.61,1.61,0,0,0-.47.39,2,2,0,0,0-.31.57,2.15,2.15,0,0,0-.1.68Z"/><path class="cls-6" d="M161.59,347.48a3.67,3.67,0,0,1,.26-1.42,2.22,2.22,0,0,1,.72-.94,1.87,1.87,0,0,1,1.11-.34,2,2,0,0,1,.88.18,1.61,1.61,0,0,1,.63.5,2.58,2.58,0,0,1,.42.79,5.17,5.17,0,0,1,.21,1v.48a4.12,4.12,0,0,1-.33,1.32,1.83,1.83,0,0,1-1.82,1.17,1.74,1.74,0,0,1-1.1-.35,2.25,2.25,0,0,1-.72-1,3.5,3.5,0,0,1-.26-1.38Zm4.47-2.6v5.17a2.33,2.33,0,0,1-.28,1.19,1.9,1.9,0,0,1-.79.75,2.58,2.58,0,0,1-1.17.26,2.72,2.72,0,0,1-.64-.09,2.45,2.45,0,0,1-.72-.28,1.86,1.86,0,0,1-.6-.55l.48-.53a1.77,1.77,0,0,0,1.41.72,1.38,1.38,0,0,0,1-.37,1.39,1.39,0,0,0,.38-1V346l.08-1.16Zm-3.55,2.7a3.22,3.22,0,0,0,.14,1,1.63,1.63,0,0,0,.45.7,1.22,1.22,0,0,0,.8.26,1.31,1.31,0,0,0,.74-.19,1.48,1.48,0,0,0,.46-.5,2.68,2.68,0,0,0,.27-.68v-1.19a3.13,3.13,0,0,0-.16-.52,1.51,1.51,0,0,0-.29-.45,1.21,1.21,0,0,0-.42-.31,1.38,1.38,0,0,0-.59-.12,1.2,1.2,0,0,0-.8.26,1.6,1.6,0,0,0-.46.71,3.29,3.29,0,0,0-.14,1Z"/><path class="cls-6" d="M170.5,348.76a.86.86,0,0,0-.08-.36.84.84,0,0,0-.35-.31,3,3,0,0,0-.78-.24,6.09,6.09,0,0,1-1-.31,1.63,1.63,0,0,1-.66-.49,1.07,1.07,0,0,1-.23-.72,1.32,1.32,0,0,1,.24-.77,1.65,1.65,0,0,1,.68-.56,2.26,2.26,0,0,1,1-.22,2.41,2.41,0,0,1,1.09.23,1.61,1.61,0,0,1,.69.59,1.52,1.52,0,0,1,.24.83h-.91a.88.88,0,0,0-.29-.62,1.07,1.07,0,0,0-.82-.29,1.34,1.34,0,0,0-.6.11.9.9,0,0,0-.34.29.75.75,0,0,0-.1.38.57.57,0,0,0,.1.34.77.77,0,0,0,.35.25,4.76,4.76,0,0,0,.76.23,4.79,4.79,0,0,1,1.07.35,1.63,1.63,0,0,1,.63.5,1.23,1.23,0,0,1,.2.73,1.32,1.32,0,0,1-.25.81,1.64,1.64,0,0,1-.71.55,2.6,2.6,0,0,1-1.08.2,2.48,2.48,0,0,1-1.18-.25,1.8,1.8,0,0,1-.74-.64,1.57,1.57,0,0,1-.24-.83h.91a1,1,0,0,0,.21.59,1.11,1.11,0,0,0,.48.31,1.82,1.82,0,0,0,.56.09,1.61,1.61,0,0,0,.62-.1.87.87,0,0,0,.38-.27A.64.64,0,0,0,170.5,348.76Z"/><path class="cls-6" d="M32.33,357.57H29.47v-.69h2.86Zm-2,4.59v-5.84A1.6,1.6,0,0,1,32,354.56l.31,0a1.55,1.55,0,0,1,.31.06l0,.73a1.6,1.6,0,0,0-.23,0h-.26a.88.88,0,0,0-.67.25,1.06,1.06,0,0,0-.24.74v5.84Z"/><path class="cls-6" d="M34.24,362.16h-.91v-5.28h.89l0,.83Zm1.65-4.47-.22,0h-.23a1.3,1.3,0,0,0-.7.17,1.11,1.11,0,0,0-.44.47,2.06,2.06,0,0,0-.2.69l-.25.14A3.68,3.68,0,0,1,34,358a1.9,1.9,0,0,1,.53-.85,1.39,1.39,0,0,1,.94-.32l.22,0,.18,0Z"/><path class="cls-6" d="M36.31,359.47a3.17,3.17,0,0,1,.29-1.37,2.36,2.36,0,0,1,.83-1,2.47,2.47,0,0,1,2.57,0,2.23,2.23,0,0,1,.83,1,3.17,3.17,0,0,1,.29,1.37v.11a3.17,3.17,0,0,1-.29,1.37,2.23,2.23,0,0,1-.83,1,2.52,2.52,0,0,1-2.56,0,2.31,2.31,0,0,1-.84-1,3.17,3.17,0,0,1-.29-1.37Zm.91.11a2.78,2.78,0,0,0,.17,1,1.67,1.67,0,0,0,.5.71,1.26,1.26,0,0,0,.83.27,1.27,1.27,0,0,0,.83-.27,1.65,1.65,0,0,0,.49-.71,2.78,2.78,0,0,0,.17-1v-.11a2.78,2.78,0,0,0-.17-1,1.59,1.59,0,0,0-.5-.71,1.27,1.27,0,0,0-.83-.27,1.29,1.29,0,0,0-.83.27,1.65,1.65,0,0,0-.49.71,2.78,2.78,0,0,0-.17,1Z"/><path class="cls-6" d="M43.16,362.16h-.91v-5.28h.86l0,1.05Zm-.61-2.86A3.3,3.3,0,0,1,42.8,358a1.94,1.94,0,0,1,1.9-1.23,1.78,1.78,0,0,1,1.23.44,1.83,1.83,0,0,1,.48,1.42v3.52H45.5v-3.47a1.42,1.42,0,0,0-.14-.67.89.89,0,0,0-.4-.37,1.51,1.51,0,0,0-.59-.11,1.4,1.4,0,0,0-.66.14,1.24,1.24,0,0,0-.43.39,1.59,1.59,0,0,0-.23.57,3,3,0,0,0-.07.68Zm3.24-.29a2.53,2.53,0,0,1,.25-1.09,1.94,1.94,0,0,1,.71-.82,2,2,0,0,1,1.14-.32,2.13,2.13,0,0,1,1,.2,1.39,1.39,0,0,1,.6.62,2.46,2.46,0,0,1,.21,1.09v3.47h-.92v-3.48a1.36,1.36,0,0,0-.14-.69.74.74,0,0,0-.39-.35,1.49,1.49,0,0,0-.59-.1,1.21,1.21,0,0,0-.52.1,1.26,1.26,0,0,0-.39.28,1.27,1.27,0,0,0-.23.41,1.57,1.57,0,0,0-.08.49Z"/><path class="cls-6" d="M55.28,361l.24.95-.66.33-1.94-5.39h1Zm1.17-4.11h1L55.31,363a3.9,3.9,0,0,1-.2.42,2.08,2.08,0,0,1-.3.43,1.41,1.41,0,0,1-.45.34,1.32,1.32,0,0,1-.62.13l-.18,0-.19,0-.14,0v-.73l.12,0h.12a1.26,1.26,0,0,0,.72-.19,1.42,1.42,0,0,0,.42-.68l.37-1Z"/><path class="cls-6" d="M58,359.47a3,3,0,0,1,.29-1.37,2.26,2.26,0,0,1,2.1-1.32,2.27,2.27,0,0,1,1.29.36,2.31,2.31,0,0,1,.84,1,3.17,3.17,0,0,1,.29,1.37v.11a3.17,3.17,0,0,1-.29,1.37,2.36,2.36,0,0,1-.83,1,2.53,2.53,0,0,1-2.57,0,2.23,2.23,0,0,1-.83-1,3,3,0,0,1-.29-1.37Zm.91.11a2.57,2.57,0,0,0,.17,1,1.65,1.65,0,0,0,.49.71,1.27,1.27,0,0,0,.83.27,1.26,1.26,0,0,0,.83-.27,1.67,1.67,0,0,0,.5-.71,2.78,2.78,0,0,0,.16-1v-.11a2.78,2.78,0,0,0-.16-1,1.67,1.67,0,0,0-.5-.71,1.28,1.28,0,0,0-.84-.27,1.25,1.25,0,0,0-.82.27,1.67,1.67,0,0,0-.5.71,2.78,2.78,0,0,0-.16,1Z"/><path class="cls-6" d="M67.72,359.82a3.55,3.55,0,0,1-.2,1.26,1.76,1.76,0,0,1-.65.86,2,2,0,0,1-1.22.32,1.71,1.71,0,0,1-1.25-.46,2,2,0,0,1-.48-1.51v-3.41h.91v3.42A1.65,1.65,0,0,0,65,361a.78.78,0,0,0,.36.36,1.1,1.1,0,0,0,.47.1,1.61,1.61,0,0,0,.91-.22,1.25,1.25,0,0,0,.49-.6,2.57,2.57,0,0,0,.14-.85Zm-.55-2.94h.91v5.28h-.87l0-1.22Z"/><path class="cls-6" d="M70.36,362.16h-.91v-5.28h.89l0,.83ZM72,357.69l-.22,0h-.22a1.25,1.25,0,0,0-.7.17,1.13,1.13,0,0,0-.45.47,1.85,1.85,0,0,0-.19.69l-.26.14a4,4,0,0,1,.17-1.17,1.9,1.9,0,0,1,.53-.85,1.41,1.41,0,0,1,.94-.32l.22,0a.82.82,0,0,1,.18,0Z"/><path class="cls-6" d="M78.4,360.76a.74.74,0,0,0-.09-.36.8.8,0,0,0-.34-.31,3.31,3.31,0,0,0-.78-.24,6.22,6.22,0,0,1-1-.31,1.78,1.78,0,0,1-.66-.49,1.13,1.13,0,0,1-.23-.72,1.32,1.32,0,0,1,.24-.77,1.62,1.62,0,0,1,.69-.56,2.23,2.23,0,0,1,1-.22,2.47,2.47,0,0,1,1.09.23,1.61,1.61,0,0,1,.69.59,1.52,1.52,0,0,1,.24.83h-.92a.86.86,0,0,0-.28-.62,1.08,1.08,0,0,0-.82-.29,1.29,1.29,0,0,0-.6.11.83.83,0,0,0-.34.29.76.76,0,0,0-.11.38.65.65,0,0,0,.1.34.87.87,0,0,0,.36.25,4.76,4.76,0,0,0,.76.23,5,5,0,0,1,1.07.35,1.52,1.52,0,0,1,.62.5,1.23,1.23,0,0,1,.21.73,1.39,1.39,0,0,1-.25.81,1.62,1.62,0,0,1-.72.55,2.54,2.54,0,0,1-1.08.2,2.51,2.51,0,0,1-1.18-.25,1.84,1.84,0,0,1-.73-.64,1.49,1.49,0,0,1-.25-.83H76a1,1,0,0,0,.22.59,1.11,1.11,0,0,0,.48.31,1.76,1.76,0,0,0,.55.09,1.67,1.67,0,0,0,.63-.1,1,1,0,0,0,.38-.27A.71.71,0,0,0,78.4,360.76Z"/><path class="cls-6" d="M83.76,359.6h-.91a2.43,2.43,0,0,0-1.19.24.79.79,0,0,0-.42.73.91.91,0,0,0,.26.65,1,1,0,0,0,.75.26,1.45,1.45,0,0,0,1.23-.61.91.91,0,0,0,.2-.5l.4.44a1.51,1.51,0,0,1-.19.45,2.22,2.22,0,0,1-.4.48,2.25,2.25,0,0,1-.6.37,1.92,1.92,0,0,1-.77.15,2.13,2.13,0,0,1-.94-.2,1.58,1.58,0,0,1-.63-.57,1.45,1.45,0,0,1-.22-.79,1.48,1.48,0,0,1,.64-1.3,3.07,3.07,0,0,1,1.74-.44h1Zm-.16-1.06a1,1,0,0,0-.28-.75,1.13,1.13,0,0,0-.83-.28,1.51,1.51,0,0,0-.59.11.92.92,0,0,0-.4.31.66.66,0,0,0-.14.42h-.92a1.26,1.26,0,0,1,.26-.74,1.89,1.89,0,0,1,.73-.59,2.69,2.69,0,0,1,2.13,0,1.56,1.56,0,0,1,.7.59,1.76,1.76,0,0,1,.25,1V361a3.64,3.64,0,0,0,0,.56,1.88,1.88,0,0,0,.14.52v.07h-1a1.63,1.63,0,0,1-.1-.41,2.93,2.93,0,0,1,0-.49Z"/><path class="cls-6" d="M86.92,362.16H86v-7.5h.92Z"/><path class="cls-6" d="M91.64,359.6h-.91a2.43,2.43,0,0,0-1.19.24.79.79,0,0,0-.42.73.91.91,0,0,0,.26.65,1,1,0,0,0,.75.26,1.57,1.57,0,0,0,.73-.17,1.54,1.54,0,0,0,.5-.44,1,1,0,0,0,.2-.5l.39.44a1.24,1.24,0,0,1-.18.45,2,2,0,0,1-.41.48,2,2,0,0,1-.59.37,1.94,1.94,0,0,1-.78.15,2.13,2.13,0,0,1-.94-.2,1.62,1.62,0,0,1-.62-.57,1.45,1.45,0,0,1-.22-.79,1.48,1.48,0,0,1,.64-1.3,3.06,3.06,0,0,1,1.73-.44h1Zm-.17-1.06a1,1,0,0,0-.28-.75,1.11,1.11,0,0,0-.83-.28,1.55,1.55,0,0,0-.59.11,1.05,1.05,0,0,0-.4.31.73.73,0,0,0-.14.42h-.91a1.19,1.19,0,0,1,.26-.74,1.81,1.81,0,0,1,.73-.59,2.39,2.39,0,0,1,1.11-.24,2.54,2.54,0,0,1,1,.2,1.53,1.53,0,0,1,.69.59,1.76,1.76,0,0,1,.26,1V361a3.6,3.6,0,0,0,0,.56,2.3,2.3,0,0,0,.14.52v.07h-.95a1.59,1.59,0,0,1-.11-.41,4.6,4.6,0,0,1,0-.49Z"/><path class="cls-6" d="M94.71,362.16H93.8v-5.28h.89l0,.83Zm1.65-4.47-.22,0h-.22a1.28,1.28,0,0,0-.7.17,1.13,1.13,0,0,0-.45.47,1.85,1.85,0,0,0-.19.69l-.26.14a4,4,0,0,1,.17-1.17,1.9,1.9,0,0,1,.53-.85,1.41,1.41,0,0,1,.94-.32l.22,0,.18,0Z"/><path class="cls-6" d="M99,361l.24.95-.66.33-1.94-5.39h1Zm1.17-4.11h1L99,363a3.9,3.9,0,0,1-.2.42,2.08,2.08,0,0,1-.3.43,1.41,1.41,0,0,1-.45.34,1.32,1.32,0,0,1-.62.13l-.18,0-.19,0-.14,0v-.73l.12,0h.12a1.23,1.23,0,0,0,.72-.19,1.42,1.42,0,0,0,.42-.68l.37-1Z"/><path class="cls-6" d="M104.17,359.47a3.17,3.17,0,0,1,.29-1.37,2.29,2.29,0,0,1,.83-1,2.24,2.24,0,0,1,1.28-.36,2.29,2.29,0,0,1,2.12,1.32,3.17,3.17,0,0,1,.29,1.37v.11a3.17,3.17,0,0,1-.29,1.37,2.29,2.29,0,0,1-.83,1,2.53,2.53,0,0,1-2.57,0,2.29,2.29,0,0,1-.83-1,3.17,3.17,0,0,1-.29-1.37Zm.91.11a2.78,2.78,0,0,0,.17,1,1.65,1.65,0,0,0,.49.71,1.28,1.28,0,0,0,.84.27,1.25,1.25,0,0,0,.82-.27,1.67,1.67,0,0,0,.5-.71,2.78,2.78,0,0,0,.16-1v-.11a2.78,2.78,0,0,0-.16-1,1.67,1.67,0,0,0-.5-.71,1.41,1.41,0,0,0-1.66,0,1.67,1.67,0,0,0-.5.71,3,3,0,0,0-.16,1Z"/><path class="cls-6" d="M112.59,357.57h-2.87v-.69h2.87Zm-2,4.59v-5.84a1.61,1.61,0,0,1,1.75-1.76l.31,0a1.7,1.7,0,0,1,.31.06l0,.73a1.6,1.6,0,0,0-.23,0h-.26a.87.87,0,0,0-.67.25,1.06,1.06,0,0,0-.24.74v5.84Z"/><path class="cls-6" d="M113.55,361.69a.56.56,0,0,1,.15-.39.53.53,0,0,1,.41-.16.58.58,0,0,1,.43.16.6.6,0,0,1,.14.39.56.56,0,0,1-.14.38.58.58,0,0,1-.43.15.53.53,0,0,1-.41-.15A.52.52,0,0,1,113.55,361.69Zm0-4.32a.56.56,0,0,1,.14-.38.54.54,0,0,1,.42-.16.55.55,0,0,1,.42.92.55.55,0,0,1-.42.15.57.57,0,0,1-.42-.15A.56.56,0,0,1,113.56,357.37Z"/><path class="cls-6" d="M118.26,359.12v-.76h3.28v.76Zm0,3v-.76h5v.76Zm1.77-2a2.67,2.67,0,0,1-.13.86,1.21,1.21,0,0,1-.42.6l-.84-.26a.4.4,0,0,0,.26-.25,1.31,1.31,0,0,0,.14-.46,2.9,2.9,0,0,0,0-.48l-.1-3.12a2.2,2.2,0,0,1,.28-1.15,1.89,1.89,0,0,1,.78-.73,2.39,2.39,0,0,1,1.11-.25,2,2,0,0,1,1.49.52,1.87,1.87,0,0,1,.53,1.38h-1a1.15,1.15,0,0,0-.16-.66,1,1,0,0,0-.42-.37,1.56,1.56,0,0,0-.57-.11,1.08,1.08,0,0,0-.81.35,1.46,1.46,0,0,0-.34,1Z"/><path class="cls-6" d="M125.54,358.37h.77a3.24,3.24,0,0,1,1.12.16,1.77,1.77,0,0,1,.7.42,1.5,1.5,0,0,1,.37.59,2.08,2.08,0,0,1,.1.64,2.13,2.13,0,0,1-.29,1.13,2,2,0,0,1-.81.71,2.66,2.66,0,0,1-1.15.24,2.73,2.73,0,0,1-.87-.13,2.24,2.24,0,0,1-.72-.38,1.85,1.85,0,0,1-.49-.62,1.93,1.93,0,0,1-.18-.85H125a1.29,1.29,0,0,0,.16.66,1.19,1.19,0,0,0,.46.43,1.5,1.5,0,0,0,.72.16,1.4,1.4,0,0,0,1-.33,1.3,1.3,0,0,0,.36-1,1.28,1.28,0,0,0-.19-.73A1.11,1.11,0,0,0,127,359a2.12,2.12,0,0,0-.8-.14h-.64Zm.64-.2A1.61,1.61,0,0,0,127,358a1.11,1.11,0,0,0,.47-.44,1.28,1.28,0,0,0,.15-.63,1.42,1.42,0,0,0-.14-.68.9.9,0,0,0-.41-.43,1.52,1.52,0,0,0-.68-.14,1.41,1.41,0,0,0-.67.15,1,1,0,0,0-.45.43,1.21,1.21,0,0,0-.16.65h-.92a1.76,1.76,0,0,1,.28-1,1.93,1.93,0,0,1,.76-.71,2.51,2.51,0,0,1,1.16-.26,2.6,2.6,0,0,1,1.12.22,1.73,1.73,0,0,1,.76.68,2.18,2.18,0,0,1,.26,1.1,1.54,1.54,0,0,1-.12.58,1.71,1.71,0,0,1-.39.57,1.89,1.89,0,0,1-.67.43,2.52,2.52,0,0,1-1,.17h-.77v-.54Z"/><path class="cls-6" d="M130.76,361.82a2.29,2.29,0,0,1-.22.94,2.31,2.31,0,0,1-.63.82l-.52-.35a2.82,2.82,0,0,0,.26-.44,2.45,2.45,0,0,0,.17-.45,2.76,2.76,0,0,0,.05-.51v-.73h.89Z"/><path class="cls-6" d="M132.22,358.6l.37-3.54h3.64v.82h-2.87l-.21,1.95a1.89,1.89,0,0,1,.49-.21,2.09,2.09,0,0,1,.69-.1,2.16,2.16,0,0,1,1.13.29,2,2,0,0,1,.73.83,2.86,2.86,0,0,1,.25,1.26,2.9,2.9,0,0,1-.24,1.21,1.91,1.91,0,0,1-.75.84,2.31,2.31,0,0,1-1.26.31,2.69,2.69,0,0,1-.81-.12,2,2,0,0,1-.68-.36,1.87,1.87,0,0,1-.49-.62,2.22,2.22,0,0,1-.24-.87h.86a1.54,1.54,0,0,0,.44.93,1.36,1.36,0,0,0,.92.31,1.3,1.3,0,0,0,.73-.2,1.2,1.2,0,0,0,.45-.56,2.06,2.06,0,0,0,.16-.86,1.92,1.92,0,0,0-.16-.81,1.31,1.31,0,0,0-1.26-.77,1.5,1.5,0,0,0-.68.12,2.54,2.54,0,0,0-.47.33Z"/><path class="cls-6" d="M142,355.56l-2.95,6.6h-1l2.93-6.37h-3.84v-.73H142Z"/><path class="cls-6" d="M147.71,362.16h-4.66v-.64l2.33-2.59a8.46,8.46,0,0,0,.67-.82,2.28,2.28,0,0,0,.33-.6,1.71,1.71,0,0,0,.09-.55,1.31,1.31,0,0,0-.32-.9,1.11,1.11,0,0,0-.91-.37,1.47,1.47,0,0,0-.79.19,1.11,1.11,0,0,0-.47.51,1.81,1.81,0,0,0-.15.76h-.92a2.24,2.24,0,0,1,.27-1.1,1.88,1.88,0,0,1,.78-.8,2.63,2.63,0,0,1,1.28-.29,2.25,2.25,0,0,1,1.58.52,1.79,1.79,0,0,1,.57,1.38,2.12,2.12,0,0,1-.18.84,4.82,4.82,0,0,1-.49.84,8.3,8.3,0,0,1-.67.82l-1.9,2.07h3.56Z"/><path class="cls-7" d="M271.73,356.8a3.06,3.06,0,0,1-1.63-.41,2.74,2.74,0,0,1-1.06-1.1,3.31,3.31,0,0,1-.36-1.55v-.24a3.77,3.77,0,0,1,.37-1.73,2.78,2.78,0,0,1,1-1.14,2.74,2.74,0,0,1,1.48-.4,2.77,2.77,0,0,1,1.52.39,2.44,2.44,0,0,1,.9,1.1,4.11,4.11,0,0,1,.3,1.62V354h-4.91v-1.05h3.47v-.11a2,2,0,0,0-.14-.7,1.15,1.15,0,0,0-.41-.52,1.25,1.25,0,0,0-.74-.2,1.2,1.2,0,0,0-.78.26,1.65,1.65,0,0,0-.48.74,3.34,3.34,0,0,0-.16,1.11v.24a2.26,2.26,0,0,0,.2,1,1.54,1.54,0,0,0,.58.68,1.57,1.57,0,0,0,.91.25,2,2,0,0,0,.9-.2,1.94,1.94,0,0,0,.68-.57l.77.76a2.9,2.9,0,0,1-.9.82A3,3,0,0,1,271.73,356.8Z"/><path class="cls-7" d="M275.1,353.46a4.43,4.43,0,0,1,.3-1.69,2.64,2.64,0,0,1,.86-1.14,2.18,2.18,0,0,1,1.33-.4,2,2,0,0,1,1.29.4,2.66,2.66,0,0,1,.81,1.1,5.89,5.89,0,0,1,.39,1.64v.34a5.44,5.44,0,0,1-.39,1.6,2.61,2.61,0,0,1-.81,1.09,2.06,2.06,0,0,1-1.3.4,2.12,2.12,0,0,1-1.32-.42,2.7,2.7,0,0,1-.86-1.14,4.35,4.35,0,0,1-.3-1.66Zm1.45.12a3.66,3.66,0,0,0,.14,1,1.59,1.59,0,0,0,.45.73,1.18,1.18,0,0,0,.81.27,1.33,1.33,0,0,0,.78-.21,1.26,1.26,0,0,0,.48-.56,2.57,2.57,0,0,0,.24-.8v-1a2.48,2.48,0,0,0-.15-.65,1.62,1.62,0,0,0-.28-.52,1.22,1.22,0,0,0-.44-.34,1.49,1.49,0,0,0-.62-.12,1.23,1.23,0,0,0-.82.27,1.66,1.66,0,0,0-.45.74,3.66,3.66,0,0,0-.14,1Zm2.66-5.9h1.45v9h-1.31l-.14-1.33Z"/><path class="cls-7" d="M282.13,348.69a.79.79,0,0,1,.22-.56.86.86,0,0,1,.61-.22.83.83,0,0,1,.6.22.75.75,0,0,1,.23.56.73.73,0,0,1-.23.54.79.79,0,0,1-.6.22.82.82,0,0,1-.61-.22A.76.76,0,0,1,282.13,348.69Zm1.55,8h-1.45v-6.34h1.45Z"/><path class="cls-7" d="M288.15,351.42h-3.6v-1.08h3.6ZM287,348.79v6.11a1,1,0,0,0,.08.44.42.42,0,0,0,.24.2,1,1,0,0,0,.35,0H288l.22,0v1.12a3.52,3.52,0,0,1-.41.1,2.83,2.83,0,0,1-.54,0,2.18,2.18,0,0,1-.87-.17,1.27,1.27,0,0,1-.59-.58,2.22,2.22,0,0,1-.21-1.05v-6.21Z"/><line class="cls-5" x1="19.33" y1="384.27" x2="289.33" y2="384.27"/><rect class="cls-8" x="29.17" y="126.77" width="66.81" height="71.19" rx="6"/><rect class="cls-9" x="29.17" y="126.77" width="66.81" height="71.19" rx="6"/><path class="cls-10" d="M40.87,146.14v-2h7v2Zm0,5.72v-2H51v2Zm4.1-4.08a3.77,3.77,0,0,1-.34,1.65,2.49,2.49,0,0,1-1.15,1.14l-1.79-.7a.74.74,0,0,0,.49-.41,2.64,2.64,0,0,0,.22-.75,6.09,6.09,0,0,0,.06-.82l-.2-6a4.51,4.51,0,0,1,.55-2.27,3.82,3.82,0,0,1,1.54-1.44,5,5,0,0,1,2.25-.5,4.26,4.26,0,0,1,3.12,1.08,3.8,3.8,0,0,1,1.1,2.83H48.44a2,2,0,0,0-.26-1.11,1.51,1.51,0,0,0-.69-.61,2.32,2.32,0,0,0-.92-.18,1.67,1.67,0,0,0-1.28.55,2.4,2.4,0,0,0-.51,1.65Z"/><path class="cls-10" d="M53.18,144.91l.77-7.06h7.59v2H55.93l-.37,3.34a4.69,4.69,0,0,1,.89-.37,4,4,0,0,1,1.3-.19,4.3,4.3,0,0,1,2.27.57,3.69,3.69,0,0,1,1.45,1.62,5.72,5.72,0,0,1,.51,2.52,5.49,5.49,0,0,1-.5,2.34,4,4,0,0,1-1.52,1.7,4.87,4.87,0,0,1-2.59.64,5.53,5.53,0,0,1-1.69-.26,4.51,4.51,0,0,1-1.45-.78,3.67,3.67,0,0,1-1-1.25,4.24,4.24,0,0,1-.45-1.72H55.1a2.45,2.45,0,0,0,.71,1.55,2.22,2.22,0,0,0,1.55.54,2,2,0,0,0,1.25-.37,2.14,2.14,0,0,0,.74-1,4.2,4.2,0,0,0,.24-1.47,3.48,3.48,0,0,0-.27-1.41,2.16,2.16,0,0,0-.83-1,2.41,2.41,0,0,0-1.36-.35,2.63,2.63,0,0,0-1.25.23,4.33,4.33,0,0,0-.79.58Z"/><path class="cls-10" d="M73,146a9.06,9.06,0,0,1-.57,3.51,4,4,0,0,1-1.59,1.94,5.05,5.05,0,0,1-4.85,0,3.9,3.9,0,0,1-1.62-1.94,8.86,8.86,0,0,1-.58-3.51v-2.32a8.94,8.94,0,0,1,.57-3.5A3.93,3.93,0,0,1,66,138.25a5.2,5.2,0,0,1,4.85,0,3.93,3.93,0,0,1,1.61,1.92,8.94,8.94,0,0,1,.57,3.5Zm-2.39-2.68a7.61,7.61,0,0,0-.25-2.19,2.2,2.2,0,0,0-.75-1.18,2,2,0,0,0-1.22-.36,2,2,0,0,0-1.2.36,2.2,2.2,0,0,0-.75,1.18,7.23,7.23,0,0,0-.26,2.19v3a7.42,7.42,0,0,0,.26,2.21,2.34,2.34,0,0,0,.77,1.22,2.1,2.1,0,0,0,2.41,0,2.26,2.26,0,0,0,.74-1.22,7.81,7.81,0,0,0,.25-2.21Z"/><path class="cls-10" d="M84.21,146a9.06,9.06,0,0,1-.57,3.51,3.92,3.92,0,0,1-1.6,1.94,5.05,5.05,0,0,1-4.85,0,4,4,0,0,1-1.62-1.94A9,9,0,0,1,75,146v-2.32a8.74,8.74,0,0,1,.58-3.5,3.93,3.93,0,0,1,1.61-1.92,5.2,5.2,0,0,1,4.85,0,3.91,3.91,0,0,1,1.6,1.92,8.92,8.92,0,0,1,.58,3.5Zm-2.39-2.68a7.57,7.57,0,0,0-.26-2.19,2.2,2.2,0,0,0-.75-1.18,2,2,0,0,0-1.22-.36,2,2,0,0,0-1.19.36,2.21,2.21,0,0,0-.76,1.18,7.57,7.57,0,0,0-.26,2.19v3a7.38,7.38,0,0,0,.27,2.21,2.33,2.33,0,0,0,.76,1.22,2.12,2.12,0,0,0,2.42,0,2.38,2.38,0,0,0,.74-1.22,7.81,7.81,0,0,0,.25-2.21Z"/><path class="cls-10" d="M51.55,185.82h-2.4v-11.2l-3.42,1.15v-2l5.52-2h.3Z"/><path class="cls-10" d="M66.05,182.69H55.92l-.08-1.47,6-9.42h1.91l-2,3.57-3.41,5.4h7.73Zm-1.74,3.13H61.92v-14h2.39Z"/><path class="cls-10" d="M67.49,174.49a3.08,3.08,0,0,1,.35-1.45,2.7,2.7,0,0,1,1-1,3.11,3.11,0,0,1,1.6-.39,3.15,3.15,0,0,1,1.63.39,2.68,2.68,0,0,1,1,1,3.08,3.08,0,0,1,.35,1.45v.75a3,3,0,0,1-.35,1.43,2.59,2.59,0,0,1-1,1.05,3.13,3.13,0,0,1-1.62.39,3.19,3.19,0,0,1-1.62-.39,2.71,2.71,0,0,1-1-1.05,3,3,0,0,1-.35-1.43Zm1.66.75a1.65,1.65,0,0,0,.14.7,1.18,1.18,0,0,0,.44.54,1.28,1.28,0,0,0,.75.21,1.26,1.26,0,0,0,.75-.21,1.14,1.14,0,0,0,.42-.54,1.65,1.65,0,0,0,.14-.7v-.75a1.78,1.78,0,0,0-.14-.72,1.29,1.29,0,0,0-.44-.54,1.26,1.26,0,0,0-.75-.21,1.21,1.21,0,0,0-.73.21,1.29,1.29,0,0,0-.44.54,1.78,1.78,0,0,0-.14.72ZM71,184.76l-1.22-.7,6.85-10.95,1.21.69Zm3.27-2.38a3,3,0,0,1,.35-1.44,2.57,2.57,0,0,1,1-1.05,3,3,0,0,1,1.6-.4,3,3,0,0,1,1.63.4,2.61,2.61,0,0,1,1,1.05,3,3,0,0,1,.35,1.44v.75a3.12,3.12,0,0,1-.34,1.44,2.61,2.61,0,0,1-1,1.05,3,3,0,0,1-1.62.4,3.09,3.09,0,0,1-1.62-.4,2.57,2.57,0,0,1-1-1.05,3,3,0,0,1-.35-1.44Zm1.64.75a1.71,1.71,0,0,0,.16.71,1.24,1.24,0,0,0,.47.54,1.22,1.22,0,0,0,.72.2,1.29,1.29,0,0,0,.78-.2,1.14,1.14,0,0,0,.41-.53,1.88,1.88,0,0,0,.13-.72v-.75a1.64,1.64,0,0,0-.33-1,1.17,1.17,0,0,0-1-.44,1.14,1.14,0,0,0-1,.44,1.65,1.65,0,0,0-.34,1Z"/><line class="cls-11" x1="35.47" y1="162.62" x2="89.68" y2="162.62"/><rect class="cls-12" x="109.13" y="126.77" width="66.81" height="71.19" rx="6"/><path class="cls-10" d="M120.82,146.14v-2h7v2Zm0,5.72v-2H131v2Zm4.1-4.08a3.64,3.64,0,0,1-.33,1.65,2.54,2.54,0,0,1-1.15,1.14l-1.79-.7a.75.75,0,0,0,.48-.41,2.36,2.36,0,0,0,.23-.75,6.09,6.09,0,0,0,.06-.82l-.2-6a4.41,4.41,0,0,1,.55-2.27,3.76,3.76,0,0,1,1.54-1.44,4.91,4.91,0,0,1,2.25-.5,4.26,4.26,0,0,1,3.12,1.08,3.8,3.8,0,0,1,1.1,2.83H128.4a2.07,2.07,0,0,0-.26-1.11,1.51,1.51,0,0,0-.69-.61,2.34,2.34,0,0,0-.93-.18,1.66,1.66,0,0,0-1.27.55,2.35,2.35,0,0,0-.52,1.65Z"/><path class="cls-10" d="M133.14,144.91l.77-7.06h7.58v2h-5.6l-.38,3.34a5,5,0,0,1,.89-.37,4.1,4.1,0,0,1,1.31-.19,4.32,4.32,0,0,1,2.27.57,3.75,3.75,0,0,1,1.45,1.62,5.72,5.72,0,0,1,.5,2.52,5.34,5.34,0,0,1-.5,2.34,3.9,3.9,0,0,1-1.52,1.7,4.85,4.85,0,0,1-2.59.64,5.58,5.58,0,0,1-1.69-.26,4.57,4.57,0,0,1-1.44-.78,3.56,3.56,0,0,1-1-1.25,4.24,4.24,0,0,1-.45-1.72h2.34a2.4,2.4,0,0,0,.71,1.55,2.19,2.19,0,0,0,1.54.54,2.07,2.07,0,0,0,1.26-.37,2.14,2.14,0,0,0,.74-1,4.2,4.2,0,0,0,.24-1.47,3.32,3.32,0,0,0-.28-1.41,2.08,2.08,0,0,0-.82-1,2.45,2.45,0,0,0-1.37-.35,2.58,2.58,0,0,0-1.24.23,4,4,0,0,0-.79.58Z"/><path class="cls-10" d="M146.52,144.33h1.76a6.78,6.78,0,0,1,2.1.29,3.86,3.86,0,0,1,1.42.78,3.06,3.06,0,0,1,.81,1.16,3.72,3.72,0,0,1,.25,1.38,3.92,3.92,0,0,1-.62,2.23,4,4,0,0,1-1.7,1.4,5.77,5.77,0,0,1-2.43.49,6.31,6.31,0,0,1-1.74-.25,4.59,4.59,0,0,1-1.48-.75,3.53,3.53,0,0,1-1-1.24,3.72,3.72,0,0,1-.38-1.74h2.38a2,2,0,0,0,.29,1.06,1.92,1.92,0,0,0,.81.73,2.52,2.52,0,0,0,1.19.27,2.37,2.37,0,0,0,1.7-.58,2.1,2.1,0,0,0,.62-1.62,2.44,2.44,0,0,0-.31-1.31,1.81,1.81,0,0,0-.89-.74,3.53,3.53,0,0,0-1.37-.24h-1.38Zm1.38-.56a2.81,2.81,0,0,0,1.32-.27,1.77,1.77,0,0,0,.78-.75,2.22,2.22,0,0,0,.26-1.11,2.38,2.38,0,0,0-.23-1.1,1.62,1.62,0,0,0-.7-.72,2.5,2.5,0,0,0-1.19-.25,2.44,2.44,0,0,0-1.08.24,1.77,1.77,0,0,0-1.05,1.68h-2.39a3.48,3.48,0,0,1,.59-2,3.86,3.86,0,0,1,1.6-1.35,5.18,5.18,0,0,1,2.3-.5,5.83,5.83,0,0,1,2.37.45,3.51,3.51,0,0,1,1.6,1.34,3.94,3.94,0,0,1,.57,2.19,2.9,2.9,0,0,1-.28,1.23,3.62,3.62,0,0,1-.83,1.12,4.15,4.15,0,0,1-1.36.82,5.53,5.53,0,0,1-1.9.3h-1.76v-1.33Z"/><path class="cls-10" d="M162.31,137.75v2h-.16a5.44,5.44,0,0,0-2.13.38,3.82,3.82,0,0,0-1.46,1,4.15,4.15,0,0,0-.85,1.54,6.44,6.44,0,0,0-.28,1.89v2.23a4.74,4.74,0,0,0,.32,1.84,2.56,2.56,0,0,0,.84,1.11,2,2,0,0,0,1.18.38,2,2,0,0,0,1.2-.36,2.3,2.3,0,0,0,.77-1,3.68,3.68,0,0,0,.27-1.45,3.82,3.82,0,0,0-.26-1.42,2.5,2.5,0,0,0-.76-1,2,2,0,0,0-1.24-.38,2.45,2.45,0,0,0-1.23.32,2.51,2.51,0,0,0-.88.83,2.33,2.33,0,0,0-.37,1.09l-.89-.34a4.76,4.76,0,0,1,.39-1.57,3.91,3.91,0,0,1,.86-1.21,3.77,3.77,0,0,1,1.22-.77,4.17,4.17,0,0,1,1.53-.28,3.57,3.57,0,0,1,2.24.67,4.08,4.08,0,0,1,1.32,1.73,6.05,6.05,0,0,1,.44,2.31,5.36,5.36,0,0,1-.55,2.43,4.22,4.22,0,0,1-1.57,1.73,4.59,4.59,0,0,1-2.46.64,4.5,4.5,0,0,1-2-.44,4.35,4.35,0,0,1-1.5-1.19,5.53,5.53,0,0,1-.93-1.75,7,7,0,0,1-.31-2.12v-1a11.06,11.06,0,0,1,.4-3,7.3,7.3,0,0,1,1.25-2.49,5.76,5.76,0,0,1,2.16-1.69,7.42,7.42,0,0,1,3.16-.62Z"/><path class="cls-10" d="M131.5,185.82h-2.39v-11.2l-3.42,1.15v-2l5.52-2h.29Z"/><path class="cls-10" d="M136.9,178.87l.77-7.07h7.58v2h-5.6l-.38,3.34a5.86,5.86,0,0,1,.89-.37,4.4,4.4,0,0,1,1.31-.19,4.32,4.32,0,0,1,2.27.57,3.75,3.75,0,0,1,1.45,1.62,5.75,5.75,0,0,1,.5,2.52,5.31,5.31,0,0,1-.5,2.34,3.9,3.9,0,0,1-1.52,1.7,4.76,4.76,0,0,1-2.59.64,5.58,5.58,0,0,1-1.69-.26A4.55,4.55,0,0,1,138,185a3.83,3.83,0,0,1-1-1.26,4.36,4.36,0,0,1-.44-1.72h2.34a2.38,2.38,0,0,0,.71,1.55,2.19,2.19,0,0,0,1.54.54,2.13,2.13,0,0,0,1.26-.36,2.19,2.19,0,0,0,.74-1,4.21,4.21,0,0,0,.24-1.48,3.32,3.32,0,0,0-.28-1.41,2.13,2.13,0,0,0-.82-1,2.53,2.53,0,0,0-1.37-.35,2.71,2.71,0,0,0-1.24.23,4.06,4.06,0,0,0-.79.59Z"/><path class="cls-10" d="M147.45,174.49a3,3,0,0,1,.35-1.45,2.68,2.68,0,0,1,1-1,3.56,3.56,0,0,1,3.24,0,2.68,2.68,0,0,1,1,1,3.08,3.08,0,0,1,.35,1.45v.75a3,3,0,0,1-.35,1.43,2.61,2.61,0,0,1-1,1.05,3.1,3.1,0,0,1-1.61.39,3.16,3.16,0,0,1-1.62-.39,2.57,2.57,0,0,1-1-1.05,2.91,2.91,0,0,1-.35-1.43Zm1.65.75a1.66,1.66,0,0,0,.15.7,1.12,1.12,0,0,0,.44.54,1.28,1.28,0,0,0,.75.21,1.22,1.22,0,0,0,.74-.21,1.1,1.1,0,0,0,.43-.54,1.82,1.82,0,0,0,.14-.7v-.75a2,2,0,0,0-.14-.72,1.37,1.37,0,0,0-.44-.54,1.28,1.28,0,0,0-.75-.21,1.22,1.22,0,0,0-1.17.75,1.79,1.79,0,0,0-.15.72Zm1.82,9.52-1.21-.7,6.84-10.95,1.22.69Zm3.28-2.38a2.9,2.9,0,0,1,.35-1.44,2.61,2.61,0,0,1,1-1.05,3.48,3.48,0,0,1,3.24,0,2.61,2.61,0,0,1,1,1.05,3,3,0,0,1,.34,1.44v.75a3,3,0,0,1-.34,1.44,2.59,2.59,0,0,1-1,1.05,3.48,3.48,0,0,1-3.24,0,2.57,2.57,0,0,1-1-1.05,2.9,2.9,0,0,1-.35-1.44Zm1.64.75a1.57,1.57,0,0,0,.16.71,1.24,1.24,0,0,0,1.19.74,1.24,1.24,0,0,0,.77-.2,1.16,1.16,0,0,0,.42-.53,2.09,2.09,0,0,0,.13-.72v-.75a1.64,1.64,0,0,0-.33-1,1.37,1.37,0,0,0-2,0,1.64,1.64,0,0,0-.33,1Z"/><line class="cls-13" x1="115.42" y1="162.62" x2="169.64" y2="162.62"/><rect class="cls-12" x="189.08" y="126.77" width="66.81" height="71.19" rx="6"/><path class="cls-10" d="M200.78,146.14v-2h7v2Zm0,5.72v-2h10.11v2Zm4.1-4.08a3.64,3.64,0,0,1-.34,1.65,2.51,2.51,0,0,1-1.14,1.14l-1.79-.7a.75.75,0,0,0,.48-.41,2.36,2.36,0,0,0,.22-.75,4.86,4.86,0,0,0,.07-.82l-.2-6a4.41,4.41,0,0,1,.55-2.27,3.79,3.79,0,0,1,1.53-1.44,5,5,0,0,1,2.26-.5,4.29,4.29,0,0,1,3.12,1.08,3.79,3.79,0,0,1,1.09,2.83h-2.4a2.07,2.07,0,0,0-.26-1.11,1.62,1.62,0,0,0-.69-.61,2.41,2.41,0,0,0-.93-.18,1.68,1.68,0,0,0-1.28.55,2.4,2.4,0,0,0-.51,1.65Z"/><path class="cls-10" d="M213.09,144.91l.77-7.06h7.59v2h-5.6l-.38,3.34a4.69,4.69,0,0,1,.89-.37,4.06,4.06,0,0,1,1.31-.19,4.32,4.32,0,0,1,2.27.57,3.75,3.75,0,0,1,1.45,1.62,5.87,5.87,0,0,1,.5,2.52,5.49,5.49,0,0,1-.5,2.34,3.9,3.9,0,0,1-1.52,1.7,4.85,4.85,0,0,1-2.59.64,5.58,5.58,0,0,1-1.69-.26,4.36,4.36,0,0,1-1.44-.78,3.7,3.7,0,0,1-1-1.25,4.4,4.4,0,0,1-.44-1.72H215a2.4,2.4,0,0,0,.71,1.55,2.19,2.19,0,0,0,1.54.54,2,2,0,0,0,1.25-.37,2.08,2.08,0,0,0,.74-1,4.2,4.2,0,0,0,.24-1.47,3.48,3.48,0,0,0-.27-1.41,2.14,2.14,0,0,0-.82-1,2.47,2.47,0,0,0-1.37-.35,2.56,2.56,0,0,0-1.24.23,4,4,0,0,0-.79.58Z"/><path class="cls-10" d="M233.08,139.17l-5.58,12.69H225l5.57-12.1h-7.21v-1.91h9.73Z"/><path class="cls-10" d="M244.39,151.86H235v-1.64l4.56-5a15.54,15.54,0,0,0,1.18-1.44,4.84,4.84,0,0,0,.6-1.09,2.69,2.69,0,0,0,.17-.95,2.33,2.33,0,0,0-.53-1.59,1.93,1.93,0,0,0-1.53-.62,2.38,2.38,0,0,0-1.29.33,2.12,2.12,0,0,0-.79.91,3.29,3.29,0,0,0-.26,1.33h-2.38a4.63,4.63,0,0,1,.55-2.25,4.19,4.19,0,0,1,1.63-1.63,5.17,5.17,0,0,1,2.57-.61,4.73,4.73,0,0,1,3.28,1,3.64,3.64,0,0,1,1.15,2.83,4.22,4.22,0,0,1-.38,1.75,8.24,8.24,0,0,1-1,1.7,20.86,20.86,0,0,1-1.51,1.75L238,150h6.43Z"/><path class="cls-10" d="M211.46,185.82h-2.4v-11.2l-3.41,1.15v-2l5.51-2h.3Z"/><path class="cls-10" d="M223.6,171.7v2h-.16a5.54,5.54,0,0,0-2.14.37,3.92,3.92,0,0,0-1.46,1,4.36,4.36,0,0,0-.85,1.54,6.33,6.33,0,0,0-.27,1.88v2.23a4.72,4.72,0,0,0,.31,1.84,2.48,2.48,0,0,0,.85,1.12,2,2,0,0,0,1.18.37,2,2,0,0,0,1.19-.36,2.26,2.26,0,0,0,.77-1,3.73,3.73,0,0,0,.27-1.46,3.63,3.63,0,0,0-.26-1.42,2.31,2.31,0,0,0-.76-1,1.93,1.93,0,0,0-1.23-.39,2.46,2.46,0,0,0-1.24.32,2.63,2.63,0,0,0-.88.84,2.17,2.17,0,0,0-.36,1.09l-.9-.35a4.83,4.83,0,0,1,.4-1.57,3.89,3.89,0,0,1,.85-1.2,3.68,3.68,0,0,1,1.23-.78,4.17,4.17,0,0,1,1.53-.27,3.6,3.6,0,0,1,2.23.66,4,4,0,0,1,1.32,1.73,6.13,6.13,0,0,1,.44,2.31,5.43,5.43,0,0,1-.54,2.44,4.34,4.34,0,0,1-1.57,1.72,4.55,4.55,0,0,1-2.46.64,4.64,4.64,0,0,1-2-.43,4.47,4.47,0,0,1-1.5-1.19,5.3,5.3,0,0,1-.93-1.76,7,7,0,0,1-.32-2.12v-1a10.93,10.93,0,0,1,.41-3A7.24,7.24,0,0,1,218,174a5.84,5.84,0,0,1,2.16-1.69,7.45,7.45,0,0,1,3.16-.62Z"/><path class="cls-10" d="M227.4,174.49a3,3,0,0,1,.36-1.45,2.68,2.68,0,0,1,1-1,3.12,3.12,0,0,1,1.61-.39A3.2,3.2,0,0,1,232,172a2.68,2.68,0,0,1,1,1,3.07,3.07,0,0,1,.34,1.45v.75a3,3,0,0,1-.34,1.43,2.61,2.61,0,0,1-1,1.05,3.54,3.54,0,0,1-3.23,0,2.57,2.57,0,0,1-1-1.05,2.92,2.92,0,0,1-.36-1.43Zm1.66.75a1.82,1.82,0,0,0,.14.7,1.2,1.2,0,0,0,.45.54,1.28,1.28,0,0,0,.75.21,1.19,1.19,0,0,0,1.17-.75,1.82,1.82,0,0,0,.14-.7v-.75a1.79,1.79,0,0,0-.15-.72,1.19,1.19,0,0,0-1.18-.75,1.24,1.24,0,0,0-.74.21,1.37,1.37,0,0,0-.44.54,2,2,0,0,0-.14.72Zm1.82,9.52-1.21-.7,6.84-10.95,1.21.69Zm3.27-2.38a3,3,0,0,1,.35-1.44,2.71,2.71,0,0,1,1-1.05,3.48,3.48,0,0,1,3.24,0,2.59,2.59,0,0,1,1,1.05,2.9,2.9,0,0,1,.35,1.44v.75a3,3,0,0,1-.34,1.44,2.59,2.59,0,0,1-1,1.05,3,3,0,0,1-1.62.4,3.1,3.1,0,0,1-1.63-.4,2.71,2.71,0,0,1-1-1.05,3,3,0,0,1-.35-1.44Zm1.65.75a1.57,1.57,0,0,0,.16.71,1.22,1.22,0,0,0,.46.54,1.23,1.23,0,0,0,.73.2,1.28,1.28,0,0,0,.77-.2,1.08,1.08,0,0,0,.41-.53,1.88,1.88,0,0,0,.13-.72v-.75a1.64,1.64,0,0,0-.33-1,1.36,1.36,0,0,0-2,0,1.64,1.64,0,0,0-.33,1Z"/><line class="cls-13" x1="195.38" y1="162.62" x2="249.6" y2="162.62"/><rect class="cls-12" x="269.04" y="126.77" width="66.81" height="71.19" rx="6"/><path class="cls-10" d="M280.74,146.14v-2h7v2Zm0,5.72v-2h10.11v2Zm4.1-4.08a3.77,3.77,0,0,1-.34,1.65,2.49,2.49,0,0,1-1.15,1.14l-1.79-.7a.74.74,0,0,0,.49-.41,2.64,2.64,0,0,0,.22-.75,6.09,6.09,0,0,0,.06-.82l-.2-6a4.42,4.42,0,0,1,.56-2.27,3.73,3.73,0,0,1,1.53-1.44,5,5,0,0,1,2.25-.5,4.26,4.26,0,0,1,3.12,1.08,3.8,3.8,0,0,1,1.1,2.83h-2.41a2,2,0,0,0-.26-1.11,1.54,1.54,0,0,0-.68-.61,2.41,2.41,0,0,0-.93-.18,1.67,1.67,0,0,0-1.28.55,2.4,2.4,0,0,0-.51,1.65Z"/><path class="cls-10" d="M299.8,137.75v2h-.17a5.51,5.51,0,0,0-2.13.38,3.9,3.9,0,0,0-1.46,1,4.45,4.45,0,0,0-.85,1.54,6.44,6.44,0,0,0-.27,1.89v2.23a4.75,4.75,0,0,0,.31,1.84,2.5,2.5,0,0,0,.85,1.11,1.93,1.93,0,0,0,1.18.38,2,2,0,0,0,1.19-.36,2.3,2.3,0,0,0,.77-1,3.68,3.68,0,0,0,.27-1.45,3.82,3.82,0,0,0-.26-1.42,2.42,2.42,0,0,0-.76-1,2,2,0,0,0-1.23-.38,2.46,2.46,0,0,0-1.24.32,2.6,2.6,0,0,0-.88.83,2.33,2.33,0,0,0-.37,1.09l-.89-.34a4.53,4.53,0,0,1,.4-1.57,3.89,3.89,0,0,1,.85-1.21,3.77,3.77,0,0,1,1.22-.77,4.17,4.17,0,0,1,1.53-.28,3.57,3.57,0,0,1,2.24.67,4,4,0,0,1,1.32,1.73,6.05,6.05,0,0,1,.44,2.31,5.24,5.24,0,0,1-.55,2.43,4.27,4.27,0,0,1-1.56,1.73,4.64,4.64,0,0,1-2.46.64,4.54,4.54,0,0,1-2-.44,4.23,4.23,0,0,1-1.49-1.19,5.15,5.15,0,0,1-.93-1.75,7,7,0,0,1-.32-2.12v-1a11.45,11.45,0,0,1,.4-3,7.3,7.3,0,0,1,1.25-2.49,5.76,5.76,0,0,1,2.16-1.69,7.42,7.42,0,0,1,3.16-.62Z"/><path class="cls-10" d="M312.86,146a9.06,9.06,0,0,1-.57,3.51,3.9,3.9,0,0,1-1.59,1.94,5.05,5.05,0,0,1-4.85,0,3.9,3.9,0,0,1-1.62-1.94,8.86,8.86,0,0,1-.58-3.51v-2.32a8.94,8.94,0,0,1,.57-3.5,3.93,3.93,0,0,1,1.61-1.92,5.2,5.2,0,0,1,4.85,0,3.93,3.93,0,0,1,1.61,1.92,8.94,8.94,0,0,1,.57,3.5Zm-2.39-2.68a7.61,7.61,0,0,0-.25-2.19,2.2,2.2,0,0,0-.75-1.18,2,2,0,0,0-1.22-.36,2,2,0,0,0-1.2.36,2.2,2.2,0,0,0-.75,1.18,7.23,7.23,0,0,0-.26,2.19v3a7.77,7.77,0,0,0,.26,2.21,2.34,2.34,0,0,0,.77,1.22,2.1,2.1,0,0,0,2.41,0,2.26,2.26,0,0,0,.74-1.22,7.81,7.81,0,0,0,.25-2.21Z"/><path class="cls-10" d="M291.42,185.82H289v-11.2l-3.42,1.15v-2l5.52-2h.3Z"/><path class="cls-10" d="M305.58,173.13,300,185.82h-2.52l5.57-12.1h-7.21V171.8h9.73Z"/><path class="cls-10" d="M307.36,174.49a3.08,3.08,0,0,1,.35-1.45,2.78,2.78,0,0,1,1-1,3.54,3.54,0,0,1,3.23,0,2.61,2.61,0,0,1,1,1,3,3,0,0,1,.35,1.45v.75a2.91,2.91,0,0,1-.35,1.43,2.59,2.59,0,0,1-1,1.05,3.12,3.12,0,0,1-1.61.39,3.2,3.2,0,0,1-1.63-.39,2.71,2.71,0,0,1-1-1.05,3,3,0,0,1-.35-1.43Zm1.66.75a1.82,1.82,0,0,0,.14.7,1.24,1.24,0,0,0,.44.54,1.29,1.29,0,0,0,.76.21,1.24,1.24,0,0,0,.74-.21,1.14,1.14,0,0,0,.42-.54,1.65,1.65,0,0,0,.14-.7v-.75a1.78,1.78,0,0,0-.14-.72,1.29,1.29,0,0,0-.44-.54,1.41,1.41,0,0,0-1.48,0,1.29,1.29,0,0,0-.44.54,2,2,0,0,0-.14.72Zm1.82,9.52-1.22-.7,6.85-10.95,1.21.69Zm3.27-2.38a3,3,0,0,1,.35-1.44,2.64,2.64,0,0,1,1-1.05,3,3,0,0,1,1.6-.4,3.09,3.09,0,0,1,1.64.4,2.59,2.59,0,0,1,1,1.05,3,3,0,0,1,.35,1.44v.75a3.12,3.12,0,0,1-.34,1.44,2.59,2.59,0,0,1-1,1.05,3.05,3.05,0,0,1-1.63.4,3.09,3.09,0,0,1-1.62-.4,2.71,2.71,0,0,1-1-1.05,3,3,0,0,1-.35-1.44Zm1.65.75a1.57,1.57,0,0,0,.16.71,1.16,1.16,0,0,0,.46.54,1.22,1.22,0,0,0,.72.2,1.29,1.29,0,0,0,.78-.2,1.08,1.08,0,0,0,.41-.53,1.88,1.88,0,0,0,.13-.72v-.75a1.64,1.64,0,0,0-.33-1,1.17,1.17,0,0,0-1-.44,1.14,1.14,0,0,0-1,.44,1.64,1.64,0,0,0-.33,1Z"/><line class="cls-13" x1="275.34" y1="162.62" x2="329.56" y2="162.62"/></svg>