<svg id="Layer_1" data-name="Layer 1" xmlns="http://www.w3.org/2000/svg" xmlns:xlink="http://www.w3.org/1999/xlink" viewBox="0 0 540 459"><defs><style>.cls-1,.cls-5,.cls-7{fill:none;}.cls-2{fill:#f6f8fc;}.cls-3{clip-path:url(#clip-path);}.cls-4{fill:url(#linear-gradient);}.cls-5{stroke:#30d2bc;stroke-width:5px;}.cls-5,.cls-7{stroke-miterlimit:10;}.cls-6{fill:#fff;}.cls-7{stroke:#1d67e1;stroke-width:4px;}.cls-8{fill:#616774;}.cls-9{fill:#1d212a;}.cls-10{fill:#a5aab5;}</style><clipPath id="clip-path"><path class="cls-1" d="M972.39,76.42a37.45,37.45,0,0,1-14.3,18.68c-1.21.8-11.72,7.53-24.62,6-6.46-.79-8.63-3.06-15-2.26-6.1.76-6.27,3.14-12.72,4.47-9.9,2-12.84-2.86-18.7,0-6.33,3.06-4.9,9.73-11.24,12.7-4.12,1.93-7.07.2-15.71-1.52-4.28-.85-17-3.38-29.17-1.53-9.25,1.41-7.3,3.71-21.7,7.46-13.46,3.5-15,1.46-23.94,5.2-9.11,3.83-9.72,6.92-17.22,8.21s-9.12-1.39-16.45,0c-8,1.49-8.53,5.12-16.47,8.21-12.86,5-16.79-2.41-26.93,2.21-10.46,4.77-9.89,14.31-20.22,16.43-5.74,1.19-6.77-1.59-12.71,0-8.45,2.24-8.26,8.34-16.47,11.2-7.62,2.65-9.78-1.9-18,.73-7.47,2.4-6.18,6.37-15,10.45-5.42,2.52-10.6,3.17-20.95,4.46-9.05,1.14-9,.32-11.22,1.49-8.32,4.46-5.5,14.77-13.49,18.68-4.68,2.3-8.11,0-12.72,3.73a18,18,0,0,0-4.49,6c-3.55,6.65-2.58,11.45-4.51,12-2.18.58-5.43-5.05-6-6-6.16-10.67-2.57-18.11-7.46-21.7-3.66-2.7-9.17-1.07-12.71,0-7,2.07-8.59,5.91-15,9.71-6.64,3.94-8,1.6-20.2,5.21-13.06,3.85-12.46,6.8-26.94,11.19-8.65,2.61-13,3.92-18,4.46-7.37.8-12.34.08-15.71,3.72-2.77,3-1.16,5.34-3.75,7.48-4.29,3.53-9.85-2-18,.73-4,1.33-3,2.8-9.73,6.72a62.12,62.12,0,0,1-15,6c-6.37,1.86-7.23,1.41-13.46,3-6.71,1.68-9.57,3.18-18.71,6.71-10.73,4.15-16.1,6.22-21,7.45-20.5,5.21-24.93-3-37.4,3.7-3,1.59-4.3,2.89-18,11.2-5.06,3.07-6.27,3.74-8.23,4.48-6.4,2.4-8.68,1-18,3-6.17,1.32-5.64,2-11.22,3-5.8,1-7.67.39-12.72,1.48-3.38.73-3.43,1.17-10.48,3.72-7.77,2.82-12.82,4.65-19.45,6-6.19,1.24-7.14.71-10.48,2.24-5.27,2.42-5.47,4.93-9.73,6.72-6.12,2.56-8.13-1.61-15,0-8.37,1.95-8.16,8.86-17.22,10.45-.26.05,0,0-9.72.74-7.17.55-7.54.59-8.23.74-6.46,1.33-6.33,3.88-12,5.22-2.47.58-2.56,0-13.47,0-7.23,0-7.66,0-8.23,0-10.82.14-20.22,4.32-22.44,5.21-7.48,3-27.28,5.88-82.41,5.14l-.18,148.55,979.28,1.18Z"/></clipPath><linearGradient id="linear-gradient" x1="382.43" y1="600.02" x2="382.43" y2="-14.12" gradientTransform="translate(98.4 27.66)" gradientUnits="userSpaceOnUse"><stop offset="0" stop-color="#30d2bc" stop-opacity="0.2"/><stop offset="1" stop-color="#30d2bc" stop-opacity="0.8"/></linearGradient></defs><rect class="cls-2" width="965" height="459"/><g class="cls-3"><rect class="cls-4" x="-143.75" y="-20.3" width="1249.17" height="651.48" transform="translate(-68.09 153.2) rotate(-16.92)"/></g><path class="cls-5" d="M-7.14,345.4c55.14.68,74.93-2.25,82.4-5.23,2.23-.89,11.62-5.09,22.44-5.24h8.23c10.91,0,11,.59,13.47,0,5.64-1.35,5.51-3.9,12-5.24.69-.14,1.07-.19,8.23-.74,9.75-.76,9.46-.71,9.73-.75,9.05-1.6,8.84-8.52,17.2-10.47,6.83-1.6,8.84,2.57,15,0,4.26-1.8,4.46-4.31,9.73-6.74,3.33-1.53,4.28-1,10.47-2.24,6.63-1.33,11.68-3.16,19.45-6,7-2.55,7.09-3,10.47-3.74,5.05-1.09,6.91-.52,12.72-1.49,5.58-.94,5-1.67,11.22-3,9.27-2,11.55-.59,18-3,2-.73,3.17-1.4,8.23-4.48,13.66-8.33,15-9.63,17.95-11.22,12.46-6.68,16.9,1.48,37.4-3.74,4.86-1.24,10.22-3.32,20.95-7.48,9.13-3.55,12-5,18.7-6.74,6.23-1.57,7.08-1.12,13.46-3a62.34,62.34,0,0,0,15-6c6.73-3.92,5.69-5.4,9.72-6.74,8.11-2.68,13.67,2.79,18-.74,2.59-2.14,1-4.49,3.74-7.48,3.37-3.65,8.34-2.94,15.71-3.74,5-.55,9.3-1.86,18-4.49,14.47-4.4,13.87-7.35,26.93-11.22,12.21-3.62,13.56-1.28,20.19-5.24,6.38-3.8,8-7.64,15-9.72,3.55-1.06,9.05-2.69,12.72,0,4.9,3.58,1.31,11,7.48,21.69.55.94,3.8,6.57,6,6,1.92-.51.94-5.32,4.48-12a18.37,18.37,0,0,1,4.49-6c4.61-3.76,8-1.44,12.72-3.74,8-3.92,5.15-14.23,13.46-18.7,2.18-1.17,2.17-.35,11.22-1.49,10.35-1.31,15.53-2,20.95-4.49,8.78-4.09,7.49-8.06,15-10.48,8.17-2.63,10.34,1.92,18-.74,8.21-2.87,8-9,16.46-11.22,5.94-1.59,7,1.19,12.71,0,10.33-2.14,9.75-11.68,20.2-16.46,10.13-4.63,14.07,2.77,26.93-2.24,7.94-3.1,8.5-6.73,16.45-8.23,7.33-1.38,9,1.29,16.46,0s8.1-4.39,17.21-8.23c8.89-3.75,10.47-1.72,23.93-5.24,14.4-3.76,12.44-6.06,21.7-7.48,12.15-1.86,24.88.65,29.17,1.5,8.63,1.71,11.59,3.43,15.71,1.5,6.33-3,4.89-9.65,11.22-12.72,5.86-2.85,8.8,2,18.7,0,6.45-1.34,6.62-3.72,12.71-4.49,6.34-.8,8.5,1.47,15,2.24,12.91,1.56,23.41-5.18,24.62-6a37.55,37.55,0,0,0,14.28-18.7"/><rect class="cls-6" x="30" y="30" width="266" height="195" rx="4"/><rect class="cls-7" x="30" y="30" width="266" height="195" rx="4"/><path class="cls-8" d="M57.37,58.86a3.47,3.47,0,0,1-.5,1.62,3.11,3.11,0,0,1-1.24,1.11,4.09,4.09,0,0,1-1.89.4,3.68,3.68,0,0,1-2-.53A3.39,3.39,0,0,1,50.45,60a5.4,5.4,0,0,1-.44-2.3v-.55a5.24,5.24,0,0,1,.46-2.3,3.56,3.56,0,0,1,1.3-1.51,3.66,3.66,0,0,1,2-.53,4,4,0,0,1,1.91.42,3.09,3.09,0,0,1,1.21,1.14A4,4,0,0,1,57.38,56H55.45a1.93,1.93,0,0,0-.43-1.2,1.67,1.67,0,0,0-1.27-.41,1.64,1.64,0,0,0-1,.29,1.66,1.66,0,0,0-.59.9A4.82,4.82,0,0,0,52,57.1v.56a6,6,0,0,0,.17,1.54,1.7,1.7,0,0,0,.57.91,1.64,1.64,0,0,0,1,.3,2.22,2.22,0,0,0,.92-.17,1.21,1.21,0,0,0,.55-.52,1.94,1.94,0,0,0,.23-.86Z"/><path class="cls-8" d="M63.08,58.87a4.44,4.44,0,0,1-.27,1.6A2.47,2.47,0,0,1,62,61.58a2.29,2.29,0,0,1-1.39.41A2.19,2.19,0,0,1,59,61.41a2.49,2.49,0,0,1-.62-1.9v-4.3h1.86v4.32a1.12,1.12,0,0,0,.12.55.69.69,0,0,0,.32.31,1.13,1.13,0,0,0,.47.09,1.49,1.49,0,0,0,.84-.21,1.18,1.18,0,0,0,.43-.57,2.62,2.62,0,0,0,.12-.82Zm-.75-3.66h1.86v6.66H62.45l-.12-1.61Z"/><path class="cls-8" d="M67.36,61.87H65.5V55.21h1.75l.11,1.53ZM69.3,57l-.32,0-.33,0a1.73,1.73,0,0,0-.8.16,1,1,0,0,0-.47.44,1.61,1.61,0,0,0-.16.73l-.37-.16a5.2,5.2,0,0,1,.22-1.54,2.35,2.35,0,0,1,.66-1.06,1.48,1.48,0,0,1,1-.39l.3,0a.83.83,0,0,1,.26.06Z"/><path class="cls-8" d="M72,61.87H70.14V55.21h1.75L72,56.74ZM73.94,57l-.32,0-.33,0a1.73,1.73,0,0,0-.8.16,1,1,0,0,0-.47.44,1.75,1.75,0,0,0-.16.73l-.37-.16a4.89,4.89,0,0,1,.23-1.54,2.25,2.25,0,0,1,.65-1.06,1.49,1.49,0,0,1,1-.39l.3,0a.83.83,0,0,1,.26.06Z"/><path class="cls-8" d="M77.89,62a3.53,3.53,0,0,1-1.8-.44,3,3,0,0,1-1.15-1.17,3.4,3.4,0,0,1-.39-1.62v-.24a3.9,3.9,0,0,1,.38-1.77A2.85,2.85,0,0,1,76,55.53a3,3,0,0,1,1.67-.45,3.08,3.08,0,0,1,1.63.41,2.57,2.57,0,0,1,1,1.14,4,4,0,0,1,.34,1.73v.79H75.33V57.9h3.48v-.15a1.44,1.44,0,0,0-.12-.61.87.87,0,0,0-.37-.41,1.28,1.28,0,0,0-.65-.15,1,1,0,0,0-.73.26,1.48,1.48,0,0,0-.41.69,3.73,3.73,0,0,0-.12,1v.24a2,2,0,0,0,.19.9,1.45,1.45,0,0,0,.54.61,1.7,1.7,0,0,0,.87.22,2.16,2.16,0,0,0,.88-.18,1.7,1.7,0,0,0,.7-.55l.9,1a2.9,2.9,0,0,1-1,.82A3.22,3.22,0,0,1,77.89,62Z"/><path class="cls-8" d="M83.43,61.87H81.57V55.21h1.75l.11,1.42Zm-.76-3.53A4.22,4.22,0,0,1,83,56.6a2.57,2.57,0,0,1,.92-1.12,2.35,2.35,0,0,1,1.37-.4,2.26,2.26,0,0,1,1.1.25,1.7,1.7,0,0,1,.74.8,3.52,3.52,0,0,1,.27,1.51v4.23H85.52V57.63A1.4,1.4,0,0,0,85.4,57a.63.63,0,0,0-.35-.31,1.49,1.49,0,0,0-.56-.09,1.18,1.18,0,0,0-.58.13,1,1,0,0,0-.42.36,1.73,1.73,0,0,0-.24.55,3,3,0,0,0-.08.68Z"/><path class="cls-8" d="M92,56.56H88.09V55.21H92Zm-1.12-3v6.23a.89.89,0,0,0,.07.41.38.38,0,0,0,.22.21,1.35,1.35,0,0,0,.38.05h.3l.22,0v1.4a2.34,2.34,0,0,1-.49.13,5.32,5.32,0,0,1-.6,0,2.54,2.54,0,0,1-1-.2,1.45,1.45,0,0,1-.68-.64A2.54,2.54,0,0,1,89,60V53.56Z"/><path class="cls-8" d="M98,61.87H96.12V55.21h1.74L98,56.6Zm-.77-3.53a4.42,4.42,0,0,1,.29-1.68,2.65,2.65,0,0,1,.88-1.16,2.4,2.4,0,0,1,1.44-.42,2,2,0,0,1,1.45.55,2.43,2.43,0,0,1,.56,1.79v4.45H100V57.65a1.67,1.67,0,0,0-.11-.66.62.62,0,0,0-.33-.31,1.38,1.38,0,0,0-.52-.09,1.14,1.14,0,0,0-.57.13,1,1,0,0,0-.41.36,1.53,1.53,0,0,0-.24.55,3,3,0,0,0-.07.68Zm3.79-.08a4.18,4.18,0,0,1,.28-1.62,2.48,2.48,0,0,1,.86-1.14,2.32,2.32,0,0,1,1.42-.42,2.37,2.37,0,0,1,1.12.25,1.61,1.61,0,0,1,.74.8,3.55,3.55,0,0,1,.27,1.51v4.23h-1.87V57.63a1.39,1.39,0,0,0-.12-.65.6.6,0,0,0-.32-.31,1.56,1.56,0,0,0-.51-.08A1.07,1.07,0,0,0,102,57a1.69,1.69,0,0,0-.23.51,2.62,2.62,0,0,0-.07.64Z"/><path class="cls-8" d="M106.73,58.47a4,4,0,0,1,.37-1.73,2.82,2.82,0,0,1,1.08-1.21,3.12,3.12,0,0,1,1.72-.45,3.16,3.16,0,0,1,1.73.45,2.82,2.82,0,0,1,1.08,1.21,4,4,0,0,1,.36,1.73v.13a4,4,0,0,1-.36,1.74,2.82,2.82,0,0,1-1.08,1.21,3.21,3.21,0,0,1-1.72.44,3.27,3.27,0,0,1-1.73-.44,2.88,2.88,0,0,1-1.08-1.21,4,4,0,0,1-.37-1.74Zm1.87.13a3.23,3.23,0,0,0,.13,1,1.42,1.42,0,0,0,.41.68,1.31,1.31,0,0,0,1.54,0,1.5,1.5,0,0,0,.41-.68,3.59,3.59,0,0,0,.13-1v-.13a3.5,3.5,0,0,0-.13-.94,1.48,1.48,0,0,0-.41-.69,1.29,1.29,0,0,0-1.55,0,1.4,1.4,0,0,0-.41.69,3.51,3.51,0,0,0-.12.94Z"/><path class="cls-8" d="M116,61.87H114.1V55.21h1.74l.11,1.42Zm-.76-3.53a4.22,4.22,0,0,1,.33-1.74,2.51,2.51,0,0,1,.92-1.12,2.35,2.35,0,0,1,1.37-.4,2.29,2.29,0,0,1,1.1.25,1.7,1.7,0,0,1,.74.8,3.69,3.69,0,0,1,.26,1.51v4.23h-1.86V57.63a1.4,1.4,0,0,0-.12-.64.66.66,0,0,0-.35-.31,1.53,1.53,0,0,0-.56-.09,1.22,1.22,0,0,0-.59.13,1.08,1.08,0,0,0-.41.36,1.53,1.53,0,0,0-.24.55,2.49,2.49,0,0,0-.08.68Z"/><path class="cls-8" d="M124.55,56.56h-3.94V55.21h3.94Zm-1.13-3v6.23a.89.89,0,0,0,.07.41.4.4,0,0,0,.23.21,1.35,1.35,0,0,0,.38.05h.29l.23,0v1.4a2.44,2.44,0,0,1-.5.13,5,5,0,0,1-.6,0,2.52,2.52,0,0,1-1-.2,1.41,1.41,0,0,1-.68-.64,2.41,2.41,0,0,1-.24-1.16V53.56Z"/><path class="cls-8" d="M127.31,61.87h-1.86V52.41h1.86Zm-.76-3.53a4.23,4.23,0,0,1,.31-1.68,2.8,2.8,0,0,1,.88-1.16,2.15,2.15,0,0,1,1.32-.42,2.47,2.47,0,0,1,1.15.26,1.78,1.78,0,0,1,.78.82,3.46,3.46,0,0,1,.28,1.53v4.18H129.4v-4.2a1.48,1.48,0,0,0-.12-.65.63.63,0,0,0-.35-.33,1.34,1.34,0,0,0-.56-.1,1.29,1.29,0,0,0-.62.13,1,1,0,0,0-.41.36,1.52,1.52,0,0,0-.23.55,3.66,3.66,0,0,0-.06.68Z"/><path class="cls-8" d="M134.53,61.87h-1.87V52.41h1.87Z"/><path class="cls-8" d="M138.67,59.91l.26,2.05-1.26.09-2.38-6.84h2Zm1-4.7h2L139,62.86a4.09,4.09,0,0,1-.24.54,2,2,0,0,1-.39.56,1.86,1.86,0,0,1-.61.43,2.24,2.24,0,0,1-.91.17l-.3,0a1,1,0,0,1-.24,0l-.27-.06V63h.27a1.4,1.4,0,0,0,.77-.16,1,1,0,0,0,.36-.51l.49-1.27Z"/><path class="cls-8" d="M149,60a.49.49,0,0,0-.1-.32,1.1,1.1,0,0,0-.4-.26,6.53,6.53,0,0,0-.84-.23,5.92,5.92,0,0,1-1.21-.4,2.17,2.17,0,0,1-.84-.66,1.5,1.5,0,0,1-.31-1,1.87,1.87,0,0,1,.32-1,2.26,2.26,0,0,1,.92-.76,3.33,3.33,0,0,1,1.44-.29,3.62,3.62,0,0,1,1.5.28,2.24,2.24,0,0,1,1,.76,2,2,0,0,1,.34,1.12H149a.88.88,0,0,0-.23-.62,1,1,0,0,0-.74-.23,1.13,1.13,0,0,0-.47.09.7.7,0,0,0-.31.24.55.55,0,0,0-.11.36.52.52,0,0,0,.11.32.91.91,0,0,0,.39.25,3.5,3.5,0,0,0,.7.18,6.23,6.23,0,0,1,1.28.38,2.24,2.24,0,0,1,.92.64,1.88,1.88,0,0,1,0,2.14,2.28,2.28,0,0,1-1,.73A3.79,3.79,0,0,1,148,62a3.37,3.37,0,0,1-1.59-.34,2.48,2.48,0,0,1-1-.86,1.9,1.9,0,0,1-.34-1.06h1.76a1,1,0,0,0,.19.54,1,1,0,0,0,.42.31,1.54,1.54,0,0,0,.58.1,1.36,1.36,0,0,0,.53-.09.64.64,0,0,0,.33-.23A.54.54,0,0,0,149,60Z"/><path class="cls-8" d="M155.77,58.86h-1a1.4,1.4,0,0,0-1,.29,1,1,0,0,0-.3.71.67.67,0,0,0,.22.52.89.89,0,0,0,.6.2,1.41,1.41,0,0,0,.67-.15,1.29,1.29,0,0,0,.43-.36.65.65,0,0,0,.14-.4l.48.8a2.8,2.8,0,0,1-.26.52,2.67,2.67,0,0,1-.41.49,2.22,2.22,0,0,1-.62.37A2.38,2.38,0,0,1,154,62a2.59,2.59,0,0,1-1.15-.26A2.08,2.08,0,0,1,152,61a1.86,1.86,0,0,1-.3-1,1.89,1.89,0,0,1,.78-1.62,3.78,3.78,0,0,1,2.31-.58h1Zm-.25-1.43a1.09,1.09,0,0,0-.23-.72.87.87,0,0,0-.7-.26,1.14,1.14,0,0,0-.48.09.67.67,0,0,0-.31.26.79.79,0,0,0-.11.42h-1.86a1.78,1.78,0,0,1,.36-1.08,2.36,2.36,0,0,1,1-.77,3.66,3.66,0,0,1,1.51-.29,3.57,3.57,0,0,1,1.38.26,2.14,2.14,0,0,1,1,.79,2.32,2.32,0,0,1,.35,1.31v2.78a4.67,4.67,0,0,0,.07.94,2.81,2.81,0,0,0,.2.6v.11h-1.87a2.5,2.5,0,0,1-.2-.71,6.22,6.22,0,0,1-.06-.86Z"/><path class="cls-8" d="M161.37,60.5l0,1.37h-1.18L158,55.21h2Zm.94-5.29h1.94L162,61.87h-1.17l0-1.38Z"/><path class="cls-8" d="M165,53.49a.91.91,0,0,1,.29-.69,1,1,0,0,1,.75-.27,1.05,1.05,0,0,1,.76.27,1,1,0,0,1,0,1.37,1.05,1.05,0,0,1-.76.27,1,1,0,0,1-.75-.27A.91.91,0,0,1,165,53.49Zm2,8.38h-1.87V55.21H167Z"/><path class="cls-8" d="M170.2,61.87h-1.86V55.21h1.75l.11,1.42Zm-.77-3.53a4.22,4.22,0,0,1,.33-1.74,2.51,2.51,0,0,1,.92-1.12,2.35,2.35,0,0,1,1.37-.4,2.29,2.29,0,0,1,1.1.25,1.7,1.7,0,0,1,.74.8,3.69,3.69,0,0,1,.26,1.51v4.23h-1.86V57.63a1.4,1.4,0,0,0-.12-.64.66.66,0,0,0-.35-.31,1.53,1.53,0,0,0-.56-.09,1.25,1.25,0,0,0-.59.13,1.08,1.08,0,0,0-.41.36,1.53,1.53,0,0,0-.24.55,2.49,2.49,0,0,0-.08.68Z"/><path class="cls-8" d="M175.19,58.49a4.54,4.54,0,0,1,.33-1.79,2.81,2.81,0,0,1,.94-1.19,2.51,2.51,0,0,1,1.45-.43,2.24,2.24,0,0,1,1.12.26,2,2,0,0,1,.74.72,3.94,3.94,0,0,1,.44,1.08,12.18,12.18,0,0,1,.26,1.36v.15a8.19,8.19,0,0,1-.42,1.69,2.84,2.84,0,0,1-.81,1.2,2,2,0,0,1-1.34.45,2.39,2.39,0,0,1-1.44-.44,2.9,2.9,0,0,1-.94-1.2,4.34,4.34,0,0,1-.33-1.73Zm6.16-3.28v6.42a2.82,2.82,0,0,1-.41,1.55,2.61,2.61,0,0,1-1.14,1,4.13,4.13,0,0,1-1.7.33,4.07,4.07,0,0,1-.88-.11,4.27,4.27,0,0,1-.9-.34,2.38,2.38,0,0,1-.71-.58l.82-1.14a2.16,2.16,0,0,0,.7.53A2,2,0,0,0,178,63a1.53,1.53,0,0,0,1.08-.36,1.39,1.39,0,0,0,.39-1V56.76l.17-1.55Zm-4.29,3.41a3.14,3.14,0,0,0,.14.94,1.53,1.53,0,0,0,.43.67,1.09,1.09,0,0,0,.74.25,1.37,1.37,0,0,0,.77-.2,1.24,1.24,0,0,0,.44-.56,2.25,2.25,0,0,0,.17-.82v-.64a2.89,2.89,0,0,0-.1-.71,1.63,1.63,0,0,0-.25-.53,1.12,1.12,0,0,0-.42-.32,1.5,1.5,0,0,0-.6-.11,1.06,1.06,0,0,0-.73.25,1.51,1.51,0,0,0-.45.68,3.2,3.2,0,0,0-.14,1Z"/><path class="cls-8" d="M186.24,60a.49.49,0,0,0-.1-.32,1.1,1.1,0,0,0-.4-.26,6.53,6.53,0,0,0-.84-.23,5.73,5.73,0,0,1-1.21-.4,2.17,2.17,0,0,1-.84-.66,1.5,1.5,0,0,1-.31-1,1.87,1.87,0,0,1,.32-1,2.26,2.26,0,0,1,.92-.76,3.33,3.33,0,0,1,1.44-.29,3.62,3.62,0,0,1,1.5.28,2.24,2.24,0,0,1,1,.76,2,2,0,0,1,.34,1.12h-1.86a.88.88,0,0,0-.23-.62,1,1,0,0,0-.74-.23,1.13,1.13,0,0,0-.47.09.8.8,0,0,0-.32.24.61.61,0,0,0-.1.36.52.52,0,0,0,.11.32.91.91,0,0,0,.39.25,3.5,3.5,0,0,0,.7.18,6.23,6.23,0,0,1,1.28.38,2.14,2.14,0,0,1,.91.64,1.65,1.65,0,0,1,.34,1.09,1.69,1.69,0,0,1-.34,1.05,2.28,2.28,0,0,1-1,.73,3.79,3.79,0,0,1-1.5.27,3.34,3.34,0,0,1-1.59-.34,2.48,2.48,0,0,1-1-.86,1.9,1.9,0,0,1-.34-1.06h1.76a1.08,1.08,0,0,0,.18.54,1,1,0,0,0,.43.31,1.54,1.54,0,0,0,.58.1,1.36,1.36,0,0,0,.53-.09.64.64,0,0,0,.33-.23A.54.54,0,0,0,186.24,60Z"/><path class="cls-9" d="M51.1,91.81V87.89H63.54v3.92Zm0,9.13v-4h17v4Zm7.7-7.09a4.87,4.87,0,0,1-.68,2.69,5,5,0,0,1-2.38,1.83L52.65,96.9a1.12,1.12,0,0,0,.73-.55,2.67,2.67,0,0,0,.31-1,11.67,11.67,0,0,0,.07-1.18l-.31-9.84a7.31,7.31,0,0,1,.92-3.77,6,6,0,0,1,2.55-2.39,8.37,8.37,0,0,1,3.82-.82,7.48,7.48,0,0,1,5.45,1.85,6.49,6.49,0,0,1,1.89,4.87H63.3A3.12,3.12,0,0,0,63,82.47a1.91,1.91,0,0,0-.93-.83,3.13,3.13,0,0,0-1.27-.25,2.09,2.09,0,0,0-1.64.73,3.21,3.21,0,0,0-.65,2.2Z"/><path class="cls-9" d="M71.2,89.52l1.36-11.88H85.75v4H76.53L76,86.46a9.24,9.24,0,0,1,1.37-.54,6.34,6.34,0,0,1,2.07-.31,7.51,7.51,0,0,1,3.86.93,6,6,0,0,1,2.42,2.68,9.74,9.74,0,0,1,.84,4.24,8.76,8.76,0,0,1-.85,3.83,6.85,6.85,0,0,1-2.62,2.88,8.29,8.29,0,0,1-4.45,1.1,9.39,9.39,0,0,1-3-.47,8.15,8.15,0,0,1-2.54-1.35,6.65,6.65,0,0,1-1.78-2.16,6.44,6.44,0,0,1-.7-2.87h4.8a3.32,3.32,0,0,0,1,2.16,3,3,0,0,0,2.18.8,2.74,2.74,0,0,0,1.82-.57,3.23,3.23,0,0,0,1-1.53,7.12,7.12,0,0,0,.3-2.13,5.1,5.1,0,0,0-.39-2.07,3.05,3.05,0,0,0-1.19-1.39,3.87,3.87,0,0,0-2.05-.49,3.75,3.75,0,0,0-1.91.4,5,5,0,0,0-1.1.86Z"/><path class="cls-9" d="M105.26,91.33a13.84,13.84,0,0,1-1,5.66,6.91,6.91,0,0,1-2.78,3.23,8.71,8.71,0,0,1-8.29,0A6.89,6.89,0,0,1,90.4,97a13.67,13.67,0,0,1-1-5.66v-4.1a13.8,13.8,0,0,1,1-5.67,6.81,6.81,0,0,1,2.79-3.21,8.84,8.84,0,0,1,8.28,0,6.92,6.92,0,0,1,2.79,3.21,13.61,13.61,0,0,1,1,5.67Zm-4.85-4.77A10.61,10.61,0,0,0,100,83.4,3.2,3.2,0,0,0,99,81.73a3,3,0,0,0-3.34,0,3.09,3.09,0,0,0-1.06,1.67,11,11,0,0,0-.36,3.16V92a11,11,0,0,0,.37,3.2,3.18,3.18,0,0,0,1.07,1.69,2.73,2.73,0,0,0,1.68.52A2.63,2.63,0,0,0,99,96.86a3.21,3.21,0,0,0,1-1.69,11.41,11.41,0,0,0,.36-3.2Z"/><path class="cls-9" d="M124.11,91.33a13.84,13.84,0,0,1-1,5.66,6.85,6.85,0,0,1-2.78,3.23,8,8,0,0,1-4.13,1,8.11,8.11,0,0,1-4.16-1,6.89,6.89,0,0,1-2.8-3.23,13.83,13.83,0,0,1-1-5.66v-4.1a13.8,13.8,0,0,1,1-5.67A6.87,6.87,0,0,1,112,78.35a8.84,8.84,0,0,1,8.28,0,6.92,6.92,0,0,1,2.79,3.21,13.45,13.45,0,0,1,1,5.67Zm-4.85-4.77a10.61,10.61,0,0,0-.37-3.16,3.14,3.14,0,0,0-1-1.67,3,3,0,0,0-3.34,0,3.14,3.14,0,0,0-1,1.67,11,11,0,0,0-.36,3.16V92a11.41,11.41,0,0,0,.36,3.2,3.19,3.19,0,0,0,1.08,1.69,2.73,2.73,0,0,0,1.68.52,2.6,2.6,0,0,0,1.65-.52,3.15,3.15,0,0,0,1-1.69,11.41,11.41,0,0,0,.36-3.2Z"/><path class="cls-10" d="M129.68,95.52a6.37,6.37,0,0,1,.59-2.78,4.62,4.62,0,0,1,1.7-1.93,4.79,4.79,0,0,1,2.66-.72,4.84,4.84,0,0,1,2.69.72,4.62,4.62,0,0,1,1.7,1.93,6.37,6.37,0,0,1,.59,2.78v.21A6.36,6.36,0,0,1,139,98.5a4.59,4.59,0,0,1-1.69,1.93,5.41,5.41,0,0,1-5.36,0,4.62,4.62,0,0,1-1.7-1.93,6.36,6.36,0,0,1-.59-2.77Zm2.44.21a5.22,5.22,0,0,0,.27,1.72,2.72,2.72,0,0,0,.82,1.26,2.44,2.44,0,0,0,2.88,0,2.7,2.7,0,0,0,.81-1.26,5.22,5.22,0,0,0,.26-1.72v-.21a5.32,5.32,0,0,0-.26-1.73,2.69,2.69,0,0,0-.82-1.26,2.15,2.15,0,0,0-1.45-.48,2.11,2.11,0,0,0-1.43.48,2.85,2.85,0,0,0-.82,1.26,5.6,5.6,0,0,0-.26,1.73Z"/><path class="cls-10" d="M147,92.09h-6.24v-1.8H147Zm-4.62,8.85V89.27a3.54,3.54,0,0,1,1-2.71,3.84,3.84,0,0,1,2.75-1,5.49,5.49,0,0,1,.7,0c.23,0,.45.08.67.13l-.06,1.91a2.62,2.62,0,0,0-.43-.06l-.49,0a1.74,1.74,0,0,0-1.26.43,1.63,1.63,0,0,0-.44,1.22v11.67Z"/><path class="cls-10" d="M153.47,95.08v-2h7.16v2Zm0,5.86v-2h10.34v2Zm4.2-4.17a3.65,3.65,0,0,1-.35,1.69,2.48,2.48,0,0,1-1.17,1.16l-1.83-.71a.75.75,0,0,0,.49-.42,2.47,2.47,0,0,0,.23-.78,4.89,4.89,0,0,0,.07-.83l-.21-6.17a4.48,4.48,0,0,1,.57-2.32,3.77,3.77,0,0,1,1.57-1.47,5,5,0,0,1,2.3-.51,4.37,4.37,0,0,1,3.19,1.1,3.89,3.89,0,0,1,1.13,2.9h-2.47a2.15,2.15,0,0,0-.26-1.15,1.56,1.56,0,0,0-.71-.61,2.27,2.27,0,0,0-.95-.19A1.71,1.71,0,0,0,158,89a2.4,2.4,0,0,0-.53,1.68Z"/><path class="cls-10" d="M168.29,93.24h1.8a7.08,7.08,0,0,1,2.15.29,4,4,0,0,1,1.45.81,3.1,3.1,0,0,1,.83,1.18,3.88,3.88,0,0,1,.26,1.41,4,4,0,0,1-.64,2.29,4.16,4.16,0,0,1-1.74,1.43,6,6,0,0,1-2.49.49,6.16,6.16,0,0,1-1.77-.25,4.84,4.84,0,0,1-1.52-.77,3.63,3.63,0,0,1-1.06-1.27,3.86,3.86,0,0,1-.39-1.78h2.45a2,2,0,0,0,.29,1.09,2.05,2.05,0,0,0,.82.75,2.68,2.68,0,0,0,1.23.27,2.46,2.46,0,0,0,1.74-.59,2.18,2.18,0,0,0,.63-1.66,2.46,2.46,0,0,0-.32-1.34,1.85,1.85,0,0,0-.91-.76,3.69,3.69,0,0,0-1.4-.24h-1.41Zm1.41-.58a3,3,0,0,0,1.35-.27,1.86,1.86,0,0,0,.8-.77,2.33,2.33,0,0,0,.27-1.13,2.48,2.48,0,0,0-.24-1.13,1.66,1.66,0,0,0-.72-.74,2.56,2.56,0,0,0-1.21-.25,2.51,2.51,0,0,0-1.11.24,2,2,0,0,0-.79.68,1.88,1.88,0,0,0-.29,1h-2.44a3.55,3.55,0,0,1,.6-2,4.14,4.14,0,0,1,1.64-1.39,5.4,5.4,0,0,1,2.35-.5,5.89,5.89,0,0,1,2.43.46A3.58,3.58,0,0,1,174,88.23a4,4,0,0,1,.59,2.25,3,3,0,0,1-.29,1.25,3.65,3.65,0,0,1-.84,1.15,4.21,4.21,0,0,1-1.4.84,5.52,5.52,0,0,1-1.94.31h-1.8V92.66Z"/><path class="cls-10" d="M179.38,100.36a4.72,4.72,0,0,1-.52,2.1,5.16,5.16,0,0,1-1.35,1.78l-1.31-.74a10.25,10.25,0,0,0,.51-.9,5,5,0,0,0,.36-1,4.55,4.55,0,0,0,.14-1.16V98.63h2.17Z"/><path class="cls-10" d="M182.08,93.83l.79-7.23h7.76v2.09H184.9l-.38,3.42a5.31,5.31,0,0,1,.91-.38,4.19,4.19,0,0,1,1.33-.19,4.43,4.43,0,0,1,2.33.58,3.86,3.86,0,0,1,1.48,1.66,6,6,0,0,1,.52,2.58,5.4,5.4,0,0,1-.52,2.39,4,4,0,0,1-1.55,1.74,4.89,4.89,0,0,1-2.65.65,5.79,5.79,0,0,1-1.73-.26,4.69,4.69,0,0,1-1.48-.79,4.14,4.14,0,0,1-1-1.29,4.39,4.39,0,0,1-.45-1.76h2.39a2.45,2.45,0,0,0,.73,1.59,2.24,2.24,0,0,0,1.58.55,2.11,2.11,0,0,0,1.28-.37,2.26,2.26,0,0,0,.76-1,4.37,4.37,0,0,0,.24-1.5,3.47,3.47,0,0,0-.28-1.45,2.16,2.16,0,0,0-.84-1,2.53,2.53,0,0,0-1.4-.36,2.68,2.68,0,0,0-1.27.24,3.86,3.86,0,0,0-.81.6Z"/><path class="cls-10" d="M202.53,88l-5.7,13h-2.57L200,88.56h-7.38v-2h10Z"/><path class="cls-10" d="M214.1,100.94h-9.66V99.26l4.67-5.07c.51-.57.91-1.06,1.21-1.47a4.67,4.67,0,0,0,.61-1.12,2.81,2.81,0,0,0,.18-1,2.4,2.4,0,0,0-.55-1.63,1.94,1.94,0,0,0-1.56-.63,2.38,2.38,0,0,0-1.32.34,2,2,0,0,0-.81.93,3.4,3.4,0,0,0-.26,1.36h-2.44a4.76,4.76,0,0,1,.57-2.31A4.21,4.21,0,0,1,206.4,87a5.2,5.2,0,0,1,2.63-.62,4.83,4.83,0,0,1,3.35,1.07,3.72,3.72,0,0,1,1.18,2.9,4.49,4.49,0,0,1-.38,1.78,8.61,8.61,0,0,1-1.06,1.75c-.44.58-1,1.17-1.53,1.79L207.52,99h6.58Z"/><path class="cls-8" d="M50.15,132.91a.9.9,0,0,1,.28-.69,1.05,1.05,0,0,1,.76-.27,1,1,0,0,1,.75.27,1,1,0,0,1,0,1.37,1,1,0,0,1-.75.27,1.05,1.05,0,0,1-.76-.27A.9.9,0,0,1,50.15,132.91Zm2,8.38H50.26v-6.66h1.86Z"/><path class="cls-8" d="M55.36,141.29H53.5v-6.66h1.75l.11,1.42Zm-.76-3.53a4.39,4.39,0,0,1,.32-1.74,2.57,2.57,0,0,1,.92-1.12,2.37,2.37,0,0,1,1.37-.4,2.26,2.26,0,0,1,1.1.25,1.66,1.66,0,0,1,.74.8,3.52,3.52,0,0,1,.27,1.51v4.23H57.45v-4.24a1.4,1.4,0,0,0-.12-.64.64.64,0,0,0-.34-.31,1.57,1.57,0,0,0-.56-.09,1.2,1.2,0,0,0-.59.13,1,1,0,0,0-.41.36,1.74,1.74,0,0,0-.25.55,3,3,0,0,0-.08.68Z"/><path class="cls-8" d="M69.88,141.29H63.7V140l2.9-3.08c.28-.31.51-.59.68-.82a3.21,3.21,0,0,0,.35-.64,1.65,1.65,0,0,0,.1-.55,1.34,1.34,0,0,0-.28-.91,1,1,0,0,0-.82-.33,1.14,1.14,0,0,0-.68.19,1.16,1.16,0,0,0-.42.53,1.79,1.79,0,0,0-.15.75H63.52a2.93,2.93,0,0,1,.39-1.49A2.85,2.85,0,0,1,65,132.6a3.31,3.31,0,0,1,1.67-.41,3.13,3.13,0,0,1,2.19.69,2.4,2.4,0,0,1,.75,1.87,2.77,2.77,0,0,1-.25,1.17,4.54,4.54,0,0,1-.7,1.11c-.3.38-.65.77-1.06,1.2l-1.49,1.56h3.78Z"/><path class="cls-8" d="M77,137.59a5.26,5.26,0,0,1-.38,2.18A2.63,2.63,0,0,1,75.58,141a3,3,0,0,1-1.59.4,3.08,3.08,0,0,1-1.59-.4,2.7,2.7,0,0,1-1.08-1.24,5.25,5.25,0,0,1-.39-2.18V136a5.22,5.22,0,0,1,.39-2.18,2.56,2.56,0,0,1,1.07-1.23,3.36,3.36,0,0,1,3.18,0,2.63,2.63,0,0,1,1.08,1.23A5.23,5.23,0,0,1,77,136Zm-1.86-1.84a4.26,4.26,0,0,0-.14-1.21,1.23,1.23,0,0,0-.41-.64,1,1,0,0,0-.64-.2,1.06,1.06,0,0,0-.64.2,1.17,1.17,0,0,0-.41.64,4.26,4.26,0,0,0-.14,1.21v2.08a4,4,0,0,0,.15,1.23,1.23,1.23,0,0,0,.41.66,1.05,1.05,0,0,0,.64.19,1,1,0,0,0,.64-.19,1.22,1.22,0,0,0,.4-.66,4.42,4.42,0,0,0,.14-1.23Z"/><path class="cls-8" d="M84.14,139.33l.26,2-1.26.09-2.38-6.84h2Zm1-4.7h2l-2.66,7.65a4.09,4.09,0,0,1-.24.54,2,2,0,0,1-.39.56,1.86,1.86,0,0,1-.61.43,2.24,2.24,0,0,1-.91.17l-.3,0a1,1,0,0,1-.24,0l-.27-.06v-1.4h.27a1.4,1.4,0,0,0,.77-.16,1,1,0,0,0,.36-.51l.49-1.27Z"/><path class="cls-8" d="M90.9,141.41a3.5,3.5,0,0,1-1.8-.44A3,3,0,0,1,88,139.8a3.41,3.41,0,0,1-.4-1.62v-.24a4,4,0,0,1,.38-1.77A3,3,0,0,1,89,135a3.38,3.38,0,0,1,3.3,0,2.59,2.59,0,0,1,1,1.14,4,4,0,0,1,.34,1.73v.78H88.34v-1.24h3.48v-.15a1.44,1.44,0,0,0-.12-.61.89.89,0,0,0-.38-.41,1.21,1.21,0,0,0-.64-.15,1,1,0,0,0-.74.26,1.47,1.47,0,0,0-.4.69,3.71,3.71,0,0,0-.13,1v.24a2.13,2.13,0,0,0,.19.9,1.48,1.48,0,0,0,.55.61,1.69,1.69,0,0,0,.86.22,2.21,2.21,0,0,0,.89-.18,1.7,1.7,0,0,0,.7-.55l.9,1a2.9,2.9,0,0,1-1,.82A3.25,3.25,0,0,1,90.9,141.41Z"/><path class="cls-8" d="M98.44,138.28h-1a1.4,1.4,0,0,0-1,.29,1,1,0,0,0-.3.71.67.67,0,0,0,.22.52.89.89,0,0,0,.6.2,1.41,1.41,0,0,0,.67-.15,1.29,1.29,0,0,0,.43-.36.72.72,0,0,0,.14-.4l.48.8a2.8,2.8,0,0,1-.26.52,2.38,2.38,0,0,1-.42.49,2,2,0,0,1-.61.37,2.38,2.38,0,0,1-.84.14,2.56,2.56,0,0,1-1.15-.26,2.08,2.08,0,0,1-.82-.7,1.86,1.86,0,0,1-.3-1,1.89,1.89,0,0,1,.78-1.62,3.77,3.77,0,0,1,2.3-.58h1Zm-.25-1.43a1.09,1.09,0,0,0-.23-.72.87.87,0,0,0-.7-.26,1.14,1.14,0,0,0-.48.09.67.67,0,0,0-.31.26.79.79,0,0,0-.11.42H94.5a1.83,1.83,0,0,1,.35-1.08,2.46,2.46,0,0,1,1-.77,3.65,3.65,0,0,1,1.5-.29,3.59,3.59,0,0,1,1.39.26,2.14,2.14,0,0,1,1,.79,2.32,2.32,0,0,1,.35,1.31v2.78a4.67,4.67,0,0,0,.07.94,2.35,2.35,0,0,0,.2.6v.11H98.45a2.5,2.5,0,0,1-.2-.71,6.22,6.22,0,0,1-.06-.86Z"/><path class="cls-8" d="M103.23,141.29h-1.86v-6.66h1.75l.11,1.53Zm2-4.92-.32,0-.34,0a1.73,1.73,0,0,0-.8.16,1,1,0,0,0-.46.44,1.61,1.61,0,0,0-.17.73l-.36-.16A4.9,4.9,0,0,1,103,136a2.34,2.34,0,0,1,.65-1.06,1.52,1.52,0,0,1,1.05-.39l.3,0a.76.76,0,0,1,.25.06Z"/><path class="cls-8" d="M109.58,139.43a.49.49,0,0,0-.1-.32,1,1,0,0,0-.4-.26,6.53,6.53,0,0,0-.84-.23,5.92,5.92,0,0,1-1.21-.4,2.17,2.17,0,0,1-.84-.66,1.5,1.5,0,0,1-.31-1,1.87,1.87,0,0,1,.32-1,2.26,2.26,0,0,1,.92-.76,3.33,3.33,0,0,1,1.44-.29,3.62,3.62,0,0,1,1.5.28,2.24,2.24,0,0,1,1,.76,2,2,0,0,1,.34,1.12h-1.86a.88.88,0,0,0-.23-.62,1,1,0,0,0-.74-.23,1.13,1.13,0,0,0-.47.09.7.7,0,0,0-.31.24.55.55,0,0,0-.11.36.47.47,0,0,0,.12.32.81.81,0,0,0,.38.25,3.5,3.5,0,0,0,.7.18,6.52,6.52,0,0,1,1.29.38,2.27,2.27,0,0,1,.91.64,1.88,1.88,0,0,1,0,2.14,2.28,2.28,0,0,1-1,.73,3.79,3.79,0,0,1-1.5.27,3.32,3.32,0,0,1-1.58-.34,2.45,2.45,0,0,1-1-.86,1.9,1.9,0,0,1-.34-1.06h1.76a1,1,0,0,0,.19.54,1,1,0,0,0,.42.31,1.81,1.81,0,0,0,.58.1,1.45,1.45,0,0,0,.54-.09.65.65,0,0,0,.32-.23A.54.54,0,0,0,109.58,139.43Z"/><path class="cls-8" d="M118.38,139.33l.25,2-1.26.09L115,134.63h2Zm1-4.7h2l-2.66,7.65a5.81,5.81,0,0,1-.23.54,2.31,2.31,0,0,1-.4.56,1.86,1.86,0,0,1-.61.43,2.24,2.24,0,0,1-.91.17l-.3,0a1,1,0,0,1-.24,0l-.27-.06v-1.4H116a1.39,1.39,0,0,0,.76-.16,1,1,0,0,0,.36-.51l.49-1.27Z"/><path class="cls-8" d="M121.74,137.89a3.89,3.89,0,0,1,.37-1.73,2.82,2.82,0,0,1,1.08-1.21,3.12,3.12,0,0,1,1.72-.45,3.18,3.18,0,0,1,1.73.45,2.82,2.82,0,0,1,1.08,1.21,4,4,0,0,1,.36,1.73V138a4,4,0,0,1-.36,1.74,2.88,2.88,0,0,1-1.08,1.21,3.21,3.21,0,0,1-1.72.44,3.27,3.27,0,0,1-1.73-.44,2.88,2.88,0,0,1-1.08-1.21,3.9,3.9,0,0,1-.37-1.74Zm1.87.13a3.6,3.6,0,0,0,.12,1,1.43,1.43,0,0,0,.42.68,1.3,1.3,0,0,0,1.53,0,1.43,1.43,0,0,0,.42-.68,3.6,3.6,0,0,0,.12-1v-.13a3.51,3.51,0,0,0-.12-.94,1.42,1.42,0,0,0-.42-.69,1.27,1.27,0,0,0-1.54,0,1.4,1.4,0,0,0-.41.69,3.51,3.51,0,0,0-.12.94Z"/><path class="cls-8" d="M133.8,138.29a4.44,4.44,0,0,1-.27,1.6,2.47,2.47,0,0,1-.83,1.11,2.29,2.29,0,0,1-1.39.41,2.19,2.19,0,0,1-1.59-.58,2.49,2.49,0,0,1-.62-1.9v-4.3H131V139a1.12,1.12,0,0,0,.12.55.69.69,0,0,0,.32.31,1.13,1.13,0,0,0,.47.09,1.49,1.49,0,0,0,.84-.21,1.18,1.18,0,0,0,.43-.57,2.62,2.62,0,0,0,.12-.82Zm-.74-3.66h1.85v6.66h-1.74l-.11-1.61Z"/><path class="cls-8" d="M137.91,132.81a2.52,2.52,0,0,1-.15.83,3.43,3.43,0,0,1-.41.81,3.67,3.67,0,0,1-.56.66l-.87-.5a4.84,4.84,0,0,0,.39-.79,3.12,3.12,0,0,0,.16-1v-1h1.44Z"/><path class="cls-8" d="M141.12,141.29h-1.87v-9.46h1.87Z"/><path class="cls-8" d="M144.5,141.29h-1.87v-9.46h1.87Z"/><path class="cls-8" d="M150.88,141.29H149v-9.46h1.86Zm-.76-3.53a4.23,4.23,0,0,1,.31-1.68,2.8,2.8,0,0,1,.88-1.16,2.12,2.12,0,0,1,1.32-.42,2.47,2.47,0,0,1,1.15.26,1.78,1.78,0,0,1,.78.82,3.46,3.46,0,0,1,.28,1.53v4.18H153v-4.2a1.45,1.45,0,0,0-.12-.65.63.63,0,0,0-.35-.33,1.34,1.34,0,0,0-.56-.1,1.29,1.29,0,0,0-.62.13,1,1,0,0,0-.41.36,1.52,1.52,0,0,0-.23.55,3.66,3.66,0,0,0-.06.68Z"/><path class="cls-8" d="M160,138.28H159a1.4,1.4,0,0,0-1,.29,1,1,0,0,0-.3.71.67.67,0,0,0,.22.52.87.87,0,0,0,.6.2,1.37,1.37,0,0,0,.66-.15,1.2,1.2,0,0,0,.43-.36.74.74,0,0,0,.15-.4l.48.8a3.6,3.6,0,0,1-.26.52,2.38,2.38,0,0,1-.42.49,2.16,2.16,0,0,1-.61.37,2.4,2.4,0,0,1-.85.14,2.52,2.52,0,0,1-1.14-.26,2,2,0,0,1-.82-.7,1.86,1.86,0,0,1-.3-1,1.9,1.9,0,0,1,.77-1.62,3.82,3.82,0,0,1,2.31-.58h1Zm-.25-1.43a1.09,1.09,0,0,0-.22-.72.89.89,0,0,0-.71-.26,1.21,1.21,0,0,0-.48.09.72.72,0,0,0-.31.26.9.9,0,0,0-.1.42H156a1.83,1.83,0,0,1,.35-1.08,2.5,2.5,0,0,1,1-.77,3.7,3.7,0,0,1,1.51-.29,3.59,3.59,0,0,1,1.39.26,2.26,2.26,0,0,1,1,.79,2.32,2.32,0,0,1,.35,1.31v2.78a4.67,4.67,0,0,0,.07.94,2.35,2.35,0,0,0,.2.6v.11H160a2.5,2.5,0,0,1-.2-.71,5,5,0,0,1-.07-.86Z"/><path class="cls-8" d="M165.56,139.92l0,1.37h-1.18l-2.23-6.66h1.95Zm.93-5.29h1.95l-2.23,6.66H165l0-1.38Z"/><path class="cls-8" d="M172.3,141.41a3.5,3.5,0,0,1-1.8-.44,3,3,0,0,1-1.15-1.17,3.41,3.41,0,0,1-.4-1.62v-.24a4,4,0,0,1,.38-1.77,3,3,0,0,1,1.08-1.22,3.38,3.38,0,0,1,3.3,0,2.59,2.59,0,0,1,1,1.14,4,4,0,0,1,.34,1.73v.78h-5.31v-1.24h3.48v-.15a1.44,1.44,0,0,0-.12-.61.89.89,0,0,0-.38-.41,1.21,1.21,0,0,0-.64-.15,1,1,0,0,0-.74.26,1.47,1.47,0,0,0-.4.69,3.71,3.71,0,0,0-.13,1v.24a2.13,2.13,0,0,0,.19.9,1.48,1.48,0,0,0,.55.61,1.69,1.69,0,0,0,.86.22,2.21,2.21,0,0,0,.89-.18,1.7,1.7,0,0,0,.7-.55l.9,1a2.9,2.9,0,0,1-1,.82A3.25,3.25,0,0,1,172.3,141.41Z"/><path class="cls-8" d="M51,196l-1.4-.42.22-.69,1.4.52,0-1.6h.72l-.05,1.62,1.37-.51.22.7L52,196l.92,1.27-.59.43-.85-1.34-.84,1.3-.58-.42Z"/><path class="cls-8" d="M57.36,198.1H56.5a2.26,2.26,0,0,0-1.14.23A.74.74,0,0,0,55,199a.88.88,0,0,0,.24.62,1,1,0,0,0,.71.25,1.45,1.45,0,0,0,.7-.17,1.35,1.35,0,0,0,.47-.41.94.94,0,0,0,.2-.48l.37.42a1.37,1.37,0,0,1-.18.43,2,2,0,0,1-.38.45,2.31,2.31,0,0,1-.57.36,1.9,1.9,0,0,1-.73.14,2,2,0,0,1-.9-.2,1.52,1.52,0,0,1-.59-.53,1.43,1.43,0,0,1-.21-.76,1.39,1.39,0,0,1,.61-1.23,2.88,2.88,0,0,1,1.65-.42h1Zm-.16-1a1,1,0,0,0-.26-.71,1.07,1.07,0,0,0-.79-.27,1.48,1.48,0,0,0-.57.11,1,1,0,0,0-.37.29.67.67,0,0,0-.14.4h-.86a1.18,1.18,0,0,1,.24-.7,1.87,1.87,0,0,1,.69-.57,2.62,2.62,0,0,1,2,0,1.45,1.45,0,0,1,.66.56,1.69,1.69,0,0,1,.24.93v2.34a3.23,3.23,0,0,0,0,.53,1.91,1.91,0,0,0,.14.49v.08h-.91a1.66,1.66,0,0,1-.1-.4,2.6,2.6,0,0,1,0-.46Z"/><path class="cls-8" d="M62.34,199.21a.82.82,0,0,0-.08-.35.8.8,0,0,0-.33-.29,2.9,2.9,0,0,0-.74-.24,4.3,4.3,0,0,1-1-.29,1.51,1.51,0,0,1-.62-.46,1,1,0,0,1-.22-.69,1.2,1.2,0,0,1,.23-.73,1.57,1.57,0,0,1,.65-.53,2.15,2.15,0,0,1,1-.21,2.34,2.34,0,0,1,1,.22,1.59,1.59,0,0,1,.66.56,1.45,1.45,0,0,1,.22.79h-.86a.84.84,0,0,0-.28-.59,1,1,0,0,0-.77-.28,1.36,1.36,0,0,0-.58.11.7.7,0,0,0-.42.63.55.55,0,0,0,.1.32.67.67,0,0,0,.34.25,4.1,4.1,0,0,0,.72.21,4.67,4.67,0,0,1,1,.34,1.5,1.5,0,0,1,.59.47,1.19,1.19,0,0,1,.19.69,1.31,1.31,0,0,1-.24.78,1.54,1.54,0,0,1-.67.52,2.56,2.56,0,0,1-1,.19,2.38,2.38,0,0,1-1.12-.24,1.76,1.76,0,0,1-.7-.61,1.42,1.42,0,0,1-.23-.79h.86a1,1,0,0,0,.21.56.9.9,0,0,0,.45.29,1.64,1.64,0,0,0,.53.09,1.66,1.66,0,0,0,.59-.09.84.84,0,0,0,.36-.26A.58.58,0,0,0,62.34,199.21Z"/><path class="cls-8" d="M67.24,199.21a.82.82,0,0,0-.08-.35.74.74,0,0,0-.33-.29,2.77,2.77,0,0,0-.74-.24,4.36,4.36,0,0,1-1-.29,1.61,1.61,0,0,1-.63-.46,1,1,0,0,1-.22-.69,1.26,1.26,0,0,1,.23-.73,1.57,1.57,0,0,1,.65-.53,2.17,2.17,0,0,1,1-.21,2.3,2.3,0,0,1,1,.22,1.53,1.53,0,0,1,.66.56,1.46,1.46,0,0,1,.23.79h-.87a.83.83,0,0,0-.27-.59,1,1,0,0,0-.78-.28,1.31,1.31,0,0,0-.57.11.7.7,0,0,0-.42.63.55.55,0,0,0,.09.32.72.72,0,0,0,.34.25,4.7,4.7,0,0,0,.72.21,4.67,4.67,0,0,1,1,.34,1.5,1.5,0,0,1,.59.47,1.19,1.19,0,0,1,.2.69,1.31,1.31,0,0,1-.24.78,1.57,1.57,0,0,1-.68.52,2.49,2.49,0,0,1-1,.19,2.41,2.41,0,0,1-1.12-.24,1.66,1.66,0,0,1-.69-.61,1.43,1.43,0,0,1-.24-.79H65a.88.88,0,0,0,.2.56.9.9,0,0,0,.45.29,1.69,1.69,0,0,0,.53.09,1.63,1.63,0,0,0,.59-.09.94.94,0,0,0,.37-.26A.63.63,0,0,0,67.24,199.21Z"/><path class="cls-8" d="M72.82,198.31a3.67,3.67,0,0,1-.19,1.19,1.7,1.7,0,0,1-.63.83,2,2,0,0,1-1.15.3,1.65,1.65,0,0,1-1.19-.44,1.9,1.9,0,0,1-.46-1.44v-3.23h.87v3.24a1.52,1.52,0,0,0,.13.71.74.74,0,0,0,.34.34,1.18,1.18,0,0,0,.45.1,1.6,1.6,0,0,0,.87-.22,1.16,1.16,0,0,0,.45-.57,2.07,2.07,0,0,0,.14-.8Zm-.53-2.79h.87v5h-.83l0-1.16Z"/><path class="cls-8" d="M75.32,200.54h-.87v-5h.82l0,1Zm-.58-2.72a3.17,3.17,0,0,1,.23-1.23,1.93,1.93,0,0,1,.69-.85,1.9,1.9,0,0,1,1.12-.32,1.68,1.68,0,0,1,1.17.42,1.74,1.74,0,0,1,.45,1.35v3.35h-.86v-3.31a1.41,1.41,0,0,0-.13-.63.86.86,0,0,0-.38-.35,1.4,1.4,0,0,0-.56-.11,1.33,1.33,0,0,0-.63.14,1,1,0,0,0-.41.37,1.86,1.86,0,0,0-.22.54,3.3,3.3,0,0,0-.07.64Zm3.08-.28a2.47,2.47,0,0,1,.23-1,1.9,1.9,0,0,1,.68-.78,1.86,1.86,0,0,1,1.08-.3,2.08,2.08,0,0,1,.91.19,1.21,1.21,0,0,1,.57.59,2.38,2.38,0,0,1,.2,1v3.3h-.87v-3.31a1.36,1.36,0,0,0-.13-.66.7.7,0,0,0-.37-.33,1.4,1.4,0,0,0-.56-.1,1.27,1.27,0,0,0-.5.1,1,1,0,0,0-.37.27,1.3,1.3,0,0,0-.22.38,1.45,1.45,0,0,0-.07.47Z"/><path class="cls-8" d="M82.79,194.18a.54.54,0,0,1,.13-.35.59.59,0,0,1,.76,0,.49.49,0,0,1,.13.35.53.53,0,0,1-.89.34A.51.51,0,0,1,82.79,194.18Zm.94,6.36h-.87v-5h.87Z"/><path class="cls-8" d="M86,200.54h-.87v-5h.83l0,1.07Zm-.56-2.72a2.85,2.85,0,0,1,.26-1.23,2.12,2.12,0,0,1,.71-.85,1.85,1.85,0,0,1,1.07-.32,1.87,1.87,0,0,1,.85.19,1.22,1.22,0,0,1,.56.58,2.44,2.44,0,0,1,.2,1.06v3.29h-.87v-3.3a1.46,1.46,0,0,0-.12-.64.7.7,0,0,0-.33-.35,1.28,1.28,0,0,0-.55-.11,1.24,1.24,0,0,0-.58.14,1.44,1.44,0,0,0-.45.37,1.76,1.76,0,0,0-.29.54,2,2,0,0,0-.1.64Z"/><path class="cls-8" d="M90.14,198a3.5,3.5,0,0,1,.24-1.35,2.15,2.15,0,0,1,.68-.9,1.8,1.8,0,0,1,1.06-.32,2,2,0,0,1,.83.17,1.63,1.63,0,0,1,.6.47,2.38,2.38,0,0,1,.4.76,5.24,5.24,0,0,1,.2,1v.45a4.16,4.16,0,0,1-.31,1.26,1.89,1.89,0,0,1-.67.82,1.84,1.84,0,0,1-1.06.29,1.68,1.68,0,0,1-1-.33,2.13,2.13,0,0,1-.69-.91,3.36,3.36,0,0,1-.24-1.31Zm4.24-2.47v4.91a2.22,2.22,0,0,1-.27,1.13,1.77,1.77,0,0,1-.75.71,2.33,2.33,0,0,1-1.11.25,3.1,3.1,0,0,1-.61-.08,2.64,2.64,0,0,1-.68-.28,1.67,1.67,0,0,1-.57-.52l.45-.5a1.86,1.86,0,0,0,.66.53,1.72,1.72,0,0,0,.69.15,1.22,1.22,0,0,0,1.32-1.35v-3.85l.08-1.1ZM91,198.08a3,3,0,0,0,.14.92,1.44,1.44,0,0,0,.43.66,1.16,1.16,0,0,0,.76.25,1.28,1.28,0,0,0,.7-.19,1.41,1.41,0,0,0,.44-.47,3.39,3.39,0,0,0,.26-.65v-1.13a2.81,2.81,0,0,0-.16-.49,1.73,1.73,0,0,0-.27-.43,1.4,1.4,0,0,0-.41-.3,1.36,1.36,0,0,0-.56-.11,1.18,1.18,0,0,0-.76.25,1.5,1.5,0,0,0-.43.67A3,3,0,0,0,91,198Z"/><path class="cls-8" d="M101.15,198.1h-.86a2.26,2.26,0,0,0-1.14.23.75.75,0,0,0-.4.69.89.89,0,0,0,.25.62,1,1,0,0,0,.71.25,1.45,1.45,0,0,0,.7-.17,1.35,1.35,0,0,0,.47-.41.91.91,0,0,0,.19-.48l.38.42a1.65,1.65,0,0,1-.18.43,2,2,0,0,1-.38.45,2.31,2.31,0,0,1-.57.36,1.91,1.91,0,0,1-.74.14,2,2,0,0,1-.89-.2,1.52,1.52,0,0,1-.59-.53,1.43,1.43,0,0,1-.21-.76,1.39,1.39,0,0,1,.61-1.23,2.88,2.88,0,0,1,1.65-.42h1Zm-.16-1a1,1,0,0,0-.27-.71,1,1,0,0,0-.78-.27,1.45,1.45,0,0,0-.57.11,1,1,0,0,0-.37.29.67.67,0,0,0-.14.4H98a1.2,1.2,0,0,1,.25-.7,1.79,1.79,0,0,1,.69-.57,2.62,2.62,0,0,1,2,0,1.45,1.45,0,0,1,.66.56,1.69,1.69,0,0,1,.24.93v2.34a3.23,3.23,0,0,0,0,.53,2.46,2.46,0,0,0,.13.49v.08h-.9a1.66,1.66,0,0,1-.1-.4,2.6,2.6,0,0,1,0-.46Z"/><path class="cls-8" d="M108.3,200.54h-.87v-5.73l-1.73.63v-.77l2.46-.92h.14Z"/><path class="cls-8" d="M112.06,196.93h.74a3.18,3.18,0,0,1,1.06.15,1.7,1.7,0,0,1,.67.41,1.4,1.4,0,0,1,.34.55,2.08,2.08,0,0,1-.18,1.68,1.85,1.85,0,0,1-.76.68,2.61,2.61,0,0,1-1.1.23,2.53,2.53,0,0,1-.83-.13,2,2,0,0,1-.68-.36,1.66,1.66,0,0,1-.46-.59,1.85,1.85,0,0,1-.17-.8h.87a1.24,1.24,0,0,0,.15.62,1,1,0,0,0,.44.41,1.45,1.45,0,0,0,.68.15,1.29,1.29,0,0,0,.93-.31,1.49,1.49,0,0,0,.17-1.64,1,1,0,0,0-.5-.41,1.9,1.9,0,0,0-.75-.13h-.62Zm.62-.19a1.65,1.65,0,0,0,.74-.15,1.05,1.05,0,0,0,.44-.42,1.25,1.25,0,0,0,.14-.59,1.39,1.39,0,0,0-.13-.65.82.82,0,0,0-.39-.41,1.39,1.39,0,0,0-.65-.13,1.34,1.34,0,0,0-.64.14,1,1,0,0,0-.42.4,1.15,1.15,0,0,0-.16.62h-.86a1.69,1.69,0,0,1,.26-.94,1.87,1.87,0,0,1,.72-.67,2.29,2.29,0,0,1,1.1-.25,2.41,2.41,0,0,1,1.07.22,1.56,1.56,0,0,1,.71.63,2.06,2.06,0,0,1,.26,1.06,1.39,1.39,0,0,1-.12.54,1.58,1.58,0,0,1-.37.54,1.78,1.78,0,0,1-.64.42,2.64,2.64,0,0,1-.94.16h-.74v-.52Z"/><path class="cls-8" d="M116.26,200.09a.48.48,0,0,1,.53-.52.51.51,0,0,1,.4.15.53.53,0,0,1,.14.37.48.48,0,0,1-.14.35.51.51,0,0,1-.4.15.52.52,0,0,1-.4-.15A.48.48,0,0,1,116.26,200.09Z"/><path class="cls-8" d="M119.05,197.15l.35-3.37h3.46v.79h-2.73l-.2,1.85a2.36,2.36,0,0,1,.47-.2,2.16,2.16,0,0,1,.65-.1,2,2,0,0,1,1.07.28,1.86,1.86,0,0,1,.7.79,2.72,2.72,0,0,1,.24,1.19,2.86,2.86,0,0,1-.23,1.16,1.83,1.83,0,0,1-.71.8,2.29,2.29,0,0,1-1.2.29,2.76,2.76,0,0,1-.77-.11,2.14,2.14,0,0,1-.65-.35,1.81,1.81,0,0,1-.46-.59,2,2,0,0,1-.23-.82h.82a1.38,1.38,0,0,0,.42.87,1.24,1.24,0,0,0,.87.3,1.27,1.27,0,0,0,.69-.18,1.24,1.24,0,0,0,.44-.54,2.23,2.23,0,0,0,.14-.82,1.84,1.84,0,0,0-.15-.76,1.22,1.22,0,0,0-.46-.54,1.3,1.3,0,0,0-.73-.2,1.52,1.52,0,0,0-.65.11,2.5,2.5,0,0,0-.45.32Z"/><path class="cls-8" d="M128.37,194.26l-2.8,6.28h-.91l2.79-6.06H123.8v-.7h4.57Z"/><path class="cls-8" d="M129.26,195.08a1.48,1.48,0,0,1,.17-.7,1.22,1.22,0,0,1,.48-.5,1.36,1.36,0,0,1,.74-.2,1.34,1.34,0,0,1,.74.2,1.22,1.22,0,0,1,.48.5,1.48,1.48,0,0,1,.17.7v.36a1.47,1.47,0,0,1-.17.69,1.26,1.26,0,0,1-.47.5,1.49,1.49,0,0,1-1.49,0,1.22,1.22,0,0,1-.48-.5,1.47,1.47,0,0,1-.17-.69Zm.65.36a1.1,1.1,0,0,0,.08.4.76.76,0,0,0,.25.31.7.7,0,0,0,.42.12.69.69,0,0,0,.41-.12.67.67,0,0,0,.24-.31,1.1,1.1,0,0,0,.08-.4v-.36a1.15,1.15,0,0,0-.08-.41.76.76,0,0,0-.25-.31.69.69,0,0,0-.41-.12.66.66,0,0,0-.41.12.76.76,0,0,0-.25.31,1.15,1.15,0,0,0-.08.41Zm.94,4.58-.49-.31,3.3-5.27.49.3Zm1.7-1.14a1.51,1.51,0,0,1,.17-.7,1.33,1.33,0,0,1,.47-.5,1.56,1.56,0,0,1,1.49,0,1.33,1.33,0,0,1,.47.5,1.4,1.4,0,0,1,.17.7v.36a1.47,1.47,0,0,1-.16.7,1.22,1.22,0,0,1-.48.5,1.34,1.34,0,0,1-.74.19,1.38,1.38,0,0,1-.74-.19,1.22,1.22,0,0,1-.48-.5,1.48,1.48,0,0,1-.17-.7Zm.65.36a1,1,0,0,0,.08.41.74.74,0,0,0,1.08.31.74.74,0,0,0,.24-.31,1.11,1.11,0,0,0,.08-.41v-.36a.92.92,0,0,0-.19-.58.72.72,0,0,0-1.11,0,1,1,0,0,0-.18.58Z"/><path class="cls-8" d="M141.86,198.1H141a2.24,2.24,0,0,0-1.13.23.75.75,0,0,0-.4.69.84.84,0,0,0,.25.62,1,1,0,0,0,.71.25,1.48,1.48,0,0,0,.7-.17,1.35,1.35,0,0,0,.47-.41.91.91,0,0,0,.19-.48l.37.42a1.32,1.32,0,0,1-.17.43,2.27,2.27,0,0,1-.38.45,2.31,2.31,0,0,1-.57.36,1.91,1.91,0,0,1-.74.14,2,2,0,0,1-.89-.2,1.52,1.52,0,0,1-.59-.53,1.43,1.43,0,0,1-.21-.76,1.39,1.39,0,0,1,.61-1.23,2.88,2.88,0,0,1,1.65-.42h1Zm-.16-1a1,1,0,0,0-.27-.71,1.06,1.06,0,0,0-.78-.27,1.45,1.45,0,0,0-.57.11.92.92,0,0,0-.37.29.67.67,0,0,0-.14.4h-.87a1.2,1.2,0,0,1,.25-.7,1.79,1.79,0,0,1,.69-.57,2.62,2.62,0,0,1,2,0,1.45,1.45,0,0,1,.66.56,1.69,1.69,0,0,1,.24.93v2.34a3.23,3.23,0,0,0,0,.53,1.93,1.93,0,0,0,.13.49v.08h-.9a1.66,1.66,0,0,1-.1-.4,2.6,2.6,0,0,1,0-.46Z"/><path class="cls-8" d="M144.78,200.54h-.87v-5h.82l.05,1.07Zm-.57-2.72a3,3,0,0,1,.27-1.23,2.12,2.12,0,0,1,.71-.85,1.82,1.82,0,0,1,1.06-.32,1.88,1.88,0,0,1,.86.19,1.22,1.22,0,0,1,.56.58,2.45,2.45,0,0,1,.19,1.06v3.29H147v-3.3a1.46,1.46,0,0,0-.12-.64.7.7,0,0,0-.33-.35,1.28,1.28,0,0,0-.55-.11,1.24,1.24,0,0,0-.58.14,1.44,1.44,0,0,0-.45.37,1.76,1.76,0,0,0-.29.54,2,2,0,0,0-.1.64Z"/><path class="cls-8" d="M150,200.54h-.87v-5H150l.05,1.07Zm-.57-2.72a3,3,0,0,1,.26-1.23,2.07,2.07,0,0,1,.72-.85,1.82,1.82,0,0,1,1.06-.32,1.91,1.91,0,0,1,.86.19,1.2,1.2,0,0,1,.55.58,2.44,2.44,0,0,1,.2,1.06v3.29h-.87v-3.3a1.47,1.47,0,0,0-.11-.64.77.77,0,0,0-.34-.35,1.24,1.24,0,0,0-.54-.11,1.21,1.21,0,0,0-.58.14,1.24,1.24,0,0,0-.45.37,1.78,1.78,0,0,0-.3.54,2.25,2.25,0,0,0-.1.64Z"/><path class="cls-8" d="M158,198.31a3.42,3.42,0,0,1-.19,1.19,1.68,1.68,0,0,1-.62.83,2,2,0,0,1-1.16.3,1.65,1.65,0,0,1-1.19-.44,1.94,1.94,0,0,1-.45-1.44v-3.23h.86v3.24a1.51,1.51,0,0,0,.14.71.7.7,0,0,0,.34.34,1.13,1.13,0,0,0,.44.1,1.55,1.55,0,0,0,.87-.22,1.17,1.17,0,0,0,.46-.57,2.28,2.28,0,0,0,.14-.8Zm-.52-2.79h.86v5h-.82l0-1.16Z"/><path class="cls-8" d="M162.76,198.1h-.86a2.26,2.26,0,0,0-1.14.23.74.74,0,0,0-.39.69.88.88,0,0,0,.24.62,1,1,0,0,0,.71.25,1.45,1.45,0,0,0,.7-.17,1.35,1.35,0,0,0,.47-.41.94.94,0,0,0,.2-.48l.37.42a1.37,1.37,0,0,1-.18.43,2,2,0,0,1-.38.45,2.31,2.31,0,0,1-.57.36,1.9,1.9,0,0,1-.73.14,2,2,0,0,1-.9-.2,1.52,1.52,0,0,1-.59-.53,1.43,1.43,0,0,1-.21-.76,1.39,1.39,0,0,1,.61-1.23,2.88,2.88,0,0,1,1.65-.42h1Zm-.16-1a1,1,0,0,0-.27-.71,1,1,0,0,0-.78-.27,1.48,1.48,0,0,0-.57.11,1,1,0,0,0-.37.29.67.67,0,0,0-.14.4h-.87a1.2,1.2,0,0,1,.25-.7,1.87,1.87,0,0,1,.69-.57,2.62,2.62,0,0,1,2,0,1.45,1.45,0,0,1,.66.56,1.69,1.69,0,0,1,.24.93v2.34a3.23,3.23,0,0,0,0,.53,1.91,1.91,0,0,0,.14.49v.08h-.91a1.66,1.66,0,0,1-.1-.4,2.6,2.6,0,0,1,0-.46Z"/><path class="cls-8" d="M165.76,200.54h-.87v-7.13h.87Z"/><path class="cls-8" d="M170.35,200.54h-.87v-5h.84l0,.79Zm1.56-4.26-.21,0h-.21a1.28,1.28,0,0,0-.67.16,1.14,1.14,0,0,0-.42.45,1.64,1.64,0,0,0-.18.65l-.25.14a3.81,3.81,0,0,1,.16-1.11,1.76,1.76,0,0,1,.51-.81,1.32,1.32,0,0,1,.89-.31l.21,0a.47.47,0,0,1,.17,0Z"/><path class="cls-8" d="M174.79,200.63a2.38,2.38,0,0,1-1.22-.31,2.21,2.21,0,0,1-.8-.86,2.72,2.72,0,0,1-.29-1.26V198a2.86,2.86,0,0,1,.32-1.39,2.17,2.17,0,0,1,.81-.88,2.07,2.07,0,0,1,1.07-.31,2,2,0,0,1,1.18.33,1.83,1.83,0,0,1,.67.87,3.54,3.54,0,0,1,.22,1.26v.38H173v-.69h2.88v-.07a2.1,2.1,0,0,0-.14-.65,1.09,1.09,0,0,0-.37-.52,1.05,1.05,0,0,0-.69-.21,1.12,1.12,0,0,0-.69.22,1.43,1.43,0,0,0-.47.64,2.79,2.79,0,0,0-.17,1v.2a2.05,2.05,0,0,0,.18.87,1.43,1.43,0,0,0,.51.63,1.29,1.29,0,0,0,.79.23,1.51,1.51,0,0,0,.77-.18,2,2,0,0,0,.56-.5l.52.41a2.33,2.33,0,0,1-.69.67A2.13,2.13,0,0,1,174.79,200.63Z"/><path class="cls-8" d="M179.85,196.17h-2.72v-.65h2.72Zm-.93-1.87v5a.77.77,0,0,0,.07.39.37.37,0,0,0,.21.17.76.76,0,0,0,.27.05l.22,0,.18,0v.7l-.27.06a2.21,2.21,0,0,1-.39,0,1.24,1.24,0,0,1-.58-.13.86.86,0,0,1-.42-.42,1.6,1.6,0,0,1-.16-.79v-5Z"/><path class="cls-8" d="M184.44,198.31a3.42,3.42,0,0,1-.19,1.19,1.63,1.63,0,0,1-.62.83,2,2,0,0,1-1.15.3,1.65,1.65,0,0,1-1.19-.44,1.9,1.9,0,0,1-.46-1.44v-3.23h.87v3.24a1.52,1.52,0,0,0,.13.71.74.74,0,0,0,.34.34,1.14,1.14,0,0,0,.45.1,1.54,1.54,0,0,0,.86-.22,1.12,1.12,0,0,0,.46-.57,2.07,2.07,0,0,0,.14-.8Zm-.52-2.79h.87v5H184l0-1.16Z"/><path class="cls-8" d="M187,200.54h-.86v-5h.84l0,.79Zm1.57-4.26-.21,0h-.21a1.26,1.26,0,0,0-.67.16,1.14,1.14,0,0,0-.42.45,1.83,1.83,0,0,0-.19.65l-.24.14a3.5,3.5,0,0,1,.16-1.11,1.76,1.76,0,0,1,.51-.81,1.32,1.32,0,0,1,.89-.31l.21,0a.47.47,0,0,1,.17,0Z"/><path class="cls-8" d="M190.17,200.54h-.86v-5h.82l0,1.07Zm-.56-2.72a2.85,2.85,0,0,1,.26-1.23,2.12,2.12,0,0,1,.71-.85,2,2,0,0,1,1.92-.13,1.22,1.22,0,0,1,.56.58,2.44,2.44,0,0,1,.2,1.06v3.29h-.87v-3.3a1.64,1.64,0,0,0-.11-.64.77.77,0,0,0-.34-.35,1.34,1.34,0,0,0-1.13,0,1.44,1.44,0,0,0-.45.37,2,2,0,0,0-.29.54,2,2,0,0,0-.1.64Z"/><path class="cls-8" d="M196.69,198a3.07,3.07,0,0,1,.27-1.31,2.33,2.33,0,0,1,.79-.91,2.36,2.36,0,0,1,2.44,0,2.25,2.25,0,0,1,.79.91,3.07,3.07,0,0,1,.28,1.31v.1a3,3,0,0,1-.28,1.3,2.15,2.15,0,0,1-2,1.25,2.1,2.1,0,0,1-1.21-.34,2.15,2.15,0,0,1-.8-.91,3,3,0,0,1-.27-1.3Zm.86.1a2.73,2.73,0,0,0,.16.92,1.6,1.6,0,0,0,.47.68,1.37,1.37,0,0,0,1.58,0,1.52,1.52,0,0,0,.47-.68,2.51,2.51,0,0,0,.16-.92V198a2.47,2.47,0,0,0-.16-.92,1.52,1.52,0,0,0-.47-.68,1.24,1.24,0,0,0-.8-.26,1.2,1.2,0,0,0-.78.26,1.52,1.52,0,0,0-.47.68,2.69,2.69,0,0,0-.16.92Z"/><path class="cls-8" d="M203.2,200.54h-.87v-5h.82l0,1.07Zm-.57-2.72a3,3,0,0,1,.27-1.23,2.12,2.12,0,0,1,.71-.85,1.82,1.82,0,0,1,1.06-.32,1.88,1.88,0,0,1,.86.19,1.22,1.22,0,0,1,.56.58,2.45,2.45,0,0,1,.19,1.06v3.29h-.86v-3.3a1.46,1.46,0,0,0-.12-.64.7.7,0,0,0-.33-.35,1.28,1.28,0,0,0-.55-.11,1.24,1.24,0,0,0-.58.14,1.44,1.44,0,0,0-.45.37,1.76,1.76,0,0,0-.29.54,2,2,0,0,0-.1.64Z"/><path class="cls-8" d="M211.63,199.42l.22.9-.62.31-1.84-5.11h.94Zm1.11-3.9h.92l-2,5.79c-.05.12-.11.26-.18.4a1.91,1.91,0,0,1-.29.41,1.46,1.46,0,0,1-.42.32,1.4,1.4,0,0,1-.6.12H210l-.19,0-.14,0v-.69h.24a1.14,1.14,0,0,0,.68-.18,1.31,1.31,0,0,0,.4-.64l.35-1Z"/><path class="cls-8" d="M214.21,198a2.93,2.93,0,0,1,.28-1.31,2.23,2.23,0,0,1,.78-.91,2.36,2.36,0,0,1,2.44,0,2.25,2.25,0,0,1,.79.91,3.07,3.07,0,0,1,.28,1.31v.1a3,3,0,0,1-.28,1.3,2.15,2.15,0,0,1-2,1.25,2.1,2.1,0,0,1-1.21-.34,2.06,2.06,0,0,1-.79-.91,2.89,2.89,0,0,1-.28-1.3Zm.86.1a2.73,2.73,0,0,0,.16.92,1.6,1.6,0,0,0,.47.68,1.22,1.22,0,0,0,.79.25,1.21,1.21,0,0,0,.79-.25,1.52,1.52,0,0,0,.47-.68,2.51,2.51,0,0,0,.16-.92V198a2.47,2.47,0,0,0-.16-.92,1.52,1.52,0,0,0-.47-.68,1.24,1.24,0,0,0-.8-.26,1.2,1.2,0,0,0-.78.26,1.52,1.52,0,0,0-.47.68,2.69,2.69,0,0,0-.16.92Z"/><path class="cls-8" d="M223.45,198.31a3.67,3.67,0,0,1-.19,1.19,1.74,1.74,0,0,1-.62.83,2,2,0,0,1-1.16.3,1.65,1.65,0,0,1-1.19-.44,1.9,1.9,0,0,1-.46-1.44v-3.23h.87v3.24a1.66,1.66,0,0,0,.13.71.76.76,0,0,0,.35.34,1.09,1.09,0,0,0,.44.1,1.6,1.6,0,0,0,.87-.22,1.23,1.23,0,0,0,.46-.57,2.28,2.28,0,0,0,.14-.8Zm-.53-2.79h.87v5H223l0-1.16Z"/><path class="cls-8" d="M226,200.54h-.87v-5h.84l0,.79Zm1.56-4.26-.21,0h-.21a1.26,1.26,0,0,0-.67.16,1.14,1.14,0,0,0-.42.45,1.64,1.64,0,0,0-.18.65l-.25.14a3.5,3.5,0,0,1,.16-1.11,1.76,1.76,0,0,1,.51-.81,1.32,1.32,0,0,1,.89-.31l.21,0a.47.47,0,0,1,.17,0Z"/><path class="cls-8" d="M230.67,194.18a.54.54,0,0,1,.13-.35.59.59,0,0,1,.76,0,.49.49,0,0,1,.13.35.53.53,0,0,1-.89.34A.51.51,0,0,1,230.67,194.18Zm.94,6.36h-.87v-5h.87Z"/><path class="cls-8" d="M233.84,200.54H233v-5h.83l0,1.07Zm-.56-2.72a2.85,2.85,0,0,1,.26-1.23,2.12,2.12,0,0,1,.71-.85,1.85,1.85,0,0,1,1.07-.32,1.87,1.87,0,0,1,.85.19,1.22,1.22,0,0,1,.56.58,2.44,2.44,0,0,1,.2,1.06v3.29h-.87v-3.3a1.64,1.64,0,0,0-.11-.64.77.77,0,0,0-.34-.35,1.34,1.34,0,0,0-1.13,0,1.44,1.44,0,0,0-.45.37,2,2,0,0,0-.29.54,2,2,0,0,0-.1.64Z"/><path class="cls-8" d="M240,199.79l.1.75h-.58l-1.81-5h.88Zm1.1-4.27H242l-1.8,5h-.58l.13-.77Z"/><path class="cls-8" d="M244.91,200.63a2.36,2.36,0,0,1-1.21-.31,2.16,2.16,0,0,1-.81-.86,2.72,2.72,0,0,1-.28-1.26V198a2.86,2.86,0,0,1,.31-1.39,2.19,2.19,0,0,1,.82-.88,2,2,0,0,1,1.06-.31,1.94,1.94,0,0,1,1.18.33,1.85,1.85,0,0,1,.68.87,3.54,3.54,0,0,1,.21,1.26v.38h-3.75v-.69H246v-.07a2.09,2.09,0,0,0-.13-.65,1.16,1.16,0,0,0-.37-.52,1.06,1.06,0,0,0-.7-.21,1.12,1.12,0,0,0-.69.22,1.49,1.49,0,0,0-.46.64,2.59,2.59,0,0,0-.17,1v.2a2.21,2.21,0,0,0,.17.87,1.58,1.58,0,0,0,.51.63,1.35,1.35,0,0,0,.8.23,1.54,1.54,0,0,0,.77-.18,2,2,0,0,0,.55-.5l.53.41a2.26,2.26,0,0,1-.7.67A2.13,2.13,0,0,1,244.91,200.63Z"/><path class="cls-8" d="M250.79,199.21a.82.82,0,0,0-.08-.35.69.69,0,0,0-.33-.29,2.77,2.77,0,0,0-.74-.24,4.36,4.36,0,0,1-1-.29,1.61,1.61,0,0,1-.63-.46,1.1,1.1,0,0,1-.22-.69,1.26,1.26,0,0,1,.23-.73,1.64,1.64,0,0,1,.65-.53,2.17,2.17,0,0,1,1-.21,2.3,2.3,0,0,1,1,.22,1.53,1.53,0,0,1,.66.56,1.46,1.46,0,0,1,.23.79h-.87a.83.83,0,0,0-.27-.59,1,1,0,0,0-.78-.28,1.35,1.35,0,0,0-.57.11.68.68,0,0,0-.32.28.64.64,0,0,0-.1.35.55.55,0,0,0,.09.32.72.72,0,0,0,.34.25,4.7,4.7,0,0,0,.72.21,4.49,4.49,0,0,1,1,.34,1.43,1.43,0,0,1,.59.47,1.19,1.19,0,0,1,.2.69,1.31,1.31,0,0,1-.24.78,1.57,1.57,0,0,1-.68.52,2.48,2.48,0,0,1-1,.19,2.42,2.42,0,0,1-1.13-.24,1.79,1.79,0,0,1-.69-.61,1.43,1.43,0,0,1-.24-.79h.87a.88.88,0,0,0,.2.56,1,1,0,0,0,.45.29,1.82,1.82,0,0,0,1.13,0,.84.84,0,0,0,.36-.26A.63.63,0,0,0,250.79,199.21Z"/><path class="cls-8" d="M254.88,196.17h-2.71v-.65h2.71ZM254,194.3v5a.77.77,0,0,0,.07.39.37.37,0,0,0,.21.17.76.76,0,0,0,.27.05l.22,0,.18,0v.7l-.27.06a2.21,2.21,0,0,1-.39,0,1.24,1.24,0,0,1-.58-.13.86.86,0,0,1-.42-.42,1.6,1.6,0,0,1-.16-.79v-5Z"/><path class="cls-8" d="M256.74,200.54h-.86v-5h.82l0,1Zm-.58-2.72a3.37,3.37,0,0,1,.24-1.23,1.91,1.91,0,0,1,.68-.85,1.93,1.93,0,0,1,1.13-.32,1.67,1.67,0,0,1,1.16.42,1.71,1.71,0,0,1,.46,1.35v3.35H259v-3.31a1.28,1.28,0,0,0-.13-.63.83.83,0,0,0-.37-.35,1.45,1.45,0,0,0-.57-.11,1.33,1.33,0,0,0-.63.14,1.12,1.12,0,0,0-.41.37,1.86,1.86,0,0,0-.22.54,3.31,3.31,0,0,0-.06.64Zm3.08-.28a2.47,2.47,0,0,1,.23-1,2,2,0,0,1,.68-.78,1.9,1.9,0,0,1,1.08-.3,2.12,2.12,0,0,1,.92.19,1.3,1.3,0,0,1,.57.59,2.39,2.39,0,0,1,.19,1v3.3h-.86v-3.31a1.35,1.35,0,0,0-.14-.66.66.66,0,0,0-.37-.33,1.37,1.37,0,0,0-.56-.1,1.27,1.27,0,0,0-.5.1,1.07,1.07,0,0,0-.36.27,1.11,1.11,0,0,0-.22.38,1.22,1.22,0,0,0-.08.47Z"/><path class="cls-8" d="M266.29,200.63a2.36,2.36,0,0,1-1.21-.31,2.16,2.16,0,0,1-.81-.86,2.72,2.72,0,0,1-.28-1.26V198a2.86,2.86,0,0,1,.31-1.39,2.19,2.19,0,0,1,.82-.88,2,2,0,0,1,1.06-.31,1.94,1.94,0,0,1,1.18.33,1.85,1.85,0,0,1,.68.87,3.54,3.54,0,0,1,.21,1.26v.38H264.5v-.69h2.88v-.07a2.09,2.09,0,0,0-.13-.65,1.16,1.16,0,0,0-.37-.52,1.06,1.06,0,0,0-.7-.21,1.12,1.12,0,0,0-.69.22,1.41,1.41,0,0,0-.46.64,2.59,2.59,0,0,0-.17,1v.2a2.21,2.21,0,0,0,.17.87,1.58,1.58,0,0,0,.51.63,1.35,1.35,0,0,0,.8.23,1.54,1.54,0,0,0,.77-.18,2,2,0,0,0,.55-.5l.53.41a2.37,2.37,0,0,1-.7.67A2.13,2.13,0,0,1,266.29,200.63Z"/><path class="cls-8" d="M270.12,200.54h-.87v-5h.82l.05,1.07Zm-.57-2.72a3.17,3.17,0,0,1,.26-1.23,2.07,2.07,0,0,1,.72-.85,1.82,1.82,0,0,1,1.06-.32,1.91,1.91,0,0,1,.86.19,1.2,1.2,0,0,1,.55.58,2.3,2.3,0,0,1,.2,1.06v3.29h-.87v-3.3a1.47,1.47,0,0,0-.11-.64.77.77,0,0,0-.34-.35,1.24,1.24,0,0,0-.54-.11,1.21,1.21,0,0,0-.58.14,1.24,1.24,0,0,0-.45.37,1.78,1.78,0,0,0-.3.54,2.25,2.25,0,0,0-.1.64Z"/><path class="cls-8" d="M276.61,196.17h-2.72v-.65h2.72Zm-.94-1.87v5a.76.76,0,0,0,.08.39.33.33,0,0,0,.2.17.86.86,0,0,0,.27.05l.23,0,.17,0v.7l-.26.06a2.25,2.25,0,0,1-.4,0,1.27,1.27,0,0,1-.58-.13.9.9,0,0,1-.42-.42,1.6,1.6,0,0,1-.16-.79v-5Z"/><path class="cls-8" d="M280.53,199.21a.69.69,0,0,0-.41-.64,2.9,2.9,0,0,0-.74-.24,4.3,4.3,0,0,1-1-.29,1.51,1.51,0,0,1-.62-.46,1,1,0,0,1-.22-.69,1.2,1.2,0,0,1,.23-.73,1.57,1.57,0,0,1,.65-.53,2.15,2.15,0,0,1,1-.21,2.34,2.34,0,0,1,1,.22,1.65,1.65,0,0,1,.66.56,1.45,1.45,0,0,1,.22.79h-.87a.83.83,0,0,0-.27-.59,1,1,0,0,0-.77-.28,1.36,1.36,0,0,0-.58.11.7.7,0,0,0-.42.63.49.49,0,0,0,.1.32.67.67,0,0,0,.34.25,4.1,4.1,0,0,0,.72.21,4.39,4.39,0,0,1,1,.34,1.47,1.47,0,0,1,.6.47,1.19,1.19,0,0,1,.19.69,1.31,1.31,0,0,1-.24.78,1.51,1.51,0,0,1-.68.52,2.48,2.48,0,0,1-1,.19,2.38,2.38,0,0,1-1.12-.24,1.76,1.76,0,0,1-.7-.61,1.43,1.43,0,0,1-.24-.79h.87a1,1,0,0,0,.21.56.9.9,0,0,0,.45.29,1.64,1.64,0,0,0,.53.09,1.7,1.7,0,0,0,.59-.09.84.84,0,0,0,.36-.26A.64.64,0,0,0,280.53,199.21Z"/><path class="cls-9" d="M51.1,171.23v-3.92H63.54v3.92Zm0,9.14v-4.05h17v4.05Zm7.7-7.09a4.94,4.94,0,0,1-.67,2.68,5.12,5.12,0,0,1-2.39,1.83l-3.14-1.47a1.12,1.12,0,0,0,.73-.55,2.61,2.61,0,0,0,.31-1,11.5,11.5,0,0,0,.07-1.18l-.31-9.84a7.34,7.34,0,0,1,.92-3.77,6.07,6.07,0,0,1,2.55-2.39,8.53,8.53,0,0,1,3.82-.82,7.53,7.53,0,0,1,5.45,1.85,6.49,6.49,0,0,1,1.89,4.87H63.3a3.12,3.12,0,0,0-.35-1.59,1.91,1.91,0,0,0-.93-.83,3.1,3.1,0,0,0-1.27-.25,2.09,2.09,0,0,0-1.64.73,3.23,3.23,0,0,0-.65,2.2Z"/><path class="cls-9" d="M86.65,180.37H70.59v-3.3l7.53-8a24.59,24.59,0,0,0,1.77-2.14,7.69,7.69,0,0,0,.92-1.67,4.17,4.17,0,0,0,.27-1.41,3.5,3.5,0,0,0-.75-2.38,2.67,2.67,0,0,0-2.13-.85,3,3,0,0,0-1.76.5,3.21,3.21,0,0,0-1.1,1.36,4.86,4.86,0,0,0-.38,2H70.13a7.7,7.7,0,0,1,1-3.86,7.39,7.39,0,0,1,2.83-2.8,8.58,8.58,0,0,1,4.34-1.05A8.17,8.17,0,0,1,84,158.5a6.27,6.27,0,0,1,2,4.89,7.48,7.48,0,0,1-.64,3,13.45,13.45,0,0,1-1.82,2.9c-.78,1-1.7,2-2.76,3.1l-3.87,4.07h9.81Z"/><path class="cls-9" d="M105.24,174a6.09,6.09,0,0,1-3.84,6,10.3,10.3,0,0,1-4.05.76,10.51,10.51,0,0,1-4.07-.76,6.48,6.48,0,0,1-2.85-2.26A6.33,6.33,0,0,1,89.38,174a5.84,5.84,0,0,1,1-3.45,6.74,6.74,0,0,1,2.84-2.26,10.85,10.85,0,0,1,8.13,0,6.68,6.68,0,0,1,2.82,2.26A5.84,5.84,0,0,1,105.24,174Zm-.49-10.68a5.41,5.41,0,0,1-1,3.16,6.22,6.22,0,0,1-2.61,2.14,10,10,0,0,1-7.7,0,6.28,6.28,0,0,1-2.65-2.14,5.35,5.35,0,0,1-1-3.16,6.35,6.35,0,0,1,1-3.58,6,6,0,0,1,2.64-2.21,10.26,10.26,0,0,1,7.7,0,5.93,5.93,0,0,1,2.62,2.21A6.43,6.43,0,0,1,104.75,163.27Zm-4.34,10.33a3.68,3.68,0,0,0-.38-1.73A2.75,2.75,0,0,0,99,170.76a3.41,3.41,0,0,0-1.63-.38,3.34,3.34,0,0,0-1.62.38,2.63,2.63,0,0,0-1.08,1.11,3.57,3.57,0,0,0-.39,1.73,3.47,3.47,0,0,0,.39,1.7,2.71,2.71,0,0,0,1.09,1.11,3.29,3.29,0,0,0,1.64.39,3.24,3.24,0,0,0,1.62-.39A2.7,2.7,0,0,0,100,175.3,3.47,3.47,0,0,0,100.41,173.6Zm-.48-10.09a3.44,3.44,0,0,0-.31-1.52,2.47,2.47,0,0,0-.89-1,2.51,2.51,0,0,0-1.41-.37,2.62,2.62,0,0,0-1.4.35,2.28,2.28,0,0,0-.89,1,3.65,3.65,0,0,0-.3,1.54,3.81,3.81,0,0,0,.3,1.56,2.45,2.45,0,0,0,.89,1,2.69,2.69,0,0,0,1.43.36,2.53,2.53,0,0,0,1.4-.36,2.5,2.5,0,0,0,.88-1A3.81,3.81,0,0,0,99.93,163.51Z"/><path class="cls-9" d="M113.05,167.8h3.28a11.64,11.64,0,0,1,3.35.43,7,7,0,0,1,2.42,1.21,5.14,5.14,0,0,1,1.47,1.91,6,6,0,0,1,.49,2.47,6.15,6.15,0,0,1-1.1,3.71,7,7,0,0,1-3,2.35,10.72,10.72,0,0,1-4.26.81,10.6,10.6,0,0,1-2.91-.41,8.15,8.15,0,0,1-2.57-1.23A6.06,6.06,0,0,1,108.4,177a6.16,6.16,0,0,1-.69-3h4.86a2.6,2.6,0,0,0,.43,1.45,3,3,0,0,0,1.16,1,3.65,3.65,0,0,0,1.68.38,3.49,3.49,0,0,0,2.49-.86,2.89,2.89,0,0,0,.9-2.2,3.77,3.77,0,0,0-.45-2,2.56,2.56,0,0,0-1.26-1.08,5.23,5.23,0,0,0-2-.34h-2.5Zm2.5-1.21a3.94,3.94,0,0,0,1.86-.39,2.45,2.45,0,0,0,1.09-1.09,3.54,3.54,0,0,0,.36-1.64,3.27,3.27,0,0,0-.32-1.46,2.46,2.46,0,0,0-1-1,3.48,3.48,0,0,0-1.7-.37,3.65,3.65,0,0,0-1.47.3,2.73,2.73,0,0,0-1.11.86,2.08,2.08,0,0,0-.41,1.3H108a5.57,5.57,0,0,1,1-3.36,6.94,6.94,0,0,1,2.8-2.21,9.34,9.34,0,0,1,3.86-.78,10.66,10.66,0,0,1,4.19.76,6.2,6.2,0,0,1,2.8,2.24,6.29,6.29,0,0,1,1,3.66,4.75,4.75,0,0,1-.52,2.17,5.69,5.69,0,0,1-1.48,1.86,7.12,7.12,0,0,1-2.32,1.29,8.89,8.89,0,0,1-3.06.49h-3.28v-2.61Z"/><path class="cls-9" d="M131.89,179.6a8.31,8.31,0,0,1-.91,3.71,9.31,9.31,0,0,1-2.31,3l-2.49-1.28.77-1.46a8,8,0,0,0,.65-1.66,7.73,7.73,0,0,0,.26-2.08v-3.5h4Z"/><path class="cls-9" d="M136,168.94l1.36-11.88H150.5v4h-9.21l-.56,4.83a8.61,8.61,0,0,1,1.36-.54,6.73,6.73,0,0,1,2.08-.31A7.47,7.47,0,0,1,148,166a6,6,0,0,1,2.43,2.68,9.74,9.74,0,0,1,.84,4.24,8.77,8.77,0,0,1-.86,3.83,6.78,6.78,0,0,1-2.62,2.88,8.25,8.25,0,0,1-4.44,1.1,9.45,9.45,0,0,1-3-.47,8.1,8.1,0,0,1-2.53-1.35,6.56,6.56,0,0,1-1.79-2.16,6.43,6.43,0,0,1-.69-2.87h4.8a3.22,3.22,0,0,0,1,2.16,3,3,0,0,0,2.17.8,2.78,2.78,0,0,0,1.83-.57,3.14,3.14,0,0,0,1-1.53,7.12,7.12,0,0,0,.3-2.13,5.1,5.1,0,0,0-.39-2.07,3,3,0,0,0-1.19-1.38,3.75,3.75,0,0,0-2.05-.5,3.71,3.71,0,0,0-1.9.4,5.08,5.08,0,0,0-1.11.86Z"/><path class="cls-9" d="M165.61,180.37h-4.83V162.78l-5.46,1.65v-3.91l9.8-3.49h.49Z"/><path class="cls-9" d="M188.85,174a6.09,6.09,0,0,1-3.84,6,11.22,11.22,0,0,1-8.12,0,6.48,6.48,0,0,1-2.85-2.26,6.33,6.33,0,0,1-1-3.72,5.84,5.84,0,0,1,1-3.45,6.71,6.71,0,0,1,2.83-2.26,10.85,10.85,0,0,1,8.13,0,6.65,6.65,0,0,1,2.83,2.26A5.84,5.84,0,0,1,188.85,174Zm-.5-10.68a5.4,5.4,0,0,1-.94,3.16,6.19,6.19,0,0,1-2.62,2.14,9.09,9.09,0,0,1-3.83.77,9.31,9.31,0,0,1-3.87-.77,6.31,6.31,0,0,1-2.64-2.14,5.35,5.35,0,0,1-1-3.16,6.35,6.35,0,0,1,1-3.58,6,6,0,0,1,2.64-2.21,9.33,9.33,0,0,1,3.84-.75,9.43,9.43,0,0,1,3.86.75,5.93,5.93,0,0,1,2.62,2.21A6.43,6.43,0,0,1,188.35,163.27ZM184,173.6a3.57,3.57,0,0,0-.39-1.73,2.63,2.63,0,0,0-1.08-1.11,3.34,3.34,0,0,0-1.62-.38,3.41,3.41,0,0,0-1.63.38,2.75,2.75,0,0,0-1.08,1.11,3.68,3.68,0,0,0-.38,1.73,3.59,3.59,0,0,0,.38,1.7,2.77,2.77,0,0,0,1.09,1.11,3.35,3.35,0,0,0,1.65.39,3.24,3.24,0,0,0,1.62-.39,2.7,2.7,0,0,0,1.06-1.11A3.59,3.59,0,0,0,184,173.6Zm-.48-10.09a3.44,3.44,0,0,0-.32-1.52,2.38,2.38,0,0,0-.88-1,2.56,2.56,0,0,0-1.41-.37,2.6,2.6,0,0,0-1.4.35,2.22,2.22,0,0,0-.89,1,3.65,3.65,0,0,0-.3,1.54,3.81,3.81,0,0,0,.3,1.56,2.38,2.38,0,0,0,.89,1,2.66,2.66,0,0,0,1.43.36,2.58,2.58,0,0,0,1.4-.36,2.41,2.41,0,0,0,.87-1A3.65,3.65,0,0,0,183.54,163.51Z"/></svg>