<svg viewBox="0 0 35 35" xmlns="http://www.w3.org/2000/svg" xmlns:xlink="http://www.w3.org/1999/xlink"><clipPath id="a"><path d="m1196.39 203.42a37.45 37.45 0 0 1 -14.3 18.68c-1.21.8-11.72 7.53-24.62 6-6.46-.79-8.63-3.06-15-2.26-6.1.76-6.27 3.14-12.72 4.47-9.9 2-12.84-2.86-18.7 0-6.33 3.06-4.9 9.73-11.24 12.7-4.12 1.93-7.07.2-15.71-1.52-4.28-.85-17-3.38-29.17-1.53-9.25 1.41-7.3 3.71-21.7 7.46-13.46 3.5-15 1.46-23.94 5.2-9.11 3.83-9.72 6.92-17.22 8.21s-9.12-1.39-16.45 0c-8 1.49-8.53 5.12-16.47 8.21-12.86 5-16.79-2.41-26.93 2.21-10.46 4.77-9.89 14.31-20.22 16.43-5.74 1.19-6.77-1.59-12.71 0-8.45 2.24-8.26 8.34-16.47 11.2-7.62 2.65-9.78-1.9-18 .73-7.47 2.4-6.18 6.37-15 10.45-5.42 2.52-10.6 3.17-20.95 4.46-9.05 1.14-9 .32-11.22 1.49-8.32 4.46-5.5 14.77-13.49 18.68-4.68 2.3-8.11 0-12.72 3.73a18 18 0 0 0 -4.49 6c-3.55 6.65-2.58 11.45-4.51 12-2.18.58-5.43-5-6-6-6.16-10.67-2.57-18.11-7.46-21.7-3.66-2.7-9.17-1.07-12.71 0-7 2.07-8.59 5.91-15 9.71-6.64 3.94-8 1.6-20.2 5.21-13.06 3.85-12.46 6.8-26.94 11.19-8.65 2.61-13 3.92-18 4.46-7.37.8-12.34.08-15.71 3.72-2.77 3-1.16 5.34-3.75 7.48-4.29 3.53-9.85-1.95-18 .73-4 1.33-3 2.8-9.73 6.72a62.12 62.12 0 0 1 -15 6c-6.37 1.86-7.23 1.41-13.46 3-6.71 1.68-9.57 3.18-18.71 6.71-10.73 4.15-16.1 6.22-21 7.45-20.5 5.21-24.93-3-37.4 3.7-3 1.59-4.3 2.89-18 11.2-5.06 3.07-6.27 3.74-8.23 4.48-6.4 2.4-8.68 1-18 3-6.17 1.32-5.64 2-11.22 3-5.8 1-7.67.39-12.72 1.48-3.38.73-3.43 1.17-10.48 3.72-7.77 2.82-12.82 4.65-19.45 6-6.19 1.24-7.14.71-10.48 2.24-5.27 2.42-5.47 4.93-9.73 6.72-6.12 2.56-8.13-1.61-15 0-8.37 1.95-8.16 8.86-17.22 10.45-.26.05 0 0-9.72.74-7.17.55-7.54.59-8.23.74-6.46 1.33-6.33 3.88-12 5.22-2.47.58-2.56 0-13.47 0-7.23 0-7.66 0-8.23 0-10.82.14-20.22 4.32-22.44 5.21-7.48 3-27.28 5.88-82.41 5.14l.27 111.86 979.28 1.17z"/></clipPath><linearGradient id="b" gradientUnits="userSpaceOnUse" x1="704.83" x2="704.83" y1="754.68" y2="140.53"><stop offset="0" stop-color="#00dcc4" stop-opacity=".2"/><stop offset="1" stop-color="#1d67e1" stop-opacity=".8"/></linearGradient><path d="m1.5 1.5v32h32v-32zm20.5 10.64a2.54 2.54 0 0 1 2.53 2.53.73.73 0 0 1 -.73.72.72.72 0 0 1 -.72-.72 1.08 1.08 0 1 0 -2.15 0 .73.73 0 0 1 -.73.72.72.72 0 0 1 -.72-.72 2.53 2.53 0 0 1 2.52-2.53zm-8 0a2.53 2.53 0 0 1 2.53 2.52.73.73 0 0 1 -.73.72.72.72 0 0 1 -.72-.72 1.08 1.08 0 0 0 -2.15 0 .73.73 0 0 1 -.73.72.72.72 0 0 1 -.72-.72 2.52 2.52 0 0 1 2.52-2.52zm10.5 9a7.19 7.19 0 0 1 -6.65 4.25 7.13 7.13 0 0 1 -6.69-4.27.87.87 0 0 1 .45-1.12 1 1 0 0 1 .33-.06.86.86 0 0 1 .8.53 5.41 5.41 0 0 0 5.09 3.2 5.45 5.45 0 0 0 5.05-3.2.87.87 0 0 1 1.6.69z" fill="#fff"/><g clip-path="url(#a)"><path d="m80.25 106.7h1249.17v651.48h-1249.17z" fill="url(#b)" transform="matrix(.95671205 -.29103617 .29103617 .95671205 -95.36 223.91)"/></g></svg>