<svg viewBox="0 0 712 1000" xmlns="http://www.w3.org/2000/svg" xmlns:xlink="http://www.w3.org/1999/xlink"><clipPath id="a"><path d="m712 309c-11.33 5.17-17.86 22-29 24.31-6.22 1.28-7.33-1.73-13.77 0-9.15 2.43-8.95 9-17.85 12.14-8.24 2.87-10.59-2.07-19.44.78-8.1 2.61-6.71 6.91-16.23 11.33-5.87 2.73-11.47 3.43-22.69 4.83-9.81 1.23-9.79.34-12.16 1.61-9 4.83-6 16-14.61 20.24-5.07 2.49-8.79 0-13.78 4a19.55 19.55 0 0 0 -4.87 6.47c-3.84 7.2-2.79 12.41-4.88 13-2.36.63-5.88-5.47-6.47-6.49-6.67-11.55-2.78-19.62-8.08-23.51-4-2.91-9.93-1.15-13.77 0-7.59 2.24-9.31 6.4-16.22 10.51-7.2 4.28-8.65 1.74-21.89 5.65-14.15 4.17-13.5 7.37-29.19 12.12-9.37 2.83-14.05 4.25-19.45 4.84-8 .86-13.37.08-17 4-3 3.24-1.25 5.78-4.06 8.1-4.65 3.82-10.67-2.12-19.45.78-4.37 1.45-3.24 3-10.54 7.28-5.86 3.41-11 4.95-16.22 6.47-6.9 2-7.83 1.52-14.59 3.22-7.26 1.83-10.36 3.44-20.26 7.27-11.63 4.49-17.44 6.74-22.7 8.08-22.22 5.63-27-3.21-40.53 4-3.22 1.72-4.65 3.14-19.46 12.13-5.48 3.33-6.8 4.06-8.92 4.85-6.93 2.6-9.41 1.07-19.45 3.22-6.69 1.43-6.11 2.22-12.16 3.23-6.29 1-8.31.42-13.78 1.6-3.66.79-3.72 1.28-11.35 4-8.42 3-13.89 5-21.08 6.46-6.7 1.33-7.73.76-11.34 2.42-5.72 2.62-5.93 5.34-10.55 7.28-6.63 2.78-8.8-1.74-16.2 0-9.07 2.11-8.85 9.6-18.66 11.32-.29.05 0 0-10.53.8-7.77.59-8.17.64-8.92.8-7 1.44-6.85 4.2-13 5.65-2.67.64-2.76 0-14.59 0-7.82 0-8.29 0-8.91 0-11.73.15-21.9 4.68-24.32 5.64-8.15 3.22-13.08 3.57-19.08 4.57v466h712z"/></clipPath><linearGradient id="b" gradientUnits="userSpaceOnUse" x1="709.93" x2="709.93" y1="1003.48" y2="115.1"><stop offset="0" stop-color="#00dcc4" stop-opacity=".2"/><stop offset="1" stop-color="#1d67e1" stop-opacity=".8"/></linearGradient><path d="m0 0h712v1000h-712z" fill="#f6f8fc"/><path d="m-.5 533.5c15-1 11.51-2.43 19.61-5.67 2.41-1 12.58-5.5 24.31-5.67h8.91c11.82 0 11.92.64 14.59 0 6.11-1.46 6-4.22 13-5.67.75-.16 1.15-.21 8.92-.81 10.55-.82 10.24-.76 10.53-.81 9.81-1.74 9.58-9.23 18.64-11.35 7.4-1.73 9.58 2.79 16.21 0 4.61-1.94 4.82-4.66 10.53-7.29 3.61-1.66 4.64-1.09 11.35-2.43 7.18-1.44 12.65-3.43 21.07-6.49 7.62-2.77 7.68-3.25 11.34-4.05 5.47-1.18 7.49-.56 13.78-1.62 6.05-1 5.46-1.8 12.15-3.24 10-2.16 12.52-.63 19.45-3.24 2.12-.8 3.43-1.52 8.91-4.86 14.8-9 16.23-10.43 19.45-12.16 13.51-7.23 18.31 1.61 40.52-4.05 5.26-1.34 11.07-3.6 22.69-8.1 9.9-3.84 13-5.46 20.26-7.3 6.76-1.7 7.68-1.21 14.59-3.24a67.29 67.29 0 0 0 16.2-6.48c7.3-4.25 6.17-5.84 10.54-7.29 8.77-2.92 14.8 3 19.45-.81 2.81-2.32 1.06-4.87 4.05-8.11 3.65-3.95 9-3.18 17-4.05 5.4-.59 10.08-2 19.45-4.86 15.67-4.77 15-8 29.17-12.16 13.23-3.92 14.69-1.39 21.88-5.67 6.91-4.12 8.62-8.28 16.21-10.54 3.84-1.14 9.8-2.91 13.77 0 5.31 3.89 1.42 12 8.11 23.51.59 1 4.11 7.11 6.48 6.48 2.09-.56 1-5.77 4.86-13a19.77 19.77 0 0 1 4.86-6.48c5-4.08 8.72-1.56 13.78-4 8.64-4.26 5.58-15.42 14.59-20.26 2.36-1.27 2.34-.38 12.15-1.62 11.22-1.42 16.82-2.13 22.69-4.86 9.51-4.44 8.11-8.74 16.21-11.35 8.85-2.86 11.2 2.07 19.45-.81 8.89-3.11 8.68-9.72 17.82-12.15 6.44-1.72 7.56 1.28 13.78 0 11.18-2.32 10.56-12.65 21.88-17.83l7.33-3.65" fill="none" stroke="#1d67e1" stroke-miterlimit="10" stroke-width="5"/><g clip-path="url(#a)"><path d="m-193.54 66.17h1806.95v942.38h-1806.95z" fill="url(#b)" transform="matrix(.95671205 -.29103617 .29103617 .95671205 -125.68 229.94)"/></g></svg>