<svg id="Main" xmlns="http://www.w3.org/2000/svg" xmlns:xlink="http://www.w3.org/1999/xlink" viewBox="0 0 1005.73 150"><defs><style>.cls-1{fill:#202937;}</style><symbol id="SFBlack" data-name="SFBlack" viewBox="0 0 335.24 50"><path class="cls-1" d="M93,36.85a5.37,5.37,0,0,0-.68-2.77,6.68,6.68,0,0,0-2.62-2.23A34.66,34.66,0,0,0,84,29.59,58,58,0,0,1,78,27.23a24.51,24.51,0,0,1-5.1-3.08,13.29,13.29,0,0,1-3.48-4.1,11.25,11.25,0,0,1-1.27-5.47,11.16,11.16,0,0,1,2.28-7A15,15,0,0,1,76.64,3,23.75,23.75,0,0,1,85.77,1.3,21.4,21.4,0,0,1,95,3.16a14.36,14.36,0,0,1,6.1,5.16A13.61,13.61,0,0,1,103.26,16H93.07a7,7,0,0,0-.82-3.4,5.52,5.52,0,0,0-2.46-2.31,9.15,9.15,0,0,0-4.18-.83,10.27,10.27,0,0,0-4.07.71A5.55,5.55,0,0,0,79.12,12a4.59,4.59,0,0,0-.8,2.64,3.79,3.79,0,0,0,1.07,2.67,10.25,10.25,0,0,0,3.13,2.1,40.48,40.48,0,0,0,5,1.87A38.34,38.34,0,0,1,96.19,25a15.2,15.2,0,0,1,5.29,5,12.79,12.79,0,0,1,1.78,6.82,11.88,11.88,0,0,1-2.14,7.13,13.26,13.26,0,0,1-6,4.53A24.35,24.35,0,0,1,86,50a26.67,26.67,0,0,1-7-.93,20,20,0,0,1-6.22-2.86,14.48,14.48,0,0,1-4.44-4.9,14.14,14.14,0,0,1-1.66-7H76.92a8.72,8.72,0,0,0,.64,3.56,5.87,5.87,0,0,0,1.82,2.36,7.47,7.47,0,0,0,2.86,1.32,16,16,0,0,0,3.76.41,10.24,10.24,0,0,0,4-.67,5,5,0,0,0,2.3-1.82A4.74,4.74,0,0,0,93,36.85Z"/><path class="cls-1" d="M118.09,49.35h-9.83V14.13h9.24l.59,7.35ZM114,30.7a23.66,23.66,0,0,1,1.56-8.89,13.59,13.59,0,0,1,4.64-6.1,12.62,12.62,0,0,1,7.63-2.23,10.5,10.5,0,0,1,7.65,2.88q3,2.88,3,9.49v23.5h-9.83V27.05a8.07,8.07,0,0,0-.6-3.47,3.25,3.25,0,0,0-1.74-1.67,7.24,7.24,0,0,0-2.74-.46,6.43,6.43,0,0,0-3,.67,5.69,5.69,0,0,0-2.15,1.9,8.69,8.69,0,0,0-1.25,2.92,14.89,14.89,0,0,0-.41,3.63Zm20-.39a22.73,22.73,0,0,1,1.48-8.6,13.38,13.38,0,0,1,4.54-6,12.38,12.38,0,0,1,7.52-2.21,12.83,12.83,0,0,1,5.93,1.3A8.82,8.82,0,0,1,157.47,19a18.76,18.76,0,0,1,1.4,8V49.35H149V27a7.79,7.79,0,0,0-.6-3.45,3.26,3.26,0,0,0-1.73-1.61,7.43,7.43,0,0,0-2.69-.44,6,6,0,0,0-2.81.62,5.51,5.51,0,0,0-2,1.77,8.59,8.59,0,0,0-1.2,2.71,13.24,13.24,0,0,0-.41,3.37Z"/><path class="cls-1" d="M185.49,33.46h-5q-3.58,0-5.18,1.55a5,5,0,0,0-1.6,3.73,3.55,3.55,0,0,0,1.18,2.73A4.46,4.46,0,0,0,178,42.55a7.4,7.4,0,0,0,3.54-.8,6.49,6.49,0,0,0,2.27-1.92,3.42,3.42,0,0,0,.77-2.07L187.15,42a17.37,17.37,0,0,1-1.39,2.7,11.6,11.6,0,0,1-2.19,2.61,10.6,10.6,0,0,1-3.24,2,12.18,12.18,0,0,1-4.48.75,13.47,13.47,0,0,1-6-1.35,10.9,10.9,0,0,1-4.33-3.74,9.72,9.72,0,0,1-1.6-5.49A10.06,10.06,0,0,1,168,30.84q4.1-3,12.2-3h5.24Zm-1.34-7.58A5.73,5.73,0,0,0,183,22.1a4.62,4.62,0,0,0-3.74-1.4,6.19,6.19,0,0,0-2.54.49,3.66,3.66,0,0,0-1.63,1.38,4.11,4.11,0,0,0-.55,2.2h-9.83a9.5,9.5,0,0,1,1.85-5.68A12.9,12.9,0,0,1,171.78,15a19.26,19.26,0,0,1,8-1.53,18.45,18.45,0,0,1,7.32,1.38A11.37,11.37,0,0,1,192.16,19,12.16,12.16,0,0,1,194,25.94V40.66a25.85,25.85,0,0,0,.37,5,13,13,0,0,0,1.06,3.19v.55h-9.9a13.47,13.47,0,0,1-1.05-3.74,30,30,0,0,1-.35-4.56Z"/><path class="cls-1" d="M210.28,49.35h-9.83V14.13h9.24l.59,8.1Zm10.29-26-1.7-.18c-.65-.05-1.23-.08-1.75-.08a9.84,9.84,0,0,0-4.24.8,5.29,5.29,0,0,0-2.47,2.36,9,9,0,0,0-.88,3.87l-1.92-.84a26.24,26.24,0,0,1,1.17-8.17,12.58,12.58,0,0,1,3.45-5.62,8.06,8.06,0,0,1,5.54-2,14.78,14.78,0,0,1,1.58.09,5.12,5.12,0,0,1,1.35.33Z"/><path class="cls-1" d="M244.83,21.29H224V14.13h20.8Zm-6-15.85V38.35a5.23,5.23,0,0,0,.38,2.21,2,2,0,0,0,1.19,1.07,5.83,5.83,0,0,0,2,.3,14.73,14.73,0,0,0,1.57-.07c.45,0,.84-.1,1.17-.16l0,7.42a15.44,15.44,0,0,1-2.62.65,20.46,20.46,0,0,1-3.18.23,13.07,13.07,0,0,1-5.48-1.06,7.47,7.47,0,0,1-3.58-3.38A12.82,12.82,0,0,1,229,39.45v-34Z"/><path class="cls-1" d="M262.11,49.35H251.86V2h10.25Zm20.83-39.13H259.37V2h23.57Zm-2.24,20H259.37V21.94H280.7Z"/><path class="cls-1" d="M292.9,10.09a5.52,5.52,0,0,0,4-1.43,4.85,4.85,0,0,0,1.48-3.61,4.81,4.81,0,0,0-1.48-3.63,6.33,6.33,0,0,0-8,0,4.76,4.76,0,0,0-1.5,3.63,4.79,4.79,0,0,0,1.5,3.61A5.55,5.55,0,0,0,292.9,10.09Z"/><rect class="cls-1" x="287.95" y="14.14" width="9.86" height="35.22"/><path class="cls-1" d="M314.31,49.35h-9.83V14.13h9.25l.58,7.52Zm-4-18.65A22.41,22.41,0,0,1,312,21.5a13.63,13.63,0,0,1,4.85-5.94,12.76,12.76,0,0,1,7.26-2.08,12.35,12.35,0,0,1,5.81,1.3A9,9,0,0,1,333.83,19a18.73,18.73,0,0,1,1.41,8V49.35h-9.86V27a7.35,7.35,0,0,0-.63-3.37,3.54,3.54,0,0,0-1.84-1.66,8.3,8.3,0,0,0-3-.47,6.76,6.76,0,0,0-3.11.67,5.93,5.93,0,0,0-2.18,1.9,8.93,8.93,0,0,0-1.28,2.92,14.87,14.87,0,0,0-.43,3.63Z"/><path class="cls-1" d="M32.93,10,5,38,12,45l28-28V50H50V4a4,4,0,0,0-4-4H0V10Z"/></symbol></defs><use width="335.24" height="50" transform="scale(3)" xlink:href="#SFBlack"/></svg>